<?xml version="1.0" encoding="UTF-8" standalone="no"?>
<!-- Created with Inkscape (http://www.inkscape.org/) -->

<svg
   width="200mm"
   height="200mm"
   viewBox="0 0 200 200"
   version="1.1"
   id="svg1"
   inkscape:version="1.3.1 (91b66b0783, 2023-11-16)"
   sodipodi:docname="statistic3.svg"
   xml:space="preserve"
   xmlns:inkscape="http://www.inkscape.org/namespaces/inkscape"
   xmlns:sodipodi="http://sodipodi.sourceforge.net/DTD/sodipodi-0.dtd"
   xmlns="http://www.w3.org/2000/svg"
   xmlns:svg="http://www.w3.org/2000/svg"><sodipodi:namedview
     id="namedview1"
     pagecolor="#ffffff"
     bordercolor="#000000"
     borderopacity="0.25"
     inkscape:showpageshadow="2"
     inkscape:pageopacity="0.0"
     inkscape:pagecheckerboard="0"
     inkscape:deskcolor="#d1d1d1"
     inkscape:document-units="mm"
     inkscape:zoom="0.34743266"
     inkscape:cx="77.712901"
     inkscape:cy="365.53846"
     inkscape:window-width="1920"
     inkscape:window-height="976"
     inkscape:window-x="-8"
     inkscape:window-y="-8"
     inkscape:window-maximized="1"
     inkscape:current-layer="layer1"
     showguides="true" /><defs
     id="defs1" /><g
     inkscape:label="Слой 1"
     inkscape:groupmode="layer"
     id="layer1"><path
       id="path3217"
       d="m 153.47644,34.53877 0,148.66733 c 0,6.47136 35.56775,6.47136 35.56775,0 l 0,-148.66733 c 0,-7.547609 -35.56775,-7.552383 -35.56775,0 z"
       style="fill:#547586;fill-opacity:1;stroke-width:0.221575"
       inkscape:connector-curvature="0"
       sodipodi:nodetypes="ccccc" /><path
       id="path3217-2"
       d="m 105.76182,109.55031 0,73.65579 c 0,6.47136 35.56775,6.47136 35.56775,0 l 0,-73.65579 c 0,-7.54761 -35.56775,-7.55238 -35.56775,0 z"
       style="fill:#547586;fill-opacity:1;stroke-width:0.221575"
       inkscape:connector-curvature="0"
       sodipodi:nodetypes="ccccc" /><path
       id="path3217-7"
       d="m 58.020814,81.748658 0,101.451942 c 0,6.47136 35.56775,6.47136 35.56775,0 l 0,-101.451942 c 0,-7.54761 -35.56775,-7.55238 -35.56775,0 z"
       style="fill:#547586;fill-opacity:1;stroke-width:0.221575"
       inkscape:connector-curvature="0"
       sodipodi:nodetypes="ccccc" /><path
       id="path3217-2-4"
       d="m 10.306194,143.0525 0,40.1481 c 0,6.47136 35.56775,6.47136 35.56775,0 l 0,-40.1481 c 0,-7.54761 -35.56775,-7.55238 -35.56775,0 z"
       style="fill:#547586;fill-opacity:1;stroke-width:0.221575"
       inkscape:connector-curvature="0"
       sodipodi:nodetypes="ccccc" /><path
       id="path3211"
       d="m 31.361724,151.67673 c -4.19049,-1.13394 -7.3079,0.54939 -9.40885,3.41733 -2.27922,3.57217 -1.68807,7.81424 1.78952,10.92148 4.49946,3.37955 9.39292,1.18102 11.05745,-0.65416 1.90465,-2.52832 3.14015,-5.51731 0.55536,-10.14328 l 36.99284,-50.69225 c 1.03952,0.4568 2.1243,0.65126 3.24005,0.66614 1.68556,0 3.15333,-0.62949 4.14898,-1.12506 l 35.513046,20.9272 c -0.0857,5.5051 2.59421,8.67661 8.21277,9.36848 4.83174,-0.25522 10.03346,-4.59801 7.44313,-11.684 -0.16985,-1.29811 37.20436,-73.710086 37.65409,-74.463586 0.75005,0.25943 1.53362,0.39068 2.34054,0.4327 2.61752,0.15758 8.01352,-1.62675 8.50283,-8.21277 -0.31896,-5.16813 -3.65173,-8.12514 -8.53405,-8.21278 -4.01928,0.35093 -7.4773,2.84774 -7.8915,8.21278 0.0498,1.90014 0.58452,3.6004 1.734,5.04728 0.53959,-0.11137 -37.08904,73.495896 -38.03145,73.119236 -0.94242,-0.37666 -2.0147,-0.59842 -3.21759,-0.6644 -2.65305,0.0916 -4.76709,1.09339 -6.34574,2.99921 0,0 -34.595976,-19.34395 -34.154806,-20.3418 0.26255,-0.59384 0.83853,-1.566116 0.83853,-3.615256 -0.43372,-5.00723 -3.2095,-7.7072 -8.21278,-8.21277 -4.96392,0.48001 -7.7529,3.16549 -8.21277,8.21277 0.008,1.5132 0.39473,2.96724 1.24583,4.348706 z"
       style="fill:#df601c;fill-opacity:1;stroke-width:0.60431"
       inkscape:connector-curvature="0"
       sodipodi:nodetypes="cccccccccccccccccscssccccc"
       inkscape:transform-center-x="-15.586118"
       inkscape:transform-center-y="-19.071833" /></g></svg>
