<?xml version="1.0" encoding="UTF-8" standalone="no"?>
<!-- Created with Inkscape (http://www.inkscape.org/) -->

<svg
   width="200mm"
   height="200mm"
   viewBox="0 0 200 200"
   version="1.1"
   id="svg1"
   inkscape:version="1.3.1 (91b66b0783, 2023-11-16)"
   sodipodi:docname="alarm.svg"
   xml:space="preserve"
   xmlns:inkscape="http://www.inkscape.org/namespaces/inkscape"
   xmlns:sodipodi="http://sodipodi.sourceforge.net/DTD/sodipodi-0.dtd"
   xmlns="http://www.w3.org/2000/svg"
   xmlns:svg="http://www.w3.org/2000/svg"><sodipodi:namedview
     id="namedview1"
     pagecolor="#ffffff"
     bordercolor="#000000"
     borderopacity="0.25"
     inkscape:showpageshadow="2"
     inkscape:pageopacity="0.0"
     inkscape:pagecheckerboard="0"
     inkscape:deskcolor="#d1d1d1"
     inkscape:document-units="mm"
     inkscape:zoom="0.98268796"
     inkscape:cx="461.99813"
     inkscape:cy="327.67268"
     inkscape:window-width="1920"
     inkscape:window-height="976"
     inkscape:window-x="-8"
     inkscape:window-y="-8"
     inkscape:window-maximized="1"
     inkscape:current-layer="layer1"
     showguides="true" /><defs
     id="defs1" /><g
     inkscape:label="Слой 1"
     inkscape:groupmode="layer"
     id="layer1"><g
       id="g4692"
       transform="matrix(1.1357433,0,0,1.1357433,2401.3124,-367.0112)"><path
         inkscape:connector-curvature="0"
         id="path4650"
         d="m -2025.7981,466.55345 c -8.0086,0 -14.5614,0.0665 -14.5614,0.14779 0,0.0813 0.1315,1.00399 0.292,2.05052 0.3283,2.14331 1.5922,5.08238 2.8664,6.66523 1.9018,2.36238 4.9709,4.34414 7.8218,5.05084 1.8462,0.4576 5.2915,0.44728 7.09,-0.0212 3.3535,-0.87349 6.8224,-3.36767 8.6553,-6.22392 1.0004,-1.5589 1.9897,-4.34941 2.2267,-6.28023 l 0.1706,-1.38906 z"
         style="fill:#547586;fill-opacity:1;stroke-width:1" /><path
         inkscape:connector-curvature="0"
         id="path4648"
         d="m -2088.3293,362.03914 c -1.1108,0 -1.7659,0.5887 -3.9967,3.59151 -7.4603,10.04181 -12.1756,21.78283 -13.4566,33.50596 -0.3544,3.24427 -0.3606,12.02616 -0.01,15.15774 1.2981,11.60693 5.93,23.53154 12.6711,32.62334 1.1015,1.48552 1.8732,2.24398 2.7006,2.65358 3.713,1.83785 8.1453,-0.90755 8.1644,-5.05706 0.01,-1.68709 -0.3199,-2.37913 -3.0035,-6.34637 -4.5619,-6.74402 -7.4806,-14.34135 -8.8155,-22.94745 -0.7092,-4.57197 -0.6447,-13.02848 0.1339,-17.555 1.4303,-8.31466 4.4716,-16.03203 8.9441,-22.69527 2.3973,-3.57153 2.7466,-4.32408 2.7466,-5.91952 0,-2.19829 -0.9622,-3.71668 -3.794,-5.9857 -0.9814,-0.78634 -1.5148,-1.02576 -2.2841,-1.02576 z"
         style="fill:#df601c;fill-opacity:1;stroke-width:1" /><path
         inkscape:connector-curvature="0"
         id="path4655"
         d="m -2072.9675,375.47306 c -2.0751,0 -3.4003,0.90371 -5.102,3.4799 -1.782,2.69772 -4.2432,7.76558 -5.3697,11.05668 -3.3619,9.82228 -3.4465,21.26588 -0.232,31.36863 1.4186,4.45854 4.9824,11.56591 6.8114,13.58471 0.6502,0.71744 1.8073,1.36678 2.9435,1.65155 1.001,0.25088 2.6727,0.0332 3.7042,-0.48212 2.1564,-1.07728 3.1415,-2.83152 2.9977,-5.33871 -0.089,-1.54969 -0.2548,-1.9985 -1.4976,-4.05297 -4.1335,-6.83347 -5.9577,-13.21464 -5.9577,-20.84059 0,-7.69472 1.8311,-13.98452 5.9324,-20.37808 1.2934,-2.01625 1.434,-2.38318 1.524,-3.97547 0.1142,-2.02072 -0.3779,-3.26101 -1.8511,-4.66844 -1.1398,-1.08894 -2.0184,-1.40509 -3.9031,-1.40509 z"
         style="fill:#df601c;fill-opacity:1;stroke-width:1" /><path
         inkscape:connector-curvature="0"
         id="path4643"
         d="m -2029.3483,353.88293 -1.0817,0.78134 c -1.1825,0.85429 -1.8437,1.74919 -2.5275,3.42098 -0.3812,0.93179 -0.4605,1.6428 -0.5484,4.92012 0.2785,1.27017 0.8086,2.50439 1.8671,3.66314 l -3.4472,0.61464 c -3.316,1.00343 -7.7076,3.48332 -10.4917,5.92471 -7.0742,6.20379 -11.7224,15.24349 -13.4673,26.19012 -0.6422,4.0294 -0.834,7.94504 -0.834,17.09042 0,9.09338 -0.1637,11.24355 -1.1499,15.18203 -0.6633,2.64895 -1.9146,5.97003 -3.4,9.02271 -1.5161,3.11619 -1.9426,4.96361 -1.9426,8.41963 0,3.09964 0.3155,4.8089 1.3222,7.16391 0.6666,1.55956 2.2292,3.74446 3.4618,4.84052 0.7706,0.6853 2.5494,1.61658 3.6349,1.90326 0.4463,0.1179 15.144,0.19645 32.6616,0.17465 l 31.8502,-0.0393 1.3836,-0.72294 c 1.6595,-0.86691 2.3306,-1.44264 3.753,-3.22048 2.1159,-2.64457 3.0795,-5.80515 3.0795,-10.09965 0,-3.51367 -0.4331,-5.33837 -2.039,-8.58602 -2.0752,-4.19672 -3.0589,-7.03956 -3.8822,-11.21741 -0.3791,-1.92384 -0.4365,-3.25938 -0.5729,-13.38162 -0.1587,-11.77263 -0.2995,-14.0458 -1.1404,-18.38648 -0.9497,-4.90328 -2.3801,-9.1018 -4.5582,-13.37953 -1.7458,-3.42878 -5.5269,-8.33305 -8.2101,-10.64844 -3.295,-2.84345 -7.6672,-5.33498 -11.143,-6.35053 l -3.8574,-0.60696 c 1.8266,-1.7164 2.1145,-2.60427 2.5375,-3.56489 -0.1153,-4.28633 -0.3137,-5.07251 -1.754,-6.95097 -1.5387,-2.00673 -1.9531,-2.15699 -5.9537,-2.15699 z"
         style="fill:#547586;fill-opacity:1;stroke-width:1"
         sodipodi:nodetypes="ccccccccsscscccccccssscccccccccc" /><path
         inkscape:connector-curvature="0"
         id="path4648-9"
         d="m -1963.3589,362.03914 c 1.1108,0 1.7659,0.5887 3.9967,3.59151 7.4603,10.04181 12.1756,21.78283 13.4566,33.50596 0.3544,3.24427 0.3606,12.02616 0.01,15.15774 -1.2981,11.60693 -5.93,23.53154 -12.6711,32.62334 -1.1015,1.48552 -1.8732,2.24398 -2.7006,2.65358 -3.713,1.83785 -8.1453,-0.90755 -8.1644,-5.05706 -0.01,-1.68709 0.3199,-2.37913 3.0035,-6.34637 4.5619,-6.74402 7.4806,-14.34135 8.8155,-22.94745 0.7092,-4.57197 0.6447,-13.02848 -0.1339,-17.555 -1.4303,-8.31466 -4.4716,-16.03203 -8.9441,-22.69527 -2.3973,-3.57153 -2.7466,-4.32408 -2.7466,-5.91952 0,-2.19829 0.9622,-3.71668 3.794,-5.9857 0.9814,-0.78634 1.5148,-1.02576 2.2841,-1.02576 z"
         style="fill:#df601c;fill-opacity:1;stroke-width:1" /><path
         inkscape:connector-curvature="0"
         id="path4655-2"
         d="m -1978.7207,375.47306 c 2.0751,0 3.4003,0.90371 5.102,3.4799 1.782,2.69772 4.2432,7.76558 5.3697,11.05668 3.3619,9.82228 3.4465,21.26588 0.232,31.36863 -1.4186,4.45854 -4.9824,11.56591 -6.8114,13.58471 -0.6502,0.71744 -1.8073,1.36678 -2.9435,1.65155 -1.001,0.25088 -2.6727,0.0332 -3.7042,-0.48212 -2.1564,-1.07728 -3.1415,-2.83152 -2.9977,-5.33871 0.089,-1.54969 0.2548,-1.9985 1.4976,-4.05297 4.1335,-6.83347 5.9577,-13.21464 5.9577,-20.84059 0,-7.69472 -1.8311,-13.98452 -5.9324,-20.37808 -1.2934,-2.01625 -1.434,-2.38318 -1.524,-3.97547 -0.1142,-2.02072 0.3779,-3.26101 1.8511,-4.66844 1.1398,-1.08894 2.0184,-1.40509 3.9031,-1.40509 z"
         style="fill:#df601c;fill-opacity:1;stroke-width:1" /></g></g></svg>
