<?xml version="1.0" encoding="UTF-8" standalone="no"?>
<!-- Created with Inkscape (http://www.inkscape.org/) -->

<svg
   width="200mm"
   height="200mm"
   viewBox="0 0 200 200"
   version="1.1"
   id="svg1"
   inkscape:version="1.3.1 (91b66b0783, 2023-11-16)"
   sodipodi:docname="authorization.svg"
   xml:space="preserve"
   xmlns:inkscape="http://www.inkscape.org/namespaces/inkscape"
   xmlns:sodipodi="http://sodipodi.sourceforge.net/DTD/sodipodi-0.dtd"
   xmlns="http://www.w3.org/2000/svg"
   xmlns:svg="http://www.w3.org/2000/svg"><sodipodi:namedview
     id="namedview1"
     pagecolor="#ffffff"
     bordercolor="#000000"
     borderopacity="0.25"
     inkscape:showpageshadow="2"
     inkscape:pageopacity="0.0"
     inkscape:pagecheckerboard="0"
     inkscape:deskcolor="#d1d1d1"
     inkscape:document-units="mm"
     inkscape:zoom="0.69486532"
     inkscape:cx="240.33434"
     inkscape:cy="297.89945"
     inkscape:window-width="1920"
     inkscape:window-height="976"
     inkscape:window-x="-8"
     inkscape:window-y="-8"
     inkscape:window-maximized="1"
     inkscape:current-layer="layer1"
     showguides="true" /><defs
     id="defs1" /><g
     inkscape:label="Слой 1"
     inkscape:groupmode="layer"
     id="layer1"><g
       id="g3193"
       transform="matrix(0.90750597,0,0,0.90750597,3751.7149,2412.5872)"><path
         transform="matrix(0.26458333,0,0,0.26458333,0,87)"
         id="path3171"
         d="m -15304.426,-10239.984 h -19 -19 l -9.5,1.773 -9.5,1.773 -12,4.01 -12,4.008 -7.418,4 -7.418,4 -7.082,4.684 -7.082,4.685 -10.523,10.518 -10.526,10.515 -5.738,8.631 -5.738,8.631 -4.35,9.369 -4.347,9.369 -2.618,8 -2.615,8 -1.551,6.782 -1.552,6.779 -1.454,10.221 -1.451,10.218 v 16.5 16.5 l 1.459,10.975 1.461,10.975 1.629,8.025 1.627,8.025 3.397,11.715 3.394,11.715 4.51,11.6699 4.512,11.67 7.236,14.1152 7.236,14.1152 8.674,13 8.674,13 7.326,8.3575 7.324,8.3554 1.699,2.6485 1.7,2.6484 1.599,5.9961 1.6,5.9941 v 10 10 l -1.565,6 -1.562,6 -3.572,7.3164 -3.573,7.3164 -5.662,5.8516 -5.662,5.8516 -19.5,7.6933 -19.502,7.6934 -17.189,8.2851 -17.19,8.2871 -13.48,7.6094 -13.483,7.6094 -12.744,8.5645 -12.746,8.5664 -7.584,6.1386 -7.584,6.1407 -8.998,9.0546 -9.002,9.0547 -4.787,7.1973 -4.789,7.1973 -2.318,5.2871 -2.321,5.2851 -1.39,5.5 -1.395,5.5 0.1,17.5 0.09,17.5 2.236,6.4629 2.238,6.461 2.586,4.414 2.586,4.4121 5.311,5.7344 5.308,5.7363 7.539,5.211 7.539,5.2109 9.233,4.3652 9.234,4.3653 9.5,3.4297 9.5,3.4277 14,3.5957 14,3.5977 15,2.5742 15,2.5742 16.5,1.9199 16.5,1.918 14,1.1074 14,1.1094 17.5,0.7851 v 0 l 17.5,0.7851 35.5,0.1426 35.5,0.1446 22,-0.9825 22,-0.9804 13.5,-1.0586 13.5,-1.0586 17,-1.961 17,-1.9609 14.346,-2.498 14.344,-2.5 11.779,-2.9747 11.779,-2.9726 9.877,-3.3711 9.875,-3.3711 7.647,-3.1953 7.646,-3.1973 6.854,-4.0879 6.853,-4.0898 5.5,-4.416 5.5,-4.4141 4.785,-5.6953 4.784,-5.6973 2.468,-5.0156 2.471,-5.0195 1.479,-6.9805 1.478,-6.9844 v -14 -14 l -1.463,-6.9121 -1.465,-6.9121 -3.033,-6.4805 -3.033,-6.4824 -4.707,-6.6054 -4.709,-6.6075 -8.756,-8.6894 -8.756,-8.6895 -6.771,-5.3476 -6.772,-5.3457 -6.5,-4.5801 -6.5,-4.5801 -10.648,-6.5781 -10.651,-6.5781 -14.349,-7.4922 -14.352,-7.4903 -14,-6.1894 -14,-6.1875 -16.5,-6.2442 -16.5,-6.2461 -3.734,-1.2031 -3.735,-1.2011 -3.58,-4.1797 -3.58,-4.1778 -2.855,-6 -2.854,-6 -1.744,-6.5 -1.746,-6.5 v -11 -11 l 2.289,-9.4316 2.287,-9.4336 8.486,-10.0684 8.485,-10.0664 5.799,-8.1347 5.799,-8.1348 6.105,-10.1074 6.105,-10.1094 5.854,-11.7559 5.853,-11.7578 3.608,-9.1832 3.607,-9.184 3.502,-11.553 3.502,-11.552 1.985,-9.764 1.986,-9.764 1.17,-9.931 1.166,-9.934 -0.563,-19.566 -0.564,-19.569 -2.127,-10 -2.125,-10 -3.416,-10.254 -3.416,-10.253 -3.967,-8.247 -3.965,-8.246 -5.31,-7.965 -5.311,-7.966 -8.943,-9.362 -8.943,-9.361 -8.411,-6.312 -8.41,-6.313 -9.646,-5.025 -9.647,-5.026 -10,-3.451 -10,-3.451 -11.5,-2.369 z"
         style="fill:#df601c;fill-opacity:1;stroke-width:1"
         inkscape:connector-curvature="0" /><path
         transform="matrix(0.26458333,0,0,0.26458333,0,87)"
         id="path3163"
         d="m -15085.457,-10331.854 -9.135,1.651 -9.137,1.65 -8.363,2.625 -8.365,2.625 -7.238,3.324 -7.239,3.327 -8.427,5.492 -8.426,5.492 -7.684,7.299 -7.685,7.301 -6.448,8.527 -6.447,8.527 -5.144,10.274 -5.143,10.273 10.977,10.727 10.976,10.726 5.596,7 5.596,7 5.66,8.35 5.66,8.352 5.332,10.65 5.332,10.648 3.752,10 3.752,10 3.326,13.149 3.324,13.146 1.729,11.854 1.726,11.851 0.04,22 0.04,22 -1.241,9.5 -1.242,9.5 -2.426,12.049 -2.425,12.049 -3.485,12.104 -3.484,12.105 -4.612,12.3476 -4.611,12.3457 -6.992,14.5 -6.994,14.5 -8.985,15.043 -8.984,15.041 -9.961,13.2676 -9.963,13.2676 v 0.6972 0.6993 l 15.936,6.3359 15.935,6.334 19.821,9.7363 19.82,9.7363 10.994,6.3301 10.994,6.3281 12,7.9766 12,7.9766 8,6.2617 8,6.2617 8.053,7.3535 8.055,7.3535 6.873,7.5 6.873,7.5 6.316,8.5 6.315,8.5 5.666,11.3692 h -0.01 l 5.666,11.3691 11.092,-0.6816 11.092,-0.6797 14.5,-1.4707 14.5,-1.4707 10.5,-1.5117 10.5,-1.5118 11,-2.0097 11,-2.0098 11.898,-2.9844 11.898,-2.9863 9.602,-3.5879 9.602,-3.5879 7.879,-3.8828 7.878,-3.8808 6.836,-4.545 6.834,-4.5429 5.371,-5.9356 5.372,-5.9355 3.074,-6.3028 3.072,-6.3027 1.199,-6.0938 1.199,-6.0917 -0.435,-15.8653 -0.434,-15.8672 -2.545,-6.7402 -2.547,-6.7422 -3.333,-5.5 -3.334,-5.5019 -6.844,-8.0372 -6.846,-8.0371 -8.519,-7.2207 -8.522,-7.2207 -8.678,-6.2168 -8.677,-6.2168 -12.664,-7.5722 -12.665,-7.5703 -14.835,-7.3848 -14.836,-7.3828 -10.5,-4.4414 -10.5,-4.4414 -14.5,-5.4883 -14.5,-5.4903 -5,-1.791 -5,-1.791 -4.096,-4.2129 -4.096,-4.2109 -1.154,-4.5879 -1.154,-4.5859 v -6.8067 -6.8089 l 1.978,-8.252 1.977,-8.252 7.14,-8.248 7.139,-8.248 7.809,-11.785 7.806,-11.785 5.479,-10.715 5.478,-10.715 3.973,-10 3.971,-10 3.162,-9.896 3.16,-9.899 1.865,-8.101 1.865,-8.104 1.592,-9.5 1.59,-9.5 0.959,-14.328 0.959,-14.33 -0.955,-13.367 -0.955,-13.365 -1.93,-9.959 -1.932,-9.961 -3.574,-10.684 -3.576,-10.685 -4.963,-9.662 -4.965,-9.665 -4.572,-6.285 -4.574,-6.285 -6.879,-7.242 -6.881,-7.244 -7.83,-5.631 -7.832,-5.631 -7.5,-4.035 -7.5,-4.035 -10.5,-3.51 -10.5,-3.51 -9.498,-1.713 -9.502,-1.713 h -15.498 z"
         style="fill:#547586;fill-opacity:1;stroke-width:1"
         inkscape:connector-curvature="0" /></g></g></svg>
