<?xml version="1.0" encoding="UTF-8" standalone="no"?>
<!-- Created with Inkscape (http://www.inkscape.org/) -->

<svg
   width="200mm"
   height="200mm"
   viewBox="0 0 200 200"
   version="1.1"
   id="svg1"
   inkscape:version="1.3.1 (91b66b0783, 2023-11-16)"
   sodipodi:docname="bd_in.svg"
   xml:space="preserve"
   xmlns:inkscape="http://www.inkscape.org/namespaces/inkscape"
   xmlns:sodipodi="http://sodipodi.sourceforge.net/DTD/sodipodi-0.dtd"
   xmlns="http://www.w3.org/2000/svg"
   xmlns:svg="http://www.w3.org/2000/svg"><sodipodi:namedview
     id="namedview1"
     pagecolor="#ffffff"
     bordercolor="#000000"
     borderopacity="0.25"
     inkscape:showpageshadow="2"
     inkscape:pageopacity="0.0"
     inkscape:pagecheckerboard="0"
     inkscape:deskcolor="#d1d1d1"
     inkscape:document-units="mm"
     inkscape:zoom="0.34743266"
     inkscape:cx="103.6172"
     inkscape:cy="359.78195"
     inkscape:window-width="1920"
     inkscape:window-height="976"
     inkscape:window-x="-8"
     inkscape:window-y="-8"
     inkscape:window-maximized="1"
     inkscape:current-layer="layer1"
     showguides="true" /><defs
     id="defs1" /><g
     inkscape:label="Слой 1"
     inkscape:groupmode="layer"
     id="layer1"><g
       id="g15"
       transform="matrix(3.033954,0,0,3.033954,-52.373603,-129.47546)"><path
         style="opacity:1;fill:#547586;fill-opacity:1;stroke:none;stroke-width:7.09599;stroke-dasharray:none"
         d="m 21.351896,83.868384 c 7.54191,6.117337 16.20525,8.336011 24.2559,7.939812 l 13.53246,7.768071 c -4.17359,2.097703 -9.74234,3.249023 -15.32299,3.366133 -11.16129,0.23421 -22.37019,-3.668421 -22.56057,-12.410554 z"
         id="path10"
         sodipodi:nodetypes="cccscc" /><path
         style="fill:#547586;fill-opacity:1;stroke:none;stroke-width:7.09599;stroke-dasharray:none"
         d="m 21.351896,68.720442 c 7.35152,6.498106 17.69905,8.560051 26.20185,7.973467 l 0.17249,6.812945 c -0.87504,1.949202 7.25233,4.053386 -3.90897,4.287601 -11.16129,0.234215 -22.37019,-3.668419 -22.56057,-12.410551 z"
         id="path10-5"
         sodipodi:nodetypes="cccscc" /><path
         style="opacity:1;fill:#547586;fill-opacity:1;stroke:none;stroke-width:7.09599;stroke-dasharray:none"
         d="m 24.911116,51.638503 c 11.28857,-8.145203 26.87714,-8.229352 37.55961,0 5.37502,5.327059 4.48022,10.198132 0,14.808446 -11.70343,8.826506 -27.28763,7.596985 -37.42499,0 -4.38105,-4.463111 -5.59641,-9.27157 -0.13462,-14.808446 z"
         id="path11"
         sodipodi:nodetypes="ccccc" /><path
         id="path1628-7"
         style="fill:#df601c;fill-opacity:1;stroke:none;stroke-width:4.1;stroke-linecap:round;stroke-linejoin:round;stroke-miterlimit:4;stroke-dasharray:none;stroke-dashoffset:0;stroke-opacity:1;paint-order:normal"
         d="m 62.046886,69.681453 c -9.96796,-8.3e-5 -18.0486,8.080558 -18.04852,18.04851 -8e-5,9.967952 8.08056,18.048597 18.04852,18.048507 9.96795,9e-5 18.04859,-8.080556 18.04851,-18.048507 8e-5,-9.96795 -8.08056,-18.048591 -18.04851,-18.04851 z m 0.27337,8.766906 7.5153,12.120191 h -4.91288 v 14.85852 c -1.83868,0.23173 -3.68256,0.36473 -5.55264,0 V 90.56855 h -5.11183 z"
         sodipodi:nodetypes="ccccccccccccc" /></g></g></svg>
