<?xml version="1.0" encoding="UTF-8" standalone="no"?>
<!-- Created with Inkscape (http://www.inkscape.org/) -->

<svg
   width="200mm"
   height="200mm"
   viewBox="0 0 200 200"
   version="1.1"
   id="svg1"
   inkscape:version="1.3.1 (91b66b0783, 2023-11-16)"
   sodipodi:docname="brain.svg"
   xml:space="preserve"
   xmlns:inkscape="http://www.inkscape.org/namespaces/inkscape"
   xmlns:sodipodi="http://sodipodi.sourceforge.net/DTD/sodipodi-0.dtd"
   xmlns="http://www.w3.org/2000/svg"
   xmlns:svg="http://www.w3.org/2000/svg"><sodipodi:namedview
     id="namedview1"
     pagecolor="#ffffff"
     bordercolor="#000000"
     borderopacity="0.25"
     inkscape:showpageshadow="2"
     inkscape:pageopacity="0.0"
     inkscape:pagecheckerboard="0"
     inkscape:deskcolor="#d1d1d1"
     inkscape:document-units="mm"
     inkscape:zoom="0.49134398"
     inkscape:cx="628.88732"
     inkscape:cy="468.10383"
     inkscape:window-width="1920"
     inkscape:window-height="976"
     inkscape:window-x="-8"
     inkscape:window-y="-8"
     inkscape:window-maximized="1"
     inkscape:current-layer="layer1"
     showguides="true" /><defs
     id="defs1" /><g
     inkscape:label="Слой 1"
     inkscape:groupmode="layer"
     id="layer1"><path
       style="fill:#547586;fill-opacity:1;stroke-width:1.71459"
       d="m 133.6163,189.19208 c -0.60145,-0.29062 -1.35874,-0.81135 -1.6832,-1.15735 -1.2127,-1.29349 -1.27682,-1.61927 -3.24153,-16.48378 -0.62454,-4.72372 -1.08124,-7.40346 -1.4533,-8.5267 -1.20522,-3.63785 -3.75331,-6.56055 -7.13726,-8.18667 -2.38476,-1.14621 -3.41891,-1.37373 -7.47862,-1.64619 -4.50674,-0.30228 -7.153,-0.99892 -10.71164,-2.81965 -8.673,-4.4372 -14.129251,-13.28571 -14.180081,-22.99547 -0.01677,-2.85703 0.415414,-5.96508 0.752261,-5.43372 0.218028,0.34394 0.251442,0.15431 0.06064,-0.34361 -0.113529,-0.29509 -0.637055,-0.34636 -3.553471,-0.34772 -6.935101,0 -10.815615,-0.90343 -15.288417,-3.54442 -4.73263,-2.79462 -8.607983,-7.30572 -10.607005,-12.34765 l -0.362262,-0.91389 -12.746518,-0.0892 C 34.093301,104.27376 33.107401,104.23608 31.271062,103.81734 26.12405,102.64181 21.866953,100.20331 18.148735,96.301071 14.059611,92.009091 11.660011,87.322582 10.33133,81.032587 9.7479429,78.269512 9.7075625,73.223631 10.24747,70.457306 c 1.052211,-5.395319 3.615138,-10.098973 7.423535,-13.625043 1.91968,-1.777355 4.773139,-3.698557 6.930586,-4.666268 l 1.640113,-0.735916 v -4.17898 c 0,-4.702273 0.286275,-6.31452 1.787573,-10.071365 1.319006,-3.300249 3.796786,-6.94755 6.322171,-9.306137 4.959431,-4.631987 11.45396,-7.216743 18.132717,-7.216743 2.04998,0 5.324788,0.375331 6.669983,0.764543 0.220093,0.06347 0.749037,-0.550734 1.608635,-1.868398 4.452419,-6.825467 11.70437,-11.1184678 19.907517,-11.7845889 4.998134,-0.4060225 9.684449,0.4996328 14.129772,2.7303189 3.28758,1.649622 6.129428,3.930712 8.763828,7.033794 l 0.96771,1.14021 1.53071,-0.740031 c 2.115,-1.02241 4.5715,-1.807518 6.9529,-2.222107 2.78044,-0.484203 8.0802,-0.316695 10.54225,0.333312 7.9286,2.092838 13.91148,6.799575 17.49694,13.76409 0.80529,1.564397 0.84451,1.602803 1.50595,1.467355 3.2779,-0.671604 7.5141,-0.685666 10.54985,-0.03432 9.27613,1.988249 16.88208,8.776329 19.87268,17.73646 0.92062,2.758108 1.25179,4.85403 1.26147,7.98196 0,2.61528 -0.38342,5.873523 -0.85225,7.095345 -0.0826,0.213642 0.237,0.495182 0.99868,0.88113 6.759,3.425081 11.46325,9.30717 13.51503,16.8994 0.53436,1.976767 0.57629,2.458222 0.57681,6.61509 7.7e-4,4.217387 -0.0348,4.612598 -0.60132,6.669945 -2.08468,7.573368 -6.7003,13.384308 -13.26579,16.701208 -1.14535,0.57867 -2.21163,1.09527 -2.36941,1.14774 -0.23235,0.0772 -0.21957,0.35527 0.0671,1.46101 1.80963,6.98355 -1.1811,14.68568 -7.32201,18.85592 -1.63172,1.10815 -3.29261,1.85931 -5.45973,2.4692 -1.5809,0.44493 -2.16841,0.46431 -16.2569,0.53597 -15.38569,0.0788 -16.29831,0.0326 -17.67137,-0.89329 -1.89517,-1.27721 -2.90519,-3.87225 -2.39483,-6.15318 0.3531,-1.57777 1.375,-3.05781 2.61453,-3.78651 l 1.01493,-0.59668 14.98008,-0.10979 14.97995,-0.10979 0.92333,-0.49328 c 2.39741,-1.28097 3.44897,-2.96385 3.44988,-5.52049 3.8e-4,-1.43065 -0.0851,-1.7938 -0.67795,-2.84297 -0.37297,-0.66149 -1.09298,-1.5217 -1.6,-1.9116 -1.88097,-1.44678 -0.93881,-1.39774 -24.98318,-1.3024 -14.90693,0.06 -22.09863,0.16289 -22.91798,0.33211 -3.39969,0.6999 -4.94369,1.61823 -7.80876,4.64382 -2.84469,3.00414 -3.899866,5.65027 -3.875483,9.71917 0.01677,2.03729 0.108369,2.68369 0.62983,4.22357 1.036733,3.06107 2.694903,5.43887 5.002903,7.17387 2.81347,2.11478 5.00923,2.81193 9.87139,3.13394 4.33386,0.28703 6.86685,0.93377 10.27661,2.62453 2.91654,1.44626 4.51511,2.57344 6.75964,4.76692 4.25838,4.16115 6.5949,8.95139 7.54648,15.47252 0.51746,3.54613 1.51859,10.83521 2.22247,16.18287 0.46947,3.56636 0.47437,3.76886 0.11998,4.97422 -0.70711,2.40917 -2.53984,3.71295 -5.38684,3.83229 -1.37603,0.0583 -1.81635,-0.0172 -2.73361,-0.45951 z M 95.91769,108.11879 c 3.716799,-3.55213 7.6266,-5.57399 12.2217,-6.32001 0.90205,-0.14574 2.08301,-0.34927 2.62421,-0.45076 2.8443,-0.53324 11.31282,-0.67213 28.97606,-0.47564 17.27712,0.19239 18.23064,0.22359 19.81128,0.65138 0.9134,0.24708 2.29265,0.7359 3.06491,1.08602 1.3897,0.63012 1.42015,0.63372 2.93177,0.34104 2.02534,-0.3923 5.15797,-1.95172 6.70868,-3.339515 4.81056,-4.30536 6.16672,-11.901873 3.20257,-17.937937 -0.71821,-1.462375 -1.28663,-2.228454 -2.67943,-3.611449 -2.68897,-2.669967 -4.92356,-3.705252 -9.74134,-4.513337 -1.50814,-0.253067 -3.00492,-0.594275 -3.32628,-0.758196 -0.98036,-0.500149 -1.57987,-1.556502 -1.592,-2.805416 -0.0168,-0.981101 0.1423,-1.356935 1.32817,-3.294431 1.69327,-2.765809 2.1132,-3.601334 2.686,-5.346617 2.139,-6.515133 -1.36841,-14.325289 -7.92758,-17.653147 -3.3615,-1.705509 -8.52541,-1.842505 -11.95194,-0.317031 -0.54133,0.241083 -1.89852,0.935664 -3.01627,1.543485 -2.53403,1.378196 -3.32151,1.522043 -4.63265,0.846491 -1.36093,-0.701096 -1.70268,-1.435799 -2.18157,-4.691127 -0.61731,-4.198874 -1.67972,-6.725678 -3.88916,-9.25145 -1.74757,-1.99768 -4.87595,-3.863665 -7.52403,-4.487961 -1.99605,-0.470475 -5.2199,-0.427618 -7.27104,0.09779 -2.97654,0.76128 -4.50918,1.727622 -7.54803,4.759038 -1.49214,1.488604 -2.98802,2.848622 -3.32409,3.02249 -1.26173,0.652394 -3.325126,0.208146 -4.030169,-0.867933 -0.20345,-0.310516 -0.737426,-1.671902 -1.186641,-3.025237 -1.057888,-3.187094 -1.734936,-4.591336 -3.0542,-6.334052 -3.281775,-4.335018 -9.064681,-6.590061 -14.220853,-5.545345 -5.925205,1.200548 -10.062966,5.527 -12.377806,12.942626 -0.683112,2.187816 -0.870564,2.557148 -1.56748,3.088839 -0.650214,0.495866 -1.009638,0.602506 -2.011407,0.596159 -1.085238,0 -1.48401,-0.157741 -3.614364,-1.363437 -2.783407,-1.57606 -4.48093,-2.19126 -6.715654,-2.434045 -4.57343,-0.496718 -8.854652,1.119464 -12.270856,4.632672 -2.772957,2.851885 -4.152726,6.209235 -4.153242,10.106855 -1.29e-4,2.506227 0.416446,4.220819 1.795571,7.388537 0.607512,1.395341 1.10459,2.767706 1.10459,3.049749 0,0.826262 -0.928877,2.42255 -1.650176,2.83594 -0.366391,0.210042 -1.721778,0.529989 -3.012014,0.711223 -2.886486,0.405158 -4.429196,0.83946 -6.272244,1.765692 -8.324417,4.183947 -10.79536,14.156387 -5.542172,22.368617 1.670044,2.610467 4.641419,5.24666 7.244082,6.426824 2.662781,1.207244 3.301901,1.260228 15.257196,1.264344 h 10.945013 l 0.485209,-2.132109 c 1.945482,-8.550006 8.134901,-15.434276 16.350691,-18.186888 4.019846,-1.34682 3.687901,-1.330875 27.792266,-1.330875 h 21.95801 l 0.87392,-0.918672 c 1.81982,-1.912971 2.97821,-4.101664 3.69487,-6.982177 0.49733,-1.997512 0.83212,-2.706323 1.67778,-3.55213 2.72084,-2.720901 7.4794,-1.938012 9.16518,1.507645 1.54336,3.154338 0.52056,7.764717 -2.83424,12.777171 l -1.15954,1.732086 0.97093,0.943713 c 1.77828,1.728305 3.61798,4.203157 4.5195,6.079437 0.81406,1.694363 0.8916,2.007446 0.89199,3.608366 3.8e-4,1.376312 -0.0993,1.94058 -0.46935,2.627446 -1.03195,1.922066 -2.79359,2.953391 -5.03864,2.95014 -2.45585,0 -4.50273,-1.273091 -5.30415,-3.289968 -0.56352,-1.417969 -2.82172,-3.916314 -4.75469,-5.260722 l -0.91971,-0.639712 -22.91708,0.05831 -22.916951,0.05831 -1.390219,0.49037 c -2.973956,1.049167 -5.365557,2.904186 -7.043083,5.463218 -1.449823,2.211489 -1.973864,3.843616 -2.115389,6.589029 -0.142428,2.754147 0.12385,4.121029 1.25708,6.483064 1.782026,3.71089 5.433158,6.50861 9.708058,7.43861 0.927071,0.20179 3.305513,0.29541 7.809149,0.30742 l 6.47621,0.0172 z M 47.453776,77.104995 c -2.559186,-0.671952 -4.362369,-3.00226 -4.327149,-5.591802 0.02451,-1.802564 0.62983,-3.08079 2.192795,-4.632157 3.642231,-3.615061 4.666319,-6.071038 5.070122,-12.157687 0.11611,-1.770841 0.308207,-3.394558 0.424188,-3.608199 0.116109,-0.21381 0.520816,-0.683951 0.899978,-1.044704 0.613833,-0.584328 0.83728,-0.656006 2.041595,-0.655142 1.290495,0 1.468658,0.07199 3.891609,1.549651 1.613408,0.984352 3.247716,1.781122 4.482994,2.185934 1.744096,0.571646 2.23653,0.637145 4.786943,0.636461 2.39302,-5.16e-4 3.085292,-0.08231 4.373722,-0.510611 2.330837,-0.776543 3.994946,-1.7506 5.6637,-3.315681 1.972445,-1.849885 2.945315,-3.383758 4.208846,-6.636002 1.133102,-2.916701 1.904844,-3.922481 3.19637,-4.16475 1.400928,-0.262847 2.043272,0.05663 4.595363,2.286921 1.350355,1.179649 2.953571,2.447411 3.563147,2.817079 2.509259,1.521707 5.635576,2.167083 8.634041,1.782502 2.23911,-0.287023 3.60095,-0.728704 6.23238,-2.020489 1.70346,-0.836376 2.119,-0.952963 3.3717,-0.945764 4.13544,0.024 6.8862,4.200421 5.17952,7.865191 -1.753,3.76474 -8.72435,6.670294 -15.997073,6.667379 -3.186049,0 -7.818179,-0.94063 -10.667123,-2.163472 l -1.045116,-0.448544 -2.453913,2.474503 c -2.452881,2.473304 -3.826975,3.53225 -6.49969,5.009023 -5.122629,2.830456 -12.143393,3.838636 -17.839991,2.561946 -0.563777,-0.126817 -1.049115,-0.201631 -1.078788,-0.168023 -0.02967,0.03432 -0.410125,0.838956 -0.846052,1.788488 -2.023146,4.407381 -5.196423,8.312368 -7.990538,9.833044 -1.194639,0.650343 -2.914481,0.906158 -4.06358,0.604389 z"
       id="path79-2"
       sodipodi:nodetypes="csssssscsscsscscssssscssssssssscssssscscsssscssssssssscccssssscscssssssscscccssssssssssscsssssssssssssssssscsssssssssssccssscssssscsssccsscccssssssccsssssssssscssssssssscscssssssss" /></g></svg>
