<?xml version="1.0" encoding="UTF-8" standalone="no"?>
<!-- Created with Inkscape (http://www.inkscape.org/) -->

<svg
   width="200mm"
   height="200mm"
   viewBox="0 0 200 200"
   version="1.1"
   id="svg1"
   inkscape:version="1.3.1 (91b66b0783, 2023-11-16)"
   sodipodi:docname="calendar.svg"
   xml:space="preserve"
   xmlns:inkscape="http://www.inkscape.org/namespaces/inkscape"
   xmlns:sodipodi="http://sodipodi.sourceforge.net/DTD/sodipodi-0.dtd"
   xmlns="http://www.w3.org/2000/svg"
   xmlns:svg="http://www.w3.org/2000/svg"><sodipodi:namedview
     id="namedview1"
     pagecolor="#ffffff"
     bordercolor="#000000"
     borderopacity="0.25"
     inkscape:showpageshadow="2"
     inkscape:pageopacity="0.0"
     inkscape:pagecheckerboard="0"
     inkscape:deskcolor="#d1d1d1"
     inkscape:document-units="mm"
     inkscape:zoom="0.49134398"
     inkscape:cx="295.10894"
     inkscape:cy="215.73481"
     inkscape:window-width="1920"
     inkscape:window-height="976"
     inkscape:window-x="-8"
     inkscape:window-y="-8"
     inkscape:window-maximized="1"
     inkscape:current-layer="layer1"
     showguides="true" /><defs
     id="defs1" /><g
     inkscape:label="Слой 1"
     inkscape:groupmode="layer"
     id="layer1"><g
       id="g4781"
       transform="matrix(1.5960847,0,0,1.5960847,3160.9378,-498.37237)"><g
         transform="translate(165.8319,12.219193)"
         id="g4763"><path
           style="fill:#547586;fill-opacity:1;stroke-width:0.129264"
           d="m -2093.5378,387.76901 c -4.6344,0 -4.9412,0.0144 -5.4291,0.2558 -0.7074,0.35007 -1.5316,1.2029 -1.9384,2.00557 -0.3003,0.59261 -0.3469,0.86815 -0.4119,2.43498 -0.079,1.90892 0.095,3.83255 0.4155,4.59973 0.4161,0.99587 1.5287,1.9326 2.5404,2.13836 0.3069,0.0624 2.6522,0.10348 5.2116,0.0915 4.5958,-0.0215 4.661,-0.0254 5.2674,-0.32401 0.3377,-0.16631 0.8647,-0.54575 1.171,-0.84336 0.8387,-0.81507 0.9296,-1.2792 0.9296,-4.73562 v -2.90835 l -0.3586,-0.7307 c -0.3851,-0.78412 -0.9003,-1.25177 -1.8733,-1.70119 -0.5953,-0.27464 -0.7453,-0.28268 -5.5242,-0.28268 z"
           id="path4725"
           inkscape:connector-curvature="0" /><path
           style="fill:#547586;fill-opacity:1;stroke-width:0.129264"
           d="m -2077.9267,387.75242 -0.6248,0.31882 c -0.7709,0.39381 -1.4422,1.1211 -1.8428,1.99629 -0.2464,0.53803 -0.32,0.97438 -0.386,2.27737 -0.081,1.61737 0.067,3.6341 0.3359,4.562 0.2639,0.91056 1.5213,2.03157 2.5508,2.27428 0.8205,0.19346 9.1753,0.16785 9.9399,-0.0305 0.9866,-0.25593 1.8987,-0.98795 2.3327,-1.87171 l 0.3617,-0.7369 v -3.03754 -3.03755 l -0.3617,-0.73689 c -0.25,-0.50906 -0.5499,-0.87387 -0.9695,-1.17875 -1.0889,-0.79124 -1.1556,-0.79891 -6.489,-0.79891 z"
           id="path4723"
           inkscape:connector-curvature="0" /><path
           style="fill:#547586;fill-opacity:1;stroke-width:0.129264"
           d="m -2094.4063,372.64772 c -4.6012,0.0555 -4.6156,0.0581 -5.6518,1.09296 -0.8075,0.80645 -1.0789,1.4446 -1.2387,2.91508 -0.165,1.51834 0.025,4.36462 0.3529,5.27563 0.3445,0.95822 1.3611,1.87397 2.3875,2.15077 v -5e-4 c 0.864,0.23318 9.1516,0.23836 10.0459,0.006 0.8355,-0.21672 1.9202,-1.00862 2.2396,-1.63452 0.4219,-0.82788 0.5542,-2.05356 0.4982,-4.64571 -0.051,-2.3758 -0.059,-2.43401 -0.4356,-3.18741 -0.2953,-0.59121 -0.5463,-0.87884 -1.094,-1.25314 -0.9958,-0.68059 -1.9861,-0.78105 -7.104,-0.71935 z"
           id="path4744"
           inkscape:connector-curvature="0" /><path
           style="fill:#df601c;fill-opacity:1;stroke-width:0.129264"
           d="m -2055.9392,357.96128 c -1.3575,0.0683 -2.3276,0.20537 -2.7052,0.40154 -0.7288,0.37848 -1.417,1.13691 -1.8072,1.99159 -0.4169,0.91245 -0.5617,3.00736 -0.3436,4.95628 0.2484,2.21973 0.5135,2.76977 1.7467,3.61942 l 0.7508,0.51676 3.1228,0.0646 c 2.9821,0.0617 3.7815,0.0567 6.302,-0.0388 1.2758,-0.0483 1.9298,-0.34422 2.7383,-1.2392 0.7177,-0.79491 0.8031,-1.25685 0.8031,-4.47416 0,-3.31171 -0.1145,-3.86709 -0.97,-4.64002 -1.0498,-0.94837 -1.2877,-1.00756 -4.6075,-1.14565 -1.9279,-0.0802 -3.6727,-0.0806 -5.0302,-0.0124 z"
           id="path4742"
           inkscape:connector-curvature="0" /><path
           style="fill:#547586;fill-opacity:1;stroke-width:0.129264"
           d="m -2072.2248,357.94613 c -1.9881,-0.0266 -4.082,-0.0188 -4.8235,0.0424 -0.9145,0.0754 -1.2798,0.16629 -1.681,0.41963 -0.6861,0.43307 -1.3628,1.20071 -1.7472,1.98178 -0.2988,0.61442 -0.3185,0.74425 -0.3085,3.16156 0.01,3.51891 0.2768,4.32411 1.7865,5.36454 l 0.7503,0.51675 2.0247,0.0646 c 1.1134,0.0356 3.4206,0.0455 5.1268,0.0222 2.9769,-0.0407 3.129,-0.0552 3.7667,-0.35814 0.8332,-0.39569 1.6589,-1.2786 1.8805,-2.01123 0.2318,-0.77507 0.2339,-6.02864 0,-6.80011 -0.2981,-0.98348 -1.4359,-1.97027 -2.5838,-2.24121 -0.3191,-0.0754 -2.2012,-0.1361 -4.1889,-0.16277 z"
           id="path4740"
           inkscape:connector-curvature="0" /><path
           style="fill:#df601c;fill-opacity:1;stroke-width:0.129264"
           d="m -2053.5014,372.65489 v 5.3e-4 c -4.1302,0.003 -4.286,0.0127 -4.9118,0.29197 -1.3037,0.58187 -2.1773,1.75035 -2.3854,3.19 -0.2478,1.71474 -0.1156,4.45921 0.279,5.78776 0.098,0.32993 0.3927,0.77351 0.7581,1.14048 1.0248,1.02923 1.1597,1.06919 3.869,1.14361 1.3153,0.0363 3.6713,0.0362 5.2354,5.1e-4 3.1524,-0.0719 3.1406,-0.0695 4.2183,-1.01905 0.9505,-0.83767 1.0544,-1.2228 1.1193,-4.15118 0.068,-3.05329 -0.068,-4.03058 -0.6702,-4.82245 -0.5569,-0.73237 -1.604,-1.34252 -2.5166,-1.46656 -0.4011,-0.0545 -2.6489,-0.0976 -4.9951,-0.0956 z"
           id="path4738"
           inkscape:connector-curvature="0" /><path
           style="fill:#547586;fill-opacity:1;stroke-width:0.129264"
           d="m -2115.5453,372.69113 c -3.0669,0.0994 -3.4561,0.21323 -4.4514,1.30223 -0.9743,1.06603 -1.1086,1.58874 -1.0986,4.3796 0.01,3.26472 0.2638,4.14403 1.4903,5.11542 0.2884,0.22847 0.7383,0.49319 0.9995,0.58809 0.3712,0.13499 1.5762,0.16574 5.5164,0.14264 5.6238,-0.033 5.2753,0.0212 6.4301,-0.99634 0.9396,-0.82788 1.0671,-1.38409 1.0671,-4.65603 0,-1.78255 -0.056,-2.8683 -0.1715,-3.31711 -0.214,-0.83127 -0.8178,-1.55303 -1.7007,-2.03348 -0.6377,-0.34714 -0.7951,-0.37214 -3.0841,-0.48731 -1.3265,-0.0667 -3.5752,-0.0838 -4.9971,-0.0377 z"
           id="path4736"
           inkscape:connector-curvature="0" /><path
           style="fill:#547586;fill-opacity:1;stroke-width:0.129264"
           d="m -2098.473,357.96795 -0.6925,0.38344 c -0.8013,0.44383 -1.307,1.00764 -1.8004,2.00763 -0.3443,0.69762 -0.3542,0.75602 -0.3442,3.10263 0.01,2.6959 0.1489,3.58257 0.7049,4.41474 0.4839,0.72427 1.4728,1.38837 2.2763,1.52857 0.3475,0.0607 2.6965,0.10065 5.2204,0.0889 4.4121,-0.0206 4.6124,-0.0326 5.1961,-0.30231 0.3339,-0.15428 0.8607,-0.53422 1.1709,-0.84439 0.8471,-0.84691 0.9359,-1.30207 0.9359,-4.75631 -4e-4,-2.72076 -0.019,-2.94841 -0.2842,-3.52383 -0.3548,-0.7693 -0.9327,-1.31953 -1.848,-1.75852 l -0.711,-0.34055 h -4.9124 z"
           id="path4734"
           inkscape:connector-curvature="0" /><path
           style="fill:#547586;fill-opacity:1;stroke-width:0.129264"
           d="m -2118.231,387.75716 -0.6935,0.38397 c -0.7837,0.4341 -1.4401,1.1666 -1.8252,2.03708 -0.5845,1.32117 -0.4593,5.82411 0.1994,7.17113 0.4628,0.94657 1.3649,1.6324 2.4221,1.84124 v 5e-4 c 0.775,0.15285 8.6639,0.15877 9.5917,0.007 1.1416,-0.18677 2.0822,-0.86916 2.5854,-1.87534 l 0.3875,-0.77515 v -3.03805 -3.03755 l -0.3586,-0.73017 c -0.3851,-0.78415 -0.9003,-1.25229 -1.8733,-1.70172 -0.5952,-0.27464 -0.7449,-0.28266 -5.5237,-0.28266 z"
           id="path4732"
           inkscape:connector-curvature="0" /><path
           style="fill:#547586;fill-opacity:1;stroke-width:0.129264"
           d="m -2073.0345,372.68164 c -4.8505,0 -4.9186,0.003 -5.4575,0.29147 -1.8934,1.01174 -2.4772,2.53526 -2.3151,6.04253 0.086,1.86608 0.3271,2.99812 0.786,3.69485 0.3818,0.57962 1.4164,1.25397 2.1575,1.40613 0.31,0.0636 2.6577,0.10424 5.2172,0.0904 5.1238,-0.0275 5.0792,-0.0209 6.1562,-0.87384 1.0631,-0.84198 1.3404,-2.07774 1.2434,-5.5454 -0.073,-2.61271 -0.2067,-3.13229 -1.0258,-3.96772 -0.2922,-0.29802 -0.8281,-0.67617 -1.1906,-0.84026 -0.6513,-0.29535 -0.7173,-0.29819 -5.5713,-0.29819 z"
           id="path4730"
           inkscape:connector-curvature="0" /></g><g
         transform="translate(68.196449,-1.2343249)"
         id="g4750"><path
           inkscape:connector-curvature="0"
           style="fill:#547586;fill-opacity:1;stroke-width:0.488555"
           d="m -7633.2617,914.50391 -8.916,0.33789 c -15.3872,0.58439 -22.59,2.05297 -31.3887,6.39648 -6.3122,3.11599 -11.5953,7.18409 -17.5723,13.5332 -8.2461,8.7597 -13.2827,18.24779 -15.0273,28.31055 -0.9211,5.28442 -0.9166,277.98647 0,287.87107 0.8734,9.4211 1.207,10.6377 4.9922,18.252 6.5189,13.1133 16.1652,22.4916 29.5742,28.7578 8.1517,3.8091 10.1544,4.1525 26.6074,4.5605 20.9174,0.5187 255.1,0.555 275.3008,0.043 19.6426,-0.498 21.3073,-0.7688 29.8789,-4.8633 6.8716,-3.2824 11.7475,-6.7378 17.2773,-12.2441 7.2942,-7.2631 12.8099,-16.1679 15.5957,-25.1817 1.9378,-6.2774 2.0425,-15.2798 1.8536,-158.7597 -0.2004,-150.59813 0.053,-139.36015 -3.2989,-147.55666 -0.8761,-2.14269 -2.8886,-6.09424 -4.4726,-8.78125 -9.8321,-16.68 -24.8152,-26.59921 -44.6192,-29.53711 -1.881,-0.27893 -4.1205,-0.62358 -4.9765,-0.76758 l -1.5567,-0.26172 -0.1621,18.70313 c -0.1776,20.89092 2e-4,19.58583 -3.9922,26.51953 -2.9072,5.0279 -7.1157,8.90225 -12.7929,11.77734 l -4.7227,2.39063 -5.6855,0.16211 c -6.8308,0.19502 -11.4649,-0.65413 -16.4297,-3.01172 -6.5431,-3.10749 -13.0321,-10.74473 -14.6074,-17.19336 -0.8561,-3.504 -1.2637,-12.07268 -1.2637,-27.71289 v -11.60352 h -22.4746 -22.4727 l -0.039,16.73438 c 0,9.20311 -0.1356,17.72253 -0.2754,18.93164 -0.3213,2.80441 -3.3436,9.18467 -6.0996,12.86914 -3.2916,4.40122 -8.6041,8.11106 -14.5372,10.15234 -5.5536,1.91082 -16.6578,0.8847 -23.0312,-2.12891 -3.7999,-1.79659 -9.6286,-7.43257 -12.1719,-11.76757 -2.8675,-4.88761 -3.0602,-6.27058 -3.2832,-23.78321 -0.1134,-8.7329 -0.3214,-17.03265 -0.4707,-18.44336 l -0.2676,-2.56445 h -22.1171 -22.1172 l -0.3399,17.22266 c -0.1852,9.47191 -0.5621,18.62387 -0.8301,20.33789 -1.2593,7.9923 -10.7074,18.39992 -18.9921,20.91992 -3.142,0.95713 -17.1924,0.94453 -19.9805,-0.0156 -6.4456,-2.22082 -13.7255,-8.82755 -17.0606,-15.48243 -1.9782,-3.95002 -2.0876,-4.38659 -2.3144,-9.51367 -0.2192,-4.9367 -0.6849,-25.58791 -0.7227,-31.2168 z m -44.4629,119.83789 h 171.7266 171.7285 v 108.4727 108.4707 l -1.7774,3.5293 c -4.3045,8.5545 -8.3622,12.7018 -16.1953,16.5468 l -5.0273,2.4668 -74.8516,-0.1699 c -41.1693,-0.093 -108.7113,-0.2778 -150.0918,-0.4121 l -75.2363,-0.2441 -3.1758,-1.8086 c -7.1796,-4.0895 -11.095,-8.206 -14.9082,-15.6739 l -2.1914,-4.291 v -108.4433 z m 20.4551,15.8379 h 297.7148 z"
           id="path4721"
           transform="matrix(0.26458333,0,0,0.26458333,0,87)" /><path
           style="fill:#df601c;fill-opacity:1;stroke-width:0.129264"
           d="m -2012.5118,320.59421 c -0.3921,0.0558 -0.7668,0.1751 -1.1018,0.36071 -0.7467,0.41367 -1.4753,1.21491 -1.7973,1.97662 -0.3436,0.81293 -0.4757,4.85725 -0.3168,9.72034 0.1436,4.39764 0.2349,5.15144 0.708,5.85544 0.2954,0.43958 1.4064,1.18264 2.0867,1.39528 0.2133,0.0663 0.7516,0.10065 1.1963,0.0754 1.4246,-0.0808 2.7559,-0.94187 3.3156,-2.14406 0.2608,-0.56787 0.2708,-0.74715 0.2708,-7.56181 0,-6.81464 -0.01,-6.99392 -0.2708,-7.56179 -0.149,-0.31994 -0.469,-0.77846 -0.7111,-1.01857 -0.8727,-0.86567 -2.2034,-1.26513 -3.3796,-1.0976 z"
           id="path4719"
           inkscape:connector-curvature="0" /><path
           style="fill:#df601c;fill-opacity:1;stroke-width:0.129264"
           d="m -1956.0434,320.55721 c -0.7555,-8e-4 -1.0896,0.0628 -1.5151,0.28784 -0.7344,0.3884 -1.3834,1.05933 -1.8133,1.87481 l -0.3556,0.67439 v 6.59236 c 0,7.00958 0.046,7.62886 0.6217,8.4832 0.2937,0.43548 1.4167,1.18857 2.0929,1.40354 1.1174,0.35518 2.915,-0.16224 3.8623,-1.11157 0.9493,-0.95567 0.9161,-0.63825 0.9591,-8.10958 0.027,-4.71334 -0.01,-6.91566 -0.1106,-7.42228 -0.1211,-0.58304 -0.2711,-0.84923 -0.788,-1.39578 -0.8685,-0.91824 -1.6945,-1.27593 -2.9534,-1.27693 z"
           id="path4716"
           inkscape:connector-curvature="0" /><path
           style="fill:#df601c;fill-opacity:1;stroke-width:0.129264"
           d="m -1983.9857,320.56614 c -0.7406,0.002 -1.0971,0.0686 -1.4955,0.27959 -0.6769,0.35856 -1.558,1.32045 -1.912,2.08616 -0.2697,0.58409 -0.2809,0.78668 -0.3199,6.03324 -0.061,8.2187 0.1107,9.3676 1.5374,10.28308 0.3564,0.22868 0.8633,0.49609 1.1265,0.59481 0.3108,0.1165 0.7852,0.15867 1.3514,0.11988 1.6069,-0.11025 3.0722,-1.19491 3.4876,-2.58175 0.2266,-0.75684 0.2267,-13.48973 0,-14.24667 -0.2689,-0.89824 -0.9596,-1.66373 -1.9332,-2.14302 -0.7545,-0.37142 -0.9994,-0.4273 -1.8423,-0.42532 z"
           id="path4714"
           inkscape:connector-curvature="0" /></g></g></g></svg>
