<?xml version="1.0" encoding="UTF-8" standalone="no"?>
<!-- Created with Inkscape (http://www.inkscape.org/) -->

<svg
   width="200mm"
   height="200mm"
   viewBox="0 0 200 200"
   version="1.1"
   id="svg1"
   inkscape:version="1.3.1 (91b66b0783, 2023-11-16)"
   sodipodi:docname="check.svg"
   xml:space="preserve"
   xmlns:inkscape="http://www.inkscape.org/namespaces/inkscape"
   xmlns:sodipodi="http://sodipodi.sourceforge.net/DTD/sodipodi-0.dtd"
   xmlns="http://www.w3.org/2000/svg"
   xmlns:svg="http://www.w3.org/2000/svg"><sodipodi:namedview
     id="namedview1"
     pagecolor="#ffffff"
     bordercolor="#000000"
     borderopacity="0.25"
     inkscape:showpageshadow="2"
     inkscape:pageopacity="0.0"
     inkscape:pagecheckerboard="0"
     inkscape:deskcolor="#d1d1d1"
     inkscape:document-units="mm"
     inkscape:zoom="0.49134398"
     inkscape:cx="403.99396"
     inkscape:cy="516.94945"
     inkscape:window-width="1920"
     inkscape:window-height="976"
     inkscape:window-x="-8"
     inkscape:window-y="-8"
     inkscape:window-maximized="1"
     inkscape:current-layer="layer1"
     showguides="true" /><defs
     id="defs1" /><g
     inkscape:label="Слой 1"
     inkscape:groupmode="layer"
     id="layer1"><g
       id="g32"
       transform="matrix(1.6859206,0,0,1.6859206,5285.361,3045.7287)"><path
         id="path11"
         style="fill:#547586;fill-opacity:1;stroke-width:0.478749"
         d="m -3098.7896,-1734.2724 v 4.7509 4.7509 h 11.7817 11.7819 l -0.034,-4.7183 -0.034,-4.7187 -11.7488,-0.033 z" /><path
         id="path30"
         style="fill:#df601c;fill-opacity:1;stroke-width:0.478749"
         d="m -3050.7816,-1741.4265 -3.4521,3.4495 -3.4521,3.4499 -3.4538,-3.4477 -3.4538,-3.4478 -2.4989,2.4989 -2.4988,2.4989 3.4512,3.4529 3.4508,3.4525 -3.483,3.4817 -3.4834,3.4817 2.437,2.4392 c 1.3404,1.3417 2.4952,2.4397 2.5659,2.4397 0.071,0 1.6669,-1.5393 3.547,-3.4203 l 3.4181,-3.42 3.453,3.4509 3.4529,3.4511 2.501,-2.5009 2.5011,-2.5011 -3.4508,-3.4512 -3.4513,-3.4512 3.4508,-3.4526 3.4508,-3.4524 -2.5006,-2.501 z" /><path
         id="path29"
         style="fill:#547586;fill-opacity:1;stroke-width:0.478749"
         d="m -3098.7896,-1757.7049 v 4.687 4.6868 h 11.7801 11.7804 v -4.6868 -4.687 h -11.7804 z" /><path
         id="path28"
         style="fill:#547586;fill-opacity:1;stroke-width:0.478749"
         d="m -3051.2255,-1763.154 -5.0035,5.0725 -5.0033,5.0721 -2.5316,-2.4757 -2.5314,-2.4762 -2.4715,2.4715 -2.4713,2.4719 5.0029,5.011 5.0029,5.0116 7.4971,-7.5765 7.4967,-7.5763 -2.4933,-2.5026 z" /><path
         id="path27"
         style="fill:#df601c;fill-opacity:1;stroke-width:0.478749"
         d="m -3075.2441,-1799.9878 c -3.0243,-3e-4 -5.4311,0.725 -7.9136,2.3855 -2.1207,1.4185 -4.187,3.9062 -5.0892,6.1266 l -0.3461,0.851 -10.7031,0.036 -10.7037,0.036 -0.8866,0.2971 c -3.3312,1.1167 -5.7026,3.5861 -6.5224,6.7917 -0.2525,0.9855 -0.2525,1.3533 -0.2525,39.9569 0,43.0155 -0.064,39.604 0.8097,41.4962 0.5442,1.1777 1.0634,1.9325 1.9188,2.7879 1.3678,1.3677 3.158,2.3187 4.9961,2.6539 v 8e-4 c 0.7903,0.1439 6.6902,0.1699 35.0876,0.1525 38.5524,-0.024 34.5127,0.092 36.8578,-1.0649 0.9988,-0.4929 1.3948,-0.7846 2.3576,-1.738 1.0247,-1.0149 1.2298,-1.298 1.7961,-2.4757 0.3516,-0.7312 0.7158,-1.6431 0.8093,-2.0263 0.14,-0.575 0.17,-7.5437 0.17,-39.9006 0,-37.7007 -0.01,-39.2355 -0.2335,-40.0273 -0.8902,-3.1412 -3.218,-5.514 -6.48,-6.605 l -0.8866,-0.2967 -10.7114,-0.037 -10.7109,-0.037 -0.4774,-1.0597 c -1.5939,-3.5391 -4.7321,-6.3894 -8.3863,-7.616 -1.4048,-0.4716 -2.8208,-0.6881 -4.4997,-0.6883 z m -0.048,9.4357 c 1.3165,0 1.9264,0.1976 2.9248,0.9488 2.7743,2.0873 2.2549,6.4872 -0.939,7.9544 -0.8677,0.3986 -2.5414,0.5126 -3.4014,0.2319 -1.2345,-0.4029 -2.4975,-1.6132 -2.9575,-2.8339 -0.3922,-1.0407 -0.3156,-2.7055 0.1713,-3.7208 0.4208,-0.877 1.3711,-1.7879 2.3375,-2.2407 0.6175,-0.2898 0.8925,-0.3397 1.8643,-0.3397 z m -32.997,9.3069 4.7182,0.034 4.7184,0.034 0.064,7.5332 h 47.1191 v -7.5998 l 4.7183,0.034 4.7183,0.034 0.033,37.6525 0.032,37.6521 h -33.0605 -33.0609 v -37.6866 z"
         sodipodi:nodetypes="ssscccsscssccsssssssscccssssssssssscccccccccccccc" /></g></g></svg>
