<?xml version="1.0" encoding="UTF-8" standalone="no"?>
<!-- Created with Inkscape (http://www.inkscape.org/) -->

<svg
   width="200mm"
   height="200mm"
   viewBox="0 0 200 200"
   version="1.1"
   id="svg1"
   inkscape:version="1.3.1 (91b66b0783, 2023-11-16)"
   sodipodi:docname="clip.svg"
   xml:space="preserve"
   xmlns:inkscape="http://www.inkscape.org/namespaces/inkscape"
   xmlns:sodipodi="http://sodipodi.sourceforge.net/DTD/sodipodi-0.dtd"
   xmlns="http://www.w3.org/2000/svg"
   xmlns:svg="http://www.w3.org/2000/svg"><sodipodi:namedview
     id="namedview1"
     pagecolor="#ffffff"
     bordercolor="#000000"
     borderopacity="0.25"
     inkscape:showpageshadow="2"
     inkscape:pageopacity="0.0"
     inkscape:pagecheckerboard="0"
     inkscape:deskcolor="#d1d1d1"
     inkscape:document-units="mm"
     inkscape:zoom="0.49134398"
     inkscape:cx="628.88732"
     inkscape:cy="468.10383"
     inkscape:window-width="1920"
     inkscape:window-height="976"
     inkscape:window-x="-8"
     inkscape:window-y="-8"
     inkscape:window-maximized="1"
     inkscape:current-layer="layer1"
     showguides="true" /><defs
     id="defs1" /><g
     inkscape:label="Слой 1"
     inkscape:groupmode="layer"
     id="layer1"><path
       style="fill:#df601c;fill-opacity:1;stroke-width:0.200228"
       d="m 38.519329,185.75973 -1.172441,-0.17029 -1.530835,-0.42747 -1.530695,-0.42717 -2.002236,-0.75044 -2.002514,-0.75073 -1.887277,-0.94901 -1.887695,-0.94902 -1.616252,-1.00012 -1.616671,-1.0001 -1.843523,-1.4954 -1.843522,-1.4951 -1.860802,-1.95749 -1.860523,-1.95722 -1.267056,-1.782 -1.266777,-1.782 -1.092179,-1.92864 -1.09218,-1.92892 -0.806105,-1.97366 -0.806245,-1.97366 -0.5658766,-1.9067 -0.5662945,-1.90669 -0.3631308,-2.00223 -0.3631308,-2.00224 v -4.60511 -4.60539 l 0.4334996,-2.38871 0.4334996,-2.389 0.8062451,-2.41642 0.8063844,-2.4167 1.10458,-2.30271 1.10486,-2.30241 1.526376,-2.29258 1.525957,-2.2929 3.517743,-3.71006 3.51816,-3.71035 31.635715,-31.717071 31.635994,-31.717098 11.919914,-11.736315 11.919774,-11.736022 3.39749,-3.182731 3.39749,-3.183024 2.20261,-1.846365 2.20247,-1.84638 1.40167,-0.944976 1.40152,-0.944976 2.60573,-1.278343 2.60616,-1.278636 2.42904,-0.797494 2.42891,-0.797773 1.97298,-0.497598 1.97311,-0.497598 2.30266,-0.353293 2.30253,-0.353572 h 5.20603 5.20576 l 2.21947,0.347232 2.21961,0.346925 1.93354,0.502517 1.93382,0.502795 2.35408,0.819706 2.35436,0.819427 2.50276,1.242838 2.50262,1.24256 1.88101,1.147889 1.881,1.147596 1.22275,0.927656 1.2226,0.927377 1.93521,1.661358 1.93563,1.661651 1.4319,1.577947 1.43163,1.577932 1.50631,1.978576 1.50672,1.978268 1.06849,1.727463 1.06849,1.727449 1.08842,2.178019 1.08842,2.178004 0.74465,1.893129 0.74494,1.892851 0.68585,2.502133 0.68543,2.501854 0.41344,2.159249 0.41301,2.15897 -0.0808,6.761177 -0.0808,6.760894 -0.43322,1.902367 -0.43322,1.902076 -0.61883,2.186379 -0.61882,2.186379 -0.95632,2.355236 -0.95618,2.355222 -1.42939,2.66667 -1.42898,2.666364 -1.72285,2.063422 -1.72285,2.063143 -4.33109,4.544209 -4.33124,4.54421 -37.23484,37.300056 -37.23484,37.29978 -4.956749,-4.95348 -4.956332,-4.95378 31.177971,-31.24488 31.17783,-31.24516 5.72273,-5.806676 5.72272,-5.806401 4.6697,-4.805407 4.66956,-4.805422 1.0462,-1.6019 1.04605,-1.6019 0.93751,-1.873217 0.93737,-1.873217 0.67456,-2.031094 0.67457,-2.031387 0.3053,-1.501753 0.30544,-1.501447 0.23382,-2.397374 0.23382,-2.397374 -0.11008,-3.108837 -0.11287,-3.109135 -0.33136,-1.501461 -0.33136,-1.501753 -0.70801,-2.195325 -0.70772,-2.195325 -1.37422,-2.710243 -1.37393,-2.710244 -1.34495,-1.802221 -1.34467,-1.801914 -2.01533,-2.002236 -2.0152,-2.002236 -1.8994,-1.353101 -1.89954,-1.352809 -3.10361,-1.560347 -3.10375,-1.560041 -1.6359,-0.538008 -1.63632,-0.538022 -1.96782,-0.338843 -1.96781,-0.338857 h -4.30504 -4.3049 l -2.30266,0.421976 -2.30238,0.422269 -1.6019,0.518095 -1.60191,0.518388 -2.20261,1.077451 -2.20219,1.077464 -1.85649,1.22928 -1.85648,1.22928 -4.75121,4.629639 -4.75108,4.629346 -9.5108,9.424665 -9.51065,9.424685 -17.519876,17.523068 -17.519876,17.523375 -12.415423,12.510696 -12.415561,12.511 -3.707669,3.80415 -3.707808,3.80446 -1.802834,1.90208 -1.802695,1.90236 -1.374212,1.60161 -1.373933,1.6019 -0.865327,1.80915 -0.864909,1.80884 -0.509721,1.89516 -0.50972,1.89515 -0.230894,2.34743 -0.231032,2.34744 0.233819,2.1578 0.23382,2.15752 0.498712,1.8634 0.499131,1.8634 0.708565,1.53408 0.708844,1.53407 0.635269,1.00761 0.63527,1.00761 0.669967,0.90111 0.669827,0.90082 1.340769,1.37532 1.34063,1.37504 1.101237,0.84424 1.101376,0.84425 1.401523,0.82578 1.401662,0.82606 1.501712,0.62142 1.501712,0.62142 1.70181,0.43064 1.702088,0.43035 h 3.804095 3.804512 l 1.698605,-0.36628 1.698884,-0.36597 1.518154,-0.58535 1.517876,-0.58534 1.388285,-0.83155 1.388704,-0.83126 0.700761,-0.5966 0.700762,-0.59631 3.804234,-3.6255 3.804373,-3.6252 6.60742,-6.4942 6.607559,-6.49448 18.320826,-18.34856 18.320547,-18.34857 3.70753,-3.8919 3.70711,-3.89189 1.69986,-2.03139 1.69972,-2.031676 0.74256,-1.25525 0.74271,-1.25525 0.23382,-1.11816 0.23382,-1.11816 -0.10451,-2.411508 -0.10451,-2.411224 -0.55333,-1.383116 -0.55292,-1.382837 -0.6853,-1.169251 -0.68515,-1.169236 -1.2024,-1.28499 -1.20226,-1.285269 -1.2364,-0.772663 -1.23626,-0.772663 -1.10138,-0.432092 -1.1011,-0.432078 -0.90114,-0.199151 -0.90086,-0.202049 h -1.92016 -1.9203 l -1.51453,0.387349 -1.51439,0.387349 -0.98224,0.497597 -0.98224,0.497598 -0.99115,0.78363 -0.99143,0.783629 -2.40049,2.173393 -2.4009,2.173684 -22.333931,22.287504 -22.333938,22.28751 h -0.193409 -0.19341 l -4.857954,-4.86112 -4.858233,-4.86113 23.881354,-23.831396 23.881074,-23.831385 2.002236,-1.795867 2.002232,-1.795867 1.255489,-0.962004 1.25522,-0.962296 1.66168,-0.767466 1.6614,-0.767758 1.68843,-0.594874 1.68829,-0.595153 1.6019,-0.374641 1.60162,-0.374362 h 4.00475 4.00447 l 1.70195,0.372342 1.70181,0.372327 1.80228,0.598623 1.80186,0.598622 1.6019,0.800086 1.60162,0.799794 1.66224,1.10171 1.66195,1.101697 1.80479,1.717653 1.80507,1.717639 1.25758,1.675794 1.25758,1.675781 0.91298,1.642895 0.91284,1.642881 0.74536,2.002236 0.74521,2.002236 0.48115,2.302703 0.48116,2.30269 v 3.003214 3.00349 l -0.31715,1.80221 -0.31687,1.80193 -0.70522,2.102376 -0.70508,2.10238 -1.49307,3.08115 -1.49279,3.08142 -29.07959,29.06456 -29.07959,29.06486 -6.17615,5.95041 -6.176149,5.95071 -1.962662,1.29393 -1.962384,1.29394 -2.173071,1.09997 -2.172793,1.09997 -2.202613,0.78537 -2.202473,0.78508 -2.326768,0.52184 -2.326629,0.52155 -5.682593,-0.0288 -5.682175,-0.0289 z"
       id="path3393"
       inkscape:connector-curvature="0" /></g></svg>
