<?xml version="1.0" encoding="UTF-8" standalone="no"?>
<!-- Created with Inkscape (http://www.inkscape.org/) -->

<svg
   width="200mm"
   height="200mm"
   viewBox="0 0 200 200"
   version="1.1"
   id="svg1"
   inkscape:version="1.3.1 (91b66b0783, 2023-11-16)"
   sodipodi:docname="clock1.svg"
   xml:space="preserve"
   xmlns:inkscape="http://www.inkscape.org/namespaces/inkscape"
   xmlns:sodipodi="http://sodipodi.sourceforge.net/DTD/sodipodi-0.dtd"
   xmlns="http://www.w3.org/2000/svg"
   xmlns:svg="http://www.w3.org/2000/svg"><sodipodi:namedview
     id="namedview1"
     pagecolor="#ffffff"
     bordercolor="#000000"
     borderopacity="0.25"
     inkscape:showpageshadow="2"
     inkscape:pageopacity="0.0"
     inkscape:pagecheckerboard="0"
     inkscape:deskcolor="#d1d1d1"
     inkscape:document-units="mm"
     inkscape:zoom="0.49134398"
     inkscape:cx="265.59804"
     inkscape:cy="472.1743"
     inkscape:window-width="1920"
     inkscape:window-height="976"
     inkscape:window-x="-8"
     inkscape:window-y="-8"
     inkscape:window-maximized="1"
     inkscape:current-layer="layer1"
     showguides="true" /><defs
     id="defs1" /><g
     inkscape:label="Слой 1"
     inkscape:groupmode="layer"
     id="layer1"><g
       id="g21"><path
         id="path17"
         style="opacity:1;fill:#547586;fill-opacity:1;stroke-width:2.29773"
         d="M 99.12486,13.266171 A 88.15777,88.15777 0 0 0 10.966895,101.42353 88.15777,88.15777 0 0 0 99.12486,189.58151 88.15777,88.15777 0 0 0 187.28282,101.42353 88.15777,88.15777 0 0 0 99.12486,13.266171 Z m 0,11.753921 A 76.403398,76.403398 0 0 1 175.5283,101.42353 76.403398,76.403398 0 0 1 99.12486,177.82699 76.403398,76.403398 0 0 1 22.721401,101.42353 76.403398,76.403398 0 0 1 99.12486,25.020092 Z" /><path
         style="opacity:1;fill:#df601c;fill-opacity:1;stroke-width:2.99903"
         d="M 98.164943,121.16215 143.73704,54.574348 93.608033,101.57737 48.773807,92.050777 Z"
         id="path18"
         inkscape:transform-center-x="-1.265233"
         inkscape:transform-center-y="-23.18471" /><path
         style="opacity:1;fill:#df601c;fill-opacity:1;stroke-width:2.29773"
         d="m 96.168728,34.18786 c -2.654969,-1.11634 -3.146431,-4.611233 -0.912704,-6.490776 1.82303,-1.533987 3.619349,-1.483965 5.249506,0.146193 1.67205,1.672058 1.74169,3.825881 0.17435,5.393197 -1.368616,1.368631 -2.800561,1.670621 -4.511152,0.951386 z"
         id="path19" /><path
         style="fill:#df601c;fill-opacity:1;stroke-width:2.29773"
         d="m 98.087608,175.04073 c -2.654969,-1.11634 -3.146431,-4.61123 -0.912704,-6.49077 1.82303,-1.53399 3.619346,-1.48397 5.249506,0.14619 1.67205,1.67206 1.74169,3.82588 0.17435,5.39319 -1.36862,1.36864 -2.800562,1.67063 -4.511152,0.95139 z"
         id="path19-2" /><path
         style="fill:#df601c;fill-opacity:1;stroke-width:2.29773"
         d="m 28.233494,105.89179 c -2.654969,-1.11634 -3.146431,-4.61123 -0.912704,-6.490776 1.82303,-1.533987 3.619349,-1.483965 5.249507,0.146193 1.672047,1.672063 1.741691,3.825883 0.174352,5.393193 -1.36862,1.36863 -2.800565,1.67063 -4.511155,0.95139 z"
         id="path19-6" /><path
         style="fill:#df601c;fill-opacity:1;stroke-width:2.29773"
         d="m 167.72463,104.75081 c -2.65497,-1.11634 -3.14643,-4.61124 -0.91271,-6.490779 1.82303,-1.533987 3.61935,-1.483966 5.24951,0.146193 1.67205,1.672056 1.74169,3.825876 0.17435,5.393196 -1.36862,1.36863 -2.80056,1.67062 -4.51115,0.95139 z"
         id="path19-5" /><path
         style="fill:#df601c;fill-opacity:1;stroke-width:2.29773"
         d="m 131.79922,43.541423 c -2.65497,-1.11634 -3.14643,-4.611233 -0.9127,-6.490776 1.82303,-1.533987 3.61935,-1.483965 5.24951,0.146193 1.67204,1.672058 1.74169,3.825881 0.17435,5.393197 -1.36862,1.368631 -2.80057,1.670621 -4.51116,0.951386 z"
         id="path19-8" /><path
         style="fill:#df601c;fill-opacity:1;stroke-width:2.29773"
         d="m 157.75001,68.564502 c -2.65497,-1.116341 -3.14643,-4.611233 -0.9127,-6.490776 1.82303,-1.533987 3.61935,-1.483966 5.2495,0.146193 1.67205,1.672058 1.74169,3.825881 0.17436,5.393196 -1.36862,1.368631 -2.80057,1.670622 -4.51116,0.951387 z"
         id="path19-60" /><path
         style="fill:#df601c;fill-opacity:1;stroke-width:2.29773"
         d="m 158.16752,139.58351 c -2.65497,-1.11634 -3.14643,-4.61123 -0.9127,-6.49077 1.82303,-1.53399 3.61934,-1.48397 5.2495,0.14619 1.67205,1.67206 1.74169,3.82588 0.17435,5.3932 -1.36862,1.36863 -2.80056,1.67062 -4.51115,0.95138 z"
         id="path19-9" /><path
         style="fill:#df601c;fill-opacity:1;stroke-width:2.29773"
         d="m 133.10228,165.02569 c -2.65497,-1.11634 -3.14643,-4.61124 -0.91271,-6.49078 1.82303,-1.53399 3.61935,-1.48397 5.24951,0.14619 1.67205,1.67206 1.74169,3.82588 0.17435,5.3932 -1.36862,1.36863 -2.80056,1.67062 -4.51115,0.95139 z"
         id="path19-0" /><path
         style="fill:#df601c;fill-opacity:1;stroke-width:2.29773"
         d="m 63.27264,165.24974 c -2.654969,-1.11634 -3.146431,-4.61124 -0.912704,-6.49078 1.82303,-1.53399 3.619349,-1.48396 5.249507,0.14619 1.672047,1.67206 1.741691,3.82589 0.174352,5.3932 -1.36862,1.36863 -2.800565,1.67062 -4.511155,0.95139 z"
         id="path19-88" /><path
         style="fill:#df601c;fill-opacity:1;stroke-width:2.29773"
         d="m 37.136575,140.61801 c -2.654969,-1.11634 -3.14643,-4.61123 -0.912704,-6.49078 1.82303,-1.53398 3.619349,-1.48396 5.249508,0.1462 1.672046,1.67205 1.74169,3.82588 0.174352,5.39319 -1.36862,1.36863 -2.800565,1.67062 -4.511156,0.95139 z"
         id="path19-96" /><path
         style="fill:#df601c;fill-opacity:1;stroke-width:2.29773"
         d="m 35.965905,70.973855 c -2.654969,-1.11634 -3.14643,-4.611233 -0.912704,-6.490776 1.82303,-1.533987 3.619349,-1.483965 5.249508,0.146193 1.672046,1.672058 1.74169,3.825881 0.174351,5.393197 -1.368619,1.368631 -2.800564,1.670621 -4.511155,0.951386 z"
         id="path19-7" /><path
         style="fill:#df601c;fill-opacity:1;stroke-width:2.29773"
         d="m 61.406872,45.44392 c -2.654969,-1.11634 -3.146431,-4.611233 -0.912704,-6.490776 1.82303,-1.533987 3.619349,-1.483965 5.249507,0.146193 1.672047,1.672058 1.741691,3.825881 0.174352,5.393197 -1.368619,1.368631 -2.800564,1.670621 -4.511155,0.951386 z"
         id="path19-61" /></g></g></svg>
