<?xml version="1.0" encoding="UTF-8" standalone="no"?>
<!-- Created with Inkscape (http://www.inkscape.org/) -->

<svg
   width="200mm"
   height="200mm"
   viewBox="0 0 200 200"
   version="1.1"
   id="svg1"
   inkscape:version="1.3.1 (91b66b0783, 2023-11-16)"
   sodipodi:docname="clock.svg"
   xml:space="preserve"
   xmlns:inkscape="http://www.inkscape.org/namespaces/inkscape"
   xmlns:sodipodi="http://sodipodi.sourceforge.net/DTD/sodipodi-0.dtd"
   xmlns="http://www.w3.org/2000/svg"
   xmlns:svg="http://www.w3.org/2000/svg"><sodipodi:namedview
     id="namedview1"
     pagecolor="#ffffff"
     bordercolor="#000000"
     borderopacity="0.25"
     inkscape:showpageshadow="2"
     inkscape:pageopacity="0.0"
     inkscape:pagecheckerboard="0"
     inkscape:deskcolor="#d1d1d1"
     inkscape:document-units="mm"
     inkscape:zoom="0.34743266"
     inkscape:cx="1069.272"
     inkscape:cy="1021.7807"
     inkscape:window-width="1920"
     inkscape:window-height="976"
     inkscape:window-x="-8"
     inkscape:window-y="-8"
     inkscape:window-maximized="1"
     inkscape:current-layer="layer1"
     showguides="true" /><defs
     id="defs1" /><g
     inkscape:label="Слой 1"
     inkscape:groupmode="layer"
     id="layer1"><g
       id="g21"
       transform="matrix(1.1693274,0,0,1.1693274,-21.93921,-8.5965329)"><path
         id="path17"
         style="opacity:1;fill:#547586;fill-opacity:1;stroke-width:2"
         d="m 98.363283,14.789248 a 76.73468,76.73468 0 0 0 -76.73485,76.73433 76.73468,76.73468 0 0 0 76.73485,76.734862 76.73468,76.73468 0 0 0 24.989687,-4.20078 42.646152,42.646152 0 0 1 -8.54419,-8.11268 66.503387,66.503387 0 0 1 -16.445497,2.08204 66.503387,66.503387 0 0 1 -66.50344,-66.503442 66.503387,66.503387 0 0 1 66.50344,-66.50343 66.503387,66.503387 0 0 1 66.469837,65.21617 42.646152,42.646152 0 0 1 10.09758,6.06992 76.73468,76.73468 0 0 0 0.16743,-4.78266 76.73468,76.73468 0 0 0 -76.734847,-76.73433 z" /><path
         style="opacity:1;fill:#df601c;fill-opacity:1;stroke-width:2.61043"
         d="m 102.38134,105.10578 -4.721347,-70.075012 -8.94576,59.14133 -35.78297,17.642982 z"
         id="path18" /><path
         style="opacity:1;fill:#df601c;fill-opacity:1;stroke-width:2"
         d="m 95.790193,32.999998 c -2.31095,-0.97169 -2.73873,-4.01373 -0.79444,-5.64973 1.58681,-1.33522 3.15037,-1.29168 4.5693,0.12725 1.455387,1.4554 1.516007,3.33014 0.15176,4.69437 -1.19128,1.19129 -2.43768,1.45415 -3.92662,0.82811 z"
         id="path19" /><path
         style="fill:#df601c;fill-opacity:1;stroke-width:2"
         d="m 97.460433,155.60179 c -2.31095,-0.97169 -2.73873,-4.01373 -0.79444,-5.64973 1.58681,-1.33522 3.15037,-1.29168 4.569297,0.12725 1.45539,1.4554 1.51601,3.33014 0.15176,4.69437 -1.19128,1.19129 -2.437677,1.45415 -3.926617,0.82811 z"
         id="path19-2" /><path
         style="fill:#df601c;fill-opacity:1;stroke-width:2"
         d="m 36.657703,95.412858 c -2.31095,-0.97169 -2.73873,-4.01373 -0.79444,-5.64973 1.58681,-1.33522 3.15037,-1.29168 4.5693,0.12725 1.45539,1.4554 1.51601,3.33014 0.15176,4.69437 -1.19128,1.19129 -2.43768,1.45415 -3.92662,0.82811 z"
         id="path19-6" /><path
         style="fill:#df601c;fill-opacity:1;stroke-width:2"
         d="m 158.0742,94.419718 c -2.31095,-0.97169 -2.73873,-4.01373 -0.79444,-5.64973 1.58681,-1.33522 3.15037,-1.29168 4.5693,0.12725 1.45539,1.4554 1.51601,3.33014 0.15176,4.69437 -1.19128,1.19129 -2.43768,1.45415 -3.92662,0.82811 z"
         id="path19-5" /><path
         style="fill:#df601c;fill-opacity:1;stroke-width:2"
         d="m 126.80385,41.141568 c -2.31095,-0.97169 -2.73873,-4.01373 -0.79444,-5.64973 1.58681,-1.33522 3.15037,-1.29168 4.5693,0.12725 1.45539,1.4554 1.51601,3.33014 0.15176,4.69437 -1.19128,1.19129 -2.43768,1.45415 -3.92662,0.82811 z"
         id="path19-8" /><path
         style="fill:#df601c;fill-opacity:1;stroke-width:2"
         d="m 149.39205,62.922268 c -2.31095,-0.97169 -2.73873,-4.01373 -0.79444,-5.64973 1.58681,-1.33522 3.15037,-1.29168 4.5693,0.12725 1.45539,1.4554 1.51601,3.33014 0.15176,4.69437 -1.19128,1.19129 -2.43768,1.45415 -3.92662,0.82811 z"
         id="path19-60" /><path
         style="fill:#df601c;fill-opacity:1;stroke-width:2"
         d="m 67.156633,147.07947 c -2.31095,-0.97169 -2.73873,-4.01373 -0.79444,-5.64973 1.58681,-1.33522 3.15037,-1.29168 4.5693,0.12725 1.45539,1.4554 1.51601,3.33014 0.15176,4.69437 -1.19128,1.19129 -2.43768,1.45415 -3.92662,0.82811 z"
         id="path19-88" /><path
         style="fill:#df601c;fill-opacity:1;stroke-width:2"
         d="m 44.407163,125.63941 c -2.31095,-0.97169 -2.73873,-4.01373 -0.79444,-5.64973 1.58681,-1.33522 3.15037,-1.29168 4.5693,0.12725 1.45539,1.4554 1.51601,3.33014 0.15176,4.69437 -1.19128,1.19129 -2.43768,1.45415 -3.92662,0.82811 z"
         id="path19-96" /><path
         style="fill:#df601c;fill-opacity:1;stroke-width:2"
         d="m 43.388183,65.019428 c -2.31095,-0.97169 -2.73873,-4.01373 -0.79444,-5.64973 1.58681,-1.33522 3.15037,-1.29168 4.5693,0.12725 1.45539,1.4554 1.51601,3.33014 0.15176,4.69437 -1.19128,1.19129 -2.43768,1.45415 -3.92662,0.82811 z"
         id="path19-7" /><path
         style="fill:#df601c;fill-opacity:1;stroke-width:2"
         d="m 65.532623,42.797548 c -2.31095,-0.97169 -2.73873,-4.01373 -0.79444,-5.64973 1.58681,-1.33522 3.15037,-1.29168 4.5693,0.12725 1.45539,1.4554 1.51601,3.33014 0.15176,4.69437 -1.19128,1.19129 -2.43768,1.45415 -3.92662,0.82811 z"
         id="path19-61" /><path
         style="fill:#df601c;fill-opacity:1;stroke:#df601c;stroke-width:0.238265px;stroke-linecap:butt;stroke-linejoin:miter;stroke-opacity:1"
         d="m 142.90695,101.06893 -27.73362,26.31001 27.73362,26.30983 v -16.23372 h 36.01245 v -20.43211 h -36.01245 z"
         id="path3049-3"
         inkscape:connector-curvature="0"
         sodipodi:nodetypes="cccccccc" /></g></g></svg>
