<?xml version="1.0" encoding="UTF-8" standalone="no"?>
<!-- Created with Inkscape (http://www.inkscape.org/) -->

<svg
   width="200mm"
   height="200mm"
   viewBox="0 0 200 200"
   version="1.1"
   id="svg1"
   inkscape:version="1.3.1 (91b66b0783, 2023-11-16)"
   sodipodi:docname="compil_fail.svg"
   xml:space="preserve"
   xmlns:inkscape="http://www.inkscape.org/namespaces/inkscape"
   xmlns:sodipodi="http://sodipodi.sourceforge.net/DTD/sodipodi-0.dtd"
   xmlns="http://www.w3.org/2000/svg"
   xmlns:svg="http://www.w3.org/2000/svg"><sodipodi:namedview
     id="namedview1"
     pagecolor="#ffffff"
     bordercolor="#000000"
     borderopacity="0.25"
     inkscape:showpageshadow="2"
     inkscape:pageopacity="0.0"
     inkscape:pagecheckerboard="0"
     inkscape:deskcolor="#d1d1d1"
     inkscape:document-units="mm"
     inkscape:zoom="0.49134398"
     inkscape:cx="402.97634"
     inkscape:cy="400.94111"
     inkscape:window-width="1920"
     inkscape:window-height="976"
     inkscape:window-x="-8"
     inkscape:window-y="-8"
     inkscape:window-maximized="1"
     inkscape:current-layer="layer1"
     showguides="true" /><defs
     id="defs1" /><g
     inkscape:label="Слой 1"
     inkscape:groupmode="layer"
     id="layer1"><path
       id="path5385-9-3-7-5"
       style="fill:#df601c;fill-opacity:1;stroke:none;stroke-width:9.72798;stroke-linecap:round;stroke-linejoin:round;stroke-miterlimit:4;stroke-dasharray:none;stroke-dashoffset:0;stroke-opacity:1;paint-order:normal"
       d="M 100.89,9.692802 A 90.198614,90.22663 0 0 0 10.691461,99.921114 90.198614,90.22663 0 0 0 100.89,190.14757 90.198614,90.22663 0 0 0 191.08853,99.921114 90.198614,90.22663 0 0 0 100.89,9.692802 Z m 37.62398,43.325378 c 7.37604,0.105034 12.26322,9.647637 6.49806,15.691395 l -30.6885,31.239469 28.11608,28.250086 c 14.04822,11.15113 -3.27977,26.35152 -13.37212,13.20274 L 100.82299,113.79953 72.1485,142.42935 C 60.210457,154.52951 47.011969,138.87607 58.776364,128.71473 L 87.234949,99.949044 55.94708,68.409893 C 49.317417,58.189638 61.679633,48.475246 69.920433,55.853055 L 100.82299,86.368443 130.61058,56.53804 c 2.7096,-2.541727 5.44472,-3.554878 7.9034,-3.51986 z" /></g></svg>
