<?xml version="1.0" encoding="UTF-8" standalone="no"?>
<!-- Created with Inkscape (http://www.inkscape.org/) -->

<svg
   width="200mm"
   height="200mm"
   viewBox="0 0 200 200"
   version="1.1"
   id="svg1"
   inkscape:version="1.3.1 (91b66b0783, 2023-11-16)"
   sodipodi:docname="connect_yes1.svg"
   xml:space="preserve"
   xmlns:inkscape="http://www.inkscape.org/namespaces/inkscape"
   xmlns:sodipodi="http://sodipodi.sourceforge.net/DTD/sodipodi-0.dtd"
   xmlns="http://www.w3.org/2000/svg"
   xmlns:svg="http://www.w3.org/2000/svg"><sodipodi:namedview
     id="namedview1"
     pagecolor="#ffffff"
     bordercolor="#000000"
     borderopacity="0.25"
     inkscape:showpageshadow="2"
     inkscape:pageopacity="0.0"
     inkscape:pagecheckerboard="0"
     inkscape:deskcolor="#d1d1d1"
     inkscape:document-units="mm"
     inkscape:zoom="0.69486532"
     inkscape:cx="290.70382"
     inkscape:cy="356.90369"
     inkscape:window-width="1920"
     inkscape:window-height="976"
     inkscape:window-x="-8"
     inkscape:window-y="-8"
     inkscape:window-maximized="1"
     inkscape:current-layer="layer1"
     showguides="true" /><defs
     id="defs1" /><g
     inkscape:label="Слой 1"
     inkscape:groupmode="layer"
     id="layer1"><g
       id="g6823"
       transform="matrix(2.5109699,0,0,2.5109699,7160.8954,2315.4655)"><path
         sodipodi:nodetypes="cccccccccccccccccccszzsc"
         inkscape:connector-curvature="0"
         id="path6585-5-7-8"
         d="m -2798.517,-916.21017 -16.8392,16.84931 c -1.1562,1.62929 -1.4205,3.12083 -1.4321,5.13494 0,1.43204 0.2125,2.44597 0.8052,3.78114 0.2883,0.65041 2.1525,2.54703 2.3358,2.65997 l 4.9285,-4.7727 c 0,0 -1.6047,-1.95321 -0.6057,-2.87282 l 14.2964,-14.40102 c 0.5326,-0.55831 2.3991,-0.53839 2.8504,-0.071 l 8.274,8.1434 c 0.7418,0.7651 0.2405,2.47717 -0.1498,2.81717 l -14.3089,14.30355 c -0.8494,0.92986 -2.3196,-0.066 -3.2969,-1.03109 l -5.1625,5.18143 c 0.064,0.16732 2.7186,2.31395 3.378,2.63263 0.5747,0.27782 1.6648,0.61537 2.3285,0.72086 v 0 c 0.8324,0.13227 3.0354,0.0442 3.7409,-0.15044 0.9778,-0.26908 1.9328,-0.76638 2.8287,-1.35729 l 16.877,-16.89099 c 2.4901,-2.49231 2.4386,-7.39985 -0.1596,-10.037 -2.5983,-2.63704 -8.2227,-8.07029 -10.8179,-10.68078 -2.5948,-2.61037 -7.2753,-2.55611 -9.8708,0.0408 z"
         style="fill:#df601c;fill-opacity:1;stroke-width:0.106487" /><path
         sodipodi:nodetypes="sccccccccccccccccccszzs"
         inkscape:connector-curvature="0"
         id="path6585-5-9-5-1"
         d="m -2824.444,-849.85058 16.8392,-16.8493 c 1.1562,-1.62929 1.4205,-3.12083 1.4322,-5.13498 0,-1.432 -0.2125,-2.44592 -0.8053,-3.78109 -0.2883,-0.65041 -1.921,-2.56066 -2.1043,-2.6736 l -5.1196,4.86329 c 0,0 1.5643,1.8762 0.5653,2.79585 l -14.2963,14.40101 c -0.5326,0.55831 -2.3992,0.5384 -2.8505,0.071 l -8.2739,-8.14339 c -0.7419,-0.7651 -0.2406,-2.47717 0.1497,-2.81716 l 14.3089,-14.30356 c 0.8494,-0.92986 2.2261,-0.1679 3.2034,0.79724 l 4.937,-5.01094 c -0.064,-0.16731 -2.3995,-2.25058 -3.059,-2.56927 -0.5746,-0.27781 -1.6648,-0.61536 -2.3285,-0.72085 v 0 c -0.8324,-0.13227 -3.0354,-0.0443 -3.7409,0.15043 -0.9778,0.26909 -1.9328,0.76638 -2.8286,1.35729 l -16.8771,16.891 c -2.4901,2.49231 -2.4386,7.39984 0.1597,10.03699 2.5982,2.63703 8.2227,8.07028 10.8178,10.68077 2.5949,2.61037 7.2754,2.55611 9.8708,-0.0408 z"
         style="fill:#df601c;fill-opacity:1;stroke-width:0.106487" /><path
         sodipodi:nodetypes="zzzczzz"
         id="path6606-4-2"
         d="m -2802.6737,-896.59601 c -1.0869,1.02808 -21.9651,21.5238 -23.0913,22.67608 -1.1262,1.15228 -0.1858,3.43756 0.7206,4.38279 0.9064,0.94523 3.2098,1.7476 4.195,0.83558 1.0844,-0.97817 22.5071,-22.51911 23.1943,-23.2673 0.6872,-0.74819 0.4538,-2.46242 -0.7688,-3.79983 -1.2227,-1.33741 -3.1629,-1.8554 -4.2498,-0.82732 z"
         style="fill:#547586;fill-opacity:1;stroke-width:0.0733392"
         inkscape:connector-curvature="0" /></g></g></svg>
