<?xml version="1.0" encoding="UTF-8" standalone="no"?>
<!-- Created with Inkscape (http://www.inkscape.org/) -->

<svg
   width="200mm"
   height="200mm"
   viewBox="0 0 200 200"
   version="1.1"
   id="svg1"
   inkscape:version="1.3.1 (91b66b0783, 2023-11-16)"
   sodipodi:docname="connect_on.svg"
   xml:space="preserve"
   xmlns:inkscape="http://www.inkscape.org/namespaces/inkscape"
   xmlns:sodipodi="http://sodipodi.sourceforge.net/DTD/sodipodi-0.dtd"
   xmlns="http://www.w3.org/2000/svg"
   xmlns:svg="http://www.w3.org/2000/svg"><sodipodi:namedview
     id="namedview1"
     pagecolor="#ffffff"
     bordercolor="#000000"
     borderopacity="0.25"
     inkscape:showpageshadow="2"
     inkscape:pageopacity="0.0"
     inkscape:pagecheckerboard="0"
     inkscape:deskcolor="#d1d1d1"
     inkscape:document-units="mm"
     inkscape:zoom="0.69486532"
     inkscape:cx="290.70382"
     inkscape:cy="356.90369"
     inkscape:window-width="1920"
     inkscape:window-height="976"
     inkscape:window-x="-8"
     inkscape:window-y="-8"
     inkscape:window-maximized="1"
     inkscape:current-layer="layer1"
     showguides="true" /><defs
     id="defs1" /><g
     inkscape:label="Слой 1"
     inkscape:groupmode="layer"
     id="layer1"><path
       style="fill:#547586;fill-opacity:1;stroke-width:0.97352"
       d="m 26.20228,178.25843 c -2.667769,-0.84728 -4.102441,-4.07132 -2.844002,-6.39115 0.247773,-0.45702 3.348516,-3.75991 6.890204,-7.33975 3.541662,-3.57985 7.47509,-7.57458 8.740911,-8.8772 l 2.301504,-2.36839 -2.220541,-2.30344 c -1.648515,-1.7101 -2.26454,-2.53807 -2.391406,-3.21431 -0.48873,-2.60514 2.027932,-4.96306 4.567359,-4.27926 0.78552,0.21151 2.452665,1.69745 8.376176,7.46571 4.067489,3.96091 7.540375,7.46263 7.717575,7.78162 0.176905,0.319 0.32624,1.13022 0.33126,1.80274 0.0081,1.04803 -0.122679,1.36903 -0.91577,2.24651 -1.014127,1.12251 -2.069703,1.46796 -3.605309,1.17988 -0.681418,-0.12784 -1.481113,-0.70807 -3.04445,-2.20892 l -2.120251,-2.03555 -8.868529,8.89555 c -4.877707,4.89255 -9.175119,9.05786 -9.54984,9.25626 -0.905246,0.47926 -2.500985,0.66407 -3.364891,0.3897 z m 64.828381,-20.60155 c -3.085655,-0.49121 -5.971857,-1.66498 -8.426643,-3.42698 -1.548868,-1.11177 -34.371456,-32.79346 -36.021071,-34.76902 -1.578557,-1.89042 -2.928159,-4.65108 -3.615805,-7.39615 -0.76724,-3.06297 -0.606201,-7.25375 0.391686,-10.1922 1.196696,-3.523866 2.392936,-5.195116 7.597259,-10.613976 2.635905,-2.74456 6.057035,-6.3236 7.602521,-7.953398 l 2.810017,-2.963289 -0.915233,-0.954428 c -1.653856,-1.724583 -2.125378,-2.965312 -2.124787,-5.59082 4.56e-4,-2.01653 0.09047,-2.489389 0.692236,-3.633792 0.910804,-1.732279 2.963085,-3.555167 4.62333,-4.106621 1.788454,-0.594031 4.820743,-0.417108 6.352484,0.370641 0.611355,0.314426 4.490128,3.695016 8.619467,7.512412 4.129366,3.817404 7.582173,6.940742 7.67296,6.940742 0.09073,0 3.451867,-3.419104 7.469104,-7.598003 8.112244,-8.438769 8.520094,-8.750945 10.613174,-8.123841 2.22578,0.666857 3.53833,3.136612 2.72108,5.120112 -0.18898,0.458604 -3.58901,4.201604 -7.555703,8.317754 -3.966662,4.116161 -7.246053,7.574688 -7.287447,7.68561 -0.06872,0.184877 22.1407,20.912567 22.57453,21.068147 0.10442,0.0375 3.3145,-3.18749 7.13331,-7.16656 3.81891,-3.979066 7.25641,-7.400086 7.63895,-7.602256 0.9578,-0.50617 2.92528,-0.46371 3.8545,0.0831 0.88477,0.52073 1.62938,1.63837 1.8793,2.82064 0.3381,1.59982 -0.47896,2.67668 -7.68064,10.122606 -3.76804,3.89585 -6.85359,7.15013 -6.8567,7.23172 -0.002,0.0816 2.68798,2.63162 5.9802,5.66671 8.04285,7.41463 8.36901,7.75138 9.14124,9.43818 1.74537,3.81231 0.16134,8.4672 -3.57293,10.49964 -1.06443,0.57934 -1.78937,0.76514 -3.33445,0.85458 -2.38695,0.13816 -3.9774,-0.32197 -5.61582,-1.62473 -0.62201,-0.49459 -1.20625,-0.89926 -1.29833,-0.89926 -0.0921,0 -3.69795,3.6658 -8.01303,8.14622 -8.00967,8.31654 -9.72371,9.82331 -12.72,11.18187 -2.995273,1.35813 -7.399069,2.02093 -10.328759,1.55455 z m -32.156336,-0.40691 c -0.986076,-0.51429 -15.045827,-14.20882 -15.510745,-15.10785 -0.200796,-0.38825 -0.365057,-1.22922 -0.365057,-1.86883 0,-1.45298 1.088889,-2.82642 2.599691,-3.27906 1.989492,-0.59607 2.306632,-0.36465 10.484347,7.65069 8.465622,8.29753 8.537323,8.39734 7.628157,10.62015 -0.396733,0.96999 -0.726919,1.33025 -1.643682,1.79338 -1.337656,0.67575 -2.168651,0.72559 -3.192711,0.19153 z m 6.453151,-6.94748 C 64.361614,149.7987 50.262884,136.0648 49.800382,135.17717 c -1.449355,-2.78163 1.370434,-6.10069 4.348175,-5.11796 1.133075,0.37396 15.303694,14.07177 15.966831,15.4341 1.450859,2.98069 -1.879725,6.32605 -4.787912,4.80918 z"
       id="path77" /><path
       style="fill:#df601c;fill-opacity:1;stroke-width:0.97352"
       d="m 181.31105,16.19324 c 2.66777,0.847276 4.10244,4.071321 2.844,6.39115 -0.24777,0.457021 -3.34852,3.759909 -6.8902,7.339749 -3.54167,3.579845 -7.47509,7.574578 -8.74092,8.8772 l -2.3015,2.368387 2.22054,2.303437 c 1.64852,1.710103 2.26454,2.538075 2.39141,3.21431 0.48873,2.605149 -2.02794,4.963064 -4.56736,4.279262 -0.78552,-0.211507 -2.45267,-1.697449 -8.37618,-7.465711 -4.06749,-3.960903 -7.54037,-7.462623 -7.71757,-7.78162 -0.17691,-0.318992 -0.32624,-1.130217 -0.33126,-1.802733 -0.008,-1.048032 0.12268,-1.369032 0.91577,-2.246516 1.01412,-1.122509 2.0697,-1.467959 3.60531,-1.179876 0.68141,0.127833 1.48111,0.708067 3.04445,2.208915 l 2.12025,2.035554 8.86853,-8.89555 c 4.8777,-4.892551 9.17512,-9.057862 9.54984,-9.256255 0.90524,-0.479269 2.50098,-0.66408 3.36489,-0.389703 z m -64.82838,20.601545 c 3.08565,0.491209 5.97185,1.66498 8.42664,3.426985 1.54887,1.111768 34.37146,32.793456 36.02107,34.769021 1.57856,1.89042 2.92816,4.651078 3.61581,7.396143 0.76724,3.062978 0.6062,7.253756 -0.39169,10.192202 -1.1967,3.523869 -2.39294,5.195121 -7.59726,10.613984 -2.6359,2.74456 -6.05703,6.3236 -7.60252,7.9534 l -2.81002,2.96329 0.91523,0.95442 c 1.65386,1.72459 2.12538,2.96532 2.12479,5.59083 -4.5e-4,2.01652 -0.0905,2.48938 -0.69223,3.63379 -0.91081,1.73228 -2.96309,3.55516 -4.62333,4.10662 -1.78846,0.59403 -5.09324,0.80455 -6.35249,-0.37064 L 71.599353,66.507707 c -3.065335,-2.860724 -0.161335,-8.467203 3.572935,-10.499637 1.064434,-0.579345 1.789367,-0.765141 3.33445,-0.854578 2.38695,-0.138168 3.977399,0.321961 5.61582,1.62473 0.622012,0.494584 1.206253,0.899258 1.298329,0.899258 0.09208,0 3.69795,-3.665804 8.013028,-8.146225 8.009665,-8.316538 9.723705,-9.823303 12.719995,-11.181869 2.99527,-1.35813 7.39907,-2.020931 10.32876,-1.554548 z m 32.15633,0.40691 c 0.98608,0.514295 15.04583,14.208818 15.51075,15.107853 0.20079,0.388253 0.36505,1.229218 0.36505,1.868832 0,1.452977 -1.08888,2.826422 -2.59969,3.279059 -1.98949,0.596069 -2.30663,0.364643 -10.48434,-7.65069 -8.46563,-8.297528 -8.53733,-8.397343 -7.62816,-10.620153 0.39673,-0.969987 0.72692,-1.330244 1.64368,-1.793377 1.33766,-0.675752 2.16865,-0.725596 3.19271,-0.191535 z m -6.45315,6.947479 c 0.96586,0.503789 15.06459,14.237696 15.52709,15.125322 1.44936,2.781626 -1.37043,6.100689 -4.34817,5.117961 -1.13307,-0.373958 -15.30369,-14.071767 -15.96683,-15.434101 -1.45086,-2.980686 1.87972,-6.326051 4.78791,-4.809182 z"
       id="path77-5"
       sodipodi:nodetypes="sssscsssscccsscsssssssssscssssssssssssssssssssssssssss" /></g></svg>
