<?xml version="1.0" encoding="UTF-8" standalone="no"?>
<!-- Created with Inkscape (http://www.inkscape.org/) -->

<svg
   width="200mm"
   height="200mm"
   viewBox="0 0 200 200"
   version="1.1"
   id="svg1"
   inkscape:version="1.3.1 (91b66b0783, 2023-11-16)"
   sodipodi:docname="connect_no.svg"
   xml:space="preserve"
   xmlns:inkscape="http://www.inkscape.org/namespaces/inkscape"
   xmlns:sodipodi="http://sodipodi.sourceforge.net/DTD/sodipodi-0.dtd"
   xmlns="http://www.w3.org/2000/svg"
   xmlns:svg="http://www.w3.org/2000/svg"><sodipodi:namedview
     id="namedview1"
     pagecolor="#ffffff"
     bordercolor="#000000"
     borderopacity="0.25"
     inkscape:showpageshadow="2"
     inkscape:pageopacity="0.0"
     inkscape:pagecheckerboard="0"
     inkscape:deskcolor="#d1d1d1"
     inkscape:document-units="mm"
     inkscape:zoom="0.69486532"
     inkscape:cx="171.97577"
     inkscape:cy="400.07753"
     inkscape:window-width="1920"
     inkscape:window-height="976"
     inkscape:window-x="-8"
     inkscape:window-y="-8"
     inkscape:window-maximized="1"
     inkscape:current-layer="layer1"
     showguides="true" /><defs
     id="defs1" /><g
     inkscape:label="Слой 1"
     inkscape:groupmode="layer"
     id="layer1"><g
       id="g6859"
       transform="matrix(2.4367111,0,0,2.4367111,7198.0319,2255.527)"><path
         inkscape:connector-curvature="0"
         id="path6601-3"
         d="m -2904.4502,-865.37619 c -0.7232,0 -1.0265,0.0516 -1.4801,0.25211 -1.036,0.45827 -1.7097,1.23771 -2.0558,2.37853 -0.1324,0.43725 -0.1606,1.47543 -0.1606,6.15732 0,5.96221 -0.021,5.68252 0.4873,6.79641 0.3058,0.67066 1.4199,1.55399 2.222,1.76125 v 0 c 0.1864,0.0479 0.7003,0.0691 1.1415,0.0477 1.253,-0.0615 2.1071,-0.52263 2.7813,-1.50245 0.6526,-0.94233 0.6415,-0.84228 0.6415,-7.25289 v -5.86107 l -0.3038,-0.6663 c -0.3696,-0.8125 -0.9231,-1.38262 -1.7446,-1.79749 -0.5412,-0.27325 -0.7377,-0.31318 -1.5305,-0.31318 z"
         style="fill:#547586;fill-opacity:1;stroke-width:0.107002" /><path
         inkscape:connector-curvature="0"
         id="path6598-5"
         d="m -2899.2837,-873.19556 c -1.297,0.21527 -2.321,0.9801 -2.8482,2.12698 -0.3827,0.83253 -0.3963,1.94068 -0.035,2.85676 0.2338,0.59222 0.5619,0.9514 4.2252,4.63374 3.941,3.96156 4.5759,4.51332 5.4575,4.74071 h 6e-4 c 0.1832,0.0472 0.6723,0.0716 1.0871,0.0544 1.3857,-0.0577 2.4833,-0.78458 3.1083,-2.0575 0.2677,-0.54541 0.3096,-0.75327 0.3096,-1.53992 0,-1.52716 0,-1.5226 -4.5298,-6.07694 -2.1626,-2.1727 -4.1225,-4.0669 -4.3555,-4.20929 -0.8182,-0.50017 -1.5858,-0.66748 -2.4202,-0.52895 z"
         style="fill:#547586;fill-opacity:1;stroke-width:0.107002" /><path
         inkscape:connector-curvature="0"
         id="path6596-6"
         d="m -2885.9079,-878.96478 c -5.7408,10e-4 -5.9306,0.0152 -6.8268,0.47829 -0.5891,0.30467 -1.188,0.93108 -1.5307,1.60101 -0.2956,0.57751 -0.3402,0.74786 -0.3285,1.55808 0,0.98852 0.1994,1.59411 0.7473,2.3126 0.3405,0.44612 1.0395,0.94711 1.6088,1.15302 v -6.2e-4 c 0.5628,0.2037 11.9608,0.24196 12.5452,0.0421 2.501,-0.85374 3.3724,-3.95901 1.6475,-5.86831 -0.5229,-0.57891 -1.0089,-0.88194 -1.7642,-1.10166 -0.526,-0.15269 -1.3178,-0.17468 -6.0986,-0.17468 z"
         style="fill:#547586;fill-opacity:1;stroke-width:0.107002" /><path
         inkscape:connector-curvature="0"
         id="path6589-3"
         d="m -2932.5988,-898.13142 -6.0643,0.0293 -6.0637,0.0293 -0.5327,0.26172 c -0.6848,0.33696 -1.357,1.01298 -1.7255,1.73462 -0.2539,0.49749 -0.2904,0.69592 -0.2904,1.53456 0,0.76986 0.05,1.06669 0.2415,1.48132 0.4452,0.96361 1.2215,1.64221 2.3016,2.01087 0.4829,0.16497 1.1299,0.17877 6.1048,0.19046 5.8207,0.0117 5.9975,0 6.8967,-0.47044 0.591,-0.30548 1.1887,-0.93178 1.528,-1.60089 0.2897,-0.57003 0.32,-0.75851 0.3319,-1.55808 0,-0.78413 -0.039,-0.9973 -0.3019,-1.54603 -0.3767,-0.78635 -1.0317,-1.4365 -1.8233,-1.81137 z"
         style="fill:#547586;fill-opacity:1;stroke-width:0.107002" /><path
         inkscape:connector-curvature="0"
         id="path6587-3"
         d="m -2932.8499,-911.01569 c -0.824,0 -1.05,0.0363 -1.5669,0.27869 -0.7712,0.36153 -1.4283,1.01894 -1.7855,1.78727 -0.2332,0.50088 -0.2831,0.76003 -0.2831,1.51397 0,1.51303 -0.02,1.49115 4.5745,6.1174 4.0549,4.08268 4.3644,4.34827 5.4274,4.64404 v 0.0117 c 0.644,0.16953 0.9111,0.16942 1.5903,-0.0117 0.8473,-0.22546 1.276,-0.4577 1.7874,-0.96922 1.0354,-1.03555 1.3493,-2.57456 0.807,-3.9583 -0.2334,-0.59576 -0.5492,-0.93986 -4.3846,-4.77824 -4.7208,-4.72535 -4.5883,-4.62146 -6.1665,-4.63316 z"
         style="fill:#547586;fill-opacity:1;stroke-width:0.107002" /><path
         inkscape:connector-curvature="0"
         id="path6563-7"
         d="m -2919.9561,-921.82428 c -0.8899,0 -1.0921,0.0398 -1.6273,0.29986 -0.7111,0.34538 -1.3556,1.02831 -1.7413,1.84402 l -0.2694,0.56838 v 5.94214 5.94203 l 0.2727,0.61799 c 0.5242,1.18753 1.4349,1.88613 2.8843,2.2128 0.4033,0.0913 1.3772,-0.0632 1.9189,-0.3035 1.0219,-0.4536 1.714,-1.24744 2.0255,-2.32348 0.1526,-0.52533 0.1746,-1.33601 0.1746,-6.16034 0,-4.89898 -0.02,-5.61794 -0.1778,-6.08301 -0.3451,-1.02234 -0.9329,-1.72363 -1.888,-2.25211 -0.5035,-0.27776 -0.6503,-0.31648 -1.5722,-0.30478 z"
         style="fill:#547586;fill-opacity:1;stroke-width:0.107002" /><path
         style="fill:#df601c;fill-opacity:1;stroke-width:0.113234"
         d="m -2898.6932,-920.84626 -17.9061,17.91685 c -1.2295,1.73252 -1.5105,3.31856 -1.5229,5.46028 0,1.52277 0.226,2.60094 0.8562,4.02071 0.3066,0.69161 2.2889,2.7084 2.4838,2.8285 l 5.2408,-5.07509 c 0,0 -1.7064,-2.07696 -0.6441,-3.05484 l 15.2022,-15.31344 c 0.5664,-0.59368 2.5511,-0.5725 3.031,-0.0755 l 8.7982,8.65935 c 0.7888,0.81358 0.2558,2.63412 -0.1593,2.99566 l -15.2154,15.2098 c -0.9033,0.98877 -2.4666,-0.0702 -3.5058,-1.09642 l -5.4896,5.50971 c 0.068,0.17793 2.8908,2.46056 3.592,2.79943 0.6111,0.29542 1.7703,0.65436 2.476,0.76654 v 0 c 0.8852,0.14065 3.2278,0.047 3.978,-0.15998 1.0397,-0.28613 2.0552,-0.81493 3.0079,-1.44328 l 17.9463,-17.96117 c 2.6478,-2.65022 2.5931,-7.86869 -0.1697,-10.67293 -2.763,-2.80411 -8.7437,-8.5816 -11.5033,-11.35749 -2.7592,-2.77575 -7.7363,-2.71806 -10.4962,0.0434 z"
         id="path6585-5-7-8-9"
         inkscape:connector-curvature="0"
         sodipodi:nodetypes="cccccccccccccccccccszzsc" /><path
         style="fill:#df601c;fill-opacity:1;stroke-width:0.113234"
         d="m -2926.2629,-850.28226 17.9061,-17.91683 c 1.2294,-1.73252 1.5105,-3.31856 1.5229,-5.46033 0,-1.52272 -0.2259,-2.60089 -0.8563,-4.02065 -0.3066,-0.69162 -2.0427,-2.7229 -2.2376,-2.84299 l -5.444,5.17142 c 0,0 1.6634,1.99507 0.6011,2.97298 l -15.2021,15.31343 c -0.5663,0.59369 -2.5512,0.57252 -3.0311,0.0755 l -8.7981,-8.65934 c -0.7889,-0.81357 -0.2558,-2.63411 0.1592,-2.99565 l 15.2155,-15.2098 c 0.9032,-0.98878 2.3671,-0.17854 3.4063,0.84775 l 5.2498,-5.32842 c -0.068,-0.17791 -2.5515,-2.39318 -3.2528,-2.73206 -0.611,-0.29541 -1.7702,-0.65434 -2.476,-0.76652 v 0 c -0.8851,-0.14065 -3.2277,-0.0471 -3.9779,0.15996 -1.0398,0.28614 -2.0553,0.81494 -3.0078,1.44329 l -17.9464,17.96118 c -2.6479,2.65022 -2.5931,7.86868 0.1698,10.67291 2.7628,2.80411 8.7437,8.5816 11.5032,11.35749 2.7593,2.77575 7.7363,2.71805 10.4962,-0.0434 z"
         id="path6585-5-9-5-1-2"
         inkscape:connector-curvature="0"
         sodipodi:nodetypes="sccccccccccccccccccszzs" /></g></g></svg>
