<?xml version="1.0" encoding="UTF-8" standalone="no"?>
<!-- Created with Inkscape (http://www.inkscape.org/) -->

<svg
   width="200mm"
   height="200mm"
   viewBox="0 0 200 200"
   version="1.1"
   id="svg1"
   inkscape:version="1.3.1 (91b66b0783, 2023-11-16)"
   sodipodi:docname="connect_yes.svg"
   xml:space="preserve"
   xmlns:inkscape="http://www.inkscape.org/namespaces/inkscape"
   xmlns:sodipodi="http://sodipodi.sourceforge.net/DTD/sodipodi-0.dtd"
   xmlns="http://www.w3.org/2000/svg"
   xmlns:svg="http://www.w3.org/2000/svg"><sodipodi:namedview
     id="namedview1"
     pagecolor="#ffffff"
     bordercolor="#000000"
     borderopacity="0.25"
     inkscape:showpageshadow="2"
     inkscape:pageopacity="0.0"
     inkscape:pagecheckerboard="0"
     inkscape:deskcolor="#d1d1d1"
     inkscape:document-units="mm"
     inkscape:zoom="0.69486532"
     inkscape:cx="171.97577"
     inkscape:cy="400.07753"
     inkscape:window-width="1920"
     inkscape:window-height="976"
     inkscape:window-x="-8"
     inkscape:window-y="-8"
     inkscape:window-maximized="1"
     inkscape:current-layer="layer1"
     showguides="true" /><defs
     id="defs1" /><g
     inkscape:label="Слой 1"
     inkscape:groupmode="layer"
     id="layer1"><path
       id="rect21"
       style="opacity:1;fill:#df601c;fill-opacity:1;stroke-width:2"
       d="M 2.6923421 4.3077474 L 2.6923421 197.08719 L 196.54873 197.08719 L 196.54873 4.3077474 L 2.6923421 4.3077474 z M 145.0604 11.650452 C 149.66023 11.620402 154.25977 13.236297 157.54077 16.536975 C 164.10376 23.138634 178.32745 36.878928 184.89827 43.547729 C 191.46887 50.216811 191.59907 62.627884 185.30187 68.930676 L 142.62179 111.6459 C 140.35615 113.14026 137.94095 114.39828 135.46822 115.07876 C 133.68408 115.57098 128.11287 115.79359 126.00781 115.4591 C 124.32938 115.19232 121.57264 114.33854 120.11928 113.63596 C 118.45172 112.83005 111.7385 107.40162 111.57665 106.97848 L 124.63219 93.87489 C 127.10366 96.315504 130.82161 98.834004 132.96966 96.482483 L 169.15557 60.310531 C 170.14261 59.450704 171.4103 55.120759 169.53435 53.185901 L 148.61005 32.591809 C 147.46875 31.409827 142.74859 31.359733 141.4017 32.771643 L 105.24732 69.190609 C 102.72098 71.516205 106.77901 76.455282 106.77901 76.455282 L 94.31569 88.525346 C 93.852145 88.239731 89.137637 83.443444 88.408557 81.798625 C 86.909681 78.422117 86.372506 75.857899 86.372506 72.236418 C 86.401842 67.142942 87.07008 63.370954 89.99399 59.250647 L 132.57847 16.640328 C 135.86035 13.356669 140.46055 11.680501 145.0604 11.650452 z M 125.86002 64.869942 C 128.24032 64.916233 130.88155 66.220985 132.81412 68.334847 C 135.90594 71.717027 136.49604 76.05198 134.75818 77.94408 C 133.02031 79.836179 78.844673 134.31123 76.102332 136.78493 C 73.610857 139.09134 67.785357 137.06228 65.49316 134.67188 C 63.200963 132.28149 60.823 126.50233 63.671049 123.58832 C 66.519098 120.67432 119.3183 68.842382 122.06697 66.242468 C 123.09771 65.267501 124.43184 64.842168 125.86002 64.869942 z M 71.467472 85.487288 C 72.31367 85.505776 73.056324 85.554559 73.582589 85.638184 C 75.261019 85.904956 78.018014 86.758775 79.471118 87.461328 C 81.138926 88.267262 87.04523 93.535495 87.20708 93.958606 L 74.722054 106.63122 C 72.250561 104.19047 68.768788 102.26329 66.62074 104.6148 L 30.434835 140.78727 C 29.447806 141.64707 28.180373 145.97653 30.056563 147.91139 L 50.980351 168.50548 C 52.121644 169.68749 56.841806 169.73756 58.188696 168.32564 L 94.343079 131.90719 C 96.869449 129.5815 92.913192 124.83682 92.913192 124.83682 L 105.86021 112.53783 C 106.32374 112.82345 110.45275 117.65436 111.18184 119.29918 C 112.68097 122.67568 113.21841 125.23948 113.21841 128.86087 C 113.18883 133.95444 112.52033 137.72684 109.59641 141.84716 L 67.01193 184.45696 C 60.448425 191.02428 48.61187 191.16167 42.04963 184.56031 C 35.486882 177.95865 21.262714 164.21834 14.692126 157.54956 C 8.121288 150.88046 7.991321 138.46992 14.288534 132.16713 L 56.969132 89.451388 C 59.23452 87.957035 61.649427 86.69954 64.122184 86.019039 C 65.460288 85.649699 68.928881 85.431825 71.467472 85.487288 z " /></g></svg>
