<?xml version="1.0" encoding="UTF-8" standalone="no"?>
<!-- Created with Inkscape (http://www.inkscape.org/) -->

<svg
   width="200mm"
   height="200mm"
   viewBox="0 0 200 200"
   version="1.1"
   id="svg1"
   inkscape:version="1.3.1 (91b66b0783, 2023-11-16)"
   sodipodi:docname="copy.svg"
   xml:space="preserve"
   xmlns:inkscape="http://www.inkscape.org/namespaces/inkscape"
   xmlns:sodipodi="http://sodipodi.sourceforge.net/DTD/sodipodi-0.dtd"
   xmlns="http://www.w3.org/2000/svg"
   xmlns:svg="http://www.w3.org/2000/svg"><sodipodi:namedview
     id="namedview1"
     pagecolor="#ffffff"
     bordercolor="#000000"
     borderopacity="0.25"
     inkscape:showpageshadow="2"
     inkscape:pageopacity="0.0"
     inkscape:pagecheckerboard="0"
     inkscape:deskcolor="#d1d1d1"
     inkscape:document-units="mm"
     inkscape:zoom="0.49134398"
     inkscape:cx="500.66758"
     inkscape:cy="461.99813"
     inkscape:window-width="1920"
     inkscape:window-height="976"
     inkscape:window-x="-8"
     inkscape:window-y="-8"
     inkscape:window-maximized="1"
     inkscape:current-layer="layer1"
     showguides="true" /><defs
     id="defs1" /><g
     inkscape:label="Слой 1"
     inkscape:groupmode="layer"
     id="layer1"><g
       id="g2065"
       transform="matrix(3.4534364,0,0,3.4534364,-567.22986,781.36202)"><g
         style="stroke:#547586;stroke-opacity:1"
         transform="rotate(180,208.4317,-196.65208)"
         id="g2031-0"><path
           style="opacity:1;fill:none;fill-opacity:1;stroke:#547586;stroke-width:13.9843;stroke-linecap:round;stroke-linejoin:round;stroke-miterlimit:4;stroke-dasharray:none;stroke-dashoffset:0;stroke-opacity:1;paint-order:normal"
           d="m 883.07354,-1016.4982 -0.27285,23.18617 c -0.0776,6.59241 -5.30761,11.90047 -11.90047,11.90047 h -92.53133 c -6.59286,0 -11.90047,-5.30761 -11.90047,-11.90047 v -120.30427 c 0,-6.5928 5.30761,-11.9004 11.90047,-11.9004 v 0 l 19.83862,-0.2728 0.89613,71.5437 42.64013,37.5448 z"
           id="path2027-0"
           transform="matrix(0.26458333,0,0,0.26458333,0,87)"
           inkscape:connector-curvature="0"
           sodipodi:nodetypes="cssssscccccc" /></g><g
         style="fill:#ffffff;fill-opacity:1"
         transform="translate(-68.224705,-11.717262)"
         id="g2031"><g
           style="fill:#ffffff;fill-opacity:1"
           transform="translate(40.254464,11.150298)"
           id="g2056"><path
             sodipodi:nodetypes="csssssccc"
             inkscape:connector-curvature="0"
             id="path2027"
             d="m 882.8007,-1088.257 -10e-6,94.94497 c 0,6.59286 -5.30761,11.90047 -11.90047,11.90047 h -92.53133 c -6.59286,0 -11.90047,-5.30761 -11.90047,-11.90047 v -120.30427 c 0,-6.5928 5.30761,-11.9004 11.90047,-11.9004 v 0 h 60.76568 z"
             style="opacity:1;fill:none;fill-opacity:1;stroke:#df601c;stroke-width:13.9843;stroke-linecap:round;stroke-linejoin:round;stroke-miterlimit:4;stroke-dasharray:none;stroke-dashoffset:0;stroke-opacity:1;paint-order:normal"
             transform="matrix(0.26458333,0,0,0.26458333,0,87)" /><path
             inkscape:connector-curvature="0"
             id="rect2005"
             d="m 231.75281,-198.92411 h -8.40466 c -1.74436,0 -3.14867,-1.4043 -3.14867,-3.14865 v -6.70965"
             style="opacity:1;fill:none;fill-opacity:1;stroke:#df601c;stroke-width:3.7;stroke-linecap:round;stroke-linejoin:round;stroke-miterlimit:4;stroke-dasharray:none;stroke-dashoffset:0;stroke-opacity:1;paint-order:normal" /></g></g></g></g></svg>
