<?xml version="1.0" encoding="UTF-8" standalone="no"?>
<!-- Created with Inkscape (http://www.inkscape.org/) -->

<svg
   width="200mm"
   height="200mm"
   viewBox="0 0 200 200"
   version="1.1"
   id="svg1"
   inkscape:version="1.3.1 (91b66b0783, 2023-11-16)"
   sodipodi:docname="cut.svg"
   xml:space="preserve"
   xmlns:inkscape="http://www.inkscape.org/namespaces/inkscape"
   xmlns:sodipodi="http://sodipodi.sourceforge.net/DTD/sodipodi-0.dtd"
   xmlns="http://www.w3.org/2000/svg"
   xmlns:svg="http://www.w3.org/2000/svg"><sodipodi:namedview
     id="namedview1"
     pagecolor="#ffffff"
     bordercolor="#000000"
     borderopacity="0.25"
     inkscape:showpageshadow="2"
     inkscape:pageopacity="0.0"
     inkscape:pagecheckerboard="0"
     inkscape:deskcolor="#d1d1d1"
     inkscape:document-units="mm"
     inkscape:zoom="0.69486532"
     inkscape:cx="364.09933"
     inkscape:cy="191.404"
     inkscape:window-width="1920"
     inkscape:window-height="976"
     inkscape:window-x="-8"
     inkscape:window-y="-8"
     inkscape:window-maximized="1"
     inkscape:current-layer="layer1"
     showguides="true" /><defs
     id="defs1" /><g
     inkscape:label="Слой 1"
     inkscape:groupmode="layer"
     id="layer1"><g
       id="g20"
       transform="translate(-280.24615,-76.153846)"><path
         id="path17"
         style="opacity:1;fill:#547586;fill-opacity:1;stroke:none;stroke-width:7.09599;stroke-dasharray:none"
         d="m 439.06385,96.408117 c -8.93099,0.222215 -20.39318,0.858797 -28.57512,8.674463 l -76.22159,78.27269 21.67413,19.11666 9.75075,21.44542 13.99223,-14.4278 37.90551,36.93632 c 13.62699,13.27856 39.15436,14.16349 59.34739,-10.19814 l -63.37769,-61.7572 60.84952,-62.19568 C 462.47639,101.73495 450.54655,96.122413 439.06385,96.408117 Z m 20.5819,16.979723 -91.27947,93.74392 -21.41129,-21.88741 67.96379,-69.79267 c 11.36339,-11.66918 31.19566,-12.83309 44.72697,-2.06384 z m -52.82281,68.11821 56.29411,54.85474 c -12.86327,11.72394 -30.05282,11.39459 -37.53621,4.14224 l -39.0608,-38.06206 z"
         sodipodi:nodetypes="scccccccccscccccccccc" /><path
         id="path16-5"
         style="fill:#df601c;fill-opacity:1;stroke:none;stroke-width:5.84819;stroke-dasharray:none"
         d="m 330.14803,180.30866 a 40.638715,40.638715 0 0 0 -40.63875,40.63875 40.638715,40.638715 0 0 0 40.63875,40.63874 40.638715,40.638715 0 0 0 40.63873,-40.63874 40.638715,40.638715 0 0 0 -40.63873,-40.63875 z m 0,12.08175 a 28.556933,28.556933 0 0 1 28.55699,28.557 28.556933,28.556933 0 0 1 -28.55699,28.55701 28.556933,28.556933 0 0 1 -28.55701,-28.55701 28.556933,28.556933 0 0 1 28.55701,-28.557 z" /><path
         id="path16-5-7"
         style="fill:#df601c;fill-opacity:1;stroke:none;stroke-width:5.84819;stroke-dasharray:none"
         d="m 330.14803,86.892995 a 40.638715,40.638715 0 0 0 -40.63875,40.638725 40.638715,40.638715 0 0 0 40.63875,40.63874 40.638715,40.638715 0 0 0 40.63873,-40.63874 40.638715,40.638715 0 0 0 -40.63873,-40.638725 z m 0,12.08174 a 28.556933,28.556933 0 0 1 28.55699,28.556985 28.556933,28.556933 0 0 1 -28.55699,28.55701 28.556933,28.556933 0 0 1 -28.55701,-28.55701 28.556933,28.556933 0 0 1 28.55701,-28.556985 z" /></g></g></svg>
