<?xml version="1.0" encoding="UTF-8" standalone="no"?>
<!-- Created with Inkscape (http://www.inkscape.org/) -->

<svg
   width="200mm"
   height="200mm"
   viewBox="0 0 200 200"
   version="1.1"
   id="svg1"
   inkscape:version="1.3.1 (91b66b0783, 2023-11-16)"
   sodipodi:docname="cut.svg"
   xml:space="preserve"
   xmlns:inkscape="http://www.inkscape.org/namespaces/inkscape"
   xmlns:sodipodi="http://sodipodi.sourceforge.net/DTD/sodipodi-0.dtd"
   xmlns="http://www.w3.org/2000/svg"
   xmlns:svg="http://www.w3.org/2000/svg"><sodipodi:namedview
     id="namedview1"
     pagecolor="#ffffff"
     bordercolor="#000000"
     borderopacity="0.25"
     inkscape:showpageshadow="2"
     inkscape:pageopacity="0.0"
     inkscape:pagecheckerboard="0"
     inkscape:deskcolor="#d1d1d1"
     inkscape:document-units="mm"
     inkscape:zoom="0.17371633"
     inkscape:cx="46.05209"
     inkscape:cy="846.20715"
     inkscape:window-width="1920"
     inkscape:window-height="976"
     inkscape:window-x="-8"
     inkscape:window-y="-8"
     inkscape:window-maximized="1"
     inkscape:current-layer="layer1"
     showguides="true" /><defs
     id="defs1" /><g
     inkscape:label="Слой 1"
     inkscape:groupmode="layer"
     id="layer1"><g
       id="g20"
       transform="translate(-280.24615,-76.153846)"><path
         id="path17"
         style="opacity:1;fill:#547586;fill-opacity:1;stroke:none;stroke-width:7.09599;stroke-dasharray:none"
         d="m 439.06385,96.408117 c -8.93099,0.222215 -17.59168,4.012553 -25.77362,11.828223 l -79.02309,75.11893 21.67413,19.11666 8.07755,20.73155 15.88533,-14.53916 40.65592,40.65591 c 13.32821,7.61941 34.32199,13.82843 54.51502,-10.5332 l -61.51563,-64.3165 60.84952,-62.19568 C 462.47639,101.73495 450.54655,96.122413 439.06385,96.408117 Z m 0.0202,7.079673 c 8.49975,-0.39543 17.45387,2.8657 24.68945,9.4604 l -94.10077,95.71613 -23.42441,-26.11676 74.85022,-71.34965 c 5.03872,-4.88316 11.37455,-7.40257 17.98546,-7.71012 z m -30.81155,75.85273 58.68944,60.30485 c -12.86327,11.72394 -31.15782,12.91128 -42.67492,1.74977 l -39.03487,-37.28455 z" /><path
         id="path16-5"
         style="fill:#df601c;fill-opacity:1;stroke:none;stroke-width:5.84819;stroke-dasharray:none"
         d="m 330.14803,180.30866 a 40.638715,40.638715 0 0 0 -40.63875,40.63875 40.638715,40.638715 0 0 0 40.63875,40.63874 40.638715,40.638715 0 0 0 40.63873,-40.63874 40.638715,40.638715 0 0 0 -40.63873,-40.63875 z m 0,12.08175 a 28.556933,28.556933 0 0 1 28.55699,28.557 28.556933,28.556933 0 0 1 -28.55699,28.55701 28.556933,28.556933 0 0 1 -28.55701,-28.55701 28.556933,28.556933 0 0 1 28.55701,-28.557 z" /><path
         id="path16-5-7"
         style="fill:#df601c;fill-opacity:1;stroke:none;stroke-width:5.84819;stroke-dasharray:none"
         d="m 330.14803,86.892995 a 40.638715,40.638715 0 0 0 -40.63875,40.638725 40.638715,40.638715 0 0 0 40.63875,40.63874 40.638715,40.638715 0 0 0 40.63873,-40.63874 40.638715,40.638715 0 0 0 -40.63873,-40.638725 z m 0,12.08174 a 28.556933,28.556933 0 0 1 28.55699,28.556985 28.556933,28.556933 0 0 1 -28.55699,28.55701 28.556933,28.556933 0 0 1 -28.55701,-28.55701 28.556933,28.556933 0 0 1 28.55701,-28.556985 z" /></g></g></svg>
