<?xml version="1.0" encoding="UTF-8" standalone="no"?>
<!-- Created with Inkscape (http://www.inkscape.org/) -->

<svg
   width="200mm"
   height="200mm"
   viewBox="0 0 200 200"
   version="1.1"
   id="svg1"
   inkscape:version="1.3.1 (91b66b0783, 2023-11-16)"
   sodipodi:docname="dconf_w.svg"
   xml:space="preserve"
   xmlns:inkscape="http://www.inkscape.org/namespaces/inkscape"
   xmlns:sodipodi="http://sodipodi.sourceforge.net/DTD/sodipodi-0.dtd"
   xmlns="http://www.w3.org/2000/svg"
   xmlns:svg="http://www.w3.org/2000/svg"><sodipodi:namedview
     id="namedview1"
     pagecolor="#ffffff"
     bordercolor="#000000"
     borderopacity="0.25"
     inkscape:showpageshadow="2"
     inkscape:pageopacity="0.0"
     inkscape:pagecheckerboard="0"
     inkscape:deskcolor="#d1d1d1"
     inkscape:document-units="mm"
     inkscape:zoom="0.69486532"
     inkscape:cx="719.5639"
     inkscape:cy="377.05148"
     inkscape:window-width="1920"
     inkscape:window-height="976"
     inkscape:window-x="-8"
     inkscape:window-y="-8"
     inkscape:window-maximized="1"
     inkscape:current-layer="layer1"
     showguides="true" /><defs
     id="defs1" /><g
     inkscape:label="Слой 1"
     inkscape:groupmode="layer"
     id="layer1"><path
       id="rect2971-7-0-9-9"
       style="fill:#547586;fill-opacity:1;stroke:none;stroke-width:16.4099;stroke-linecap:round;stroke-linejoin:round;stroke-miterlimit:4;stroke-dasharray:none;stroke-dashoffset:0;stroke-opacity:1;paint-order:normal"
       d="m 24.253363,5.028813 c -10.54877,0 -19.041227,8.492447 -19.041227,19.04123 V 175.66707 c 0,10.54879 8.492457,19.04123 19.041227,19.04123 H 175.1379 c 10.54877,0 19.04123,-8.49244 19.04123,-19.04123 V 24.070043 c 0,-10.548783 -8.49246,-19.04123 -19.04123,-19.04123 z m 15.38689,15.698186 81.028647,0.114081 c 0,0 66.57363,-4.173757 63.49076,54.323971 C 174.95804,131.64866 129.57389,175.29764 65.658573,174.12316 L 21.355023,174.67035 90.990493,59.328616 128.58181,59.280276 73.483493,152.3199 C 123.34695,149.60765 142.57149,105.48889 147.45387,79.863486 151.47284,49.52311 110.76353,48.442938 110.76353,48.442938 l -88.060847,0.290026 z m -3.45712,30.490529 h 9.7e-4 c 0.36552,0.0478 0.93536,1.223708 2.80165,5.78217 l 1.02767,2.511632 1.29256,0.130506 c 0.71069,0.07208 1.96706,0.292292 2.79198,0.488212 l 1.49944,0.355766 3.20868,-3.247334 3.20866,-3.248303 3.57409,2.33375 c 3.0363,1.982556 3.56718,2.394642 3.5277,2.736887 -0.0256,0.221578 -0.62093,1.825867 -1.32253,3.565398 -0.7016,1.739524 -1.39873,3.485955 -1.5497,3.88056 l -0.27553,0.717333 0.93195,1.229714 c 0.51218,0.676456 1.16808,1.644609 1.45786,2.152 l 0.52689,0.923253 4.30399,-0.06381 4.30499,-0.06381 0.17497,0.422472 c 0.0968,0.232335 0.50856,2.037034 0.91455,4.010105 0.406,1.973071 0.77473,3.718506 0.81982,3.878627 0.0632,0.22421 -0.42428,0.519026 -2.12011,1.282885 -1.21116,0.545573 -2.96849,1.295076 -3.9057,1.665722 -0.93721,0.370642 -1.72634,0.68978 -1.75272,0.708632 -0.0265,0.01882 -0.13062,0.711503 -0.23201,1.540043 -0.10142,0.828548 -0.32599,2.067546 -0.49885,2.752356 l -0.3142,1.244216 3.21639,3.155491 3.21544,3.155489 -2.28252,3.491909 c -1.2555,1.920571 -2.33835,3.551061 -2.40626,3.623381 -0.1277,0.13599 -3.40178,-1.04051 -6.60874,-2.374337 l -1.83394,-0.762767 -0.62645,0.550077 c -0.81145,0.712477 -2.49482,1.852057 -3.46872,2.347277 l -0.76665,0.3896 0.12278,4.38811 c 0.0681,2.4137 0.0717,4.38907 0.009,4.38907 -0.0975,0 -7.04815,1.45508 -8.12268,1.70053 -0.32252,0.0737 -0.47623,-0.12662 -1.06923,-1.3902 -0.38112,-0.81208 -1.18544,-2.64095 -1.78754,-4.06424 l -1.09532,-2.58801 -1.78174,-0.3026 c -0.9799,-0.16636 -2.11263,-0.40349 -2.51743,-0.52688 l -0.7357,-0.22429 -3.1091,3.16613 c -1.73314,1.76519 -3.20883,3.12764 -3.3353,3.07912 -0.19638,-0.0754 -6.84807,-4.3437 -7.04475,-4.52055 -0.0971,-0.0873 1.26926,-3.77785 2.34631,-6.338044 l 0.8633,-2.052418 -0.8169,-1.039254 c -0.44925,-0.571807 -1.13545,-1.585862 -1.52555,-2.252536 l -0.70959,-1.212313 H 14.003143 9.2979436 L 8.4607239,88.837863 C 8.0005542,86.716807 7.6183645,84.811769 7.6090145,84.604437 c -0.0126,-0.310391 0.3566697,-0.549893 2.0920688,-1.359258 1.1591697,-0.540626 3.0890597,-1.380622 4.2885097,-1.865841 l 2.18102,-0.881682 0.19625,-1.345725 c 0.10796,-0.739894 0.32651,-1.909994 0.48627,-2.600574 l 0.291,-1.255815 -3.16034,-3.127458 c -1.73852,-1.72037 -3.16127,-3.189292 -3.16127,-3.263768 0,-0.111799 4.35991,-6.877413 4.60464,-7.145296 0.11135,-0.121882 1.51687,0.392049 5.23694,1.914177 l 3.29372,1.347657 0.47275,-0.378002 c 0.25982,-0.20782 1.15899,-0.83839 1.99828,-1.401796 l 1.52556,-1.024762 -9.8e-4,-4.668466 -9.7e-4,-4.667499 3.9463,-0.853646 c 2.16966,-0.468928 4.09723,-0.832516 4.28466,-0.809176 z m 2.32602,20.816198 a 10.061148,10.061148 0 0 0 -10.06104,10.061033 10.061148,10.061148 0 0 0 10.06104,10.062 10.061148,10.061148 0 0 0 10.06102,-10.062 10.061148,10.061148 0 0 0 -10.06102,-10.061033 z" /><path
       style="fill:#ffffff;fill-opacity:0;stroke-width:43.1739;stroke-dashoffset:20.512"
       d="m 28.986571,162.39076 c 4.090554,-6.76982 19.719665,-32.65298 34.731372,-57.51813 L 91.011936,59.663289 109.58383,59.561122 c 10.21455,-0.05619 18.57187,-0.06163 18.57182,-0.01209 -6e-5,0.04955 -5.25291,8.959546 -11.67302,19.800001 -6.42009,10.840453 -18.762755,31.684077 -27.428134,46.319217 -8.665395,14.63512 -15.688839,26.67573 -15.607665,26.7569 0.08115,0.0812 1.84322,-0.0366 3.915675,-0.26181 17.539254,-1.90562 31.822884,-8.57277 43.851504,-20.46842 11.40246,-11.27644 20.163,-27.21979 24.94182,-45.39174 1.39512,-5.305087 1.55313,-6.363991 1.56239,-10.471153 0.009,-3.996756 -0.11853,-4.939837 -1.01817,-7.527247 -1.62515,-4.674127 -3.75181,-7.654441 -7.7539,-10.866313 -4.58859,-3.682588 -11.27202,-6.4569 -19.64143,-8.153202 L 115.019,48.416641 69.013473,48.53854 c -44.397887,0.117639 -45.992026,0.09768 -45.617796,-0.571154 0.21328,-0.38118 3.967165,-6.604494 8.341965,-13.829591 l 7.954182,-13.136537 45.088619,0.03116 c 40.431127,0.02794 45.610927,0.09923 50.145547,0.690134 24.28557,3.164665 40.64095,14.483591 46.54973,32.215246 1.34477,4.035531 2.24658,9.374095 2.50854,14.849999 0.20995,4.388546 0.12515,5.768345 -0.57975,9.433798 -10.26668,53.385015 -50.97497,90.669755 -103.987383,95.242085 -2.408369,0.20772 -14.316921,0.47442 -26.463468,0.59268 -12.146539,0.11825 -24.18158,0.31134 -26.744536,0.42908 l -4.659921,0.21407 z"
       id="path1" /><path
       style="fill:#ffffff;fill-opacity:1;stroke-width:43.1739;stroke-dashoffset:20.512"
       d="m 28.986571,162.39076 c 4.090554,-6.76982 19.719665,-32.65298 34.731372,-57.51813 L 91.011936,59.663289 109.58383,59.561122 c 10.21455,-0.05619 18.57187,-0.06163 18.57182,-0.01209 -6e-5,0.04955 -5.25291,8.959546 -11.67302,19.800001 -6.42009,10.840453 -18.762755,31.684077 -27.428134,46.319217 -8.665395,14.63512 -15.688839,26.67573 -15.607665,26.7569 0.08115,0.0812 1.84322,-0.0366 3.915675,-0.26181 17.539254,-1.90562 31.822884,-8.57277 43.851504,-20.46842 11.40246,-11.27644 20.163,-27.21979 24.94182,-45.39174 1.39512,-5.305087 1.55313,-6.363991 1.56239,-10.471153 0.009,-3.996756 -0.11853,-4.939837 -1.01817,-7.527247 -1.62515,-4.674127 -3.75181,-7.654441 -7.7539,-10.866313 -4.58859,-3.682588 -11.27202,-6.4569 -19.64143,-8.153202 L 115.019,48.416641 69.013473,48.53854 c -44.397887,0.117639 -45.992026,0.09768 -45.617796,-0.571154 0.21328,-0.38118 3.967165,-6.604494 8.341965,-13.829591 l 7.954182,-13.136537 45.088619,0.03116 c 40.431127,0.02794 45.610927,0.09923 50.145547,0.690134 24.28557,3.164665 40.64095,14.483591 46.54973,32.215246 1.34477,4.035531 2.24658,9.374095 2.50854,14.849999 0.20995,4.388546 0.12515,5.768345 -0.57975,9.433798 -10.26668,53.385015 -50.97497,90.669755 -103.987383,95.242085 -2.408369,0.20772 -14.316921,0.47442 -26.463468,0.59268 -12.146539,0.11825 -24.18158,0.31134 -26.744536,0.42908 l -4.659921,0.21407 z"
       id="path2" /><path
       style="fill:#ffffff;fill-opacity:1;stroke-width:43.1739;stroke-dashoffset:20.512"
       d="m 40.218459,111.7195 c -0.187743,-0.4712 -0.941068,-2.2191 -1.674053,-3.88422 l -1.332704,-3.0275 -2.540116,-0.51337 -2.540119,-0.51337 -3.223205,3.09441 c -3.047293,2.92552 -3.268776,3.06489 -4.058137,2.55362 -0.45921,-0.29743 -1.991513,-1.26848 -3.405118,-2.15787 -1.413608,-0.8894 -2.565564,-1.8159 -2.559905,-2.05891 0.0057,-0.24301 0.683533,-2.13988 1.506387,-4.21528 L 21.887591,97.223578 20.300443,94.80954 18.713298,92.395493 H 14.072662 9.4320276 L 8.8250469,89.634915 C 8.4912059,88.116599 8.1096832,86.316387 7.9772112,85.634447 l -0.2408527,-1.23989 3.3798045,-1.52091 c 5.574906,-2.508702 5.180457,-2.156156 5.727256,-5.118843 l 0.487605,-2.641955 -3.035797,-3.023592 c -1.66969,-1.662978 -3.035797,-3.149801 -3.035797,-3.304056 0,-0.277516 3.622987,-5.996765 4.171534,-6.585185 0.15643,-0.167802 2.026812,0.389072 4.156403,1.237498 2.129589,0.848426 4.041876,1.542593 4.249521,1.542593 0.207647,0 1.225523,-0.556874 2.261946,-1.237499 l 1.884405,-1.237501 0.11021,-4.759614 0.110209,-4.759616 3.993312,-0.828082 c 2.988103,-0.619635 4.064563,-0.715483 4.276367,-0.38077 0.155681,0.246023 0.980499,2.094138 1.83293,4.106924 l 1.549871,3.65961 2.931454,0.594718 2.931451,0.594717 3.087267,-3.290721 3.087269,-3.290723 3.08533,2.025578 c 1.696932,1.114068 3.273534,2.252348 3.50356,2.529512 0.313904,0.37823 0.02982,1.497367 -1.138875,4.486495 l -1.557108,3.982558 1.629744,2.363848 1.629738,2.363849 4.04695,-0.263695 c 2.435172,-0.15867 4.13549,-0.120398 4.269317,0.0961 0.12229,0.197882 0.587983,2.047452 1.034891,4.110157 0.955807,4.411622 1.175438,4.044177 -3.577934,5.986605 -3.267718,1.335333 -3.344429,1.429935 -3.989406,4.919821 l -0.39969,2.162654 3.193603,3.168113 3.193573,3.168112 -2.29817,3.507232 -2.2982,3.507241 -2.539394,-0.97323 c -1.396662,-0.53528 -3.2726,-1.25278 -4.168752,-1.594457 -1.325549,-0.505377 -1.751549,-0.532107 -2.284616,-0.14334 -0.360386,0.26284 -1.469144,1.012637 -2.463903,1.666237 l -1.808655,1.18835 v 4.29628 c 0,4.87847 0.416097,4.344 -4.118162,5.2897 -3.693703,0.77039 -4.214524,0.73929 -4.618961,-0.27577 z m 1.354838,-19.886583 c 7.435935,-2.208236 9.499727,-12.363931 3.547843,-17.458523 -1.701395,-1.45633 -4.53355,-2.540441 -6.636713,-2.540441 -2.069557,0 -4.925263,1.075507 -6.551292,2.467324 -4.088212,3.49936 -4.758552,9.722823 -1.50703,13.99133 2.586115,3.394975 6.959455,4.783931 11.147192,3.54031 z"
       id="path3" /></g></svg>
