<?xml version="1.0" encoding="UTF-8" standalone="no"?>
<!-- Created with Inkscape (http://www.inkscape.org/) -->

<svg
   width="200mm"
   height="200mm"
   viewBox="0 0 200 200"
   version="1.1"
   id="svg1"
   inkscape:version="1.3.1 (91b66b0783, 2023-11-16)"
   sodipodi:docname="dconf.svg"
   xml:space="preserve"
   xmlns:inkscape="http://www.inkscape.org/namespaces/inkscape"
   xmlns:sodipodi="http://sodipodi.sourceforge.net/DTD/sodipodi-0.dtd"
   xmlns="http://www.w3.org/2000/svg"
   xmlns:svg="http://www.w3.org/2000/svg"><sodipodi:namedview
     id="namedview1"
     pagecolor="#ffffff"
     bordercolor="#000000"
     borderopacity="0.25"
     inkscape:showpageshadow="2"
     inkscape:pageopacity="0.0"
     inkscape:pagecheckerboard="0"
     inkscape:deskcolor="#d1d1d1"
     inkscape:document-units="mm"
     inkscape:zoom="0.69486532"
     inkscape:cx="646.16838"
     inkscape:cy="316.60812"
     inkscape:window-width="1920"
     inkscape:window-height="976"
     inkscape:window-x="-8"
     inkscape:window-y="-8"
     inkscape:window-maximized="1"
     inkscape:current-layer="layer1"
     showguides="true" /><defs
     id="defs1" /><g
     inkscape:label="Слой 1"
     inkscape:groupmode="layer"
     id="layer1"><path
       id="rect2971-7-0-9-9"
       style="fill:#547586;fill-opacity:1;stroke:none;stroke-width:16.4099;stroke-linecap:round;stroke-linejoin:round;stroke-miterlimit:4;stroke-dasharray:none;stroke-dashoffset:0;stroke-opacity:1;paint-order:normal"
       d="m 24.03624,4.147127 c -10.548772,0 -19.0412315,8.49245 -19.0412315,19.041233 v 151.59706 c 0,10.54879 8.4924595,19.04123 19.0412315,19.04123 h 150.88457 c 10.54877,0 19.04123,-8.49244 19.04123,-19.04123 V 23.18836 c 0,-10.548783 -8.49246,-19.041233 -19.04123,-19.041233 z m 15.386892,15.698189 81.028678,0.114081 c 0,0 66.57363,-4.173757 63.49076,54.323971 C 174.74095,130.76701 129.3568,174.41599 65.441449,173.24151 L 21.137904,173.7887 90.773374,58.446933 128.36472,58.398592 73.266374,151.43825 C 123.12986,148.726 142.3544,104.60724 147.23678,78.981802 151.25575,48.641427 110.54644,47.561255 110.54644,47.561255 L 22.485563,47.851281 Z M 35.96601,50.335845 h 9.73e-4 c 0.365515,0.0478 0.935356,1.223708 2.801654,5.78217 l 1.027661,2.511632 1.292565,0.130506 c 0.710694,0.07208 1.967058,0.292292 2.791982,0.488212 l 1.499437,0.355766 3.208681,-3.247334 3.208663,-3.248303 3.574084,2.33375 c 3.036307,1.982556 3.56718,2.394642 3.527707,2.736887 -0.02555,0.221578 -0.620933,1.825867 -1.322535,3.565398 -0.701601,1.739524 -1.398732,3.485955 -1.549704,3.88056 l -0.27553,0.717333 0.931952,1.229714 c 0.512184,0.676456 1.168082,1.644609 1.457867,2.152 l 0.526889,0.923253 4.30399,-0.06381 4.304982,-0.06381 0.174975,0.422472 c 0.09677,0.232335 0.508555,2.037034 0.914553,4.010105 0.405998,1.973071 0.77473,3.718506 0.819816,3.878627 0.0632,0.22421 -0.424275,0.519026 -2.120107,1.282885 -1.211167,0.545573 -2.968491,1.295076 -3.9057,1.665722 -0.937208,0.370642 -1.726344,0.68978 -1.752722,0.708632 -0.02651,0.01882 -0.130618,0.711503 -0.232015,1.540043 -0.101415,0.828548 -0.325985,2.067546 -0.498846,2.752356 l -0.314198,1.244216 3.216389,3.155491 3.215435,3.155493 -2.282511,3.491924 c -1.255504,1.920587 -2.338354,3.551075 -2.406263,3.623395 -0.1277,0.13599 -3.401784,-1.04051 -6.608745,-2.374346 l -1.833933,-0.762771 -0.626452,0.550084 c -0.811454,0.712482 -2.494826,1.852063 -3.468721,2.347283 l -0.766649,0.3896 0.12278,4.38811 c 0.0681,2.4137 0.07174,4.38907 0.0088,4.38907 -0.09751,0 -7.048155,1.45508 -8.12268,1.70053 -0.322524,0.0737 -0.476228,-0.12662 -1.06923,-1.3902 -0.381117,-0.81208 -1.185443,-2.64095 -1.787537,-4.06424 l -1.095328,-2.58801 -1.781738,-0.3026 c -0.9799,-0.16636 -2.112625,-0.40349 -2.517426,-0.52688 l -0.735706,-0.22429 -3.109099,3.16613 c -1.733135,1.76519 -3.208831,3.12764 -3.335297,3.07912 -0.196376,-0.0754 -6.848074,-4.3437 -7.04475,-4.52055 -0.09711,-0.0873 1.269255,-3.77785 2.346305,-6.338051 L 21.544033,96.31669 20.727135,95.277426 C 20.277884,94.705621 19.591679,93.691559 19.201582,93.024885 L 18.491993,91.812572 H 13.785821 9.0806218 L 8.2434068,87.95618 C 7.7832305,85.835124 7.4010473,83.930086 7.3916933,83.722754 7.3791029,83.412363 7.748359,83.172861 9.4837578,82.363496 10.642935,81.82287 12.572821,80.982874 13.772277,80.497655 l 2.181019,-0.881682 0.196246,-1.345725 c 0.107963,-0.739894 0.326508,-1.909994 0.486274,-2.600574 l 0.291001,-1.255815 -3.16034,-3.127458 c -1.738523,-1.72037 -3.161276,-3.189292 -3.161276,-3.263768 0,-0.111799 4.359908,-6.877413 4.604644,-7.145296 0.111349,-0.121882 1.516872,0.392049 5.236934,1.914177 l 3.293727,1.347657 0.472748,-0.378002 c 0.259815,-0.20782 1.158991,-0.83839 1.998282,-1.401796 l 1.525553,-1.024762 -9.73e-4,-4.668466 -9.73e-4,-4.667499 3.946296,-0.853646 c 2.169664,-0.468928 4.097231,-0.832516 4.284665,-0.809176 z m 2.326025,20.816198 a 10.061148,10.061148 0 0 0 -10.06104,10.061033 10.061148,10.061148 0 0 0 10.06104,10.062 10.061148,10.061148 0 0 0 10.061022,-10.062 10.061148,10.061148 0 0 0 -10.061022,-10.061033 z" /></g></svg>
