<?xml version="1.0" encoding="UTF-8" standalone="no"?>
<!-- Created with Inkscape (http://www.inkscape.org/) -->

<svg
   width="200mm"
   height="200mm"
   viewBox="0 0 200 200"
   version="1.1"
   id="svg1"
   inkscape:version="1.3.1 (91b66b0783, 2023-11-16)"
   sodipodi:docname="debug.svg"
   xml:space="preserve"
   xmlns:inkscape="http://www.inkscape.org/namespaces/inkscape"
   xmlns:sodipodi="http://sodipodi.sourceforge.net/DTD/sodipodi-0.dtd"
   xmlns="http://www.w3.org/2000/svg"
   xmlns:svg="http://www.w3.org/2000/svg"><sodipodi:namedview
     id="namedview1"
     pagecolor="#ffffff"
     bordercolor="#000000"
     borderopacity="0.25"
     inkscape:showpageshadow="2"
     inkscape:pageopacity="0.0"
     inkscape:pagecheckerboard="0"
     inkscape:deskcolor="#d1d1d1"
     inkscape:document-units="mm"
     inkscape:zoom="0.49134398"
     inkscape:cx="358.20119"
     inkscape:cy="591.23549"
     inkscape:window-width="1488"
     inkscape:window-height="999"
     inkscape:window-x="383"
     inkscape:window-y="15"
     inkscape:window-maximized="0"
     inkscape:current-layer="layer1"
     showguides="true" /><defs
     id="defs1" /><g
     inkscape:label="Слой 1"
     inkscape:groupmode="layer"
     id="layer1"><g
       id="g6"><path
         id="path5"
         style="fill:#547586;fill-opacity:1;stroke-width:17.3625;stroke-dashoffset:20.512"
         d="m 58.038585,14.995142 c -13.28463,0 -19.84892,6.44335 -19.84892,21.91184 V 68.01894 l 11.33833,-6.348501 V 40.562572 c 0,-13.33598 2.16111,-14.2291 13.224,-14.2291 h 49.065725 v 24.29309 c 0,10.88136 8.21274,18.99832 17.8382,18.99832 h 32.7887 v 88.860898 c 0,5.50042 -4.88046,9.66177 -10.18558,9.66177 l -96.590839,0 c -5.195938,0.14745 -6.233552,-2.47732 -6.140206,-5.85607 v -6.14726 l -11.33833,12.00333 c 0.233086,7.39417 4.513192,10.66349 11.33833,11.33884 h 97.784575 c 19.42925,0 26.46986,-6.51367 26.46986,-23.61183 V 58.140312 l -50.55558,-43.14517 z m 65.117475,15.59285 32.28433,27.55232 h -25.21448 c -3.97735,-0.002 -7.01182,-2.91593 -7.06985,-7.7494 z"
         sodipodi:nodetypes="ssccsscssccccccccscccsccccc" /><g
         transform="matrix(2.565116,0,0,2.565116,7927.1842,6934.2525)"
         id="g4951-5-4"><path
           sodipodi:nodetypes="cc"
           inkscape:connector-curvature="0"
           id="path828-4-1-9-0-21-8-3-1-8-5"
           d="m -3084.5171,-2637.318 9.0047,-9.1977"
           style="fill:none;stroke:#547586;stroke-width:8;stroke-linecap:round;stroke-linejoin:miter;stroke-miterlimit:4;stroke-dasharray:none;stroke-opacity:1" /><circle
           style="opacity:1;fill:none;fill-opacity:1;stroke:#df601c;stroke-width:5;stroke-linecap:butt;stroke-linejoin:round;stroke-miterlimit:4;stroke-dasharray:none;stroke-dashoffset:0;stroke-opacity:1;paint-order:normal"
           id="path4932-8-0"
           cx="-3063.9778"
           cy="-2660.6045"
           r="15.234363" /></g><path
         style="opacity:1;fill:#df601c;fill-opacity:1;stroke:none;stroke-width:18.2137;stroke-dashoffset:20.512;stroke-opacity:1"
         d="m 62.29392,39.745142 v 11.458393 h 39.05757 V 39.745142 Z"
         id="path6" /><path
         style="fill:#df601c;fill-opacity:1;stroke:none;stroke-width:18.2137;stroke-dashoffset:20.512;stroke-opacity:1"
         d="m 114.49797,133.07339 v 11.4584 h 39.05757 v -11.4584 z"
         id="path6-4" /><path
         style="fill:#547586;fill-opacity:1;stroke:none;stroke-width:18.2137;stroke-dashoffset:20.512;stroke-opacity:1"
         d="M 48.893761,90.788022 V 102.24641 H 87.951335 V 90.788022 Z"
         id="path6-8" /><path
         style="fill:#547586;fill-opacity:1;stroke:none;stroke-width:18.2137;stroke-dashoffset:20.512;stroke-opacity:1"
         d="m 48.893763,118.14044 v 11.4584 h 39.05757 v -11.4584 z"
         id="path6-9" /><path
         style="fill:#df601c;fill-opacity:1;stroke:none;stroke-width:18.2137;stroke-dashoffset:20.512;stroke-opacity:1"
         d="m 116.18888,78.266497 v 11.458388 h 39.05757 V 78.266497 Z"
         id="path6-8-2" /><path
         style="fill:#df601c;fill-opacity:1;stroke:none;stroke-width:18.2137;stroke-dashoffset:20.512;stroke-opacity:1"
         d="m 116.18888,105.61892 v 11.4584 h 39.05757 v -11.4584 z"
         id="path6-9-7" /></g></g></svg>
