<?xml version="1.0" encoding="UTF-8" standalone="no"?>
<!-- Created with Inkscape (http://www.inkscape.org/) -->

<svg
   width="200mm"
   height="200mm"
   viewBox="0 0 200 200"
   version="1.1"
   id="svg1"
   inkscape:version="1.3.1 (91b66b0783, 2023-11-16)"
   sodipodi:docname="del_1.svg"
   xmlns:inkscape="http://www.inkscape.org/namespaces/inkscape"
   xmlns:sodipodi="http://sodipodi.sourceforge.net/DTD/sodipodi-0.dtd"
   xmlns="http://www.w3.org/2000/svg"
   xmlns:svg="http://www.w3.org/2000/svg">
  <sodipodi:namedview
     id="namedview1"
     pagecolor="#ffffff"
     bordercolor="#000000"
     borderopacity="0.25"
     inkscape:showpageshadow="2"
     inkscape:pageopacity="0.0"
     inkscape:pagecheckerboard="0"
     inkscape:deskcolor="#d1d1d1"
     inkscape:document-units="mm"
     inkscape:zoom="0.69486532"
     inkscape:cx="467.71654"
     inkscape:cy="492.18171"
     inkscape:window-width="1827"
     inkscape:window-height="960"
     inkscape:window-x="2"
     inkscape:window-y="0"
     inkscape:window-maximized="0"
     inkscape:current-layer="layer1" />
  <defs
     id="defs1" />
  <g
     inkscape:label="Слой 1"
     inkscape:groupmode="layer"
     id="layer1">
    <g
       transform="matrix(3.3727196,0,0,3.3737671,11537.105,4841.5282)"
       id="g3820-4-8-4-7-3-2"
       style="stroke-width:0.523746" />
    <g
       id="g5608"
       transform="matrix(1.6759308,0,0,1.6759308,3148.8846,-2913.0285)"
       style="stroke-width:8.60058">
      <path
         transform="matrix(0.26458333,0,0,0.26458333,0,87)"
         id="path5602"
         d="m -6917.1602,6267.5117 c -4.9564,0 -6.8375,0.5007 -10.2304,2.7461 -10.7626,7.1222 -11.3381,22.8886 -1.125,30.7969 1.886,1.4608 43.0278,20.5908 91.4277,42.5117 48.3999,21.9213 96.1003,43.5868 106,48.1445 17.4365,8.016 18.2081,8.2764 24.6113,8.0157 5.4441,-0.2227 7.2551,-0.7609 10.2598,-3.0528 7.7102,-5.8809 9.9858,-16.9704 5.1699,-25.1875 -1.3523,-2.3078 -3.5396,-4.9052 -4.8613,-5.7715 -1.3221,-0.8662 -38.803,-18.0799 -83.291,-38.2539 -44.4881,-20.1739 -92.3636,-41.9149 -106.3887,-48.3125 -23.5842,-10.7588 -25.9555,-11.6367 -31.5723,-11.6367 z m 95.3145,18.1738 c -6.7298,-0.032 -10.4388,9.4659 -5.4922,14.0645 1.2374,1.1505 12.5999,6.8302 25.25,12.623 13.1441,6.0193 24.3536,10.5462 26.1602,10.584 2.338,0.037 3.8353,-0.752 5.75,-3.0273 3.185,-3.7833 3.2909,-7.0297 0.3398,-10.3262 -2.7428,-3.064 -48.0472,-23.918 -52.0078,-23.918 z"
         style="fill:#547586;fill-opacity:1;stroke-width:8.60058"
         inkscape:connector-curvature="0" />
      <path
         transform="matrix(0.26458333,0,0,0.26458333,0,87)"
         id="path5600"
         d="m -7025.584,6260.1328 c -12.885,-0.3836 -28.5163,1.9891 -46.3301,7.0625 -8.0919,2.3044 -10.3206,4.1965 -9.1777,7.7969 0.7219,2.2749 1.4671,2.54 12.625,4.4805 30.5813,5.3178 58.9762,23.9751 69.5781,45.7187 5.3707,11.0154 5.5591,10.6319 -7.6601,15.416 -12.0461,4.3593 -15.0959,6.6866 -13.2012,10.0723 0.6066,1.084 13.5787,7.0149 32.832,15.0098 17.5064,7.2691 32.7889,13.2297 33.959,13.2675 1.1702,0.028 2.5648,-0.5136 3.0996,-1.2011 2.3297,-2.9957 30.3598,-63.0568 30.0801,-64.4571 -0.1697,-0.8541 -1.2084,-2.1339 -2.3086,-2.8418 -1.7276,-1.1119 -3.6301,-0.6756 -13.9766,3.1973 -6.7014,2.5085 -12.1254,4.0396 -12.3144,3.4746 -1.3376,-4.0131 -15.7694,-23.6611 -22.8262,-31.0762 -13.5235,-14.2114 -25.5699,-21.2012 -42.4297,-24.6172 -3.6639,-0.7423 -7.6542,-1.1748 -11.9492,-1.3027 z"
         style="fill:#df601c;fill-opacity:1;stroke-width:8.60058"
         inkscape:connector-curvature="0" />
      <path
         transform="matrix(0.26458333,0,0,0.26458333,0,87)"
         id="path5598"
         d="m -6756.0684,6389.0645 c -11.9296,-1.1432 -41.1226,-1.0508 -120.2187,-1.0508 -118.6118,0.01 -122.8969,0.07 -125.6582,1.8906 -4.3011,2.8358 -6.6348,7.0203 -6.6348,11.9355 0,2.383 7.6693,60.433 17.0528,129 12.726,92.9934 17.5041,125.4269 18.8046,127.6622 0.9593,1.6482 3.2488,4.0106 5.0879,5.25 l 3.3438,2.2539 h 87.9512 c 80.0855,0 88.2644,-0.1495 91.4687,-1.67 3.891,-1.8463 6.8053,-5.9078 7.6738,-10.6972 2.7958,-15.4231 34.4314,-252.7295 33.9453,-254.6328 -0.315,-1.2338 -1.3429,-3.221 -2.3027,-4.7247 z m -120.7304,27.0136 c 4.9347,-0.4839 10.0478,1.6856 12.7187,6.2071 2.0954,3.547 2.1282,11.3746 0.5918,136.875 -0.8217,67.144 -0.4393,63.645 -7.4023,67.8906 -1.7575,1.0719 -4.7724,1.9472 -6.6973,1.9472 -4.1144,0 -9.2012,-2.8439 -11.5801,-6.4746 -1.567,-2.3913 -1.6359,-8.6453 -0.9492,-86.2968 0.4071,-46.0456 1.0458,-90.3649 1.4199,-98.4864 l 0.6817,-14.7656 3.0918,-3.0937 c 2.2664,-2.2665 5.1641,-3.5124 8.125,-3.8028 z m -78.0879,1.9317 c 4.8835,0 9.9271,3.1001 11.7969,7.2402 1.5329,3.3933 28.7001,183.1162 28.7871,190.4277 0.057,4.8949 -2.1149,8.6458 -6.5879,11.3731 -6.1743,3.7648 -14.8395,1.4455 -18.0899,-4.8399 -1.988,-3.8449 -29.8298,-190.4453 -28.9492,-194.0234 1.5874,-6.4483 6.374,-10.1777 13.043,-10.1777 z m 157.2129,0.096 c 5.0993,0.2645 10.1303,3.1301 11.9433,8.4336 1.2624,3.6926 0.3734,10.5523 -12.8183,98.9668 -9.0732,60.8088 -14.7085,95.8282 -15.6602,97.2988 -0.8171,1.2639 -2.9241,3.1746 -4.6816,4.2461 -4.0558,2.4729 -9.3125,2.487 -13.3301,0.037 -4.5649,-2.7833 -6.3654,-5.91 -6.3691,-11.0547 -0.01,-6.5866 26.9985,-186.9317 28.5625,-190.7559 2.0863,-5.1012 7.2541,-7.4364 12.3535,-7.1718 z"
         style="fill:#547586;fill-opacity:1;stroke-width:8.60058"
         inkscape:connector-curvature="0" />
      <path
         transform="matrix(0.26458333,0,0,0.26458333,0,87)"
         id="path5593"
         d="m -6756.0684,6389.0645 10.5137,5.2167 c -0.1099,-0.1721 -0.1548,-0.3847 -0.2637,-0.541 -1.742,-2.5002 -1.9346,-3.879 -10.25,-4.6757 z"
         style="fill:#000000;stroke-width:8.60058"
         inkscape:connector-curvature="0" />
    </g>
  </g>
</svg>
