<?xml version="1.0" encoding="UTF-8" standalone="no"?>
<!-- Created with Inkscape (http://www.inkscape.org/) -->

<svg
   width="200mm"
   height="200mm"
   viewBox="0 0 200 200"
   version="1.1"
   id="svg1"
   inkscape:version="1.3.1 (91b66b0783, 2023-11-16)"
   sodipodi:docname="dep_logo_g.svg"
   xmlns:inkscape="http://www.inkscape.org/namespaces/inkscape"
   xmlns:sodipodi="http://sodipodi.sourceforge.net/DTD/sodipodi-0.dtd"
   xmlns="http://www.w3.org/2000/svg"
   xmlns:svg="http://www.w3.org/2000/svg">
  <sodipodi:namedview
     id="namedview1"
     pagecolor="#ffffff"
     bordercolor="#000000"
     borderopacity="0.25"
     inkscape:showpageshadow="2"
     inkscape:pageopacity="0.0"
     inkscape:pagecheckerboard="0"
     inkscape:deskcolor="#d1d1d1"
     inkscape:document-units="mm"
     inkscape:zoom="0.69486532"
     inkscape:cx="369.85584"
     inkscape:cy="397.19927"
     inkscape:window-width="1920"
     inkscape:window-height="976"
     inkscape:window-x="-8"
     inkscape:window-y="-8"
     inkscape:window-maximized="1"
     inkscape:current-layer="layer1" />
  <defs
     id="defs1" />
  <g
     inkscape:label="Слой 1"
     inkscape:groupmode="layer"
     id="layer1">
    <g
       id="g16-9-1-6-1-8"
       transform="matrix(0.73682352,0,0,0.73682352,-2554.1908,-570.7555)"
       style="fill:#cccccc">
      <path
         sodipodi:nodetypes="ccccc"
         inkscape:connector-curvature="0"
         id="path940-56-30-39-9-4-9-5-6"
         d="m 3575.511,883.6331 h 69.9077 l -3.9948,14.74977 h -69.9023 z"
         style="fill:#cccccc;fill-opacity:1;stroke:none;stroke-width:2.65156px;stroke-linecap:butt;stroke-linejoin:miter;stroke-opacity:1" />
      <path
         sodipodi:nodetypes="ccccc"
         inkscape:connector-curvature="0"
         id="path940-4-0-1-1-7-9-5-8-8"
         d="m 3563.0587,929.54753 h 69.8636 l -3.9625,14.80024 h -69.9066 z"
         style="fill:#cccccc;fill-opacity:1;stroke:none;stroke-width:2.65156px;stroke-linecap:butt;stroke-linejoin:miter;stroke-opacity:1" />
      <path
         sodipodi:nodetypes="csszzzzzccccccsczscc"
         inkscape:connector-curvature="0"
         id="path978-6-4-4-6-0-1-8-8"
         d="m 3542.7735,883.61027 -39.3346,-0.004 c -4.51,0 -13.6375,3.4118 -17.2512,6.17624 -2.8911,2.21048 -5.3463,4.95882 -7.5686,8.56817 -2.2223,3.60826 -3.7318,7.32389 -4.319,11.8404 -0.5797,4.51758 -0.5368,9.30463 0.161,12.46092 0.6979,3.15737 1.576,5.45589 3.3453,8.27615 1.7692,2.82242 4.1858,5.97871 7.4119,8.55421 3.2282,2.57549 12.5597,4.85361 12.5597,4.85361 h 28.6332 24.0308 l 30.3745,-111.84988 h -15.7954 l -26.1146,97.18706 c 0,0 -39.1166,0.22545 -41.6953,-0.22545 -0.8696,-0.16103 -4.6862,-1.26466 -6.4769,-4.20947 -4.553,-9.09313 0.3972,-20.32912 4.859,-23.29432 4.4564,-2.96412 8.6304,-3.49983 10.1774,-3.51272 11.2296,-0.10735 33.0531,-0.10735 33.0531,-0.10735 z"
         style="fill:#cccccc;fill-opacity:1;stroke:none;stroke-width:2.72862px;stroke-linecap:butt;stroke-linejoin:miter;stroke-opacity:1" />
      <path
         sodipodi:nodetypes="csszzzzzccccccsczscc"
         inkscape:connector-curvature="0"
         id="path978-6-4-4-9-5-02-9-5-9"
         d="m 3661.4517,944.36282 h 39.3346 c 4.51,0 13.6375,-3.4118 17.2512,-6.1762 2.8911,-2.2105 5.3463,-4.9589 7.5686,-8.5682 2.2223,-3.6083 3.7318,-7.32391 4.319,-11.84042 0.5797,-4.51758 0.5368,-9.30463 -0.161,-12.46092 -0.6979,-3.15737 -1.576,-5.45589 -3.3453,-8.27615 -1.7692,-2.82242 -4.1858,-5.97871 -7.4119,-8.55421 -3.2282,-2.57549 -12.5597,-4.85361 -12.5597,-4.85361 h -28.6332 -24.0308 l -30.3745,111.84991 h 15.7954 l 26.1146,-97.18709 c 0,0 39.1166,-0.22545 41.6953,0.22545 0.8696,0.16103 4.6862,1.26466 6.4769,4.20947 4.553,9.09313 -0.3972,20.32912 -4.859,23.29437 -4.4564,2.9641 -8.6304,3.4998 -10.1774,3.5127 -11.2296,0.1073 -33.0531,0.1073 -33.0531,0.1073 z"
         style="fill:#cccccc;fill-opacity:1;stroke:none;stroke-width:2.72862px;stroke-linecap:butt;stroke-linejoin:miter;stroke-opacity:1" />
      <path
         sodipodi:nodetypes="ccccc"
         inkscape:connector-curvature="0"
         id="path940-4-0-3-13-51-0-8-5-7-7"
         d="m 3569.338,906.36379 h 69.8636 l -3.9625,14.80024 h -69.9066 z"
         style="fill:#cccccc;fill-opacity:1;stroke:none;stroke-width:2.65156px;stroke-linecap:butt;stroke-linejoin:miter;stroke-opacity:1" />
    </g>
  </g>
</svg>
