<?xml version="1.0" encoding="UTF-8" standalone="no"?>
<!-- Created with Inkscape (http://www.inkscape.org/) -->

<svg
   width="200mm"
   height="200mm"
   viewBox="0 0 200 200"
   version="1.1"
   id="svg1"
   inkscape:version="1.3.1 (91b66b0783, 2023-11-16)"
   sodipodi:docname="dep_t-module.svg"
   xml:space="preserve"
   xmlns:inkscape="http://www.inkscape.org/namespaces/inkscape"
   xmlns:sodipodi="http://sodipodi.sourceforge.net/DTD/sodipodi-0.dtd"
   xmlns="http://www.w3.org/2000/svg"
   xmlns:svg="http://www.w3.org/2000/svg"><sodipodi:namedview
     id="namedview1"
     pagecolor="#ffffff"
     bordercolor="#000000"
     borderopacity="0.25"
     inkscape:showpageshadow="2"
     inkscape:pageopacity="0.0"
     inkscape:pagecheckerboard="0"
     inkscape:deskcolor="#d1d1d1"
     inkscape:document-units="mm"
     inkscape:zoom="0.69486532"
     inkscape:cx="463.39915"
     inkscape:cy="414.46881"
     inkscape:window-width="1920"
     inkscape:window-height="976"
     inkscape:window-x="-8"
     inkscape:window-y="-8"
     inkscape:window-maximized="1"
     inkscape:current-layer="layer1"
     showguides="true" /><defs
     id="defs1" /><g
     inkscape:label="Слой 1"
     inkscape:groupmode="layer"
     id="layer1"><g
       id="g4"
       transform="matrix(2.9458999,0,0,2.9458999,-817.50938,-79.768892)"><rect
         transform="matrix(-9.5173558e-5,1,1,2.1669705e-5,0,0)"
         y="288.22226"
         x="34.479954"
         height="12.784108"
         width="4.409894"
         id="rect4337-8-9-4-4-9-5-0-3"
         style="fill:#df601c;fill-opacity:1;stroke:none;stroke-width:0.585337;stroke-linecap:square;stroke-linejoin:round;stroke-miterlimit:4;stroke-dasharray:none;stroke-dashoffset:0;stroke-opacity:0.995413;paint-order:normal" /><path
         id="rect4337-8-9-4-44-9-6"
         style="fill:#df601c;fill-opacity:1;stroke:none;stroke-width:2.39242;stroke-linecap:square;stroke-linejoin:round;stroke-miterlimit:4;stroke-dasharray:none;stroke-dashoffset:0;stroke-opacity:0.995413;paint-order:normal"
         d="m 38.697505,318.82715 44.299105,-3.4e-4 -1.99e-4,21.26072 -44.299105,-1.8e-4 z m 7.813652,6.55734 -3.55e-4,2.71147 5.819283,9e-5 8.71e-4,-2.71147 z m 0.03307,7.9096 5.8198,9e-5 3.54e-4,-2.71146 -5.819283,-6.1e-4 z m 8.092176,-5.19852 5.8198,6e-4 8.71e-4,-2.71146 -5.819799,-6.1e-4 z m 0.03343,5.19865 5.8198,9e-5 8.71e-4,-2.71146 -5.819799,-1e-4 z m 8.092693,-5.19801 5.8198,9e-5 3.55e-4,-2.71146 -5.819283,-9e-5 z m 0.03343,5.19813 5.8198,1e-4 8.71e-4,-2.71147 -5.819799,-9e-5 z m 8.092176,-5.19852 5.8198,6.1e-4 8.72e-4,-2.71198 -5.8198,-9e-5 z m 0.03394,5.19865 5.8198,9e-5 3.55e-4,-2.71146 -5.819283,-9e-5 z"
         transform="matrix(-1.5756097e-5,1,0.99999999,1.3089428e-4,0,0)" /><rect
         transform="matrix(0.24988099,0.96827656,1,2.400327e-5,0,0)"
         y="305.98685"
         x="30.633301"
         height="21.260376"
         width="8.3897028"
         id="rect4337-8-9-4-4-5-4-1"
         style="fill:#df601c;fill-opacity:1;stroke:none;stroke-width:1.04116;stroke-linecap:square;stroke-linejoin:round;stroke-miterlimit:4;stroke-dasharray:none;stroke-dashoffset:0;stroke-opacity:0.995413;paint-order:normal" /><rect
         transform="matrix(-0.25044337,0.96813125,1,2.4003568e-5,0,0)"
         y="337.54248"
         x="86.695923"
         height="21.260111"
         width="8.3909626"
         id="rect4337-8-9-4-4-0-7-4-1"
         style="fill:#df601c;fill-opacity:1;stroke:none;stroke-width:1.04123;stroke-linecap:square;stroke-linejoin:round;stroke-miterlimit:4;stroke-dasharray:none;stroke-dashoffset:0;stroke-opacity:0.995413;paint-order:normal" /><path
         sodipodi:nodetypes="ccccccccccccccccc"
         inkscape:connector-curvature="0"
         id="path6359-4-9-2"
         d="m 312.6636,29.64401 -10.4166,2.06678 -3.0456,5.59378 -8.7019,1.39846 -2.4655,-4.19535 -4.2785,0.87403 -0.01,40.446689 3.6231,1.9261 1.9404,-0.3135 11.5511,4.81186 1.5931,3.54001 10.3967,5.85599 2.1805,-8.66627 2.3602,0.0309 0.062,-44.177919 -2.5811,-0.0714 z"
         style="fill:#547586;fill-opacity:1;stroke:none;stroke-width:0.105833px;stroke-linecap:butt;stroke-linejoin:miter;stroke-opacity:1" /></g></g></svg>
