<?xml version="1.0" encoding="UTF-8" standalone="no"?>
<!-- Created with Inkscape (http://www.inkscape.org/) -->

<svg
   width="200mm"
   height="200mm"
   viewBox="0 0 200 200"
   version="1.1"
   id="svg1"
   inkscape:version="1.3.1 (91b66b0783, 2023-11-16)"
   sodipodi:docname="dep_rtu3-m1.svg"
   xml:space="preserve"
   xmlns:inkscape="http://www.inkscape.org/namespaces/inkscape"
   xmlns:sodipodi="http://sodipodi.sourceforge.net/DTD/sodipodi-0.dtd"
   xmlns="http://www.w3.org/2000/svg"
   xmlns:svg="http://www.w3.org/2000/svg"><sodipodi:namedview
     id="namedview1"
     pagecolor="#ffffff"
     bordercolor="#000000"
     borderopacity="0.25"
     inkscape:showpageshadow="2"
     inkscape:pageopacity="0.0"
     inkscape:pagecheckerboard="0"
     inkscape:deskcolor="#d1d1d1"
     inkscape:document-units="mm"
     inkscape:zoom="0.98268796"
     inkscape:cx="378.04473"
     inkscape:cy="412.6437"
     inkscape:window-width="1488"
     inkscape:window-height="1041"
     inkscape:window-x="406"
     inkscape:window-y="0"
     inkscape:window-maximized="0"
     inkscape:current-layer="layer1"
     showguides="true" /><defs
     id="defs1" /><g
     inkscape:label="Слой 1"
     inkscape:groupmode="layer"
     id="layer1"><g
       id="g1"><path
         id="rect1060-8-5-32-2"
         style="fill:#547586;fill-opacity:1;stroke:none;stroke-width:5.18755;stroke-linecap:round;stroke-linejoin:round;stroke-miterlimit:4;stroke-dasharray:none;stroke-dashoffset:0;stroke-opacity:1;paint-order:normal"
         d="m 33.162834,76.066197 c -3.810583,0 -6.878133,3.06755 -6.878133,6.87814 v 31.345893 c 0,3.81058 3.06755,6.87813 6.878133,6.87813 H 168.00887 c 3.81058,0 6.87813,-3.06755 6.87813,-6.87813 V 82.944337 c 0,-3.81059 -3.06755,-6.87814 -6.87813,-6.87814 z m 1.56993,6.03788 h 7.807792 v 7.80779 h -7.807792 z m 15.610416,0 h 7.808309 v 7.80779 H 50.34318 Z m 15.610934,0 h 7.807792 v 7.80779 h -7.807792 z m 15.610416,0 h 7.808309 v 7.80779 H 81.56453 Z m 15.610934,0 h 7.807796 v 7.80779 h -7.807796 z m 15.610416,0 h 7.80831 v 7.80779 h -7.80831 z m 15.61093,0 h 7.8078 v 7.80779 h -7.8078 z m 15.61042,0 h 7.80831 v 7.80779 h -7.80831 z m 15.61093,0 h 7.8078 v 7.80779 h -7.8078 z m -93.634591,13.1563 h 7.807792 v 7.807793 h -7.807792 z m 15.610417,0 h 7.808309 v 7.807793 h -7.808309 z m 15.610933,0 h 7.807791 v 7.807793 h -7.807791 z m 15.610421,0 h 7.80831 v 7.807793 h -7.80831 z m 15.61093,0 h 7.80831 v 7.807793 h -7.80831 z m 15.61093,0 h 7.8078 v 7.807793 h -7.8078 z m 15.61042,0 h 7.80831 v 7.807793 h -7.80831 z m -30.74024,12.898953 h 7.80779 v 7.80831 h -7.80779 z m 15.61041,0 h 7.80831 v 7.80831 h -7.80831 z m 15.61094,0 h 7.80779 v 7.80831 h -7.80779 z" /><rect
         style="fill:none;fill-opacity:1;stroke:#df601c;stroke-width:6.24209;stroke-linecap:round;stroke-linejoin:round;stroke-miterlimit:4;stroke-dasharray:none;stroke-dashoffset:0;stroke-opacity:1;paint-order:normal"
         id="rect1060-6-9-9-2"
         width="163.32513"
         height="64.701065"
         x="18.52158"
         y="66.243477"
         ry="7.7547579" /><rect
         style="opacity:1;fill:#df601c;stroke:none;stroke-width:1;stroke-dashoffset:20.512"
         id="rect1"
         width="7.2696018"
         height="17.500893"
         x="7.0534081"
         y="75.436974"
         ry="0" /><rect
         style="fill:#df601c;stroke:none;stroke-width:1;stroke-dashoffset:20.512"
         id="rect1-4"
         width="7.2696018"
         height="17.500893"
         x="7.0534081"
         y="104.84903"
         ry="0" /><rect
         style="fill:#df601c;stroke:none;stroke-width:1;stroke-dashoffset:20.512"
         id="rect1-7"
         width="7.2696018"
         height="17.500893"
         x="185.76546"
         y="75.436974"
         ry="0" /><rect
         style="fill:#df601c;stroke:none;stroke-width:1;stroke-dashoffset:20.512"
         id="rect1-4-1"
         width="7.2696018"
         height="17.500893"
         x="185.76546"
         y="104.84903"
         ry="0" /></g></g></svg>
