<?xml version="1.0" encoding="UTF-8" standalone="no"?>
<!-- Created with Inkscape (http://www.inkscape.org/) -->

<svg
   width="200mm"
   height="200mm"
   viewBox="0 0 200 200"
   version="1.1"
   id="svg1"
   inkscape:version="1.3.1 (91b66b0783, 2023-11-16)"
   sodipodi:docname="folder_add.svg"
   xml:space="preserve"
   xmlns:inkscape="http://www.inkscape.org/namespaces/inkscape"
   xmlns:sodipodi="http://sodipodi.sourceforge.net/DTD/sodipodi-0.dtd"
   xmlns="http://www.w3.org/2000/svg"
   xmlns:svg="http://www.w3.org/2000/svg"><sodipodi:namedview
     id="namedview1"
     pagecolor="#ffffff"
     bordercolor="#000000"
     borderopacity="0.25"
     inkscape:showpageshadow="2"
     inkscape:pageopacity="0.0"
     inkscape:pagecheckerboard="0"
     inkscape:deskcolor="#d1d1d1"
     inkscape:document-units="mm"
     inkscape:zoom="0.34743266"
     inkscape:cx="365.53846"
     inkscape:cy="815.98546"
     inkscape:window-width="1488"
     inkscape:window-height="1041"
     inkscape:window-x="78"
     inkscape:window-y="0"
     inkscape:window-maximized="0"
     inkscape:current-layer="layer1"
     showguides="true" /><defs
     id="defs1" /><g
     inkscape:label="Слой 1"
     inkscape:groupmode="layer"
     id="layer1"><g
       id="g1"
       transform="translate(-11.308269,-221.31898)"><path
         id="rect1060-4-3-7"
         style="fill:#df601c;fill-opacity:1;stroke:none;stroke-width:6.93194;stroke-linecap:round;stroke-linejoin:round;stroke-miterlimit:4;stroke-dasharray:none;stroke-dashoffset:0;stroke-opacity:1;paint-order:normal"
         d="m 55.498938,228.03414 c -20.976449,0 -37.864355,16.88739 -37.864355,37.86384 v 113.591 c 0,20.97645 16.887906,37.86384 37.864355,37.86384 H 166.54177 c 0.14556,0 0.28583,-0.0201 0.43098,-0.0217 a 39.45108,39.45108 0 0 1 -11.3006,-6.12573 H 57.824894 c -18.672299,0 -33.704919,-15.03262 -33.704919,-33.70492 V 267.88649 c 0,-18.6723 15.03262,-33.70492 33.704919,-33.70492 H 164.21478 c 18.6723,0 33.70492,15.03262 33.70492,33.70492 v 77.19581 a 39.45108,39.45108 0 0 1 6.48539,4.20439 v -83.38871 c 0,-20.97645 -16.88687,-37.86384 -37.86332,-37.86384 z" /><path
         id="rect99"
         style="fill:#547586;fill-opacity:1;stroke:none;stroke-width:29.868"
         d="M 44.027287,240.74086 33.098755,252.8564 v 138.20138 l 10.928532,11.68663 H 147.30729 a 39.45108,39.45108 0 0 1 -5.77846,-11.68663 H 44.027287 V 252.8564 H 178.17362 v 87.68922 a 39.45108,39.45108 0 0 1 1.19631,-0.0858 39.45108,39.45108 0 0 1 9.73222,1.22318 V 252.8564 l -10.92853,-12.11554 z" /><rect
         style="fill:#547586;fill-opacity:1;stroke:none;stroke-width:30.0701"
         id="rect106"
         width="81.143562"
         height="34.119434"
         x="48.943314"
         y="257.54044" /><rect
         style="fill:#df601c;fill-opacity:1;stroke:none;stroke-width:12.8319"
         id="rect106-4"
         width="32.115269"
         height="15.698449"
         x="141.7206"
         y="257.27936" /><rect
         style="fill:#df601c;fill-opacity:1;stroke:none;stroke-width:12.8319"
         id="rect106-4-9"
         width="32.115269"
         height="15.698449"
         x="141.7206"
         y="280.04822" /><rect
         style="fill:#df601c;fill-opacity:1;stroke:none;stroke-width:12.8319"
         id="rect106-4-90"
         width="32.115269"
         height="15.698449"
         x="141.7206"
         y="302.81711" /><rect
         style="fill:#df601c;fill-opacity:1;stroke:none;stroke-width:12.8319"
         id="rect106-4-1"
         width="32.115269"
         height="15.698449"
         x="141.7206"
         y="325.58597" /><path
         id="rect106-4-2"
         style="fill:#547586;fill-opacity:1;stroke:none;stroke-width:12.8319"
         d="m 141.72055,348.35496 v 15.69827 h 1.72961 a 39.45108,39.45108 0 0 1 12.75943,-15.69827 z" /><rect
         style="fill:#df601c;fill-opacity:1;stroke:none;stroke-width:9.34629"
         id="rect106-4-8-0"
         width="17.037577"
         height="15.698449"
         x="119.97757"
         y="302.8851" /><rect
         style="fill:#df601c;fill-opacity:1;stroke:none;stroke-width:9.34629"
         id="rect106-4-8-0-0"
         width="17.037577"
         height="15.698449"
         x="72.477516"
         y="302.8851" /><rect
         style="fill:#547586;fill-opacity:1;stroke:none;stroke-width:9.34629"
         id="rect106-4-8-0-50"
         width="17.037577"
         height="15.698449"
         x="48.727493"
         y="302.8851" /><rect
         style="fill:#df601c;fill-opacity:1;stroke:none;stroke-width:9.34629"
         id="rect106-4-8-0-5"
         width="17.037577"
         height="15.698449"
         x="96.227539"
         y="302.8851" /><rect
         style="fill:#df601c;fill-opacity:1;stroke:none;stroke-width:9.34629"
         id="rect106-4-8-0-8"
         width="17.037577"
         height="15.698449"
         x="119.97757"
         y="325.53494" /><rect
         style="fill:#df601c;fill-opacity:1;stroke:none;stroke-width:9.34629"
         id="rect106-4-8-0-0-6"
         width="17.037577"
         height="15.698449"
         x="72.477516"
         y="325.53494" /><rect
         style="fill:#547586;fill-opacity:1;stroke:none;stroke-width:9.34629"
         id="rect106-4-8-0-50-9"
         width="17.037577"
         height="15.698449"
         x="48.727493"
         y="325.53494" /><rect
         style="fill:#547586;fill-opacity:1;stroke:none;stroke-width:9.34629"
         id="rect106-4-8-0-50-0"
         width="17.037577"
         height="15.698449"
         x="48.727493"
         y="349.5192" /><rect
         style="fill:#547586;fill-opacity:1;stroke:none;stroke-width:9.34629"
         id="rect106-4-8-0-50-9-3"
         width="17.037577"
         height="15.698449"
         x="48.727493"
         y="370.5813" /><rect
         style="fill:#547586;fill-opacity:1;stroke:none;stroke-width:9.34629"
         id="rect106-4-8-0-50-9-3-2"
         width="17.037577"
         height="15.698449"
         x="95.224037"
         y="349.5192" /><rect
         style="fill:#df601c;fill-opacity:1;stroke:none;stroke-width:9.34629"
         id="rect106-4-8-0-5-7"
         width="17.037577"
         height="15.698449"
         x="96.227539"
         y="325.53494" /><path
         id="path15-2"
         style="fill:#df601c;fill-opacity:1;stroke:none;stroke-width:5.48724;stroke-dasharray:none"
         d="m 179.17157,355.10949 c -1.55287,-0.12933 -3.19229,0.77858 -3.65041,2.93192 l -0.0587,16.05662 -14.62524,0.0835 c -5.60378,-0.40785 -6.2286,6.96569 -0.0851,6.92239 l 14.64562,0.005 0.16862,14.27277 c -0.77917,5.93994 7.5347,6.4808 6.79214,0.0408 l 0.0292,-14.40545 15.82724,-0.14586 c 3.01802,-0.0722 4.20662,-3.76075 2.34769,-5.67203 l -3.9e-4,0.003 c -0.61965,-0.63711 -1.57784,-1.07678 -2.91993,-1.11931 l -15.23664,0.0152 -0.10389,-15.69659 c -0.11095,-1.9958 -1.57726,-3.16224 -3.13013,-3.29155 z"
         sodipodi:nodetypes="sccccccccccccccs" /></g></g></svg>
