<?xml version="1.0" encoding="UTF-8" standalone="no"?>
<!-- Created with Inkscape (http://www.inkscape.org/) -->

<svg
   width="200mm"
   height="200mm"
   viewBox="0 0 200 200"
   version="1.1"
   id="svg1"
   inkscape:version="1.3.1 (91b66b0783, 2023-11-16)"
   sodipodi:docname="dialog.svg"
   xmlns:inkscape="http://www.inkscape.org/namespaces/inkscape"
   xmlns:sodipodi="http://sodipodi.sourceforge.net/DTD/sodipodi-0.dtd"
   xmlns="http://www.w3.org/2000/svg"
   xmlns:svg="http://www.w3.org/2000/svg">
  <sodipodi:namedview
     id="namedview1"
     pagecolor="#ffffff"
     bordercolor="#000000"
     borderopacity="0.25"
     inkscape:showpageshadow="2"
     inkscape:pageopacity="0.0"
     inkscape:pagecheckerboard="0"
     inkscape:deskcolor="#d1d1d1"
     inkscape:document-units="mm"
     inkscape:zoom="0.69486532"
     inkscape:cx="343.95154"
     inkscape:cy="295.0212"
     inkscape:window-width="1920"
     inkscape:window-height="976"
     inkscape:window-x="-8"
     inkscape:window-y="-8"
     inkscape:window-maximized="1"
     inkscape:current-layer="layer1" />
  <defs
     id="defs1" />
  <g
     inkscape:label="Слой 1"
     inkscape:groupmode="layer"
     id="layer1">
    <g
       id="g18"
       transform="matrix(0.96697687,0,0,0.96697687,-5161.7763,1172.7223)">
      <path
         id="path6"
         style="fill:#547586;fill-opacity:1"
         d="m 5421.004,-1197.6968 c -5.4276,0.047 -10.9067,0.4628 -15.8311,1.2413 -11.2412,1.777 -22.5309,5.7315 -31.4854,11.0287 -14.6171,8.647 -24.4959,20.6793 -28.0603,34.1768 -1.0224,3.8715 -1.4092,7.0993 -1.3932,11.6416 0.06,17.4546 7.5474,34.1659 19.9827,44.5994 2.4238,2.0336 7.5448,5.5415 9.3054,6.3743 l 1.0258,0.4852 -0.1638,1.9327 c -0.4194,4.9621 -2.7046,10.9273 -7.5479,19.7016 -1.3461,2.4386 -2.5562,4.8134 -2.6892,5.2772 -0.5036,1.7558 0.6091,3.8637 2.5078,4.7501 0.8087,0.3771 1.4066,0.4645 2.3844,0.3478 1.2944,-0.1543 4.5785,-0.9094 6.1035,-1.4035 9.1781,-2.9737 24.4199,-12.2549 33.368,-20.3187 l 2.1471,-1.9352 2.2185,0.2552 c 3.1048,0.3569 8.2559,0.3144 15.9768,-0.1317 9.7141,-0.5613 12.5962,-0.9552 19.4469,-2.6572 18.0541,-4.4853 32.5282,-13.9446 41.0843,-26.8501 1.7181,-2.5915 5.7469,-10.3755 5.7469,-11.1037 0,-0.1791 0.1708,-0.701 0.3798,-1.1596 1.5073,-3.3077 3.0614,-11.9601 3.0614,-17.0114 -0.01,-10.3832 -2.5584,-19.1299 -7.9996,-27.4164 -10.5785,-16.1102 -30.2771,-27.3561 -54.0468,-30.8555 -4.7183,-0.6946 -10.0945,-1.0161 -15.522,-0.9689 z m -3.2371,11.8602 c 5.4739,-0.076 13.3226,0.1006 15.7164,0.4279 10.185,1.3925 20.2913,4.5418 27.9213,8.7008 17.5911,9.5887 26.7807,24.1428 25.2961,40.0621 -0.4169,4.4696 -1.0776,7.5156 -2.437,11.235 -5.4622,14.9442 -19.4024,26.5108 -38.2204,31.7128 -9.29,2.5676 -21.023,3.5789 -30.6752,2.6427 -2.1779,-0.2112 -5.2872,-0.4636 -6.9096,-0.5606 l -2.9497,-0.1763 -3.1445,2.6154 c -1.7295,1.4385 -4.097,3.4962 -5.2612,4.5723 -2.785,2.5744 -7.4384,6.3071 -11.3771,9.1266 -1.7462,1.25 -3.3101,2.2763 -3.4752,2.2763 -0.1888,0 -0.012,-0.9038 0.4775,-2.4437 2.3928,-7.5266 2.67,-8.9889 3.2969,-17.4021 l 0.168,-2.2551 -4.8116,-2.4976 c -6.7712,-3.5151 -10.8749,-6.7045 -14.8151,-11.5135 -6.8106,-8.3122 -10.5935,-19.1392 -10.6035,-30.332 -0.01,-11.665 5.1076,-21.4566 15.9168,-30.4643 9.9993,-8.3327 25.7016,-14.2218 41.4952,-15.5623 1.0069,-0.086 2.5673,-0.1389 4.3919,-0.1644 z" />
      <path
         id="path4"
         style="fill:#df601c;fill-opacity:1"
         d="m 5512.6904,-1129.2095 c -0.06,0.061 -0.2742,1.109 -0.4744,2.3301 -0.384,2.3424 -1.6274,7.456 -1.9834,8.1566 -0.1156,0.2275 -0.2798,0.7791 -0.3638,1.2257 -0.142,0.7515 -0.033,0.8993 1.4609,1.9844 2.0674,1.5019 5.2335,4.6872 6.7112,6.7521 3.3755,4.7167 4.8771,10.8745 4.5109,18.497 -0.6205,12.9152 -6.8041,21.0957 -21.4287,28.3476 l -4.1941,2.0795 0.1876,4.4979 c 0.1034,2.4739 0.2204,4.6766 0.2594,4.8948 0.039,0.2183 0.1549,1.5875 0.2564,3.0427 0.1015,1.4553 0.2965,3.4676 0.4335,4.4716 0.137,1.0039 0.193,1.8813 0.124,1.9503 -0.069,0.069 -1.4056,-0.8715 -2.9708,-2.0898 -3.6599,-2.849 -8.7656,-7.9377 -10.8702,-10.8345 l -1.6484,-2.2696 -3.1115,0.4935 c -4.1094,0.652 -14.6256,0.9183 -19.4432,0.4924 -11.8839,-1.0505 -20.742,-4.1202 -29.2241,-10.1275 l -2.1647,-1.5332 -7.228,0.015 c -3.9754,0.01 -7.7042,0.1 -8.2863,0.2036 l -1.0584,0.1891 2.2521,2.3756 c 3.8214,4.0308 6.2932,6.1535 10.3151,8.8578 8.2468,5.5451 17.8187,9.1984 28.3368,10.8154 2.6713,0.4106 5.9339,0.6147 13.2271,0.8278 5.3248,0.156 10.1876,0.2019 10.8061,0.1029 l 1.1244,-0.1799 2.9528,2.9037 c 8.5935,8.4517 19.1761,15.4653 26.2356,17.3871 v -5e-4 c 3.1255,0.8511 4.8028,0.8748 5.9759,0.084 1.9735,-1.3299 2.0292,-2.7881 0.2661,-7.0058 -2.7678,-6.6211 -5.0513,-15.9707 -5.0513,-20.6819 0,-1.325 0.081,-1.5969 0.5152,-1.7348 0.7397,-0.2348 6.3933,-3.8833 8.7379,-5.6389 2.6561,-1.9887 4.4517,-3.6967 6.7325,-6.4043 3.847,-4.5668 6.3178,-9.7185 8.3116,-17.3302 l 0.9705,-3.7042 v -6.8791 c 0,-6.2015 -0.06,-7.1497 -0.6077,-9.6273 -2.1075,-9.5306 -6.9794,-17.1357 -14.8043,-23.1092 -2.8195,-2.1525 -5.6168,-4.0017 -5.7903,-3.8282 z" />
    </g>
  </g>
</svg>
