<?xml version="1.0" encoding="UTF-8" standalone="no"?>
<!-- Created with Inkscape (http://www.inkscape.org/) -->

<svg
   width="200mm"
   height="200mm"
   viewBox="0 0 200 200"
   version="1.1"
   id="svg1"
   inkscape:version="1.3.1 (91b66b0783, 2023-11-16)"
   sodipodi:docname="digital1.svg"
   xml:space="preserve"
   xmlns:inkscape="http://www.inkscape.org/namespaces/inkscape"
   xmlns:sodipodi="http://sodipodi.sourceforge.net/DTD/sodipodi-0.dtd"
   xmlns="http://www.w3.org/2000/svg"
   xmlns:svg="http://www.w3.org/2000/svg"><sodipodi:namedview
     id="namedview1"
     pagecolor="#ffffff"
     bordercolor="#000000"
     borderopacity="0.25"
     inkscape:showpageshadow="2"
     inkscape:pageopacity="0.0"
     inkscape:pagecheckerboard="0"
     inkscape:deskcolor="#d1d1d1"
     inkscape:document-units="mm"
     inkscape:zoom="0.49134398"
     inkscape:cx="628.88732"
     inkscape:cy="468.10383"
     inkscape:window-width="1920"
     inkscape:window-height="976"
     inkscape:window-x="-8"
     inkscape:window-y="-8"
     inkscape:window-maximized="1"
     inkscape:current-layer="layer1"
     showguides="true" /><defs
     id="defs1" /><g
     inkscape:label="Слой 1"
     inkscape:groupmode="layer"
     id="layer1"><path
       id="path5743"
       style="fill:#df601c;fill-opacity:1;stroke-width:0.74979"
       d="m 99.664693,7.6371336 -75.7278,0.0012 -3.90923,2.061912 C 15.309683,12.187263 11.418263,15.94292 9.1349825,20.216129 l -1.69228,3.167411 -0.21232,75.729141 c -0.18689,67.583599 -0.0788,76.065109 0.97921,78.858389 2.5200705,6.64576 7.7261605,11.77496 14.3785105,14.16507 2.34526,0.83286 16.13344,0.99417 78.201237,0.86102 l 75.35346,-0.16108 3.84235,-2.02734 c 4.9072,-2.5888 9.57516,-7.89176 11.30183,-12.84134 1.26764,-3.6356 1.35124,-8.49943 1.35124,-78.122599 v -74.24442 l -2.46978,-5.019427 C 187.53461,15.23143 184.38249,12.115155 178.79023,9.3292736 l -3.3976,-1.692236 z m -57.63947,23.6267594 -10e-4,0.0027 h 8.53029 v 24.742983 24.742945 h 2.62473 2.62364 v -7.788532 c 0,-6.510506 0.23284,-8.076345 1.41213,-9.533204 1.24576,-1.538558 1.64171,-1.639524 3.37368,-0.85027 l 1.96291,0.895601 v 11.862252 c 0,8.226553 -0.27485,12.138623 -0.89902,12.762633 v -10e-4 c -0.63394,0.6335 -4.94388,0.90039 -14.60277,0.90039 h -13.70376 l -1.28545,-1.96054 c -1.15157,-1.75779 -1.16992,-2.16589 -0.17766,-3.9366 1.0136,-1.81015 1.55825,-1.99521 6.51615,-2.19667 l 5.41039,-0.22062 V 59.755369 38.826166 l -5.81015,-0.219452 -5.8111,-0.219466 -0.23855,-2.485281 c -0.4037,-4.204199 0.53745,-4.637802 10.07822,-4.637802 z m 43.12857,0.0027 h 12.18657 c 12.130967,0 12.194717,-2.58e-4 14.004167,1.934306 l 1.8176,1.936712 v 25.122188 25.122192 l -2.1025,1.80909 c -2.02435,1.73034 -2.52129,1.80605 -13.122957,1.75782 -6.05958,-0.0277 -11.73788,-0.39878 -12.61827,-0.82524 -3.05683,-1.4804 -3.27241,-3.36164 -3.27241,-28.673599 0,-23.379253 0.053,-24.301237 1.55404,-26.20742 z m 57.400797,0 h 8.47198 v 24.742983 24.742945 h 2.99934 2.99934 v -8.637588 c 0,-8.483409 0.034,-8.65424 1.87102,-9.491489 1.54642,-0.704313 2.1324,-0.616777 3.37367,0.506854 1.37245,1.243164 1.50253,2.304126 1.50253,12.37385 0,9.718263 -0.16148,11.160803 -1.37,12.255823 -1.16896,1.0567 -3.36008,1.24022 -14.84609,1.24022 -14.66856,0 -15.27439,-0.16384 -15.27439,-4.12382 0,-3.42327 1.17196,-4.12383 6.89905,-4.12383 h 5.09695 V 59.758944 38.76417 h -5.09695 c -5.57649,0 -6.89905,-0.717919 -6.89905,-3.748181 0,-3.330278 1.14817,-3.749378 10.2726,-3.749378 z m -53.761107,7.497559 v 20.994774 20.993595 h 8.99788 8.997747 V 59.758944 38.76417 h -8.997747 z m -41.61165,74.219368 c 11.68011,0 11.69261,0 13.52951,1.98441 l 1.84017,1.98321 v 24.90636 c 0,24.06304 -0.053,24.97608 -1.55404,26.88477 l -1.55486,1.97605 h -12.18778 c -12.12866,0 -12.19404,-9.3e-4 -14.00308,-1.9355 l -1.81869,-1.93311 -0.23243,-22.62262 c -0.12641,-12.44205 -0.0272,-23.75483 0.23841,-25.14131 0.25799,-1.38623 1.27621,-3.32566 2.26113,-4.31105 1.73496,-1.73402 2.15605,-1.79121 13.48166,-1.79121 z m 46.43552,0 h 7.923387 v 25.11864 25.11744 h 2.62364 2.62473 v -7.44985 c 0,-8.87801 0.70804,-11.29461 3.31156,-11.29461 3.42261,0 4.18597,2.34215 4.18597,12.86282 0,5.24242 -0.3288,10.39893 -0.73101,11.4568 l -0.73223,1.92356 H 98.165703 83.509363 l -0.71429,-1.87467 c -0.45018,-1.18455 -0.45018,-2.56506 0,-3.74938 0.67311,-1.76978 1.02665,-1.87467 6.35494,-1.87467 h 5.64201 v -20.99361 -20.99481 h -5.09681 c -5.771,0 -6.90014,-0.69488 -6.90014,-4.24785 0,-3.42835 1.54738,-3.99981 10.82228,-3.99981 z m 56.266897,0 c 10.5492,0 11.02249,0.0695 12.74712,1.79121 0.98465,0.9847 2.00001,2.92482 2.25515,4.31105 0.26627,1.38648 0.36265,12.70164 0.23719,25.14369 l -0.22618,22.62024 -1.81733,1.93431 v 0 c -1.80904,1.93341 -1.87646,1.9343 -14.00512,1.9343 h -12.18683 l -1.55377,-1.97605 c -1.50171,-1.90962 -1.55839,-2.80208 -1.52998,-26.80488 0.0272,-18.33529 0.26369,-25.14045 0.93734,-26.01901 1.92254,-2.50411 4.14139,-2.93486 15.14418,-2.93486 z m -111.326767,8.23813 v 20.99362 20.9936 h 8.62327 8.62204 v -20.9936 -20.99362 h -8.62204 z m 101.972347,0 v 20.99362 20.9936 h 8.99639 8.99788 v -20.9936 -20.99362 h -8.99788 z" /></g></svg>
