<?xml version="1.0" encoding="UTF-8" standalone="no"?>
<!-- Created with Inkscape (http://www.inkscape.org/) -->

<svg
   width="200mm"
   height="200mm"
   viewBox="0 0 200 200"
   version="1.1"
   id="svg1"
   inkscape:version="1.3.1 (91b66b0783, 2023-11-16)"
   sodipodi:docname="digital.svg"
   xml:space="preserve"
   xmlns:inkscape="http://www.inkscape.org/namespaces/inkscape"
   xmlns:sodipodi="http://sodipodi.sourceforge.net/DTD/sodipodi-0.dtd"
   xmlns="http://www.w3.org/2000/svg"
   xmlns:svg="http://www.w3.org/2000/svg"><sodipodi:namedview
     id="namedview1"
     pagecolor="#ffffff"
     bordercolor="#000000"
     borderopacity="0.25"
     inkscape:showpageshadow="2"
     inkscape:pageopacity="0.0"
     inkscape:pagecheckerboard="0"
     inkscape:deskcolor="#d1d1d1"
     inkscape:document-units="mm"
     inkscape:zoom="0.49134398"
     inkscape:cx="628.88732"
     inkscape:cy="468.10383"
     inkscape:window-width="1920"
     inkscape:window-height="976"
     inkscape:window-x="-8"
     inkscape:window-y="-8"
     inkscape:window-maximized="1"
     inkscape:current-layer="layer1"
     showguides="true" /><defs
     id="defs1" /><g
     inkscape:label="Слой 1"
     inkscape:groupmode="layer"
     id="layer1"><g
       id="g5749"
       transform="matrix(2.8161435,0,0,2.8161435,6194.7363,-7157.3803)"><path
         inkscape:connector-curvature="0"
         id="path5739"
         d="m -2150.0274,2585.1767 v 7.2761 7.276 h 3.175 3.175 v -7.276 -7.2761 h -3.175 z"
         style="fill:#547586;fill-opacity:1;stroke-width:0.264583" /><path
         inkscape:connector-curvature="0"
         id="path5737"
         d="m -2186.0107,2585.1762 v 7.2761 7.276 h 3.175 3.175 v -7.276 -7.2761 h -3.175 z"
         style="fill:#547586;fill-opacity:1;stroke-width:0.264583" /><path
         inkscape:connector-curvature="0"
         id="path5733"
         d="m -2168.2836,2556.0721 v 7.4083 7.4083 h 3.175 3.175 v -7.4083 -7.4083 h -3.175 z"
         style="fill:#547586;fill-opacity:1;stroke-width:0.264583" /><path
         inkscape:connector-curvature="0"
         id="path5723"
         d="m -2163.961,2544.8704 c -26.0597,-0.07 -26.5254,-0.062 -27.9347,0.4651 -1.8565,0.6947 -3.3295,1.974 -4.3098,3.7439 l -0.7855,1.418 v 27.1198 27.1198 l 0.786,1.4196 c 0.958,1.7297 2.6259,3.1442 4.4576,3.7806 1.2893,0.4482 2.9442,0.472 27.8293,0.416 l 26.4583,-0.06 1.3338,-0.7039 c 1.7134,-0.9045 3.3429,-2.6799 3.9827,-4.3387 0.4833,-1.2544 0.5044,-2.375 0.5044,-27.6335 0,-25.2585 -0.021,-26.379 -0.5044,-27.6334 -0.6398,-1.6589 -2.2693,-3.4343 -3.9827,-4.3388 l -1.3338,-0.7038 z m -1.8872,8.1799 c 2.1266,-0.057 3.8719,0.023 4.4891,0.2082 1.7665,0.5294 1.8066,0.752 1.8066,10.0723 0,9.1075 -0.061,9.4819 -1.619,10.0252 -0.4634,0.1613 -2.2792,0.2773 -4.0426,0.2573 -5.9176,-0.067 -5.4915,0.7598 -5.3945,-10.4562 0.094,-10.8831 -0.3366,-9.9693 4.7604,-10.1068 z m 16.6088,0.2217 h 3.1807 v 8.7312 8.7313 h 0.926 0.9261 v -2.8919 c 0,-2.2758 0.089,-2.9801 0.416,-3.3073 0.5278,-0.5278 1.0215,-0.5278 1.5492,0 0.3408,0.3408 0.416,1.1263 0.416,4.3507 0,3.7662 -0.025,3.9528 -0.5881,4.347 -0.4748,0.3329 -1.432,0.4119 -4.9681,0.4119 -4.6899,0 -5.5563,-0.2116 -5.5563,-1.3555 0,-1.2938 0.424,-1.5549 2.5229,-1.5549 h 1.975 v -7.4084 -7.4083 h -1.99 c -1.866,0 -2.0088,-0.041 -2.2914,-0.6615 -0.2254,-0.4948 -0.2254,-0.8281 0,-1.3229 0.2973,-0.6514 0.346,-0.6614 3.482,-0.6614 z m -35.5281,0 h 2.99 v 8.7312 8.7313 h 1.0584 1.0583 v -2.9895 c 0,-1.9726 0.1078,-3.0978 0.3173,-3.3073 0.5085,-0.5086 1.2242,-0.369 1.681,0.3282 0.3489,0.533 0.4079,1.3009 0.337,4.3878 -0.077,3.3411 -0.1414,3.7812 -0.6,4.116 -0.3967,0.2892 -1.5113,0.3717 -4.8948,0.3587 -2.4097,-0.01 -4.6489,-0.1248 -4.9764,-0.2564 -0.4503,-0.181 -0.5954,-0.4538 -0.5954,-1.1208 0,-1.2726 0.3915,-1.5167 2.434,-1.5167 h 1.7994 v -7.4083 -7.4084 h -1.7994 c -1.9677,0 -2.434,-0.2535 -2.434,-1.3229 0,-1.1751 0.4048,-1.3229 3.6246,-1.3229 z m 1.6718,28.839 c 2.3584,0 4.218,0.1172 4.533,0.2858 1.1573,0.6194 1.2831,1.5906 1.2831,9.9007 0,8.3101 -0.1258,9.2813 -1.2831,9.9007 -0.315,0.1686 -2.174,0.2858 -4.532,0.2858 -3.8922,0 -4.0156,-0.017 -4.6478,-0.6496 l -0.6496,-0.6491 v -8.8372 -8.8366 l 0.6491,-0.7002 c 0.6464,-0.7 0.6629,-0.7003 4.6473,-0.7003 z m 16.4186,0 h 2.8913 v 8.7313 8.7312 h 1.0583 1.0584 v -2.8571 c 0,-3.0296 0.1634,-3.4929 1.234,-3.4929 0.9492,0 1.1472,0.7855 1.1472,4.5543 0,2.7671 -0.089,3.6572 -0.4118,4.1181 -0.4,0.5711 -0.551,0.5881 -5.239,0.5881 -5.1593,0 -5.4675,-0.073 -5.4575,-1.3095 0.01,-1.2067 0.3648,-1.4422 2.3616,-1.555 l 1.8675,-0.1059 v -7.2461 -7.246 h -1.7006 c -1.8729,0 -2.5327,-0.379 -2.5327,-1.4553 0,-1.2264 0.5858,-1.4552 3.7233,-1.4552 z m 15.6383,6e-4 h 4.0628 c 3.9133,0 4.0899,0.024 4.8049,0.6387 l 0.7426,0.6382 v 8.9095 8.9096 l -0.7426,0.6382 c -0.717,0.6169 -0.8796,0.638 -4.7625,0.618 -2.2111,-0.012 -4.1714,-0.083 -4.3563,-0.1566 -0.185,-0.074 -0.5124,-0.4757 -0.7276,-0.8919 -0.3213,-0.6216 -0.3912,-2.2675 -0.3912,-9.216 v -8.4594 l 0.6847,-0.8144 z"
         style="fill:#547586;fill-opacity:1;stroke-width:0.264583" /></g></g></svg>
