<?xml version="1.0" encoding="UTF-8" standalone="no"?>
<!-- Created with Inkscape (http://www.inkscape.org/) -->

<svg
   width="200mm"
   height="200mm"
   viewBox="0 0 200 200"
   version="1.1"
   id="svg1"
   inkscape:version="1.3.1 (91b66b0783, 2023-11-16)"
   sodipodi:docname="double_point2.svg"
   xml:space="preserve"
   xmlns:inkscape="http://www.inkscape.org/namespaces/inkscape"
   xmlns:sodipodi="http://sodipodi.sourceforge.net/DTD/sodipodi-0.dtd"
   xmlns="http://www.w3.org/2000/svg"
   xmlns:svg="http://www.w3.org/2000/svg"><sodipodi:namedview
     id="namedview1"
     pagecolor="#ffffff"
     bordercolor="#000000"
     borderopacity="0.25"
     inkscape:showpageshadow="2"
     inkscape:pageopacity="0.0"
     inkscape:pagecheckerboard="0"
     inkscape:deskcolor="#d1d1d1"
     inkscape:document-units="mm"
     inkscape:zoom="0.69486532"
     inkscape:cx="365.53846"
     inkscape:cy="356.90369"
     inkscape:window-width="1920"
     inkscape:window-height="976"
     inkscape:window-x="-8"
     inkscape:window-y="-8"
     inkscape:window-maximized="1"
     inkscape:current-layer="layer1"
     showguides="true" /><defs
     id="defs1" /><g
     inkscape:label="Слой 1"
     inkscape:groupmode="layer"
     id="layer1"><g
       id="g3"
       transform="matrix(1.2235165,0,0,1.2235165,-7.4210375,-23.704188)"><path
         sodipodi:nodetypes="cc"
         inkscape:connector-curvature="0"
         id="path828-4-1-4-4-9"
         d="M 55.694397,100.57754 111.53195,58.170511"
         style="fill:none;stroke:#547586;stroke-width:5.76757;stroke-linecap:round;stroke-linejoin:miter;stroke-miterlimit:4;stroke-dasharray:none;stroke-opacity:1" /><path
         sodipodi:nodetypes="cc"
         inkscape:connector-curvature="0"
         id="path828-5-3-3-36-9-6"
         d="m 52.656825,113.71481 57.799245,30.51123"
         style="fill:none;stroke:#547586;stroke-width:5.61255;stroke-linecap:round;stroke-linejoin:miter;stroke-miterlimit:4;stroke-dasharray:none;stroke-opacity:1" /><ellipse
         cy="103.33602"
         cx="46.448685"
         id="path864-8-7-5-9-7-7-9"
         style="fill:#df601c;fill-opacity:1;stroke:#df601c;stroke-width:13.548;stroke-linecap:round;stroke-linejoin:round;stroke-miterlimit:4;stroke-dasharray:none;stroke-dashoffset:0;stroke-opacity:1;paint-order:normal"
         rx="16.694624"
         ry="16.590996" /><path
         id="path21-2"
         style="fill:#df601c;fill-opacity:1;stroke:none;stroke-width:9.45224;stroke-dasharray:none"
         d="M 127.7114,29.391896 A 20.26362,20.26362 0 0 0 107.44821,49.655774 20.26362,20.26362 0 0 0 127.7114,69.919651 20.26362,20.26362 0 0 0 147.97527,49.655774 20.26362,20.26362 0 0 0 127.7114,29.391896 Z m 0,8.966549 A 11.297416,11.297416 0 0 1 139.00872,49.655774 11.297416,11.297416 0 0 1 127.7114,60.953102 11.297416,11.297416 0 0 1 116.41406,49.655774 11.297416,11.297416 0 0 1 127.7114,38.358445 Z" /><path
         id="path21-24"
         style="fill:#df601c;fill-opacity:1;stroke:none;stroke-width:9.45224;stroke-dasharray:none"
         d="m 125.80755,130.25794 a 20.26362,20.26362 0 0 0 -20.26319,20.26388 20.26362,20.26362 0 0 0 20.26319,20.26388 20.26362,20.26362 0 0 0 20.26388,-20.26388 20.26362,20.26362 0 0 0 -20.26388,-20.26388 z m 0,8.96655 a 11.297416,11.297416 0 0 1 11.29733,11.29733 11.297416,11.297416 0 0 1 -11.29733,11.29733 11.297416,11.297416 0 0 1 -11.29734,-11.29733 11.297416,11.297416 0 0 1 11.29734,-11.29733 z" /></g></g></svg>
