<?xml version="1.0" encoding="UTF-8" standalone="no"?>
<!-- Created with Inkscape (http://www.inkscape.org/) -->

<svg
   width="200mm"
   height="200mm"
   viewBox="0 0 200 200"
   version="1.1"
   id="svg1"
   inkscape:version="1.3.1 (91b66b0783, 2023-11-16)"
   sodipodi:docname="dview_w.svg"
   xml:space="preserve"
   xmlns:inkscape="http://www.inkscape.org/namespaces/inkscape"
   xmlns:sodipodi="http://sodipodi.sourceforge.net/DTD/sodipodi-0.dtd"
   xmlns="http://www.w3.org/2000/svg"
   xmlns:svg="http://www.w3.org/2000/svg"><sodipodi:namedview
     id="namedview1"
     pagecolor="#ffffff"
     bordercolor="#000000"
     borderopacity="0.25"
     inkscape:showpageshadow="2"
     inkscape:pageopacity="0.0"
     inkscape:pagecheckerboard="0"
     inkscape:deskcolor="#d1d1d1"
     inkscape:document-units="mm"
     inkscape:zoom="0.49134398"
     inkscape:cx="532.2137"
     inkscape:cy="419.25821"
     inkscape:window-width="1920"
     inkscape:window-height="976"
     inkscape:window-x="-8"
     inkscape:window-y="-8"
     inkscape:window-maximized="1"
     inkscape:current-layer="layer1"
     showguides="true" /><defs
     id="defs1" /><g
     inkscape:label="Слой 1"
     inkscape:groupmode="layer"
     id="layer1"><path
       id="rect2971-7-0-9-9-3-2"
       style="fill:#df601c;fill-opacity:1;stroke:none;stroke-width:15.6665;stroke-linecap:round;stroke-linejoin:round;stroke-miterlimit:4;stroke-dasharray:none;stroke-dashoffset:0;stroke-opacity:1;paint-order:normal"
       d="m 27.703616,11.641668 c -10.070901,0 -18.1786155,8.107741 -18.1786155,18.178623 V 174.54969 c 0,10.07087 8.1077145,18.17861 18.1786155,18.17861 H 171.75278 c 10.07085,0 18.17862,-8.10774 18.17862,-18.17861 V 29.820291 c 0,-10.070882 -8.10777,-18.178623 -18.17862,-18.178623 z m 13.70596,13.064503 77.358854,0.108912 c 0,0 63.55674,-3.985491 60.61353,51.862037 -8.78473,53.92475 -52.11209,95.59643 -113.131854,94.47515 l -42.29739,0.5224 66.48079,-110.116555 35.888424,-0.04615 -52.601384,88.824795 c 47.604564,-2.58938 65.958204,-44.70953 70.619404,-69.174056 3.83694,-28.965823 -35.0291,-29.996196 -35.0291,-29.996196 l -84.070604,0.275966 z m 6.2106,32.759537 c 9.87939,0.09209 19.31155,6.049208 28.31732,17.594383 -24.2189,29.144119 -42.15255,17.088385 -59.318622,0 C 27.413976,63.146546 37.740736,57.373614 47.620176,57.465708 Z m -0.36826,4.871382 c -6.98083,-0.06508 -14.27767,4.014125 -21.90554,12.432268 12.12965,12.074708 24.80211,20.593311 41.9153,0 -6.36354,-8.157851 -13.02895,-12.367196 -20.00976,-12.432268 z m -0.37196,1.164774 a 8.827265,8.7539586 0 0 1 8.8272,8.754275 8.827265,8.7539586 0 0 1 -8.8272,8.754273 8.827265,8.7539586 0 0 1 -8.82718,-8.754273 8.827265,8.7539586 0 0 1 8.82718,-8.754275 z" /><path
       style="fill:#ffffff;stroke-width:61.0571;stroke-dashoffset:20.512"
       d="m 31.76691,159.23313 c 4.090879,-6.74336 19.028347,-31.46452 33.19435,-54.93595 L 90.717627,61.621903 h 17.479713 c 13.76377,0 17.42425,0.143092 17.21899,0.673111 -0.26641,0.687964 -49.949842,84.703616 -51.475165,87.045516 l -0.840899,1.29108 4.441137,-0.3874 c 5.923307,-0.5167 14.164786,-2.5601 19.899048,-4.93382 20.009959,-8.28313 35.611829,-26.56415 43.703219,-51.207994 3.10332,-9.451742 4.12083,-15.512838 3.39328,-20.213264 -1.83333,-11.844192 -11.68792,-19.415828 -28.99029,-22.274276 -4.7234,-0.780332 -10.14421,-0.849725 -47.504936,-0.608121 -31.59461,0.204317 -42.110315,0.117827 -41.922982,-0.34481 0.137533,-0.339644 3.627757,-6.190897 7.756056,-13.002783 l 7.505999,-12.385246 h 44.917521 c 50.334542,0 49.204012,-0.07324 61.130022,3.960264 8.62105,2.915728 13.5428,5.878093 19.36546,11.655917 7.65011,7.591204 11.03442,15.216449 12.17502,27.431719 0.58192,6.23226 0.54715,6.774294 -0.86559,13.493446 -5.1975,24.719978 -17.89313,46.822998 -35.79519,62.319188 -17.50957,15.15645 -39.45425,24.32058 -62.78713,26.22001 -3.554016,0.28932 -17.426146,0.66403 -30.826921,0.83269 l -24.36504,0.30665 z"
       id="path1" /><path
       style="fill:#ffffff;stroke-width:61.0571;stroke-dashoffset:20.512"
       d="M 40.852728,91.507625 C 35.096305,89.925141 27.877863,85.277304 20.556366,78.439124 l -3.500179,-3.269118 3.500179,-3.581262 c 16.172744,-16.547385 32.799025,-18.134023 47.554176,-4.53807 2.238164,2.062335 4.837642,4.719672 5.776595,5.905193 l 1.707171,2.155492 -2.315845,2.544207 C 66.78789,84.786179 59.369609,89.925903 53.19553,91.569924 c -3.409844,0.907965 -8.914453,0.880179 -12.342802,-0.0623 z m 14.477011,-6.24844 c 3.565551,-1.751446 12.075159,-9.118028 12.075159,-10.453198 0,-0.832331 -6.282663,-7.085668 -8.991044,-8.949097 -7.182061,-4.94139 -15.533401,-4.833228 -23.56608,0.305213 -3.571039,2.284367 -9.445006,7.666392 -9.445006,8.653994 0,0.729927 4.816131,5.029057 8.94306,7.983038 7.185623,5.143343 13.915197,5.932286 20.983911,2.46005 z"
       id="path2" /><path
       style="fill:#ffffff;stroke-width:61.0571;stroke-dashoffset:20.512"
       d="m 45.04635,80.501305 c -4.23686,-1.000908 -7.042303,-4.875966 -6.569154,-9.073732 0.5124,-4.545989 3.744412,-7.38247 8.411916,-7.38247 2.546054,0 3.442859,0.262467 5.028084,1.471581 2.412735,1.840277 3.920648,5.484452 3.405558,8.230121 -0.441934,2.355839 -3.550206,5.94278 -5.566199,6.423385 -0.807402,0.192484 -1.831485,0.432196 -2.275736,0.532693 -0.444254,0.100497 -1.539764,0.0098 -2.434469,-0.201578 z"
       id="path3" /></g></svg>
