<?xml version="1.0" encoding="UTF-8" standalone="no"?>
<!-- Created with Inkscape (http://www.inkscape.org/) -->

<svg
   width="200mm"
   height="200mm"
   viewBox="0 0 200 200"
   version="1.1"
   id="svg1"
   inkscape:version="1.3.1 (91b66b0783, 2023-11-16)"
   sodipodi:docname="dview.svg"
   xml:space="preserve"
   xmlns:inkscape="http://www.inkscape.org/namespaces/inkscape"
   xmlns:sodipodi="http://sodipodi.sourceforge.net/DTD/sodipodi-0.dtd"
   xmlns="http://www.w3.org/2000/svg"
   xmlns:svg="http://www.w3.org/2000/svg"><sodipodi:namedview
     id="namedview1"
     pagecolor="#ffffff"
     bordercolor="#000000"
     borderopacity="0.25"
     inkscape:showpageshadow="2"
     inkscape:pageopacity="0.0"
     inkscape:pagecheckerboard="0"
     inkscape:deskcolor="#d1d1d1"
     inkscape:document-units="mm"
     inkscape:zoom="0.49134398"
     inkscape:cx="354.13073"
     inkscape:cy="341.91932"
     inkscape:window-width="1920"
     inkscape:window-height="976"
     inkscape:window-x="-8"
     inkscape:window-y="-8"
     inkscape:window-maximized="1"
     inkscape:current-layer="layer1"
     showguides="true" /><defs
     id="defs1" /><g
     inkscape:label="Слой 1"
     inkscape:groupmode="layer"
     id="layer1"><path
       id="rect2971-7-0-9-9-3-2"
       style="fill:#df601c;fill-opacity:1;stroke:none;stroke-width:15.6665;stroke-linecap:round;stroke-linejoin:round;stroke-miterlimit:4;stroke-dasharray:none;stroke-dashoffset:0;stroke-opacity:1;paint-order:normal"
       d="m 28.148321,10.869028 c -10.070905,0 -18.1786173,8.107737 -18.1786173,18.178617 V 173.77698 c 0,10.07087 8.1077123,18.17861 18.1786173,18.17861 H 172.19743 c 10.07085,0 18.17862,-8.10774 18.17862,-18.17861 V 29.047645 c 0,-10.07088 -8.10777,-18.178617 -18.17862,-18.178617 z m 13.705954,13.064497 77.358805,0.108912 c 0,0 63.55674,-3.98549 60.61353,51.862037 -8.78473,53.924686 -52.11209,95.596366 -113.131803,94.475086 l -42.297394,0.5224 66.48079,-110.116491 35.888377,-0.04615 -52.601337,88.824731 C 121.76976,146.97467 140.1234,104.85455 144.7846,80.390058 148.62154,51.424235 109.7555,50.393862 109.7555,50.393862 l -84.070551,0.275966 z m 6.210602,32.759537 c 9.879388,0.09209 19.311553,6.049208 28.31732,17.594383 -24.218903,29.144095 -42.152547,17.088385 -59.318624,0 C 27.85868,62.3739 38.185435,56.600968 48.064877,56.693062 Z m -0.368263,4.871382 c -6.98083,-0.06508 -14.277664,4.014125 -21.905539,12.432268 12.129651,12.074708 24.802115,20.593311 41.915307,0 C 61.342842,65.838861 54.677426,61.629516 47.696614,61.564444 Z m -0.37196,1.164774 a 8.827265,8.7539586 0 0 1 8.827199,8.754275 8.827265,8.7539586 0 0 1 -8.827199,8.754273 8.827265,8.7539586 0 0 1 -8.827181,-8.754273 8.827265,8.7539586 0 0 1 8.827181,-8.754275 z" /></g></svg>
