<?xml version="1.0" encoding="UTF-8" standalone="no"?>
<!-- Created with Inkscape (http://www.inkscape.org/) -->

<svg
   width="200mm"
   height="200mm"
   viewBox="0 0 200 200"
   version="1.1"
   id="svg1"
   inkscape:version="1.3.1 (91b66b0783, 2023-11-16)"
   sodipodi:docname="eco.svg"
   xml:space="preserve"
   xmlns:inkscape="http://www.inkscape.org/namespaces/inkscape"
   xmlns:sodipodi="http://sodipodi.sourceforge.net/DTD/sodipodi-0.dtd"
   xmlns="http://www.w3.org/2000/svg"
   xmlns:svg="http://www.w3.org/2000/svg"><sodipodi:namedview
     id="namedview1"
     pagecolor="#ffffff"
     bordercolor="#000000"
     borderopacity="0.25"
     inkscape:showpageshadow="2"
     inkscape:pageopacity="0.0"
     inkscape:pagecheckerboard="0"
     inkscape:deskcolor="#d1d1d1"
     inkscape:document-units="mm"
     inkscape:zoom="0.69486532"
     inkscape:cx="565.57723"
     inkscape:cy="338.19503"
     inkscape:window-width="1920"
     inkscape:window-height="976"
     inkscape:window-x="-8"
     inkscape:window-y="-8"
     inkscape:window-maximized="1"
     inkscape:current-layer="layer1"
     showguides="true" /><defs
     id="defs1" /><g
     inkscape:label="Слой 1"
     inkscape:groupmode="layer"
     id="layer1"><g
       id="g3433"
       transform="matrix(2.0418523,0,0,2.0418523,7531.5494,5588.1201)"><path
         transform="matrix(0.26458333,0,0,0.26458333,0,87)"
         id="path3429"
         d="m -13739.625,-10516.834 -7.299,0.463 -7.299,0.465 -4.267,0.599 -4.266,0.598 -3.709,0.775 -3.707,0.774 -4.221,1.221 -4.22,1.218 -4.491,1.756 -4.49,1.756 -4.373,2.236 -4.369,2.235 -3.629,2.383 -3.629,2.38 -3.281,2.563 -3.283,2.56 -3.229,3.03 -3.228,3.029 -3.742,4.359 -3.743,4.36 -3.806,5.736 -3.805,5.736 -2.998,5.956 -2.998,5.953 -2.066,5.439 -2.065,5.44 -1.562,5.345 -1.565,5.346 -1.025,4.984 -1.028,4.987 -0.517,3.73 -0.516,3.731 3.205,-2.971 3.207,-2.969 5.549,-4.871 5.547,-4.871 4.955,-3.879 4.953,-3.877 6.748,-4.488 6.748,-4.488 4.944,-2.579 4.941,-2.58 3.965,-1.568 3.963,-1.57 2.871,-1.002 2.873,-1.004 5.648,-1.602 5.649,-1.599 4.556,-0.973 4.559,-0.973 3.764,-0.611 3.765,-0.611 3.17,-0.397 3.17,-0.394 6.739,-0.453 6.736,-0.454 5.746,0.262 5.748,0.26 4.412,0.379 4.412,0.373 5.893,0.994 5.89,0.992 4.161,1.018 4.162,1.019 6.34,2.117 6.341,2.118 2.576,1.205 2.577,1.207 h -14.274 -14.275 l -6.334,0.398 -6.334,0.399 -5.944,0.601 -5.945,0.604 -4.359,0.611 -4.36,0.611 -4.953,0.993 -4.955,0.992 -4.16,1.138 -4.162,1.141 -2.18,0.76 -2.179,0.76 -4.534,1.859 -4.535,1.861 -4.779,2.426 -4.777,2.426 -4.36,2.566 -4.359,2.567 -4.162,2.769 -4.16,2.77 -4.36,3.236 -4.359,3.236 -4.942,4.116 -4.939,4.115 -2.986,2.812 -2.987,2.815 -2.134,1.963 -2.137,1.965 -6.143,6.539 -6.14,6.539 -5.629,6.736 -5.627,6.738 -3.346,4.36 -3.346,4.359 -4.066,5.658 -4.066,5.66 -5.749,8.608 -5.748,8.607 -1.421,2.856 -1.42,2.855 -0.194,2.694 -0.191,2.691 0.635,2.139 0.634,2.136 0.991,1.688 0.988,1.687 1.832,1.614 1.832,1.611 2.039,0.803 v 0.04 l 2.039,0.8 3.764,-0.1 3.765,-0.1 2.25,-1.053 2.248,-1.05 1.797,-1.659 1.799,-1.656 4.623,-8.98 4.625,-8.979 4.957,-9.314 4.955,-9.313 4.338,-7.728 4.336,-7.727 2.043,-3.269 2.043,-3.27 h 0.291 0.291 l 2.094,0.949 2.092,0.952 2.423,1.013 2.424,1.014 6.492,2.183 6.495,2.186 6.142,1.582 6.143,1.582 5.945,1.18 5.943,1.181 3.766,0.61 3.764,0.611 4.955,0.606 4.953,0.607 7.133,0.572 7.135,0.574 8.916,0.26 8.917,0.262 5.747,-0.441 5.746,-0.44 4.867,-0.797 4.865,-0.797 4.25,-1.019 4.248,-1.02 4.85,-1.574 4.849,-1.574 4.731,-1.944 4.73,-1.945 5.576,-2.793 5.575,-2.793 4.461,-2.638 4.463,-2.641 4.755,-3.16 4.754,-3.162 4.955,-3.778 4.953,-3.775 4.954,-4.193 4.951,-4.194 7.492,-7.332 7.492,-7.33 4.606,-5.152 4.607,-5.153 3.77,-4.558 3.769,-4.557 2.693,-3.517 2.694,-3.516 2.346,-3.383 2.345,-3.383 v -0.73 -0.731 l -1.486,-1.339 -1.486,-1.34 -3.17,-2.555 -3.172,-2.553 -4.16,-3.097 -4.162,-3.098 -7.926,-5.248 -7.926,-5.25 -5.945,-3.469 -5.944,-3.469 -6.342,-3.291 -6.339,-3.291 -5.641,-2.587 -5.643,-2.588 -6.531,-2.594 -6.533,-2.594 -7.047,-2.344 -7.049,-2.343 -6.148,-1.604 -6.151,-1.601 -4.947,-1.026 -4.945,-1.025 -3.233,-0.565 -3.232,-0.564 -6.152,-0.779 -6.151,-0.782 -8.765,-0.472 z"
         style="fill:#547586;fill-opacity:1;stroke-width:0.396305" /><path
         transform="matrix(0.26458333,0,0,0.26458333,0,87)"
         id="path3421"
         d="m -13868.895,-10656.729 -1.207,1.131 -1.207,1.129 -4.8,5.377 -4.801,5.375 -3.178,3.938 -3.178,3.937 -2.798,3.766 -2.801,3.764 -2.598,3.765 -2.596,3.766 -2.828,4.488 -2.828,4.488 -3.553,6.442 -3.552,6.441 -2.325,5.121 -2.326,5.119 -1.49,3.766 -1.492,3.764 -1.555,4.756 -1.554,4.755 -0.956,3.766 -0.957,3.766 -1.091,5.547 -1.09,5.548 v 13.475 13.475 l 0.888,4.209 0.891,4.21 1.01,3.518 1.01,3.518 1.423,3.701 1.424,3.699 2.09,4.074 2.088,4.073 2.148,3.324 2.149,3.322 3.242,4.064 3.242,4.063 4.02,3.965 4.017,3.965 2.616,2.129 2.615,2.128 3.568,2.54 3.567,2.541 3.07,1.894 3.072,1.897 4.656,2.335 -0.06,0.03 4.656,2.338 h 0.279 0.282 l -1.805,-5.055 -1.803,-5.053 -1.558,-4.754 -1.559,-4.755 -1.549,-5.352 -1.549,-5.35 -0.988,-3.962 -0.986,-3.963 -0.815,-3.963 -0.816,-3.963 -0.777,-4.955 -0.778,-4.953 -0.49,-4.557 -0.492,-4.559 v -9.312 -9.313 l 0.49,-4.558 0.492,-4.557 0.598,-3.963 0.598,-3.965 0.98,-4.753 0.979,-4.756 1.949,-7.532 1.947,-7.529 0.359,-0.963 0.356,-0.963 0.279,9.483 0.281,9.484 0.575,7.373 0.574,7.371 0.605,5.311 0.608,5.308 0.355,2.577 0.354,2.576 0.418,2.802 0.416,2.803 1.408,7.502 1.406,7.5 1.584,6.496 1.582,6.494 1.574,5.446 1.575,5.447 1.984,5.746 1.984,5.744 1.817,4.309 1.814,4.308 0.213,0.694 0.215,0.693 h 0.318 0.317 l 3.039,-3.269 3.041,-3.27 3.379,-4.475 3.381,-4.476 3.103,-4.955 3.106,-4.957 2.363,-4.637 2.365,-4.637 2.008,-4.884 2.008,-4.885 1.226,-3.832 1.227,-3.832 1.16,-4.75 1.16,-4.75 0.858,-5.951 0.857,-5.954 v -8.718 -8.719 l -0.672,-4.953 -0.672,-4.955 -1.008,-4.557 -1.007,-4.558 -1.395,-4.36 -1.392,-4.359 -2.389,-5.944 -2.391,-5.945 -2.754,-5.51 -2.752,-5.509 -2.277,-4.002 -2.275,-4 -2.694,-4.36 -2.691,-4.359 -3.367,-4.955 -3.366,-4.953 -4.474,-5.946 -4.477,-5.943 -4.232,-5.094 z"
         style="fill:#df601c;fill-opacity:1;stroke-width:0.396305" /></g></g></svg>
