<?xml version="1.0" encoding="UTF-8" standalone="no"?>
<!-- Created with Inkscape (http://www.inkscape.org/) -->

<svg
   width="200mm"
   height="200mm"
   viewBox="0 0 200 200"
   version="1.1"
   id="svg1"
   inkscape:version="1.3.1 (91b66b0783, 2023-11-16)"
   sodipodi:docname="ee_c_in.svg"
   xml:space="preserve"
   xmlns:inkscape="http://www.inkscape.org/namespaces/inkscape"
   xmlns:sodipodi="http://sodipodi.sourceforge.net/DTD/sodipodi-0.dtd"
   xmlns="http://www.w3.org/2000/svg"
   xmlns:svg="http://www.w3.org/2000/svg"><sodipodi:namedview
     id="namedview1"
     pagecolor="#ffffff"
     bordercolor="#000000"
     borderopacity="0.25"
     inkscape:showpageshadow="2"
     inkscape:pageopacity="0.0"
     inkscape:pagecheckerboard="0"
     inkscape:deskcolor="#d1d1d1"
     inkscape:document-units="mm"
     inkscape:zoom="0.49134398"
     inkscape:cx="402.97634"
     inkscape:cy="400.94111"
     inkscape:window-width="1920"
     inkscape:window-height="976"
     inkscape:window-x="-8"
     inkscape:window-y="-8"
     inkscape:window-maximized="1"
     inkscape:current-layer="layer1"
     showguides="true" /><defs
     id="defs1" /><g
     inkscape:label="Слой 1"
     inkscape:groupmode="layer"
     id="layer1"><g
       id="g6267"
       transform="matrix(2.6369881,0,0,2.6369881,5091.0244,1554.8452)"><path
         sodipodi:nodetypes="cccscccccscccc"
         inkscape:connector-curvature="0"
         id="path6176"
         d="m -1911.143,-562.72548 -3.1486,-0.0466 v 3.07087 h -1.7989 c -1.7842,0 -1.8015,7.7e-4 -2.1732,0.31472 -0.4405,0.37066 -0.7318,0.99706 -0.6314,1.35542 0.1816,0.64673 0.3434,0.91018 0.6947,1.1272 0.3645,0.22547 0.5755,0.2347 5.4971,0.23422 4.927,-3.7e-4 5.1314,-0.009 5.5034,-0.23619 0.3897,-0.23763 0.7213,-0.83005 0.7213,-1.28756 0,-0.41986 -0.3703,-1.05781 -0.7485,-1.28825 -0.3097,-0.18905 -0.603,-0.21923 -2.1375,-0.21956 h -1.7784 z"
         style="fill:#df601c;fill-opacity:1;stroke-width:0.116617" /><path
         sodipodi:nodetypes="cccscccccsccccccc"
         inkscape:connector-curvature="0"
         id="path6186"
         d="m -1911.101,-569.26992 -3.1486,0.0492 v 3.03294 h -1.7906 c -1.6711,0 -1.8169,0.0178 -2.1866,0.26615 -0.2552,0.17116 -0.4575,0.44163 -0.5676,0.75789 -0.1502,0.43254 -0.1502,0.55086 0,0.98346 0.1095,0.31619 0.3124,0.58746 0.5676,0.75858 l 0.3958,0.26615 h 5.1299 c 4.933,0 5.1437,-0.009 5.5078,-0.23488 0.3393,-0.20969 0.4736,-0.42054 0.6804,-1.06863 0.1146,-0.35674 -0.1577,-1.00523 -0.5723,-1.36943 l -0.4092,-0.35929 h -1.8032 -1.8034 z"
         style="fill:#df601c;fill-opacity:1;stroke-width:0.116617" /><path
         sodipodi:nodetypes="cccccccsccccccccccccccccccccscscccccccsccccccccsccccccccccccccccccccccccccccccccccccccccccsccccccccccccccscccc"
         inkscape:connector-curvature="0"
         id="path6159"
         d="m -1894.8441,-586.83903 -4.3434,8.29408 -0.026,3.19204 -0.028,3.19257 -14.1222,-0.0956 12.3106,-3.68454 c 0.4323,-0.22249 0.6831,-0.79745 0.5553,-1.27174 -0.1545,-0.5741 -0.5961,-0.92554 -1.1642,-0.92554 -0.3153,0 -20.9208,6.04173 -21.1862,6.21202 -0.4958,0.31805 -0.672,1.12974 -0.3514,1.61903 0.3361,0.51279 0.6094,0.59085 2.0707,0.59119 h 21.8942 v 18.8123 l -14.129,-0.0956 12.3106,-3.68401 c 0.4325,-0.22262 0.6831,-0.79806 0.5553,-1.2728 -0.1254,-0.46646 -0.5292,-0.83693 -0.9776,-0.8971 l -21.3728,6.18464 c -0.5141,0.32972 -0.6805,1.16599 -0.3278,1.64743 0.3484,0.47503 0.6736,0.56261 2.0926,0.56276 h 21.4606 l -8.8575,31.0007 h 2.525 c 0.1754,-0.77663 3.7533,-13.20686 3.8242,-13.28396 0.052,-0.0571 6.3254,3.8326 7.724,4.78991 0.1458,0.0998 0.062,0.17688 -0.7699,0.70951 -0.5133,0.32859 -2.4588,1.57049 -4.3238,2.76003 -2.712,1.72982 -3.4243,2.22427 -3.5555,2.46859 -0.4374,0.81602 0.1318,1.71203 1.0869,1.71203 0.3085,0 0.9562,-0.38348 5.1258,-3.03392 2.6252,-1.6687 4.808,-3.03392 4.8503,-3.03392 0.073,0 9.9028,6.22842 10.9503,6.93343 l 5.552,0.005 -9.2593,-32.43262 0.013,-2.69441 c 0.013,-1.48191 0.034,-2.6946 0.07,-2.69494 l 14.4285,4.30257 -12.7098,0.25011 c -0.3654,0.23942 -0.549,0.57888 -0.549,1.01751 0,0.45934 0.195,0.79745 0.6016,1.04542 l 20.0102,0.17725 c 1.4182,-1.9e-4 1.7439,-0.0872 2.0913,-0.56121 0.3643,-0.49713 0.1564,-1.37311 -0.3927,-1.65725 -0.1711,-0.0886 -19.1698,-5.83578 -23.3899,-7.07554 l -0.091,-18.757 14.4286,4.3031 -12.7098,0.25011 c -0.3654,0.23942 -0.5485,0.57889 -0.5485,1.01751 0,0.45937 0.1942,0.7974 0.6011,1.0454 l 20.0557,0.17674 c 1.4613,0 1.7343,-0.0783 2.0706,-0.59119 0.3366,-0.51366 0.1201,-1.34831 -0.4207,-1.62832 -0.1971,-0.102 -11.9329,-3.65919 -22.2017,-6.72931 l -1.6915,-0.50591 -3.8735,-7.6667 z m 1.4505,1.99163 3.0594,0.006 3.1009,6.80683 0.09,28.71661 0.5649,1.9022 c 0.3106,1.04605 0.5657,1.94704 0.5657,2.00247 l -3.2083,2.30891 c -0.6507,0.77301 -0.1019,1.95064 0.899,1.92908 l 3.0356,-1.6061 c 0.038,0.0412 0.5241,1.65886 1.0805,3.5946 0.5562,1.93575 0.9996,3.53166 0.9843,3.54603 l -14.6905,-9.65729 c -0.047,-0.0407 0.1043,-0.72737 0.3546,-1.61489 l 0.4355,-1.54461 8.1158,-0.16536 c 0.8572,-0.45974 0.8057,-1.66402 -0.091,-2.1213 l -7.692,-0.15814 v -2.39988 l 0.07,-3.52574 7.5015,-0.095 c 0.8572,-0.45974 1.0168,-2.01594 0.1201,-2.47314 l -7.692,-0.0179 v -7.90027 -2.40035 l 6.4715,-0.0206 c -0.7956,2.25175 -4.6253,6.00041 -5.3857,6.92342 -0.8254,2.12608 0.5677,2.29594 1.8407,1.53134 0.5313,-0.53396 10.3804,-10.07207 3.432,-10.73824 l -6.3652,-0.14074 v -4.7997 h 3.1475 c 2.9599,0 3.1642,-0.0106 3.4359,-0.17674 0.4133,-0.25189 0.6017,-0.58296 0.5942,-1.04852 -0.013,-0.42942 -0.2497,-0.86408 -0.5947,-1.06143 -0.1411,-0.0807 -1.0023,-0.12561 -3.0107,-0.15812 l -2.8115,-0.0455 z m -5.2972,42.06306 c 0.081,-0.0847 4.3934,2.70709 4.3934,2.8448 l -4.8342,3.54656 c -0.1625,0.44021 -0.071,0.90919 0.25,1.26709 0.2093,0.23423 0.3339,0.28839 0.7421,0.32194 l 0.4908,0.0398 5.6664,-3.72949 8.5952,5.70455 -6.0031,4.00288 c -0.267,0.35981 -0.2363,0.98769 0.068,1.38647 0.2659,0.34877 0.7932,0.54176 1.202,0.43976 l 6.2725,-3.78013 c 0.041,0.0434 0.8115,2.66708 1.7134,5.83012 0.902,3.16304 1.678,5.88373 1.7246,6.04565 0.046,0.16182 0.077,0.29266 0.068,0.29094 -0.1122,-0.0209 -23.023,-14.67734 -23.0447,-14.74174 -0.039,-0.11409 2.5955,-9.36524 2.6956,-9.4692 z"
         style="fill:#547586;fill-opacity:1;stroke-width:0.0905667" /><path
         sodipodi:nodetypes="cccscccccscccc"
         inkscape:connector-curvature="0"
         id="path6176-4"
         d="m -1870.1584,-562.67126 -3.1486,-0.0466 v 3.07087 h -1.7989 c -1.7842,0 -1.8015,7.7e-4 -2.1732,0.31472 -0.4405,0.37066 -0.7318,0.99706 -0.6314,1.35542 0.1816,0.64673 0.3434,0.91018 0.6947,1.1272 0.3645,0.22547 0.5755,0.2347 5.4971,0.23422 4.927,-3.7e-4 5.1314,-0.009 5.5034,-0.23619 0.3897,-0.23763 0.7213,-0.83005 0.7213,-1.28756 0,-0.41986 -0.3703,-1.05781 -0.7485,-1.28825 -0.3097,-0.18905 -0.603,-0.21923 -2.1375,-0.21956 h -1.7784 z"
         style="fill:#df601c;fill-opacity:1;stroke-width:0.116617" /><path
         sodipodi:nodetypes="cccscccccsccccccc"
         inkscape:connector-curvature="0"
         id="path6186-0"
         d="m -1870.1164,-569.2157 -3.1486,0.0492 v 3.03294 h -1.7906 c -1.6711,0 -1.8169,0.0178 -2.1866,0.26615 -0.2552,0.17116 -0.4575,0.44163 -0.5676,0.75789 -0.1502,0.43254 -0.1502,0.55086 0,0.98346 0.1095,0.31619 0.3124,0.58746 0.5676,0.75858 l 0.3958,0.26615 h 5.1299 c 4.933,0 5.1437,-0.009 5.5078,-0.23488 0.3393,-0.20969 0.4736,-0.42054 0.6804,-1.06863 0.1146,-0.35674 -0.1577,-1.00523 -0.5723,-1.36943 l -0.4092,-0.35929 h -1.8032 -1.8034 z"
         style="fill:#df601c;fill-opacity:1;stroke-width:0.116617" /><path
         sodipodi:nodetypes="cccscccccscccc"
         inkscape:connector-curvature="0"
         id="path6176-8"
         d="m -1911.6754,-541.13868 -3.1486,-0.0466 v 3.07087 h -1.7989 c -1.7842,0 -1.8015,7.7e-4 -2.1732,0.31472 -0.4405,0.37066 -0.7318,0.99706 -0.6314,1.35542 0.1816,0.64673 0.3434,0.91018 0.6947,1.1272 0.3645,0.22547 0.5755,0.2347 5.4971,0.23422 4.927,-3.7e-4 5.1314,-0.009 5.5034,-0.23619 0.3897,-0.23763 0.7213,-0.83005 0.7213,-1.28756 0,-0.41986 -0.3703,-1.05781 -0.7485,-1.28825 -0.3097,-0.18905 -0.603,-0.21923 -2.1375,-0.21956 h -1.7784 z"
         style="fill:#df601c;fill-opacity:1;stroke-width:0.116617" /><path
         sodipodi:nodetypes="cccscccccsccccccc"
         inkscape:connector-curvature="0"
         id="path6186-5"
         d="m -1911.6334,-547.68312 -3.1486,0.0492 v 3.03294 h -1.7906 c -1.6711,0 -1.8169,0.0178 -2.1866,0.26615 -0.2552,0.17116 -0.4575,0.44163 -0.5676,0.75789 -0.1502,0.43254 -0.1502,0.55086 0,0.98346 0.1095,0.31619 0.3124,0.58746 0.5676,0.75858 l 0.3958,0.26615 h 5.1299 c 4.933,0 5.1437,-0.009 5.5078,-0.23488 0.3393,-0.20969 0.4736,-0.42054 0.6804,-1.06863 0.1146,-0.35674 -0.1577,-1.00523 -0.5723,-1.36943 l -0.4092,-0.35929 h -1.8032 -1.8034 z"
         style="fill:#df601c;fill-opacity:1;stroke-width:0.116617" /><path
         sodipodi:nodetypes="cccscccccscccc"
         inkscape:connector-curvature="0"
         id="path6176-7"
         d="m -1869.8769,-541.13868 -3.1486,-0.0466 v 3.07087 h -1.7989 c -1.7842,0 -1.8015,7.7e-4 -2.1732,0.31472 -0.4405,0.37066 -0.7318,0.99706 -0.6314,1.35542 0.1816,0.64673 0.3434,0.91018 0.6947,1.1272 0.3645,0.22547 0.5755,0.2347 5.4971,0.23422 4.927,-3.7e-4 5.1314,-0.009 5.5034,-0.23619 0.3897,-0.23763 0.7213,-0.83005 0.7213,-1.28756 0,-0.41986 -0.3703,-1.05781 -0.7485,-1.28825 -0.3097,-0.18905 -0.603,-0.21923 -2.1375,-0.21956 h -1.7784 z"
         style="fill:#df601c;fill-opacity:1;stroke-width:0.116617" /><path
         sodipodi:nodetypes="cccscccccsccccccc"
         inkscape:connector-curvature="0"
         id="path6186-9"
         d="m -1869.8349,-547.68312 -3.1486,0.0492 v 3.03294 h -1.7906 c -1.6711,0 -1.8169,0.0178 -2.1866,0.26615 -0.2552,0.17116 -0.4575,0.44163 -0.5676,0.75789 -0.1502,0.43254 -0.1502,0.55086 0,0.98346 0.1095,0.31619 0.3124,0.58746 0.5676,0.75858 l 0.3958,0.26615 h 5.1299 c 4.933,0 5.1437,-0.009 5.5078,-0.23488 0.3393,-0.20969 0.4736,-0.42054 0.6804,-1.06863 0.1146,-0.35674 -0.1577,-1.00523 -0.5723,-1.36943 l -0.4092,-0.35929 h -1.8032 -1.8034 z"
         style="fill:#df601c;fill-opacity:1;stroke-width:0.116617" /></g></g></svg>
