<?xml version="1.0" encoding="UTF-8" standalone="no"?>
<!-- Created with Inkscape (http://www.inkscape.org/) -->

<svg
   width="200mm"
   height="200mm"
   viewBox="0 0 200 200"
   version="1.1"
   id="svg1"
   inkscape:version="1.3.1 (91b66b0783, 2023-11-16)"
   sodipodi:docname="ethernet_fr.svg"
   xml:space="preserve"
   xmlns:inkscape="http://www.inkscape.org/namespaces/inkscape"
   xmlns:sodipodi="http://sodipodi.sourceforge.net/DTD/sodipodi-0.dtd"
   xmlns="http://www.w3.org/2000/svg"
   xmlns:svg="http://www.w3.org/2000/svg"><sodipodi:namedview
     id="namedview1"
     pagecolor="#ffffff"
     bordercolor="#000000"
     borderopacity="0.25"
     inkscape:showpageshadow="2"
     inkscape:pageopacity="0.0"
     inkscape:pagecheckerboard="0"
     inkscape:deskcolor="#d1d1d1"
     inkscape:document-units="mm"
     inkscape:zoom="0.49134398"
     inkscape:cx="675.69771"
     inkscape:cy="325.63745"
     inkscape:window-width="1920"
     inkscape:window-height="976"
     inkscape:window-x="-8"
     inkscape:window-y="-8"
     inkscape:window-maximized="1"
     inkscape:current-layer="layer1"
     showguides="true" /><defs
     id="defs1" /><g
     inkscape:label="Слой 1"
     inkscape:groupmode="layer"
     id="layer1"><g
       id="g62"
       transform="matrix(2.4432068,0,0,2.4432068,-804.73855,-38.276172)"><path
         id="path2-6-3-0"
         style="fill:#df601c;fill-opacity:1;stroke:#df601c;stroke-width:0.0739877;stroke-opacity:1"
         d="m 360.84646,29.949552 c -1.32649,4.9e-5 -2.40192,1.0754 -2.40192,2.40192 v 2.401921 h -4.80384 c -1.32658,4.9e-5 -2.402,1.075844 -2.40192,2.402437 v 7.205762 h -7.20576 c -1.32666,-9e-5 -2.40244,1.075302 -2.40244,2.401921 v 33.627404 c 0,1.326619 1.07578,2.402011 2.40244,2.401921 h 52.84277 c 1.32658,0 2.40192,-1.075367 2.40192,-2.401921 V 46.763513 c 0,-1.326553 -1.07534,-2.401921 -2.40192,-2.401921 h -7.20576 V 37.15583 c 8e-5,-1.326593 -1.07535,-2.402388 -2.40193,-2.402437 h -4.80384 v -2.401921 c 0,-1.326553 -1.07535,-2.40192 -2.40192,-2.40192 z m -16.18971,32.720483 h 5.74332 v 18.160649 h -5.74332 z m 7.68997,0 h 5.7428 v 18.160649 h -5.7428 z m 7.68946,0 h 5.74331 v 18.160649 h -5.74331 z m 7.68997,0 h 5.7428 v 18.160649 h -5.7428 z m 7.68945,0 h 5.74332 v 18.160649 h -5.74332 z m 7.68945,0 h 5.74332 v 18.160649 h -5.74332 z m 7.68997,0 h 5.7428 v 18.160649 h -5.7428 z" /><path
         style="fill:#547586;fill-opacity:1;stroke-width:0.0739877"
         id="path4-2-0-1"
         d="m 341.63058,17.939858 a 9.6078416,9.6078416 0 0 0 -9.60776,9.607907 v 57.647049 a 9.6078416,9.6078416 0 0 0 9.60776,9.607719 h 57.64705 a 9.6078416,9.6078416 0 0 0 9.60784,-9.607719 V 27.547765 a 9.6078416,9.6078416 0 0 0 -9.60784,-9.607907 z m -4.80384,9.607907 a 4.8039206,4.8039206 0 0 1 4.80384,-4.804044 h 57.64705 a 4.8039206,4.8039206 0 0 1 4.804,4.804044 v 57.647049 a 4.8039206,4.8039206 0 0 1 -4.804,4.803855 h -57.64705 a 4.8039206,4.8039206 0 0 1 -4.80384,-4.803855 z"
         inkscape:connector-curvature="0" /></g></g></svg>
