<?xml version="1.0" encoding="UTF-8" standalone="no"?>
<!-- Created with Inkscape (http://www.inkscape.org/) -->

<svg
   width="200mm"
   height="200mm"
   viewBox="0 0 200 200"
   version="1.1"
   id="svg1"
   inkscape:version="1.3.1 (91b66b0783, 2023-11-16)"
   sodipodi:docname="exit.svg"
   xml:space="preserve"
   xmlns:inkscape="http://www.inkscape.org/namespaces/inkscape"
   xmlns:sodipodi="http://sodipodi.sourceforge.net/DTD/sodipodi-0.dtd"
   xmlns="http://www.w3.org/2000/svg"
   xmlns:svg="http://www.w3.org/2000/svg"><sodipodi:namedview
     id="namedview1"
     pagecolor="#ffffff"
     bordercolor="#000000"
     borderopacity="0.25"
     inkscape:showpageshadow="2"
     inkscape:pageopacity="0.0"
     inkscape:pagecheckerboard="0"
     inkscape:deskcolor="#d1d1d1"
     inkscape:document-units="mm"
     inkscape:zoom="0.34743266"
     inkscape:cx="451.88613"
     inkscape:cy="411.59055"
     inkscape:window-width="1920"
     inkscape:window-height="976"
     inkscape:window-x="-8"
     inkscape:window-y="-8"
     inkscape:window-maximized="1"
     inkscape:current-layer="layer1"
     showguides="true" /><defs
     id="defs1" /><g
     inkscape:label="Слой 1"
     inkscape:groupmode="layer"
     id="layer1"><g
       id="g4761"
       transform="matrix(2.3321662,0,0,2.3321662,5339.4915,-4948.0704)"><path
         inkscape:connector-curvature="0"
         id="path4731"
         d="m -2228.4971,2174.9574 -2.5098,0.035 -2.5097,0.035 -0.033,6.7489 -0.033,6.7488 h -7.7933 -7.7934 v 2.8482 2.8482 l 1.8694,0.035 c 1.0281,0.018 4.7018,0.03 8.1637,0.023 6.2677,-0.012 6.2979,-0.014 7.0974,-0.3082 0.6348,-0.234 0.981,-0.4755 1.6524,-1.153 0.8963,-0.9044 1.1955,-1.384 1.5718,-2.519 0.2107,-0.6356 0.2348,-1.3431 0.274,-8.019 z"
         style="fill:#547586;fill-opacity:1;stroke-width:0.126739" /><path
         inkscape:connector-curvature="0"
         id="path4729"
         d="m -2224.7174,2146.5943 c -0.07,-0.025 -0.1177,1.5295 -0.1177,3.8972 v 3.9394 h -24.2707 v 17.9666 l 24.2717,0.033 v 3.6335 3.6337 l 1.109,-1.0674 c 1.8061,-1.7388 12.6285,-12.3492 14.251,-13.9718 0.8229,-0.8231 1.4964,-1.5422 1.4964,-1.5981 0,-0.056 -1.098,-1.1757 -2.4398,-2.4883 -1.3418,-1.3126 -5.0816,-4.985 -8.3106,-8.1608 -3.229,-3.1758 -5.9238,-5.793 -5.9884,-5.8164 z"
         style="fill:#df601c;fill-opacity:1;stroke-width:0.126739"
         sodipodi:nodetypes="ssccccccsssssss" /><path
         inkscape:connector-curvature="0"
         id="path4727"
         d="m -2249.1737,2134.6513 0.034,2.8875 0.034,2.8878 7.7628,0.033 7.7628,0.033 v 5.1866 5.1865 l 0.2851,0.055 h 3e-4 c 0.4519,0.087 4.3619,0.098 4.5839,0.013 0.1783,-0.068 0.1978,-0.6462 0.1978,-5.2279 -0.01,-5.534 -0.068,-6.4028 -0.5795,-7.6801 -0.4613,-1.1522 -1.6572,-2.4329 -2.7378,-2.9319 l -0.799,-0.369 -8.2723,-0.036 z"
         style="fill:#547586;fill-opacity:1;stroke-width:0.126739" /><path
         inkscape:connector-curvature="0"
         id="path4722"
         d="m -2258.495,2128.4933 c -0.4319,-0.056 -0.9313,0.1318 -3.8548,1.4508 -5.5302,2.4952 -12.7884,5.7929 -16.1301,7.3287 -1.7267,0.7935 -3.2096,1.443 -3.2953,1.4433 -0.9041,0.01 -2.0558,0.895 -2.6315,2.0356 -0.7983,1.5814 -0.7676,0.5517 -0.7283,24.1987 0.033,20.0836 0.05,21.5246 0.2577,22.1324 0.624,1.8262 1.5948,2.8553 2.9462,3.122 0.2091,0.041 2.2908,0.9412 4.626,2.0001 8.134,3.6885 11.2226,5.091 12.167,5.525 0.5228,0.2403 2.1197,0.9722 3.5487,1.6263 2.1811,0.9984 2.6693,1.1779 3.0417,1.1184 1.3126,-0.2097 2.3566,-1.4221 2.8437,-3.3019 0.1812,-0.6994 0.1975,-3.9288 0.1679,-33.0065 l -0.033,-32.2314 -0.2938,-0.7272 c -0.6207,-1.5369 -1.6369,-2.585 -2.6318,-2.7143 z m -6.3461,30.0164 c 2.3015,-0.1053 4.3923,1.7025 4.3923,4.2228 0,1.6564 -0.9116,3.0979 -2.4435,3.8633 -0.6682,0.3338 -0.8956,0.3818 -1.7909,0.3755 -1.5046,-0.011 -2.7579,-0.6205 -3.4861,-1.697 -1.5743,-2.3278 -0.7917,-5.2193 1.7244,-6.3712 0.5305,-0.2428 1.0727,-0.369 1.6038,-0.3934 z"
         style="fill:#547586;fill-opacity:1;stroke-width:0.126739" /></g></g></svg>
