<?xml version="1.0" encoding="UTF-8" standalone="no"?>
<!-- Created with Inkscape (http://www.inkscape.org/) -->

<svg
   width="200mm"
   height="200mm"
   viewBox="0 0 200 200"
   version="1.1"
   id="svg1"
   inkscape:version="1.3.1 (91b66b0783, 2023-11-16)"
   sodipodi:docname="eye.svg"
   xml:space="preserve"
   xmlns:inkscape="http://www.inkscape.org/namespaces/inkscape"
   xmlns:sodipodi="http://sodipodi.sourceforge.net/DTD/sodipodi-0.dtd"
   xmlns="http://www.w3.org/2000/svg"
   xmlns:svg="http://www.w3.org/2000/svg"><sodipodi:namedview
     id="namedview1"
     pagecolor="#ffffff"
     bordercolor="#000000"
     borderopacity="0.25"
     inkscape:showpageshadow="2"
     inkscape:pageopacity="0.0"
     inkscape:pagecheckerboard="0"
     inkscape:deskcolor="#d1d1d1"
     inkscape:document-units="mm"
     inkscape:zoom="0.49134398"
     inkscape:cx="628.88732"
     inkscape:cy="468.10383"
     inkscape:window-width="1920"
     inkscape:window-height="976"
     inkscape:window-x="-8"
     inkscape:window-y="-8"
     inkscape:window-maximized="1"
     inkscape:current-layer="layer1"
     showguides="true" /><defs
     id="defs1" /><g
     inkscape:label="Слой 1"
     inkscape:groupmode="layer"
     id="layer1"><g
       id="g4868"
       transform="matrix(2.6434042,0,0,2.6434042,6024.5002,-2527.2765)"><path
         inkscape:connector-curvature="0"
         id="path4846"
         d="m -2242.5826,983.06703 0.1381,0.1933 c 1.2578,1.75933 1.6358,3.97979 1.0323,6.06249 -0.69,2.38056 -2.6785,4.24917 -5.1442,4.83393 -1.0047,0.23827 -2.5894,0.19543 -3.5223,-0.0953 -0.8112,-0.25282 -1.7919,-0.77102 -2.4259,-1.28192 -0.6013,-0.48455 -0.5416,-0.54036 -0.7151,0.67033 -0.247,1.7217 0.044,4.18671 0.6844,5.79285 1.6548,4.15189 5.304,7.02519 9.673,7.61659 0.9125,0.1235 3.0441,0.037 3.9518,-0.1613 2.3431,-0.5105 4.3845,-1.6169 6.0481,-3.2778 4.2027,-4.19572 4.6885,-10.84458 1.1376,-15.5689 -1.4887,-1.98068 -3.5286,-3.44508 -5.8841,-4.22399 -1.2195,-0.40329 -2.2653,-0.56026 -3.7327,-0.56026 z"
         style="fill:#df601c;fill-opacity:1;stroke-width:0.0859095" /><path
         inkscape:connector-curvature="0"
         id="path4841"
         d="m -2241.4018,972.98357 c -1.0897,0.004 -3.3774,0.12951 -4.2955,0.23558 -1.1241,0.12987 -1.9366,0.244 -2.1907,0.30757 -0.1654,0.0414 -0.552,0.11897 -0.8591,0.17249 -2.0402,0.35553 -4.7892,1.1764 -7.4311,2.2192 -1.3983,0.55194 -4.0974,1.91857 -5.3694,2.71874 -1.164,0.73223 -2.4611,1.61694 -3.1961,2.17962 -0.4749,0.36355 -0.9649,0.73588 -1.0889,0.82755 -1.3212,0.97713 -4.8801,4.55761 -6.0251,6.06183 -1.9036,2.50046 -2.8177,3.90445 -3.9713,6.09958 -0.2359,0.44887 -0.4631,0.85279 -0.5049,0.89768 -0.1497,0.16061 -0.069,0.42103 0.4076,1.31801 1.9526,3.67288 3.9515,6.41458 6.7669,9.28078 4.1057,4.1799 8.9319,7.2898 14.5275,9.3613 1.2406,0.4592 3.3603,1.0969 4.2096,1.2665 0.1417,0.028 0.4896,0.1038 0.7732,0.1677 1.6921,0.3818 2.3801,0.4909 4.5961,0.7288 2.0556,0.2206 5.2363,0.22 7.3453,-10e-4 3.0067,-0.3157 4.1193,-0.5218 7.1171,-1.3177 2.4602,-0.6533 6.3426,-2.3257 8.9777,-3.8675 6.3717,-3.7281 11.5917,-9.2398 14.9974,-15.83551 l 0.4096,-0.79331 -0.4945,-0.96783 c -1.8064,-3.53525 -3.9701,-6.48498 -6.9526,-9.47807 -2.629,-2.63823 -4.5717,-4.17446 -7.597,-6.00779 -1.0844,-0.65714 -3.6548,-1.98579 -4.6022,-2.37896 -0.189,-0.0784 -0.5949,-0.24747 -0.902,-0.37552 -1.3766,-0.57398 -3.6701,-1.31929 -5.1546,-1.67507 -0.1653,-0.0396 -0.552,-0.13307 -0.8591,-0.20772 -0.7304,-0.17753 -1.774,-0.37246 -2.5773,-0.4814 -0.3544,-0.048 -0.857,-0.12313 -1.1169,-0.16694 -0.777,-0.13104 -3.5605,-0.29348 -4.9397,-0.28828 z m 0.532,3.51491 c 2.9295,0.0716 5.8496,0.83168 8.48,2.2922 1.6771,0.93129 3.3504,2.22344 4.561,3.52247 6.7663,7.25988 6.6939,18.41845 -0.1651,25.48445 -2.8215,2.9065 -6.3365,4.759 -10.3103,5.4332 -1.1988,0.2035 -3.8645,0.2856 -5.0277,0.1551 -6.9747,-0.7828 -12.9674,-5.4581 -15.4072,-12.0201 -1.1833,-3.18248 -1.4459,-7.09589 -0.6977,-10.39509 1.0553,-4.65302 3.8124,-8.66006 7.8163,-11.35935 3.2021,-2.15879 6.9842,-3.20491 10.7507,-3.11288 z m -2.5548,3.63722 12.4242,4.60891 z"
         style="fill:#547586;fill-opacity:1;stroke-width:0.0859095" /></g></g></svg>
