<?xml version="1.0" encoding="UTF-8" standalone="no"?>
<!-- Created with Inkscape (http://www.inkscape.org/) -->

<svg
   width="200mm"
   height="200mm"
   viewBox="0 0 200 200"
   version="1.1"
   id="svg1"
   inkscape:version="1.3.1 (91b66b0783, 2023-11-16)"
   sodipodi:docname="factoryset.svg"
   xml:space="preserve"
   xmlns:inkscape="http://www.inkscape.org/namespaces/inkscape"
   xmlns:sodipodi="http://sodipodi.sourceforge.net/DTD/sodipodi-0.dtd"
   xmlns="http://www.w3.org/2000/svg"
   xmlns:svg="http://www.w3.org/2000/svg"><sodipodi:namedview
     id="namedview1"
     pagecolor="#ffffff"
     bordercolor="#000000"
     borderopacity="0.25"
     inkscape:showpageshadow="2"
     inkscape:pageopacity="0.0"
     inkscape:pagecheckerboard="0"
     inkscape:deskcolor="#d1d1d1"
     inkscape:document-units="mm"
     inkscape:zoom="0.34743266"
     inkscape:cx="118.00848"
     inkscape:cy="736.83343"
     inkscape:window-width="1344"
     inkscape:window-height="960"
     inkscape:window-x="554"
     inkscape:window-y="14"
     inkscape:window-maximized="0"
     inkscape:current-layer="layer1"
     showguides="true" /><defs
     id="defs1" /><g
     inkscape:label="Слой 1"
     inkscape:groupmode="layer"
     id="layer1"><path
       style="opacity:1;fill:none;fill-opacity:1;stroke:#547586;stroke-width:30;stroke-dasharray:none;stroke-dashoffset:20.512;stroke-opacity:1"
       d="m -415.80001,-508.70767 h 293.95386 c 70.823074,0 70.823074,111.1846 0,111.1846 h -170.5846"
       id="path17"
       sodipodi:nodetypes="cccc" /><g
       id="g26"><path
         id="path65-3-4-1-6-5"
         style="fill:#547586;fill-opacity:1;stroke-width:1.2392"
         d="m 46.00173,79.361525 -14.128489,4.663735 1.890783,16.24415 -2.081133,1.77325 c -1.144909,0.97532 -2.546936,2.26151 -3.115484,2.85791 -0.568912,0.59647 -1.144177,1.14408 -1.273284,1.11395 l -15.37373,-3.6305 -6.2527736,13.0223 12.3292576,9.79082 -0.318385,2.24264 c -0.174865,1.23338 -0.331918,3.29693 -0.349278,4.58591 l -0.03264,2.34331 -13.9444519,8.22832 4.5797841,14.03904 16.1503928,-1.98889 1.568092,2.00478 c 0.86278,1.10234 2.268926,2.70111 3.124717,3.5515 0.856247,0.8502 1.626157,1.67216 1.590212,1.81902 l -3.700344,15.02103 13.405277,6.54762 9.277757,-12.39582 2.592082,0.32801 c 1.425716,0.18018 5.36924,0.22156 6.434439,0.20683 l 8.603046,13.24033 13.518563,-4.63612 -2.035352,-15.11077 0.867674,-0.55169 c 1.236949,-0.78766 4.553181,-3.62866 5.786473,-4.95736 0.701988,-0.75582 1.241019,-1.16133 1.605522,-1.07015 l 14.687993,3.68113 6.55273,-13.42997 -12.470948,-9.47123 0.27609,-2.02899 c 0.151636,-1.11605 0.264917,-3.17036 0.250993,-4.565 -0.01462,-1.39416 -0.0802,-2.80338 0.111905,-2.926 l 12.60938,-8.04388 -4.39958,-13.75899 -15.322555,1.79588 -1.199536,-1.57254 c -0.659959,-0.865 -2.045672,-2.44787 -3.079411,-3.51697 L 82.858981,102.86371 86.865913,87.59377 73.437255,81.037649 63.766299,93.645033 61.45933,93.353411 c -1.268741,-0.160275 -2.950946,-0.354721 -4.682,-0.07697 l -2.749088,0.441198 z m 7.800439,34.648845 c 10.764025,-1.32572 20.499007,5.79179 21.743346,15.8972 1.244231,10.10515 -6.472707,19.37153 -17.236756,20.6972 -10.76507,1.32575 -20.500155,-5.79173 -21.744219,-15.89749 -1.244564,-10.10533 6.473106,-19.37187 17.237629,-20.69691 z"
         sodipodi:nodetypes="cccssscccssccccssscccsccccssscccssscccssccccssccsssss" /><path
         style="opacity:1;fill:#df601c;fill-opacity:1;stroke-width:0.791305"
         d="M 3.3521241,52.342493 V 68.46057 L 158.69473,68.244958 c 30.5348,-0.04238 28.23947,59.173482 0.57511,59.077722 h -23.52973 l 20.88679,-16.33694 -20.88679,-5.75488 -34.05132,29.81908 34.05132,30.09988 20.88679,-5.75487 -20.88679,-16.33692 c -0.49879,-0.39014 7.18067,0 22.68078,0 50.54228,0 51.66925,-90.720475 -0.81939,-90.720475 z"
         id="path3"
         sodipodi:nodetypes="ccssccccccsscc" /></g><rect
       style="opacity:0.782456;fill:#ff0000;fill-opacity:1;stroke:none;stroke-width:27.6782;stroke-dasharray:none;stroke-dashoffset:20.512;stroke-opacity:1"
       id="rect26"
       width="39.12318"
       height="30.600788"
       x="-269.10779"
       y="-645.92859"
       ry="0" /></g></svg>
