<?xml version="1.0" encoding="UTF-8" standalone="no"?>
<!-- Created with Inkscape (http://www.inkscape.org/) -->

<svg
   width="200mm"
   height="200mm"
   viewBox="0 0 200 200"
   version="1.1"
   id="svg1"
   inkscape:version="1.3.1 (91b66b0783, 2023-11-16)"
   sodipodi:docname="factoryset.svg"
   xml:space="preserve"
   xmlns:inkscape="http://www.inkscape.org/namespaces/inkscape"
   xmlns:sodipodi="http://sodipodi.sourceforge.net/DTD/sodipodi-0.dtd"
   xmlns="http://www.w3.org/2000/svg"
   xmlns:svg="http://www.w3.org/2000/svg"><sodipodi:namedview
     id="namedview1"
     pagecolor="#ffffff"
     bordercolor="#000000"
     borderopacity="0.25"
     inkscape:showpageshadow="2"
     inkscape:pageopacity="0.0"
     inkscape:pagecheckerboard="0"
     inkscape:deskcolor="#d1d1d1"
     inkscape:document-units="mm"
     inkscape:zoom="0.49134398"
     inkscape:cx="500.66758"
     inkscape:cy="461.99813"
     inkscape:window-width="1920"
     inkscape:window-height="976"
     inkscape:window-x="-8"
     inkscape:window-y="-8"
     inkscape:window-maximized="1"
     inkscape:current-layer="layer1"
     showguides="true" /><defs
     id="defs1" /><g
     inkscape:label="Слой 1"
     inkscape:groupmode="layer"
     id="layer1"><g
       id="g20"><path
         id="path65"
         style="fill:#547586;fill-opacity:1;stroke-width:1.2582"
         d="m 70.407946,19.08513 -15.106624,0.07803 -3.248484,16.283777 -2.564717,1.062714 c -1.410451,0.584676 -3.166557,1.389384 -3.902603,1.787837 -0.735785,0.398453 -1.462728,0.74775 -1.577946,0.678047 L 30.289811,30.6655 20.180756,41.292388 l 8.851796,13.310985 -1.007837,2.06691 c -0.554245,1.137099 -1.350891,3.081509 -1.770411,4.321343 l -0.763355,2.253912 -16.0426765,3.59258 0.057219,14.993486 16.2244775,3.124423 0.888456,2.42661 c 0.488964,1.334506 1.348031,3.318448 1.909038,4.407172 0.561527,1.089243 1.04867,2.123609 0.968043,2.254172 l -8.2679,13.355719 10.904921,10.51375 12.836065,-9.07703 2.401642,1.12669 c 1.320981,0.61953 5.117989,1.89161 6.151574,2.20996 l 4.174914,15.47907 14.508424,-0.25489 2.75458,-15.23432 1.010698,-0.26191 c 1.440881,-0.37479 5.532567,-2.08356 7.138863,-2.98164 0.914205,-0.51107 1.561822,-0.73422 1.88537,-0.53213 l 13.039713,8.14462 10.52624,-10.92677 -9.089,-13.046214 0.90068,-1.874446 c 0.49547,-1.030724 1.24634,-2.979815 1.66846,-4.331487 0.42186,-1.351671 0.79846,-2.733252 1.02266,-2.791772 l 14.69465,-3.831859 0.0494,-14.666817 -15.36437,-3.052379 -0.66764,-1.893433 c -0.36724,-1.041907 -1.21148,-3.003742 -1.875747,-4.360095 L 98.69187,53.291231 107.33378,39.791423 96.408828,29.262328 83.127233,38.420505 80.989319,37.418131 C 79.813727,36.866747 78.249565,36.153328 76.490077,35.881017 L 73.696224,35.448233 Z M 67.118888,54.9961 C 77.932259,57.078355 85.112996,66.995466 83.157923,77.146916 81.203111,87.298105 70.852695,93.839289 60.039324,91.757034 49.225954,89.674779 42.044176,79.757147 43.999509,69.605698 45.954321,59.454248 56.305518,52.913064 67.118888,54.9961 Z"
         sodipodi:nodetypes="cccssscccssccccssscccsccccssscccssscccssccccssccsssss" /><path
         id="path65-3"
         style="fill:#df601c;fill-opacity:1;stroke-width:1.2582"
         d="m 147.12316,67.221742 -15.10662,0.02601 -3.31897,16.269733 -2.56914,1.051791 c -1.41331,0.578433 -3.17306,1.375339 -3.9104,1.770671 -0.73761,0.395332 -1.46611,0.741508 -1.58107,0.671544 l -13.68187,-8.369854 -10.155092,10.583193 8.794312,13.34896 -1.0172,2.06274 c -0.55918,1.1345 -1.36389,3.07553 -1.78887,4.31354 l -0.77324,2.25028 -16.057762,3.52313 -0.02601,14.99375 16.210432,3.19464 0.87805,2.43052 c 0.48325,1.33658 1.33373,3.32417 1.89006,4.41549 0.55684,1.09133 1.0393,2.12803 0.95816,2.25833 l -8.325645,13.31957 10.859405,10.56083 12.87508,-9.02111 2.3967,1.1371 c 1.31838,0.62524 5.10967,1.91371 6.14195,2.23674 l 4.10755,15.49702 14.50947,-0.19247 2.82064,-15.2221 1.01174,-0.25749 c 1.4427,-0.36828 5.54141,-2.0591 7.15187,-2.95042 0.91654,-0.50691 1.56494,-0.72746 1.88771,-0.52408 l 13.00434,8.20158 10.57357,-10.88151 -9.0323,-13.08549 0.90875,-1.87002 c 0.49962,-1.02865 1.25934,-2.97462 1.68744,-4.32447 0.42732,-1.34959 0.81017,-2.72987 1.03436,-2.78735 l 14.7113,-3.76788 0.11183,-14.66655 -15.35058,-3.11871 -0.65932,-1.89681 c -0.36282,-1.04347 -1.19848,-3.0092 -1.85728,-4.3679 l -1.19666,-2.47056 8.70016,-13.462615 -10.87917,-10.576431 -13.32139,9.100699 -2.13323,-1.011738 c -1.17325,-0.556326 -2.73455,-1.276506 -4.49248,-1.55662 l -2.79177,-0.444748 z m -3.44485,35.896148 c 10.80401,2.12907 17.94209,12.07765 15.94306,22.22052 -1.99902,10.1426 -12.37753,16.63879 -23.18154,14.50972 -10.80504,-2.12933 -17.94313,-12.07791 -15.94384,-22.22104 1.99877,-10.14287 12.37805,-16.63905 23.18232,-14.5092 z"
         sodipodi:nodetypes="cccssscccssccccssscccsccccssscccssscccssccccssccsssss" /></g></g></svg>
