<?xml version="1.0" encoding="UTF-8" standalone="no"?>
<!-- Created with Inkscape (http://www.inkscape.org/) -->

<svg
   width="200mm"
   height="200mm"
   viewBox="0 0 200 200"
   version="1.1"
   id="svg1"
   inkscape:version="1.3.1 (91b66b0783, 2023-11-16)"
   sodipodi:docname="feather.svg"
   xml:space="preserve"
   xmlns:inkscape="http://www.inkscape.org/namespaces/inkscape"
   xmlns:sodipodi="http://sodipodi.sourceforge.net/DTD/sodipodi-0.dtd"
   xmlns="http://www.w3.org/2000/svg"
   xmlns:svg="http://www.w3.org/2000/svg"><sodipodi:namedview
     id="namedview1"
     pagecolor="#ffffff"
     bordercolor="#000000"
     borderopacity="0.25"
     inkscape:showpageshadow="2"
     inkscape:pageopacity="0.0"
     inkscape:pagecheckerboard="0"
     inkscape:deskcolor="#d1d1d1"
     inkscape:document-units="mm"
     inkscape:zoom="0.49134398"
     inkscape:cx="398.90587"
     inkscape:cy="480.31524"
     inkscape:window-width="1920"
     inkscape:window-height="976"
     inkscape:window-x="-8"
     inkscape:window-y="-8"
     inkscape:window-maximized="1"
     inkscape:current-layer="layer1"
     showguides="true" /><defs
     id="defs1" /><g
     inkscape:label="Слой 1"
     inkscape:groupmode="layer"
     id="layer1"><g
       id="g50"
       transform="matrix(1.3622829,0,0,1.3622829,-983.86267,2098.2711)"><path
         style="fill:#df601c;fill-opacity:1;stroke-width:0.182927"
         d="m 729.48981,-1399.0862 c -0.5168,-0.8362 4.3294,-13.9711 9.2457,-25.059 l 1.6493,-3.7197 -1.3261,-2.2254 c -1.551,-2.6027 -3.2773,-5.19 -5.0853,-7.6217 l -1.2922,-1.7378 0.5404,-0.056 c 0.297,-0.031 1.7461,0.1162 3.22,0.3279 1.474,0.2115 2.7226,0.3421 2.7745,0.2901 0.072,-0.072 -1.2061,-4.9784 -1.898,-7.2835 -0.1421,-0.472 0.2471,-0.4043 1.8366,0.3201 1.8628,0.8489 1.9737,0.8405 1.7983,-0.1375 -0.076,-0.4276 -0.133,-2.5061 -0.1253,-4.6189 0.015,-3.0613 0.092,-4.2872 0.402,-6.0366 0.8651,-4.8853 3.4337,-10.63 6.9862,-15.6251 1.362,-1.9153 4.7229,-5.7365 5.332,-6.0626 0.4517,-0.2416 0.5081,-0.62 -0.6704,4.4928 -1.8405,7.9848 -2.6702,12.8929 -2.9995,17.7437 -0.2275,3.3515 -0.2489,7.7285 -0.037,7.4908 0.086,-0.095 0.3793,-1.7789 0.6532,-3.7408 1.4342,-10.273 3.1601,-17.4709 5.7895,-24.1462 1.0209,-2.5914 3.8987,-8.1651 5.6543,-10.9508 3.3531,-5.3205 5.5383,-8.0957 9.2642,-11.7656 3.7346,-3.6785 7.5369,-6.7658 11.1945,-9.0899 1.8211,-1.1572 7.5585,-3.9962 8.4112,-4.1622 0.5906,-0.1147 0.6014,-0.1055 0.4777,0.4103 -0.069,0.2903 -0.8106,2.5859 -1.6469,5.101 -0.8362,2.5152 -1.7336,5.3963 -1.994,6.4025 -1.114,4.302 -2.0005,8.9477 -1.8905,9.9076 0.063,0.5528 0.4133,-0.1627 4.1761,-8.5358 5.5393,-12.3256 7.8795,-16.8991 10.3427,-20.2133 1.163,-1.5644 3.3716,-3.7525 5.1857,-5.1372 3.6216,-2.7643 6.6939,-4.5519 11.5437,-6.7167 1.4588,-0.6512 3.503,-1.5636 4.5425,-2.0277 1.0395,-0.4641 2.0112,-0.8439 2.1592,-0.8439 0.1885,0 -0.047,0.5909 -0.7859,1.9665 -0.5804,1.0815 -1.4518,2.7073 -1.9363,3.6127 -1.8606,3.477 -4.5445,8.9146 -4.4862,9.0895 0.034,0.1009 1.4417,-1.5073 3.1292,-3.5731 5.5506,-6.7948 7.7554,-8.4424 12.6518,-9.4551 6.0248,-1.2462 10.0533,-0.9075 16.8091,1.4135 10.1131,3.4742 13.7028,7.97 13.7018,17.1593 -5e-4,3.7234 -0.8299,7.3225 -2.45,10.6301 -1.1967,2.4432 -6.1233,8.2337 -9.687,11.3856 -5.1225,4.5307 -12.6718,8.2706 -19.9929,9.9044 -5.8426,1.3038 -5.9187,1.3099 -18.0948,1.4517 -7.2916,0.086 -11.1819,0.1949 -11.307,0.3198 -0.4274,0.4274 5.0656,1.9846 8.9782,2.5453 1.7482,0.2506 3.0933,0.2842 7.9573,0.1991 8.4193,-0.1468 13.3769,-0.6752 21.4939,-2.2889 0.9557,-0.19 1.77,-0.318 1.8095,-0.2843 0.3219,0.2742 -5.7705,5.0887 -10.4986,8.2965 -2.3397,1.5874 -5.0913,3.6184 -9.3659,6.9131 -8.8782,6.8426 -10.8162,7.9745 -19.8108,11.5699 -2.5655,1.0256 -4.788,1.9327 -4.9389,2.0158 -0.4007,0.2209 0.4116,0.4972 2.9268,0.9957 2.0164,0.3997 3.1634,0.5763 6.5853,1.0139 0.8551,0.1101 1.7049,0.2432 1.8884,0.2973 0.3227,0.095 0.3227,0.1101 0,0.468 -0.8727,0.9672 -7.9878,4.6179 -12.9553,6.6475 -10.5819,4.3234 -19.6541,6.2748 -29.3596,6.315 -6.0424,0.024 -6.4004,0.1846 -4.1707,1.8604 2.8728,2.1589 4.5453,3.0464 9.4268,5.0024 1.837,0.736 3.4843,1.4222 3.6607,1.5251 0.2217,0.1284 -2.3494,0.1885 -8.3223,0.1923 -4.7539,0 -8.6433,0.072 -8.6433,0.1529 0,0.081 0.7419,0.7931 1.6485,1.5831 0.9068,0.79 1.6123,1.4727 1.568,1.5172 -0.044,0.044 -1.3009,-0.334 -2.792,-0.8412 -1.4912,-0.5071 -3.9253,-1.2685 -5.4093,-1.692 -2.2144,-0.6318 -2.6981,-0.8299 -2.6981,-1.105 0,-0.3784 2.8789,-6.0713 5.0288,-9.9442 7.6659,-13.8094 18.8802,-28.1304 32.5879,-41.6155 7.796,-7.6695 14.4772,-13.1963 22.1087,-18.2882 13.2365,-8.8322 26.0272,-14.479 43.3217,-19.1251 2.4119,-0.6478 4.4277,-1.2206 4.4797,-1.2726 0.1223,-0.1223 -0.063,-0.1192 -4.8315,0.086 -4.5605,0.1969 -6.1622,0.4177 -9.9518,1.3712 -15.1443,3.811 -31.9935,12.712 -46.5548,24.594 -23.6633,19.3092 -42.5675,44.6035 -54.5852,73.0367 -1.5828,3.7447 -3.1949,8.0602 -4.981,13.334 -1.5666,4.6254 -1.9149,5.4904 -2.2417,5.5677 -0.707,0.1676 -4.0375,0.6326 -4.5377,0.6336 -0.2707,5e-4 -0.5352,-0.069 -0.5876,-0.1534 z"
         id="path3079"
         inkscape:connector-curvature="0" /><path
         style="fill:#547586;fill-opacity:1;stroke-width:0.182927"
         d="m 729.45917,-1399.0067 c -0.5168,-0.8361 4.3294,-13.9711 9.2457,-25.059 l 1.6492,-3.7197 -1.3261,-2.2254 c -1.5509,-2.6027 -3.2772,-5.19 -5.0852,-7.6216 l -1.2922,-1.7378 0.5402,-0.057 c 0.2972,-0.031 1.7462,0.1162 3.2202,0.3279 1.4739,0.2116 2.7223,0.3421 2.7745,0.2902 0.072,-0.072 -1.2061,-4.9785 -1.8981,-7.2835 -0.1422,-0.4721 0.247,-0.4044 1.8365,0.3201 1.8628,0.8488 1.9736,0.8404 1.7984,-0.1376 -0.076,-0.4276 -0.133,-2.5061 -0.1253,-4.6189 0.015,-3.0613 0.092,-4.2871 0.4022,-6.0365 0.8651,-4.8854 3.4335,-10.6301 6.986,-15.6252 1.3622,-1.9152 4.723,-5.7365 5.332,-6.0625 0.4519,-0.2417 0.5083,-0.62 -0.6702,4.4927 -1.8405,7.9849 -2.6703,12.893 -2.9995,17.7437 -0.2276,3.3515 -0.249,7.7285 -0.037,7.4908 0.086,-0.095 0.3794,-1.7789 0.6532,-3.7408 1.4343,-10.2729 3.16,-17.4708 5.7897,-24.1462 1.0208,-2.5914 3.8987,-8.1651 5.6542,-10.9508 3.353,-5.3205 5.5384,-8.0956 9.264,-11.7654 3.7349,-3.6787 7.537,-6.766 11.1948,-9.09 1.8211,-1.1572 7.5585,-3.9963 8.4112,-4.1623 0.5903,-0.1147 0.6013,-0.1055 0.4777,0.4103 -0.07,0.2903 -0.8108,2.5859 -1.647,5.101 -0.8362,2.5153 -1.7335,5.3964 -1.9942,6.4025 -1.1139,4.302 -2.0004,8.9478 -1.8905,9.9076 0.063,0.5528 0.4135,-0.1626 4.1764,-8.5357 5.5391,-12.3257 7.8793,-16.8992 10.3426,-20.2133 1.1629,-1.5645 3.3715,-3.7526 5.1857,-5.1373 3.6216,-2.7643 6.6938,-4.5519 11.5438,-6.7166 1.4588,-0.6512 3.5028,-1.5637 4.5424,-2.0278 1.0395,-0.4641 2.0111,-0.8438 2.1592,-0.8438 0.1885,0 -0.047,0.5908 -0.7858,1.9665 -0.5805,1.0815 -1.452,2.7072 -1.9364,3.6127 -1.8607,3.4769 -4.5446,8.9145 -4.4863,9.0894 0.034,0.1009 1.4418,-1.5073 3.1293,-3.5731 5.5504,-6.7948 7.7552,-8.4424 12.6519,-9.4551 6.02481,-1.2462 10.05311,-0.9074 16.80901,1.4135 10.113,3.4742 12.67389,7.3153 13.32763,12.8563 l -4.65213,0.6482 c -0.95346,-0.4029 -0.063,-0.1193 -4.8315,0.086 -4.5604,0.1969 -6.1622,0.4176 -9.9519,1.3712 -15.14441,3.8109 -31.99331,12.7119 -46.55471,24.594 -23.6633,19.3092 -42.5674,44.6034 -54.5854,73.0367 -1.5826,3.7446 -3.1947,8.0602 -4.9808,13.3339 -1.5667,4.6255 -1.9148,5.4904 -2.2416,5.5677 -0.707,0.1676 -4.0377,0.6326 -4.5377,0.6337 -0.2707,4e-4 -0.5352,-0.069 -0.5878,-0.1535 z"
         id="path3079-4-6"
         inkscape:connector-curvature="0"
         sodipodi:nodetypes="sscssccsscscccssssccssssscscsssssssscsssscccsssscsss" /></g></g></svg>
