<?xml version="1.0" encoding="UTF-8" standalone="no"?>
<!-- Created with Inkscape (http://www.inkscape.org/) -->

<svg
   width="200mm"
   height="200mm"
   viewBox="0 0 200 200"
   version="1.1"
   id="svg1"
   inkscape:version="1.3.1 (91b66b0783, 2023-11-16)"
   sodipodi:docname="file_system.svg"
   xml:space="preserve"
   xmlns:inkscape="http://www.inkscape.org/namespaces/inkscape"
   xmlns:sodipodi="http://sodipodi.sourceforge.net/DTD/sodipodi-0.dtd"
   xmlns="http://www.w3.org/2000/svg"
   xmlns:svg="http://www.w3.org/2000/svg"><sodipodi:namedview
     id="namedview1"
     pagecolor="#ffffff"
     bordercolor="#000000"
     borderopacity="0.25"
     inkscape:showpageshadow="2"
     inkscape:pageopacity="0.0"
     inkscape:pagecheckerboard="0"
     inkscape:deskcolor="#d1d1d1"
     inkscape:document-units="mm"
     inkscape:zoom="0.49134398"
     inkscape:cx="14.246638"
     inkscape:cy="620.74639"
     inkscape:window-width="1920"
     inkscape:window-height="976"
     inkscape:window-x="-8"
     inkscape:window-y="-8"
     inkscape:window-maximized="1"
     inkscape:current-layer="layer1"
     showguides="true" /><defs
     id="defs1" /><g
     inkscape:label="Слой 1"
     inkscape:groupmode="layer"
     id="layer1"><g
       id="g9"
       transform="matrix(2.4070601,0,0,2.4070601,361.952,-83.581417)"><path
         id="path3279"
         style="fill:#547586;fill-opacity:1;stroke-width:0.0829629"
         d="m -78.069877,73.920586 -31.484383,0.02326 -31.48438,0.02377 -0.70539,0.23771 -0.70486,0.23823 -0.71986,0.36122 -0.71985,0.36122 -0.60771,0.50849 -0.60772,0.50901 -0.35605,0.41652 -0.35605,0.41754 -0.23409,0.34158 -0.23461,0.34158 -0.25012,0.49765 -0.25011,0.49816 -0.21291,0.67438 -0.21239,0.67437 -0.0966,0.69454 -0.0966,0.69453 0.34365,3.8163 0.34416,3.81631 0.28577,3.15226 0.28526,3.15278 0.29145,3.15226 0.29146,3.152784 0.12041,1.50482 0.12092,1.5043 0.13487,0.52813 0.13591,0.52813 0.36587,0.77567 0.36587,0.77566 0.3638,0.51056 0.36432,0.51057 0.61547,0.58446 0.61495,0.58446 0.63872,0.39791 0.63872,0.3979 0.6413,0.23927 0.64131,0.23926 0.58342,0.12454 0.58343,0.12506 0.33176,0.0294 h -0.006 l 0.33177,0.0295 29.12018,-0.008 29.119671,-0.009 0.664043,-0.17983 0.663525,-0.17983 0.613399,-0.25063 0.613916,-0.25012 0.589112,-0.39119 0.589628,-0.39119 0.568957,-0.54622 0.569474,-0.54674 0.365353,-0.51004 0.365352,-0.51005 0.365353,-0.77566 0.365869,-0.77567 0.130741,-0.49816 0.131258,-0.49764 0.128158,-1.57613 0.128157,-1.57665 0.450102,-4.852934 0.450102,-4.85345 0.294039,-3.36001 0.294039,-3.36 0.122989,-1.24437 0.122474,-1.24436 v -1.07849 -1.07901 l -0.126091,-0.53898 -0.12609,-0.5395 -0.169499,-0.45631 -0.169499,-0.4563 -0.285254,-0.54363 -0.28577,-0.54364 -0.477491,-0.59893 -0.47749,-0.59945 -0.674894,-0.55965 -0.674377,-0.55966 -0.695565,-0.34313 -0.695048,-0.34313 -0.52865,-0.17312 -0.529167,-0.17363 -0.504879,-0.0863 z m -42.620653,13.01213 c 1.47266,0.0053 2.94613,1.16365 2.83187,3.07578 l -0.47129,3.36569 h 17.97203 l -0.67283,-3.43287 c -0.11018,-3.06892 4.294186,-4.39657 5.58674,-0.94258 l 1.75028,10.09706 -31.16502,-0.06769 1.48053,-9.82731 c 0.39738,-1.57868 1.54228,-2.27219 2.68769,-2.26808 z" /><path
         inkscape:connector-curvature="0"
         id="path3277"
         d="m -127.51978,62.948089 c -1.34109,0.402343 -2.33004,1.467704 -2.31711,2.902088 -0.0538,1.593129 1.16499,2.555188 2.57326,2.936597 l 18.12901,-0.01557 18.129179,-0.01568 c 1.209938,-0.473689 2.017356,-1.290155 2.233198,-2.588702 l 0.05819,-0.348865 c -0.342702,-1.680182 -0.690477,-2.281211 -2.377732,-2.869843 h -18.210865 z"
         style="fill:#df601c;fill-opacity:1;stroke-width:0.0829629"
         sodipodi:nodetypes="cccccccccc" /><path
         inkscape:connector-curvature="0"
         id="path3275"
         d="m -125.29452,53.116981 -0.52719,0.164954 c -1.04859,0.266009 -1.59533,1.110541 -2.01559,2.033567 l 0.006,0.746664 v 0.74667 c 0.27225,0.87505 0.84353,1.37927 1.55562,1.90199 l 0.42108,0.14599 0.42115,0.145997 16.26071,-0.0185 16.260768,-0.0185 0.474284,-0.232845 c 0.858447,-0.345022 1.276485,-1.059459 1.640921,-1.85532 l 0.0517,-0.492437 c 0.244144,-1.758647 -1.052676,-2.797423 -2.557887,-3.268285 h -15.994336 z"
         style="fill:#df601c;fill-opacity:1;stroke-width:0.0829629"
         sodipodi:nodetypes="cccccccccccccccc" /><path
         inkscape:connector-curvature="0"
         id="path3270"
         d="m -129.97783,43.327844 -0.74664,0.09123 -0.74664,0.09106 -0.66369,0.207574 -0.66374,0.207407 -0.62221,0.323422 -0.62221,0.323428 -0.56954,0.42859 -0.5697,0.428585 -0.57528,0.670672 -0.57533,0.670507 -0.45343,0.912761 -0.45337,0.912427 -0.16694,0.663699 -0.16666,0.663871 -0.0797,0.953911 -0.0796,0.954071 -0.62543,4.314237 -0.62531,4.31391 -0.20991,1.53481 -0.20963,1.534822 -0.45303,3.111104 -0.45308,3.111115 -0.0684,0.477036 -0.0685,0.477202 h 2.92619 2.92624 l 0.0437,-0.145186 0.0437,-0.145186 0.29902,-1.949631 0.29907,-1.949625 0.53276,-3.36 0.53294,-3.359999 0.54127,-3.484441 0.54115,-3.484448 0.0865,-0.497774 0.0864,-0.497779 0.2183,-0.456298 0.21807,-0.456297 0.50341,-0.49859 0.50364,-0.498423 0.42098,-0.224745 0.42097,-0.224584 0.48841,-0.127199 0.48813,-0.1272 h 19.04667 19.046441 l 0.475318,0.123793 0.475146,0.123638 0.431773,0.218902 0.43183,0.218759 0.505822,0.507828 0.505765,0.507821 0.21807,0.456297 0.218299,0.456298 0.08606,0.497779 0.086,0.497774 0.496976,3.194075 0.497033,3.194075 0.426258,2.696295 0.426201,2.696294 0.471067,3.02815 0.470952,3.028145 2.951233,0.02172 2.951177,0.02183 -0.03045,-0.18764 -0.03045,-0.187795 -1.331166,-9.325234 -1.331281,-9.325228 -0.08025,-0.915346 -0.08037,-0.915346 -0.129429,-0.503129 -0.129313,-0.503122 -0.212095,-0.539257 -0.212268,-0.539262 -0.327966,-0.566642 -0.327793,-0.566492 -0.483246,-0.561288 -0.483016,-0.561299 -0.525641,-0.418215 -0.525815,-0.418216 -0.511911,-0.299932 -0.511797,-0.299931 -0.865787,-0.289724 -0.865958,-0.289723 -0.779214,-0.08215 -0.779443,-0.08199 -20.657722,-0.0011 z"
         style="fill:#547586;fill-opacity:1;stroke-width:0.0829629" /></g></g></svg>
