<?xml version="1.0" encoding="UTF-8" standalone="no"?>
<!-- Created with Inkscape (http://www.inkscape.org/) -->

<svg
   width="200mm"
   height="200mm"
   viewBox="0 0 200 200"
   version="1.1"
   id="svg1"
   inkscape:version="1.3.1 (91b66b0783, 2023-11-16)"
   sodipodi:docname="find.svg"
   xml:space="preserve"
   xmlns:inkscape="http://www.inkscape.org/namespaces/inkscape"
   xmlns:sodipodi="http://sodipodi.sourceforge.net/DTD/sodipodi-0.dtd"
   xmlns="http://www.w3.org/2000/svg"
   xmlns:svg="http://www.w3.org/2000/svg"><sodipodi:namedview
     id="namedview1"
     pagecolor="#ffffff"
     bordercolor="#000000"
     borderopacity="0.25"
     inkscape:showpageshadow="2"
     inkscape:pageopacity="0.0"
     inkscape:pagecheckerboard="0"
     inkscape:deskcolor="#d1d1d1"
     inkscape:document-units="mm"
     inkscape:zoom="0.69486532"
     inkscape:cx="292.86251"
     inkscape:cy="311.57117"
     inkscape:window-width="1488"
     inkscape:window-height="999"
     inkscape:window-x="379"
     inkscape:window-y="1"
     inkscape:window-maximized="0"
     inkscape:current-layer="layer1"
     showguides="true" /><defs
     id="defs1" /><g
     inkscape:label="Слой 1"
     inkscape:groupmode="layer"
     id="layer1"><g
       id="g3"
       transform="translate(-116.31363,303.7078)"><g
         id="g1"
         transform="matrix(-0.83218851,0,0,0.83218851,663.65396,-240.64459)"><path
           style="fill:#547586;fill-opacity:1;stroke:none;stroke-width:17.0118;stroke-dasharray:none"
           d="M 464.10978,74.362849 428.9311,109.54157 c -13.50331,14.65158 4.64753,36.09697 22.59182,25.49649 l 36.14697,-38.728864 z"
           id="path5"
           sodipodi:nodetypes="ccccc" /><path
           id="path4"
           style="fill:#df601c;fill-opacity:1;stroke:none;stroke-width:3;stroke-dasharray:none;stroke-opacity:1"
           d="m 523.15508,-47.81586 a 77.592077,77.592077 0 0 0 -77.59226,77.592261 77.592077,77.592077 0 0 0 77.59226,77.592289 77.592077,77.592077 0 0 0 77.59228,-77.592289 77.592077,77.592077 0 0 0 -77.59228,-77.592261 z m 0,14.04394 a 63.548115,63.548115 0 0 1 63.5471,63.548321 63.548115,63.548115 0 0 1 -63.5471,63.548346 63.548115,63.548115 0 0 1 -63.54832,-63.548346 63.548115,63.548115 0 0 1 63.54832,-63.548321 z" /></g><path
         id="path3273-3-79"
         style="fill:#df601c;fill-opacity:1;stroke:none;stroke-width:0.128225px;stroke-linecap:butt;stroke-linejoin:miter;stroke-opacity:1"
         d="m 168.49638,-254.08052 -4.79764,-10.55439 -22.88285,0.047 c -8.27405,0.0143 -11.56121,8.23139 -11.52694,13.22504 v 5.1e-4 l -0.12506,60.04337 h 34.96738 c -3.4181,-7.46306 -5.18804,-15.57499 -5.18935,-23.78357 0.0432,-14.50239 4.01449,-27.9318 13.30798,-38.96964 z"
         sodipodi:nodetypes="cccscccccc" /><path
         id="path1"
         style="fill:#df601c;fill-opacity:1;stroke:none;stroke-width:0.128225px;stroke-linecap:butt;stroke-linejoin:miter;stroke-opacity:1"
         d="m 197.14096,-254.10582 c -11.49094,8.20168 -17.51833,24.50091 -17.56154,39.0033 0.001,8.20858 3.63089,16.3205 7.04899,23.78357 h 45.90437 l 0.17621,-48.54485 c -0.0253,-5.38763 -5.92458,-14.2999 -12.08711,-14.43632 z"
         sodipodi:nodetypes="ccccccc" /><path
         id="rect3269-6-6"
         style="fill:#557586;fill-opacity:1;stroke:#557586;stroke-width:0.00946195;stroke-linecap:round;stroke-linejoin:round;stroke-miterlimit:4;stroke-dasharray:none;stroke-dashoffset:0;stroke-opacity:0.733333;paint-order:normal"
         d="m 167.32164,-247.20585 -2.50929,-0.0673 c -9.06655,-0.24317 -11.48235,6.36489 -15.92615,14.27148 l -19.11821,34.01601 c -4.44381,7.90659 -0.71995,14.272 8.34987,14.272 h 29.71418 c -6.10822,-9.54086 -7.73756,-20.63168 -7.74033,-31.96033 0.0336,-10.79371 1.62689,-21.30627 7.22993,-30.53185 z"
         sodipodi:nodetypes="csccscccc" /><path
         id="path2"
         style="fill:#557586;fill-opacity:1;stroke:#557586;stroke-width:0.00946195;stroke-linecap:round;stroke-linejoin:round;stroke-miterlimit:4;stroke-dasharray:none;stroke-dashoffset:0;stroke-opacity:0.733333;paint-order:normal"
         d="m 189.79337,-246.86929 c -6.46673,9.11471 -10.61806,19.40158 -10.65165,30.19529 0.003,11.32865 5.4398,23.46659 11.8336,31.96033 h 33.75276 c 9.06982,0 19.94903,-6.36541 24.39283,-14.272 l 19.11821,-34.01601 c 4.44381,-7.90659 0.71927,-14.32374 -8.3504,-14.27148 z"
         sodipodi:nodetypes="cccssssc" /></g></g></svg>
