<?xml version="1.0" encoding="UTF-8" standalone="no"?>
<!-- Created with Inkscape (http://www.inkscape.org/) -->

<svg
   width="200mm"
   height="200mm"
   viewBox="0 0 200 200"
   version="1.1"
   id="svg1"
   inkscape:version="1.3.1 (91b66b0783, 2023-11-16)"
   sodipodi:docname="formatting.svg"
   xml:space="preserve"
   xmlns:inkscape="http://www.inkscape.org/namespaces/inkscape"
   xmlns:sodipodi="http://sodipodi.sourceforge.net/DTD/sodipodi-0.dtd"
   xmlns="http://www.w3.org/2000/svg"
   xmlns:svg="http://www.w3.org/2000/svg"><sodipodi:namedview
     id="namedview1"
     pagecolor="#ffffff"
     bordercolor="#000000"
     borderopacity="0.25"
     inkscape:showpageshadow="2"
     inkscape:pageopacity="0.0"
     inkscape:pagecheckerboard="0"
     inkscape:deskcolor="#d1d1d1"
     inkscape:document-units="mm"
     inkscape:zoom="0.49134398"
     inkscape:cx="-32.563745"
     inkscape:cy="480.31524"
     inkscape:window-width="1920"
     inkscape:window-height="976"
     inkscape:window-x="-8"
     inkscape:window-y="-8"
     inkscape:window-maximized="1"
     inkscape:current-layer="layer1"
     showguides="true" /><defs
     id="defs1" /><g
     inkscape:label="Слой 1"
     inkscape:groupmode="layer"
     id="layer1"><g
       id="g9"
       transform="matrix(1.0365983,0,0,1.0365983,212.88683,-4.4538084)"><g
         id="g8"
         transform="translate(-38.771209,-9.1543132)"><path
           style="opacity:1;fill:#557586;fill-opacity:1;stroke:none;stroke-width:6.76868;stroke-dasharray:none"
           d="m -157.49863,162.94753 c -0.21911,-3.18219 1.0325,-4.92355 4.04578,-4.93901 h 24.20577 c 1.75286,0.3039 2.93108,1.28202 3.22151,3.30174 v 24.4947 c -0.17589,2.34186 -1.43533,3.55238 -3.73516,3.67661 h -24.43049 c -2.27608,-0.44479 -3.2404,-1.73832 -3.30741,-3.6124 z"
           id="path8"
           sodipodi:nodetypes="ccccccccc" /><path
           style="fill:#557586;fill-opacity:1;stroke:none;stroke-width:6.76868;stroke-dasharray:none"
           d="m -123.17043,162.9823 c -0.21911,-3.18219 1.03249,-4.92355 4.04578,-4.93901 h 24.205765 c 1.752858,0.3039 2.931079,1.28202 3.221512,3.30174 v 24.4947 c -0.175888,2.34186 -1.435331,3.55238 -3.735163,3.67661 h -24.430484 c -2.27609,-0.44479 -3.2404,-1.73832 -3.30741,-3.6124 z"
           id="path8-8"
           sodipodi:nodetypes="ccccccccc" /><path
           style="fill:#557586;fill-opacity:1;stroke:none;stroke-width:6.76868;stroke-dasharray:none"
           d="m -89.040267,162.89484 c -0.219104,-3.18219 1.032498,-4.92355 4.045784,-4.93901 h 24.205766 c 1.75285,0.3039 2.93107,1.28202 3.22151,3.30174 v 24.4947 c -0.17589,2.34186 -1.43533,3.55238 -3.73517,3.67661 h -24.430479 c -2.276084,-0.44479 -3.240396,-1.73832 -3.307411,-3.6124 z"
           id="path8-5"
           sodipodi:nodetypes="ccccccccc" /><path
           style="fill:#557586;fill-opacity:1;stroke:none;stroke-width:6.76868;stroke-dasharray:none"
           d="m -54.766066,163.16875 c -0.2191,-3.18219 1.0325,-4.92355 4.04578,-4.93901 h 24.20577 c 1.75286,0.3039 2.93108,1.28202 3.22151,3.30174 v 24.4947 c -0.17589,2.34186 -1.43533,3.55238 -3.73516,3.67661 h -24.43049 c -2.27608,-0.44479 -3.24039,-1.73832 -3.30741,-3.6124 z"
           id="path8-2"
           sodipodi:nodetypes="ccccccccc" /><path
           style="fill:#557586;fill-opacity:1;stroke:none;stroke-width:6.76868;stroke-dasharray:none"
           d="m -157.49862,128.87265 c -0.21911,-3.18219 1.0325,-4.92355 4.04578,-4.93901 h 24.20576 c 1.75285,0.3039 2.93107,1.28202 3.2215,3.30174 v 24.4947 c -0.17589,2.34186 -1.43532,3.55238 -3.73515,3.67661 h -24.43048 c -2.27608,-0.44479 -3.2404,-1.73832 -3.30741,-3.6124 z"
           id="path8-85"
           sodipodi:nodetypes="ccccccccc" /><path
           style="fill:#557586;fill-opacity:1;stroke:none;stroke-width:6.76868;stroke-dasharray:none"
           d="m -123.17043,128.90742 c -0.21911,-3.18219 1.03249,-4.92355 4.04578,-4.93901 h 24.205764 c 1.752859,0.3039 2.931079,1.28202 3.221513,3.30174 v 24.4947 c -0.175888,2.34186 -1.435332,3.55238 -3.735163,3.67661 h -24.430484 c -2.27609,-0.44479 -3.2404,-1.73832 -3.30741,-3.6124 z"
           id="path8-8-3"
           sodipodi:nodetypes="ccccccccc" /><path
           style="fill:#557586;fill-opacity:1;stroke:none;stroke-width:6.76868;stroke-dasharray:none"
           d="m -157.49862,94.630513 c -0.21911,-3.18219 1.0325,-4.92355 4.04578,-4.93901 h 24.20576 c 1.75286,0.3039 2.93108,1.28202 3.22151,3.30174 v 24.494697 c -0.17589,2.34186 -1.43533,3.55238 -3.73516,3.67661 h -24.43048 c -2.27608,-0.44479 -3.2404,-1.73832 -3.30741,-3.6124 z"
           id="path8-85-9"
           sodipodi:nodetypes="ccccccccc" /><path
           style="fill:#557586;fill-opacity:1;stroke:none;stroke-width:6.76868;stroke-dasharray:none"
           d="m -123.17043,94.665283 c -0.21911,-3.18219 1.03249,-4.92355 4.04578,-4.93901 h 24.205766 c 1.752858,0.3039 2.931079,1.28202 3.221512,3.30174 v 24.494697 c -0.175888,2.34186 -1.435331,3.55238 -3.735163,3.67661 h -24.430485 c -2.27609,-0.44479 -3.2404,-1.73832 -3.30741,-3.6124 z"
           id="path8-8-3-2"
           sodipodi:nodetypes="ccccccccc" /><path
           style="fill:#557586;fill-opacity:1;stroke:none;stroke-width:6.76868;stroke-dasharray:none"
           d="m -89.040267,128.81996 c -0.219104,-3.18219 1.032498,-4.92355 4.045784,-4.93901 h 24.205766 c 1.75285,0.3039 2.93107,1.28202 3.22151,3.30174 v 24.4947 c -0.17589,2.34186 -1.43533,3.55238 -3.73517,3.67661 h -24.430479 c -2.276084,-0.44479 -3.240396,-1.73832 -3.307411,-3.6124 z"
           id="path8-5-9"
           sodipodi:nodetypes="ccccccccc" /><path
           style="fill:#557586;fill-opacity:1;stroke:none;stroke-width:6.76868;stroke-dasharray:none"
           d="m -157.49862,60.239345 c -0.21911,-3.18219 1.0325,-4.92355 4.04578,-4.93901 h 24.20576 c 1.75286,0.3039 2.93108,1.28202 3.22151,3.30174 v 24.494703 c -0.17589,2.34186 -1.43533,3.55238 -3.73516,3.67661 h -24.43048 c -2.27608,-0.44479 -3.2404,-1.73832 -3.30741,-3.6124 z"
           id="path8-85-5"
           sodipodi:nodetypes="ccccccccc" /><path
           style="fill:#557586;fill-opacity:1;stroke:none;stroke-width:6.76868;stroke-dasharray:none"
           d="m -123.17043,60.274115 c -0.21911,-3.18219 1.03249,-4.92355 4.04578,-4.93901 h 24.205763 c 1.752858,0.3039 2.931079,1.28202 3.221512,3.30174 v 24.494703 c -0.175888,2.34186 -1.435331,3.55238 -3.735163,3.67661 h -24.430482 c -2.27609,-0.44479 -3.2404,-1.73832 -3.30741,-3.6124 z"
           id="path8-8-3-7"
           sodipodi:nodetypes="ccccccccc" /></g><path
         style="fill:#557586;fill-opacity:1;stroke:none;stroke-width:6.76868;stroke-dasharray:none"
         d="m -110.50507,68.07126 c 1.30905,-2.908735 3.23445,-3.853015 5.89815,-2.444171 l 21.338895,11.426729 c 1.4018,1.095373 1.97874,2.513846 1.28133,4.431459 l -11.56313,21.593623 c -1.26057,1.98146 -2.9423,2.45407 -5.02839,1.47792 L -120.11521,93.024007 c -1.79655,-1.466576 -2.03602,-3.062124 -1.2104,-4.745876 z"
         id="path8-8-3-7-8"
         sodipodi:nodetypes="ccccccccc" /><path
         style="fill:#557586;fill-opacity:1;stroke:none;stroke-width:6.76868;stroke-dasharray:none"
         d="m -59.479488,73.683133 c 1.821792,-2.618285 3.888043,-3.192256 6.247119,-1.317445 l 18.872696,15.157193 c 1.176368,1.334551 1.48252,2.834949 0.444254,4.591543 L -49.253538,111.2124 c -1.603564,1.71575 -3.343529,1.87093 -5.214447,0.52768 L -73.515889,96.442172 c -1.496098,-1.772038 -1.437965,-3.384407 -0.316698,-4.887546 z"
         id="path8-8-3-7-4"
         sodipodi:nodetypes="ccccccccc" /><path
         style="fill:#df601c;fill-opacity:1;stroke:none;stroke-width:6.76868;stroke-dasharray:none"
         d="m -77.98759,111.62118 c 0.968792,-3.03905 2.773946,-4.19674 5.580937,-3.10086 l 22.502806,8.91868 c 1.517566,0.92836 2.252504,2.27179 1.778333,4.25642 l -9.025141,22.77143 c -1.026378,2.11229 -2.643234,2.7736 -4.827038,2.04171 l -22.711715,-9.00147 c -1.952075,-1.25213 -2.371938,-2.80996 -1.743724,-4.57688 z"
         id="path8-8-3-7-6"
         sodipodi:nodetypes="ccccccccc" /><path
         style="fill:#df601c;fill-opacity:1;stroke:none;stroke-width:6.76868;stroke-dasharray:none"
         d="m -93.96347,22.868614 c 1.747466,-2.668464 3.796765,-3.300295 6.207613,-1.492544 l 19.291337,14.620649 c 1.21342,1.300953 1.561631,2.792152 0.573156,4.57724 l -14.795172,19.521612 c -1.554697,1.76016 -3.289611,1.964189 -5.197551,0.674063 L -107.35452,46.013251 c -1.54532,-1.729278 -1.53254,-3.342644 -0.45397,-4.87671 z"
         id="path8-8-3-7-5"
         sodipodi:nodetypes="ccccccccc" /><path
         style="fill:#df601c;fill-opacity:1;stroke:none;stroke-width:6.76868;stroke-dasharray:none"
         d="m -45.074461,31.99925 c 1.951402,-2.523167 4.043949,-2.992299 6.305564,-1.001005 l 18.085011,16.088853 c 1.107633,1.392129 1.337797,2.906046 0.21234,4.608094 l -16.280905,18.30089 c -1.687972,1.632788 -3.43355,1.700092 -5.234409,0.26428 L -60.239768,54.022144 c -1.404911,-1.845168 -1.265612,-3.45256 -0.07003,-4.897294 z"
         id="path8-8-3-7-0"
         sodipodi:nodetypes="ccccccccc" /></g></g></svg>
