<?xml version="1.0" encoding="UTF-8" standalone="no"?>
<!-- Created with Inkscape (http://www.inkscape.org/) -->

<svg
   width="200mm"
   height="200mm"
   viewBox="0 0 200 200"
   version="1.1"
   id="svg1"
   inkscape:version="1.3.1 (91b66b0783, 2023-11-16)"
   sodipodi:docname="function_add.svg"
   xmlns:inkscape="http://www.inkscape.org/namespaces/inkscape"
   xmlns:sodipodi="http://sodipodi.sourceforge.net/DTD/sodipodi-0.dtd"
   xmlns="http://www.w3.org/2000/svg"
   xmlns:svg="http://www.w3.org/2000/svg">
  <sodipodi:namedview
     id="namedview1"
     pagecolor="#ffffff"
     bordercolor="#000000"
     borderopacity="0.25"
     inkscape:showpageshadow="2"
     inkscape:pageopacity="0.0"
     inkscape:pagecheckerboard="0"
     inkscape:deskcolor="#d1d1d1"
     inkscape:document-units="mm"
     inkscape:zoom="0.69486532"
     inkscape:cx="277.75167"
     inkscape:cy="333.87765"
     inkscape:window-width="1904"
     inkscape:window-height="960"
     inkscape:window-x="156"
     inkscape:window-y="0"
     inkscape:window-maximized="0"
     inkscape:current-layer="layer1" />
  <defs
     id="defs1" />
  <g
     inkscape:label="Слой 1"
     inkscape:groupmode="layer"
     id="layer1">
    <g
       transform="matrix(3.3727196,0,0,3.3737671,11537.105,4841.5282)"
       id="g3820-4-8-4-7-3-2"
       style="stroke-width:0.523746" />
    <g
       transform="matrix(10.909137,11.072737,-11.076101,10.912451,23045.841,43218.371)"
       id="g4230-6-69-3"
       style="stroke-width:0.419855">
      <g
         id="g3529-4-6-7-7-1-5"
         transform="matrix(0.02849157,-0.02794562,0.02794562,0.02849157,-2869.5652,-902.0244)"
         style="stroke-width:5.26015;stroke-miterlimit:4;stroke-dasharray:none">
        <path
           inkscape:connector-curvature="0"
           id="path3490-6-1-1-8-8-4"
           d="m -2661.6947,-2305.4253 v 46.7155"
           style="fill:none;stroke:#547586;stroke-width:5.26015;stroke-linecap:round;stroke-linejoin:miter;stroke-miterlimit:4;stroke-dasharray:none;stroke-opacity:1" />
        <path
           inkscape:connector-curvature="0"
           id="path3490-5-1-5-4-3-7-8"
           d="m -2685.0524,-2282.0676 h 46.7155"
           style="fill:none;stroke:#547586;stroke-width:5.26015;stroke-linecap:round;stroke-linejoin:miter;stroke-miterlimit:4;stroke-dasharray:none;stroke-opacity:1" />
      </g>
      <circle
         style="opacity:1;fill:none;fill-opacity:1;stroke:#547586;stroke-width:0.209927;stroke-linecap:round;stroke-linejoin:round;stroke-miterlimit:4;stroke-dasharray:none;stroke-dashoffset:0;stroke-opacity:1;paint-order:normal"
         id="path3873-8-7-9-3-1"
         cx="-1627.348"
         cy="-2683.9749"
         r="1.6077"
         transform="rotate(-42.247913)" />
    </g>
    <rect
       y="124.28727"
       x="48.860348"
       height="65.681519"
       width="107.69785"
       id="rect3771-0-5-2-7-1-8"
       style="fill:none;fill-opacity:1;stroke:#df601c;stroke-width:4.52262;stroke-linecap:round;stroke-linejoin:round;stroke-miterlimit:4;stroke-dasharray:4.52262, 9.04524;stroke-dashoffset:5.42714;stroke-opacity:1;paint-order:normal" />
    <rect
       y="7.6490626"
       x="48.585598"
       height="13.752405"
       width="108.07864"
       id="rect3771-3-9-5-9-3-3"
       style="fill:#df601c;fill-opacity:1;stroke:#df601c;stroke-width:3.62083;stroke-linecap:round;stroke-linejoin:round;stroke-miterlimit:4;stroke-dasharray:none;stroke-dashoffset:0;stroke-opacity:1;paint-order:normal" />
    <path
       inkscape:connector-curvature="0"
       id="path3815-9-4-3-9-0"
       d="M 5.4134882,45.526625 H 47.529786"
       style="fill:none;stroke:#547586;stroke-width:9.85378;stroke-linecap:butt;stroke-linejoin:miter;stroke-miterlimit:4;stroke-dasharray:none;stroke-opacity:1" />
    <path
       inkscape:connector-curvature="0"
       id="path3815-9-4-3-9-0-8"
       d="M 5.6850962,89.392756 H 47.801394"
       style="fill:none;stroke:#547586;stroke-width:9.85378;stroke-linecap:butt;stroke-linejoin:miter;stroke-miterlimit:4;stroke-dasharray:none;stroke-opacity:1" />
    <path
       inkscape:connector-curvature="0"
       id="path3815-9-4-3-9-0-87"
       d="m 156.67452,44.997459 h 42.1163"
       style="fill:none;stroke:#547586;stroke-width:9.85378;stroke-linecap:butt;stroke-linejoin:miter;stroke-miterlimit:4;stroke-dasharray:none;stroke-opacity:1" />
    <path
       inkscape:connector-curvature="0"
       id="path3815-9-4-3-9-0-2"
       d="m 156.85994,89.392757 h 42.1163"
       style="fill:none;stroke:#547586;stroke-width:9.85378;stroke-linecap:butt;stroke-linejoin:miter;stroke-miterlimit:4;stroke-dasharray:none;stroke-opacity:1" />
    <path
       inkscape:connector-curvature="0"
       id="path3815-4-8-1-6-3-0-4-0"
       d="M 5.5182006,155.94462 H 51.189379"
       style="fill:none;stroke:#df601c;stroke-width:12.0123;stroke-linecap:butt;stroke-linejoin:miter;stroke-miterlimit:4;stroke-dasharray:none;stroke-opacity:1" />
    <rect
       y="27.939259"
       x="48.566944"
       height="96.497284"
       width="107.75016"
       id="rect3771-0-5-2-7-1"
       style="fill:none;fill-opacity:1;stroke:#547586;stroke-width:4.75152;stroke-linecap:round;stroke-linejoin:round;stroke-miterlimit:4;stroke-dasharray:none;stroke-dashoffset:0;stroke-opacity:1;paint-order:normal" />
    <g
       id="g5099"
       transform="matrix(0.63647412,0,0,0.63647412,2171.3422,1275.4415)">
      <path
         inkscape:connector-curvature="0"
         id="path5095"
         d="m -3193.2667,-1908.5582 c -4.7393,0 -9.0107,3.2245 -15.2943,11.5446 -2.654,3.5141 -5.1779,6.7936 -5.6094,7.2879 -0.4313,0.4946 -1.325,-1.1191 -1.9854,-3.5864 -1.6172,-6.0387 -6.1892,-15.245 -7.5695,-15.245 -2.2394,0 -18.3372,3.0455 -18.8558,3.5641 -0.2937,0.2936 0.7813,0.5338 2.3889,0.5338 4.8334,0 7.2504,3.4336 11.3546,16.1293 4.2844,13.2554 4.3471,12.8079 -2.8879,20.5997 -4.7503,5.1166 -6.8255,5.7947 -11.6105,3.7957 -4.9426,-2.0656 -6.1954,-1.9978 -8.6606,0.4671 -2.4564,2.4564 -2.6577,6.4191 -0.4392,8.6377 v 0 c 2.1918,2.193 7.4417,2.0209 11.3652,-0.3716 1.782,-1.0865 6.1473,-5.4591 9.6996,-9.7162 3.5531,-4.2574 6.7482,-7.4015 7.1046,-6.9871 0.3548,0.4141 1.6989,3.6443 2.9869,7.1783 2.9398,8.068 6.7096,11.5084 12.6085,11.5084 3.815,0 4.8045,-0.5947 10.1695,-6.1113 3.2681,-3.3609 5.9428,-6.6218 5.9428,-7.2466 0,-0.6244 -1.5534,0.512 -3.4515,2.5249 -1.8987,2.0125 -4.1862,3.6593 -5.084,3.6593 -3.6338,0 -7.1345,-6.2576 -11.2313,-20.0758 -1.5335,-5.1727 -1.5213,-5.2557 1.4023,-9.9539 4.3294,-6.956 6.6564,-8.1547 14.1708,-7.3045 7.0245,0.7948 9.3179,-0.2791 9.3179,-4.363 0,-4.4844 -1.7889,-6.4679 -5.8322,-6.4679 z"
         style="fill:#df601c;fill-opacity:1;stroke-width:1.0248" />
      <path
         inkscape:connector-curvature="0"
         id="path5090"
         d="m -3239.8116,-1937.5362 c -2.2169,0.1113 -4.6452,0.5705 -7.18,1.4124 -6.6201,2.1988 -15.01,10.1744 -20.4369,19.4272 -2.939,5.0108 -4.3492,6.3942 -7.6181,7.474 -4.6607,1.5393 -4.1656,1.1429 -5.0613,4.0555 -0.6387,2.0773 -0.3646,2.3058 2.776,2.3058 1.917,0 3.7479,0.2622 4.0656,0.5798 0.5509,0.5511 -10.3722,44.6806 -14.5753,58.8838 -2.1948,7.4165 -6.8205,13.0238 -9.7999,11.8804 -1.3843,-0.5314 -1.4727,-0.9486 -0.4596,-2.1694 0.717,-0.8634 0.9763,-2.6164 0.6083,-4.0871 -0.5509,-2.1957 -1.2317,-2.575 -4.6003,-2.575 -2.1905,0 -4.4998,0.6576 -5.1785,1.4748 -1.969,2.3732 -0.8818,7.0208 1.9979,8.539 v 6e-4 c 3.3406,1.7615 12.2005,0.8482 17.3731,-1.7906 5.7293,-2.9228 11.7856,-10.4102 15.3535,-18.9813 2.3122,-5.5535 14.4142,-48.7148 14.4142,-51.4067 0,-0.1898 2.022,-0.3483 4.4921,-0.3483 3.978,0 4.5485,-0.294 4.9821,-2.5626 0.454,-2.3758 0.2006,-2.5616 -3.4674,-2.5616 -4.6487,0 -4.7479,-0.4547 -1.9026,-8.7245 3.9846,-11.5818 9.8116,-18.9451 14.9929,-18.9451 2.6628,0 3.0022,1.1033 1.3115,4.2623 -0.6127,1.1426 -0.8334,3.1875 -0.4926,4.5439 0.4966,1.9783 1.2837,2.4665 3.9812,2.4665 4.2161,0 5.8219,-1.5671 5.8219,-5.6824 0,-5.0058 -4.7469,-7.8051 -11.3978,-7.4714 z"
         style="fill:#547586;fill-opacity:1;stroke:#547586;stroke-width:1.0248;stroke-opacity:1" />
    </g>
  </g>
</svg>
