<?xml version="1.0" encoding="UTF-8" standalone="no"?>
<!-- Created with Inkscape (http://www.inkscape.org/) -->

<svg
   width="200mm"
   height="200mm"
   viewBox="0 0 200 200"
   version="1.1"
   id="svg1"
   inkscape:version="1.3.1 (91b66b0783, 2023-11-16)"
   sodipodi:docname="goose1.svg"
   xml:space="preserve"
   xmlns:inkscape="http://www.inkscape.org/namespaces/inkscape"
   xmlns:sodipodi="http://sodipodi.sourceforge.net/DTD/sodipodi-0.dtd"
   xmlns="http://www.w3.org/2000/svg"
   xmlns:svg="http://www.w3.org/2000/svg"><sodipodi:namedview
     id="namedview1"
     pagecolor="#ffffff"
     bordercolor="#000000"
     borderopacity="0.25"
     inkscape:showpageshadow="2"
     inkscape:pageopacity="0.0"
     inkscape:pagecheckerboard="0"
     inkscape:deskcolor="#d1d1d1"
     inkscape:document-units="mm"
     inkscape:zoom="0.49134398"
     inkscape:cx="662.46868"
     inkscape:cy="572.91839"
     inkscape:window-width="1488"
     inkscape:window-height="1041"
     inkscape:window-x="406"
     inkscape:window-y="18"
     inkscape:window-maximized="0"
     inkscape:current-layer="layer1"
     showguides="true" /><defs
     id="defs1" /><g
     inkscape:label="Слой 1"
     inkscape:groupmode="layer"
     id="layer1"><g
       id="g13"><path
         inkscape:connector-curvature="0"
         d="M 31.632858,8.1985099 A 22.908111,22.908111 0 0 0 8.7246788,31.106689 V 168.55552 a 22.908111,22.908111 0 0 0 22.9081792,22.9077 H 169.0812 a 22.908111,22.908111 0 0 0 22.90818,-22.9077 V 31.106689 A 22.908111,22.908111 0 0 0 169.0812,8.1985099 Z M 20.17889,31.106689 A 11.454055,11.454055 0 0 1 31.632858,19.652236 H 169.0812 a 11.454055,11.454055 0 0 1 11.45421,11.454453 V 168.55552 A 11.454055,11.454055 0 0 1 169.0812,180.00949 H 31.632858 A 11.454055,11.454055 0 0 1 20.17889,168.55552 Z"
         id="path4-2-0-2-8-0-9-7-9-5"
         style="fill:#547586;fill-opacity:1;stroke-width:0.17641" /><text
         xml:space="preserve"
         style="font-style:normal;font-variant:normal;font-weight:normal;font-stretch:normal;font-size:64.05px;font-family:'Century Gothic';-inkscape-font-specification:'Century Gothic';text-align:center;text-anchor:middle;fill:#df601c;fill-opacity:1;stroke-width:383.293;stroke-dasharray:none"
         x="119.59966"
         y="69.930969"
         id="text11"
         transform="scale(0.84476141,1.1837662)"><tspan
           sodipodi:role="line"
           id="tspan11"
           style="font-style:normal;font-variant:normal;font-weight:bold;font-stretch:normal;font-family:'Century Gothic';-inkscape-font-specification:'Century Gothic Bold';fill:#df601c;fill-opacity:1;stroke-width:383.293"
           x="119.59965"
           y="69.930969">61850</tspan></text><text
         xml:space="preserve"
         style="font-style:normal;font-variant:normal;font-weight:normal;font-stretch:normal;font-size:55.3414px;font-family:'Century Gothic';-inkscape-font-specification:'Century Gothic';text-align:center;text-anchor:middle;fill:#df601c;fill-opacity:1;stroke-width:331.179;stroke-dasharray:none"
         x="129.89218"
         y="132.51155"
         id="text11-6"
         transform="scale(0.76595865,1.3055535)"><tspan
           sodipodi:role="line"
           id="tspan11-4"
           style="font-style:normal;font-variant:normal;font-weight:bold;font-stretch:normal;font-family:'Century Gothic';-inkscape-font-specification:'Century Gothic Bold';fill:#df601c;fill-opacity:1;stroke-width:331.179"
           x="129.89218"
           y="132.51155">GOOSE</tspan></text><g
         id="g11"
         transform="translate(-3.7762039)"><path
           inkscape:connector-curvature="0"
           id="path5402"
           d="m 152.81455,110.02087 c -1.62019,-0.75607 -3.34096,-2.51416 -4.02516,-4.11256 -0.59299,-1.38525 -0.59299,-4.20631 0,-5.59156 0.25408,-0.593582 0.94184,-1.611532 1.52837,-2.262122 3.51603,-3.90038 9.66567,-3.16803 12.17934,1.45038 3.47069,6.376842 -3.14813,13.565242 -9.68255,10.515862 z"
           style="fill:#547586;fill-opacity:1;stroke:none;stroke-width:0.456309;stroke-miterlimit:4;stroke-dasharray:none;stroke-opacity:1" /><path
           inkscape:connector-curvature="0"
           id="path5404"
           d="m 44.813983,96.654638 v -1.16511 l 50.90102,0.0923 c 27.995557,0.0505 50.990077,0.18147 51.098997,0.29038 0.10891,0.10897 -0.0822,0.59175 -0.42486,1.07287 l -0.62283,0.87477 H 95.290153 44.813983 Z"
           style="fill:#547586;fill-opacity:1;stroke:none;stroke-width:0.456309;stroke-miterlimit:4;stroke-dasharray:none;stroke-opacity:1" /><path
           inkscape:connector-curvature="0"
           id="path5406"
           d="m 44.813983,103.2556 v -1.1444 h 49.78039 49.780387 v 1.1444 1.14434 H 94.594373 44.813983 Z"
           style="fill:#547586;fill-opacity:1;stroke:none;stroke-width:0.456309;stroke-miterlimit:4;stroke-dasharray:none;stroke-opacity:1" /><path
           inkscape:connector-curvature="0"
           id="path5408"
           d="m 44.813983,109.55503 v -1.14977 h 50.44185 50.441787 l 0.65119,0.88079 c 0.35815,0.48439 0.5648,0.96717 0.45916,1.07286 -0.10563,0.10564 -23.09746,0.22666 -51.093027,0.26893 l -50.90096,0.0769 z"
           style="fill:#547586;fill-opacity:1;stroke:none;stroke-width:0.456309;stroke-miterlimit:4;stroke-dasharray:none;stroke-opacity:1" /></g></g></g></svg>
