<?xml version="1.0" encoding="UTF-8" standalone="no"?>
<!-- Created with Inkscape (http://www.inkscape.org/) -->

<svg
   width="200mm"
   height="200mm"
   viewBox="0 0 200 200"
   version="1.1"
   id="svg1"
   inkscape:version="1.3.1 (91b66b0783, 2023-11-16)"
   sodipodi:docname="graduation.svg"
   xml:space="preserve"
   xmlns:inkscape="http://www.inkscape.org/namespaces/inkscape"
   xmlns:sodipodi="http://sodipodi.sourceforge.net/DTD/sodipodi-0.dtd"
   xmlns="http://www.w3.org/2000/svg"
   xmlns:svg="http://www.w3.org/2000/svg"><sodipodi:namedview
     id="namedview1"
     pagecolor="#ffffff"
     bordercolor="#000000"
     borderopacity="0.25"
     inkscape:showpageshadow="2"
     inkscape:pageopacity="0.0"
     inkscape:pagecheckerboard="0"
     inkscape:deskcolor="#d1d1d1"
     inkscape:document-units="mm"
     inkscape:zoom="0.49134398"
     inkscape:cx="532.2137"
     inkscape:cy="381.60639"
     inkscape:window-width="1488"
     inkscape:window-height="1041"
     inkscape:window-x="406"
     inkscape:window-y="18"
     inkscape:window-maximized="0"
     inkscape:current-layer="layer1"
     showguides="true" /><defs
     id="defs1" /><g
     inkscape:label="Слой 1"
     inkscape:groupmode="layer"
     id="layer1"><g
       id="g3"><path
         id="path264"
         style="fill:#547586;fill-opacity:1;stroke-width:1.50152"
         d="M 7.9927938 117.15357 L 7.9927938 170.82782 L 193.36701 170.82782 L 193.80988 117.15357 L 7.9927938 117.15357 z M 15.679146 125.15774 L 30.749028 125.15774 L 30.793986 140.89269 L 38.355282 140.89269 L 38.355282 125.15774 L 53.083582 125.15774 L 53.083582 148.4049 L 60.596301 148.4049 L 61.039685 125.15774 L 75.457926 125.15774 L 75.457926 140.89269 L 82.854891 140.89269 L 82.854891 125.15774 L 97.499475 125.15774 L 97.499475 148.4049 L 105.2866 148.4049 L 105.2866 125.15774 L 119.65161 125.15774 L 119.63663 140.89269 L 127.39274 140.89269 L 127.39274 125.15774 L 142.10812 125.15774 L 142.10812 148.4049 L 149.39036 148.4049 L 149.39036 125.15774 L 164.10109 125.15774 L 164.10109 140.89269 L 171.71097 140.89269 L 171.71097 125.15774 L 185.7344 125.15774 L 185.7344 161.97203 L 15.679146 161.97203 L 15.679146 125.15774 z " /><path
         id="path3"
         style="fill:#df601c;fill-opacity:1;stroke-width:1.50152"
         d="M 47.980534 43.232503 L 22.672518 69.577665 L 47.980534 95.391077 L 47.980534 72.981592 L 152.53694 72.981592 L 152.53694 95.391077 L 178.16845 69.577665 L 152.53694 43.232503 L 152.53694 66.661564 L 47.980534 66.661564 L 47.980534 43.232503 z M 157.74954 55.203866 L 171.71097 69.444857 L 157.74954 83.973686 L 157.74954 55.203866 z M 43.544112 55.443644 L 43.544112 82.945325 L 30.202808 69.333752 L 43.544112 55.443644 z " /><path
         id="path2"
         style="fill:#df601c;fill-opacity:1;stroke-width:1.50152"
         d="M 185.7344 32.169613 L 185.7344 103.34253 L 193.6905 103.34253 L 193.6905 32.169613 L 185.7344 32.169613 z " /><path
         id="path1"
         style="fill:#df601c;fill-opacity:1;stroke-width:1.50152"
         d="M 7.9927938 32.169613 L 7.9927938 103.34253 L 15.922026 103.34253 L 15.922026 32.169613 L 7.9927938 32.169613 z " /></g></g></svg>
