<?xml version="1.0" encoding="UTF-8" standalone="no"?>
<!-- Created with Inkscape (http://www.inkscape.org/) -->

<svg
   width="200mm"
   height="200mm"
   viewBox="0 0 200 200"
   version="1.1"
   id="svg1"
   inkscape:version="1.3.1 (91b66b0783, 2023-11-16)"
   sodipodi:docname="hard_dr1.svg"
   xml:space="preserve"
   xmlns:inkscape="http://www.inkscape.org/namespaces/inkscape"
   xmlns:sodipodi="http://sodipodi.sourceforge.net/DTD/sodipodi-0.dtd"
   xmlns="http://www.w3.org/2000/svg"
   xmlns:svg="http://www.w3.org/2000/svg"><sodipodi:namedview
     id="namedview1"
     pagecolor="#ffffff"
     bordercolor="#000000"
     borderopacity="0.25"
     inkscape:showpageshadow="2"
     inkscape:pageopacity="0.0"
     inkscape:pagecheckerboard="0"
     inkscape:deskcolor="#d1d1d1"
     inkscape:document-units="mm"
     inkscape:zoom="0.34743266"
     inkscape:cx="71.95639"
     inkscape:cy="322.36463"
     inkscape:window-width="1920"
     inkscape:window-height="976"
     inkscape:window-x="-8"
     inkscape:window-y="-8"
     inkscape:window-maximized="1"
     inkscape:current-layer="layer1"
     showguides="true" /><defs
     id="defs1" /><g
     inkscape:label="Слой 1"
     inkscape:groupmode="layer"
     id="layer1"><g
       id="g7"
       transform="translate(17.515385,0.76153846)"><path
         style="fill:#547586;fill-opacity:1;stroke:none;stroke-width:21.5289;stroke-dasharray:none"
         d="m 24.244022,27.193383 c 34.249002,-24.7121715 81.544008,-24.9674757 113.954138,0 16.30756,16.162052 13.59278,30.940663 0,44.928144 -35.50767,26.779213 -82.789423,23.048903 -113.545707,0 C 11.360549,58.580653 7.6732032,43.99201 24.244022,27.193383 Z"
         id="path11"
         sodipodi:nodetypes="ccccc" /><path
         style="opacity:1;fill:#547586;fill-opacity:1;stroke:none;stroke-width:21.5289;stroke-dasharray:none"
         d="M 12.772457,65.879903 C 26.87192,122.66942 141.58038,114.89726 149.79311,66.524462 l 0.0657,34.782408 c -6.99939,22.08856 -34.53745,36.85739 -68.403896,36.99686 -33.866441,0.13947 -63.023726,-15.03387 -68.447731,-37.65305 z"
         id="path10-5"
         sodipodi:nodetypes="ccczcc" /><path
         style="fill:#547586;fill-opacity:1;stroke:none;stroke-width:21.5289;stroke-dasharray:none"
         d="m 12.772455,112.76134 c 14.099463,56.78952 128.807935,49.01736 137.020665,0.64456 l 0.0657,34.78241 c -6.99939,22.08856 -34.53745,36.85739 -68.403908,36.99686 -33.866441,0.13947 -63.023726,-15.03387 -68.447731,-37.65305 z"
         id="path10-5-6"
         sodipodi:nodetypes="ccczcc" /></g></g></svg>
