<?xml version="1.0" encoding="UTF-8" standalone="no"?>
<!-- Created with Inkscape (http://www.inkscape.org/) -->

<svg
   width="200mm"
   height="200mm"
   viewBox="0 0 200 200"
   version="1.1"
   id="svg1"
   inkscape:version="1.3.1 (91b66b0783, 2023-11-16)"
   sodipodi:docname="helmet.svg"
   xml:space="preserve"
   xmlns:inkscape="http://www.inkscape.org/namespaces/inkscape"
   xmlns:sodipodi="http://sodipodi.sourceforge.net/DTD/sodipodi-0.dtd"
   xmlns="http://www.w3.org/2000/svg"
   xmlns:svg="http://www.w3.org/2000/svg"><sodipodi:namedview
     id="namedview1"
     pagecolor="#ffffff"
     bordercolor="#000000"
     borderopacity="0.25"
     inkscape:showpageshadow="2"
     inkscape:pageopacity="0.0"
     inkscape:pagecheckerboard="0"
     inkscape:deskcolor="#d1d1d1"
     inkscape:document-units="mm"
     inkscape:zoom="0.49134398"
     inkscape:cx="398.90587"
     inkscape:cy="480.31524"
     inkscape:window-width="1920"
     inkscape:window-height="976"
     inkscape:window-x="-8"
     inkscape:window-y="-8"
     inkscape:window-maximized="1"
     inkscape:current-layer="layer1"
     showguides="true" /><defs
     id="defs1" /><g
     inkscape:label="Слой 1"
     inkscape:groupmode="layer"
     id="layer1"><path
       style="fill:#547586;fill-opacity:1;stroke-width:0.394141"
       d="m 69.218557,163.73153 c -16.96099,-1.58392 -33.606002,-4.97978 -43.355397,-8.84521 -6.465043,-2.56347 -13.163158,-6.37184 -16.758969,-9.52899 -2.4089372,-2.11484 -2.5789323,-5.53946 -0.4032333,-8.12505 0.5159293,-0.61317 2.6374203,-2.05635 4.7146883,-3.20708 4.351707,-2.41061 14.863345,-7.33713 16.539758,-7.75178 l 1.136471,-0.28079 -0.277461,2.21945 c -0.308844,2.47313 -0.0428,3.80432 0.758915,3.80432 0.701616,0 0.900617,-1.18473 1.192105,-7.09462 0.133143,-2.7097 0.424394,-5.99096 0.646219,-7.29148 0.500475,-2.93509 2.487397,-7.30051 4.882068,-10.72609 1.272705,-1.8205 2.002851,-3.3873 2.424154,-5.20185 2.753444,-11.856865 4.665235,-17.690905 8.212544,-25.062745 3.978598,-8.267943 9.580827,-16.043969 15.505452,-21.521852 3.903704,-3.609363 5.117445,-4.248212 2.467662,-1.298619 -5.012358,5.579642 -9.7891,14.314535 -12.870171,23.534691 -1.325724,3.96789 -1.822633,6.09485 -1.880883,8.05372 -0.0428,1.46433 0.08559,2.75083 0.284118,2.85924 0.199714,0.10937 0.601759,-0.86709 0.893722,-2.16785 0.746552,-3.32596 2.32287,-7.98525 4.312169,-12.74511 5.405367,-12.935554 13.979775,-23.670207 24.133592,-30.214661 5.217778,-3.362811 12.452435,-6.374695 17.003072,-7.078451 1.754628,-0.271517 1.741558,-0.257965 -1.223251,1.25725 -15.184244,7.760334 -25.926981,21.135735 -32.531824,40.504002 -1.690678,4.95767 -1.882784,5.87826 -1.891581,9.06537 -0.02378,2.68497 0.171184,3.93033 0.739181,5.12363 l 0.749167,1.57679 0.503328,-4.92677 c 1.037564,-10.15619 6.842836,-23.463357 14.531368,-33.309756 8.523053,-10.914634 21.95052,-18.964791 35.1866,-21.094841 3.01878,-0.485734 8.56109,0.109367 12.3036,1.319066 2.24322,0.725867 2.42177,0.850689 1.3911,0.972895 -2.38421,0.282691 -9.15358,2.155252 -12.60911,3.487871 -10.54564,4.066805 -20.786472,12.021622 -27.349708,21.244389 -4.863285,6.834277 -10.528281,20.070826 -10.986198,25.669966 -0.242986,2.97123 0.812172,7.65406 2.048737,9.09153 l 0.858773,0.99833 0.02378,-5.07655 c 0.02378,-4.39229 0.154541,-5.54588 1.0825,-8.55753 3.612455,-11.72324 9.84212,-22.499022 17.052526,-29.496874 11.77555,-11.428423 31.12549,-18.556804 41.57674,-15.316198 1.3778,0.427246 3.55658,1.436517 4.8419,2.242508 l 2.33713,1.465761 -4.75296,0.684023 c -10.78458,1.552542 -18.90108,5.729427 -26.64905,13.713965 -6.40893,6.604843 -10.71967,14.069885 -14.47288,25.063925 l -2.018298,5.91203 0.16643,4.92676 c 0.19258,5.64122 1.089388,8.868045 2.467898,8.868045 0.62458,0 0.75368,-0.23062 0.66238,-1.18236 -0.0618,-0.650265 -0.21398,-3.339275 -0.33523,-5.975505 l -0.22111,-4.79315 2.04541,-6.04564 c 7.18044,-21.222994 19.93435,-33.849228 37.92363,-37.544184 5.62696,-1.155729 9.27627,-0.688302 14.30432,1.832618 2.73466,1.370897 8.51354,6.981923 10.00355,9.712305 l 0.93842,1.719684 -1.72659,-1.006418 c -2.89562,-1.687825 -7.48643,-3.028765 -10.36874,-3.028765 -1.4251,0 -2.59082,0.140276 -2.59082,0.312173 0,0.171184 1.54731,0.604374 3.43865,0.961482 5.30931,1.002139 10.16095,3.580596 13.8987,7.386345 4.69163,4.777456 10.91654,13.96361 12.79766,18.88633 2.84141,7.43604 4.54873,17.907735 4.6707,28.650475 l 0.0761,6.66856 -1.17522,1.63219 c -0.64645,0.89777 -2.19853,2.38112 -3.44888,3.29648 -2.37375,1.73799 -2.68069,2.32263 -1.6631,3.1669 0.50048,0.41536 0.83714,0.3961 1.87209,-0.10699 3.13504,-1.52568 5.79457,-4.81217 5.79457,-7.16048 0,-1.1688 0.37494,-1.25844 1.92059,-0.4591 1.7097,0.88421 2.12743,1.64408 2.07917,3.78364 -0.10937,4.92748 -3.58012,8.89109 -10.8426,12.38776 -3.93437,1.89444 -10.7677,4.54683 -11.71324,4.54683 -0.19973,0 -0.36259,-1.78245 -0.36259,-3.96147 v -3.96148 l 1.37827,-1.26248 1.37803,-1.26272 -1.74917,-5.07917 c -1.62529,-4.72016 -2.31383,-6.15739 -2.74298,-5.72824 -0.0951,0.0951 -0.36804,2.30028 -0.60675,4.90061 -0.3388,3.68711 -0.58417,4.83547 -1.11507,5.21683 -0.37447,0.2689 -1.14646,0.9106 -1.71565,1.42606 -1.59415,1.44365 -11.37588,3.14479 -27.47881,4.77936 -5.06038,0.51355 -9.28933,1.02258 -9.39799,1.13123 -0.10937,0.10937 0.55302,0.67119 1.47004,1.24988 l 1.66738,1.05279 5.67071,-0.43676 c 8.20803,-0.63243 20.13217,-2.34118 26.45646,-3.79172 0.89942,-0.20685 0.90038,-0.2021 0.78839,4.00689 l -0.11174,4.21326 -2.56182,1.36781 c -1.40917,0.75202 -4.78316,2.6707 -7.49785,4.26366 -11.71753,6.87494 -35.63619,13.38634 -59.11191,16.09176 -7.892288,0.90941 -18.431982,1.07584 -25.619325,0.40466 z m 33.896303,-17.74582 c 0,-3.75296 0.16642,-7.26104 0.36947,-7.79599 0.233,-0.61008 0.89372,-1.14527 1.77674,-1.43652 0.7739,-0.25535 1.58298,-0.79339 1.79791,-1.1952 0.6096,-1.13884 0.51498,-14.28933 -0.10224,-14.08866 -0.93009,0.3029 -1.4396,2.10556 -1.87089,6.61863 -0.23776,2.48573 -0.51023,4.75035 -0.60604,5.03233 -0.0951,0.28221 -0.98074,0.86971 -1.96671,1.30575 -1.70019,0.75202 -2.11103,0.77033 -7.985964,0.35497 -23.140251,-1.63671 -41.091253,-5.54232 -49.968324,-10.87231 -3.174747,-1.90609 -4.373034,-3.12863 -5.156913,-5.26153 -0.843556,-2.29553 -1.244411,-2.76034 -1.725628,-1.99905 -0.581074,0.91893 -0.448169,3.48621 0.257251,4.97289 3.472417,7.31788 24.839488,13.76271 52.173742,15.73727 4.660718,0.33666 8.873268,0.69472 9.360898,0.79576 0.878038,0.1807 0.886828,0.25012 0.886828,6.94959 0,6.39324 0.0452,6.81597 0.85236,7.67332 1.62957,1.73466 1.90656,0.74798 1.90656,-6.79125 z M 71.776566,114.25108 c 1.627911,-9.19708 2.959816,-17.018525 2.959816,-17.381105 2.38e-4,-0.84284 -1.392533,-1.29458 -7.094381,-2.30218 -2.492864,-0.44056 -5.834278,-1.08417 -7.425336,-1.43058 -3.902992,-0.8495 -10.705172,-0.1688 -10.705172,1.07275 0,0.4118 -0.08559,0.39206 8.474076,1.94223 3.685207,0.66738 7.356387,1.38754 8.158098,1.60033 l 1.457678,0.38706 0.118878,16.051585 c 0.104612,14.02043 0.301949,17.57654 0.9427,16.93555 0.08559,-0.0856 1.485733,-7.67855 3.113643,-16.87564 z m 88.064334,7.84403 2.00071,-0.46172 0.0262,-3.57822 c 0.0238,-1.9679 0.16881,-9.60841 0.34237,-16.97882 0.17356,-7.370425 0.26581,-13.460995 0.20209,-13.534465 -0.1688,-0.19496 -4.52448,0.8174 -4.67617,1.08725 -0.36424,0.64717 -0.6505,33.927695 -0.29196,33.927695 0.21873,0 1.29695,-0.20685 2.39729,-0.46172 z m -37.59839,-6.0901 4.12648,-1.034 v -2.31621 c 0,-1.59487 -0.15216,-2.31336 -0.49263,-2.30742 -0.27104,0 -2.52757,0.52734 -5.0145,1.16167 -5.36542,1.36852 -6.19828,1.199 -7.03232,-1.43081 -0.68925,-2.17403 -0.0832,-4.52211 1.44959,-5.6134 0.60984,-0.43414 3.35449,-1.35188 6.09938,-2.03923 l 4.99048,-1.24988 v -2.315975 c 0,-1.35592 -0.17118,-2.31622 -0.41417,-2.31622 -1.23442,0 -11.78505,2.92796 -12.78957,3.549215 -6.15881,3.80908 -5.94341,13.33427 0.36638,16.20018 2.16976,0.98573 3.85021,0.9301 8.71088,-0.28792 z m 8.83689,-2.15169 1.99001,-0.42677 0.0285,-4.20447 c 0.0238,-2.3124 0.16643,-9.968605 0.33072,-17.014015 0.16405,-7.04516 0.25392,-12.86969 0.19734,-12.94316 -0.15217,-0.19733 -4.51355,0.81931 -4.66548,1.08726 -0.0713,0.12601 -0.25653,7.81097 -0.41155,17.07844 -0.19496,11.593665 -0.15454,16.849485 0.12839,16.849485 0.22587,0 1.30599,-0.19258 2.40061,-0.42677 z m 14.6588,-3.72563 9.31859,-2.31288 0.1902,-2.18687 c 0.10461,-1.20281 0.12601,-2.29957 0.0452,-2.43747 -0.11412,-0.19972 -10.63527,2.27888 -18.7753,4.42415 l -1.47788,0.38968 v 2.39539 c 0,2.08654 0.0903,2.37279 0.68973,2.21825 0.37922,-0.0975 4.88301,-1.21826 10.00831,-2.49025 z m -0.0262,-6.93009 9.82239,-2.41155 v -2.318125 c 0,-1.82263 -0.13077,-2.31835 -0.6058,-2.31835 -0.49667,0 -12.25605,2.85235 -18.01758,4.370665 l -1.47788,0.38944 v 2.34974 c 0,1.2922 0.10223,2.3495 0.22824,2.3495 0.12601,0 4.64836,-1.08512 10.05063,-2.41132 z m 32.81594,-2.17522 c 4.60128,-3.339515 4.77556,-10.419875 0.3545,-14.402035 -2.35806,-2.12387 -4.2368,-2.30242 -9.84284,-0.93509 l -4.44008,1.08274 v 2.32596 c 0,1.60223 0.15217,2.32334 0.49263,2.31811 0.27104,0 2.1776,-0.44436 4.23704,-0.97765 2.05944,-0.53329 4.29315,-0.97289 4.96409,-0.97717 1.71802,-0.0238 2.62292,1.15501 2.82715,3.64383 0.1379,1.68807 0.0238,2.26153 -0.69282,3.15478 -1.20042,1.52092 -2.29125,1.9912 -7.59105,3.27223 l -4.63124,1.119355 v 2.43366 2.43367 l 6.2078,-1.55397 c 5.07417,-1.27033 6.55586,-1.80671 8.11482,-2.93842 z m -32.05893,-4.867335 8.86828,-2.21944 0.1165,-2.45269 0.11888,-2.45268 -1.10295,0.27936 c -0.60675,0.15454 -5.09391,1.27793 -9.97122,2.49881 l -8.86828,2.21968 -0.11887,2.45245 -0.1165,2.45268 1.10318,-0.27936 c 0.60652,-0.15454 5.09367,-1.27794 9.97098,-2.49881 z"
       id="path5695"
       inkscape:connector-curvature="0" /></g></svg>
