<?xml version="1.0" encoding="UTF-8" standalone="no"?>
<!-- Created with Inkscape (http://www.inkscape.org/) -->

<svg
   width="200mm"
   height="200mm"
   viewBox="0 0 200 200"
   version="1.1"
   id="svg1"
   inkscape:version="1.3.1 (91b66b0783, 2023-11-16)"
   sodipodi:docname="help.svg"
   xmlns:inkscape="http://www.inkscape.org/namespaces/inkscape"
   xmlns:sodipodi="http://sodipodi.sourceforge.net/DTD/sodipodi-0.dtd"
   xmlns="http://www.w3.org/2000/svg"
   xmlns:svg="http://www.w3.org/2000/svg">
  <sodipodi:namedview
     id="namedview1"
     pagecolor="#ffffff"
     bordercolor="#000000"
     borderopacity="0.25"
     inkscape:showpageshadow="2"
     inkscape:pageopacity="0.0"
     inkscape:pagecheckerboard="0"
     inkscape:deskcolor="#d1d1d1"
     inkscape:document-units="mm"
     inkscape:zoom="0.69486532"
     inkscape:cx="247.52998"
     inkscape:cy="497.93822"
     inkscape:window-width="1827"
     inkscape:window-height="960"
     inkscape:window-x="2"
     inkscape:window-y="0"
     inkscape:window-maximized="0"
     inkscape:current-layer="layer1" />
  <defs
     id="defs1" />
  <g
     inkscape:label="Слой 1"
     inkscape:groupmode="layer"
     id="layer1">
    <g
       transform="matrix(3.3727196,0,0,3.3737671,11537.105,4841.5282)"
       id="g3820-4-8-4-7-3-2"
       style="stroke-width:0.523746" />
    <g
       id="g13"
       transform="matrix(15.861547,0,0,15.861547,-2657.1956,1167.0723)">
      <path
         style="fill:#547586;fill-opacity:1;stroke-width:0.17179"
         d="m 173.20517,-63.767588 c -0.0908,-0.07145 -0.14817,-0.07304 -2.68862,-0.07304 h -2.59576 l 0.55069,-6.464594 0.51421,-1.4e-5 0.0314,-0.217229 h 0.52992 l 0.0288,-0.478196 0.51748,0.02172 0.0226,-0.49598 c 0.0804,0 0.77095,0.164958 0.97233,0.236661 l 0.15515,0.05524 v -0.157169 c 0,-0.08646 0.0103,-0.28305 0.0236,-0.436874 l 0.0236,-0.279699 0.27759,0.15047 c 0.89208,0.483597 1.72542,1.194489 2.10578,1.796333 0.0991,0.156635 0.19708,0.309847 0.21806,0.340494 0.0333,0.0486 0.0927,0.03689 0.46584,-0.0918 1.04349,-0.359807 2.37984,-0.590488 3.756,-0.64838 l 0.57212,-0.02408 0.0123,0.100964 c 0.0123,0.100101 0.0144,0.100985 0.29236,0.104375 l 0.28026,0.0035 0.0214,0.202442 0.49521,6.281823 -5.33086,0.07304 c -0.0939,0.0013 -0.12166,0.07304 -0.6158,0.07304 -0.48749,0 -0.55223,-0.0074 -0.63562,-0.07304 z m -0.61717,-0.639301 c -0.037,-0.03693 -1.08542,-0.168966 -1.74617,-0.219904 -0.37153,-0.02865 -1.01645,-0.0524 -1.43315,-0.05283 l -0.77327,0.03099 0.33879,-5.121428 -0.12535,-0.0095 -0.41685,5.410506 c 0.002,0.015 0.99581,-0.01993 2.12374,-0.01993 1.12795,0 2.04245,-0.0084 2.03221,-0.0185 z m 6.34765,-5.386314 c -8.2e-4,-0.01089 -0.18557,-0.0074 -0.18475,0.0041 l 0.26278,4.214192 -0.52377,0.438137 -0.52375,0.438157 -0.70506,0.04429 c -0.68971,0.04332 -2.34517,0.315841 -2.08355,0.313229 l 4.14578,-0.04141 z m -4.58005,5.281108 c 0.59964,-0.173384 1.81622,-0.345681 2.88507,-0.408565 0.23598,-0.01397 0.42903,-0.03266 0.42903,-0.04172 0,-0.009 -0.0353,-0.138407 -0.0787,-0.28748 -0.0434,-0.149093 -0.0693,-0.280456 -0.0577,-0.291964 0.0123,-0.01151 0.28109,-0.07115 0.59908,-0.132571 0.31798,-0.06142 0.58382,-0.116397 0.59077,-0.122193 0.0224,-0.01891 -0.26767,-4.205158 -0.27145,-4.24578 l -0.0216,-0.231915 -0.37094,0.0247 c -1.53563,0.102177 -2.76464,0.326409 -3.75645,0.685338 l -0.32056,0.116028 0.036,5.023398 c 0,0.01973 0.1718,-0.03927 0.33774,-0.08728 z m -1.74231,-0.222894 c -0.69553,-0.228323 -1.61911,-0.365249 -2.74338,-0.406734 l -0.64512,-0.02314 0.30968,-5.140356 h -0.25621 l -0.34709,5.338824 c -8.4e-4,0.01521 0.31292,0.02622 0.67923,0.02846 1.01324,0.0064 2.46231,0.130413 2.98464,0.255872 0.25604,0.06153 0.26732,0.02883 0.0185,-0.05292 z m 0.3285,-0.258315 c -0.68519,-0.489465 -1.69981,-0.844686 -2.67526,-0.936601 l -0.41119,-0.03964 0.2246,-4.735454 h -0.24983 l -0.31712,5.294341 h 0.26144 c 0.97259,0 2.34577,0.21013 3.0762,0.470726 0.28464,0.10156 0.29748,0.09404 0.0912,-0.05335 z m 0.63852,-4.767567 c -0.3875,-0.652256 -0.90983,-1.160748 -1.70554,-1.660337 -0.17262,-0.108362 -0.33193,-0.192886 -0.33249,-0.178418 l -0.18865,4.862938 0.14406,0.04318 c 0.25489,0.07634 0.79477,0.366897 1.08701,0.584997 0.34683,0.258785 0.7965,0.7059 0.98449,0.978894 l 0.13954,0.202525 0.0185,-4.586054 z m 4.63106,4.5135 c 0.12679,-0.109883 0.21343,-0.199811 0.19235,-0.199811 -0.1455,0 -0.55085,0.0955 -0.55085,0.129776 0,0.06831 0.0781,0.271956 0.10398,0.270846 0.0123,0 0.12762,-0.09094 0.25452,-0.200819 z m -5.32439,-0.249284 c -0.50538,-0.489437 -1.06157,-0.829017 -1.62706,-0.993401 l -0.20448,-0.05943 0.17037,-4.356342 -0.29211,-0.09753 c -0.1607,-0.05364 -0.35373,-0.108856 -0.42901,-0.122727 -0.13275,-0.02444 -0.13131,-0.02176 -0.13686,0.08136 l -0.25561,4.742969 c -0.004,0.07178 0.0247,0.08339 0.22821,0.105876 0.4007,0.04433 0.95515,0.161588 1.30886,0.276869 0.41767,0.136085 1.07479,0.450928 1.34745,0.645585 0.11036,0.07883 0.20898,0.136435 0.21894,0.127968 0.0103,-0.0084 -0.13789,-0.16652 -0.32862,-0.35119 z"
         id="path66-6"
         sodipodi:nodetypes="csccccccccscsscssssscsscccsscccscccccsccsscccsscssssssssscsscsssccssssssccscssscsscssscccssscsssccssssssssssccsccs" />
      <path
         d="m 174.30271,-69.564245 m -0.0551,0.29702 m 0.2999,2.132926 c 0,-0.129591 0.002,-0.131009 0.24649,-0.203141 0.77206,-0.227481 1.75243,-0.392053 2.55589,-0.429039 l 0.5203,-0.02394 v 0.133433 c 0,0.12618 -0.006,0.133496 -0.11858,0.133804 -0.67193,0.0017 -1.85052,0.16802 -2.60152,0.366911 -0.66174,0.175213 -0.60247,0.173076 -0.60247,0.02195 z m -0.0298,-0.547956 c -0.008,-0.121864 -0.006,-0.122481 0.25725,-0.200223 0.78868,-0.231663 1.76117,-0.396615 2.54991,-0.432506 l 0.50881,-0.02314 v 0.149628 c 0,0.135653 -0.008,0.148106 -0.0822,0.133372 -0.14139,-0.02797 -1.12024,0.05362 -1.59743,0.133125 -0.25102,0.04182 -0.70946,0.14038 -1.01872,0.219025 -0.30926,0.07863 -0.57293,0.142969 -0.58587,0.142969 -0.0123,0 -0.0273,-0.05501 -0.0319,-0.122255 z m -0.006,-0.502004 c 0,-0.135756 0.002,-0.138017 0.20994,-0.198373 0.81006,-0.235504 1.90482,-0.413066 2.63806,-0.427843 l 0.45639,-0.0092 0.0123,0.136927 0.0103,0.136928 h -0.38702 c -0.69689,0 -1.64202,0.14262 -2.49277,0.37615 l -0.44726,0.122789 z m -0.0366,-0.498915 v -0.145168 l 0.3427,-0.09509 c 0.80997,-0.224692 1.69175,-0.370366 2.49059,-0.411452 l 0.47817,-0.0246 0.0236,0.118453 c 0.0123,0.06515 0.0144,0.133187 0.004,0.15121 -0.0103,0.01808 -0.20742,0.03276 -0.43614,0.03276 -0.47293,0 -1.0392,0.06693 -1.69975,0.20088 -0.39901,0.08091 -0.96642,0.227444 -1.14279,0.295117 -0.0493,0.01891 -0.06,-0.0025 -0.06,-0.122131 z"
         style="fill:#df601c;fill-opacity:1;stroke-width:0.17179"
         id="path1" />
      <path
         style="opacity:1;fill:#df601c;fill-opacity:1;stroke:none;stroke-width:0.0105833"
         d="m 168.47148,-70.30522 -0.55069,6.464594 4.63299,0.0054 0.4432,0.01402 0.27848,0.09437 c 0.0819,0.05328 0.60587,0.04295 0.92976,0.01286 l 0.25141,-0.05359 5.33086,-0.07304 -0.51661,-6.484262 -0.52535,-0.01918 0.005,0.554951 0.18475,-0.0041 0.38768,5.410694 -4.65744,0.04736 -0.27117,0.162402 c -0.35629,0.162908 -0.66779,0.235928 -1.25367,0.05049 l -0.26698,-0.301455 -4.44207,0.05466 0.41685,-5.410504 0.12535,0.0095 0.0115,-0.535175 z"
         id="path12"
         sodipodi:nodetypes="cccccccccccccccccccccc" />
    </g>
  </g>
</svg>
