<?xml version="1.0" encoding="UTF-8" standalone="no"?>
<!-- Created with Inkscape (http://www.inkscape.org/) -->

<svg
   width="200mm"
   height="200mm"
   viewBox="0 0 200 200"
   version="1.1"
   id="svg1"
   inkscape:version="1.3.1 (91b66b0783, 2023-11-16)"
   sodipodi:docname="help1.svg"
   xml:space="preserve"
   xmlns:inkscape="http://www.inkscape.org/namespaces/inkscape"
   xmlns:sodipodi="http://sodipodi.sourceforge.net/DTD/sodipodi-0.dtd"
   xmlns="http://www.w3.org/2000/svg"
   xmlns:svg="http://www.w3.org/2000/svg"><sodipodi:namedview
     id="namedview1"
     pagecolor="#ffffff"
     bordercolor="#000000"
     borderopacity="0.25"
     inkscape:showpageshadow="2"
     inkscape:pageopacity="0.0"
     inkscape:pagecheckerboard="0"
     inkscape:deskcolor="#d1d1d1"
     inkscape:document-units="mm"
     inkscape:zoom="0.34743266"
     inkscape:cx="716.68564"
     inkscape:cy="110.81284"
     inkscape:window-width="1488"
     inkscape:window-height="999"
     inkscape:window-x="319"
     inkscape:window-y="12"
     inkscape:window-maximized="0"
     inkscape:current-layer="layer1"
     showguides="true" /><defs
     id="defs1" /><g
     inkscape:label="Слой 1"
     inkscape:groupmode="layer"
     id="layer1"><g
       id="g81"
       transform="matrix(2.3799665,0,0,2.3799665,6929.3301,4266.9854)"><path
         id="rect74"
         style="fill:#547586;fill-opacity:1;stroke:#547586;stroke-width:0.125935;stroke-opacity:1"
         d="m -2900.4552,-1778.9491 v 67.117 h 49.8762 v -67.117 z m 5.2861,4.7585 h 39.4259 v 57.2667 h -39.4259 z"
         sodipodi:nodetypes="cccccccccc" /><path
         id="path74"
         style="fill:#df601c;fill-opacity:1;stroke:none;stroke-width:0.125935;stroke-opacity:1"
         d="m -2889.2757,-1788.4369 v 6.9321 h 5.0523 v -2.003 h 39.4034 v 57.1331 l -3.0327,0.091 4e-4,4.9634 h 8.4531 v -67.1172 z"
         sodipodi:nodetypes="ccccccccccc" /><path
         id="path76"
         style="fill:#df601c;fill-opacity:1;stroke-width:0.794584"
         d="m -2882.1365,-1722.7818 5.3229,5.1245 5.6696,-5.585 -5.3226,-5.1244 z" /><path
         id="path78"
         style="fill:#df601c;fill-opacity:1;stroke-width:1.01834"
         d="m -2876.4244,-1768.8863 c -2.8152,0.022 -5.7578,0.7068 -8.5395,2.3557 l -5.2902,3.1356 4.4943,2.4076 -1.5659,5.8379 c 0,0.091 1.0231,-0.551 2.0692,-1.2244 4.109,-2.6448 8.2374,-3.9275 11.2151,-2.5783 1.8657,0.8453 3.0889,2.6375 3.3499,5.0866 0.5125,4.8055 -2.8755,9.3999 -8.4622,11.7006 l -1.9032,0.7842 v 11.5804 l 4.675,-3.7412 4.2116,3.7412 v -7.7901 l 1.7966,-1.069 c 2.8194,-1.6772 5.6602,-4.2026 6.8858,-6.1213 1.8865,-2.9534 2.7216,-4.5369 2.7076,-9.0674 -0.012,-3.6032 -0.309,-4.8884 -1.076,-6.6793 -1.0272,-2.3988 -2.931,-4.6341 -4.9514,-5.8132 -2.5883,-1.5105 -5.9975,-2.5747 -9.6167,-2.5456 z"
         sodipodi:nodetypes="sscccsssscccccssssss" /></g></g></svg>
