<?xml version="1.0" encoding="UTF-8" standalone="no"?>
<!-- Created with Inkscape (http://www.inkscape.org/) -->

<svg
   width="200mm"
   height="200mm"
   viewBox="0 0 200 200"
   version="1.1"
   id="svg1"
   inkscape:version="1.3.1 (91b66b0783, 2023-11-16)"
   sodipodi:docname="ice.svg"
   xml:space="preserve"
   xmlns:inkscape="http://www.inkscape.org/namespaces/inkscape"
   xmlns:sodipodi="http://sodipodi.sourceforge.net/DTD/sodipodi-0.dtd"
   xmlns="http://www.w3.org/2000/svg"
   xmlns:svg="http://www.w3.org/2000/svg"><sodipodi:namedview
     id="namedview1"
     pagecolor="#ffffff"
     bordercolor="#000000"
     borderopacity="0.25"
     inkscape:showpageshadow="2"
     inkscape:pageopacity="0.0"
     inkscape:pagecheckerboard="0"
     inkscape:deskcolor="#d1d1d1"
     inkscape:document-units="mm"
     inkscape:zoom="0.49134398"
     inkscape:cx="398.90587"
     inkscape:cy="480.31524"
     inkscape:window-width="1920"
     inkscape:window-height="976"
     inkscape:window-x="-8"
     inkscape:window-y="-8"
     inkscape:window-maximized="1"
     inkscape:current-layer="layer1"
     showguides="true" /><defs
     id="defs1"><filter
       inkscape:collect="always"
       style="color-interpolation-filters:sRGB"
       id="filter48"
       x="-0.11843608"
       y="-0.10522444"
       width="1.2368722"
       height="1.2104489"><feGaussianBlur
         inkscape:collect="always"
         stdDeviation="6.9647972"
         id="feGaussianBlur48" /></filter></defs><g
     inkscape:label="Слой 1"
     inkscape:groupmode="layer"
     id="layer1"><g
       id="g49"
       transform="translate(-478.20149,2123.4211)"><path
         style="fill:#df601c;fill-opacity:1;stroke-width:0.191354;filter:url(#filter48)"
         d="m 575.01928,-1944.0402 -1.13808,-0.7355 -0.57844,-0.7474 -0.57878,-0.7474 -0.51346,-0.8953 -0.51356,-0.8949 v -5.6284 -5.6282 l -0.12608,-3.1637 -0.12446,-3.1639 -0.52675,-0.311 -0.52652,-0.3112 h -0.45145 -0.45168 l -2.67638,1.4641 -2.67626,1.4641 -1.43527,0.6887 -1.43503,0.6887 h -1.53074 -1.53085 l -0.86118,-0.4469 -0.86107,-0.4468 -0.73408,-0.7014 -0.73408,-0.701 -0.50887,-0.957 -0.50886,-0.9568 3.4e-4,-1.818 1.1e-4,-1.8177 0.61237,-1.1738 0.61236,-1.174 0.75413,-0.6438 0.75414,-0.644 4.65983,-2.6621 4.66016,-2.6622 1.53085,-0.9934 1.53074,-0.9933 0.51151,-0.4838 0.5115,-0.4833 0.54108,-1.0276 0.54096,-1.0274 v -4.8795 -4.8798 l -0.2447,-0.4283 -0.2448,-0.428 -0.4683,-0.1174 -0.46864,-0.1174 -1.46335,0.803 -1.46334,0.8031 -2.40132,1.5313 -2.40154,1.5312 -1.0276,0.504 -1.02771,0.504 -0.50405,-0.2833 -0.50406,-0.2832 -0.15759,-0.5739 -0.1577,-0.574 -0.18854,-4.6401 -0.18864,-4.6396 -0.28,-0.6702 -0.28022,-0.6704 h -0.57466 -0.57477 l -1.4842,0.7815 -1.4842,0.7818 -2.29622,1.3541 -2.29656,1.3541 -0.88892,0.8891 -0.88937,0.8894 -0.33318,1.0033 -0.33328,1.0033 -0.16642,1.8557 -0.16641,1.8559 v 6.2079 6.2079 l -0.75849,1.2772 -0.75895,1.2769 -0.71551,0.6283 -0.71552,0.6284 -1.04421,0.4779 -1.04421,0.4781 h -1.2653 -1.2653 l -0.85637,-0.3804 -0.85682,-0.3808 -0.62578,-0.5287 -0.62542,-0.529 -0.48343,-0.8246 -0.4832,-0.8249 -0.19724,-0.6382 -0.19518,-0.638 -0.149,-4.4621 -0.15231,-4.4622 -0.38108,-0.513 -0.38131,-0.513 -0.45947,-0.054 -0.45959,-0.054 -1.53062,0.7431 -1.53108,0.7432 -4.59255,2.5485 -4.59232,2.5482 -1.33945,0.635 -1.33956,0.6349 -1.25877,0.3092 -1.25899,0.3096 -1.22874,-0.307 -1.22862,-0.3074 -1.40077,-0.702 -1.40054,-0.702 -0.61259,-0.7155 -0.61259,-0.7158 -0.33191,-0.9257 -0.33157,-0.9256 v -1.5716 -1.5715 l 0.40446,-1.0815 0.4048,-1.0817 0.71299,-0.7129 0.71311,-0.7133 1.70483,-1.0527 1.7046,-1.053 4.40103,-2.4545 4.40127,-2.4548 1.29395,-0.8472 1.29406,-0.847 0.28469,-0.4065 0.28458,-0.4065 v -0.3043 -0.3043 l -0.52824,-0.5062 -0.52847,-0.5065 -3.24588,-1.742 -3.24599,-1.7423 -0.84445,-0.6921 -0.84445,-0.6919 -0.48869,-1.0659 -0.48847,-1.066 v -1.5308 -1.5309 l 0.4307,-1.1024 0.43048,-1.1025 0.89442,-0.9176 0.89396,-0.9173 1.14828,-0.5634 1.14816,-0.5631 h 1.46828 1.46838 l 2.07158,1.0552 2.07193,1.0551 5.01271,3.0109 5.01271,3.0112 h 2.05382 2.05358 l 4.5725,-2.7077 4.57249,-2.7074 0.40515,-0.3282 0.40514,-0.328 -2.95477,-1.7327 -2.95476,-1.7325 -1.98196,-1.2116 -1.98195,-1.2118 -0.45787,-0.4214 -0.45776,-0.4213 v -0.4617 -0.4618 l 0.39449,-0.5016 0.39472,-0.5016 3.6108,-2.3912 3.61068,-2.3912 0.30016,-0.4284 0.30005,-0.4286 v -0.3586 -0.3583 l -0.31151,-0.5275 -0.31162,-0.5276 -1.93692,-1.1599 -1.93668,-1.1601 -2.00912,-1.054 -2.00946,-1.0536 -0.82004,-0.2167 -0.82049,-0.2147 -1.18714,0.3042 -1.18736,0.3041 -1.95204,1.0332 -1.95216,1.0333 -3.49057,2.0461 -3.4908,2.0464 -1.34381,0.6826 -1.3438,0.6827 -1.6536,0.079 -1.65314,0.08 -1.09063,-0.3169 -1.09006,-0.3169 -0.92284,-0.9011 -0.92296,-0.901 -0.42623,-1.1482 -0.42612,-1.1483 0.0802,-1.6263 0.0802,-1.6265 0.50326,-0.9803 0.50336,-0.9805 0.84354,-0.7425 0.84364,-0.7427 1.66506,-0.9563 1.66517,-0.9558 1.68294,-1.091 1.68317,-1.091 0.23575,-0.5692 0.23587,-0.5692 -0.12091,-0.3839 -0.1208,-0.3844 -0.99585,-0.6553 -0.99574,-0.6555 -3.92288,-2.1571 -3.92265,-2.1571 -2.29633,-1.3592 -2.29622,-1.3597 -0.7884,-0.786 -0.78806,-0.7858 -0.40779,-1.0897 -0.40778,-1.0896 v -1.6122 -1.612 l 0.40778,-1.0898 0.40779,-1.0894 0.80525,-0.8057 0.80559,-0.8055 1.49429,-0.7385 1.49429,-0.7384 1.28123,-0.072 1.28157,-0.073 1.40203,0.6153 1.40226,0.6155 5.15162,2.9488 5.1515,2.9489 1.51526,0.7906 1.51503,0.7908 0.46601,-0.2125 0.46566,-0.2123 0.28435,-0.4392 0.28458,-0.4393 0.1757,-4.7839 0.17558,-4.7838 0.42153,-0.9757 0.42166,-0.9755 0.80227,-0.7782 0.80204,-0.7785 0.86107,-0.4467 0.86118,-0.4464 h 1.33956 1.33946 l 1.10071,0.5133 1.10083,0.5133 1.04525,0.9887 1.04525,0.9885 0.43678,0.8873 0.43678,0.8877 0.11736,8.1326 0.11736,8.1325 0.32893,1.0282 0.32882,1.0279 0.90198,0.9021 0.90187,0.902 1.71468,1.0205 1.71492,1.0206 2.15089,1.1158 2.15077,1.1155 h 0.5334 0.53328 l 0.41008,-0.2873 0.41019,-0.2872 0.14544,-0.6219 0.14544,-0.6215 0.0206,-4.4093 0.0206,-4.4091 0.33924,-0.5182 0.33937,-0.5181 h 0.68926 0.68927 l 1.17189,0.5207 1.17223,0.5206 2.9911,1.5845 2.99122,1.5844 0.58004,0.1157 0.58027,0.1156 0.57099,-0.3372 0.5711,-0.3373 0.14017,-3.5569 0.14017,-3.5569 -0.11347,-1.6113 -0.11231,-1.6116 -0.49615,-1.0138 -0.49615,-1.0144 -0.82623,-0.7246 -0.82611,-0.7242 -2.0812,-1.2236 -2.08121,-1.2231 -4.11428,-2.4461 -4.11405,-2.4462 -0.60148,-0.6359 -0.60124,-0.6361 -0.44435,-0.8612 -0.44469,-0.861 v -1.8179 -1.8178 l 0.53191,-1.0831 0.53214,-1.0833 0.75104,-0.6784 0.75115,-0.6787 0.82164,-0.4274 0.8221,-0.4272 h 1.33934 1.33956 l 1.33945,0.5391 1.33946,0.5392 2.8703,1.5803 2.87052,1.5807 0.43346,0.1296 0.43334,0.1296 0.63655,-0.3936 0.63689,-0.3933 0.12607,-3.0168 0.12618,-3.0169 5.8e-4,-5.7784 6.9e-4,-5.7782 0.65488,-1.1105 0.65454,-1.1105 0.7327,-0.7026 0.73248,-0.7023 1.04811,-0.6847 1.04799,-0.685 h 1.69073 1.69051 l 1.0167,0.4809 1.01637,0.4809 0.87665,0.7717 0.87654,0.7717 0.72365,1.187 0.72331,1.1874 0.11747,8.6108 0.11736,8.6112 0.15415,0.3558 0.15415,0.3564 0.57982,0.2437 0.57993,0.2439 0.58737,-0.2017 0.5875,-0.2015 2.58331,-1.431 2.58332,-1.4305 1.14816,-0.547 1.14783,-0.5471 h 1.62677 1.62644 l 0.6778,0.1886 0.6777,0.1885 0.59987,0.443 0.60009,0.4425 0.78589,0.9467 0.78622,0.9466 0.39873,1.3056 0.39908,1.3054 -0.12619,0.942 -0.12607,0.9424 -0.35518,0.814 -0.35472,0.8139 -0.64319,0.5942 -0.64319,0.5941 -0.8613,0.57 -0.86095,0.5695 -1.91331,1.149 -1.91376,1.1486 -2.87007,1.6884 -2.87053,1.6885 -1.33945,0.9063 -1.33945,0.9065 -0.59299,0.6417 -0.59288,0.6418 -0.3161,0.4732 -0.31609,0.473 v 4.9202 4.9201 l 0.20377,0.5349 0.20378,0.5348 0.22704,0.1454 0.22728,0.1455 h 0.4354 0.43518 l 1.36695,-0.6886 1.36685,-0.6882 2.02504,-1.2546 2.02471,-1.255 1.19963,-0.5642 1.19928,-0.5641 0.46268,0.3032 0.46257,0.303 0.0997,0.8169 0.0997,0.8171 0.0905,4.2096 0.0905,4.2097 0.21031,0.7112 0.2102,0.711 0.31449,0.3148 0.31438,0.3144 0.8237,-0.093 0.8237,-0.093 1.0221,-0.5003 1.02209,-0.5 2.47283,-1.3612 2.47295,-1.3614 0.98233,-0.7353 0.98266,-0.735 0.41123,-0.8499 0.41122,-0.8497 0.19082,-1.1221 0.19071,-1.1223 0.17181,-8.4799 0.17168,-8.4796 0.77958,-1.032 0.77935,-1.0323 0.85247,-0.4997 0.85236,-0.4995 1.29131,-0.182 1.2912,-0.1821 1.40146,0.1951 1.40134,0.1951 0.73694,0.3759 0.73672,0.3758 0.78966,0.897 0.78944,0.8972 0.28629,0.9634 0.2863,0.9638 v 3.1701 3.1708 l 0.16286,1.41 0.16298,1.4102 0.38383,0.3838 0.38371,0.3837 h 0.46452 0.46474 l 2.95042,-1.48 2.95052,-1.48 3.3488,-1.7846 3.34868,-1.7849 1.53085,-0.7298 1.53074,-0.7297 h 1.33945 1.33968 l 1.27275,0.5955 1.27263,0.5956 0.77763,0.7778 0.77797,0.778 0.53294,1.0111 0.5326,1.011 v 2.2007 2.2005 l -0.41661,0.7785 -0.41661,0.7785 -0.79849,0.7211 -0.79826,0.7212 -1.59297,1.0384 -1.59274,1.0381 -4.25743,2.4636 -4.25754,2.4633 -1.20501,0.8738 -1.20467,0.8741 -0.12963,0.5193 -0.12973,0.5195 0.65075,0.5929 0.65087,0.593 1.91331,1.1181 1.91365,1.1178 1.58678,1.0551 1.58678,1.0547 0.44778,0.5984 0.44767,0.5988 0.31586,0.6243 0.31575,0.6243 0.11564,1.4881 0.11565,1.4884 -0.3114,1.0706 -0.31128,1.0711 -0.87115,0.969 -0.87127,0.9687 -1.09109,0.5361 -1.09098,0.5357 h -1.34575 -1.34575 l -2.57725,-1.4044 -2.57712,-1.4043 -4.11394,-2.4073 -4.11405,-2.4075 -1.05247,-0.4339 -1.05246,-0.434 h -1.18576 -1.18576 l -1.45131,0.7511 -1.45142,0.7511 -3.05162,2.0334 -3.05161,2.0332 -0.29123,0.4155 -0.29099,0.4156 v 0.4102 0.41 l 0.40205,0.5108 0.40194,0.511 3.28152,2.1819 3.28152,2.182 0.63162,0.618 0.63173,0.6183 -0.0573,0.5833 -0.0573,0.5833 -0.95654,0.7255 -0.95699,0.7257 -2.1047,1.2773 -2.10505,1.2774 -1.10072,0.7378 -1.10083,0.7375 -0.30234,0.4615 -0.30246,0.4615 0.12962,0.4081 0.12974,0.4076 1.17797,0.7645 1.17796,0.7642 3.5339,1.7553 3.53435,1.7556 h 1.24971 1.24994 l 1.0653,-0.4235 1.0653,-0.4235 5.59448,-3.0566 5.59435,-3.0565 0.89878,-0.404 0.89877,-0.4042 1.06634,-0.102 1.06587,-0.102 1.05556,0.3067 1.05533,0.3068 0.88525,0.7793 0.88525,0.7793 0.62887,1.2768 0.62898,1.2771 0.0642,1.5355 0.0653,1.5353 -0.42853,1.1482 -0.42852,1.1479 -0.68847,0.6789 -0.68812,0.6788 -3.29745,1.9587 -3.29745,1.9585 -0.19519,0.3638 -0.19506,0.3639 v 0.6652 0.6654 l 0.55196,0.4643 0.55162,0.4643 3.70592,2.2575 3.70581,2.2574 2.00924,1.2429 2.00923,1.2427 1.04502,0.8517 1.04524,0.8517 0.40939,0.6067 0.40927,0.6063 0.25513,0.7655 0.25523,0.7654 0.0206,1.6303 0.0206,1.6305 -0.62577,1.2715 -0.62589,1.2713 -0.70474,0.6191 -0.70496,0.6189 -1.06107,0.4977 -1.06117,0.4977 h -2.30023 -2.30034 l -1.23974,-0.6162 -1.23997,-0.6161 -3.53986,-2.0295 -3.53996,-2.0294 -2.2584,-1.1521 -2.25817,-1.152 -0.48101,0.1208 -0.48137,0.121 -0.29627,0.7092 -0.29638,0.7092 -0.13489,4.2113 -0.1349,4.2113 -0.39564,0.8844 -0.39574,0.8848 -0.72709,0.8046 -0.72709,0.8046 -0.96892,0.4949 -0.9688,0.4948 -1.45944,0.089 -1.45922,0.089 -0.95001,-0.3153 -0.94954,-0.3157 -0.7664,-0.5632 -0.76652,-0.5639 -0.53706,-0.7752 -0.53741,-0.7753 -0.26245,-1.0001 -0.26246,-0.9998 -0.19495,-8.0371 -0.19519,-8.0369 -0.6127,-0.9046 -0.61271,-0.9045 -0.89213,-0.6806 -0.89247,-0.6806 -1.59686,-0.9552 -1.59732,-0.9555 -2.42619,-1.2387 -2.42607,-1.2388 h -0.36687 -0.36652 l -0.33879,0.3744 -0.33856,0.3742 -0.16469,1.4914 -0.1647,1.4916 -0.16813,3.6017 -0.16997,3.6016 -0.29764,0.2977 -0.29764,0.2975 -0.66245,-0.1226 -0.66268,-0.1227 -2.75065,-1.6418 -2.75064,-1.642 -1.24375,-0.6435 -1.24375,-0.6433 -0.49054,-0.1135 -0.49018,-0.1156 -0.46658,0.3773 -0.46624,0.3773 -0.0573,4.9445 -0.0596,4.9444 0.11003,0.5908 0.10888,0.5904 0.83344,0.8698 0.83322,0.8697 1.41234,0.951 1.41223,0.9511 4.01846,2.3546 4.01836,2.3549 1.53096,1.0049 1.53085,1.0051 0.63655,1.0555 0.63666,1.0556 0.21466,1.2583 0.21455,1.2577 -0.21913,1.2795 -0.21914,1.2794 -0.72858,1.0471 -0.72857,1.0475 -1.02531,0.5736 -1.02507,0.5737 -1.38186,0.089 -1.3822,0.089 -1.03711,-0.304 -1.03745,-0.3038 -3.44427,-1.9166 -3.44438,-1.9168 h -0.54451 -0.54463 l -0.54497,0.3883 -0.5452,0.3882 -0.0585,8.749 -0.0573,8.749 -0.56033,1.0114 -0.56045,1.0114 -0.94244,0.9424 -0.94278,0.9427 -0.80594,0.39 -0.80571,0.3902 h -2.20625 -2.20613 z"
         id="path3107"
         inkscape:connector-curvature="0" /><path
         style="fill:#547586;fill-opacity:1;stroke-width:0.166961"
         d="m 575.44407,-1954.0694 -0.993,-0.6418 -0.5048,-0.6521 -0.5049,-0.6521 -0.448,-0.7812 -0.4481,-0.7808 v -4.9109 -4.9107 l -0.1101,-2.7604 -0.1085,-2.7606 -0.4597,-0.2714 -0.4593,-0.2715 h -0.394 -0.3941 l -2.3351,1.2775 -2.3351,1.2774 -1.2523,0.6009 -1.2521,0.6009 h -1.3356 -1.3358 l -0.7513,-0.3899 -0.7513,-0.3898 -0.6405,-0.612 -0.6406,-0.6117 -0.4439,-0.835 -0.4441,-0.8348 3e-4,-1.5862 2e-4,-1.5859 0.5343,-1.0243 0.5342,-1.0243 0.6581,-0.5618 0.658,-0.5619 4.0658,-2.3227 4.0661,-2.3228 1.3357,-0.8668 1.3356,-0.8667 0.4462,-0.4221 0.4464,-0.4217 0.4721,-0.8966 0.472,-0.8964 v -4.2575 -4.2577 l -0.2135,-0.3737 -0.2136,-0.3735 -0.4086,-0.1024 -0.4089,-0.1024 -1.2768,0.7006 -1.2769,0.7007 -2.0952,1.3361 -2.0953,1.336 -0.8966,0.4398 -0.8967,0.4397 -0.4398,-0.2472 -0.4398,-0.2471 -0.1376,-0.5007 -0.1375,-0.5008 -0.1645,-4.0486 -0.1647,-4.0482 -0.2442,-0.5847 -0.2445,-0.585 h -0.5014 -0.5015 l -1.295,0.6819 -1.2951,0.6821 -2.0034,1.1815 -2.0038,1.1815 -0.7757,0.7758 -0.7759,0.776 -0.2908,0.8755 -0.2907,0.8753 -0.1452,1.6191 -0.1453,1.6193 v 5.4166 5.4165 l -0.6617,1.1144 -0.6622,1.1141 -0.6244,0.5482 -0.6243,0.5483 -0.911,0.417 -0.9111,0.4171 h -1.104 -1.104 l -0.7473,-0.3319 -0.7475,-0.3322 -0.546,-0.4613 -0.5457,-0.4616 -0.4218,-0.7195 -0.4216,-0.7197 -0.1721,-0.5569 -0.1703,-0.5566 -0.13,-3.8933 -0.133,-3.8934 -0.3325,-0.4476 -0.3326,-0.4476 -0.401,-0.047 -0.4009,-0.047 -1.3355,0.6483 -1.3359,0.6485 -4.0071,2.2236 -4.0069,2.2234 -1.1687,0.554 -1.1688,0.554 -1.0984,0.2698 -1.0985,0.2702 -1.072,-0.268 -1.0721,-0.2682 -1.2221,-0.6125 -1.2221,-0.6125 -0.5344,-0.6243 -0.5346,-0.6245 -0.2895,-0.8077 -0.2894,-0.8076 v -1.3713 -1.3712 l 0.353,-0.9436 0.3531,-0.9438 0.6222,-0.622 0.6222,-0.6224 1.4875,-0.9185 1.4873,-0.9188 3.84,-2.1416 3.8401,-2.1418 1.1291,-0.7392 1.1291,-0.7391 0.2484,-0.3546 0.2483,-0.3547 v -0.2655 -0.2655 l -0.4609,-0.4417 -0.4611,-0.4419 -2.8322,-1.52 -2.8321,-1.5202 -0.7368,-0.6038 -0.7369,-0.6037 -0.4263,-0.93 -0.4262,-0.9302 v -1.3356 -1.3358 l 0.3758,-0.9618 0.3756,-0.962 0.7803,-0.8006 0.7801,-0.8004 1.0019,-0.4916 1.0017,-0.4913 h 1.2812 1.2812 l 1.8075,0.9207 1.8078,0.9206 4.3737,2.6271 4.3736,2.6273 h 1.7921 1.7918 l 3.9896,-2.3625 3.9895,-2.3623 0.3536,-0.2863 0.3535,-0.2861 -2.5781,-1.5119 -2.5781,-1.5117 -1.7293,-1.0571 -1.7294,-1.0574 -0.3994,-0.3676 -0.3994,-0.3676 v -0.4028 -0.403 l 0.3442,-0.4377 0.3444,-0.4376 3.1505,-2.0863 3.1504,-2.0865 0.2618,-0.3738 0.2619,-0.3739 v -0.3129 -0.3126 l -0.2718,-0.4603 -0.2719,-0.4603 -1.69,-1.0121 -1.6898,-1.0122 -1.753,-0.9196 -1.7533,-0.9193 -0.7155,-0.1891 -0.7159,-0.1873 -1.0358,0.2654 -1.036,0.2654 -1.7033,0.9014 -1.7032,0.9016 -3.0456,1.7853 -3.0458,1.7855 -1.1725,0.5956 -1.1725,0.5957 -1.4428,0.069 -1.4424,0.07 -0.9516,-0.2765 -0.9512,-0.2765 -0.8051,-0.7862 -0.8053,-0.7861 -0.3719,-1.0019 -0.3718,-1.0019 0.07,-1.419 0.07,-1.4191 0.4391,-0.8554 0.4391,-0.8555 0.7361,-0.6478 0.736,-0.648 1.4529,-0.8344 1.4528,-0.834 1.4685,-0.9519 1.4686,-0.9519 0.2057,-0.4967 0.2058,-0.4966 -0.1055,-0.335 -0.1055,-0.3354 -0.8689,-0.5717 -0.8687,-0.572 -3.4228,-1.8821 -3.4226,-1.8821 -2.0036,-1.1859 -2.0035,-1.1864 -0.6879,-0.6858 -0.6876,-0.6856 -0.3558,-0.9508 -0.3558,-0.9507 v -1.4067 -1.4065 l 0.3558,-0.9509 0.3558,-0.9505 0.7026,-0.703 0.7029,-0.7028 1.3038,-0.6444 1.3038,-0.6442 1.1179,-0.063 1.1182,-0.064 1.2233,0.5369 1.2235,0.537 4.4949,2.5729 4.4947,2.573 1.3222,0.6898 1.3218,0.69 0.4067,-0.1854 0.4063,-0.1853 0.2481,-0.3832 0.2482,-0.3833 0.1534,-4.174 0.1531,-4.174 0.3678,-0.8513 0.368,-0.8512 0.7,-0.679 0.6998,-0.6792 0.7513,-0.3898 0.7514,-0.3895 h 1.1688 1.1687 l 0.9604,0.4479 0.9605,0.4479 0.912,0.8626 0.912,0.8625 0.3811,0.7742 0.3811,0.7745 0.1024,7.0959 0.1024,7.0958 0.287,0.8971 0.2869,0.8969 0.7869,0.7871 0.787,0.787 1.4961,0.8904 1.4963,0.8905 1.8767,0.9736 1.8766,0.9733 h 0.4653 0.4654 l 0.3578,-0.2507 0.3579,-0.2506 0.1269,-0.5426 0.1268,-0.5423 0.018,-3.8472 0.018,-3.847 0.296,-0.4522 0.2961,-0.452 h 0.6014 0.6013 l 1.0226,0.4543 1.0228,0.4542 2.6097,1.3825 2.6099,1.3825 0.5062,0.1009 0.5063,0.1009 0.4982,-0.2942 0.4983,-0.2943 0.1223,-3.1035 0.1223,-3.1035 -0.099,-1.4059 -0.098,-1.4061 -0.4329,-0.8846 -0.4329,-0.8851 -0.721,-0.6321 -0.7207,-0.632 -1.8159,-1.0676 -1.8159,-1.0672 -3.5898,-2.1343 -3.5896,-2.1343 -0.5248,-0.5549 -0.5247,-0.555 -0.3876,-0.7514 -0.388,-0.7512 v -1.5862 -1.5861 l 0.4641,-0.945 0.4643,-0.9452 0.6553,-0.5919 0.6553,-0.5922 0.717,-0.3729 0.7172,-0.3728 h 1.1687 1.1688 l 1.1687,0.4704 1.1687,0.4705 2.5044,1.3788 2.5045,1.3792 0.3782,0.1131 0.3782,0.1131 0.5554,-0.3434 0.5557,-0.3432 0.11,-2.6322 0.1101,-2.6323 4e-4,-5.0418 8e-4,-5.0416 0.5714,-0.969 0.5711,-0.9689 0.6393,-0.6129 0.6392,-0.6129 0.9144,-0.5974 0.9143,-0.5977 h 1.4752 1.475 l 0.8871,0.4196 0.8868,0.4196 0.7649,0.6733 0.7648,0.6733 0.6313,1.0357 0.6312,1.0361 0.1024,7.5131 0.1025,7.5134 0.1345,0.3105 0.1345,0.3109 0.5058,0.2127 0.506,0.2128 0.5126,-0.176 0.5126,-0.1758 2.254,-1.2486 2.254,-1.2481 1.0017,-0.4773 1.0016,-0.4774 h 1.4194 1.4191 l 0.5914,0.1646 0.5913,0.1645 0.5234,0.3865 0.5236,0.3861 0.6857,0.826 0.6859,0.8259 0.348,1.1392 0.3482,1.139 -0.1101,0.8219 -0.11,0.8223 -0.3099,0.7102 -0.3095,0.7101 -0.5612,0.5185 -0.5612,0.5184 -0.7515,0.4973 -0.7512,0.4969 -1.6694,1.0025 -1.6698,1.0022 -2.5043,1.4732 -2.5045,1.4732 -1.1687,0.7908 -1.1687,0.7909 -0.5174,0.5599 -0.5173,0.56 -0.2758,0.4129 -0.2758,0.4127 v 4.293 4.2929 l 0.1778,0.4668 0.1778,0.4665 0.1981,0.1269 0.1983,0.1269 h 0.3799 0.3797 l 1.1926,-0.6008 1.1927,-0.6005 1.7668,-1.0946 1.7667,-1.095 1.0467,-0.4923 1.0464,-0.4922 0.4037,0.2645 0.4036,0.2644 0.087,0.7128 0.087,0.7129 0.079,3.673 0.08,3.673 0.1835,0.6206 0.1834,0.6203 0.2744,0.2748 0.2742,0.2742 0.7188,-0.081 0.7186,-0.081 0.8919,-0.4365 0.8918,-0.4363 2.1576,-1.1877 2.1577,-1.1878 0.8571,-0.6416 0.8574,-0.6413 0.3588,-0.7415 0.3588,-0.7414 0.1665,-0.9791 0.1664,-0.9792 0.1498,-7.3989 0.1498,-7.3986 0.6803,-0.9005 0.68,-0.9007 0.7438,-0.436 0.7437,-0.4358 1.1266,-0.1588 1.1267,-0.1589 1.2227,0.1702 1.2228,0.1703 0.643,0.3279 0.6428,0.3279 0.689,0.7827 0.6888,0.7828 0.2498,0.8406 0.2497,0.8409 v 2.766 2.7666 l 0.1422,1.2303 0.1422,1.2304 0.3349,0.3349 0.3348,0.3348 h 0.4052 0.4056 l 2.5743,-1.2914 2.5744,-1.2913 2.9219,-1.5571 2.9217,-1.5574 1.3358,-0.6367 1.3356,-0.6367 h 1.1687 1.1689 l 1.1105,0.5196 1.1104,0.5196 0.6786,0.6787 0.6787,0.6788 0.465,0.8822 0.4647,0.8822 v 1.9201 1.92 l -0.3635,0.6792 -0.3635,0.6793 -0.6966,0.6292 -0.6966,0.6292 -1.3899,0.9061 -1.3897,0.9057 -3.7147,2.1496 -3.7148,2.1493 -1.0514,0.7624 -1.0511,0.7626 -0.1132,0.4531 -0.1131,0.4533 0.5678,0.5173 0.5679,0.5174 1.6694,0.9756 1.6696,0.9753 1.3846,0.9206 1.3845,0.9203 0.3907,0.5221 0.3906,0.5224 0.2756,0.5448 0.2755,0.5447 0.1009,1.2984 0.1008,1.2986 -0.2716,0.9342 -0.2716,0.9345 -0.7601,0.8455 -0.7602,0.8452 -0.9521,0.4678 -0.9519,0.4674 h -1.1741 -1.1742 l -2.2487,-1.2254 -2.2486,-1.2253 -3.5895,-2.1004 -3.5896,-2.1006 -0.9183,-0.3786 -0.9183,-0.3787 h -1.0346 -1.0346 l -1.2663,0.6554 -1.2664,0.6553 -2.6626,1.7742 -2.6626,1.774 -0.2541,0.3626 -0.2539,0.3626 v 0.3579 0.3577 l 0.3508,0.4457 0.3507,0.4459 2.8632,1.9037 2.8632,1.9039 0.5511,0.5392 0.5512,0.5395 -0.05,0.5089 -0.051,0.509 -0.8346,0.633 -0.835,0.6332 -1.8364,1.1144 -1.8367,1.1146 -0.9604,0.6437 -0.9605,0.6436 -0.2639,0.4026 -0.2638,0.4027 0.1131,0.356 0.1131,0.3557 1.0279,0.667 1.0277,0.6668 3.0835,1.5315 3.0838,1.5318 h 1.0904 1.0905 l 0.9296,-0.3695 0.9295,-0.3695 4.8813,-2.6669 4.8812,-2.6669 0.7842,-0.3525 0.7842,-0.3527 0.9304,-0.089 0.93,-0.089 0.921,0.2676 0.9207,0.2677 0.7725,0.68 0.7724,0.6799 0.5486,1.1141 0.5488,1.1143 0.057,1.3397 0.057,1.3396 -0.374,1.0018 -0.3739,1.0016 -0.6006,0.5924 -0.6004,0.5922 -2.8771,1.709 -2.8772,1.7089 -0.1702,0.3174 -0.1702,0.3175 v 0.5804 0.5806 l 0.4815,0.4051 0.4814,0.4051 3.2335,1.9697 3.2334,1.9697 1.7531,1.0844 1.7531,1.0843 0.9118,0.7431 0.912,0.7432 0.3573,0.5293 0.3571,0.529 0.2225,0.6679 0.2228,0.6679 0.018,1.4224 0.018,1.4227 -0.546,1.1094 -0.546,1.1092 -0.615,0.5402 -0.6152,0.54 -0.9257,0.4343 -0.9259,0.4342 h -2.007 -2.0072 l -1.0816,-0.5376 -1.0819,-0.5376 -3.0887,-1.7708 -3.0886,-1.7707 -1.9705,-1.0052 -1.9703,-1.0051 -0.4198,0.1054 -0.4199,0.1055 -0.2585,0.6188 -0.2586,0.6188 -0.1177,3.6745 -0.1178,3.6745 -0.3451,0.7716 -0.3453,0.772 -0.6344,0.702 -0.6344,0.7021 -0.8454,0.4318 -0.8454,0.4317 -1.2733,0.078 -1.2733,0.078 -0.8288,-0.2751 -0.8285,-0.2755 -0.6687,-0.4914 -0.6688,-0.492 -0.4687,-0.6764 -0.4688,-0.6764 -0.229,-0.8726 -0.229,-0.8724 -0.1701,-7.0125 -0.1703,-7.0124 -0.5346,-0.7893 -0.5346,-0.7892 -0.7784,-0.5938 -0.7787,-0.5939 -1.3934,-0.8334 -1.3936,-0.8337 -2.1169,-1.0808 -2.1168,-1.0809 h -0.3201 -0.3198 l -0.2956,0.3267 -0.2954,0.3265 -0.1437,1.3013 -0.1437,1.3014 -0.1467,3.1426 -0.1483,3.1425 -0.2597,0.2597 -0.2597,0.2596 -0.578,-0.107 -0.5782,-0.107 -2.4,-1.4325 -2.4,-1.4327 -1.0852,-0.5615 -1.0852,-0.5613 -0.428,-0.099 -0.4277,-0.1009 -0.4071,0.3292 -0.4068,0.3292 -0.051,4.3142 -0.052,4.3141 0.096,0.5155 0.095,0.5151 0.7271,0.759 0.7271,0.7588 1.2322,0.8298 1.2323,0.8298 3.5061,2.0545 3.5062,2.0547 1.3358,0.8768 1.3357,0.8769 0.5554,0.921 0.5555,0.921 0.1872,1.0979 0.1873,1.0974 -0.1912,1.1164 -0.1913,1.1163 -0.6356,0.9136 -0.6358,0.914 -0.8945,0.5004 -0.8945,0.5006 -1.2056,0.078 -1.206,0.078 -0.905,-0.2652 -0.9051,-0.2651 -3.0052,-1.6723 -3.0054,-1.6724 h -0.4751 -0.4751 l -0.4755,0.3388 -0.4758,0.3387 -0.05,7.6337 -0.051,7.6337 -0.4888,0.8824 -0.489,0.8825 -0.8223,0.8223 -0.8226,0.8225 -0.7032,0.3403 -0.703,0.3404 h -1.9251 -1.9249 z"
         id="path3107-4"
         inkscape:connector-curvature="0" /></g></g></svg>
