<?xml version="1.0" encoding="UTF-8" standalone="no"?>
<!-- Created with Inkscape (http://www.inkscape.org/) -->

<svg
   width="200mm"
   height="200mm"
   viewBox="0 0 200 200"
   version="1.1"
   id="svg1"
   inkscape:version="1.3.1 (91b66b0783, 2023-11-16)"
   sodipodi:docname="idea.svg"
   xml:space="preserve"
   xmlns:inkscape="http://www.inkscape.org/namespaces/inkscape"
   xmlns:sodipodi="http://sodipodi.sourceforge.net/DTD/sodipodi-0.dtd"
   xmlns="http://www.w3.org/2000/svg"
   xmlns:svg="http://www.w3.org/2000/svg"><sodipodi:namedview
     id="namedview1"
     pagecolor="#ffffff"
     bordercolor="#000000"
     borderopacity="0.25"
     inkscape:showpageshadow="2"
     inkscape:pageopacity="0.0"
     inkscape:pagecheckerboard="0"
     inkscape:deskcolor="#d1d1d1"
     inkscape:document-units="mm"
     inkscape:zoom="0.49134398"
     inkscape:cx="380.58877"
     inkscape:cy="377.53592"
     inkscape:window-width="1488"
     inkscape:window-height="999"
     inkscape:window-x="319"
     inkscape:window-y="12"
     inkscape:window-maximized="0"
     inkscape:current-layer="layer1"
     showguides="true" /><defs
     id="defs1" /><g
     inkscape:label="Слой 1"
     inkscape:groupmode="layer"
     id="layer1"><g
       id="g12"><path
         id="path32-1"
         style="fill:#547586;fill-opacity:1;stroke-width:2.57405"
         d="M 191.46583,13.557659 H 11.175546 V 189.74403 H 191.46583 Z m -66.18834,12.8857 c 1.20676,0.06332 2.43999,0.45478 3.65682,1.17323 5.29718,3.129166 4.61527,11.189385 -1.15091,13.598337 -2.80726,1.172503 -3.45564,1.15143 -6.21868,-0.210937 -2.6883,-1.324996 -4.2206,-4.015991 -4.2206,-7.409243 0,-1.91867 0.52838,-3.01311 2.31594,-4.800464 1.66704,-1.66756 3.60554,-2.460128 5.61722,-2.351961 z m 23.16906,0 c 1.21195,0.06955 2.45306,0.466925 3.68453,1.194303 5.36351,3.168197 4.78001,10.656646 -1.04658,13.421657 -2.80882,1.332781 -3.54554,1.329044 -6.29457,-0.02595 -5.06143,-2.495942 -5.98625,-8.22984 -1.97399,-12.241888 1.67399,-1.673996 3.61114,-2.46428 5.63061,-2.347705 z m 22.36029,0.03322 c 4.14014,0 7.82956,3.60014 7.82956,7.627239 0,2.479126 -2.53861,5.985424 -5.0987,7.055261 -1.29085,0.539487 -2.58688,0.939975 -2.87982,0.888487 -2.92135,-0.508656 -3.80859,-0.99001 -5.60788,-3.039477 -4.39873,-5.009843 -0.94278,-12.53151 5.75684,-12.53151 z M 21.812066,54.738937 H 180.86461 V 180.31774 H 21.812066 Z"
         sodipodi:nodetypes="cccccsssssssssssssssssscssccccc" /><path
         style="fill:#df601c;fill-opacity:1;stroke-width:12.9249"
         d="m 87.448255,171.75346 c -4.216241,-5.1338 -4.915092,-10.83772 -4.915092,-16.23509 0,-5.3976 -5.345006,-14.63046 -8.570752,-19.78921 -7.129352,-11.4015 -6.642567,-16.06619 -6.971375,-21.45147 1.05572,-21.144184 16.848042,-33.793336 34.329604,-33.771165 17.95838,0.122312 34.34491,14.255598 34.1969,33.771165 0.11931,7.18676 -0.8321,14.44593 -7.73546,21.90248 -5.79366,6.25871 -8.75218,12.69467 -8.75218,18.93099 0,6.12408 -2.86481,12.91991 -6.34333,17.00934 -6.23268,7.32706 -18.140986,8.27515 -25.238315,-0.36704 z m 23.514495,-7.83806 c 4.63672,-9.52045 -1.29907,-8.60074 -9.64211,-8.60074 -8.911024,0 -15.426459,-1.51701 -11.046778,8.60074 4.75915,10.99397 15.728058,10.18544 20.688888,0 z m 3.69421,-22.13553 c 2.63293,-3.21451 6.66045,-9.47053 6.66045,-9.47053 6.67588,-8.11332 6.84682,-13.10392 6.88559,-18.03165 0.0536,-14.460056 -12.89206,-26.554524 -26.88236,-26.352097 -13.990306,0.204353 -26.571018,10.635388 -26.896827,26.352097 0.669504,7.99711 3.058343,12.49814 6.343533,18.37428 l 5.041045,9.01725 c 4.324416,4.60857 1.960746,5.81327 15.584219,5.82751 13.62336,0.0267 10.63163,-2.50194 13.26435,-5.71686 z m -3.07762,-36.05205 c -2.34086,-2.82003 -6.68487,-5.12833 -9.65239,-5.12833 -3.90082,0 -4.35976,-1.034085 -1.65839,-3.736636 4.80541,-4.805633 18.15052,1.802661 18.15052,8.985246 0,6.33828 -1.5018,6.31269 -6.83974,-0.1297 z m -52.563453,50.30282 c -2.480091,-4.01317 7.271907,-12.95096 10.550777,-9.67188 1.253541,1.25386 -0.140198,4.69842 -3.097972,7.65566 -3.197579,3.19758 -6.216937,4.01446 -7.452805,2.01622 z m 76.744343,-2.13393 c -2.54971,-3.07227 -3.62267,-6.60079 -2.38316,-7.84148 3.19383,-3.19383 10.02608,4.41235 8.38428,9.33536 -0.94337,2.82957 -2.79679,2.36795 -6.00112,-1.49388 z M 43.185544,114.27769 c 0,-1.88062 3.077301,-3.41971 6.838351,-3.41971 3.762551,0 6.840066,1.53909 6.840066,3.41971 0,1.88075 -3.077515,3.42036 -6.840066,3.42036 -3.76105,0 -6.838351,-1.53961 -6.838351,-3.42036 z m 102.591656,0 c 0,-1.88062 3.07773,-3.41971 6.83868,-3.41971 3.76244,0 6.83995,1.53909 6.83995,3.41971 0,1.88075 -3.07751,3.42036 -6.83995,3.42036 -3.76095,0 -6.83868,-1.53961 -6.83868,-3.42036 z M 60.732436,78.911217 c -2.095268,-2.524218 -2.809756,-5.588774 -1.588453,-6.810076 2.565667,-2.566953 11.398395,3.940877 11.398395,8.398529 0,4.501779 -5.494201,3.612606 -9.809942,-1.588453 z m 71.364964,1.872921 c 0,-1.806946 2.48565,-5.34822 5.5244,-7.869866 4.7796,-3.966798 5.35593,-3.715961 4.27418,1.86221 -1.29253,6.646314 -9.79858,11.86526 -9.79858,6.007656 z M 97.900711,62.981375 c 0,-3.761479 1.538008,-6.838673 3.419929,-6.838673 1.88073,0 3.42013,3.077194 3.42013,6.838673 0,3.762122 -1.5394,6.839958 -3.42013,6.839958 -1.881921,0 -3.419929,-3.077836 -3.419929,-6.839958 z"
         id="path34"
         sodipodi:nodetypes="ssscccsssssssszcczcsczzcsssccsssssssssssssssssssssssssssssss" /></g></g></svg>
