<?xml version="1.0" encoding="UTF-8" standalone="no"?>
<!-- Created with Inkscape (http://www.inkscape.org/) -->

<svg
   width="200mm"
   height="200mm"
   viewBox="0 0 200 200"
   version="1.1"
   id="svg1"
   inkscape:version="1.3.1 (91b66b0783, 2023-11-16)"
   sodipodi:docname="IEC_logo1.svg"
   xml:space="preserve"
   xmlns:inkscape="http://www.inkscape.org/namespaces/inkscape"
   xmlns:sodipodi="http://sodipodi.sourceforge.net/DTD/sodipodi-0.dtd"
   xmlns="http://www.w3.org/2000/svg"
   xmlns:svg="http://www.w3.org/2000/svg"><sodipodi:namedview
     id="namedview1"
     pagecolor="#ffffff"
     bordercolor="#000000"
     borderopacity="0.25"
     inkscape:showpageshadow="2"
     inkscape:pageopacity="0.0"
     inkscape:pagecheckerboard="0"
     inkscape:deskcolor="#d1d1d1"
     inkscape:document-units="mm"
     inkscape:zoom="0.69486532"
     inkscape:cx="415.90793"
     inkscape:cy="348.26893"
     inkscape:window-width="1920"
     inkscape:window-height="976"
     inkscape:window-x="-8"
     inkscape:window-y="-8"
     inkscape:window-maximized="1"
     inkscape:current-layer="layer1"
     showguides="true" /><defs
     id="defs1" /><g
     inkscape:label="Слой 1"
     inkscape:groupmode="layer"
     id="layer1"><path
       style="fill:#547586;fill-opacity:1;stroke-width:0.231377"
       d="M 6.0417769,99.952479 V 6.59167 H 99.865332 193.68888 V 99.952479 193.31326 H 99.865332 6.0417769 Z M 169.61017,158.249 c 4.6879,-1.10502 7.92224,-5.42968 7.59217,-10.15167 -0.20662,-2.96401 -1.42644,-5.27932 -3.79815,-7.21272 -1.81075,-1.476 -3.43735,-2.01005 -6.13061,-2.01271 -2.09097,-0.001 -2.35053,0.0519 -3.99082,0.83078 -3.12096,1.4822 -5.16208,4.18442 -5.70446,7.55227 -0.61623,3.8271 1.55532,8.16514 5.01436,10.01742 2.39263,1.28105 4.48825,1.57275 7.01751,0.97663 z m -12.94176,-0.0914 c 0,-0.11984 -0.11105,-0.28743 -0.25052,-0.37261 -0.13689,-0.0852 -0.60952,-0.71603 -1.04833,-1.40193 l -0.7978,-1.24704 H 90.256057 25.940095 v 1.61963 1.61967 h 65.364289 c 40.688966,0 65.364026,-0.0821 65.364026,-0.21772 z m -3.58611,-9.50015 V 147.0378 H 89.5112 25.940095 v 1.61965 1.61962 H 89.5112 153.0823 Z m 2.28726,-7.72562 c 0.43881,-0.68587 0.91041,-1.31675 1.04833,-1.40193 0.13688,-0.0852 0.25052,-0.25285 0.25052,-0.37258 0,-0.13559 -24.67506,-0.21773 -65.364026,-0.21773 H 25.940095 v 1.46539 c 0,0.80596 0.06973,1.53481 0.154964,1.61965 0.08523,0.0847 29.026947,0.15419 64.315703,0.15419 h 64.161768 z m 0.14205,-18.37637 c 7.33493,-1.6117 13.58641,-5.57254 18.14543,-11.49686 2.19324,-2.84988 3.7545,-5.46989 3.50243,-5.87752 -0.0646,-0.10615 -0.86625,-0.80406 -1.77898,-1.55095 l -1.65992,-1.35803 -0.48555,0.67505 c -5.49939,7.64555 -11.92907,12.64444 -18.6488,14.49883 -2.54914,0.70356 -6.94029,0.76123 -9.25518,0.12165 -6.80082,-1.87909 -12.21653,-6.64467 -15.49452,-13.63409 -2.10182,-4.48102 -3.18785,-9.477217 -3.40661,-15.665573 -0.44759,-12.675118 2.75938,-23.308208 8.65573,-28.696953 3.21317,-2.936477 6.53532,-4.388871 11.4598,-5.009705 2.68603,-0.338647 3.20283,-0.339731 5.78452,-0.01291 6.2773,0.796718 11.20513,3.330213 16.20709,8.332092 l 2.49698,2.49744 0.62631,-0.453345 c 0.34453,-0.249233 1.18985,-1.028595 1.87892,-1.731715 l 1.25262,-1.278344 -0.89413,-1.111241 c -2.34873,-2.919199 -6.00612,-5.884085 -9.64879,-7.821772 -13.84597,-7.365741 -30.49135,-4.519995 -41.91086,7.165296 -3.93813,4.029639 -6.65231,8.525899 -8.47623,14.040655 -1.37452,4.155883 -1.92826,7.766191 -1.92826,12.575709 0,7.914724 1.8828,14.562026 5.78478,20.426716 2.45152,3.68438 7.08828,7.99425 11.34615,10.54667 3.57242,2.14149 9.14,4.18473 13.60578,4.99323 3.44664,0.62393 9.58577,0.54018 12.84129,-0.17511 z M 41.442881,86.879647 V 51.94165 h -7.751264 -7.751263 v 34.937997 34.938003 h 7.751263 7.751264 z M 109.0048,118.69405 v -2.89223 H 95.37811 c -12.986698,0 -13.697463,-0.0207 -15.129582,-0.46412 -1.630988,-0.50376 -2.995698,-1.70565 -3.341266,-2.94286 -0.235028,-0.83817 -0.235028,-22.366442 2.58e-4,-23.467173 0.09814,-0.464321 0.392573,-1.115064 0.652912,-1.446117 l 0.473413,-0.601903 h 11.559744 11.559741 l -0.0646,-2.603022 -0.0646,-2.60297 -11.800457,-0.120871 c -6.489862,-0.06638 -11.82344,-0.144632 -11.852108,-0.173559 -0.02841,-0.02867 -0.216949,-0.373048 -0.420209,-0.764821 -0.323615,-0.625897 -0.359256,-1.92343 -0.295205,-10.701197 0.06973,-9.446251 0.09814,-10.039038 0.535915,-10.911378 0.255689,-0.507349 0.816656,-1.158118 1.249262,-1.446117 l 0.785922,-0.523647 h 14.54253 14.54253 v -3.361257 -3.361257 l -19.609055,0.06405 -19.609312,0.06405 -1.503919,0.714123 c -1.978623,0.939516 -3.892419,2.719554 -4.877986,4.537557 l -0.790829,1.458282 -0.06457,27.418222 -0.06457,27.418225 0.495882,1.38827 c 1.35877,3.80231 4.296616,6.80043 7.731377,7.88946 0.714381,0.22676 5.261003,0.29702 19.956172,0.30897 l 19.03078,0.0155 z"
       id="path5373"
       inkscape:connector-curvature="0" /></g></svg>
