<?xml version="1.0" encoding="UTF-8" standalone="no"?>
<!-- Created with Inkscape (http://www.inkscape.org/) -->

<svg
   width="200mm"
   height="200mm"
   viewBox="0 0 200 200"
   version="1.1"
   id="svg1"
   inkscape:version="1.3.1 (91b66b0783, 2023-11-16)"
   sodipodi:docname="iec_104_fr.svg"
   xml:space="preserve"
   xmlns:inkscape="http://www.inkscape.org/namespaces/inkscape"
   xmlns:sodipodi="http://sodipodi.sourceforge.net/DTD/sodipodi-0.dtd"
   xmlns="http://www.w3.org/2000/svg"
   xmlns:svg="http://www.w3.org/2000/svg"><sodipodi:namedview
     id="namedview1"
     pagecolor="#ffffff"
     bordercolor="#000000"
     borderopacity="0.25"
     inkscape:showpageshadow="2"
     inkscape:pageopacity="0.0"
     inkscape:pagecheckerboard="0"
     inkscape:deskcolor="#d1d1d1"
     inkscape:document-units="mm"
     inkscape:zoom="0.49134398"
     inkscape:cx="662.46868"
     inkscape:cy="572.91839"
     inkscape:window-width="1488"
     inkscape:window-height="1041"
     inkscape:window-x="406"
     inkscape:window-y="18"
     inkscape:window-maximized="0"
     inkscape:current-layer="layer1"
     showguides="true" /><defs
     id="defs1" /><g
     inkscape:label="Слой 1"
     inkscape:groupmode="layer"
     id="layer1"><path
       inkscape:connector-curvature="0"
       d="M 31.632858,8.1985099 A 22.908111,22.908111 0 0 0 8.7246788,31.106689 V 168.55552 a 22.908111,22.908111 0 0 0 22.9081792,22.9077 H 169.0812 a 22.908111,22.908111 0 0 0 22.90818,-22.9077 V 31.106689 A 22.908111,22.908111 0 0 0 169.0812,8.1985099 Z M 20.17889,31.106689 A 11.454055,11.454055 0 0 1 31.632858,19.652236 H 169.0812 a 11.454055,11.454055 0 0 1 11.45421,11.454453 V 168.55552 A 11.454055,11.454055 0 0 1 169.0812,180.00949 H 31.632858 A 11.454055,11.454055 0 0 1 20.17889,168.55552 Z"
       id="path4-2-0-2-8-0-9-7-9-5"
       style="fill:#547586;fill-opacity:1;stroke-width:0.17641" /><text
       xml:space="preserve"
       style="font-style:normal;font-variant:normal;font-weight:normal;font-stretch:normal;font-size:70.1173px;font-family:'Century Gothic';-inkscape-font-specification:'Century Gothic';text-align:center;text-anchor:middle;fill:#df601c;fill-opacity:1;stroke-width:419.601;stroke-dasharray:none"
       x="113.89066"
       y="152.10182"
       id="text11"
       transform="scale(0.86760767,1.1525947)"><tspan
         sodipodi:role="line"
         id="tspan11"
         style="font-style:normal;font-variant:normal;font-weight:bold;font-stretch:normal;font-family:'Century Gothic';-inkscape-font-specification:'Century Gothic Bold';fill:#df601c;fill-opacity:1;stroke-width:419.601"
         x="113.89066"
         y="152.10182">104</tspan></text><g
       id="g11"
       transform="translate(-3.7762039)"><path
         inkscape:connector-curvature="0"
         id="path5402"
         d="m 152.81455,110.02087 c -1.62019,-0.75607 -3.34096,-2.51416 -4.02516,-4.11256 -0.59299,-1.38525 -0.59299,-4.20631 0,-5.59156 0.25408,-0.593582 0.94184,-1.611532 1.52837,-2.262122 3.51603,-3.90038 9.66567,-3.16803 12.17934,1.45038 3.47069,6.376842 -3.14813,13.565242 -9.68255,10.515862 z"
         style="fill:#547586;fill-opacity:1;stroke:none;stroke-width:0.456309;stroke-miterlimit:4;stroke-dasharray:none;stroke-opacity:1" /><path
         inkscape:connector-curvature="0"
         id="path5404"
         d="m 44.813983,96.654638 v -1.16511 l 50.90102,0.0923 c 27.995557,0.0505 50.990077,0.18147 51.098997,0.29038 0.10891,0.10897 -0.0822,0.59175 -0.42486,1.07287 l -0.62283,0.87477 H 95.290153 44.813983 Z"
         style="fill:#547586;fill-opacity:1;stroke:none;stroke-width:0.456309;stroke-miterlimit:4;stroke-dasharray:none;stroke-opacity:1" /><path
         inkscape:connector-curvature="0"
         id="path5406"
         d="m 44.813983,103.2556 v -1.1444 h 49.78039 49.780387 v 1.1444 1.14434 H 94.594373 44.813983 Z"
         style="fill:#547586;fill-opacity:1;stroke:none;stroke-width:0.456309;stroke-miterlimit:4;stroke-dasharray:none;stroke-opacity:1" /><path
         inkscape:connector-curvature="0"
         id="path5408"
         d="m 44.813983,109.55503 v -1.14977 h 50.44185 50.441787 l 0.65119,0.88079 c 0.35815,0.48439 0.5648,0.96717 0.45916,1.07286 -0.10563,0.10564 -23.09746,0.22666 -51.093027,0.26893 l -50.90096,0.0769 z"
         style="fill:#547586;fill-opacity:1;stroke:none;stroke-width:0.456309;stroke-miterlimit:4;stroke-dasharray:none;stroke-opacity:1" /></g><g
       id="g12"
       transform="translate(-3.8187021)"><path
         inkscape:connector-curvature="0"
         id="path5398"
         d="m 82.006263,81.533808 c -2.75921,-0.13791 -3.46122,-0.27081 -4.35051,-0.82378 -1.64724,-1.02424 -3.56637,-3.35037 -4.24724,-5.14788 -0.61719,-1.6295 -0.61773,-1.65435 -0.4987,-23.10989 l 0.11913,-21.47868 0.64462,-1.042956 c 0.85186,-1.378366 3.00474,-3.250432 4.13693,-3.597349 0.51263,-0.157055 7.51725,-0.332611 16.14018,-0.404576 L 109.1852,25.801655 v 2.536049 2.536054 H 97.713193 86.241133 l -0.78667,0.84212 c -0.66656,0.71357 -0.81512,1.17882 -0.97309,3.04717 -0.2962,3.50452 -0.21848,13.67109 0.11182,14.61853 l 0.29819,0.85541 9.17971,0.1777 c 5.04881,0.0977 9.210427,0.21482 9.248017,0.26017 0.0376,0.0452 0.1562,0.88708 0.26355,1.8705 l 0.19514,1.78811 h -9.161857 -9.16186 l -0.48192,0.92979 c -0.42259,0.81544 -0.48202,2.06661 -0.48278,10.16921 0,10.42017 -0.0436,10.20481 2.25588,11.34588 1.04318,0.51758 1.92994,0.56754 12.06903,0.67963 l 10.943077,0.12102 v 2.10975 2.10974 l -12.230487,-0.05 c -6.72682,-0.0274 -13.71111,-0.12414 -15.52062,-0.21455 z"
         style="fill:#df601c;fill-opacity:1;stroke:none;stroke-width:0.456309;stroke-miterlimit:4;stroke-dasharray:none;stroke-opacity:1" /><path
         inkscape:connector-curvature="0"
         id="path5400"
         d="m 135.98543,82.507118 c -8.96414,-1.70017 -17.12521,-7.65032 -20.78807,-15.15638 -4.15833,-8.52133 -3.65038,-20.06282 1.25025,-28.40838 1.999,-3.4042 6.80798,-8.22921 10.14425,-10.177972 2.87883,-1.68161 6.83498,-3.136997 9.84069,-3.620154 3.09564,-0.497679 8.61733,-0.218477 11.37535,0.575184 4.71394,1.35653 9.95353,4.582435 12.62458,7.772682 l 1.22836,1.46711 -1.40735,1.22094 -1.40731,1.22088 -2.20925,-2.07828 c -4.76611,-4.48363 -9.27615,-6.4417 -14.837,-6.4417 -8.18623,0 -13.83744,4.37778 -16.57159,12.83736 -1.20566,3.73046 -1.5679,6.49198 -1.57963,12.04288 -0.0124,5.94392 0.36386,8.38062 1.94624,12.59801 3.05013,8.12944 10.46809,13.4411 17.74976,12.70983 5.45086,-0.54743 11.24487,-4.18689 15.69494,-9.85875 0.80248,-1.02279 1.55909,-1.97631 1.68129,-2.11889 0.1244,-0.14506 0.79366,0.2089 1.51944,0.80361 l 1.2971,1.06291 -0.53926,1.05598 c -0.82125,1.60824 -3.10203,4.59889 -4.6779,6.13383 -2.72236,2.65169 -6.95003,5.05801 -10.65549,6.06498 -2.47037,0.67141 -8.84452,0.83201 -11.6794,0.29432 z"
         style="fill:#df601c;fill-opacity:1;stroke:none;stroke-width:0.456309;stroke-miterlimit:4;stroke-dasharray:none;stroke-opacity:1" /><path
         inkscape:connector-curvature="0"
         id="path5412"
         d="M 44.813983,54.476538 V 27.154527 h 5.86496 5.86495 v 27.322011 27.32195 h -5.86495 -5.86496 z"
         style="fill:#df601c;fill-opacity:1;stroke:none;stroke-width:0.456309;stroke-miterlimit:4;stroke-dasharray:none;stroke-opacity:1" /></g></g></svg>
