<?xml version="1.0" encoding="UTF-8" standalone="no"?>
<!-- Created with Inkscape (http://www.inkscape.org/) -->

<svg
   width="200mm"
   height="200mm"
   viewBox="0 0 200 200"
   version="1.1"
   id="svg1"
   inkscape:version="1.3.1 (91b66b0783, 2023-11-16)"
   sodipodi:docname="IEC_logo3.svg"
   xml:space="preserve"
   xmlns:inkscape="http://www.inkscape.org/namespaces/inkscape"
   xmlns:sodipodi="http://sodipodi.sourceforge.net/DTD/sodipodi-0.dtd"
   xmlns="http://www.w3.org/2000/svg"
   xmlns:svg="http://www.w3.org/2000/svg"><sodipodi:namedview
     id="namedview1"
     pagecolor="#ffffff"
     bordercolor="#000000"
     borderopacity="0.25"
     inkscape:showpageshadow="2"
     inkscape:pageopacity="0.0"
     inkscape:pagecheckerboard="0"
     inkscape:deskcolor="#d1d1d1"
     inkscape:document-units="mm"
     inkscape:zoom="0.69486532"
     inkscape:cx="415.90793"
     inkscape:cy="348.26893"
     inkscape:window-width="1920"
     inkscape:window-height="976"
     inkscape:window-x="-8"
     inkscape:window-y="-8"
     inkscape:window-maximized="1"
     inkscape:current-layer="layer1"
     showguides="true" /><defs
     id="defs1" /><g
     inkscape:label="Слой 1"
     inkscape:groupmode="layer"
     id="layer1"><g
       id="g5421"
       transform="matrix(3.2362671,0,0,3.2362671,7051.1075,1946.6924)"><path
         transform="matrix(0.26458333,0,0,0.26458333,0,87)"
         inkscape:connector-curvature="0"
         id="path5398"
         d="m -8158.6527,-2466.2093 c -5.13,-0.2564 -6.4352,-0.5035 -8.0886,-1.5316 -3.0626,-1.9043 -6.6307,-6.2291 -7.8966,-9.5711 -1.1475,-3.0296 -1.1485,-3.0758 -0.9272,-42.9666 l 0.2215,-39.9338 1.1985,-1.9391 c 1.5838,-2.5627 5.5865,-6.0433 7.6915,-6.6883 0.9531,-0.292 13.9763,-0.6184 30.0083,-0.7522 l 28.3245,-0.2362 v 4.7151 4.7151 h -21.3291 -21.3292 l -1.4626,1.5657 c -1.2393,1.3267 -1.5155,2.1917 -1.8092,5.6654 -0.5507,6.5157 -0.4062,25.4177 0.2079,27.1792 l 0.5544,1.5904 17.0672,0.3304 c 9.3869,0.1817 17.1243,0.3994 17.1942,0.4837 0.07,0.084 0.2904,1.6493 0.49,3.4777 l 0.3628,3.3245 h -17.034 -17.034 l -0.896,1.7287 c -0.7857,1.5161 -0.8962,3.8423 -0.8976,18.9069 0,19.3735 -0.081,18.9731 4.1942,21.0946 1.9395,0.9623 3.5882,1.0552 22.4391,1.2636 l 20.3457,0.225 v 3.9225 3.9225 l -22.7393,-0.093 c -12.5067,-0.051 -25.4921,-0.2308 -28.8564,-0.3989 z"
         style="fill:#df601c;fill-opacity:1;stroke:none;stroke-width:0.848383;stroke-miterlimit:4;stroke-dasharray:none;stroke-opacity:1" /><path
         transform="matrix(0.26458333,0,0,0.26458333,0,87)"
         inkscape:connector-curvature="0"
         id="path5400"
         d="m -8058.293,-2464.3997 c -16.6664,-3.161 -31.8397,-14.2237 -38.6498,-28.1792 -7.7313,-15.8431 -6.7869,-37.3014 2.3245,-52.8177 3.7166,-6.3292 12.6576,-15.3 18.8605,-18.9232 5.3524,-3.1265 12.7078,-5.8324 18.2961,-6.7307 5.7555,-0.9253 16.0216,-0.4062 21.1494,1.0694 8.7643,2.5221 18.5059,8.5198 23.472,14.4512 l 2.2838,2.7277 -2.6166,2.27 -2.6165,2.2699 -4.1075,-3.864 c -8.8613,-8.3361 -17.2465,-11.9766 -27.5854,-11.9766 -15.2201,0 -25.727,8.1393 -30.8104,23.8676 -2.2416,6.9358 -2.9151,12.0701 -2.9369,22.3905 -0.023,11.0511 0.6765,15.5815 3.6185,23.4226 5.6709,15.1145 19.4626,24.9901 33.0009,23.6305 10.1344,-1.0178 20.9068,-7.7844 29.1805,-18.3297 1.492,-1.9016 2.8987,-3.6744 3.1259,-3.9395 0.2313,-0.2697 1.4756,0.3884 2.825,1.4941 l 2.4116,1.9762 -1.0026,1.9633 c -1.5269,2.9901 -5.7674,8.5504 -8.6973,11.4042 -5.0615,4.9301 -12.9217,9.404 -19.811,11.2762 -4.593,1.2483 -16.444,1.5469 -21.7147,0.5472 z"
         style="fill:#df601c;fill-opacity:1;stroke:none;stroke-width:0.848383;stroke-miterlimit:4;stroke-dasharray:none;stroke-opacity:1" /><path
         transform="matrix(0.26458333,0,0,0.26458333,0,87)"
         inkscape:connector-curvature="0"
         id="path5402"
         d="m -8027.0038,-2413.2453 c -3.0123,-1.4057 -6.2116,-4.6744 -7.4837,-7.6462 -1.1025,-2.5755 -1.1025,-7.8205 0,-10.396 0.4724,-1.1036 1.7511,-2.9962 2.8416,-4.2058 6.5371,-7.2517 17.9707,-5.8901 22.6442,2.6966 6.4528,11.856 -5.8531,25.2209 -18.0021,19.5514 z"
         style="fill:#df601c;fill-opacity:1;stroke:none;stroke-width:0.848383;stroke-miterlimit:4;stroke-dasharray:none;stroke-opacity:1" /><path
         transform="matrix(0.26458333,0,0,0.26458333,0,87)"
         inkscape:connector-curvature="0"
         id="path5404"
         d="m -8227.8017,-2438.0962 v -2.1662 l 94.6367,0.1715 c 52.0502,0.094 94.8023,0.3374 95.0048,0.5399 0.2025,0.2026 -0.1529,1.1002 -0.7899,1.9947 l -1.158,1.6264 h -93.8468 -93.8468 z"
         style="fill:#df601c;fill-opacity:1;stroke:none;stroke-width:0.848383;stroke-miterlimit:4;stroke-dasharray:none;stroke-opacity:1" /><path
         transform="matrix(0.26458333,0,0,0.26458333,0,87)"
         inkscape:connector-curvature="0"
         id="path5406"
         d="m -8227.8017,-2425.8235 v -2.1277 h 92.5532 92.5532 v 2.1277 2.1276 h -92.5532 -92.5532 z"
         style="fill:#df601c;fill-opacity:1;stroke:none;stroke-width:0.848383;stroke-miterlimit:4;stroke-dasharray:none;stroke-opacity:1" /><path
         transform="matrix(0.26458333,0,0,0.26458333,0,87)"
         inkscape:connector-curvature="0"
         id="path5408"
         d="m -8227.8017,-2414.1114 v -2.1377 h 93.783 93.7829 l 1.2107,1.6376 c 0.6659,0.9006 1.0501,1.7982 0.8537,1.9947 -0.1964,0.1964 -42.9435,0.4214 -94.9937,0.5 l -94.6366,0.143 z"
         style="fill:#df601c;fill-opacity:1;stroke:none;stroke-width:0.848383;stroke-miterlimit:4;stroke-dasharray:none;stroke-opacity:1" /><path
         transform="matrix(0.26458333,0,0,0.26458333,0,87)"
         inkscape:connector-curvature="0"
         id="path5412"
         d="m -8227.8017,-2516.515 v -50.7979 h 10.9043 10.9043 v 50.7979 50.7978 h -10.9043 -10.9043 z"
         style="fill:#df601c;fill-opacity:1;stroke:none;stroke-width:0.848383;stroke-miterlimit:4;stroke-dasharray:none;stroke-opacity:1" /></g></g></svg>
