<?xml version="1.0" encoding="UTF-8" standalone="no"?>
<!-- Created with Inkscape (http://www.inkscape.org/) -->

<svg
   width="200mm"
   height="200mm"
   viewBox="0 0 200 200"
   version="1.1"
   id="svg1"
   inkscape:version="1.3.1 (91b66b0783, 2023-11-16)"
   sodipodi:docname="Keys.svg"
   xml:space="preserve"
   xmlns:inkscape="http://www.inkscape.org/namespaces/inkscape"
   xmlns:sodipodi="http://sodipodi.sourceforge.net/DTD/sodipodi-0.dtd"
   xmlns="http://www.w3.org/2000/svg"
   xmlns:svg="http://www.w3.org/2000/svg"><sodipodi:namedview
     id="namedview1"
     pagecolor="#ffffff"
     bordercolor="#000000"
     borderopacity="0.25"
     inkscape:showpageshadow="2"
     inkscape:pageopacity="0.0"
     inkscape:pagecheckerboard="0"
     inkscape:deskcolor="#d1d1d1"
     inkscape:document-units="mm"
     inkscape:zoom="0.69486532"
     inkscape:cx="285.66687"
     inkscape:cy="336.75591"
     inkscape:window-width="1920"
     inkscape:window-height="976"
     inkscape:window-x="-8"
     inkscape:window-y="-8"
     inkscape:window-maximized="1"
     inkscape:current-layer="layer1"
     showguides="true" /><defs
     id="defs1" /><g
     inkscape:label="Слой 1"
     inkscape:groupmode="layer"
     id="layer1"><g
       id="g9"
       transform="matrix(0.5347922,0,0,0.5347922,-116.00828,50.499841)"><path
         id="rect2"
         style="opacity:1;fill:#df601c;fill-opacity:1;stroke-width:2"
         d="M 272.96172,-0.56086284 V 77.520159 h 78.08102 V -0.56086284 Z M 284.57497,11.052381 h 54.85401 v 54.854016 h -54.85401 z" /><path
         style="opacity:1;fill:#547586;fill-opacity:1;stroke-width:2"
         d="M 278.59948,89.63616 V 77.520159 h 72.44326 V 5.645229 h 11.84674 V 89.63616 Z"
         id="path9" /><path
         id="rect2-1"
         style="fill:#df601c;fill-opacity:1;stroke-width:2"
         d="m 380.0193,-0.560861 v 78.08102 h 78.08102 v -78.08102 z m 11.61325,11.61324 h 54.85401 v 54.85402 h -54.85401 z" /><path
         style="fill:#547586;fill-opacity:1;stroke-width:2"
         d="m 385.65706,89.636159 v -12.116 h 72.44326 V 5.645229 h 11.84674 v 83.99093 z"
         id="path9-6" /><path
         id="rect2-15"
         style="fill:#df601c;fill-opacity:1;stroke-width:2"
         d="M 487.07688,-0.5608635 V 77.52016 H 565.1579 V -0.5608635 Z m 11.61325,11.6132445 h 54.85401 v 54.854018 h -54.85401 z" /><path
         style="fill:#547586;fill-opacity:1;stroke-width:2"
         d="m 492.71464,89.63616 v -12.116 H 565.1579 V 5.6452285 h 11.84674 V 89.63616 Z"
         id="path9-5" /><path
         id="rect2-2"
         style="fill:#df601c;fill-opacity:1;stroke-width:2"
         d="m 230.81672,95.483059 v 78.081031 h 78.08102 V 95.483059 Z m 11.61325,11.613241 h 54.85401 v 54.85402 h -54.85401 z" /><path
         style="fill:#547586;fill-opacity:1;stroke-width:2"
         d="m 236.45448,185.68009 v -12.116 h 72.44326 v -71.87494 h 11.84674 v 83.99094 z"
         id="path9-7" /><path
         id="rect2-1-5"
         style="fill:#df601c;fill-opacity:1;stroke-width:2"
         d="m 337.8743,95.483061 v 78.081029 h 78.08102 V 95.483061 Z m 11.61325,11.613239 h 54.85401 v 54.85403 h -54.85401 z" /><path
         style="fill:#547586;fill-opacity:1;stroke-width:2"
         d="m 343.51206,185.68009 v -12.116 h 72.44326 v -71.87494 h 11.84674 v 83.99094 z"
         id="path9-6-8" /><path
         id="rect2-15-1"
         style="fill:#df601c;fill-opacity:1;stroke-width:2"
         d="M 444.93188,95.483059 V 173.56409 H 523.0129 V 95.483059 Z m 11.61325,11.613241 h 54.85401 v 54.85403 h -54.85401 z" /><path
         style="fill:#547586;fill-opacity:1;stroke-width:2"
         d="m 450.56964,185.68009 v -12.116 h 72.44326 v -71.87494 h 11.84674 v 83.99094 z"
         id="path9-5-4" /></g></g></svg>
