<?xml version="1.0" encoding="UTF-8" standalone="no"?>
<!-- Created with Inkscape (http://www.inkscape.org/) -->

<svg
   width="200mm"
   height="200mm"
   viewBox="0 0 200 200"
   version="1.1"
   id="svg1"
   inkscape:version="1.3.1 (91b66b0783, 2023-11-16)"
   sodipodi:docname="linux.svg"
   xml:space="preserve"
   xmlns:inkscape="http://www.inkscape.org/namespaces/inkscape"
   xmlns:sodipodi="http://sodipodi.sourceforge.net/DTD/sodipodi-0.dtd"
   xmlns="http://www.w3.org/2000/svg"
   xmlns:svg="http://www.w3.org/2000/svg"><sodipodi:namedview
     id="namedview1"
     pagecolor="#ffffff"
     bordercolor="#000000"
     borderopacity="0.25"
     inkscape:showpageshadow="2"
     inkscape:pageopacity="0.0"
     inkscape:pagecheckerboard="0"
     inkscape:deskcolor="#d1d1d1"
     inkscape:document-units="mm"
     inkscape:zoom="0.49134398"
     inkscape:cx="295.10894"
     inkscape:cy="215.73481"
     inkscape:window-width="1920"
     inkscape:window-height="976"
     inkscape:window-x="-8"
     inkscape:window-y="-8"
     inkscape:window-maximized="1"
     inkscape:current-layer="layer1"
     showguides="true" /><defs
     id="defs1" /><g
     inkscape:label="Слой 1"
     inkscape:groupmode="layer"
     id="layer1"><g
       id="g65"
       transform="matrix(2.0037883,0,0,2.0037883,7158.7733,3901.2391)"><path
         style="fill:#284453;fill-opacity:0.905882"
         d="m -3510.4507,-1854.5963 c -1.6333,-0.5984 -2.8136,-1.6614 -3.4932,-3.146 -0.623,-1.3606 -0.6417,-1.3746 -2.8123,-2.0886 -1.2019,-0.3954 -2.8996,-0.8328 -3.7727,-0.9721 -2.1247,-0.3389 -7.8474,-0.2796 -9.6573,0.1 -1.3755,0.2885 -1.4948,0.379 -2.1777,1.6532 -0.3973,0.7415 -1.3019,1.8901 -2.0101,2.5526 -2.3697,2.2165 -5.2318,2.245 -10.9354,0.1087 -2.7317,-1.0231 -2.8146,-1.0458 -8.8886,-2.4277 -7.1777,-1.6331 -8.2824,-2.668 -7.0796,-6.6328 0.4698,-1.5487 0.5065,-3.6843 0.1074,-6.2563 -0.3665,-2.3621 -0.033,-3.7242 1.0488,-4.2836 0.4048,-0.2094 1.767,-0.671 3.027,-1.0259 2.8481,-0.802 3.3466,-1.1273 4.6407,-3.0276 0.5701,-0.8371 1.2891,-1.7489 1.5978,-2.0261 0.4676,-0.4198 0.5614,-0.8044 0.5614,-2.3021 0,-0.9889 0.1285,-2.429 0.2857,-3.2001 0.4352,-2.1363 3.2287,-7.6751 6.9589,-13.7983 3.7188,-6.1045 5.739,-9.9494 6.683,-12.7194 0.5999,-1.7604 0.6244,-2.1344 0.6244,-9.5356 0,-9.7596 0.3213,-11.2276 3.1097,-14.2086 3.1565,-3.3746 7.5113,-4.625 12.2326,-3.5122 4.261,1.0042 7.3644,4.4147 8.3844,9.214 0.2645,1.2441 0.4297,3.813 0.487,7.5716 0.064,4.1948 0.1994,6.103 0.5158,7.267 0.5046,1.8566 1.9463,4.3172 5.8185,9.9309 5.6497,8.1905 9.0035,14.0464 9.8033,17.1172 0.5807,2.2294 0.4973,4.693 -0.2456,7.2581 -0.6763,2.335 -0.6199,2.5999 0.5551,2.6081 0.3171,0 0.7591,0.1867 0.9822,0.4099 0.4289,0.4288 0.95,2.0122 0.955,2.9015 0.01,1.7019 0.6066,2.6635 3.2045,5.1603 2.8026,2.6935 3.0403,3.1937 2.2378,4.7085 -0.4539,0.8568 -1.2599,1.495 -4.9132,3.8904 -3.4289,2.2482 -7.7175,5.4268 -9.1281,6.7652 -1.7623,1.6722 -3.4558,2.3651 -5.727,2.3434 -1.0702,-0.01 -2.4114,-0.1892 -2.9802,-0.3976 z m 5.4266,-0.6843 c 0.4946,-0.1688 1.206,-0.5557 1.5808,-0.8599 4.4814,-3.6373 6.8129,-5.3772 10.337,-7.7141 2.2915,-1.5195 4.3515,-3.027 4.5776,-3.3499 0.7695,-1.0986 0.5267,-1.9435 -0.9511,-3.3103 -4.0805,-3.774 -4.0744,-3.7647 -4.4549,-6.795 -0.2586,-2.0591 -0.6328,-2.5349 -1.9937,-2.5349 -0.6792,0 -0.9838,0.2133 -1.6709,1.1701 -0.4622,0.6436 -1.2293,1.4106 -1.7048,1.7044 -1.9669,1.2156 -6.9649,1.2104 -7.9531,-0.01 -0.4098,-0.5054 -0.4767,-0.9133 -0.3696,-2.2521 l 0.1308,-1.635 -1.2689,-0.3044 c -1.389,-0.3332 -2.1496,-0.1124 -2.6162,0.7594 -0.416,0.7772 -0.8134,4.6824 -0.8134,7.9917 0,2.4357 -0.1697,3.8654 -0.8172,6.8861 -1.1816,5.5128 -0.8922,7.7798 1.1966,9.373 0.5,0.3813 1.2442,0.794 1.6539,0.9169 1.1119,0.3338 4.1127,0.3117 5.1371,-0.038 z m -31.7296,-0.4956 c 1.2556,-0.3488 3.2432,-2.3609 3.8175,-3.8646 0.5416,-1.4183 0.3657,-3.445 -0.4138,-4.7661 -0.2948,-0.4996 -1.1736,-1.707 -1.953,-2.683 -0.7794,-0.976 -2.4704,-3.501 -3.7577,-5.611 -6.8661,-11.2543 -9.0037,-12.5514 -12.3633,-7.5018 -1.7502,2.6306 -2.0862,2.8674 -5.3528,3.7722 -3.8213,1.0585 -3.9758,1.2369 -3.6876,4.2588 0.3487,3.6559 0.283,5.5739 -0.2509,7.3224 -0.4909,1.6074 -0.4907,1.6481 0.013,2.5135 0.7143,1.228 1.8882,1.7013 7.2149,2.9091 2.5565,0.5797 6.1365,1.5717 7.9556,2.2046 1.819,0.6329 3.724,1.2678 4.2333,1.411 1.244,0.3498 3.353,0.366 4.545,0.035 z m 15.1438,-10.0398 c 2.81,-0.7186 4.4479,-1.6649 6.7008,-3.8712 l 1.9208,-1.8811 v -1.8701 c 0,-2.1149 0.4179,-5.5777 0.8301,-6.8787 0.395,-1.2465 1.2478,-1.7128 2.9318,-1.603 l 1.3975,0.091 0.3203,-2.1167 c 0.4362,-2.8822 0.038,-6.0348 -1.2368,-9.7896 -1.0778,-3.1749 -1.4368,-3.9426 -3.7538,-8.0274 -0.8536,-1.5046 -1.9159,-3.6101 -2.3608,-4.6789 -0.8653,-2.0785 -2.2675,-6.7199 -2.5344,-8.3894 -0.1451,-0.9075 -0.2108,-0.9789 -0.6214,-0.6751 -1.9174,1.4184 -4.6004,3.1621 -5.7994,3.7691 -2.7142,1.3742 -6.1411,0.6018 -8.6589,-1.9518 l -1.1517,-1.168 v 1.0357 c 0,1.4114 -0.8812,4.9527 -1.6689,6.7264 -0.3559,0.8014 -1.5156,2.885 -2.577,4.6302 -3.8496,6.3293 -6.0179,11.6965 -6.2594,15.4935 -0.2139,3.3642 0.054,3.8196 5.0515,8.5887 2.2832,2.1789 4.4554,4.4 4.827,4.9358 0.8113,1.1698 0.7054,1.6891 -0.6508,3.1902 l -0.9605,1.0633 0.9733,0.8413 c 3.1845,2.7529 8.4805,3.7639 13.2825,2.5357 z m -3.5163,-45.9188 c 2.3163,-0.8097 6.816,-3.8971 7.3327,-5.0313 0.4252,-0.9331 0.3843,-2.1221 -0.089,-2.5958 -0.7254,-0.7253 -8.0793,-3.3314 -9.4235,-3.3395 -1.2842,-0.01 -4.4854,1.6191 -5.9528,3.025 -1.6318,1.5636 -0.9925,2.3627 0.7124,3.5734 1.8496,1.3131 2.7704,1.3677 4.5505,1.5106 1.9318,0.155 3.5263,-0.1339 6.0312,-1.7977 2.0041,-1.3312 3.6292,-1.3187 1.7968,0.027 -2.5376,1.8628 -4.8935,2.7799 -7.1511,2.8958 -1.8462,0.095 -2.2292,0 -3.7898,-0.7321 -1.3382,-0.6263 -1.6734,-0.7072 -1.4854,-0.3585 0.608,1.1277 2.7866,2.4853 4.719,2.9405 1.4159,0.3336 1.4666,0.3315 2.749,-0.1168 z m -7.7819,-10.2249 c -0.7956,-1.0761 -0.8026,-2.8968 -0.014,-3.6853 1.1654,-1.1653 2.7361,0.1393 2.7361,2.2726 0,0.8665 0.046,0.924 0.5292,0.6652 0.7002,-0.3747 0.6942,-1.6556 -0.017,-3.5559 -0.9248,-2.4719 -2.446,-3.1647 -3.9561,-1.8019 -0.633,0.5713 -0.84,1.0198 -0.9636,2.0875 -0.2845,2.4578 0.9922,5.8707 1.9109,5.1082 0.2981,-0.2474 0.2595,-0.4344 -0.2255,-1.0904 z m 14.8875,0.1442 c 2.3891,-3.7673 0.011,-8.5334 -3.7408,-7.4975 -1.8732,0.5173 -3.069,2.2658 -3.3092,4.8389 l -0.1549,1.6578 0.9168,0.2814 0.9167,0.2813 -0.1183,-1.231 c -0.1007,-1.0479 -0.012,-1.357 0.5952,-2.0788 0.8928,-1.0611 1.9903,-1.1355 2.9274,-0.1985 0.8637,0.8637 0.9156,2.9095 0.1002,3.9462 l -0.5493,0.6982 0.6154,0.2468 c 0.9426,0.3778 0.9717,0.3626 1.8008,-0.9448 z"
         id="path61"
         sodipodi:nodetypes="sssssssssssssssssssssssssssscsssssssscsssssssssscssssssccssssssssssssssscscssscsssssssscssssssscsccssscssssssssssssssssssssssscccsssscss" /><path
         style="fill:#df601c;fill-opacity:1;stroke:none;stroke-width:1.22235;stroke-opacity:1"
         d="m -13392.7,-7345.5028 c -5.719,-1.9919 -21.365,-7.412 -33.964,-10.0546 -30.101,-6.3138 -35.515,-10.5631 -31.622,-20.1965 2.587,-6.4017 2.031,-16.3992 1.958,-21.5853 -0.07,-5.1862 -2.861,-12.7125 0.07,-17.3886 2.932,-4.6761 10.377,-5.0435 15.787,-6.6847 9.702,-2.8814 11.748,-4.65 19.635,-16.4033 10.329,-15.3923 20.145,-10.5505 44.359,29.9803 6.351,10.6306 14.667,22.5124 18.022,26.5892 7.174,8.7196 7.877,15.1989 6.235,22.0722 -1.133,4.737 -7.22,13.0028 -13.972,15.744 -5.533,2.246 -13.127,2.5878 -26.509,-2.0727 z"
         id="path62"
         transform="matrix(0.26458333,0,0,0.26458333,0,87)"
         sodipodi:nodetypes="ssszzsssssss" /><path
         style="fill:#df601c;fill-opacity:1;stroke:none;stroke-width:1.22235;stroke-opacity:1"
         d="m -13267.333,-7341.1138 c -4.8,-1.4408 -7.853,-4.8751 -10.886,-9.2376 -2.863,-4.1168 -2.583,-14.1487 0.958,-30.1009 1.527,-6.8765 2.827,-17.8397 2.832,-22.69 0.01,-9.1346 0.693,-26.0709 2.966,-32.3185 1.205,-3.3119 4.612,-4.5695 9.404,-3.4231 l 5.373,1.2856 -0.665,7.7972 c -0.397,4.6439 3.031,6.8687 4.919,8.7521 5.945,2.2016 16.836,2.4504 25.659,-1.3599 1.804,-0.7788 6.87,-6.3629 8.626,-8.6659 3.327,-4.3616 8.767,-3.0828 11.138,-0.2146 0.694,0.8404 1.166,4.1102 1.607,6.7994 0.442,2.6891 0.897,7.4654 1.639,9.3521 1.128,2.871 4.318,5.7196 10.919,12.5815 5.63,5.8519 9.026,7.5213 9.319,11.436 0.527,7.0405 -6.714,9.5199 -21.01,19.2869 -8.068,5.5116 -21.282,15.5032 -28.526,21.1765 -7.243,5.6733 -10.587,8.7602 -15.805,10.1448 -4.856,1.2882 -13.554,0.873 -18.467,-0.6016 z"
         id="path63"
         transform="matrix(0.26458333,0,0,0.26458333,0,87)"
         sodipodi:nodetypes="sssssscscsssssssssss" /><path
         style="fill:#df601c;fill-opacity:1;stroke:none;stroke-width:0.108042;stroke-opacity:1"
         d="m -13329.791,-7552.987 c -0.597,-0.075 -2.884,-0.5219 -4.174,-0.8457 -4.339,-1.089 -9.529,-3.6358 -13.234,-6.3831 -2.105,-1.5607 -4.672,-4.4316 -4.558,-5.2038 0.128,-0.8625 1.527,-0.2046 5.217,1.4871 5.713,2.6192 7.434,3.1087 11.222,3.1108 10.105,0.01 15.875,-2.0665 25.437,-8.209 4.52,-2.9035 7.92,-5.6402 7.606,-6.2313 -0.219,-0.4119 -3.21,1.3397 -8.837,4.3379 -6.338,3.3766 -11.309,4.9508 -16.408,5.9348 -6.366,1.2285 -12.293,0.7841 -18.339,-2.2453 -3.51,-1.7587 -8.851,-3.779 -10.671,-5.6006 -3.306,-3.3091 -2.686,-6.2893 1.897,-10.8969 2.988,-3.0045 6.91,-5.699 12.199,-8.3785 2.553,-1.2938 4.292,-1.9746 6.301,-2.6626 2.802,-0.9596 4.201,-1.0989 6.078,-0.789 6.013,0.9934 23.88,7.1242 31.141,10.7003 2.252,1.1095 3.038,1.6419 3.529,2.4579 0.675,1.1216 0.897,2.1055 0.897,4.1743 0,2.0023 -0.276,2.6913 -0.875,4.3385 -0.461,1.2685 -1.14,2.1724 -2.834,3.8196 -4.401,4.2816 -13.018,10.0478 -20.218,13.6828 -2.481,1.2526 -3.895,1.8375 -6.276,2.6365 -2.408,0.8081 -3.712,0.9403 -5.1,0.7653 z"
         id="path64"
         transform="matrix(0.26458333,0,0,0.26458333,0,87)"
         sodipodi:nodetypes="ssssscssssssssssssssssss" /></g></g></svg>
