<?xml version="1.0" encoding="UTF-8" standalone="no"?>
<!-- Created with Inkscape (http://www.inkscape.org/) -->

<svg
   width="200mm"
   height="200mm"
   viewBox="0 0 200 200"
   version="1.1"
   id="svg1"
   inkscape:version="1.3.1 (91b66b0783, 2023-11-16)"
   sodipodi:docname="list.svg"
   xml:space="preserve"
   xmlns:inkscape="http://www.inkscape.org/namespaces/inkscape"
   xmlns:sodipodi="http://sodipodi.sourceforge.net/DTD/sodipodi-0.dtd"
   xmlns="http://www.w3.org/2000/svg"
   xmlns:svg="http://www.w3.org/2000/svg"><sodipodi:namedview
     id="namedview1"
     pagecolor="#ffffff"
     bordercolor="#000000"
     borderopacity="0.25"
     inkscape:showpageshadow="2"
     inkscape:pageopacity="0.0"
     inkscape:pagecheckerboard="0"
     inkscape:deskcolor="#d1d1d1"
     inkscape:document-units="mm"
     inkscape:zoom="0.49134398"
     inkscape:cx="524.07277"
     inkscape:cy="117.02596"
     inkscape:window-width="1488"
     inkscape:window-height="1041"
     inkscape:window-x="406"
     inkscape:window-y="18"
     inkscape:window-maximized="0"
     inkscape:current-layer="layer1"
     showguides="true" /><defs
     id="defs1" /><g
     inkscape:label="Слой 1"
     inkscape:groupmode="layer"
     id="layer1"><g
       id="g11"><path
         id="path67"
         style="fill:#df601c;fill-opacity:1;stroke-width:1.07805"
         d="M 44.369385 111.18701 C 43.169093 111.26685 42.461123 111.75052 41.862561 112.66392 C 40.839533 114.22524 41.222068 116.68975 42.63099 117.61298 C 42.998824 117.85393 45.083391 118.53311 47.263782 119.12193 C 61.820948 123.0542 73.330073 128.39717 80.348067 134.48275 C 81.587012 135.55726 82.883214 136.5494 83.229028 136.68881 C 86.256134 137.90383 89.241813 134.46896 87.718677 131.52375 C 87.262923 130.64251 84.744865 128.38825 81.799658 126.22434 C 74.354742 120.75467 62.944177 115.72514 49.829517 112.13424 C 47.262203 111.43121 45.569677 111.10717 44.369385 111.18701 z " /><path
         id="path11"
         style="fill:#547586;fill-opacity:1;stroke-width:1.07805"
         d="M 45.873686 89.834827 C 45.290846 89.784808 44.951038 89.872496 44.412276 90.060136 C 42.241231 90.816555 41.326573 93.455856 42.543656 95.451538 C 43.244474 96.601138 43.420745 96.680696 47.895268 97.855009 C 55.103357 99.746614 64.097352 103.00149 69.218514 105.57237 C 74.135641 108.04091 78.909849 111.20928 82.191366 114.18063 C 83.582544 115.44017 83.848262 115.57049 85.026851 115.56969 C 86.64567 115.56843 87.864189 114.86314 88.47677 113.5724 C 89.438493 111.54551 88.836564 110.19117 85.806132 107.56294 C 81.33256 103.68327 74.731292 99.789461 67.255326 96.619942 C 62.497405 94.602558 53.277472 91.514296 48.793921 90.435824 C 47.282189 90.072346 46.456525 89.884845 45.873686 89.834827 z " /><path
         id="path10"
         style="fill:#df601c;fill-opacity:1;stroke-width:1.07805"
         d="M 145.156 89.257084 C 144.38966 89.218986 143.30192 89.399969 141.44873 89.777466 C 135.76948 90.933878 129.62161 93.16871 122.72274 96.583769 C 117.68412 99.078291 116.37141 100.14518 116.38721 101.73849 C 116.39877 103.02401 116.88926 103.99231 117.77937 104.48561 C 118.81713 105.06081 120.38162 104.94591 121.54865 104.20914 C 123.21626 103.15633 127.26875 101.17992 130.82922 99.682288 C 134.97853 97.936898 139.34713 96.562842 143.40107 95.728007 C 146.80566 95.026874 147.50693 94.633189 147.90312 93.198446 C 148.26525 91.886473 147.98382 90.971128 146.93418 90.049801 C 146.36738 89.552068 145.92234 89.295182 145.156 89.257084 z " /><path
         id="path9"
         style="fill:#547586;fill-opacity:1;stroke-width:1.07805"
         d="M 153.62732 69.809176 C 153.11332 69.792319 152.51097 69.813385 151.79487 69.865503 C 145.64783 70.31286 138.93097 72.042653 130.09852 75.453276 C 123.85343 77.864949 116.53009 81.299782 115.82135 82.149508 C 114.6038 83.609596 114.9253 85.832123 116.49263 86.787984 C 116.95726 87.071385 117.65861 87.303757 118.05068 87.304232 C 118.44291 87.304708 120.41885 86.515542 122.44162 85.550334 C 131.14624 81.396756 141.0275 77.847385 147.00963 76.725033 C 148.34933 76.47379 150.79182 76.179597 152.43772 76.070292 C 155.34951 75.877662 155.45092 75.84904 156.21114 74.998523 C 157.11679 73.984682 157.28134 72.198363 156.56357 71.173433 C 155.91701 70.251713 155.16931 69.859745 153.62732 69.809176 z " /><path
         id="path8"
         style="fill:#df601c;fill-opacity:1;stroke-width:1.07805"
         d="M 44.853076 67.13182 C 44.043133 67.177046 43.478592 67.456383 42.848031 67.987065 C 40.488792 69.972133 41.603723 73.58272 44.833439 74.41613 C 61.95483 78.834098 74.974049 84.813892 81.595536 91.300887 C 82.162495 91.856439 83.08875 92.472655 83.653809 92.670829 C 85.80711 93.425508 88.164711 91.98854 88.405973 89.774882 C 88.553455 88.420454 88.307142 87.756402 87.219482 86.575594 C 80.694943 79.491066 65.028972 71.879349 48.330383 67.680623 C 46.718218 67.275246 45.66302 67.086593 44.853076 67.13182 z " /><path
         id="path7"
         style="fill:#df601c;fill-opacity:1;stroke-width:1.07805"
         d="M 154.27947 53.317159 C 153.71061 53.275615 152.9181 53.301099 151.64811 53.375553 C 144.27512 53.805802 134.47151 56.786301 122.14035 62.346582 C 116.2032 65.023596 115.27927 65.733226 115.27927 67.619128 C 115.27927 69.097593 116.02177 70.174626 117.28638 70.530579 C 118.44263 70.856116 119.13552 70.683779 121.59154 69.46036 C 127.15452 66.689089 135.992 63.1958 141.35933 61.646366 C 146.00479 60.305721 148.51237 59.832391 152.11785 59.615999 C 155.16871 59.432875 155.3825 59.381062 156.16204 58.634147 C 157.7457 57.116872 157.44999 54.634494 155.56932 53.661841 C 155.19372 53.467152 154.84833 53.358703 154.27947 53.317159 z " /><path
         id="path6"
         style="fill:#547586;fill-opacity:1;stroke-width:1.07805"
         d="M 44.382304 45.866968 C 40.993542 45.866968 39.414808 50.274227 42.085803 52.278463 C 42.613317 52.674335 44.128644 53.228359 45.850431 53.655123 C 59.34148 56.999371 72.965055 63.217777 79.604443 69.061934 C 80.58565 69.925441 81.758935 70.863637 82.211519 71.146562 C 84.50866 72.581938 87.56158 70.79562 87.56158 68.01342 C 87.563164 66.483946 87.025666 65.672308 84.634111 63.594568 C 78.483743 58.251153 68.244643 52.928223 56.825472 49.137569 C 52.115866 47.574037 45.62125 45.866968 44.382304 45.866968 z " /><path
         id="path5"
         style="fill:#547586;fill-opacity:1;stroke-width:1.07805"
         d="M 187.21855 34.956006 C 185.78757 34.867908 184.52777 35.526777 183.49009 36.91661 L 182.92424 37.674186 L 182.64983 158.34796 L 177.16128 158.48593 C 169.46037 158.67824 163.24381 159.48203 154.63139 161.39945 C 140.96735 164.44177 121.52484 171.44749 108.08384 178.17259 L 104.86853 179.78179 L 102.32089 179.60454 C 99.790093 179.42902 99.752107 179.41563 96.480416 177.5256 C 91.937618 174.90134 83.083748 170.56511 77.819539 168.38662 C 60.210713 161.09996 40.970738 156.95201 21.710303 156.28969 L 16.211414 156.10055 L 16.211414 38.669991 L 15.644006 37.672119 C 14.83531 36.250049 13.86503 35.632259 12.227677 35.496025 C 10.506366 35.353136 9.4201012 35.848482 8.3359253 37.270076 L 7.56698 38.277767 L 7.4264201 165.85241 L 8.3204224 165.69893 C 13.380437 164.83205 22.460543 164.81427 31.16864 165.65449 C 52.581112 167.72019 74.402004 174.77849 93.103878 185.68789 L 97.122237 188.03193 L 100.50653 188.26034 L 100.50549 188.25983 C 106.90948 188.69245 106.13544 188.8331 111.46348 186.26667 C 121.47152 181.44585 129.62226 178.11317 139.39046 174.84876 C 159.21833 168.22221 174.9936 165.94067 187.86399 167.83782 C 189.37334 168.06007 190.82568 168.25123 191.09118 168.25123 L 191.43121 38.005432 L 190.69172 36.887671 C 190.17038 36.100202 189.58315 35.628971 188.70476 35.293453 C 188.1917 35.097496 187.69554 34.985372 187.21855 34.956006 z " /><path
         id="path4"
         style="fill:#df601c;fill-opacity:1;stroke-width:1.07805"
         d="M 23.896216 23.638867 L 24.239347 150.81095 C 24.239981 151.00706 27.052322 151.24143 30.071033 151.64966 C 46.623088 153.88708 63.067702 158.43349 78.803459 165.12325 C 83.174695 166.98144 91.966767 171.23612 95.246383 173.07987 C 96.529366 173.80112 98.011422 174.55559 98.539722 174.75677 L 98.539722 174.76711 C 99.072631 174.96121 99.927639 175.06242 100.46053 174.97692 C 100.98899 174.89122 102.3887 174.71255 103.57094 174.58108 C 105.52797 174.36231 106.08052 174.14546 109.74524 172.16055 C 131.26306 160.50708 150.3708 154.72658 175.72157 152.20053 L 177.57366 152.01604 L 177.34783 24.472408 C 177.34593 23.467438 162.92295 26.694452 159.05024 27.502197 C 140.301 31.412453 123.37871 37.289105 106.42555 45.776534 L 101.78862 48.098356 L 98.860632 46.428691 C 80.071791 35.715247 58.167448 28.190824 36.519735 25.014494 C 32.304534 24.395893 25.913123 23.670727 24.651208 23.654887 L 23.896216 23.638867 z M 32.634701 33.40778 C 32.761747 33.329366 35.089151 33.62655 37.807511 34.068205 C 57.025651 37.190834 75.637264 43.605192 92.571094 52.942505 L 96.344507 55.022998 L 96.344507 109.30909 L 96.34554 109.30909 C 96.34554 139.16637 96.251824 163.59651 96.139351 163.58071 C 96.026087 163.57294 94.476708 162.82832 92.696151 161.92552 C 76.271616 153.60015 56.417056 147.12668 37.240104 143.84548 C 35.44719 143.53863 33.700542 143.28789 33.358687 143.28789 C 33.01715 143.28789 32.661428 143.09254 32.571139 142.85381 C 32.310545 142.17738 32.374587 33.568411 32.634701 33.40778 z M 168.79228 34.590653 C 168.79228 71.09715 168.90961 107.6075 168.58661 144.11162 C 168.4735 144.11194 166.2901 144.4205 163.73523 144.79736 C 148.15265 147.09688 132.80075 151.57469 118.57261 157.96917 C 115.19287 159.48819 107.17257 163.47606 106.37749 164.03288 L 106.37697 164.03288 C 106.07424 164.24483 105.66849 164.41839 105.47522 164.41839 C 105.19325 164.41839 105.13818 154.1219 105.19358 110.28836 L 105.26283 56.158329 L 111.03198 53.276335 C 128.96428 44.319213 147.57213 38.248904 167.7634 34.76842 L 168.79228 34.590653 z " /></g></g></svg>
