<?xml version="1.0" encoding="UTF-8" standalone="no"?>
<!-- Created with Inkscape (http://www.inkscape.org/) -->

<svg
   width="200mm"
   height="200mm"
   viewBox="0 0 200 200"
   version="1.1"
   id="svg1"
   inkscape:version="1.3.1 (91b66b0783, 2023-11-16)"
   sodipodi:docname="lock.svg"
   xml:space="preserve"
   xmlns:inkscape="http://www.inkscape.org/namespaces/inkscape"
   xmlns:sodipodi="http://sodipodi.sourceforge.net/DTD/sodipodi-0.dtd"
   xmlns="http://www.w3.org/2000/svg"
   xmlns:svg="http://www.w3.org/2000/svg"><sodipodi:namedview
     id="namedview1"
     pagecolor="#ffffff"
     bordercolor="#000000"
     borderopacity="0.25"
     inkscape:showpageshadow="2"
     inkscape:pageopacity="0.0"
     inkscape:pagecheckerboard="0"
     inkscape:deskcolor="#d1d1d1"
     inkscape:document-units="mm"
     inkscape:zoom="0.49134398"
     inkscape:cx="628.88732"
     inkscape:cy="468.10383"
     inkscape:window-width="1920"
     inkscape:window-height="976"
     inkscape:window-x="-8"
     inkscape:window-y="-8"
     inkscape:window-maximized="1"
     inkscape:current-layer="layer1"
     showguides="true" /><defs
     id="defs1" /><g
     inkscape:label="Слой 1"
     inkscape:groupmode="layer"
     id="layer1"><g
       id="g3311"
       transform="matrix(2.2704659,0,0,2.2704659,8940.1403,5984.0727)"><path
         transform="matrix(0.26458333,0,0,0.26458333,0,87)"
         id="path3307"
         d="m -14797.707,-10159.383 -2.912,0.379 -2.914,0.381 -2.061,0.535 -2.062,0.537 -2.596,1.082 -2.594,1.08 -2.843,1.844 -2.844,1.842 -3.233,3.289 -3.23,3.287 -1.758,2.943 -1.756,2.944 -1.197,3.183 -1.195,3.186 -0.549,3.142 -0.547,3.145 v 62.408 62.408 l 0.379,2.809 0.381,2.8086 1.176,3.4668 1.175,3.4688 1.51,2.6367 1.51,2.6367 2.162,2.6191 2.164,2.6192 2.498,2.0488 2.498,2.0488 2.418,1.3828 2.416,1.3829 2.566,1.0234 2.567,1.0215 2.461,0.5293 2.465,0.5351 89.951,-0.064 89.951,-0.064 3.051,-1.0254 3.053,-1.0254 3.056,-1.5683 3.055,-1.5703 2.945,-2.3574 2.945,-2.3575 2.356,-2.9433 2.357,-2.9453 1.571,-3.0567 1.57,-3.0547 1.023,-3.0527 1.026,-3.0527 0.1,-65.7128 0.1,-65.713 -0.543,-2.693 -0.545,-2.692 -1.053,-2.728 -1.05,-2.729 -1.557,-2.605 -1.557,-2.604 -2.009,-2.392 -2.012,-2.393 -2.477,-2 -2.478,-2.002 -2.154,-1.281 -2.155,-1.281 -2.334,-0.951 -2.334,-0.952 -2.873,-0.783 -2.873,-0.783 -87.078,-0.109 z m 89.414,59.862 2.873,0.99 2.873,0.992 1.975,1.111 1.974,1.112 2.928,2.939 2.928,2.941 1.433,3.014 1.436,3.014 0.477,1.974 0.478,1.975 v 3.592 3.59 l -0.478,1.974 -0.477,1.975 -1.377,2.894 -1.377,2.895 -2.365,2.555 -2.363,2.552 -1.608,1.016 -1.607,1.016 v 13.685 13.688 l -0.364,1.922 -0.367,1.919 -0.734,1.52 -0.736,1.52 -1.502,1.511 -1.504,1.512 -1.942,0.894 0.01,0.04 -1.941,0.893 -2.368,0.125 -2.369,0.125 -1.511,-0.494 -1.514,-0.496 -1.592,-0.932 -1.59,-0.931 -0.994,-1.174 -0.992,-1.176 -0.93,-1.975 -0.931,-1.974 -0.114,-15.082 -0.109,-15.082 -1.449,-0.897 -1.447,-0.898 -2.389,-2.514 -2.389,-2.514 -1.355,-2.586 -1.358,-2.584 -0.709,-2.769 -0.707,-2.768 v -2.726 -2.725 l 0.526,-2.514 0.527,-2.513 1.424,-2.873 1.426,-2.873 1.363,-1.629 1.365,-1.631 1.475,-1.326 1.474,-1.328 2.116,-1.276 2.117,-1.273 2.873,-0.936 2.873,-0.935 4.308,-0.04 z"
         style="fill:#547586;fill-opacity:1;stroke-width:0.359087"
         inkscape:connector-curvature="0" /><path
         transform="matrix(0.26458333,0,0,0.26458333,0,87)"
         id="path3297"
         d="m -14719.07,-10278.572 -4.487,0.525 -4.486,0.526 -4.668,1.072 -4.668,1.072 -3.59,1.238 -3.592,1.241 -2.668,1.119 -2.669,1.121 -3.077,1.674 -3.076,1.673 -1.974,1.252 -1.975,1.252 -2.639,1.944 -2.636,1.941 -3.192,2.861 -3.193,2.864 -3.147,3.785 -3.148,3.787 -2.357,3.535 -2.36,3.537 -2.025,3.901 -2.028,3.9 -1.656,4.111 -1.656,4.112 -1.375,4.691 -1.375,4.693 -0.928,4.643 -0.926,4.645 -0.586,4.488 -0.585,4.488 -0.182,12.838 -0.192,12.832 h 17.762 17.762 l 0.224,-10.502 0.223,-10.504 0.391,-3.41 0.392,-3.412 0.871,-4.361 0.873,-4.362 1.249,-3.81 1.248,-3.811 1.605,-3.318 1.606,-3.32 1.875,-2.834 1.875,-2.836 3.267,-3.307 3.266,-3.307 2.154,-1.439 2.156,-1.44 2.155,-1.082 2.154,-1.082 2.621,-0.941 2.623,-0.941 3.916,-0.706 3.916,-0.705 4.594,-0.234 4.594,-0.234 4.128,0.418 4.129,0.418 2.694,0.548 2.693,0.549 2.693,0.918 2.694,0.916 2.154,1.08 2.154,1.08 2.155,1.459 2.154,1.459 2.713,2.711 2.713,2.711 1.898,2.694 1.901,2.693 1.718,3.41 1.721,3.412 1.145,3.233 1.144,3.23 0.871,3.67 0.869,3.668 0.596,3.693 0.596,3.692 0.215,12.031 0.216,12.027 17.866,0.1 17.863,0.09 v -9.967 -9.969 l -0.363,-4.129 -0.362,-4.131 -0.72,-4.943 -0.721,-4.945 -0.901,-3.854 -0.902,-3.851 -1.453,-4.639 -1.453,-4.637 -1.783,-4.16 -1.783,-4.16 -1.645,-3.053 -1.645,-3.052 -2.302,-3.499 -2.305,-3.5 -2.229,-2.773 -2.228,-2.771 -3.135,-3.139 -3.135,-3.137 -3.275,-2.529 -3.273,-2.531 -3.141,-1.944 -3.143,-1.943 -2.916,-1.467 -2.918,-1.467 -3.511,-1.39 -3.512,-1.393 -3.232,-0.933 -3.231,-0.932 -3.346,-0.734 -3.343,-0.737 -4.553,-0.533 -4.553,-0.531 h -6.469 z"
         style="fill:#df601c;fill-opacity:1;stroke-width:0.359087"
         inkscape:connector-curvature="0" /></g></g></svg>
