<?xml version="1.0" encoding="UTF-8" standalone="no"?>
<!-- Created with Inkscape (http://www.inkscape.org/) -->

<svg
   width="200mm"
   height="200mm"
   viewBox="0 0 200 200"
   version="1.1"
   id="svg1"
   inkscape:version="1.3.1 (91b66b0783, 2023-11-16)"
   sodipodi:docname="log_system.svg"
   xml:space="preserve"
   xmlns:inkscape="http://www.inkscape.org/namespaces/inkscape"
   xmlns:sodipodi="http://sodipodi.sourceforge.net/DTD/sodipodi-0.dtd"
   xmlns="http://www.w3.org/2000/svg"
   xmlns:svg="http://www.w3.org/2000/svg"><sodipodi:namedview
     id="namedview1"
     pagecolor="#ffffff"
     bordercolor="#000000"
     borderopacity="0.25"
     inkscape:showpageshadow="2"
     inkscape:pageopacity="0.0"
     inkscape:pagecheckerboard="0"
     inkscape:deskcolor="#d1d1d1"
     inkscape:document-units="mm"
     inkscape:zoom="0.34743266"
     inkscape:cx="320.9255"
     inkscape:cy="443.25136"
     inkscape:window-width="1920"
     inkscape:window-height="976"
     inkscape:window-x="-8"
     inkscape:window-y="-8"
     inkscape:window-maximized="1"
     inkscape:current-layer="layer1"
     showguides="true" /><defs
     id="defs1" /><g
     inkscape:label="Слой 1"
     inkscape:groupmode="layer"
     id="layer1"><g
       id="g17"
       transform="matrix(1.0400373,0,0,1.0400373,0.22381867,4.2500073)"><path
         id="path4393"
         style="fill:#547586;fill-opacity:1;stroke:none;stroke-width:0.835013px;stroke-linecap:butt;stroke-linejoin:miter;stroke-opacity:1"
         d="M 77.102232,14.89596 7.8594321,126.32688 H 99.950452 L 169.15759,14.953321 Z m 1.50068,12.094869 75.344238,0.0021 -3.79047,4.813143 H 74.808832 Z m -8.85786,14.625464 75.344238,0.0026 -3.79046,4.812626 H 65.950452 Z m -8.8594,15.067298 75.344228,0.0026 -3.79098,4.812626 H 57.091052 Z m -10.21747,14.542781 75.344238,0.0026 -3.79047,4.812626 H 46.873582 Z m -8.95862,14.022917 75.344228,0.0026 -3.79046,4.812626 H 37.914962 Z m -8.82427,15.369601 75.344238,0.002 -3.79099,4.81263 H 29.090692 Z" /><path
         id="path4423"
         style="fill:#df601c;fill-opacity:1;stroke:none;stroke-width:0.835013px;stroke-linecap:butt;stroke-linejoin:miter;stroke-opacity:1"
         d="m 145.11854,60.400667 -15.68742,25.24548 29.62559,0.001 -3.79047,4.81314 h -28.82666 l -7.47552,12.029763 28.98583,0.001 -3.79047,4.81263 h -28.18639 l -6.52467,10.50065 26.54619,5.1e-4 -3.79099,4.81263 h -25.74623 l -3.86901,6.22598 H 45.225417 l -27.86497,44.84274 H 112.31021 L 182.70539,60.400667 Z m -95.757973,76.593253 75.344233,0.002 -3.79099,4.81314 -75.347843,-5.1e-4 z m -10.23452,17.06511 75.344233,0.002 -3.79098,4.81314 H 35.331447 Z" /></g></g></svg>
