<?xml version="1.0" encoding="UTF-8" standalone="no"?>
<!-- Created with Inkscape (http://www.inkscape.org/) -->

<svg
   width="200mm"
   height="200mm"
   viewBox="0 0 200 200"
   version="1.1"
   id="svg1"
   inkscape:version="1.3.1 (91b66b0783, 2023-11-16)"
   sodipodi:docname="map.svg"
   xml:space="preserve"
   xmlns:inkscape="http://www.inkscape.org/namespaces/inkscape"
   xmlns:sodipodi="http://sodipodi.sourceforge.net/DTD/sodipodi-0.dtd"
   xmlns="http://www.w3.org/2000/svg"
   xmlns:svg="http://www.w3.org/2000/svg"><sodipodi:namedview
     id="namedview1"
     pagecolor="#ffffff"
     bordercolor="#000000"
     borderopacity="0.25"
     inkscape:showpageshadow="2"
     inkscape:pageopacity="0.0"
     inkscape:pagecheckerboard="0"
     inkscape:deskcolor="#d1d1d1"
     inkscape:document-units="mm"
     inkscape:zoom="0.69486532"
     inkscape:cx="169.81708"
     inkscape:cy="477.79043"
     inkscape:window-width="1920"
     inkscape:window-height="976"
     inkscape:window-x="-8"
     inkscape:window-y="-8"
     inkscape:window-maximized="1"
     inkscape:current-layer="layer1"
     showguides="true" /><defs
     id="defs1" /><g
     inkscape:label="Слой 1"
     inkscape:groupmode="layer"
     id="layer1"><g
       id="g5283"
       transform="matrix(0.62891627,0,0,0.62891627,1275.7822,-644.99471)"><path
         sodipodi:nodetypes="ccccc"
         id="path5242"
         d="m -1990.3565,1248.8164 -20.3646,35.1012 187.5099,0.5571 -86.436,-50.5121 z"
         style="fill:#547586;fill-opacity:1;stroke-width:0.264583"
         inkscape:connector-curvature="0" /><path
         sodipodi:nodetypes="cccccc"
         id="path5240"
         d="m -1761.7194,1208.2226 -80.6219,15.5059 -12.4742,20.2536 68.4533,40.1033 60.6938,-0.014 z"
         style="fill:#547586;fill-opacity:1;stroke-width:0.264583"
         inkscape:connector-curvature="0" /><path
         sodipodi:nodetypes="ccccc"
         id="path5238"
         d="m -1962.4377,1203.2662 -18.1406,30.2591 52.0671,-9.9048 c 0.5035,0 -0.5669,-0.7698 -4.6943,-3.377 -13.5652,-8.5689 -26.7951,-16.5647 -29.2322,-16.9773 z"
         style="fill:#547586;fill-opacity:1;stroke-width:0.264583"
         inkscape:connector-curvature="0" /><path
         sodipodi:nodetypes="cccccccccc"
         id="path5236"
         d="m -1952.656,1186.687 54.0695,31.8655 31.1203,18.0279 13.8684,-24.1844 88.0363,-12.0473 -6.5491,-13.3677 -60.6553,-0.073 c -22.3275,19.3591 -23.7934,17.0222 -33.2969,23.0444 -9.974,-4.1831 -21.3509,-11.8732 -34.179,-23.1914 z"
         style="fill:#547586;fill-opacity:1;stroke-width:0.264583"
         inkscape:connector-curvature="0" /><path
         inkscape:export-ydpi="600"
         inkscape:export-xdpi="600"
         inkscape:connector-curvature="0"
         id="path2428-9-1-7-4-7-4"
         d="m -1880.6816,1195.6436 c -21.1538,-15.9234 -40.1451,-37.4962 -48.1962,-54.748 -5.2337,-11.2138 -6.7828,-19.2799 -6.1248,-31.889 1.6281,-31.2089 22.0548,-56.6389 52.4781,-65.3346 29.5371,-8.4426 62.5082,7.0472 77.3597,36.3437 9.0222,17.7969 10.706,38.2307 4.4494,53.9959 -3.6839,9.2828 -10.319,20.8673 -12.4487,21.7345 -1.6798,0.6846 -23.2163,-20.6188 -24.2535,-23.9906 -0.3279,-1.0701 0.4563,-4.341 1.7423,-7.2689 3.3026,-7.5072 3.2299,-19.8369 -0.1643,-27.2764 -4.9214,-10.8 -14.643,-17.9076 -26.4629,-19.3461 -20.5834,-2.506 -38.9906,18.8958 -34.4092,40.0095 0.7836,3.6125 3.5675,10.0057 6.1861,14.2079 5.2008,8.3436 22.3301,26.3808 25.0528,26.3808 0.9353,0 3.8256,-1.9804 6.4242,-4.4023 3.6159,-3.3693 5.2115,-4.1494 6.7999,-3.3254 2.9025,1.5062 22.4798,22.7922 22.4798,24.4422 0,3.4433 -32.4858,29.2367 -36.819,29.2332 -1.3496,-6e-4 -7.6935,-3.9457 -14.0978,-8.7664 z"
         style="fill:#df601c;fill-opacity:1;stroke-width:1.47742" /></g></g></svg>
