<?xml version="1.0" encoding="UTF-8" standalone="no"?>
<!-- Created with Inkscape (http://www.inkscape.org/) -->

<svg
   width="200mm"
   height="200mm"
   viewBox="0 0 200 200"
   version="1.1"
   id="svg1"
   inkscape:version="1.3.1 (91b66b0783, 2023-11-16)"
   sodipodi:docname="map1.svg"
   xml:space="preserve"
   xmlns:inkscape="http://www.inkscape.org/namespaces/inkscape"
   xmlns:sodipodi="http://sodipodi.sourceforge.net/DTD/sodipodi-0.dtd"
   xmlns="http://www.w3.org/2000/svg"
   xmlns:svg="http://www.w3.org/2000/svg"><sodipodi:namedview
     id="namedview1"
     pagecolor="#ffffff"
     bordercolor="#000000"
     borderopacity="0.25"
     inkscape:showpageshadow="2"
     inkscape:pageopacity="0.0"
     inkscape:pagecheckerboard="0"
     inkscape:deskcolor="#d1d1d1"
     inkscape:document-units="mm"
     inkscape:zoom="0.49134398"
     inkscape:cx="398.90587"
     inkscape:cy="480.31524"
     inkscape:window-width="1920"
     inkscape:window-height="976"
     inkscape:window-x="-8"
     inkscape:window-y="-8"
     inkscape:window-maximized="1"
     inkscape:current-layer="layer1"
     showguides="true" /><defs
     id="defs1" /><g
     inkscape:label="Слой 1"
     inkscape:groupmode="layer"
     id="layer1"><g
       id="g2"><path
         style="fill:#547586;fill-opacity:1;stroke-width:0.151332"
         d="m 90.199783,168.73095 -0.6054,-0.053 -2.1068,-0.23321 -2.1071,-0.2329 -2.2816,-0.4366 -2.2818,-0.43639 -1.7928,-0.4657 -1.7928,-0.4659 -2.0596,-0.68791 -2.0593,-0.6882 -1.8226,-0.7332 -1.8228,-0.733 -1.5122,-0.7068 -1.512,-0.7067 -1.5146,-0.8435 -1.5144,-0.8436 -1.1351,-0.6785 -1.1347,-0.6788 -1.7836,-1.2145 -1.7835,-1.2147 -1.924,-1.5491 -1.9243,-1.549 -1.7652,-1.6418 -1.7651,-1.6418 -1.265,-1.3621 -1.2653,-1.3618 -1.1537,-1.387 -1.1536,-1.3871 -1.1089,-1.4883 -1.1092,-1.4883 -1.3022,-2.0431 -1.3022,-2.0429 -0.9302,-1.7205 -0.9302,-1.7205 -0.8478,-1.8256 -0.8481,-1.8255 -0.6005,-1.5074 -0.6004,-1.5072 -0.6795,-2.05939 -0.6794,-2.05921 -0.5122,-2.043 -0.512,-2.0429 -0.3912,-2.1185 -0.3912,-2.1189 -0.2372,-2.1186 -0.2376,-2.1186 -0.084,-3.5205 -0.084,-3.5207 0.1824,-2.3814 0.1825,-2.381293 0.2077,-1.5889 0.2078,-1.5892 0.3956,-2.0429 0.3959,-2.0429 0.5915,-2.1943 0.5912,-2.1944 0.5122,-1.5134 0.5122,-1.5132 0.8003,-2.0301 0.8002,-2.0299 1.3838,-2.7369 1.3836,-2.7371 1.314,-2.094 1.3141,-2.0938 1.3285,-1.8248 1.3289,-1.8247 1.4932,-1.7563 1.4932,-1.7562 1.5336,-1.5681 1.5334,-1.5684 1.8915,-1.6676 1.8918,-1.6672 1.9672,-1.4707 1.9673,-1.4703 1.3421,-0.8681 1.3423,-0.868 1.9509,-1.1206 1.9506,-1.121 0.8688,-0.4366 0.8685,-0.4367 1.9647,-0.8674 1.9643,-0.8677 1.7497,-0.6434 1.7495,-0.6433 2.0366,-0.6107 2.0366,-0.6102 1.7812,-0.3996 1.7813,-0.3994 2.1532,-0.3645 2.1533,-0.3647 3.1024,-0.253 3.1025,-0.2533 3.3291,0.09 3.3295,0.09 2.118497,0.2303 2.1186,0.2306 2.1189,0.3896 2.1184,0.3898 1.8161,0.4491 1.8159,0.4493 1.9674,0.6142 1.9672,0.6143 1.5134,0.5798 1.5134,0.5797 1.4162,0.6107 1.4166,0.6104 2.3265,1.2128 2.3269,1.2128 1.6292,1.003 1.6291,1.0033 1.5133,1.0697 1.5132,1.0696 1.7404,1.3986 1.7402,1.3983 1.6245,1.4872 1.6246,1.4874 1.6193,1.7404 1.6196,1.7403 1.5554,1.9516 1.5551,1.9514 1.0116,1.4536 1.0112,1.4533 1.3651,2.27 1.3654,2.27 1.0942,2.27 1.0944,2.2698 0.6799,1.665 0.68,1.6644 0.6318,1.8916 0.6318,1.8917 0.5861,2.1944 0.5856,2.1943 0.3919,2.1186 0.3918,2.1187 0.2229,1.8907 0.2229,1.890593 v 5.8319 5.8317 l -0.2298,1.8871 -0.2297,1.8872 -0.4484,2.3474 -0.4483,2.3476 -0.6123,2.2325 -0.6119,2.2326 -0.7353,2.07851 -0.7353,2.07849 -0.7085,1.6486 -0.7084,1.6485 -1.0409,2.0776 -1.0405,2.0776 -0.7907,1.3434 -0.7906,1.3435 -1.059,1.5891 -1.0591,1.5889 -1.133,1.5134 -1.1334,1.5132 -1.7121,1.9844 -1.712,1.984 -2.0004,1.9271 -2.0001,1.927 -1.5232,1.2517 -1.5233,1.2518 -1.7874,1.3035 -1.7871,1.30351 -1.9955,1.23959 -1.9954,1.2396 -2.2705,1.1745 -2.2708,1.1743 -1.6646,0.7097 -1.6646,0.71 -1.4377,0.5266 -1.4377,0.5266 -1.5889,0.5051 -1.589,0.5047 -1.8916,0.47531 -1.8917,0.4753 -1.5889,0.2929 -1.5891,0.2932 -0.908,0.1452 -0.9079,0.14519 -2.4969,0.22961 -2.497097,0.2298 -3.7833,-0.026 -3.7833,-0.026 z m 1.7402,-22.0879 v -15.5328 l -1.8538,0.1055 -1.8538,0.1055 -1.4906,0.1482 -1.4908,0.1514 -2.7467,0.4517 -2.7463,0.4516 -2.27,0.5254 -2.2701,0.5254 -1.5891,0.47249 -1.5889,0.4723 -0.1177,0.1055 -0.1177,0.10551 0.4005,0.8967 0.4006,0.8967 0.8831,1.8564 0.8832,1.8568 1.1549,2.078 1.1548,2.0781 1.7083,2.5724 1.7084,2.5728 1.2867,1.6647 1.2868,1.6646 1.1635,1.3532 1.1633,1.3528 1.2841,1.3711 1.2841,1.3708 2.0693,1.9294 2.0697,1.9297 h 0.1162 0.1162 z m 9.994997,11.9046 2.9579,-2.9544 1.4643,-1.7629 1.4646,-1.7625 1.2321,-1.6423 1.2321,-1.6424 1.2518,-1.89151 1.2515,-1.89179 1.1727,-2.0429 1.1728,-2.04311 0.93,-1.8915 0.9298,-1.8918 0.4873,-1.1165 0.4873,-1.1168 v -0.1746 -0.1746 l -2.3079,-0.64519 -2.3077,-0.64511 -1.6647,-0.3732 -1.6648,-0.373 -2.2029,-0.3742 -2.2031,-0.3744 -1.8829,-0.2176 -1.8829,-0.2176 -1.929397,-0.1085 -1.9295,-0.1085 v 15.5424 15.5423 l 0.4917,-0.3471 0.4918,-0.3473 z m -21.228597,1.32069 -1.2617,-1.4 -1.1309,-1.3619 -1.1308,-1.36199 -1.3037,-1.7403 -1.3039,-1.7403 -1.4418,-2.1945 -1.442,-2.1942 -1.1747,-2.0429 -1.1747,-2.0431 -1.3168,-2.7241 -1.317,-2.7239 -0.2736,-0.7335 -0.2737,-0.7336 -0.1785,-0.069 -0.1784,-0.069 -1.6481,0.7172 -1.648,0.7171 -2.2701,1.1589 -2.2701,1.1589 -1.5133,0.8767 -1.5133,0.8768 -1.1729,0.7504 -1.1727,0.7503 v 0.1391 0.1391 l 1.8539,1.8619 1.8538,1.8618 1.5132,1.2888 1.5134,1.2888 1.5134,1.1413 1.5132,1.1417 1.5135,0.9869 1.5133,0.987 1.9671,1.1002 1.9673,1.0999 1.1351,0.521 1.135,0.5212 1.5583,0.6684 1.5588,0.66849 2.0734,0.68681 2.0734,0.687 1.2863,0.3551 1.2863,0.35489 0.2729,0.02 0.2729,0.02 -1.2618,-1.3998 z m 28.721897,1.0908 1.2012,-0.3089 1.8723,-0.6113 1.8725,-0.6113 2.0621,-0.8326 2.0624,-0.8326 2.3456,-1.1961 2.3459,-1.196 2.0218,-1.2882 2.0222,-1.2881 1.9882,-1.4964 1.9882,-1.4964 1.6647,-1.5106 1.6645,-1.5109 1.4259,-1.4636 1.4259,-1.4637 -0.5828,-0.3961 -0.5831,-0.396 -1.9779,-1.19759 -1.9778,-1.1976 -2.7998,-1.3969 -2.7994,-1.3966 -1.3393,-0.5598 -1.3394,-0.5594 h -0.1177 -0.1192 l -0.3419,0.8701 -0.3416,0.8701 -1.4024,2.8751 -1.4023,2.8756 -0.9681,1.6644 -0.9678,1.6649 -0.9546,1.5132 -0.9544,1.5132 -1.2293,1.7403 -1.2294,1.7404 -1.7601,2.1944 -1.7601,2.1942 -0.966,1.0609 -0.9661,1.0609 -0.2884,0.3391 -0.2882,0.3389 h 0.1468 0.1467 z m -58.297197,-23.4863 1.6398,-1.0337 2.295,-1.2594 2.2947,-1.2592 1.362,-0.64269 1.3621,-0.64251 1.4377,-0.6397 1.4377,-0.6396 0.4996,-0.1987 0.4999,-0.1991 -0.096,-0.24289 -0.096,-0.24331 -0.5922,-2.05609 -0.5923,-2.0559 -0.5254,-2.2569 -0.5251,-2.2569 -0.4537,-2.7587 -0.4537,-2.7583 -0.2327,-2.6895 -0.233,-2.6896 -0.037,-0.9079 -0.037,-0.908 -10.9337,-0.04 -10.9338,-0.04 v 0.6658 0.666 l 0.1568,1.5672 0.1551,1.5672 0.3829,2.1942 0.3829,2.1944 0.452,1.8159 0.4521,1.8161 0.5978,1.8599 0.5977,1.8597 0.7671,1.9236 0.7671,1.92339 1.1033,2.1944 1.1033,2.1941 0.9532,1.5892 0.9529,1.5889 0.604,0.9079 0.6038,0.9082 0.2295,0.2659 0.2293,0.2662 0.3918,-0.2591 0.3915,-0.259 z m 91.315197,-0.3043 1.2066,-1.8539 0.6097,-1.0595 0.6101,-1.059 0.9906,-1.9763 0.9909,-1.9763 0.8217,-2.034 0.8219,-2.0342 0.6176,-1.9673 0.6176,-1.9672 0.3774,-1.5135 0.3776,-1.5133 0.39,-2.1185 0.3904,-2.1186 0.2238,-2.3323 0.2239,-2.3321 v -0.1269 -0.1269 h -10.9552 -10.9552 l -0.099,1.5511 -0.1009,1.5512 -0.217,2.27 -0.2169,2.2701 -0.3844,2.3456 -0.3846,2.3458 -0.4541,2.0426 -0.4541,2.0432 -0.4508,1.6844 -0.4508,1.6845 -0.3006,0.8742 -0.3007,0.8738 v 0.1865 0.1863 l 1.5512,0.6526 1.5513,0.6526 2.9508,1.4698 2.9511,1.4697 2.2699,1.3651 2.2699,1.3649 0.7567,0.5312 0.7567,0.5313 0.096,0.02 0.096,0.02 z m -71.087497,-8.7977 1.2865,-0.38049 1.7671,-0.4515 1.767,-0.4514 2.2432,-0.464 2.2432,-0.46381 2.1944,-0.30989 2.1944,-0.31001 2.27,-0.21949 2.2698,-0.21971 h 0.8324 0.8323 l 0.3403,-0.09 0.3406,-0.09 v -7.9274 -7.9271 h -12.8631 -12.8632 v 0.7945 0.7944 l 0.1514,1.8159 0.153,1.8161 0.3841,2.6483 0.3844,2.6482 0.4589,2.1188 0.4593,2.1185 0.5826,2.122 0.5827,2.1218 0.155,0.4103 0.155,0.41 0.1942,-0.063 0.1943,-0.063 1.2862,-0.3803 z m 48.921797,0.2474 0.076,-0.26499 0.6115,-2.1185 0.6115,-2.1188 0.5301,-2.4969 0.5304,-2.4969 0.3069,-2.1186 0.3068,-2.1187 0.1467,-1.6646 0.1468,-1.6647 0.081,-1.2486 0.081,-1.2484 h -12.8584 -12.858397 v 7.9288 7.9286 l 0.2392,0.092 0.2394,0.092 0.8579,8e-4 0.857797,4e-4 2.3455,0.2203 2.3456,0.2206 2.1188,0.3025 2.1186,0.3024 2.27,0.4629 2.2701,0.4626 2.2698,0.5987 2.27,0.599 0.9079,0.29269 0.908,0.29291 0.096,0.02 0.096,0.02 0.076,-0.2647 z m -60.014797,-28.18559 0.1806,-2.497103 0.1628,-1.2862 0.1628,-1.2862 0.3864,-2.3459 0.3865,-2.3456 0.5076,-2.1943 0.5079,-2.1944 0.6805,-2.3456 0.6807,-2.3456 0.089,-0.2316 0.09,-0.2314 -1.8573,-0.8172 -1.8574,-0.8174 -1.5887,-0.7538 -1.5892,-0.7539 -1.6644,-0.9019 -1.6647,-0.9023 -1.2864,-0.7666 -1.2864,-0.7665 -1.2404,-0.8037 -1.2405,-0.8038 h -0.133 -0.133 l -1.216,1.8538 -1.2161,1.8538 -0.6824,1.2106 -0.6824,1.2105 -0.8337,1.6649 -0.8339,1.6647 -0.6854,1.6644 -0.6858,1.6648 -0.605,1.7558 -0.6051,1.756 -0.5349,2.0273 -0.5346,2.0275 -0.3852,2.0429 -0.3854,2.043 -0.2283,1.9664 -0.2287,1.966403 v 0.7965 0.7964 l 10.9338,-0.04 10.9338,-0.037 z m 31.6377,-5.454003 0.04,-7.9509 -3.3686,-0.2678 -3.3684,-0.2676 -2.4212,-0.3618 -2.4215,-0.3615 -2.2486,-0.4689 -2.2487,-0.469 -2.2155,-0.5922 -2.2156,-0.592 -0.7567,-0.2315 -0.7566,-0.2312 h -0.026 -0.026 l -0.4589,1.3996 -0.4586,1.3998 -0.3786,1.4377 -0.3788,1.4376 -0.38,1.7404 -0.3802,1.7404 -0.3036,1.8159 -0.3036,1.8159 -0.2252,1.8917 -0.2252,1.8916 -0.1039,1.627693 -0.1024,1.6277 12.846,-0.04 12.8462,-0.037 z m 31.611797,5.945703 -0.099,-2.080603 -0.3833,-2.6483 -0.383,-2.6486 -0.3865,-1.8914 -0.3864,-1.8916 -0.4449,-1.7405 -0.4448,-1.7404 -0.4725,-1.5481 -0.4728,-1.5484 -0.3931,0.095 -0.393,0.095 -1.135,0.3496 -1.1351,0.3496 -2.1185,0.5254 -2.1186,0.5254 -2.0431,0.3921 -2.0427,0.3918 -2.0024,0.2937 -2.0024,0.2938 -3.3322,0.2666 -3.332097,0.2667 v 7.989 7.988803 h 12.810897 12.8107 z m 28.1256,0.9839 -0.095,-1.0974 -0.1513,-1.437603 -0.1513,-1.4377 -0.3839,-2.1186 -0.3837,-2.1186 -0.4464,-1.7404 -0.4465,-1.7402 -0.5368,-1.6647 -0.5371,-1.6647 -0.683,-1.7401 -0.683,-1.7404 -1.1778,-2.4214 -1.1779,-2.4213 -1.054,-1.7404 -1.054,-1.7402 -0.7209,-1.0306 -0.7206,-1.0307 -0.2209,0.084 -0.2208,0.084 -0.7826,0.5185 -0.7824,0.5187 -2.0431,1.228 -2.0429,1.2281 -2.9511,1.4776 -2.9508,1.4778 -1.5892,0.6581 -1.5889,0.6579 -0.1391,0.1238 -0.1391,0.1239 0.1824,0.5712 0.1823,0.5713 0.5903,2.0429 0.5902,2.0429 0.4694,2.0403 0.4695,2.0399 0.4511,2.6513 0.451,2.6512 0.2201,2.4212 0.2201,2.421403 0.092,1.1727 0.092,1.1729 h 10.9677 10.9679 z m -59.737897,-36.244303 0.04,-15.1708 h -0.1436 -0.1437 l -1.7112,1.5646 -1.7112,1.5645 -1.6545,1.7267 -1.6543,1.727 -1.5142,1.816 -1.5143,1.8161 -1.2336,1.6646 -1.2338,1.6647 -1.0583,1.589 -1.0583,1.5889 -1.0094,1.7049 -1.0087,1.705 -1.1987,2.381 -1.1984,2.3811 -0.3902,0.8891 -0.3901,0.8887 v 0.1728 0.1725 l 2.3077,0.6305 2.3077,0.6305 1.7404,0.3866 1.7404,0.3865 2.2699,0.3719 2.2701,0.3718 1.5132,0.1668 1.5132,0.1666 1.6647,0.1253 1.6647,0.1254 0.3784,-0.02 0.3782,-0.02 z m 10.024897,14.9377 2.0432,-0.155 2.4967,-0.3809 2.4971,-0.3813 2.4213,-0.532 2.4212,-0.5319 1.8918,-0.5345 1.8917,-0.5342 0.1177,-0.1101 0.1177,-0.1101 -0.3962,-0.8968 -0.3963,-0.8969 -1.2151,-2.4213 -1.2151,-2.4212 -1.3621,-2.2701 -1.362,-2.2701 -0.9907,-1.4375 -0.9908,-1.4377 -1.2127,-1.5889 -1.2125,-1.5891 -1.1422,-1.3535 -1.1424,-1.3534 -1.5603,-1.6733 -1.5603,-1.6731 -1.9225,-1.778 -1.922297,-1.7782 h -0.1131 -0.1131 v 15.2132 15.213 l 0.9456,-0.083 0.9458,-0.081 z m -35.122597,-6.463 0.516,-1.1727 1.4118,-2.7997 1.4116,-2.7998 1.0439,-1.7566 1.0435,-1.7567 1.2532,-1.8752 1.2531,-1.8754 1.5494,-2.0428 1.5495,-2.0432 1.1871,-1.3818 1.1875,-1.3819 1.2731,-1.3889 1.2732,-1.3888 -0.4409,0.099 -0.4407,0.099 -1.2108,0.2943 -1.2107,0.2942 -1.8915,0.6121 -1.8917,0.6121 -1.8916,0.7509 -1.8918,0.7507 -2.1185,1.0465 -2.1187,1.0467 -1.5891,0.9565 -1.5889,0.9567 -1.1316,0.74 -1.132,0.7399 -1.5921,1.2056 -1.5923,1.2058 -1.0592,0.9163 -1.0594,0.9168 -2.1565,2.1182 -2.1564,2.1185 v 0.1588 0.159 l 0.9441,0.5932 0.9442,0.5935 2.1943,1.2672 2.1944,1.2673 2.1308,1.0513 2.1309,1.0514 1.4254,0.6018 1.4253,0.6022 h 0.1513 0.1514 l 0.5162,-1.1725 z m 57.985497,0.7796 0.9719,-0.3935 2.7241,-1.3176 2.7239,-1.3175 2.013,-1.1704 2.0128,-1.1702 1.0621,-0.6808 1.062,-0.6807 -0.9564,-1.0796 -0.9562,-1.0792 -1.7405,-1.5911 -1.7401,-1.5909 -1.7402,-1.3851 -1.7404,-1.385 -1.2278,-0.8436 -1.2279,-0.8438 -1.8744,-1.129 -1.8746,-1.1289 -1.9671,-0.9851 -1.9676,-0.9852 -1.6645,-0.6844 -1.6648,-0.6842 -1.8252,-0.6199 -1.8255,-0.6197 -2.026,-0.5249 -2.0258,-0.525 -0.067,0.067 -0.067,0.067 1.2592,1.3287 1.259,1.3286 1.5152,1.8161 1.5149,1.8159 1.3494,1.8159 1.3492,1.816 1.2575,1.9045 1.2573,1.9044 1.1681,2.0303 1.1675,2.0301 1.158,2.3456 1.158,2.3456 0.4853,1.0974 0.4855,1.097 h 0.1254 0.1253 z"
         id="path3135-3"
         inkscape:connector-curvature="0" /><path
         id="path3135"
         style="fill:#df601c;fill-opacity:1;stroke-width:0.151332"
         d="m 92.860187,43.042228 -3.10265,0.25373 -3.10214,0.25269 -2.15335,0.36484 -0.20981,0.03566 a 57.846355,66.032898 0 0 1 13.48962,8.39845 v -1.85518 h 0.11317 0.11265 l 1.92237,1.77818 1.922883,1.77819 1.56011,1.67328 1.56011,1.67328 1.14256,1.35341 1.14205,1.35341 1.21285,1.58905 1.21233,1.58905 0.99115,1.43764 0.99064,1.43763 1.36167,2.26963 1.36219,2.27015 1.21543,2.42156 1.21492,2.42104 0.39636,0.8971 0.39635,0.89659 -0.11782,0.11007 -0.11782,0.11007 -1.27383,0.35967 a 57.846355,66.032898 0 0 1 2.04019,5.74176 l 0.89865,-0.27647 0.39274,-0.09508 0.39326,-0.09508 0.47284,1.54822 0.47232,1.54823 0.44494,1.74046 0.44493,1.740459 0.38654,1.89136 0.38654,1.89187 0.38292,2.64842 0.38344,2.64842 0.0987,2.080483 0.10025,2.08463 h -2.01952 a 57.846355,66.032898 0 0 1 0.0537,2.58124 57.846355,66.032898 0 0 1 -0.21705,3.46852 h 2.27687 l -0.0811,1.24798 -0.0811,1.24851 -0.14676,1.66501 -0.14676,1.6645 -0.30696,2.11873 -0.30644,2.11874 -0.53071,2.497 -0.52969,2.49649 -0.61185,2.11873 -0.61133,2.11874 -0.076,0.2651 -0.002,0.0124 -0.076,0.26458 -0.0961,-0.0196 -0.0961,-0.0202 -0.90796,-0.293 -0.90795,-0.29249 -0.20258,-0.0538 a 57.846355,66.032898 0 0 1 -2.03191,5.7702 l 2.00866,0.56172 v 0.17466 0.17415 l -0.48731,1.11725 -0.48731,1.11621 -0.92966,1.89187 -0.93017,1.89136 -1.17254,2.04329 -1.17306,2.04277 -1.25108,1.89187 -1.25212,1.89136 -1.23197,1.64279 -1.23196,1.64228 -1.46503,1.76217 -1.46399,1.7632 -2.95796,2.95434 -2.957963,2.9533 -0.49196,0.34727 -0.49144,0.34727 v -3.54656 a 57.846355,66.032898 0 0 1 -15.06265,9.09402 l 0.16795,0.032 2.28151,0.43667 2.10737,0.23306 2.10633,0.23306 0.60565,0.0527 0.60513,0.0496 3.78323,0.0258 3.78323,0.0264 2.497013,-0.22996 2.497,-0.22944 0.90796,-0.14521 0.90795,-0.14521 1.58905,-0.29353 1.58905,-0.29249 1.89188,-0.47542 1.89135,-0.47542 1.58905,-0.50488 1.58905,-0.50488 1.43764,-0.52658 1.43764,-0.52658 1.6645,-0.71004 1.6645,-0.70952 2.27117,-1.1746 2.27015,-1.17409 1.99574,-1.23972 1.99523,-1.23972 1.78697,-1.30328 1.78749,-1.30379 1.52342,-1.2516 1.52342,-1.25161 1.99988,-1.92753 2.0004,-1.92701 1.71204,-1.98386 1.71204,-1.98438 1.13326,-1.51308 1.13326,-1.5136 1.05885,-1.58854 1.05937,-1.58905 0.79013,-1.34359 0.79065,-1.34358 1.04077,-2.0774 1.04076,-2.07791 0.70848,-1.64847 0.70849,-1.64848 0.73535,-2.07843 0.73536,-2.07842 0.61185,-2.23294 0.61236,-2.23242 0.44804,-2.34766 0.44855,-2.34715 0.22996,-1.88722 0.22944,-1.88722 v -5.83169 -5.83169 l -0.22272,-1.890833 -0.22273,-1.89084 -0.39171,-2.11873 -0.39222,-2.11822 -0.58549,-2.1947 -0.58601,-2.194179 -0.63201,-1.89187 -0.632,-1.89136 -0.67954,-1.6645 -0.68007,-1.66501 -1.0945,-2.26963 -1.09399,-2.27015 -1.36581,-2.27014 -1.36478,-2.27015 -1.0113,-1.45314 -1.01131,-1.45366 -1.55546,-1.9513 -1.55546,-1.9513 -1.61954,-1.74046 -1.61902,-1.74046 -1.62471,-1.48725 -1.62471,-1.48725 -1.73994,-1.39836 -1.74047,-1.39837 -1.51308,-1.0697 -1.51361,-1.0697 -1.62884,-1.00356 -1.62935,-1.00304 -2.32699,-1.21284 -2.32648,-1.21285 -1.41645,-0.6103 -1.41645,-0.61081 -1.51308,-0.5793 -1.51361,-0.57981 -1.96732,-0.61443 -1.96732,-0.61392 -1.81591,-0.44958 -1.81591,-0.44907 -2.11822,-0.38964 -2.11925,-0.38964 -2.11822,-0.23048 -2.118733,-0.23047 -3.32951,-0.08992 z m 14.240483,7.46104 2.02571,0.52451 2.02624,0.52504 1.82521,0.6196 1.82521,0.62011 1.66501,0.6842 1.6645,0.6842 1.96732,0.98547 1.96733,0.98495 1.87482,1.12913 1.8743,1.12861 1.22783,0.84388 1.22783,0.84387 1.74047,1.38493 1.73994,1.38493 1.74046,1.59112 1.74047,1.59112 0.95601,1.079 0.95653,1.07952 -1.06195,0.68058 -1.06247,0.68109 -2.01279,1.16996 -2.0128,1.17047 -2.72387,1.31775 -2.72438,1.31775 -0.97151,0.39326 -0.97462,0.3948 h -0.12506 -0.12557 l -0.48576,-1.09709 -0.48524,-1.09709 -1.15807,-2.34559 -1.15755,-2.34559 -1.16789,-2.03037 -1.16789,-2.03037 -1.25729,-1.90427 -1.25728,-1.90428 -1.34927,-1.81643 -1.34979,-1.81591 -1.51464,-1.81591 -1.51515,-1.81591 -1.25936,-1.3286 -1.25883,-1.3286 0.0667,-0.06718 z m 33.92196,22.52007 0.72088,1.03043 0.72089,1.03094 1.05368,1.73995 1.0542,1.74046 1.17771,2.42156 1.17822,2.42104 0.68265,1.74046 0.68316,1.73995 0.53692,1.665009 0.53691,1.6645 0.44649,1.74046 0.44648,1.74047 0.38344,2.11821 0.38396,2.11874 0.15141,1.43763 0.15141,1.437633 0.0951,1.09761 0.092,1.09451 h -10.9678 -10.96781 l -0.092,-1.17306 -0.092,-1.17254 -0.22014,-2.421543 -0.22014,-2.42104 -0.45114,-2.65101 -0.45113,-2.65151 -0.46922,-2.039669 -0.46974,-2.0407 -0.59015,-2.04277 -0.59014,-2.04277 -0.18242,-0.57154 -0.18242,-0.57103 0.13901,-0.12402 0.13901,-0.12351 1.58905,-0.65784 1.58905,-0.65836 2.95124,-1.47794 2.95073,-1.47743 2.04328,-1.22835 2.04277,-1.22783 0.78238,-0.51884 0.7829,-0.51831 0.22066,-0.08372 z m -11.43186,36.035522 h 10.9554 10.95489 v 0.12661 0.12712 l -0.22376,2.33216 -0.22376,2.33215 -0.39067,2.11874 -0.38964,2.11821 -0.37776,1.51361 -0.37724,1.5136 -0.61805,1.96681 -0.61701,1.96732 -0.82218,2.0345 -0.82165,2.03398 -0.99115,1.97611 -0.99013,1.97611 -0.61029,1.05936 -0.60979,1.05937 -1.20664,1.85363 -1.20458,1.87689 -0.0961,-0.0202 -0.0961,-0.0196 -0.75655,-0.53123 -0.75706,-0.53124 -2.26963,-1.36477 -2.27014,-1.36529 -2.95073,-1.46968 -2.95124,-1.46968 -1.55132,-0.65267 -1.55081,-0.65268 v -0.18655 -0.18603 l 0.30075,-0.87385 0.30024,-0.87437 0.45114,-1.68465 0.45062,-1.68413 0.45423,-2.04329 0.45372,-2.04277 0.38499,-2.34559 0.38447,-2.34559 0.21653,-2.27015 0.21704,-2.27015 0.10129,-1.55132 z m -6.05028,27.6934 h 0.11937 0.11731 l 1.33945,0.55965 1.33945,0.55966 2.79932,1.39681 2.79983,1.39682 1.97765,1.19786 1.97818,1.19734 0.58291,0.39584 0.58291,0.39636 -1.42576,1.46348 -1.42626,1.46347 -1.6645,1.51102 -1.6645,1.5105 -1.98799,1.49655 -1.98851,1.49655 -2.0221,1.2883 -2.0221,1.28777 -2.34559,1.19631 -2.3456,1.1958 -2.0624,0.8325 -2.06189,0.83251 -1.87276,0.61133 -1.87223,0.61185 -1.20148,0.30851 -1.19993,0.30902 h -0.14676 -0.14676 l 0.28836,-0.33899 0.28835,-0.339 0.96583,-1.06092 0.96635,-1.06091 1.7601,-2.19419 1.7601,-2.19418 1.22938,-1.74046 1.22887,-1.74046 0.95446,-1.51309 0.95498,-1.51308 0.96739,-1.66502 0.96841,-1.6645 1.40198,-2.87527 1.4025,-2.87528 0.34158,-0.87023 z" /></g></g></svg>
