<?xml version="1.0" encoding="UTF-8" standalone="no"?>
<!-- Created with Inkscape (http://www.inkscape.org/) -->

<svg
   width="200mm"
   height="200mm"
   viewBox="0 0 200 200"
   version="1.1"
   id="svg1"
   inkscape:version="1.3.1 (91b66b0783, 2023-11-16)"
   sodipodi:docname="measure.svg"
   xmlns:inkscape="http://www.inkscape.org/namespaces/inkscape"
   xmlns:sodipodi="http://sodipodi.sourceforge.net/DTD/sodipodi-0.dtd"
   xmlns="http://www.w3.org/2000/svg"
   xmlns:svg="http://www.w3.org/2000/svg">
  <sodipodi:namedview
     id="namedview1"
     pagecolor="#ffffff"
     bordercolor="#000000"
     borderopacity="0.25"
     inkscape:showpageshadow="2"
     inkscape:pageopacity="0.0"
     inkscape:pagecheckerboard="0"
     inkscape:deskcolor="#d1d1d1"
     inkscape:document-units="mm"
     inkscape:zoom="0.49134398"
     inkscape:cx="596.32358"
     inkscape:cy="394.83541"
     inkscape:window-width="1829"
     inkscape:window-height="960"
     inkscape:window-x="0"
     inkscape:window-y="0"
     inkscape:window-maximized="0"
     inkscape:current-layer="layer1" />
  <defs
     id="defs1" />
  <g
     inkscape:label="Слой 1"
     inkscape:groupmode="layer"
     id="layer1">
    <g
       transform="matrix(3.3727196,0,0,3.3737671,11537.105,4841.5282)"
       id="g3820-4-8-4-7-3-2"
       style="stroke-width:0.523746" />
    <g
       id="g7"
       transform="matrix(1.670612,0,0,1.670612,-435.39588,20.698506)">
      <path
         id="path273"
         style="fill:#df601c;fill-opacity:1;stroke-width:0.999999"
         d="m 347.78239,58.978829 -2.47634,7.184574 14.6234,4.638477 2.31924,-7.192326 z" />
      <path
         id="path7"
         style="fill:#df601c;fill-opacity:1;stroke-width:0.999999"
         d="m 359.5517,37.329504 -14.09837,4.61729 2.31356,7.339603 14.49162,-4.964038 z" />
      <path
         id="path6"
         style="fill:#df601c;fill-opacity:1;stroke-width:0.999999"
         d="m 281.13995,37.259741 -2.36368,7.219715 14.42134,4.723742 2.32337,-7.25072 z" />
      <path
         id="path6-3"
         style="fill:#df601c;fill-opacity:1;stroke-width:0.999999"
         d="m 279.53285,64.16688 2.24974,7.256023 14.49521,-4.491974 -2.30057,-7.257989 z" />
      <path
         id="path5"
         style="fill:#df601c;fill-opacity:1;stroke-width:0.999999"
         d="m 320.49672,31.36191 -5.795,31.920015 c -0.2364,1.300099 -2.94361,2.365898 -3.83491,3.683497 -1.492,2.216597 -2.09229,4.249463 -1.89859,7.11326 0.0969,2.042198 0.21282,2.520512 0.96842,4.10931 1.7575,3.696997 5.07855,6.212407 8.89765,6.735507 3.70413,0.507149 7.2625,-0.701736 9.83144,-3.340365 2.35609,-2.420098 3.38325,-4.88527 3.38325,-8.115267 0,-2.458798 -0.61637,-4.535799 -1.95337,-6.510197 -0.8719,-1.294299 -3.53208,-2.166119 -3.80338,-3.619417 z" />
      <path
         id="path4"
         style="fill:#df601c;fill-opacity:1;stroke-width:0.999999"
         d="m 342.76978,17.377751 -9.29866,12.307776 6.17533,4.443139 9.13795,-12.410612 z" />
      <path
         id="path3"
         style="fill:#df601c;fill-opacity:1;stroke-width:0.999999"
         d="m 298.20454,17.377751 -6.01049,4.338753 9.13588,12.476241 6.01462,-4.280359 z" />
      <path
         id="path2"
         style="fill:#df601c;fill-opacity:1;stroke-width:0.999999"
         d="m 316.7109,11.299569 v 15.57631 h 7.55251 v -15.57631 z" />
      <path
         id="path1"
         style="fill:#547586;fill-opacity:1;stroke-width:0.999999"
         d="M 321.1003,-0.34881592 C 306.53494,-0.49916659 292.76092,5.0295961 282.40137,15.262118 c -8.18259,8.081791 -13.52435,18.250462 -15.52205,29.550651 -0.9494,5.421394 -0.85284,14.330411 0.25166,19.614306 0.6045,2.917997 1.95324,7.593589 2.74764,9.453687 0.3488,0.821599 0.54242,2.216932 0.83302,2.023132 l 6.95617,-3.185852 c -0.0776,-0.2229 -0.62018,-1.786341 -1.20148,-3.472139 -1.7748,-5.130795 -2.47784,-9.387529 -2.49184,-15.111223 0,-2.079098 0.0585,-4.677677 0.25218,-5.782076 2.2361,-18.025682 14.63682,-33.076844 31.8487,-38.6591388 5.0668,-1.6391984 8.77738,-2.2205363 14.39447,-2.2205363 2.143,0 4.7954,0.077501 5.8999,0.2713012 18.15348,2.5459979 32.62396,14.5127289 38.35735,31.7226119 1.4939,4.508795 1.97816,7.643957 2.17196,13.065352 0.1821,6.616993 -0.46513,11.055863 -2.42982,16.705957 -0.5813,1.677998 -1.37554,3.422013 -1.18184,3.422013 L 369.93349,76.2 c 0.3856,0.2053 2.47021,-5.690577 3.40031,-9.558073 1.1044,-4.712295 1.29811,-6.115192 1.29811,-12.625586 0,-5.425394 -0.0773,-6.628336 -0.52296,-9.085233 -2.1255,-11.608289 -7.37258,-21.618266 -15.54737,-29.671058 -2.8212,-2.778497 -4.80568,-4.384862 -8.22948,-6.6693599 -7.74459,-5.1617946 -16.94249,-8.25226991 -26.30898,-8.83356933 -0.97728,-0.0607937 -1.9518,-0.0959133 -2.92282,-0.10593669 z"
         sodipodi:nodetypes="sccccccccccscccccccsccccs" />
    </g>
  </g>
</svg>
