<?xml version="1.0" encoding="UTF-8" standalone="no"?>
<!-- Created with Inkscape (http://www.inkscape.org/) -->

<svg
   width="200mm"
   height="200mm"
   viewBox="0 0 200 200"
   version="1.1"
   id="svg1"
   inkscape:version="1.3.1 (91b66b0783, 2023-11-16)"
   sodipodi:docname="mobile.svg"
   xml:space="preserve"
   xmlns:inkscape="http://www.inkscape.org/namespaces/inkscape"
   xmlns:sodipodi="http://sodipodi.sourceforge.net/DTD/sodipodi-0.dtd"
   xmlns="http://www.w3.org/2000/svg"
   xmlns:svg="http://www.w3.org/2000/svg"><sodipodi:namedview
     id="namedview1"
     pagecolor="#ffffff"
     bordercolor="#000000"
     borderopacity="0.25"
     inkscape:showpageshadow="2"
     inkscape:pageopacity="0.0"
     inkscape:pagecheckerboard="0"
     inkscape:deskcolor="#d1d1d1"
     inkscape:document-units="mm"
     inkscape:zoom="0.24567199"
     inkscape:cx="732.68426"
     inkscape:cy="643.13396"
     inkscape:window-width="1920"
     inkscape:window-height="976"
     inkscape:window-x="-8"
     inkscape:window-y="-8"
     inkscape:window-maximized="1"
     inkscape:current-layer="layer1"
     showguides="true" /><defs
     id="defs1" /><g
     inkscape:label="Слой 1"
     inkscape:groupmode="layer"
     id="layer1"><g
       id="g3"
       transform="matrix(0.88217423,0,0,0.88217423,-46.20162,-200.22049)"><path
         id="path1-4"
         style="fill:#df601c;fill-opacity:1"
         d="m 267.33924,277.77581 c -0.16244,-0.0501 -0.28506,0.20745 -0.53744,0.54312 -0.31569,0.41986 -17.00426,16.64911 -37.08611,36.06498 -20.08186,19.41588 -45.50172,43.9933 -56.48854,54.61682 -34.6898,33.54277 -43.95578,42.49932 -47.55833,45.96981 -3.85409,3.7128 -5.24269,4.64805 -8.39432,5.65391 -2.58783,0.82592 -6.65642,0.94124 -9.01599,0.25529 -0.8074,-0.23472 -10.898131,-5.0184 -22.423439,-10.63036 -11.525309,-5.61198 -21.568999,-10.48215 -22.319568,-10.8226 l -1.364775,-0.61908 0.532268,1.90428 c 0.813349,2.90942 1.962195,4.85527 4.091223,6.93084 1.585748,1.54594 2.810532,2.36073 7.410917,4.92786 3.031277,1.69153 12.715099,7.12101 21.5191,12.06542 18.105154,10.16802 17.581234,9.88313 18.653124,10.14408 2.27543,0.55395 5.60637,0.013 7.57525,-1.2299 0.60122,-0.37953 4.08374,-3.57121 7.73906,-7.09259 3.65532,-3.52138 19.9216,-19.13418 36.14715,-34.69504 85.68117,-82.17118 101.72718,-97.67757 102.61492,-99.16191 1.04663,-1.74998 1.8541,-4.20707 2.0743,-6.31382 0.1492,-1.42755 0.0723,-1.71494 -1.2392,-4.64106 -1.27715,-2.8494 -1.65887,-3.78659 -1.9296,-3.87005 z" /><path
         id="path3"
         style="fill:#547586;fill-opacity:1"
         d="m 208.54903,257.63854 c -1.45521,8.9e-4 -3.30068,0.15827 -4.10104,0.34985 -1.99845,0.47837 -5.96584,2.43313 -7.41661,3.65404 -0.65945,0.55497 -7.32695,6.60589 -14.81666,13.44672 -33.44094,30.54377 -57.94669,52.89986 -87.833401,80.12844 -17.680762,16.10825 -32.527185,29.82329 -32.991784,30.47825 -1.622379,2.28715 -1.356853,4.99658 0.663525,6.77168 0.536259,0.47116 3.892169,2.2773 7.457426,4.01319 36.847054,17.9405 38.897464,18.91536 40.348954,19.18849 1.97171,0.37105 3.51419,0.34485 5.3604,-0.0904 3.01945,-0.71191 4.66275,-1.77214 8.39432,-5.41518 1.89355,-1.84862 32.37543,-31.31656 67.73695,-65.48437 72.52759,-70.07923 72.74054,-70.28664 73.44048,-71.63232 1.06809,-2.05347 0.29484,-3.98842 -1.99419,-4.98988 -0.58689,-0.25676 -12.4376,-2.70642 -26.33483,-5.44359 -22.59257,-4.44981 -25.54782,-4.97589 -27.91354,-4.97489 z m 5.24877,13.46222 c 0.77012,-0.0549 2.41354,0.28482 7.62331,1.43454 6.53431,1.44203 7.57754,1.74067 8.09615,2.31666 0.73621,0.81772 0.74428,1.16462 0.047,2.05103 -0.40014,0.5087 -0.77561,0.68961 -1.38906,0.66921 -1.41173,-0.047 -14.91047,-3.25396 -15.37839,-3.65352 -0.69523,-0.59366 -0.44498,-2.16241 0.4222,-2.64687 0.16237,-0.0907 0.32207,-0.15273 0.57877,-0.17105 z m -24.56336,5.03536 c 17.48067,3.92129 34.96643,7.81997 52.43298,11.80341 0.29791,0.1071 -9.417,9.53413 -78.23554,75.91475 -17.12319,16.51659 -31.41966,30.28234 -31.76963,30.59038 l -0.63614,0.56017 -8.33954,-4.13205 c -4.58663,-2.27256 -14.91617,-7.34366 -22.954673,-11.26908 -8.038512,-3.92541 -14.585032,-7.21388 -14.547432,-7.30808 34.266555,-32.49437 69.626585,-63.83244 104.049975,-96.1595 z M 96.657666,386.36763 c 1.338492,0.11812 2.455287,0.72189 3.076815,1.84898 0.683209,1.23894 0.535439,3.62559 -0.334347,5.40329 -0.857009,1.75157 -3.528456,4.37994 -5.365564,5.27875 -1.938968,0.94865 -4.205512,1.15323 -5.455481,0.49248 -1.483958,-0.78445 -2.004876,-1.72687 -1.993676,-3.60857 0.0126,-2.12543 0.950516,-4.18411 2.794144,-6.13348 2.199929,-2.3261 5.047288,-3.47831 7.278109,-3.28145 z" /></g></g></svg>
