<?xml version="1.0" encoding="UTF-8" standalone="no"?>
<!-- Created with Inkscape (http://www.inkscape.org/) -->

<svg
   width="200mm"
   height="200mm"
   viewBox="0 0 200 200"
   version="1.1"
   id="svg1"
   inkscape:version="1.3.1 (91b66b0783, 2023-11-16)"
   sodipodi:docname="PC1.svg"
   xml:space="preserve"
   xmlns:inkscape="http://www.inkscape.org/namespaces/inkscape"
   xmlns:sodipodi="http://sodipodi.sourceforge.net/DTD/sodipodi-0.dtd"
   xmlns="http://www.w3.org/2000/svg"
   xmlns:svg="http://www.w3.org/2000/svg"><sodipodi:namedview
     id="namedview1"
     pagecolor="#ffffff"
     bordercolor="#000000"
     borderopacity="0.25"
     inkscape:showpageshadow="2"
     inkscape:pageopacity="0.0"
     inkscape:pagecheckerboard="0"
     inkscape:deskcolor="#d1d1d1"
     inkscape:document-units="mm"
     inkscape:zoom="0.69486532"
     inkscape:cx="415.90793"
     inkscape:cy="348.26893"
     inkscape:window-width="1920"
     inkscape:window-height="976"
     inkscape:window-x="-8"
     inkscape:window-y="-8"
     inkscape:window-maximized="1"
     inkscape:current-layer="layer1"
     showguides="true" /><defs
     id="defs1" /><g
     inkscape:label="Слой 1"
     inkscape:groupmode="layer"
     id="layer1"><g
       id="g178"
       transform="matrix(0.82326497,0,0,0.82326497,2589.2224,-1152.9647)"><path
         style="fill:#547586;fill-opacity:1"
         d="m -3023.2836,1628.909 c -1.8176,-0.5132 -2.4164,-0.9229 -12.7688,-8.7376 -5.2615,-3.9717 -15.1623,-11.4376 -22.0017,-16.5909 -6.8395,-5.1533 -15.4715,-11.666 -19.1823,-14.4728 -3.7108,-2.8067 -11.1522,-8.4197 -16.5365,-12.4732 -18.7937,-14.1489 -37.0729,-27.9506 -38.1722,-28.8218 -0.775,-0.6143 -1.194,-1.1984 -1.395,-1.945 -0.1581,-0.5868 -0.2488,-1.1056 -0.2017,-1.1527 0.047,-0.047 6.8907,4.9953 15.208,11.2054 8.3172,6.21 22.4658,16.7679 31.4413,23.4618 8.9754,6.694 20.386,15.2106 25.3568,18.9258 27.3906,20.472 35.3603,26.3621 36.5545,27.0162 2.5031,1.371 6.4294,1.4777 8.8293,0.2399 0.5282,-0.2724 6.0875,-4.9407 12.3541,-10.374 13.3822,-11.6027 39.2919,-34.0787 50.3768,-43.7006 4.2875,-3.7217 7.8236,-6.7388 7.8578,-6.7045 0.034,0.034 -0.069,0.5797 -0.2296,1.2121 -0.2726,1.0738 -0.9247,1.7038 -9.8518,9.5165 -5.2579,4.6016 -20.8401,18.2487 -34.627,30.327 -18.1787,15.9257 -25.4468,22.137 -26.4488,22.6033 -1.6549,0.7699 -4.7155,0.9869 -6.5632,0.4651 z m 0.3477,-4.2963 c -0.7669,-0.2065 -1.7467,-0.5576 -2.1774,-0.7803 -0.4306,-0.2227 -8.0185,-5.8416 -16.8619,-12.4863 -8.8434,-6.6448 -26.3183,-19.7773 -38.8331,-29.1835 -12.5148,-9.4061 -29.0049,-21.7864 -36.6448,-27.5119 -15.7458,-11.8001 -16.6687,-12.5356 -16.6687,-13.282 0,-0.7982 0.7266,-1.876 1.6912,-2.5083 0.4712,-0.3089 2.9326,-1.4587 5.4697,-2.5552 2.5372,-1.0965 7.53,-3.266 11.0953,-4.8211 3.5653,-1.555 9.1612,-3.9914 12.4354,-5.4141 3.2742,-1.4227 8.3344,-3.6242 11.2448,-4.8922 2.9104,-1.2679 7.4348,-3.2325 10.0542,-4.3657 2.6194,-1.1331 8.0962,-3.5179 12.1708,-5.2996 9.693,-4.2382 9.7376,-4.2547 11.9724,-4.4245 1.6269,-0.1236 1.9182,-0.219 1.9182,-0.6283 0,-0.2654 1.1152,-5.0405 2.4781,-10.6113 1.363,-5.5708 3.5191,-14.4149 4.7914,-19.6537 1.2723,-5.2387 3.5619,-14.6447 5.088,-20.902 4.9052,-20.1134 7.1323,-29.2599 8.3024,-34.0983 1.7042,-7.0469 2.6682,-8.2224 6.2456,-7.6152 0.991,0.1682 6.9811,1.1899 13.3112,2.2705 22.1722,3.7847 44.7025,7.6249 58.3406,9.944 7.5671,1.2867 20.8194,3.5404 29.4495,5.0081 16.423,2.7931 17.3147,3.0098 18.7582,4.5584 0.8215,0.8813 1.4017,2.3993 1.4017,3.6674 0,0.5951 -1.1993,5.4507 -2.665,10.7902 -1.4658,5.3395 -3.6612,13.3396 -4.8787,17.778 -1.2175,4.4384 -3.6566,13.3085 -5.4202,19.7114 -1.7636,6.403 -4.2056,15.2731 -5.4267,19.7115 -1.221,4.4384 -3.6621,13.3085 -5.4246,19.7115 -1.7625,6.4029 -4.1048,14.9158 -5.2051,18.9177 -1.1002,4.0018 -2.3842,8.6693 -2.8532,10.3722 -1.1368,4.1276 -2.089,5.3539 -4.5725,5.8887 -0.4728,0.1018 -1.0086,0.3882 -1.1906,0.6365 -0.3008,0.41 -16.7315,14.8093 -65.4692,57.375 -4.3087,3.7631 -4.9568,4.207 -6.8694,4.7052 -1.8596,0.4844 -3.2237,0.4809 -5.0576,-0.013 z m 35.3866,-39.0956 c 0.4583,-0.4094 0.7896,-0.8754 0.7363,-1.0356 -0.1274,-0.3819 -6.294,-3.9064 -6.8372,-3.9077 -0.2304,-5e-4 -0.883,0.4002 -1.4501,0.8905 -1.2668,1.095 -1.202,1.2013 1.8083,2.9648 4.2565,2.4936 4.1842,2.4799 5.7427,1.088 z m -74.2578,0.573 c 0.4878,-0.2562 11.2226,-7.2497 24.555,-15.9969 1.8367,-1.205 3.4172,-2.3936 3.5122,-2.6413 0.095,-0.2476 0.017,-0.685 -0.1735,-0.9718 -0.1905,-0.2869 -4.1522,-2.8381 -8.8039,-5.6694 -22.2909,-13.5673 -26.8925,-16.2777 -27.8523,-16.4052 -0.7798,-0.1036 -1.3808,0.081 -2.9627,0.908 -1.0914,0.5708 -7.4431,3.8859 -14.1149,7.3669 -6.6718,3.4809 -12.2446,6.5418 -12.3839,6.8019 -0.1394,0.2602 -0.1855,0.6769 -0.1026,0.9261 0.083,0.2491 3.0229,2.5366 6.5333,5.0832 9.734,7.0615 11.6728,8.4701 19.6713,14.2909 4.0746,2.9652 7.8119,5.6658 8.3051,6.0012 0.9936,0.6758 2.8328,0.8234 3.8169,0.3064 z m 66.6953,-6.2345 c 1.1071,-0.8311 2.0129,-1.7056 2.0129,-1.9434 0,-0.5773 -0.524,-0.9928 -3.0966,-2.4554 -2.8788,-1.6367 -3.3576,-1.6179 -5.8096,0.2276 -1.0679,0.8038 -1.9417,1.6188 -1.9417,1.811 0,0.5033 0.637,1.0082 3.175,2.5166 1.2369,0.7351 2.5635,1.3406 2.948,1.3456 0.4486,0.01 1.4205,-0.5325 2.712,-1.502 z m 13.7868,0.3182 c 0.4366,-0.3313 1.27,-1.0224 1.8521,-1.5359 0.8903,-0.7854 1.0122,-1.0105 0.7679,-1.4176 -0.1597,-0.2661 -2.1242,-1.5015 -4.3656,-2.7452 -10.2131,-5.6673 -12.531,-6.9043 -13.1798,-7.0341 -0.5164,-0.1033 -1.104,0.1344 -2.2899,0.9263 -2.0679,1.3809 -2.6849,2.0581 -2.3527,2.5824 0.2328,0.3675 2.9001,1.945 12.9432,7.6552 2.0316,1.1551 3.9366,2.1764 4.2333,2.2695 0.729,0.2286 1.4422,0.02 2.3915,-0.7006 z m -22.8821,-4.3297 c 0.7978,-0.666 0.8655,-0.814 0.5476,-1.197 -0.492,-0.5927 -5.3681,-3.3347 -5.9303,-3.3347 -0.7015,0 -2.2876,1.1396 -2.2913,1.6462 0,0.5791 5.1083,3.6455 6.078,3.6455 0.3771,0 1.0953,-0.342 1.596,-0.76 z m 33.4655,-3.2439 c 2.4738,-2.0524 4.5389,-3.8407 4.589,-3.9738 0.05,-0.1332 -0.05,-0.4122 -0.2224,-0.62 -0.5647,-0.6804 -8.4164,-4.6315 -9.2039,-4.6315 -0.6962,0 -3.5766,1.9219 -4.0679,2.7143 -0.284,0.4578 0.029,0.9206 0.8544,1.2624 0.4261,0.1765 0.7718,0.3957 0.7682,0.4872 0,0.091 -1.1346,1.0489 -2.5135,2.1275 -1.5249,1.1929 -2.5071,2.1492 -2.5071,2.4413 0,0.5442 0.2627,0.7326 3.5719,2.5624 3.6118,1.9971 3.3979,2.0551 8.7313,-2.3698 z m -41.2708,-2.4001 c 1.121,-0.7573 2.0991,-1.5357 2.1736,-1.7297 0.074,-0.194 -0.053,-0.5611 -0.2838,-0.8158 -0.6986,-0.7719 -4.5511,-2.6933 -5.365,-2.6757 -0.4501,0.01 -1.5211,0.5278 -2.6144,1.2645 -2.6051,1.7553 -2.5532,2.0659 0.6514,3.9004 1.377,0.7883 2.7053,1.4332 2.9518,1.4332 0.2465,0 1.3654,-0.6196 2.4864,-1.3769 z m 26.4763,0.2431 c 1.606,-0.936 3.2723,-2.4716 3.2145,-2.9622 -0.077,-0.6543 -4.7293,-3.277 -5.8502,-3.298 -0.8432,-0.016 -4.398,2.426 -4.398,3.0211 0,0.4677 0.3425,0.718 3.0573,2.2348 2.4786,1.3847 3.0682,1.5336 3.9764,1.0043 z m -15.5902,-2.4782 c 1.8763,-1.3388 2.17,-1.7475 1.6803,-2.3376 -0.571,-0.688 -4.6917,-2.7816 -5.4749,-2.7816 -0.9329,0 -4.4499,2.4495 -4.4499,3.0993 0,0.6344 4.5072,3.2214 5.6411,3.2379 0.6348,0.01 1.3573,-0.3288 2.6034,-1.218 z m -18.8115,-2.2194 c 1.8422,-1.2003 2.6221,-1.9545 2.3972,-2.3184 -0.3322,-0.5375 -6.8194,-4.021 -7.4882,-4.021 -0.7104,0 -4.4652,2.2461 -4.6845,2.8021 -0.1933,0.4903 0.1338,0.75 3.4092,2.7073 2.003,1.197 3.4611,1.8977 3.9503,1.8982 0.4597,4e-4 1.4432,-0.4344 2.416,-1.0682 z m 57.7723,-0.2561 c 1.0908,-0.9078 1.5425,-1.4543 1.4345,-1.7357 -0.2097,-0.5466 -9.9451,-5.4059 -10.8305,-5.4059 -0.8835,0 -4.1207,2.3382 -4.0169,2.9014 0.041,0.2239 2.2698,1.5607 4.9693,2.981 5.9545,3.1329 6.1561,3.1629 8.4436,1.2592 z m -32.1728,0.2235 c 1.3517,-0.7199 3.356,-2.4372 3.356,-2.8754 0,-0.328 -0.7758,-0.8884 -2.52,-1.8203 -2.6275,-1.4039 -3.2167,-1.5505 -4.1781,-1.0391 -1.2526,0.6662 -3.356,2.3753 -3.356,2.7268 0,0.2044 1.0418,0.9566 2.3151,1.6716 3.2109,1.803 3.3991,1.8604 4.383,1.3364 z m 12.2724,-1.7427 c 2.3215,-1.5958 2.8725,-2.1471 2.593,-2.5941 -0.3503,-0.5603 -5.1047,-3.0283 -5.8337,-3.0283 -0.8212,0 -3.9559,2.4066 -3.9559,3.0371 0,0.3813 0.6908,0.868 2.7137,1.9122 1.4926,0.7703 2.8737,1.4007 3.0691,1.4007 0.1954,0 0.8316,-0.3275 1.4138,-0.7276 z m -27.4628,-0.878 c 1.2687,-0.891 1.8812,-1.4881 1.8251,-1.7794 -0.1142,-0.5928 -4.3827,-2.9528 -5.3529,-2.9596 -0.467,0 -1.4345,0.4241 -2.433,1.0746 -2.099,1.3676 -2.3889,1.6997 -1.9478,2.2313 0.5527,0.6658 4.5781,2.764 5.313,2.7692 0.4029,0 1.4745,-0.5488 2.5956,-1.3361 z m 51.716,-1.0595 c 0.3834,-0.3016 0.6971,-0.7173 0.6971,-0.9238 0,-0.4524 -5.5446,-3.2903 -6.4284,-3.2903 -0.339,0 -0.9409,0.3388 -1.3376,0.7528 -0.5893,0.6152 -0.6559,0.8071 -0.3639,1.0494 0.5876,0.4877 5.8466,2.9524 6.3083,2.9565 0.235,0 0.741,-0.243 1.1245,-0.5446 z m -43.1513,-2.0151 c 1.1091,-0.7647 1.7692,-1.3965 1.7209,-1.6471 -0.1134,-0.589 -4.4074,-2.9212 -5.3903,-2.9277 -0.7805,-0.01 -3.9435,1.7735 -4.4024,2.4756 -0.3385,0.518 -0.095,0.7461 2.1921,2.0499 2.9186,1.6642 3.5301,1.6694 5.8797,0.049 z m -28.7399,-0.3729 c 1.9001,-1.2379 2.2519,-1.5934 1.9924,-2.0132 -0.1025,-0.166 -5.9,-3.5692 -12.8833,-7.5629 -6.9833,-3.9936 -14.6018,-8.355 -16.9302,-9.692 -2.3283,-1.3371 -4.5518,-2.497 -4.941,-2.5778 -0.8839,-0.1833 -5.0401,1.9334 -4.9234,2.5074 0.041,0.2025 6.5042,4.1678 14.3624,8.8118 7.8581,4.644 15.5971,9.2222 17.1979,10.1737 3.379,2.0085 3.5676,2.0194 6.1252,0.353 z m 38.9862,-0.01 c 1.5398,-0.934 2.9104,-2.1051 2.9104,-2.4868 0,-0.3955 -4.188,-2.6946 -5.3691,-2.9475 -0.5939,-0.1271 -1.1004,0.091 -2.5797,1.111 -1.0871,0.7495 -1.8407,1.4577 -1.8407,1.7298 0,0.3147 0.817,0.8848 2.5796,1.7997 1.4189,0.7365 2.7583,1.3428 2.9766,1.3473 0.2183,0 0.8136,-0.2446 1.3229,-0.5535 z m 14.7303,-0.3972 c 1.9598,-1.4747 2.1789,-1.7048 2.0191,-2.121 -0.081,-0.2125 -1.2022,-0.9157 -2.4904,-1.5627 -3.0791,-1.5464 -3.7686,-1.5429 -5.8124,0.03 -1.6476,1.2678 -1.7755,1.4669 -1.232,1.9179 0.8777,0.7285 4.9044,2.6885 5.5313,2.6924 0.4077,0 1.2483,-0.4026 1.9844,-0.9564 z m -41.6449,-0.6677 c 1.9982,-1.3466 2.1529,-1.5554 1.5721,-2.1217 -0.9163,-0.8933 -4.6227,-2.6402 -5.2615,-2.4799 -0.7658,0.1922 -4.321,2.4721 -4.321,2.771 0,0.344 0.7125,0.8563 2.8834,2.0731 2.3969,1.3435 2.8021,1.3244 5.127,-0.2425 z m 51.6175,-0.7719 c 0.3834,-0.3016 0.6971,-0.6622 0.6971,-0.8014 0,-0.2903 -5.7028,-3.1482 -6.2821,-3.1482 -0.529,0 -1.92,1.0237 -1.92,1.4131 0,0.4235 5.2328,3.0497 6.1159,3.0694 0.3806,0.01 1.0057,-0.2313 1.3891,-0.5329 z m -43.0742,-2.0349 c 1.0092,-0.6932 1.8349,-1.4365 1.8349,-1.6518 0,-0.4581 -3.8627,-2.6206 -5.0271,-2.8146 -0.6258,-0.1042 -1.2025,0.1307 -2.7251,1.1102 -1.2733,0.819 -1.9035,1.3867 -1.8497,1.6661 0.1057,0.5489 4.3674,2.9379 5.2534,2.945 0.3835,0 1.4766,-0.5426 2.5136,-1.2549 z m 11.4164,-1.1871 c 0.9471,-0.6451 1.6533,-1.3207 1.657,-1.5848 0.01,-0.5327 -4.3505,-2.8469 -5.3608,-2.8469 -0.8482,0 -4.1579,2.139 -4.1579,2.6872 0,0.6229 4.0986,2.8349 5.2883,2.8541 0.666,0.011 1.3821,-0.298 2.5734,-1.1096 z m 13.1957,0.015 c 1.8597,-1.3189 2.0294,-1.5323 1.6154,-2.0318 -0.516,-0.6227 -4.457,-2.415 -5.3102,-2.415 -1.03,0 -4.1881,2.0272 -4.0792,2.6185 0.097,0.5303 4.5974,2.915 5.5251,2.9281 0.3906,0.01 1.3561,-0.4667 2.2489,-1.0998 z m -40.9755,-0.3734 c 1.3289,-0.8282 1.9281,-1.3576 1.872,-1.6536 -0.1193,-0.6293 -3.8625,-2.6844 -4.8893,-2.6844 -1.0466,0 -4.5813,2.0588 -4.5813,2.6684 0,0.5215 4.1009,2.8878 5.0049,2.8878 0.3516,0 1.5188,-0.5481 2.5937,-1.2182 z m 51.4319,-0.3895 c 0.4243,-0.3022 0.7014,-0.6629 0.6157,-0.8016 -0.2717,-0.4395 -5.3707,-2.8827 -5.9971,-2.8735 -0.8809,0.013 -1.9616,0.9855 -1.6451,1.4805 0.3301,0.5164 4.8365,2.6933 5.6343,2.7218 0.3414,0.012 0.9678,-0.225 1.3922,-0.5272 z m -42.6732,-2.253 c 1.0444,-0.6682 1.8989,-1.3046 1.8989,-1.4142 0,-0.5613 -4.1918,-2.9271 -5.1864,-2.9271 -0.8257,0 -4.2063,2.1933 -4.2063,2.729 0,0.5691 3.902,2.8077 4.9142,2.8194 0.3744,0 1.5352,-0.5389 2.5796,-1.2071 z m 73.9999,-21.0101 c 3.1583,-11.5689 6.0948,-22.3441 6.5256,-23.9448 0.4307,-1.6007 1.1203,-4.1606 1.5324,-5.6885 0.412,-1.528 3.4522,-12.6603 6.756,-24.7386 7.1832,-26.2615 9.4235,-34.5872 9.3305,-34.6762 -0.038,-0.036 -3.2841,-0.6667 -7.2132,-1.4003 -3.929,-0.7336 -10.2393,-1.9262 -14.0229,-2.6502 -3.7835,-0.7239 -13.9038,-2.6426 -22.4896,-4.2637 -8.5857,-1.6211 -18.3488,-3.4735 -21.6958,-4.1165 -5.4833,-1.0534 -12.011,-2.2906 -37.9004,-7.1836 -5.0052,-0.946 -8.0876,-1.4179 -8.2297,-1.2599 -0.125,0.1389 -1.3132,4.7174 -2.6405,10.1744 -1.3272,5.457 -4.0284,16.5298 -6.0026,24.6062 -1.9742,8.0765 -4.4917,18.3754 -5.5943,22.8865 -1.1027,4.5111 -3.0623,12.4883 -4.3546,17.7271 -1.2924,5.2387 -2.3498,9.6204 -2.3498,9.7369 0,0.1166 0.4174,0.3864 0.9276,0.5995 0.5101,0.2132 5.3619,2.3959 10.7818,4.8504 5.4198,2.4546 13.6046,6.1586 18.1885,8.2311 4.5839,2.0724 12.1444,5.4916 16.8011,7.598 4.6567,2.1065 10.9074,4.9329 13.8906,6.281 2.9832,1.348 8.341,3.7707 11.9063,5.3837 3.5652,1.613 11.721,5.3022 18.1239,8.1984 7.4998,3.3922 11.7031,5.1621 11.8142,4.9746 0.095,-0.1601 2.7566,-9.7566 5.9149,-21.3255 z m -63.0499,20.075 c 0.9938,-0.6005 1.8646,-1.1851 1.935,-1.2991 0.3178,-0.5142 -0.3333,-1.0538 -2.5324,-2.0989 -1.7571,-0.835 -2.5457,-1.0794 -3.0635,-0.9494 -0.8457,0.2122 -3.8027,2.1836 -3.8027,2.5352 0,0.4916 4.3706,2.8952 5.2758,2.9013 0.2095,0 1.1941,-0.4887 2.1878,-1.0891 z m 12.9783,-0.3691 c 0.9807,-0.6579 1.7831,-1.2943 1.7831,-1.4142 0,-0.1199 -0.2083,-0.3996 -0.463,-0.6215 -0.5365,-0.4676 -4.6042,-2.3244 -5.0919,-2.3244 -0.4306,0 -3.2762,1.7318 -3.7156,2.2612 -0.2801,0.3375 -0.2742,0.4762 0.033,0.7739 0.6432,0.6236 4.4712,2.5212 5.0858,2.5212 0.3221,0 1.388,-0.5383 2.3687,-1.1962 z m -40.1466,-0.2163 c 1.0149,-0.6313 1.8816,-1.3338 1.9258,-1.5611 0.1111,-0.5705 -3.5645,-2.5827 -4.7178,-2.5827 -0.4985,0 -1.5656,0.3902 -2.5067,0.9164 -1.8177,1.0165 -2.3084,1.4748 -2.0351,1.9002 0.371,0.5773 3.9125,2.4298 4.6879,2.4521 0.5134,0.015 1.4622,-0.3886 2.6459,-1.1249 z m 50.9509,0.1648 c 1.3997,-0.8268 1.1501,-1.1154 -2.3703,-2.7404 l -2.4772,-1.1435 -0.9445,0.5153 c -0.5195,0.2834 -0.9905,0.6588 -1.0466,0.8343 -0.1117,0.3487 4.7739,2.9524 5.5818,2.9747 0.2686,0.01 0.8342,-0.1907 1.2568,-0.4404 z m -42.0516,-2.6658 c 0.9225,-0.5642 1.6773,-1.1944 1.6773,-1.4004 0,-0.5245 -3.7961,-2.6236 -4.7447,-2.6236 -1.0789,0 -4.4401,2.0176 -4.3326,2.6006 0.1216,0.6598 4.1485,2.7233 5.0188,2.5717 0.3871,-0.067 1.4587,-0.5841 2.3812,-1.1483 z m 9.5575,-0.095 c 1.9057,-1.0199 3.3331,-2.1153 3.2019,-2.4572 -0.2017,-0.5256 -4.1367,-2.5297 -4.9669,-2.5297 -0.6395,0 -2.8928,1.1857 -3.9314,2.0687 -0.6455,0.5487 -0.2655,0.9299 2.1668,2.1739 2.1639,1.1067 2.6578,1.2109 3.5296,0.7443 z m -25.7395,-1.3489 c 1.0888,-0.6185 2.0166,-1.3192 2.0617,-1.5572 0.099,-0.5236 -3.5929,-2.61 -4.6188,-2.61 -0.7269,0 -3.7959,1.6149 -4.3594,2.2939 -0.3018,0.3636 -0.2622,0.4857 0.2761,0.8512 1.1521,0.7825 3.857,2.1441 4.2615,2.1453 0.2196,7e-4 1.2901,-0.5048 2.3789,-1.1232 z m 39.4374,0.056 c 0.8651,-0.5875 1.573,-1.2475 1.573,-1.4666 0,-0.2411 -0.9735,-0.8691 -2.4644,-1.5898 -2.7857,-1.3469 -2.7654,-1.3479 -5.3189,0.2855 -0.83,0.5309 -1.4658,1.1059 -1.413,1.2777 0.1638,0.5327 4.2398,2.5426 5.1759,2.5523 0.5956,0.01 1.376,-0.3316 2.4474,-1.0591 z m 11.5041,0.3763 c 0.3587,-0.235 0.6522,-0.5944 0.6522,-0.7985 0,-0.3751 -4.7252,-2.743 -5.4737,-2.743 -0.5536,0 -1.9346,0.8482 -1.9346,1.1881 0,0.3703 4.7233,2.7453 5.4994,2.7652 0.3325,0.01 0.8981,-0.1768 1.2567,-0.4118 z m -41.9258,-2.7779 c 1.0077,-0.5986 1.8322,-1.2431 1.8322,-1.4322 0,-0.4708 -3.841,-2.5076 -4.7167,-2.5012 -0.8879,0.01 -4.117,1.8617 -4.2261,2.428 -0.1035,0.5377 3.47,2.5786 4.5309,2.5876 0.4116,0 1.5707,-0.4828 2.5797,-1.0822 z m 10.973,-0.962 c 0.9333,-0.5457 1.6992,-1.174 1.702,-1.3963 0,-0.3849 -4.1064,-2.6386 -4.8135,-2.6386 -0.5541,0 -4.1773,2.1998 -4.1773,2.5362 0,0.5096 3.7185,2.4647 4.7142,2.4786 0.5531,0.01 1.5053,-0.3547 2.5746,-0.9799 z m 23.7998,0.066 c 0.7457,-0.6191 0.7651,-0.6813 0.321,-1.0272 -0.26,-0.2025 -1.4888,-0.8208 -2.7306,-1.3742 l -2.2578,-1.006 -0.9075,0.4886 c -0.4991,0.2688 -0.9074,0.6512 -0.9074,0.8498 0,0.4013 4.3259,2.6695 5.1594,2.7053 0.291,0.012 0.8863,-0.2739 1.3229,-0.6363 z m -50.523,-0.6852 c 1.0846,-0.5953 1.9719,-1.2461 1.9719,-1.4463 0,-0.4628 -3.6287,-2.4904 -4.4653,-2.4951 -0.8254,0 -4.5305,2.0468 -4.5305,2.5084 0,0.4519 3.6287,2.5004 4.4442,2.5089 0.3343,0 1.4952,-0.4807 2.5797,-1.0759 z m 38.4028,0.097 c 1.0652,-0.6231 1.6572,-1.1341 1.6094,-1.3891 -0.084,-0.4471 -2.7,-1.9468 -4.227,-2.423 -0.9274,-0.2893 -1.0784,-0.2457 -2.8443,0.8213 -1.0256,0.6197 -1.8648,1.2902 -1.8648,1.49 0,0.4817 3.8895,2.4563 4.8714,2.4732 0.4313,0.01 1.5121,-0.4207 2.4553,-0.9724 z m -29.5531,-2.1288 c 0.9439,-0.5488 1.7535,-1.1922 1.7993,-1.4298 0.1084,-0.5629 -3.1902,-2.365 -4.3534,-2.3783 -1.1306,-0.013 -4.3789,1.804 -4.2708,2.3888 0.099,0.534 3.5381,2.3972 4.4462,2.4087 0.3645,0 1.4349,-0.4406 2.3787,-0.9894 z m 10.7832,-0.8668 c 1.055,-0.5851 1.9182,-1.2371 1.9182,-1.4488 0,-0.4082 -3.9056,-2.5075 -4.665,-2.5075 -0.5033,0 -3.8387,1.7942 -4.1149,2.2136 -0.1,0.1511 -0.1204,0.3727 -0.046,0.4925 0.1982,0.3207 4.1293,2.2929 4.593,2.3043 0.2183,0.01 1.2601,-0.469 2.3151,-1.0541 z m 23.9039,0.3523 c 0.4227,-0.2497 0.7685,-0.5803 0.7685,-0.7348 0,-0.3577 -4.3269,-2.5155 -5.0441,-2.5155 -0.6744,0 -2.0997,0.7211 -2.0997,1.0623 0,0.3207 4.4588,2.6104 5.1186,2.6285 0.2686,0.01 0.8341,-0.1909 1.2567,-0.4405 z m -49.9654,-1.2663 c 0.9823,-0.5286 1.786,-1.1237 1.786,-1.3225 0,-0.4873 -3.3663,-2.249 -4.2975,-2.249 -1.1261,0 -4.4875,1.775 -4.3835,2.3147 0.047,0.2413 0.8578,0.8902 1.803,1.4421 2.051,1.1976 2.5561,1.1792 5.092,-0.1853 z m 37.455,0.1103 c 0.9185,-0.5883 1.6284,-1.2109 1.5774,-1.3835 -0.1302,-0.4406 -3.9069,-2.2954 -4.6773,-2.2969 -0.8436,0 -3.9941,1.7742 -3.9941,2.2516 0,0.5235 3.6653,2.503 4.6302,2.5005 0.4729,0 1.4687,-0.4344 2.4638,-1.0717 z m -51.009,-0.5097 c 1.1609,-0.5837 2.1108,-1.2135 2.1108,-1.3996 0,-0.3505 -4.4031,-2.997 -5.3922,-3.2409 -0.7126,-0.1757 -4.9266,1.8356 -4.9266,2.3515 0,0.4736 4.6927,3.3248 5.496,3.3394 0.3307,0.01 1.5511,-0.4667 2.712,-1.0504 z m 22.1764,-1.2984 c 2.2604,-1.141 2.4197,-1.4384 1.1867,-2.2152 -1.7758,-1.1186 -2.6847,-1.5105 -3.503,-1.5105 -1.0731,0 -4.3075,1.7859 -4.2027,2.3206 0.1163,0.5933 3.1063,2.1704 4.1219,2.1741 0.4771,0 1.5558,-0.3443 2.3971,-0.769 z m 34.9016,-0.487 c 0.3274,-0.2141 0.5953,-0.4774 0.5953,-0.5852 0,-0.3148 -4.467,-2.389 -5.145,-2.389 -0.3395,0 -0.8983,0.2297 -1.2418,0.5104 -0.8055,0.6582 -0.5858,0.8863 2.0894,2.1703 2.0866,1.0015 2.5615,1.0391 3.7021,0.2935 z m -23.9835,-0.4934 c 1.0035,-0.5273 1.8246,-1.1079 1.8246,-1.2901 0,-0.5075 -3.5188,-2.2495 -4.5366,-2.2458 -1.0082,0 -4.0226,1.5661 -4.136,2.144 -0.096,0.4905 3.265,2.3371 4.2683,2.3449 0.4153,0 1.5762,-0.4256 2.5797,-0.953 z m -25.9247,-0.8271 c 1.0894,-0.5915 1.7991,-1.1419 1.7576,-1.363 -0.097,-0.5137 -3.0892,-2.1357 -3.9477,-2.1396 -0.8501,0 -3.9215,1.3366 -4.4092,1.9243 -0.3034,0.3656 -0.1986,0.5168 0.7938,1.1443 0.6288,0.3977 1.3815,0.875 1.6725,1.0608 0.9493,0.6057 2.2172,0.4135 4.133,-0.6268 z m 36.6536,0.053 c 0.9235,-0.5165 1.6791,-1.1103 1.6791,-1.3196 0,-0.5123 -3.4817,-2.2393 -4.5145,-2.2393 -0.9639,0 -4.2846,1.7711 -4.1479,2.2124 0.1509,0.487 3.6985,2.268 4.5359,2.2771 0.4226,0 1.5239,-0.4142 2.4474,-0.9306 z m -51.2898,-1.1682 c 1.1929,-0.5768 2.1689,-1.2066 2.1689,-1.3994 0,-0.3463 -2.3487,-1.8357 -3.4418,-2.1826 -0.3787,-0.1203 -1.2956,0.1507 -2.7943,0.8257 -2.3423,1.0549 -2.755,1.6025 -1.6353,2.1697 0.3274,0.1659 1.1293,0.6017 1.7818,0.9685 0.6526,0.3668 1.3138,0.6669 1.4693,0.6669 0.1554,0 1.2586,-0.4719 2.4514,-1.0488 z m 23.8605,-0.8011 c 0.895,-0.4518 1.5828,-0.9645 1.5284,-1.1394 -0.1192,-0.3831 -3.5962,-2.2821 -4.2,-2.294 -0.5877,-0.011 -4.2949,1.9054 -4.404,2.2772 -0.091,0.3103 2.831,2.0672 3.7725,2.2683 0.6436,0.1374 1.1968,-0.049 3.3031,-1.1121 z m 33.8907,0.2523 c 0.6162,-0.3143 0.9828,-0.6597 0.8789,-0.8278 -0.098,-0.1586 -1.1947,-0.758 -2.437,-1.332 l -2.2588,-1.0435 -1.0119,0.4563 c -0.5565,0.2509 -1.0119,0.5959 -1.0119,0.7667 0,0.2347 4.2634,2.5196 4.7013,2.5196 0.045,0 0.558,-0.2427 1.1394,-0.5393 z m -23.7016,-0.8572 c 0.8723,-0.4688 1.6202,-1.0351 1.6621,-1.2584 0.052,-0.2759 -0.6094,-0.7401 -2.0643,-1.4495 l -2.1403,-1.0435 -2.0228,1.0526 c -1.1126,0.5789 -2.0662,1.1957 -2.1193,1.3707 -0.1302,0.4296 3.3106,2.168 4.3049,2.175 0.4366,0 1.5074,-0.378 2.3797,-0.8469 z m -25.6674,-0.9105 c 1.0938,-0.5412 1.9887,-1.1218 1.9887,-1.2901 0,-0.3489 -3.4307,-2.2237 -4.0692,-2.2237 -0.796,0 -4.4153,1.9609 -4.3388,2.3507 0.095,0.482 3.0638,2.1399 3.8396,2.144 0.325,0 1.4859,-0.4396 2.5797,-0.9809 z m 36.1861,-0.074 c 0.8368,-0.4584 1.5214,-0.977 1.5214,-1.1524 0,-0.3441 -3.7182,-2.2871 -4.3766,-2.2871 -0.7091,0 -4.0901,1.8467 -4.0901,2.234 0,0.2063 0.8632,0.8092 1.9183,1.3396 2.2301,1.1211 2.7618,1.107 5.027,-0.1341 z m -50.0874,-1.0108 c 1.0832,-0.5354 2.0114,-1.109 2.0627,-1.2747 0.1081,-0.3485 -3.0922,-2.2124 -3.7987,-2.2124 -0.9037,0 -4.6245,1.9212 -4.5427,2.3456 0.1069,0.5552 2.8416,2.154 3.6479,2.1326 0.3638,-0.01 1.5477,-0.4556 2.6308,-0.9911 z m 22.7561,-0.4378 c 1.0042,-0.5057 1.8986,-1.0372 1.9876,-1.1811 0.1818,-0.2942 -1.599,-1.4962 -3.082,-2.0802 -0.9435,-0.3715 -1.0449,-0.3514 -3.1089,0.6172 -1.1735,0.5506 -2.1336,1.1503 -2.1336,1.3326 0,0.4247 3.1159,2.1883 3.9092,2.2126 0.3311,0.01 1.4235,-0.3954 2.4277,-0.9011 z m 34.4343,0.201 c 0.4226,-0.2497 0.7684,-0.546 0.7684,-0.6585 0,-0.2693 -4.1008,-2.3272 -4.6375,-2.3272 -0.5766,0 -1.9771,0.7523 -1.9771,1.062 0,0.3209 3.9318,2.3466 4.5894,2.3644 0.2686,0.01 0.8341,-0.1911 1.2568,-0.4407 z m -23.8133,-1.0137 c 1.0406,-0.524 1.8191,-1.0789 1.7631,-1.2567 -0.1765,-0.5598 -3.1919,-2.0233 -4.1689,-2.0233 -0.9768,0 -3.9924,1.4634 -4.1688,2.023 -0.1192,0.3782 3.2426,2.1637 4.1093,2.1824 0.331,0.01 1.4404,-0.4092 2.4653,-0.9254 z m -25.0938,-1.0875 c 0.9822,-0.4901 1.7859,-0.9997 1.7859,-1.1325 0,-0.2757 -2.7427,-1.8151 -3.6336,-2.0395 -0.5906,-0.1488 -4.8331,1.6352 -4.8331,2.0323 0,0.2888 0.584,0.7159 2.1494,1.5719 1.639,0.8963 1.923,0.8693 4.5314,-0.4322 z m 34.9749,0.1003 c 0.8641,-0.4689 1.6163,-0.9957 1.6715,-1.1709 0.115,-0.3647 -3.3515,-2.1951 -4.1572,-2.1951 -0.8677,0 -3.9804,1.6555 -3.9804,2.1169 0,0.5323 3.0359,2.0818 4.1011,2.0931 0.4365,0 1.5008,-0.3752 2.365,-0.844 z m -48.6239,-1.0555 c 0.9714,-0.4704 1.8115,-0.992 1.8668,-1.1591 0.1389,-0.4199 -2.7576,-1.9452 -3.6941,-1.9452 -0.9881,0 -4.7773,1.747 -4.6457,2.1419 0.055,0.1661 0.8683,0.7104 1.8065,1.2097 1.9233,1.0234 2.0568,1.0163 4.6665,-0.2473 z m 22.3262,-0.3923 c 1.0651,-0.5457 1.9445,-1.1112 1.9544,-1.2568 0.027,-0.402 -3.0561,-1.9684 -3.8914,-1.9769 -0.8997,-0.01 -4.4971,1.7612 -4.3676,2.1494 0.1195,0.3585 3.3768,2.0736 3.9412,2.0753 0.2348,6e-4 1.2983,-0.4453 2.3634,-0.991 z m 33.9779,0.5463 c 1.4338,-0.6837 1.3041,-0.8593 -1.6161,-2.1867 -1.879,-0.8541 -1.8951,-0.8564 -2.8546,-0.401 -0.5308,0.2518 -0.9229,0.5844 -0.8714,0.7389 0.086,0.2573 3.7792,2.2568 4.2176,2.2833 0.1042,0.01 0.6102,-0.1893 1.1245,-0.4345 z m -23.6153,-1.1858 c 1.2625,-0.5819 1.7939,-0.9659 1.7393,-1.2568 -0.091,-0.4861 -2.9949,-2.1202 -3.7871,-2.1311 -0.8409,-0.012 -4.4168,1.7985 -4.2978,2.1755 0.1488,0.4709 3.123,2.034 3.8873,2.0429 0.3522,0 1.4584,-0.3696 2.4583,-0.8305 z m -24.5881,-1.1717 c 0.9664,-0.4766 1.5018,-0.898 1.4543,-1.1445 -0.041,-0.2146 -1.0272,-0.9067 -2.1909,-1.5379 -1.6465,-0.8932 -2.321,-1.1233 -3.0417,-1.0374 -1.092,0.1301 -4.0328,1.4944 -4.167,1.9332 -0.089,0.2923 3.4684,2.4424 4.5639,2.7581 0.6789,0.1957 1.4836,-0.035 3.3814,-0.9715 z m 34.0383,0.089 c 0.9356,-0.4718 1.7473,-1.0011 1.8039,-1.1763 0.1076,-0.333 -3.3143,-2.1951 -4.034,-2.1951 -0.7216,0 -4.1418,1.8621 -4.032,2.1951 0.1438,0.4366 3.2825,2.0387 3.9889,2.0362 0.3147,0 1.3377,-0.3881 2.2732,-0.8599 z m 8.4986,-0.6001 c 0.4294,-0.222 0.7806,-0.5182 0.7806,-0.6581 0,-0.3436 -3.5504,-2.1132 -4.2398,-2.1132 -0.7691,0 -2.1606,0.7626 -1.9661,1.0774 0.2297,0.3716 3.5984,2.0488 4.1686,2.0754 0.2618,0.012 0.8274,-0.1595 1.2567,-0.3815 z m -33.6152,-0.7384 c 0.9459,-0.4632 1.7198,-0.9587 1.7198,-1.1009 0,-0.4418 -7.0777,-4.1726 -7.9375,-4.184 -1.0631,-0.014 -4.4474,1.5512 -4.3015,1.9895 0.062,0.185 1.65,1.19 3.5297,2.2332 3.9769,2.2072 4.4921,2.2855 6.9895,1.0622 z m 10.1203,-0.7519 c 0.8368,-0.4177 1.5214,-0.9134 1.5214,-1.1014 0,-0.1881 -0.8256,-0.7414 -1.8346,-1.2295 l -1.8345,-0.8875 -1.142,0.4515 c -2.0425,0.8073 -2.9941,1.3517 -2.9941,1.7125 0,0.1947 0.7587,0.7577 1.6861,1.2512 1.9043,1.0133 2.1989,1.0007 4.5977,-0.1968 z m 8.9116,-1.0888 c 0.9359,-0.4695 1.7098,-0.9727 1.7198,-1.1183 0.027,-0.3918 -3.0509,-1.9711 -3.8184,-1.9593 -0.8151,0.012 -4.1095,1.5952 -4.0783,1.9593 0.035,0.4041 3.0639,1.9694 3.8138,1.9707 0.3638,7e-4 1.4272,-0.3829 2.3631,-0.8524 z m 9.4827,-0.5476 c 0.3516,-0.3516 0.1851,-0.5022 -1.485,-1.3432 -1.0345,-0.521 -2.128,-0.9473 -2.4299,-0.9473 -0.5402,0 -2.1101,0.6913 -2.1101,0.9292 0,0.067 0.8037,0.5408 1.7859,1.0528 1.9214,1.0014 3.436,1.1117 4.2391,0.3085 z m -24.182,-1.0932 c 1.1096,-0.5056 2.0174,-1.0404 2.0174,-1.1884 0,-0.2571 -5.0652,-2.9197 -6.2631,-3.2922 -0.6946,-0.2161 -4.5848,1.3384 -4.5848,1.832 0,0.1801 0.8632,0.7796 1.9182,1.3322 1.055,0.5526 2.442,1.2817 3.0821,1.6203 0.6402,0.3385 1.3099,0.6155 1.4884,0.6155 0.1784,0 1.2322,-0.4137 2.3418,-0.9194 z m 8.5658,-1.2444 c 1.0551,-0.4632 1.9183,-1.0044 1.9183,-1.2025 0,-0.4147 -3.0451,-1.9317 -3.8365,-1.9112 -0.7381,0.019 -3.9792,1.6476 -3.921,1.9702 0.06,0.331 2.9861,1.9767 3.5241,1.9819 0.2183,0 1.2601,-0.3752 2.3151,-0.8384 z m 9.7969,-0.1001 c 0.3234,-0.2266 0.588,-0.5066 0.588,-0.6223 0,-0.2736 -3.4758,-1.8763 -4.0691,-1.8763 -0.4694,0 -2.0163,0.7129 -2.0163,0.9292 0,0.275 3.6222,1.9562 4.2406,1.9682 0.3678,0.01 0.9334,-0.1723 1.2568,-0.3988 z m -15.1417,-2.947 c 0.8515,-0.4082 1.5532,-0.8613 1.5594,-1.0068 0.02,-0.475 -2.5902,-1.7072 -3.6304,-1.7136 -1.1328,-0.01 -4.2739,1.447 -4.0186,1.8601 0.089,0.1436 0.8374,0.6148 1.6638,1.0473 1.7228,0.9016 2.1969,0.8816 4.4258,-0.187 z m 9.7642,0.4059 c 0.3706,-0.1688 0.6739,-0.4079 0.6739,-0.5313 0,-0.1233 -0.8661,-0.6528 -1.9247,-1.1766 -1.8896,-0.935 -1.9427,-0.9449 -2.9104,-0.5405 -0.5422,0.2265 -0.9858,0.5351 -0.9858,0.6857 0,0.3993 2.9196,1.8422 3.7579,1.8571 0.3933,0.01 1.0184,-0.1255 1.3891,-0.2944 z m -5.2708,-2.4575 c 0.5047,-0.2109 0.9176,-0.4909 0.9176,-0.6223 0,-0.4206 -3.6837,-1.9673 -4.3106,-1.8099 -0.6924,0.1739 -1.6979,0.8681 -1.5098,1.0425 0.31,0.2874 3.3367,1.7487 3.6461,1.7603 0.1866,0.01 0.7521,-0.1598 1.2567,-0.3706 z"
         id="path69" /><path
         style="fill:#df601c;fill-opacity:1;stroke:#dadada;stroke-width:0.205984"
         d="m -11579.5,5666.6515 c -3.406,-0.3601 -5.753,-1.4338 -10.5,-4.802 -9.714,-6.8938 -105.597,-76.5867 -112.5,-81.7708 -12.861,-9.6597 -14.25,-10.9113 -14.25,-12.8416 0,-1.6051 0.241,-1.8408 4.375,-4.2832 9.681,-5.7194 28.447,-15.7145 78.357,-41.7351 21.974,-11.456 24.634,-12.6896 27.396,-12.7071 3.65,-0.023 15.535,6.8385 86.122,49.7211 39.919,24.2512 52.773,32.4401 53.732,34.2332 1.421,2.6555 -0.15,4.1873 -13.232,12.8988 -9.825,6.5431 -71.408,46.7875 -83.12,54.3189 -10.447,6.7182 -12.098,7.4205 -16.38,6.9678 z"
         id="path93"
         transform="matrix(0.26458333,0,0,0.26458333,0,87)" /><path
         style="fill:#df601c;fill-opacity:1;stroke:#dadada;stroke-width:0.205984"
         d="m -11677.584,5443.7275 c -6.044,-3.1315 -7.593,-4.3599 -6.762,-5.3619 0.748,-0.9014 6.978,-3.9895 11.424,-5.6631 4.84,-1.8217 6.733,-1.6274 12.559,1.289 6.146,3.0766 6.801,3.7371 5.097,5.1356 -0.679,0.5569 -3.773,2.257 -6.876,3.778 -7.887,3.8652 -9.412,3.9464 -15.442,0.8224 z"
         id="path94"
         transform="matrix(0.26458333,0,0,0.26458333,0,87)" /><path
         style="fill:#df601c;fill-opacity:1;stroke:#dadada;stroke-width:0.205984"
         d="m -11656.067,5456.5218 c -4.168,-2.0961 -7.683,-4.7001 -7.683,-5.6913 0,-1.4977 12.092,-7.7947 15.762,-8.2084 1.605,-0.1809 2.751,0.1155 5.27,1.362 3.699,1.8311 9.468,5.574 9.468,6.143 0,1.4098 -14.359,8.3444 -17.317,8.3629 -0.862,0.01 -3.337,-0.8803 -5.5,-1.9682 z"
         id="path96"
         transform="matrix(0.26458333,0,0,0.26458333,0,87)" /><path
         style="fill:#df601c;fill-opacity:1;stroke:#dadada;stroke-width:0.205984"
         d="m -11635.75,5468.4613 c -5.718,-3.0568 -7.5,-4.2495 -7.5,-5.0195 0,-1.4872 9.196,-6.457 15.141,-8.1828 l 2.89,-0.839 3.198,1.4967 c 3.406,1.5937 8.636,4.965 9.71,6.2591 0.56,0.6744 0.252,1.0345 -2.254,2.6375 -3.729,2.3851 -11.916,6.2139 -13.9,6.5003 -1.181,0.1704 -2.861,-0.4877 -7.285,-2.8523 z"
         id="path97"
         transform="matrix(0.26458333,0,0,0.26458333,0,87)" /><path
         style="fill:#df601c;fill-opacity:1;stroke:#dadada;stroke-width:0.205984"
         d="m -11608,5484.8713 c -5.477,-2.9177 -11.981,-7.1674 -13.409,-8.7612 -0.892,-0.9951 -0.867,-1.0439 1.25,-2.4961 3.023,-2.0737 7.505,-4.2653 11.929,-5.8331 l 3.769,-1.3359 2.481,1.0603 c 3.128,1.3373 14.646,8.1842 16.819,9.9984 l 1.636,1.3651 -2.971,1.9005 c -4.356,2.7866 -12.203,6.3397 -14.504,6.5676 -1.668,0.1652 -2.83,-0.2443 -7,-2.4656 z"
         id="path98"
         transform="matrix(0.26458333,0,0,0.26458333,0,87)" /><path
         style="fill:#df601c;fill-opacity:1;stroke:#dadada;stroke-width:0.205984"
         d="m -11466.06,5568.5512 c -2.92,-1.3815 -67.76,-39.5932 -95.69,-56.3924 -17.949,-10.7962 -30.387,-18.5715 -30.814,-19.2637 -0.206,-0.332 0.364,-1.1733 1.355,-2.0018 2.127,-1.778 10.938,-6.1633 13.959,-6.9471 2.216,-0.5748 2.339,-0.5394 8,2.3011 5.009,2.5128 55.594,31.2879 94.75,53.8982 16.948,9.786 31.25,18.3247 31.25,18.6564 0,1.5206 -4.523,5.0986 -11.396,9.0154 -4.752,2.7083 -6.943,2.8492 -11.414,0.7339 z"
         id="path99"
         transform="matrix(0.26458333,0,0,0.26458333,0,87)" /><path
         style="fill:#df601c;fill-opacity:1;stroke:#dadada;stroke-width:0.205984"
         d="m -11430.084,5589.7783 c -6.214,-3.1225 -17.821,-10.2425 -19.66,-12.0599 -0.99,-0.9783 -1.134,-1.4069 -0.708,-2.0989 1.503,-2.4375 14.677,-10.1196 17.354,-10.1196 1.554,0 15.742,7.085 22.846,11.4086 2.634,1.6027 4.824,3.2848 4.919,3.7775 0.221,1.1474 -0.854,2.302 -5.014,5.386 -4.563,3.3827 -10.551,6.4279 -12.639,6.4279 -1.04,0 -3.749,-1.0385 -7.098,-2.7216 z"
         id="path100"
         transform="matrix(0.26458333,0,0,0.26458333,0,87)" /><path
         style="fill:#df601c;fill-opacity:1;stroke:#dadada;stroke-width:0.205984"
         d="m -11400.578,5607.291 c -7.497,-3.9354 -12.056,-6.9905 -12.77,-8.5582 -0.428,-0.9377 -0.368,-1.46 0.28,-2.4484 1.672,-2.5518 11.881,-9.1142 14.955,-9.613 2.247,-0.3647 4.324,0.326 11.159,3.7109 6.319,3.1292 10.05,5.663 10.7,7.2652 0.377,0.9284 0.108,1.4208 -1.704,3.1204 -3.922,3.6776 -13.682,9.7428 -15.647,9.7229 -0.492,0 -3.63,-1.4449 -6.973,-3.1998 z"
         id="path101"
         transform="matrix(0.26458333,0,0,0.26458333,0,87)" /><path
         style="fill:#df601c;fill-opacity:1;stroke:#dadada;stroke-width:0.205984"
         d="m -11367.382,5626.8454 c -5.92,-3.063 -13.071,-7.6677 -14.83,-9.549 l -1.212,-1.2965 1.212,-1.3205 c 1.864,-2.0303 5.5,-4.1795 7.071,-4.1795 1.625,0 7.188,2.7007 14.539,7.0589 9.166,5.4337 9.763,6.248 6.477,8.8305 -2.65,2.0826 -4.831,3.1106 -6.601,3.1106 -0.865,0 -3.747,-1.1494 -6.656,-2.6545 z"
         id="path102"
         transform="matrix(0.26458333,0,0,0.26458333,0,87)" /><path
         style="fill:#df601c;fill-opacity:1;stroke:#dadada;stroke-width:0.205984"
         d="m -11336.253,5645.305 c -8.78,-4.4341 -16.997,-10.0963 -16.997,-11.7132 0,-0.8276 5.931,-5.9496 10.427,-9.0041 3.979,-2.7043 4.323,-2.8378 7.309,-2.8378 2.699,0 3.716,0.2958 7.324,2.1292 6.591,3.3491 14.082,8.2348 14.917,9.7288 0.737,1.3176 0.7,1.4193 -1.234,3.4177 -2.645,2.7339 -9.263,7.7145 -12.286,9.2462 -1.333,0.6754 -3.05,1.2175 -3.815,1.2046 -0.765,-0.013 -3.306,-0.9901 -5.645,-2.1714 z"
         id="path103"
         transform="matrix(0.26458333,0,0,0.26458333,0,87)" /><path
         style="fill:#df601c;fill-opacity:1;stroke:#dadada;stroke-width:0.205984"
         d="m -11300.75,5666.0568 c -2.586,-1.0302 -14.355,-7.7618 -18.656,-10.6706 -3.255,-2.2018 -3.671,-2.84 -2.852,-4.3703 0.788,-1.4724 6.393,-5.516 7.647,-5.516 2.114,0 23.916,12.3204 25.087,14.1767 0.92,1.458 -5.614,7.3639 -8.076,7.2999 -0.495,-0.013 -1.912,-0.4267 -3.15,-0.9197 z"
         id="path104"
         transform="matrix(0.26458333,0,0,0.26458333,0,87)" /><path
         style="fill:#df601c;fill-opacity:1;stroke:#dadada;stroke-width:0.205984"
         d="m -11284.007,5642.1855 c -8.074,-4.4044 -43.334,-24.5576 -49.993,-28.5743 -8.659,-5.2238 -9.247,-6.1426 -5.875,-9.1888 4.44,-4.0107 12.437,-8.9225 14.528,-8.9225 1.838,0 10.875,4.7279 41.847,21.893 16.11,8.928 22.418,12.7273 24.411,14.7034 l 1.411,1.3984 -0.982,1.3776 c -1.291,1.8113 -9.51,8.5702 -12.163,10.0026 -3.613,1.9502 -5.314,1.6033 -13.184,-2.6894 z"
         id="path105"
         transform="matrix(0.26458333,0,0,0.26458333,0,87)" /><path
         style="fill:#df601c;fill-opacity:1;stroke:#dadada;stroke-width:0.205984"
         d="m -11359.725,5598.9881 c -5.859,-2.8653 -11.21,-6.2321 -12.994,-8.175 l -1.219,-1.3282 1.967,-2.0141 c 2.28,-2.3356 9.175,-7.0848 11.996,-8.2637 1.133,-0.4731 2.682,-0.7106 3.725,-0.5707 3.999,0.5364 18.744,8.5157 19.97,10.8074 0.45,0.8398 0.283,1.3035 -0.994,2.7572 -1.87,2.1301 -7.348,6.2347 -10.675,7.9997 -3.697,1.9605 -5.711,1.7531 -11.776,-1.2126 z"
         id="path106"
         transform="matrix(0.26458333,0,0,0.26458333,0,87)" /><path
         style="fill:#df601c;fill-opacity:1;stroke:#dadada;stroke-width:0.205984"
         d="m -11393.055,5580.0008 c -8.524,-4.2948 -11.82,-6.6116 -11.601,-8.1534 0.352,-2.4712 13.085,-10.3475 16.729,-10.3475 3.547,0 19.177,8.5196 19.593,10.6802 0.232,1.2035 -0.569,2.0519 -5.146,5.4535 -4.755,3.5337 -9.203,5.8663 -11.186,5.8663 -0.795,0 -4.57,-1.5746 -8.389,-3.4991 z"
         id="path107"
         transform="matrix(0.26458333,0,0,0.26458333,0,87)" /><path
         style="fill:#df601c;fill-opacity:1;stroke:#dadada;stroke-width:0.205984"
         d="m -11421.862,5563.822 c -8.227,-4.3306 -13.388,-7.7376 -13.388,-8.8381 0,-0.581 9.93,-7.182 13.563,-9.0158 l 2.933,-1.4804 3.127,1.0516 c 4.587,1.5425 13.643,6.3069 15.731,8.2759 l 1.811,1.7081 -1.432,1.4948 c -1.811,1.8901 -7.682,5.9488 -11.091,7.667 -3.896,1.9639 -6.223,1.7855 -11.254,-0.8631 z"
         id="path108"
         transform="matrix(0.26458333,0,0,0.26458333,0,87)" /><path
         style="fill:#df601c;fill-opacity:1;stroke:#dadada;stroke-width:0.205984"
         d="m -11449.03,5548.1109 c -4.163,-1.8696 -10.608,-5.7042 -12.72,-7.5676 l -1.75,-1.5442 1.931,-1.7257 c 4.247,-3.796 12.309,-7.7735 15.756,-7.7735 2.343,0 12.854,5.1193 15.947,7.7665 1.858,1.59 2.022,1.9014 1.478,2.8 -0.746,1.2334 -7.475,5.7555 -11.722,7.8786 -3.787,1.8926 -5.024,1.9156 -8.92,0.1659 z"
         id="path109"
         transform="matrix(0.26458333,0,0,0.26458333,0,87)" /><path
         style="fill:#df601c;fill-opacity:1;stroke:#dadada;stroke-width:0.205984"
         d="m -11481.05,5530.2487 c -3.547,-1.7881 -7.21,-3.8869 -8.138,-4.664 -1.503,-1.2573 -1.623,-1.5354 -1.094,-2.5254 1.056,-1.9726 10.084,-7.1251 14.57,-8.3159 1.933,-0.5129 2.71,-0.4767 5,0.233 5.628,1.7436 14.462,7.1007 14.462,8.77 0,0.9721 -6.097,5.3999 -10.664,7.7442 -5.422,2.7836 -6.303,2.7062 -14.136,-1.2419 z"
         id="path110"
         transform="matrix(0.26458333,0,0,0.26458333,0,87)" /><path
         style="fill:#df601c;fill-opacity:1;stroke:#dadada;stroke-width:0.205984"
         d="m -11505.286,5516.2112 c -5.678,-2.757 -11.347,-6.1863 -11.686,-7.0694 -0.693,-1.8072 13.098,-9.6419 16.972,-9.6419 3.558,0 16.75,7.2693 16.75,9.2296 0,1.5708 -13.573,9.7704 -16.173,9.7704 -0.632,0 -3.27,-1.0299 -5.863,-2.2887 z"
         id="path111"
         transform="matrix(0.26458333,0,0,0.26458333,0,87)" /><path
         style="fill:#df601c;fill-opacity:1;stroke:#dadada;stroke-width:0.205984"
         d="m -11531.732,5501.2318 c -4.799,-2.3356 -10.518,-6.0409 -10.518,-6.8145 0,-1.3306 14.106,-8.9174 16.58,-8.9174 2.621,0 10.66,3.895 15.361,7.4431 l 1.691,1.2761 -2.101,1.8643 c -2.699,2.3957 -12.706,7.4165 -14.781,7.4165 -0.865,0 -3.669,-1.0207 -6.232,-2.2681 z"
         id="path112"
         transform="matrix(0.26458333,0,0,0.26458333,0,87)" /><path
         style="fill:#df601c;fill-opacity:1;stroke:#dadada;stroke-width:0.205984"
         d="m -11557,5487.1065 c -4.43,-2.3634 -8.236,-4.9879 -8.597,-5.9294 -0.481,-1.2527 1.907,-3.1656 7.293,-5.8438 4.579,-2.2772 5.564,-2.5834 8.304,-2.5834 2.749,0 3.711,0.3016 8.305,2.6038 2.857,1.432 5.87,3.1719 6.695,3.8663 l 1.5,1.2626 -1.25,1.0233 c -2.11,1.7275 -7.833,5.037 -10.869,6.2854 -4.294,1.7659 -7.103,1.5969 -11.381,-0.6848 z"
         id="path113"
         transform="matrix(0.26458333,0,0,0.26458333,0,87)" /><path
         style="fill:#df601c;fill-opacity:1;stroke:#dadada;stroke-width:0.205984"
         d="m -11578.525,5475.0519 c -1.557,-0.6774 -9.422,-5.8206 -10.406,-6.8048 -0.821,-0.8214 -0.82,-0.9174 0.03,-1.8618 2.009,-2.2263 12.902,-6.8946 16.035,-6.8719 3.333,0.024 13.673,5.2576 14.465,7.3215 0.446,1.1627 -1.631,2.7207 -7.649,5.7375 -4.13,2.0703 -5.629,2.5661 -8.25,2.728 -1.762,0.1088 -3.664,0 -4.228,-0.2485 z"
         id="path114"
         transform="matrix(0.26458333,0,0,0.26458333,0,87)" /><path
         style="fill:#df601c;fill-opacity:1;stroke:#dadada;stroke-width:0.205984"
         d="m -11602.105,5461.2859 c -3.768,-1.7529 -9.645,-5.6581 -9.645,-6.409 0,-1.4843 12.941,-8.377 15.728,-8.377 1.798,0 7.156,2.464 11.968,5.503 3.221,2.0339 3.318,2.1531 2.496,3.0611 -0.47,0.5197 -3.628,2.3256 -7.018,4.0132 -7.39,3.6793 -9.594,4.0392 -13.529,2.2087 z"
         id="path115"
         transform="matrix(0.26458333,0,0,0.26458333,0,87)" /><path
         style="fill:#df601c;fill-opacity:1;stroke:#dadada;stroke-width:0.205984"
         d="m -11623.61,5449.0478 c -3.255,-1.5207 -8.931,-4.9885 -9.878,-6.0351 -0.812,-0.897 -0.763,-0.997 1.069,-2.1961 2.168,-1.419 12.048,-5.5247 14.587,-6.0621 1.403,-0.2968 2.478,0.055 6.755,2.2064 2.797,1.4076 5.753,3.0907 6.567,3.74 2.026,1.6153 1.535,2.0923 -6.038,5.8623 -7.167,3.5682 -9.708,4.0516 -13.062,2.4846 z"
         id="path116"
         transform="matrix(0.26458333,0,0,0.26458333,0,87)" /><path
         style="fill:#df601c;fill-opacity:1;stroke:#dadada;stroke-width:0.205984"
         d="m -11648,5435.3719 c -7.02,-3.7491 -11.75,-6.9142 -11.75,-7.8634 0,-0.6111 8.288,-4.7642 12,-6.0134 2.276,-0.7658 3.884,-1.0073 5.364,-0.8055 3.785,0.5158 17.136,7.9303 17.136,9.5161 0,1.7352 -10.933,7.2267 -15.136,7.6025 -2.41,0.2155 -3.003,0.026 -7.614,-2.4363 z"
         id="path117"
         transform="matrix(0.26458333,0,0,0.26458333,0,87)" /><path
         style="fill:#df601c;fill-opacity:1;stroke:#dadada;stroke-width:0.205984"
         d="m -11610.874,5431.3165 c -5.682,-2.0538 -24.876,-13.0875 -24.876,-14.3003 0,-1.3142 10.222,-6.1772 14.278,-6.7929 1.704,-0.2586 2.847,0.053 7.163,1.9524 8.93,3.9302 23.559,12.1994 23.559,13.317 0,0.7447 -4.227,3.2727 -8.405,5.0269 -5.085,2.1345 -7.554,2.3024 -11.719,0.7969 z"
         id="path118"
         transform="matrix(0.26458333,0,0,0.26458333,0,87)" /><path
         style="fill:#df601c;fill-opacity:1;stroke:#dadada;stroke-width:0.205984"
         d="m -11592.704,5441.4618 c -6.095,-3.093 -7.378,-4.0204 -6.817,-4.9279 0.525,-0.8489 6.654,-4.0955 10.693,-5.6638 2.811,-1.0914 4.348,-1.4135 5.907,-1.2378 2.487,0.2803 11.002,4.2989 12.413,5.8584 0.981,1.0835 0.98,1.0877 -0.255,2.0639 -2.172,1.7178 -13.142,6.9453 -14.575,6.9453 -0.759,0 -4.074,-1.3672 -7.366,-3.0381 z"
         id="path119"
         transform="matrix(0.26458333,0,0,0.26458333,0,87)" /><path
         style="fill:#df601c;fill-opacity:1;stroke:#dadada;stroke-width:0.205984"
         d="m -11598.649,5415.1886 c -8.149,-4.2072 -14.601,-8.0659 -14.601,-8.7328 0,-0.5749 6.873,-3.9723 10.601,-5.2403 5.404,-1.8378 6.315,-1.693 14.358,2.2816 8.37,4.1354 15.041,7.9169 15.041,8.5254 0,1.1009 -13.453,7.4774 -15.776,7.4774 -0.7,0 -5.03,-1.9401 -9.623,-4.3113 z"
         id="path120"
         transform="matrix(0.26458333,0,0,0.26458333,0,87)" /><path
         style="fill:#df601c;fill-opacity:1;stroke:#dadada;stroke-width:0.205984"
         d="m -11584.057,5400.9751 c -2.232,-1.1439 -4.7,-2.5923 -5.486,-3.2185 l -1.428,-1.1387 2.464,-1.5626 c 1.356,-0.8594 4.271,-2.2592 6.478,-3.1106 3.265,-1.259 4.529,-1.5053 6.772,-1.3193 3.24,0.2687 7.346,1.7624 10.712,3.897 2.251,1.4276 2.355,1.5832 1.602,2.4148 -0.442,0.4888 -3.098,1.9887 -5.901,3.3331 -7.174,3.4411 -9.651,3.5559 -15.213,0.7048 z"
         id="path121"
         transform="matrix(0.26458333,0,0,0.26458333,0,87)" /><path
         style="fill:#df601c;fill-opacity:1;stroke:#dadada;stroke-width:0.205984"
         d="m -11562.882,5390.4349 c -3.511,-1.7265 -6.308,-3.3645 -6.216,-3.6402 0.09,-0.2757 1.407,-1.1754 2.922,-1.9993 l 2.755,-1.498 4.211,1.3778 c 4.704,1.5392 11.245,4.8086 11.146,5.5709 -0.1,0.746 -4.566,2.8345 -6.627,3.0972 -1.475,0.188 -2.985,-0.3478 -8.191,-2.9084 z"
         id="path122"
         transform="matrix(0.26458333,0,0,0.26458333,0,87)" /><path
         style="fill:#df601c;fill-opacity:1;stroke:#dadada;stroke-width:0.205984"
         d="m -11560.25,5413.2423 c -3.968,-1.8773 -9.066,-5.2923 -8.854,-5.9303 0.274,-0.8214 5.123,-3.6126 9.325,-5.367 2.805,-1.1716 4.231,-1.4961 5.796,-1.3197 2.343,0.2641 11.146,4.3965 12.461,5.8497 0.826,0.9133 0.78,1.0055 -1.14,2.2762 -2.751,1.8207 -10.956,5.3179 -13.088,5.5783 -1.195,0.1462 -2.621,-0.1982 -4.5,-1.0872 z"
         id="path123"
         transform="matrix(0.26458333,0,0,0.26458333,0,87)" /><path
         style="fill:#df601c;fill-opacity:1;stroke:#dadada;stroke-width:0.205984"
         d="m -11574.084,5427.9914 c -2.246,-1.1358 -4.936,-2.8014 -5.977,-3.7013 l -1.893,-1.6362 2.083,-1.509 c 1.146,-0.83 4.647,-2.5706 7.78,-3.868 l 5.696,-2.3588 5.198,2.5943 c 2.858,1.4269 5.943,3.1553 6.855,3.841 1.579,1.1881 1.617,1.2907 0.804,2.1886 -0.469,0.5182 -3.203,2.11 -6.075,3.5374 -7.163,3.56 -9.004,3.676 -14.471,0.912 z"
         id="path124"
         transform="matrix(0.26458333,0,0,0.26458333,0,87)" /><path
         style="fill:#df601c;fill-opacity:1;stroke:#dadada;stroke-width:0.205984"
         d="m -11539.881,5401.7387 c -2.884,-1.059 -8.69,-4.2129 -9.594,-5.2113 -0.748,-0.8269 -0.724,-0.9444 0.334,-1.6205 0.628,-0.4008 2.124,-1.1152 3.325,-1.5873 2.614,-1.0279 3.668,-0.7691 10.066,2.4728 6.03,3.0549 7.209,3.9119 6.356,4.6195 -2.424,2.0118 -7.033,2.5949 -10.487,1.3268 z"
         id="path125"
         transform="matrix(0.26458333,0,0,0.26458333,0,87)" /><path
         style="fill:#df601c;fill-opacity:1;stroke:#dadada;stroke-width:0.205984"
         d="m -11519.75,5411.306 c -4.819,-2.0183 -11,-5.2992 -11,-5.8394 0,-1.0108 5.474,-3.1019 7.432,-2.8393 2.204,0.2956 8.303,2.7938 11.988,4.9107 2.547,1.4626 2.632,1.5765 1.83,2.4623 -1.234,1.363 -3.912,2.5026 -5.825,2.4784 -0.921,-0.012 -2.912,-0.5393 -4.425,-1.1727 z"
         id="path126"
         transform="matrix(0.26458333,0,0,0.26458333,0,87)" /><path
         style="fill:#df601c;fill-opacity:1;stroke:#dadada;stroke-width:0.205984"
         d="m -11537.75,5424.3092 c -3.434,-1.4341 -8.229,-4.1305 -9.002,-5.0622 -0.321,-0.3868 -0.447,-0.9244 -0.28,-1.1946 0.513,-0.8309 5.327,-3.4005 9.499,-5.0712 4.921,-1.9702 6.204,-1.8488 12.419,1.1744 4.701,2.287 6.72,3.8649 6.141,4.8006 -0.519,0.841 -6.279,3.9012 -9.925,5.2736 -4.105,1.5451 -5.316,1.556 -8.852,0.079 z"
         id="path127"
         transform="matrix(0.26458333,0,0,0.26458333,0,87)" /><path
         style="fill:#df601c;fill-opacity:1;stroke:#dadada;stroke-width:0.205984"
         d="m -11551.5,5439.9987 c -3.76,-1.6413 -8.821,-4.8783 -9.122,-5.8345 -0.429,-1.3621 12.369,-7.6643 15.565,-7.6643 2.078,0 9.876,3.8389 12.625,6.2151 l 1.854,1.6029 -1.827,1.3937 c -2.555,1.9488 -10.563,5.3103 -13.306,5.5854 -1.794,0.18 -3.045,-0.1005 -5.789,-1.2983 z"
         id="path131"
         transform="matrix(0.26458333,0,0,0.26458333,0,87)" /><path
         style="fill:#df601c;fill-opacity:1;stroke:#dadada;stroke-width:0.205984"
         d="m -11569.758,5454.1735 c -2.608,-1.3366 -5.592,-3.0789 -6.631,-3.8719 -1.805,-1.3778 -1.851,-1.4839 -1.034,-2.3868 1.034,-1.142 12.297,-6.7036 14.472,-7.1459 1.029,-0.2092 2.454,0.04 4.25,0.7429 3.118,1.2207 9.324,4.9667 10.643,6.4236 0.878,0.9703 0.848,1.0272 -1.271,2.3676 -3.775,2.3884 -11.505,5.8292 -13.636,6.0694 -1.723,0.1942 -2.808,-0.1568 -6.793,-2.1989 z"
         id="path133"
         transform="matrix(0.26458333,0,0,0.26458333,0,87)" /><path
         style="fill:#df601c;fill-opacity:1;stroke:#dadada;stroke-width:0.205984"
         d="m -11544,5468.1239 c -3.504,-1.5316 -8.024,-4.1257 -9.942,-5.7068 -1.759,-1.4497 -1.814,-1.5817 -1.023,-2.4551 1.309,-1.4468 13.569,-7.4621 15.209,-7.4621 1.76,0 11.606,4.908 14.034,6.9955 l 1.722,1.4815 -1.25,1.0234 c -0.687,0.5629 -3.744,2.279 -6.793,3.8137 -6.294,3.1684 -8.858,3.6638 -11.957,2.3099 z"
         id="path134"
         transform="matrix(0.26458333,0,0,0.26458333,0,87)" /><path
         style="fill:#df601c;fill-opacity:1;stroke:#dadada;stroke-width:0.205984"
         d="m -11529.75,5451.4579 c -5.287,-2.5062 -9,-4.8607 -9,-5.708 0,-1.7247 11.614,-7.2332 15.25,-7.2332 3.863,0 15.493,5.6483 15.149,7.3577 -0.353,1.756 -12.322,7.638 -15.489,7.6117 -0.913,-0.01 -3.572,-0.9202 -5.91,-2.0282 z"
         id="path135"
         transform="matrix(0.26458333,0,0,0.26458333,0,87)" /><path
         style="fill:#df601c;fill-opacity:1;stroke:#dadada;stroke-width:0.205984"
         d="m -11517.503,5434.8305 c -3.026,-1.5027 -5.926,-3.1997 -6.443,-3.7711 -0.924,-1.0211 -0.92,-1.0559 0.253,-2.034 2.342,-1.9532 11.937,-6.5255 13.693,-6.5255 1.757,0 11.352,4.5723 13.693,6.5255 1.15,0.9587 1.161,1.0311 0.305,1.977 -1.532,1.6923 -11.053,6.1275 -13.641,6.354 -2.065,0.1807 -3.037,-0.1318 -7.86,-2.5259 z"
         id="path136"
         transform="matrix(0.26458333,0,0,0.26458333,0,87)" /><path
         style="fill:#df601c;fill-opacity:1;stroke:#dadada;stroke-width:0.205984"
         d="m -11498.178,5421.7135 c -3.775,-1.0155 -12.572,-5.4668 -12.572,-6.3616 0,-0.224 1.26,-0.9841 2.8,-1.6891 2.099,-0.961 3.335,-1.2215 4.937,-1.0408 2.187,0.2464 12.264,4.7713 13.877,6.2306 0.834,0.7552 0.839,0.8712 0.07,1.7256 -0.862,0.9528 -3.698,1.9381 -5.429,1.886 -0.55,-0.017 -2.205,-0.3544 -3.678,-0.7507 z"
         id="path137"
         transform="matrix(0.26458333,0,0,0.26458333,0,87)" /><path
         style="fill:#df601c;fill-opacity:1;stroke:#dadada;stroke-width:0.205984"
         d="m -11481.156,5430.7852 c -3.11,-1.5187 -6.329,-3.2411 -7.153,-3.8276 -1.417,-1.0091 -1.452,-1.116 -0.658,-1.994 1.339,-1.4794 4.938,-2.6328 7.249,-2.3229 2.404,0.3224 12.812,5.3031 14.131,6.7622 0.897,0.9921 0.872,1.0343 -1.404,2.3682 -3.964,2.3231 -5.67,2.1848 -12.165,-0.9859 z"
         id="path138"
         transform="matrix(0.26458333,0,0,0.26458333,0,87)" /><path
         style="fill:#df601c;fill-opacity:1;stroke:#dadada;stroke-width:0.205984"
         d="m -11489.87,5448.7723 c -3.268,-1.2527 -9.743,-4.7929 -10.701,-5.8511 -0.905,-0.9999 -0.893,-1.0448 0.574,-2.2389 0.823,-0.6702 3.711,-2.3354 6.418,-3.7005 6.563,-3.3108 7.541,-3.2927 14.615,0.2702 3.005,1.5136 6.027,3.2063 6.714,3.7615 l 1.25,1.0093 -1.75,1.5219 c -0.962,0.8371 -3.598,2.4224 -5.857,3.5229 -4.704,2.2915 -8.308,2.837 -11.263,1.7047 z"
         id="path139"
         transform="matrix(0.26458333,0,0,0.26458333,0,87)" /><path
         style="fill:#df601c;fill-opacity:1;stroke:#dadada;stroke-width:0.205984"
         d="m -11505.995,5463.7714 c -5.012,-2.2226 -9.505,-4.988 -9.505,-5.8496 0,-0.85 3.543,-3.1534 9.939,-6.4615 l 5.103,-2.6391 7.179,3.7144 c 3.948,2.0428 7.427,4.1252 7.729,4.6275 0.46,0.764 0.264,1.1578 -1.2,2.4084 -2.784,2.3788 -9.832,5.5866 -12.727,5.7925 -2.049,0.1457 -3.273,-0.1535 -6.518,-1.5926 z"
         id="path140"
         transform="matrix(0.26458333,0,0,0.26458333,0,87)" /><path
         style="fill:#df601c;fill-opacity:1;stroke:#dadada;stroke-width:0.205984"
         d="m -11521.927,5480.2001 c -3.885,-1.6704 -8.849,-4.7258 -9.528,-5.8648 -0.457,-0.7666 -0.233,-1.1867 1.383,-2.5983 3.154,-2.7554 10.036,-5.9026 13.446,-6.1493 2.593,-0.1875 3.349,0 6.529,1.5799 4.346,2.1647 8.326,4.7765 9.035,5.928 0.736,1.1965 -0.519,2.4292 -4.727,4.6401 -7.567,3.9765 -11.297,4.546 -16.138,2.4644 z"
         id="path141"
         transform="matrix(0.26458333,0,0,0.26458333,0,87)" /><path
         style="fill:#df601c;fill-opacity:1;stroke:#dadada;stroke-width:0.205984"
         d="m -11494.881,5494.7387 c -2.849,-1.0461 -8.319,-4.0432 -11.095,-6.0793 l -2.476,-1.8161 2.176,-1.931 c 2.593,-2.3009 10.108,-6.1694 12.902,-6.6415 2.535,-0.4282 8.446,1.7585 13.092,4.8428 4.533,3.0089 4.753,3.5552 2.282,5.6649 -2.865,2.4467 -11.447,6.7291 -13.399,6.6861 -0.88,-0.019 -2.447,-0.346 -3.482,-0.7259 z"
         id="path142"
         transform="matrix(0.26458333,0,0,0.26458333,0,87)" /><path
         style="fill:#df601c;fill-opacity:1;stroke:#dadada;stroke-width:0.205984"
         d="m -11481.275,5477.075 c -4.293,-1.832 -10.475,-5.8521 -10.475,-6.8119 0,-1.0165 3.422,-3.4391 8,-5.6634 5.242,-2.547 8.653,-2.5615 14.265,-0.061 2.208,0.9839 5.325,2.6275 6.927,3.6524 2.88,1.8418 2.903,1.8754 1.987,2.8873 -2.438,2.6945 -12.559,7.435 -15.815,7.4077 -0.888,-0.01 -3.088,-0.6425 -4.889,-1.4113 z"
         id="path143"
         transform="matrix(0.26458333,0,0,0.26458333,0,87)" /><path
         style="fill:#df601c;fill-opacity:1;stroke:#dadada;stroke-width:0.205984"
         d="m -11465.263,5461.3495 c -3.676,-1.3234 -9.785,-4.7459 -11.136,-6.2379 -0.87,-0.962 -0.824,-1.032 1.83,-2.7938 4.079,-2.7076 10.808,-5.8179 12.587,-5.8179 1.725,0 10.471,4.0838 14.114,6.5907 l 2.296,1.5794 -1.682,1.4036 c -2.4,2.0038 -10.384,5.8809 -12.746,6.1895 -1.381,0.1804 -3.01,-0.1024 -5.263,-0.9136 z"
         id="path144"
         transform="matrix(0.26458333,0,0,0.26458333,0,87)" /><path
         style="fill:#df601c;fill-opacity:1;stroke:#dadada;stroke-width:0.205984"
         d="m -11458.376,5441.8422 c -6.79,-3.5219 -9.482,-5.2677 -9.242,-5.9942 0.109,-0.329 1.452,-1.2415 2.985,-2.0277 3.324,-1.7049 3.523,-1.6646 12.358,2.5038 5.878,2.7736 7.707,3.9766 7.227,4.7538 -0.455,0.7356 -6.098,3.422 -7.188,3.422 -0.559,0 -3.321,-1.196 -6.14,-2.6577 z"
         id="path145"
         transform="matrix(0.26458333,0,0,0.26458333,0,87)" /><path
         style="fill:#df601c;fill-opacity:1;stroke:#dadada;stroke-width:0.205984"
         d="m -11437.597,5452.0064 c -3.842,-1.9213 -7.381,-3.9302 -7.864,-4.4641 -0.852,-0.9415 -0.798,-1.0169 1.791,-2.5019 3.871,-2.2197 5.128,-2.0542 12.67,1.6678 3.575,1.7641 7.14,3.6494 7.921,4.1894 l 1.42,0.982 -1.672,1.2758 c -2.037,1.5536 -4.021,2.3445 -5.882,2.3445 -0.769,0 -4.542,-1.5721 -8.384,-3.4935 z"
         id="path146"
         transform="matrix(0.26458333,0,0,0.26458333,0,87)" /><path
         style="fill:#df601c;fill-opacity:1;stroke:#dadada;stroke-width:0.205984"
         d="m -11440.839,5473.8068 c -5.768,-2.526 -10.902,-5.6743 -10.907,-6.6881 0,-1.6504 11.826,-7.602 15.137,-7.6127 3.298,-0.011 13.664,4.6164 16.359,7.3019 0.667,0.6639 0.555,0.9125 -1,2.2273 -0.962,0.8141 -3.817,2.5207 -6.343,3.7927 -6.103,3.0731 -8.124,3.2225 -13.246,0.9789 z"
         id="path147"
         transform="matrix(0.26458333,0,0,0.26458333,0,87)" /><path
         style="fill:#df601c;fill-opacity:1;stroke:#dadada;stroke-width:0.205984"
         d="m -11459.332,5488.6249 c -4.183,-2.1313 -7.844,-4.2839 -8.136,-4.7837 -0.436,-0.7453 -0.262,-1.126 0.968,-2.1184 2.498,-2.015 13.028,-7.2229 14.603,-7.2229 2.362,0 17.147,7.7071 17.147,8.9381 0,1.3362 -13.422,9.0619 -15.743,9.0619 -0.679,0 -4.657,-1.7438 -8.839,-3.875 z"
         id="path148"
         transform="matrix(0.26458333,0,0,0.26458333,0,87)" /><path
         style="fill:#df601c;fill-opacity:1;stroke:#dadada;stroke-width:0.205984"
         d="m -11470.822,5508.2443 c -5.805,-2.4975 -11.928,-6.6217 -11.928,-8.034 0,-1.0118 4.058,-3.8677 9.25,-6.5104 3.837,-1.9529 4.832,-2.2587 6.75,-2.0754 3.996,0.3817 17.31,7.5356 16.72,8.9835 -0.896,2.1981 -13.076,8.9048 -16.111,8.8713 -1.022,-0.011 -3.129,-0.567 -4.681,-1.235 z"
         id="path149"
         transform="matrix(0.26458333,0,0,0.26458333,0,87)" /><path
         style="fill:#df601c;fill-opacity:1;stroke:#dadada;stroke-width:0.205984"
         d="m -11442.25,5523.327 c -4.373,-1.5405 -10.985,-5.0261 -13.254,-6.988 l -1.85,-1.5987 1.427,-1.4442 c 3.429,-3.4699 11.757,-7.7952 15.012,-7.7958 3.715,-7e-4 18.035,7.9549 17.382,9.6569 -0.601,1.5659 -10.931,8.0117 -14.467,9.0273 -0.55,0.1579 -2.462,-0.2279 -4.25,-0.8575 z"
         id="path150"
         transform="matrix(0.26458333,0,0,0.26458333,0,87)" /><path
         style="fill:#df601c;fill-opacity:1;stroke:#dadada;stroke-width:0.205984"
         d="m -11430.344,5503.837 c -4.302,-1.9092 -7.842,-3.867 -10.305,-5.6989 -1.383,-1.0281 -1.548,-1.3493 -1.02,-1.985 1.878,-2.263 13.061,-8.6532 15.143,-8.6532 1.735,0 13.599,6.0587 16.103,8.2231 l 1.857,1.6055 -2.717,2.0464 c -4.202,3.1652 -9.734,5.778 -12.675,5.9875 -2.057,0.1465 -3.275,-0.1444 -6.386,-1.5254 z"
         id="path151"
         transform="matrix(0.26458333,0,0,0.26458333,0,87)" /><path
         style="fill:#df601c;fill-opacity:1;stroke:#dadada;stroke-width:0.205984"
         d="m -11416.021,5486.5367 c -3.288,-1.6298 -6.766,-3.6548 -7.729,-4.5 l -1.75,-1.5368 1.75,-1.5279 c 0.963,-0.8404 4,-2.6612 6.75,-4.0464 6.342,-3.1944 7.37,-3.148 15.273,0.6881 5.71,2.7721 8.477,4.5422 8.477,5.4235 0,0.7364 -5.924,4.9074 -9.612,6.767 -4.758,2.3995 -6.002,2.2797 -13.159,-1.2675 z"
         id="path152"
         transform="matrix(0.26458333,0,0,0.26458333,0,87)" /><path
         style="fill:#df601c;fill-opacity:1;stroke:#dadada;stroke-width:0.205984"
         d="m -11413,5464.3292 c -7.931,-4.1671 -10.475,-5.8043 -9.905,-6.3739 0.253,-0.2528 1.886,-1.2219 3.63,-2.1538 l 3.171,-1.6942 3.052,1.3803 c 5.414,2.4486 11.508,5.4516 13.222,6.5154 1.417,0.8795 1.573,1.1534 1.03,1.8075 -0.837,1.0083 -6.168,3.692 -7.31,3.6803 -0.49,0 -3.59,-1.4277 -6.89,-3.1616 z"
         id="path153"
         transform="matrix(0.26458333,0,0,0.26458333,0,87)" /><path
         style="fill:#df601c;fill-opacity:1;stroke:#dadada;stroke-width:0.205984"
         d="m -11384.256,5478.1841 c -1.241,-0.4147 -4.953,-2.1446 -8.25,-3.8442 -6.759,-3.4846 -7.453,-4.4108 -4.748,-6.337 2.388,-1.7001 4.742,-1.7886 8.623,-0.3241 4.294,1.6207 13.702,6.2523 14.394,7.0867 0.604,0.7273 -1.233,2.2508 -4.218,3.4978 -2.148,0.8977 -2.909,0.8873 -5.801,-0.079 z"
         id="path154"
         transform="matrix(0.26458333,0,0,0.26458333,0,87)" /><path
         style="fill:#df601c;fill-opacity:1;stroke:#dadada;stroke-width:0.205984"
         d="m -11365.6,5487.5137 c -4.383,-2.1923 -8.365,-4.4228 -8.848,-4.9565 -0.851,-0.9401 -0.803,-1.0148 1.535,-2.3889 1.872,-1.1 3.039,-1.4184 5.203,-1.4184 2.459,0 3.646,0.4269 10.035,3.6115 3.985,1.9863 7.626,4.0311 8.09,4.5438 0.792,0.8756 0.79,0.9796 -0.04,1.7089 -1.63,1.4408 -4.854,2.8858 -6.436,2.8858 -0.965,0 -4.65,-1.5394 -9.543,-3.9862 z"
         id="path155"
         transform="matrix(0.26458333,0,0,0.26458333,0,87)" /><path
         style="fill:#df601c;fill-opacity:1;stroke:#dadada;stroke-width:0.205984"
         d="m -11384.75,5502.3344 c -4.233,-1.8136 -9.023,-4.3122 -11.42,-5.9559 l -2.169,-1.4884 1.531,-1.5803 c 0.843,-0.8691 3.731,-2.9256 6.42,-4.5701 6.421,-3.9272 7.353,-3.9362 15.168,-0.1461 6.25,3.0316 9.97,5.5079 9.97,6.6365 0,1.0229 -4.058,3.9969 -8.346,6.1158 -4.695,2.3206 -7.471,2.5666 -11.154,0.9885 z"
         id="path156"
         transform="matrix(0.26458333,0,0,0.26458333,0,87)" /><path
         style="fill:#df601c;fill-opacity:1;stroke:#dadada;stroke-width:0.205984"
         d="m -11399.276,5520.0266 c -1.9,-0.5769 -13.178,-6.4006 -14.675,-7.5781 -0.715,-0.5617 -1.299,-1.4527 -1.299,-1.9801 0,-1.24 3.5,-3.795 9.25,-6.7537 5.794,-2.9807 7.015,-2.9039 14.802,0.9306 6.669,3.2846 10.019,5.5882 9.624,6.6186 -0.38,0.9896 -6.25,5.2598 -10.217,7.4331 -3.249,1.7792 -4.986,2.0879 -7.485,1.3296 z"
         id="path157"
         transform="matrix(0.26458333,0,0,0.26458333,0,87)" /><path
         style="fill:#df601c;fill-opacity:1;stroke:#dadada;stroke-width:0.205984"
         d="m -11415.863,5538.2271 c -3.706,-1.5941 -10.748,-5.7621 -12.524,-7.4128 -1.138,-1.0576 -1.286,-1.4486 -0.828,-2.1768 1.461,-2.3168 11.529,-8.6072 14.392,-8.9912 3.016,-0.4046 11.092,3.3186 17.799,8.2056 l 2.476,1.8041 -1.976,1.7113 c -2.28,1.9752 -9.078,6.159 -11.912,7.3315 -2.603,1.0771 -4.039,0.9859 -7.427,-0.4717 z"
         id="path158"
         transform="matrix(0.26458333,0,0,0.26458333,0,87)" /><path
         style="fill:#df601c;fill-opacity:1;stroke:#dadada;stroke-width:0.205984"
         d="m -11388.751,5553.2226 c -6.049,-2.9439 -12.999,-7.4808 -12.999,-8.4854 0,-1.0214 1.939,-2.791 5.987,-5.464 5.466,-3.6098 8.441,-4.9147 10.558,-4.6308 3.471,0.4657 18.955,8.8864 18.955,10.3087 0,0.5664 -4.368,4.2947 -7.5,6.4009 -3.528,2.3728 -7.334,4.1479 -8.894,4.1479 -0.786,0 -3.534,-1.0248 -6.107,-2.2773 z"
         id="path159"
         transform="matrix(0.26458333,0,0,0.26458333,0,87)" /><path
         style="fill:#df601c;fill-opacity:1;stroke:#dadada;stroke-width:0.205984"
         d="m -11373.308,5534.0609 c -5.348,-2.282 -14.942,-8.0488 -14.942,-8.9816 0,-0.6989 6.688,-5.4654 10.68,-7.6124 3.861,-2.0761 3.975,-2.1031 6.437,-1.5348 3.195,0.7375 14.125,5.9657 16.258,7.777 2.457,2.0856 2.144,2.964 -2,5.625 -5.707,3.6646 -10.514,6.1523 -11.875,6.1452 -0.687,0 -2.739,-0.6418 -4.558,-1.4184 z"
         id="path160"
         transform="matrix(0.26458333,0,0,0.26458333,0,87)" /><path
         style="fill:#df601c;fill-opacity:1;stroke:#dadada;stroke-width:0.205984"
         d="m -11356.715,5516.7452 c -3.941,-1.6231 -10.017,-4.8594 -12.274,-6.5369 -1.379,-1.0256 -0.723,-1.9018 3.781,-5.0503 5.895,-4.1204 8.585,-5.3302 11.198,-5.0358 2.396,0.2701 14.447,5.9793 16.996,8.0516 1.322,1.0753 1.407,1.302 0.772,2.0664 -1.244,1.4995 -6.385,5.2487 -9.298,6.7809 -3.715,1.9542 -5.891,1.9004 -11.175,-0.2759 z"
         id="path161"
         transform="matrix(0.26458333,0,0,0.26458333,0,87)" /><path
         style="fill:#df601c;fill-opacity:1;stroke:#dadada;stroke-width:0.205984"
         d="m -11339.06,5500.746 c -4.092,-2.0646 -8.115,-4.323 -8.94,-5.0186 l -1.5,-1.2649 1.232,-1.0225 c 0.677,-0.5624 2.207,-1.5945 3.4,-2.2936 l 2.169,-1.271 5.849,2.6265 c 8.622,3.871 13.6,6.5255 13.6,7.2519 0,0.8156 -3.221,3.6647 -4.838,4.2796 -2.256,0.8577 -3.491,0.4875 -10.972,-3.2874 z"
         id="path162"
         transform="matrix(0.26458333,0,0,0.26458333,0,87)" /><path
         style="fill:#df601c;fill-opacity:1;stroke:#dadada;stroke-width:0.205984"
         d="m -11306.75,5516.3137 c -4.005,-1.6661 -13.711,-6.6931 -15.231,-7.8886 -1.012,-0.7955 -1.18,-1.1801 -0.745,-1.7037 1.078,-1.299 4.917,-3.2215 6.432,-3.2215 2.426,0 15.759,6.1819 19.794,9.1771 0.991,0.7353 0.989,0.755 -0.25,2.097 -1.481,1.6058 -3.926,2.7341 -5.859,2.7047 -0.765,-0.012 -2.628,-0.5359 -4.141,-1.165 z"
         id="path163"
         transform="matrix(0.26458333,0,0,0.26458333,0,87)" /><path
         style="fill:#df601c;fill-opacity:1;stroke:#dadada;stroke-width:0.205984"
         d="m -11324.25,5533.3063 c -3.985,-1.6685 -9.845,-4.682 -12.908,-6.6383 -2.065,-1.3195 -2.622,-1.941 -2.5,-2.7899 0.189,-1.3034 3.612,-3.9762 9.144,-7.1386 3.207,-1.8335 4.366,-2.2511 5.764,-2.077 3.992,0.4971 19.233,8.285 19.853,10.1444 0.433,1.3002 -12.898,9.6925 -15.353,9.6648 -0.687,-0.01 -2.487,-0.5322 -4,-1.1654 z"
         id="path164"
         transform="matrix(0.26458333,0,0,0.26458333,0,87)" /><path
         style="fill:#df601c;fill-opacity:1;stroke:#dadada;stroke-width:0.205984"
         d="m -11345.406,5548.7822 c -5.285,-2.3074 -11.016,-5.6351 -12.661,-7.3526 -1.307,-1.3639 -1.323,-1.4464 -0.462,-2.3974 1.282,-1.4164 7.566,-5.6691 10.746,-7.2723 2.173,-1.0958 3.171,-1.3182 4.995,-1.1126 2.743,0.3092 14.516,6.1034 17.235,8.4831 1.75,1.5313 1.809,1.6783 1.08,2.7 -1.12,1.5689 -6.564,5.5475 -9.884,7.2237 -3.83,1.9333 -6.128,1.8767 -11.049,-0.2719 z"
         id="path165"
         transform="matrix(0.26458333,0,0,0.26458333,0,87)" /><path
         style="fill:#df601c;fill-opacity:1;stroke:#dadada;stroke-width:0.205984"
         d="m -11356.306,5570.8105 c -2.35,-0.8397 -9.94,-4.9296 -13.444,-7.2441 -3.635,-2.4013 -3.682,-3.5611 -0.25,-6.1882 1.375,-1.0525 4.75,-3.0514 7.5,-4.442 4.334,-2.1913 5.293,-2.496 7.199,-2.2854 3.705,0.4092 18.119,8.1412 18.882,10.1279 0.38,0.9906 -1.638,3.146 -5.622,6.0064 -6.081,4.3652 -10.123,5.5057 -14.265,4.0254 z"
         id="path166"
         transform="matrix(0.26458333,0,0,0.26458333,0,87)" /><path
         style="fill:#df601c;fill-opacity:1;stroke:#dadada;stroke-width:0.205984"
         d="m -11328,5586.5206 c -6.627,-3.4441 -10.921,-6.0849 -12.877,-7.9199 l -1.377,-1.2918 1.377,-1.4729 c 1.821,-1.948 8.799,-7.1481 11.31,-8.4295 1.439,-0.7339 2.596,-0.9489 4.158,-0.7729 3.435,0.3872 15.725,6.6518 19.278,9.8268 1.467,1.311 1.493,1.4043 0.711,2.5977 -1.111,1.6958 -6.713,6.2929 -10.439,8.5668 -4.209,2.569 -5.257,2.4738 -12.141,-1.1043 z"
         id="path167"
         transform="matrix(0.26458333,0,0,0.26458333,0,87)" /><path
         style="fill:#df601c;fill-opacity:1;stroke:#dadada;stroke-width:0.205984"
         d="m -11317.577,5563.5248 c -4.372,-2.1863 -8.843,-4.7549 -9.936,-5.7081 l -1.987,-1.7329 2,-2.0823 c 2.744,-2.8562 10.352,-7.8815 12.559,-8.2957 1.327,-0.249 2.565,-0.037 4.627,0.7908 3.679,1.4781 11.72,5.7376 14.54,7.7025 1.225,0.8529 2.461,1.7108 2.748,1.9064 0.748,0.5094 -3.282,4.4614 -7.583,7.436 -3.829,2.6481 -6.498,3.9584 -8.065,3.9584 -0.525,0 -4.532,-1.7888 -8.903,-3.9751 z"
         id="path168"
         transform="matrix(0.26458333,0,0,0.26458333,0,87)" /><path
         style="fill:#df601c;fill-opacity:1;stroke:#dadada;stroke-width:0.205984"
         d="m -11293.75,5548.8491 c -4.584,-2.0033 -10.544,-5.2659 -13.405,-7.3381 -1.99,-1.4419 -2.082,-1.6103 -1.403,-2.5802 2.051,-2.928 11.494,-8.4309 14.468,-8.4309 0.926,0 3.013,0.4539 4.637,1.0088 4.592,1.5686 13.82,6.2504 15.169,7.6955 l 1.215,1.3024 -1.465,1.5367 c -3.451,3.6188 -11.517,8.4617 -14.074,8.4505 -0.765,0 -3.079,-0.7435 -5.142,-1.6447 z"
         id="path169"
         transform="matrix(0.26458333,0,0,0.26458333,0,87)" /><path
         style="fill:#df601c;fill-opacity:1;stroke:#dadada;stroke-width:0.205984"
         d="m -11284.5,5527.5673 c -4.4,-2.2099 -8.787,-4.6791 -9.749,-5.4871 l -1.749,-1.4691 1.249,-1.0298 c 0.687,-0.5664 2.327,-1.623 3.645,-2.3479 l 2.395,-1.3182 7.778,3.6327 c 13.822,6.4554 14.82,7.3953 10.756,10.125 -3.948,2.6511 -5.229,2.4628 -14.325,-2.1056 z"
         id="path170"
         transform="matrix(0.26458333,0,0,0.26458333,0,87)" /><path
         style="fill:#df601c;fill-opacity:1;stroke:#dadada;stroke-width:0.205984"
         d="m -11252.039,5543.3272 c -5.875,-2.5101 -13.284,-6.4613 -14.212,-7.579 -1.425,-1.717 2.046,-5.2423 5.166,-5.2465 2.399,0 15.186,5.682 20.916,9.2991 1.7,1.0731 1.85,1.3232 1.312,2.1843 -0.845,1.3541 -4.986,3.5168 -6.71,3.5049 -0.788,-0.01 -3.7,-0.9786 -6.472,-2.1628 z"
         id="path171"
         transform="matrix(0.26458333,0,0,0.26458333,0,87)" /><path
         style="fill:#df601c;fill-opacity:1;stroke:#dadada;stroke-width:0.205984"
         d="m -11262.75,5564.8057 c -6.543,-3.0207 -11.737,-5.9036 -13.355,-7.4129 -1.491,-1.3895 -1.055,-2.0652 3.703,-5.7396 5.889,-4.5481 7.686,-5.3277 11.56,-5.0167 2.698,0.2165 4.339,0.8213 10.276,3.786 3.887,1.9405 7.829,4.1693 8.762,4.9529 1.468,1.2331 1.621,1.5653 1.137,2.47 -0.735,1.3727 -9.312,7.8864 -11.692,8.8791 -2.856,1.1913 -4.186,0.9457 -10.391,-1.9188 z"
         id="path172"
         transform="matrix(0.26458333,0,0,0.26458333,0,87)" /><path
         style="fill:#df601c;fill-opacity:1;stroke:#dadada;stroke-width:0.205984"
         d="m -11280.5,5582.8565 c -7.162,-3.3254 -14.71,-7.5106 -16.031,-8.8892 -1.292,-1.3488 -1.322,-1.4855 -0.572,-2.6296 2.136,-3.2601 11.564,-9.8378 14.101,-9.8378 1.783,0 16.159,6.9258 19.627,9.4561 1.217,0.8873 2.125,1.9582 2.125,2.5045 0,0.5249 -1.068,1.896 -2.375,3.0469 -3.548,3.126 -11.037,7.9938 -12.282,7.9832 -0.601,-0.01 -2.668,-0.7404 -4.593,-1.6341 z"
         id="path173"
         transform="matrix(0.26458333,0,0,0.26458333,0,87)" /><path
         style="fill:#df601c;fill-opacity:1;stroke:#dadada;stroke-width:0.205984"
         d="m -11295.884,5604.1093 c -7.739,-3.9662 -13.763,-7.7591 -14.221,-8.9547 -0.804,-2.0935 12.599,-11.6597 16.322,-11.6501 3.171,0.01 17.981,7.8077 20.738,10.9214 1.324,1.4958 0.661,2.7368 -3.408,6.3803 -4.345,3.8905 -9.013,6.6937 -11.147,6.6937 -1.076,0 -4.014,-1.2022 -8.284,-3.3906 z"
         id="path174"
         transform="matrix(0.26458333,0,0,0.26458333,0,87)" /><path
         style="fill:#df601c;fill-opacity:1;stroke:#dadada;stroke-width:0.205984"
         d="m -11255.076,5626.5756 c -9.248,-4.5206 -18.492,-10.2147 -18.956,-11.6763 -0.419,-1.3213 2.114,-3.9396 10.235,-10.5787 3.411,-2.7889 6.766,-5.5397 7.455,-6.113 1.513,-1.2575 1.218,-1.8736 -1.567,-3.2731 -4.589,-2.307 -4.83,-3.3758 -1.466,-6.512 4.907,-4.5747 11.338,-8.1813 13.858,-7.7723 3.091,0.5016 20.887,9.113 29.935,14.4848 1.879,1.116 3.779,2.5813 4.221,3.2562 0.774,1.1819 0.747,1.2758 -0.749,2.5429 -0.854,0.7237 -5.566,4.7282 -10.471,8.8989 -23.297,19.8082 -24.722,20.5423 -32.495,16.7426 z"
         id="path175"
         transform="matrix(0.26458333,0,0,0.26458333,0,87)" /><path
         style="fill:#df601c;fill-opacity:1;stroke:#dadada;stroke-width:0.205984"
         d="m -11209.5,5591.6247 c -4.464,-1.4525 -26.808,-13.1999 -33.875,-17.8096 -1.306,-0.852 -2.375,-1.8033 -2.375,-2.1138 0,-0.3105 1.069,-1.561 2.375,-2.7788 4.269,-3.9796 10.004,-7.4226 12.365,-7.4226 2.579,0 30.322,13.3105 38.062,18.2614 l 2.745,1.7558 -0.859,1.4534 c -1.038,1.7578 -7.538,7.3059 -10.073,8.5984 -2.21,1.1268 -5.016,1.1455 -8.365,0.056 z"
         id="path176"
         transform="matrix(0.26458333,0,0,0.26458333,0,87)" /><path
         style="fill:#df601c;fill-opacity:1;stroke:#dadada;stroke-width:0.205984"
         d="m -11190.5,5573.8199 c -7.647,-3.3924 -14.663,-6.933 -16.19,-8.1707 l -1.191,-0.9649 1.64,-1.8678 c 1.862,-2.1212 3.892,-3.3166 5.63,-3.3166 2.149,0 11.592,4.2668 18.861,8.5227 5.063,2.9641 5.226,3.122 4.538,4.4075 -0.865,1.6152 -4.486,4.0712 -5.988,4.0606 -0.715,-0.01 -4,-1.2069 -7.3,-2.6708 z"
         id="path177"
         transform="matrix(0.26458333,0,0,0.26458333,0,87)" /><path
         style="fill:#df601c;fill-opacity:1;stroke:#dadada;stroke-width:0.205984"
         d="m -11220.75,5558.8015 c -5.203,-2.2642 -11.75,-5.6153 -14.89,-7.622 -3.125,-1.9967 -3.032,-2.6354 0.753,-5.1642 1.915,-1.2789 2.752,-1.5474 4.23,-1.3569 1.966,0.2536 16.532,7.2022 20.593,9.8242 l 2.436,1.5727 -1.186,1.271 c -1.651,1.7698 -4.588,3.1798 -6.541,3.1403 -0.905,-0.018 -3.332,-0.7676 -5.395,-1.6651 z"
         id="path178"
         transform="matrix(0.26458333,0,0,0.26458333,0,87)" /></g></g></svg>
