<?xml version="1.0" encoding="UTF-8" standalone="no"?>
<!-- Created with Inkscape (http://www.inkscape.org/) -->

<svg
   width="200mm"
   height="200mm"
   viewBox="0 0 200 200"
   version="1.1"
   id="svg1"
   inkscape:version="1.3.1 (91b66b0783, 2023-11-16)"
   sodipodi:docname="PC2.svg"
   xml:space="preserve"
   xmlns:inkscape="http://www.inkscape.org/namespaces/inkscape"
   xmlns:sodipodi="http://sodipodi.sourceforge.net/DTD/sodipodi-0.dtd"
   xmlns="http://www.w3.org/2000/svg"
   xmlns:svg="http://www.w3.org/2000/svg"><sodipodi:namedview
     id="namedview1"
     pagecolor="#ffffff"
     bordercolor="#000000"
     borderopacity="0.25"
     inkscape:showpageshadow="2"
     inkscape:pageopacity="0.0"
     inkscape:pagecheckerboard="0"
     inkscape:deskcolor="#d1d1d1"
     inkscape:document-units="mm"
     inkscape:zoom="0.69486532"
     inkscape:cx="415.90793"
     inkscape:cy="348.26893"
     inkscape:window-width="1920"
     inkscape:window-height="976"
     inkscape:window-x="-8"
     inkscape:window-y="-8"
     inkscape:window-maximized="1"
     inkscape:current-layer="layer1"
     showguides="true" /><defs
     id="defs1" /><g
     inkscape:label="Слой 1"
     inkscape:groupmode="layer"
     id="layer1"><g
       id="g91"
       transform="matrix(1.0833089,0,0,1.0833089,3371.7563,-1211.6047)"><path
         id="path68"
         style="fill:#547586;fill-opacity:1"
         d="m -2980.2667,1156.5781 c -3.9557,0 -6.6208,2.118 -6.6208,5.9531 v 92.7959 c 0,5.0753 2.5058,6.9515 6.6208,6.9515 h 39.0261 c 4.5362,0 6.2239,-2.3517 6.2239,-6.9515 v -92.7959 c 0,-2.6842 -1.5033,-5.9531 -6.2239,-5.9531 z m 0,10.0542 h 39.0261 v 6.2208 h -39.0261 z m 0,12.1708 h 39.0261 v 6.2208 h -39.0261 z m 0,12.5677 h 39.0261 v 6.1077 h -39.0261 z m 18.4997,47.1372 c 2.192,-0.1651 4.4425,0.7695 5.6461,2.5218 1.7038,2.4804 1.5483,5.423 -0.4035,7.6404 -1.9189,2.1338 -4.4262,2.6826 -7.4916,1.7296 -2.1583,-0.9802 -3.8152,-3.4622 -3.8152,-5.7154 0,-0.894 0.2781,-3.9615 3.9325,-5.6343 0.6767,-0.3098 1.401,-0.487 2.1317,-0.5421 z" /><path
         id="path90"
         style="fill:#df601c;fill-opacity:1"
         d="m -3094.8772,1156.5781 c -9.2507,0 -9.2506,4.2529 -9.2506,11.5745 v 61.6717 c 0,7.0267 1.0808,11.6851 9.2506,11.6851 h 36.1611 v 8.1602 h -11.634 -5e-4 c -5.5616,5e-4 -6.2239,7.7243 -6.2239,12.609 h 55.0334 c -0.051,-4.3706 -0.9816,-12.609 -7.2766,-12.609 h -12.0546 v -8.1602 h 37.7192 c 5.1542,0 10.1528,-2.7112 10.1528,-11.6851 v -61.6717 c 0,-6.8565 -2.7539,-11.5745 -10.1528,-11.5745 z m 0,11.5745 h 91.7241 l 5e-4,61.7146 c -30.5879,0.045 -61.179,0.1903 -91.7655,-0.043 -0.2536,-0.2531 -0.4322,-61.6717 0.041,-61.6717 z" /></g></g></svg>
