<?xml version="1.0" encoding="UTF-8" standalone="no"?>
<!-- Created with Inkscape (http://www.inkscape.org/) -->

<svg
   width="200mm"
   height="200mm"
   viewBox="0 0 200 200"
   version="1.1"
   id="svg1"
   inkscape:version="1.3.1 (91b66b0783, 2023-11-16)"
   sodipodi:docname="PDF.svg"
   xml:space="preserve"
   xmlns:inkscape="http://www.inkscape.org/namespaces/inkscape"
   xmlns:sodipodi="http://sodipodi.sourceforge.net/DTD/sodipodi-0.dtd"
   xmlns="http://www.w3.org/2000/svg"
   xmlns:svg="http://www.w3.org/2000/svg"><sodipodi:namedview
     id="namedview1"
     pagecolor="#ffffff"
     bordercolor="#000000"
     borderopacity="0.25"
     inkscape:showpageshadow="2"
     inkscape:pageopacity="0.0"
     inkscape:pagecheckerboard="0"
     inkscape:deskcolor="#d1d1d1"
     inkscape:document-units="mm"
     inkscape:zoom="0.49134398"
     inkscape:cx="295.10894"
     inkscape:cy="215.73481"
     inkscape:window-width="1920"
     inkscape:window-height="976"
     inkscape:window-x="-8"
     inkscape:window-y="-8"
     inkscape:window-maximized="1"
     inkscape:current-layer="layer1"
     showguides="true" /><defs
     id="defs1" /><g
     inkscape:label="Слой 1"
     inkscape:groupmode="layer"
     id="layer1"><g
       id="g45"
       transform="matrix(1.3791311,0,0,1.3791311,8.4030787,-8.0235806)"><path
         id="path4-4"
         style="fill:#df601c;fill-opacity:1"
         d="m 68.994542,96.93961 v 12.0169 c 0,6.6093 -0.072,12.2052 -0.1602,12.4354 -0.1384,0.3605 -0.8335,0.4186 -5.0271,0.4186 -2.6765,0 -4.8669,0.063 -4.8669,0.14 0,0.1212 4.7285,6.0258 16.4667,20.5636 1.6155,2.0007 3.0127,3.6375 3.1047,3.6375 0.092,0 1.9604,-2.2324 4.1522,-4.9609 2.1919,-2.7285 6.5766,-8.1756 9.7436,-12.1047 l 5.7583,-7.1438 -4.7961,-0.072 -4.796,-0.072 v -12.4298 -12.4292 h -9.7896 z" /><path
         id="path10-6"
         style="fill:#547586;fill-opacity:0.905882"
         d="m 30.127242,97.36511 -0.022,7.8428 c 0.01,19.3672 0.06,20.2066 1.48,22.6296 1.4642,2.4984 4.0053,4.4598 6.7241,5.1904 l -5e-4,5e-4 c 1.9752,0.5304 21.903,0.617 21.4995,0.093 -0.1401,-0.1819 -1.1759,-1.4868 -2.3017,-2.8996 l -2.0469,-2.5688 -8.0031,-0.077 -8.0037,-0.077 -1.1244,-0.7447 c -0.7783,-0.5154 -1.3217,-1.167 -1.7638,-2.1166 l -0.6387,-1.372 v -17.9255 l -1e-4,-7.9751 z"
         sodipodi:nodetypes="ccssssscccsscccc" /><path
         id="path6-8"
         style="fill:#547586;fill-opacity:0.905882"
         d="m 67.495942,11.22081 c -27.4432,0 -27.9131,0.01 -29.5026,0.5442 -2.4075,0.811 -4.2826,2.1328 -5.6379,3.9739 -2.047,2.7806 -2.082,3.0063 -2.1926,14.2012 l -0.097,9.8557 h 2.9182 2.9182 l 0.076,-9.4588 c 0.072,-8.9997 0.1025,-9.5102 0.6284,-10.5172 0.6529,-1.2502 2.2476,-2.4522 3.7,-2.789 0.5857,-0.1359 12.2515,-0.2475 26.7421,-0.2475 l 25.7033,-0.01 0.8212,0.9353 0.8211,0.9354 5e-4,9.9787 v 9.9787 l 0.7524,1.5901 c 0.8558,1.809 2.1805,3.0928 4.1248,3.9982 1.332898,0.6166 1.394398,0.6268 11.278898,0.6268 h 9.9384 l 0.7111,0.7421 0.7106,0.7421 v 38.2201 c 0,23.974 -0.096,38.5535 -0.2574,39.1164 -0.408,1.4226 -1.3629,2.6043 -2.6887,3.3264 l -1.2263,0.6677 h -8.0858 -8.0863 l -2.064498,2.5342 c -1.1356,1.3938 -2.16,2.7034 -2.2764,2.9104 l -0.01,0.01 c -0.3217,0.5726 19.656898,0.5553 21.860098,-0.019 4.5273,-1.1792 7.7099,-4.7091 8.3711,-9.2837 0.1666,-1.1529 0.2703,-16.2583 0.2703,-40.8207 l 0.01,-38.9909 -16.1742,-16.3732 -16.174798,-16.3737 z" /><path
         id="rect10"
         style="fill:#df601c;fill-opacity:1;stroke:#df601c;stroke-width:0.736259;stroke-linejoin:round;stroke-opacity:1"
         d="m 17.099842,43.73927 c -6.598,0 -11.9096002,5.3116 -11.9096002,11.9095 v 23.8193 c 0,6.5979 5.3116002,11.9096 11.9096002,11.9096 h 69.306 c 6.598,0 11.9098,-5.3117 11.9098,-11.9096 v -23.8193 c 0,-6.5979 -5.3118,-11.9095 -11.9098,-11.9095 z m -0.562,9.7831 h 9.1507 c 3.4675,0 5.7277,0.1411 6.7808,0.4236 1.6182,0.4238 2.9733,1.3483 4.0649,2.7739 1.0916,1.4127 1.6372,3.243 1.6372,5.4904 0,1.7339 -0.3148,3.1915 -0.9441,4.373 -0.6293,1.1815 -1.4319,2.1122 -2.4078,2.7929 -0.9632,0.6679 -1.9456,1.1115 -2.9474,1.3298 -1.3612,0.2697 -3.3328,0.404 -5.9143,0.404 h -3.7179 v 10.6532 h -5.7021 z m 26.2956,0 h 10.422 c 2.3501,0 4.1412,0.1796 5.3741,0.5393 1.6567,0.4881 3.0759,1.3546 4.2574,2.6003 1.1816,1.2458 2.0805,2.7745 2.6969,4.5851 0.6165,1.7981 0.9251,4.0197 0.9251,6.6654 0,2.3245 -0.2893,4.3278 -0.8673,6.0102 -0.7063,2.0548 -1.714,3.7178 -3.0241,4.9891 -0.9887,0.9632 -2.3245,1.7149 -4.0071,2.2542 -1.2585,0.3981 -2.9407,0.5972 -5.0469,0.5972 h -10.7301 z m 28.5491,0 h 19.3603 v 4.7776 h -13.6582 v 6.6842 h 11.7898 v 4.7777 h -11.7898 v 12.0013 h -5.7021 z m -49.1426,4.7776 v 8.0134 h 3.1207 c 2.2475,0 3.7499,-0.1476 4.5077,-0.4429 0.7576,-0.2953 1.3488,-0.7576 1.7726,-1.3869 0.4366,-0.6293 0.655,-1.3616 0.655,-2.1963 0,-1.0274 -0.3017,-1.8747 -0.9053,-2.5426 -0.6036,-0.6678 -1.3675,-1.0853 -2.2923,-1.2523 -0.6806,-0.1282 -2.0488,-0.1924 -4.1036,-0.1924 z m 26.2957,0 v 18.7052 h 4.2572 c 1.5926,0 2.7422,-0.09 3.4486,-0.2699 0.9247,-0.2313 1.6887,-0.6225 2.2923,-1.1749 0.6165,-0.5521 1.1173,-1.4579 1.5025,-2.7167 0.3853,-1.2713 0.5782,-2.9983 0.5782,-5.1816 0,-2.1833 -0.1929,-3.8593 -0.5782,-5.028 -0.3852,-1.1686 -0.9247,-2.0808 -1.6181,-2.7357 -0.6935,-0.655 -1.5732,-1.0979 -2.6392,-1.3291 -0.7963,-0.1798 -2.3565,-0.2693 -4.6812,-0.2693 z" /></g></g></svg>
