<?xml version="1.0" encoding="UTF-8" standalone="no"?>
<!-- Created with Inkscape (http://www.inkscape.org/) -->

<svg
   width="200mm"
   height="200mm"
   viewBox="0 0 200 200"
   version="1.1"
   id="svg1"
   inkscape:version="1.3.1 (91b66b0783, 2023-11-16)"
   sodipodi:docname="pke.svg"
   xml:space="preserve"
   xmlns:inkscape="http://www.inkscape.org/namespaces/inkscape"
   xmlns:sodipodi="http://sodipodi.sourceforge.net/DTD/sodipodi-0.dtd"
   xmlns="http://www.w3.org/2000/svg"
   xmlns:svg="http://www.w3.org/2000/svg"><sodipodi:namedview
     id="namedview1"
     pagecolor="#ffffff"
     bordercolor="#000000"
     borderopacity="0.25"
     inkscape:showpageshadow="2"
     inkscape:pageopacity="0.0"
     inkscape:pagecheckerboard="0"
     inkscape:deskcolor="#d1d1d1"
     inkscape:document-units="mm"
     inkscape:zoom="0.49134398"
     inkscape:cx="-10.17617"
     inkscape:cy="415.18775"
     inkscape:window-width="1920"
     inkscape:window-height="976"
     inkscape:window-x="-8"
     inkscape:window-y="-8"
     inkscape:window-maximized="1"
     inkscape:current-layer="layer1"
     showguides="true" /><defs
     id="defs1" /><g
     inkscape:label="Слой 1"
     inkscape:groupmode="layer"
     id="layer1"><g
       id="g9"
       transform="matrix(2.5483359,0,0,2.5483359,304.15097,-71.919646)"><path
         id="path3520"
         style="fill:#547586;fill-opacity:1;stroke-width:0.220589"
         d="m -79.465951,53.115104 v 5.17e-4 c -15.68715,9.2e-5 -31.374549,0.08622 -31.582569,0.258899 -0.45838,0.380451 -0.3688,1.676317 0.13436,1.945618 0.23469,0.125598 1.57495,0.228409 2.97811,0.228409 h 2.55127 l 0.015,9.099703 c 0.0342,20.464814 -0.0502,35.7997 -0.1974,35.94871 -0.086,0.087 -1.39536,0.1864 -2.9099,0.22066 l -2.75384,0.062 -0.0698,0.8599 c -0.0442,0.53881 0.0375,0.92878 0.22014,1.04438 0.38426,0.2412 62.847923,0.24122 63.228184,0 0.182419,-0.1156 0.265012,-0.50557 0.220658,-1.04438 l -0.07028,-0.8599 -2.867525,-0.11007 -2.868042,-0.11059 -0.05581,-22.55521 -0.05581,-22.555213 h 2.552299 c 1.403904,0 2.744703,-0.102769 2.979146,-0.228409 0.503653,-0.269427 0.592724,-1.565373 0.133842,-1.946135 -0.208181,-0.172681 -15.894816,-0.259007 -31.582052,-0.258899 z m 3.424598,8.816 c 0.202427,0.0984 -0.03183,1.89367 -0.906405,7.223848 -0.935019,5.702293 -1.092224,7.025593 -0.851111,7.178373 0.162576,0.10304 1.47368,0.189519 2.913517,0.191203 2.393367,0.0033 2.608903,0.03668 2.515609,0.393258 -0.08362,0.319672 -4.031921,6.788408 -9.82679,16.099275 -0.904422,1.452821 -1.373043,1.931261 -1.373043,1.401982 0,-0.108576 0.496674,-3.226316 1.103292,-6.928259 0.606615,-3.70197 1.102775,-6.839673 1.102775,-6.972185 0,-0.161382 -0.913059,-0.240812 -2.764172,-0.240812 -2.198193,0 -2.788985,-0.06507 -2.885612,-0.316776 -0.0692,-0.180001 1.517455,-2.963258 3.677294,-6.451803 4.969234,-8.026728 7.076842,-11.408815 7.181474,-11.521777 0.04586,-0.04986 0.08425,-0.07042 0.113172,-0.05633 z m -3.464388,1.192175 c 0.742847,0.02175 0.859107,0.264049 0.682129,0.821655 -0.184253,0.579839 -0.938352,0.891193 -2.168344,0.894519 -1.316031,0.0042 -3.092184,0.521329 -5.003829,1.458309 -2.043287,1.001384 -4.611454,3.497954 -5.685957,5.528345 -1.478608,2.793522 -1.996782,6.773506 -1.259355,9.673828 0.183753,0.723096 0.694792,2.059403 1.135331,2.969328 1.053075,2.174725 3.69327,4.840857 5.889046,5.946407 1.647771,0.829629 1.844653,1.064299 1.473812,1.756998 -0.13498,0.25211 -0.315851,0.455304 -0.402559,0.451136 -0.08671,-0.0042 -0.951826,-0.41894 -1.922363,-0.922941 -2.550276,-1.324245 -5.197264,-4.021312 -6.463689,-6.585645 -1.268593,-2.569134 -1.660587,-4.529685 -1.51877,-7.594885 0.187754,-4.050043 1.546485,-7.085606 4.444173,-9.926526 2.650156,-2.598406 5.32388,-3.876921 9.069214,-4.337203 0.567849,-0.06978 1.019211,-0.114735 1.373043,-0.129708 0.132656,-0.0056 0.251997,-0.0067 0.358118,-0.0036 z m 5.031217,1.073319 c 0.317232,0.005 0.756414,0.155781 1.336353,0.450619 2.758703,1.40277 5.005521,3.501622 6.539652,6.110221 1.330371,2.261747 1.803323,3.941989 1.933215,6.873482 0.136814,3.084472 -0.206074,4.781726 -1.516186,7.499801 -0.731924,1.518668 -1.264913,2.235362 -2.803963,3.77238 -1.575403,1.573484 -2.258062,2.073888 -3.995622,2.927986 -1.339876,0.65855 -2.719224,1.147576 -3.824573,1.35599 -1.982008,0.373698 -3.809182,0.424635 -4.002856,0.111621 -0.07253,-0.117905 0.02288,-0.450855 0.21239,-0.740007 0.293554,-0.447992 0.582197,-0.545945 1.954919,-0.661975 1.933902,-0.163484 4.3712,-0.952201 6.03064,-1.952335 2.761788,-1.664502 5.29767,-5.155728 6.133476,-8.444446 0.737427,-2.900319 0.219503,-6.880309 -1.259355,-9.673828 -1.022477,-1.931609 -3.625214,-4.486904 -5.622396,-5.520077 -1.769825,-0.915736 -1.917467,-1.061301 -1.717208,-1.692403 0.09004,-0.283416 0.284532,-0.422431 0.601514,-0.417029 z" /><path
         inkscape:connector-curvature="0"
         id="path3540"
         d="m -83.749814,31.384135 c -0.0083,0.189581 -0.02835,0.37686 -0.115804,0.641526 -0.318066,0.963818 -0.932187,1.375169 -2.325256,1.557046 -1.240081,0.161934 -1.640268,0.401913 -1.640268,0.983169 0,0.503144 0.49148,0.767251 1.717721,0.923299 1.254254,0.159617 1.938075,0.6394 2.247803,1.577723 0.209598,0.63483 0.190423,0.906182 -0.10655,1.531642 -0.37826,0.797782 -0.958699,1.126244 -2.425136,1.372218 -0.95403,0.160058 -1.438674,0.441182 -1.430337,0.834533 0.0083,0.561863 0.425366,0.821343 1.642353,1.019369 1.452097,0.236361 1.981512,0.615155 2.329175,1.668623 0.193423,0.586041 0.17208,0.866348 -0.10655,1.4054 -0.463634,0.896495 -1.097431,1.266118 -2.481163,1.44762 -0.868907,0.113979 -1.182804,0.256629 -1.286519,0.583373 -0.208681,0.657417 0.272044,1.048658 1.48653,1.209776 1.323536,0.175565 2.288655,0.911035 2.505257,1.909486 0.08471,0.391016 0.257203,0.77663 0.383429,0.856926 0.126393,0.08046 1.62793,0.116955 3.336397,0.08187 l 3.106372,-0.06378 0.110218,-0.644535 c 0.20718,-1.211459 0.966453,-1.872694 2.459402,-2.142571 2.288155,-0.413535 2.427804,-1.528699 0.223855,-1.784519 -1.417914,-0.16456 -2.014861,-0.585691 -2.446063,-1.724658 -0.174498,-0.461074 -0.159324,-0.79584 0.0617,-1.323537 0.414944,-0.99234 0.797457,-1.243724 2.254223,-1.480793 1.21015,-0.196968 1.627012,-0.456773 1.635432,-1.018069 0.0083,-0.424849 -0.50557,-0.696643 -1.625511,-0.863405 -1.457433,-0.216976 -2.386118,-1.043255 -2.386118,-2.122736 0,-1.518736 0.656641,-2.12893 2.542024,-2.364007 2.066302,-0.257604 2.006274,-1.549093 -0.08579,-1.850901 -1.490698,-0.215034 -2.085227,-0.605208 -2.406627,-1.578581 -0.08737,-0.264666 -0.111136,-0.451945 -0.116055,-0.641525 z"
         style="fill:#df601c;fill-opacity:1;stroke-width:0.220589" /><path
         inkscape:connector-curvature="0"
         id="path3536"
         d="m -97.772133,31.320964 h -7.121667 c -0.008,0.330071 -0.0717,0.675975 -0.23428,1.0323 -0.31198,0.684621 -0.92802,1.010182 -2.27498,1.203756 -1.21257,0.17424 -1.71614,0.675883 -1.31687,1.312331 0.13273,0.212316 0.48023,0.412744 0.77111,0.445501 2.21346,0.248958 3.06536,0.881121 3.06536,2.274382 0,1.303886 -0.70192,1.957625 -2.43423,2.266645 -1.25825,0.22443 -1.43425,0.317566 -1.50195,0.792313 -0.096,0.679952 0.47005,1.114572 1.45276,1.114572 0.89225,0 1.94516,0.509122 2.25639,1.090886 0.28964,0.543863 0.29031,1.684931 0,2.227444 -0.30656,0.573118 -0.98071,0.906358 -2.42138,1.197294 -1.14154,0.230491 -1.21324,0.283808 -1.21324,0.896145 0,0.62751 0.0517,0.660134 1.42609,0.906074 1.45393,0.260114 2.43422,0.969021 2.43422,1.760392 0,0.183194 0.10413,0.527622 0.23136,0.7656 0.21577,0.403122 0.44387,0.428759 3.3404,0.371824 3.349651,-0.06586 3.186408,-0.0042 3.695813,-1.390751 0.310145,-0.844171 0.907675,-1.216445 2.437475,-1.518712 1.147955,-0.226898 1.213652,-0.275671 1.213652,-0.901747 0,-0.632697 -0.05753,-0.673307 -1.322203,-0.922858 -1.741565,-0.343661 -2.651659,-1.258314 -2.459068,-2.471291 0.165827,-1.043339 1.214068,-2.009124 2.185524,-2.013293 1.389734,-0.0058 1.73648,-0.206805 1.663029,-0.96336 -0.06336,-0.654031 -0.130145,-0.698985 -1.348465,-0.90865 -1.413079,-0.243206 -2.25439,-0.833899 -2.482497,-1.74275 -0.327153,-1.303177 0.986713,-2.776801 2.477661,-2.778477 1.078672,-0.0017 1.396321,-0.204245 1.396321,-0.891818 0,-0.668496 -0.124642,-0.740872 -1.702881,-0.986195 -1.397238,-0.217143 -2.233964,-1.109411 -2.213454,-2.167557 z"
         style="fill:#df601c;fill-opacity:1;stroke-width:0.220589" /><path
         id="path3540-9"
         d="m -62.582397,31.384135 c -0.0083,0.189572 -0.02835,0.37686 -0.115804,0.641517 -0.318066,0.963827 -0.932187,1.375178 -2.325256,1.557055 -1.240081,0.161934 -1.640269,0.401913 -1.640269,0.983169 0,0.503144 0.49148,0.767251 1.717722,0.923299 1.254254,0.159617 1.938074,0.6394 2.247803,1.577723 0.209598,0.63483 0.190422,0.906182 -0.10655,1.531642 -0.378261,0.797782 -0.958699,1.126236 -2.425136,1.372218 -0.954031,0.160058 -1.438674,0.441182 -1.430337,0.834533 0.0092,0.561863 0.425366,0.821343 1.642353,1.019369 1.452097,0.236361 1.981511,0.615155 2.329174,1.668623 0.193424,0.586041 0.172081,0.866339 -0.10655,1.4054 -0.463717,0.896495 -1.097431,1.266118 -2.481162,1.447612 -0.868907,0.113987 -1.182804,0.256637 -1.28652,0.583373 -0.208681,0.657425 0.271961,1.048658 1.48653,1.209784 1.323537,0.175565 2.288656,0.911035 2.505257,1.909486 0.08471,0.391016 0.257204,0.77663 0.38343,0.856926 0.126392,0.08046 1.627929,0.116955 3.336396,0.08187 l 3.106289,-0.06378 0.110301,-0.644544 c 0.207181,-1.21145 0.966453,-1.872694 2.459403,-2.142562 2.288155,-0.413535 2.427804,-1.528708 0.223855,-1.784527 -1.417915,-0.164552 -2.014861,-0.585683 -2.446063,-1.72465 -0.174498,-0.461083 -0.159325,-0.795848 0.0617,-1.323537 0.414944,-0.992348 0.797456,-1.243732 2.254222,-1.480793 1.210151,-0.196968 1.627012,-0.456781 1.635433,-1.018069 0.0092,-0.424857 -0.50557,-0.696643 -1.625511,-0.863405 -1.457433,-0.216976 -2.386118,-1.043255 -2.386118,-2.122736 0,-1.518736 0.656641,-2.12893 2.542024,-2.364016 2.066301,-0.257604 2.006273,-1.549084 -0.08579,-1.8509 -1.490699,-0.215009 -2.085227,-0.605192 -2.406628,-1.578565 -0.08737,-0.264657 -0.111135,-0.451945 -0.116054,-0.641517 z"
         style="fill:#df601c;fill-opacity:1;stroke-width:0.220589"
         inkscape:connector-curvature="0" /></g></g></svg>
