<?xml version="1.0" encoding="UTF-8" standalone="no"?>
<!-- Created with Inkscape (http://www.inkscape.org/) -->

<svg
   width="200mm"
   height="200mm"
   viewBox="0 0 200 200"
   version="1.1"
   id="svg1"
   inkscape:version="1.3.1 (91b66b0783, 2023-11-16)"
   sodipodi:docname="pke_event.svg"
   xml:space="preserve"
   xmlns:inkscape="http://www.inkscape.org/namespaces/inkscape"
   xmlns:sodipodi="http://sodipodi.sourceforge.net/DTD/sodipodi-0.dtd"
   xmlns="http://www.w3.org/2000/svg"
   xmlns:svg="http://www.w3.org/2000/svg"><sodipodi:namedview
     id="namedview1"
     pagecolor="#ffffff"
     bordercolor="#000000"
     borderopacity="0.25"
     inkscape:showpageshadow="2"
     inkscape:pageopacity="0.0"
     inkscape:pagecheckerboard="0"
     inkscape:deskcolor="#d1d1d1"
     inkscape:document-units="mm"
     inkscape:zoom="0.49134398"
     inkscape:cx="423.32868"
     inkscape:cy="399.92349"
     inkscape:window-width="1488"
     inkscape:window-height="999"
     inkscape:window-x="383"
     inkscape:window-y="0"
     inkscape:window-maximized="0"
     inkscape:current-layer="layer1"
     showguides="true" /><defs
     id="defs1" /><g
     inkscape:label="Слой 1"
     inkscape:groupmode="layer"
     id="layer1"><path
       id="path5"
       style="fill:#547586;fill-opacity:1;stroke-width:19.131;stroke-dashoffset:20.512"
       d="m 57.672861,8.9028345 c -14.637703,0 -21.870583,7.0996215 -21.870583,24.1436165 l 0,23.640945 12.493168,-4.05932 0,-15.553705 c 0,-14.694282 2.381225,-15.678369 14.570897,-15.678369 h 54.063197 v 26.767402 c 0,11.989654 9.04922,20.933347 19.65506,20.933347 h 36.12832 v 97.911599 c 0,6.06065 -5.37755,10.64585 -11.22301,10.64585 H 55.061048 c -5.725158,0.16247 -6.868456,-2.72965 -6.765602,-6.45252 l 0,-11.91377 -8.340815,-2.56219 -4.152353,-2.13382 c -0.214351,34.39863 0.395716,35.14845 16.80108,35.28679 l 103.436272,0.26924 c 21.40809,0.0557 29.16588,-7.17711 29.16588,-26.01676 V 56.442449 L 129.50072,8.9028345 Z m 71.749859,17.1810215 35.57257,30.358593 h -27.78264 c -4.38246,-0.0022 -7.72599,-3.212926 -7.78993,-8.538696 z"
       sodipodi:nodetypes="ssccsscsscccccccccscccsccccc" /><path
       style="fill:#df601c;fill-opacity:1;stroke:none;stroke-width:20.0688;stroke-dashoffset:20.512;stroke-opacity:1"
       d="M 62.361612,36.173685 V 48.799143 H 105.3973 V 36.173685 Z"
       id="path6" /><path
       style="fill:#df601c;fill-opacity:1;stroke:none;stroke-width:20.0688;stroke-dashoffset:20.512;stroke-opacity:1"
       d="m 104.68245,139.00765 -12.375004,12.62546 71.669354,0 v -12.62546 z"
       id="path6-4"
       sodipodi:nodetypes="ccccc" /><path
       style="fill:#df601c;fill-opacity:1;stroke:none;stroke-width:20.0688;stroke-dashoffset:20.512;stroke-opacity:1"
       d="m 108.51674,78.618536 4.95,12.625453 51.31486,0 V 78.618536 Z"
       id="path6-8-2"
       sodipodi:nodetypes="ccccc" /><path
       style="fill:#df601c;fill-opacity:1;stroke:none;stroke-width:20.0688;stroke-dashoffset:20.512;stroke-opacity:1"
       d="m 115.49655,108.75687 -2.66538,12.62547 51.95043,0 v -12.62547 z"
       id="path6-9-7"
       sodipodi:nodetypes="ccccc" /><g
       id="g95"
       transform="matrix(2.012121,-0.15064102,0.15064102,2.012121,-11310.29,3172.5495)"><path
         style="opacity:1;fill:#df601c;fill-opacity:1;stroke:none;stroke-width:2;stroke-dashoffset:20.512;stroke-opacity:0.1875"
         d="m 5739.0414,-1122.6146 -19.2622,33.0905 h 9.6695 l -3.1462,24.915 19.2921,-31.3451 h -9.9197 z"
         id="path93" /><path
         id="path94"
         style="opacity:1;fill:#557586;fill-opacity:1;stroke:none;stroke-width:1.35246;stroke-dashoffset:20.512;stroke-opacity:0.1875"
         d="m 5740.9946,-1119.3312 -0.6399,3.2987 c 10.4802,3.7794 16.6441,14.6311 14.5232,25.5682 -1.0621,5.4731 -4.0403,10.1501 -8.1457,13.4057 -4.1054,3.2556 -8.4451,5.1888 -14.0162,4.9758 l -1.5329,3.1997 c 12.9649,0.7532 24.4882,-8.1988 26.9641,-20.9474 2.4679,-12.7399 -4.8599,-25.343 -17.1526,-29.5007 z m -6.8328,-1.3152 c -12.9527,-0.7397 -24.4594,8.2055 -26.9369,20.9406 -2.4645,12.747 5.1567,25.516 17.4594,29.6635 l 0.3583,-3.4573 c -10.492,-3.7701 -16.6685,-14.6268 -14.5484,-25.5721 2.1233,-10.9355 11.8967,-18.6939 23.0287,-18.281 l 2.3369,-3.3336 z"
         sodipodi:nodetypes="cccscccccccccccc" /></g></g></svg>
