<?xml version="1.0" encoding="UTF-8" standalone="no"?>
<!-- Created with Inkscape (http://www.inkscape.org/) -->

<svg
   width="200mm"
   height="200mm"
   viewBox="0 0 200 200"
   version="1.1"
   id="svg1"
   inkscape:version="1.3.1 (91b66b0783, 2023-11-16)"
   sodipodi:docname="pke_limit.svg"
   xml:space="preserve"
   xmlns:inkscape="http://www.inkscape.org/namespaces/inkscape"
   xmlns:sodipodi="http://sodipodi.sourceforge.net/DTD/sodipodi-0.dtd"
   xmlns="http://www.w3.org/2000/svg"
   xmlns:svg="http://www.w3.org/2000/svg"><sodipodi:namedview
     id="namedview1"
     pagecolor="#ffffff"
     bordercolor="#000000"
     borderopacity="0.25"
     inkscape:showpageshadow="2"
     inkscape:pageopacity="0.0"
     inkscape:pagecheckerboard="0"
     inkscape:deskcolor="#d1d1d1"
     inkscape:document-units="mm"
     inkscape:zoom="0.49134398"
     inkscape:cx="255.42187"
     inkscape:cy="512.87898"
     inkscape:window-width="1920"
     inkscape:window-height="976"
     inkscape:window-x="-8"
     inkscape:window-y="-8"
     inkscape:window-maximized="1"
     inkscape:current-layer="layer1"
     showguides="true" /><defs
     id="defs1" /><g
     inkscape:label="Слой 1"
     inkscape:groupmode="layer"
     id="layer1"><path
       sodipodi:nodetypes="cccc"
       inkscape:connector-curvature="0"
       id="path3394"
       d="m 49.643161,-125.59995 c 4.25473,25.28758 29.984422,38.056812 34.853667,21.51307 22.402872,-95.50316 115.200182,-74.70965 128.998412,-7.6351 6.51971,28.414402 12.5179,19.480172 40.87166,25.581212"
       style="fill:none;stroke:#547586;stroke-width:12.8926;stroke-linecap:round;stroke-linejoin:miter;stroke-miterlimit:4;stroke-dasharray:none;stroke-opacity:1" /><g
       id="g5"><rect
         style="opacity:1;fill:#df601c;fill-opacity:1;stroke:none;stroke-width:2.58482;stroke-dasharray:none;stroke-dashoffset:20.512;stroke-opacity:1"
         id="rect4"
         width="163.16217"
         height="81.850327"
         x="27.462933"
         y="16.154665"
         ry="0" /><path
         style="opacity:1;fill:#557586;fill-opacity:1;stroke:none;stroke-width:25"
         d="m 10.048019,175.1697 v -5.61634 h 9.32885 V 12.866816 h 6.28269 V 169.55336 H 189.00956 v 5.42596 H 25.754749 v 10.37596 h -6.47307 v -10.47115 z"
         id="path39" /><g
         id="g4"
         transform="translate(-194.39453,-126.00643)"><path
           id="path93-8"
           style="fill:#df601c;fill-opacity:1;stroke:none;stroke-width:5.01316;stroke-dashoffset:20.512;stroke-opacity:0.1875"
           d="m 325.53207,224.01165 h -52.90633 l -6.08077,12.51035 24.1701,-1.80971 -3.20187,62.86593 z" /><path
           id="path1"
           style="fill:#ffffff;fill-opacity:1;stroke:none;stroke-width:5.01316;stroke-dashoffset:20.512;stroke-opacity:0.1875"
           d="m 308.50003,150.20479 -35.87429,73.80686 h 52.90633 l 4.33772,-8.39329 -24.79539,1.85622 z" /><path
           id="path94-4"
           style="fill:#557586;fill-opacity:1;stroke:none;stroke-width:3.39005;stroke-dashoffset:20.512;stroke-opacity:0.1875"
           d="m 354.40731,223.75585 c -0.063,1.27823 -0.15484,2.56033 -0.30593,3.84783 -1.63059,13.87921 -8.1996,26.1271 -17.85214,35.033 -9.65253,8.9059 -20.13859,14.54993 -34.10386,15.06006 l -3.23236,8.28477 c 32.54776,-0.54351 59.67582,-25.07633 63.47881,-57.4058 0.18904,-1.61364 0.30028,-3.21954 0.36897,-4.81986 z" /><path
           id="path4"
           style="fill:#ffffff;fill-opacity:1;stroke:none;stroke-width:3.39005;stroke-dashoffset:20.512;stroke-opacity:0.1875"
           d="m 354.40731,223.75585 h 8.35349 c 1.30652,-30.43908 -18.83291,-58.02177 -48.76395,-65.70968 l -0.98236,8.36538 c 25.65446,7.13819 42.68747,31.08727 41.39282,57.3443 z" /><path
           id="path3"
           style="fill:#557586;fill-opacity:1;stroke:none;stroke-width:3.39005;stroke-dashoffset:20.512;stroke-opacity:0.1875"
           d="m 241.24057,223.75585 h -8.3261 c 1.31431,28.28355 21.39934,53.34705 49.53702,60.54463 l 0.24857,-8.70903 c -23.8723,-6.61292 -40.29767,-27.78136 -41.45949,-51.8356 z" /><path
           id="path2"
           style="fill:#ffffff;fill-opacity:1;stroke:none;stroke-width:3.39005;stroke-dashoffset:20.512;stroke-opacity:0.1875"
           d="m 300.90825,155.61996 -4.23695,0.41754 c -32.51474,0.57497 -59.60264,25.08755 -63.41215,57.38358 -0.40589,3.4756 -0.50303,6.92715 -0.34468,10.33477 h 8.3261 c -0.14886,-3.08213 -0.0602,-6.20926 0.30903,-9.3617 3.26093,-27.7315 26.2388,-48.95307 54.1414,-50.00418 z" /></g></g></g></svg>
