<?xml version="1.0" encoding="UTF-8" standalone="no"?>
<!-- Created with Inkscape (http://www.inkscape.org/) -->

<svg
   width="200mm"
   height="200mm"
   viewBox="0 0 200 200"
   version="1.1"
   id="svg1"
   inkscape:version="1.3.1 (91b66b0783, 2023-11-16)"
   sodipodi:docname="printer.svg"
   xml:space="preserve"
   xmlns:inkscape="http://www.inkscape.org/namespaces/inkscape"
   xmlns:sodipodi="http://sodipodi.sourceforge.net/DTD/sodipodi-0.dtd"
   xmlns="http://www.w3.org/2000/svg"
   xmlns:svg="http://www.w3.org/2000/svg"><sodipodi:namedview
     id="namedview1"
     pagecolor="#ffffff"
     bordercolor="#000000"
     borderopacity="0.25"
     inkscape:showpageshadow="2"
     inkscape:pageopacity="0.0"
     inkscape:pagecheckerboard="0"
     inkscape:deskcolor="#d1d1d1"
     inkscape:document-units="mm"
     inkscape:zoom="0.69486532"
     inkscape:cx="415.90793"
     inkscape:cy="348.26893"
     inkscape:window-width="1920"
     inkscape:window-height="976"
     inkscape:window-x="-8"
     inkscape:window-y="-8"
     inkscape:window-maximized="1"
     inkscape:current-layer="layer1"
     showguides="true" /><defs
     id="defs1" /><g
     inkscape:label="Слой 1"
     inkscape:groupmode="layer"
     id="layer1"><g
       id="g5661"
       transform="matrix(2.4196824,0,0,2.4196824,5463.839,-4229.5498)"><path
         inkscape:connector-curvature="0"
         id="path5657"
         d="m -2217.4042,1796.1738 -19.9042,0.047 -0.4202,0.3927 c -0.906,0.8467 -0.8625,0.073 -0.8625,15.0854 0,15.185 -0.055,14.2994 0.9493,15.1448 l 0.4894,0.4113 h 19.8262 c 13.1087,-6e-4 20.0241,-0.055 20.4091,-0.1623 0.3544,-0.098 0.7693,-0.3888 1.0604,-0.742 l 0.4785,-0.5803 v -14.0374 -14.0369 l -0.4992,-0.6217 c -0.3053,-0.3798 -0.7178,-0.6849 -1.0609,-0.7839 -0.3774,-0.1058 -7.0816,-0.1478 -20.4659,-0.1158 z m -16.6295,4.5253 h 16.9705 16.9711 v 10.9213 10.9208 h -16.9711 -16.9705 v -10.9208 z m 5.6177,4.7005 -0.5297,0.3602 c -1.1871,0.8077 -1.331,2.3838 -0.3105,3.405 l 0.5694,0.57 2.3157,0.1007 c 1.2736,0.055 6.3334,0.076 11.2442,0.045 8.5543,-0.054 8.9499,-0.069 9.4284,-0.3648 1.033,-0.6397 1.3267,-1.8422 0.7343,-3.0035 -0.1731,-0.3394 -0.4735,-0.7076 -0.6676,-0.8185 -0.2762,-0.1579 -2.7972,-0.2121 -11.5688,-0.2481 z m 21.9599,8.7881 -10.9998,0.1106 c -9.2156,0.093 -11.0635,0.1483 -11.3926,0.3406 -1.0232,0.5976 -1.3919,1.971 -0.7907,2.944 0.1913,0.3093 0.5001,0.6501 0.6868,0.757 0.246,0.1409 2.0706,0.2199 6.6255,0.2889 8.3762,0.126 16.0605,0.024 16.5695,-0.2212 0.5541,-0.2666 1.1079,-1.1619 1.1079,-1.79 0,-0.7521 -0.3742,-1.3892 -1.1446,-1.9488 z"
         style="fill:#df601c;fill-opacity:1;stroke-width:0.157137" /><path
         inkscape:connector-curvature="0"
         id="path5652"
         d="m -2234.4011,1751.3626 c -2.7129,0.024 -3.0887,0.092 -3.2887,0.2233 -0.2325,0.1524 -0.5651,0.5074 -0.7395,0.7896 -0.305,0.4939 -0.3173,0.7672 -0.3173,7.369 v 6.8565 l -2.1606,0.01 c -1.1884,0 -3.1056,0.069 -4.2607,0.1426 -1.9542,0.126 -2.1788,0.1738 -3.2313,0.694 -1.513,0.7478 -2.8922,2.1202 -3.6257,3.6076 l -0.556,1.1275 0.043,15.0064 0.043,15.0068 0.4713,0.9426 c 0.6387,1.2775 2.2329,2.8503 3.5357,3.4881 1.3237,0.6481 2.1315,0.8294 3.7899,0.8294 h 1.3545 l 0.097,-0.5891 c 0.054,-0.3241 0.098,-3.7913 0.099,-7.7049 v -7.1159 l 0.4088,-0.8066 c 0.5699,-1.1248 1.8285,-2.4005 2.8742,-2.9141 l 0.8811,-0.433 21.6064,-0.086 21.6065,-0.086 0.9426,0.477 c 1.1649,0.5896 2.4286,1.817 2.9698,2.8851 0.395,0.7788 0.4085,0.9029 0.4088,3.6008 2e-4,1.5369 0.047,5.0653 0.1038,7.8409 v 0 l 0.1033,5.0467 1.4284,-0.07 c 0.7856,-0.039 1.8457,-0.1716 2.3554,-0.2956 2.0062,-0.4883 4.068,-2.2758 5.0772,-4.4008 l 0.5741,-1.2087 0.071,-14.4048 0.071,-14.4053 -0.6403,-1.3658 c -0.8726,-1.8621 -2.0089,-3.0453 -3.7579,-3.9119 -1.2868,-0.6377 -1.3439,-0.6498 -3.5434,-0.7674 -1.2294,-0.066 -3.1013,-0.1197 -4.16,-0.1297 l -1.9249,-0.01 v -6.765 c 0,-7.2762 0.01,-7.1928 -0.8315,-7.9773 l -0.3896,-0.3638 -20.1776,-0.093 c -9.5486,-0.044 -14.5987,-0.063 -17.3116,-0.039 z m 0.171,4.7098 h 17.0935 17.0936 l -0.1029,2.4748 c -0.056,1.3612 -0.1025,3.7303 -0.1028,5.2643 h -5e-4 l -5e-4,2.7889 h -16.8925 -16.892 v -4.7728 c 0,-2.6252 -0.044,-4.9942 -0.098,-5.2643 z m 43.7756,16.461 c 0.3266,0.01 0.6349,0.064 0.8997,0.1664 0.5713,0.2208 1.3321,0.8949 1.7219,1.5255 0.4728,0.7655 0.4673,2.5355 -0.01,3.3083 -0.3984,0.6444 -1.1215,1.2107 -1.8625,1.4589 -1.3758,0.4604 -3.0693,-0.087 -3.8778,-1.2532 -0.8401,-1.2122 -0.6611,-3.2819 0.369,-4.2685 0.635,-0.6084 1.7803,-0.9682 2.76,-0.9374 z m -4.7924,20.1595 3.7031,19.4407 z"
         style="fill:#547586;fill-opacity:1;stroke-width:0.157137" /></g></g></svg>
