<?xml version="1.0" encoding="UTF-8" standalone="no"?>
<!-- Created with Inkscape (http://www.inkscape.org/) -->

<svg
   width="200mm"
   height="200mm"
   viewBox="0 0 200 200"
   version="1.1"
   id="svg1"
   inkscape:version="1.3.1 (91b66b0783, 2023-11-16)"
   sodipodi:docname="proj_add.svg"
   xml:space="preserve"
   xmlns:inkscape="http://www.inkscape.org/namespaces/inkscape"
   xmlns:sodipodi="http://sodipodi.sourceforge.net/DTD/sodipodi-0.dtd"
   xmlns="http://www.w3.org/2000/svg"
   xmlns:svg="http://www.w3.org/2000/svg"><sodipodi:namedview
     id="namedview1"
     pagecolor="#ffffff"
     bordercolor="#000000"
     borderopacity="0.25"
     inkscape:showpageshadow="2"
     inkscape:pageopacity="0.0"
     inkscape:pagecheckerboard="0"
     inkscape:deskcolor="#d1d1d1"
     inkscape:document-units="mm"
     inkscape:zoom="0.49134398"
     inkscape:cx="549.51319"
     inkscape:cy="539.33702"
     inkscape:window-width="1488"
     inkscape:window-height="958"
     inkscape:window-x="408"
     inkscape:window-y="2"
     inkscape:window-maximized="0"
     inkscape:current-layer="layer1"
     showguides="true" /><defs
     id="defs1" /><g
     inkscape:label="Слой 1"
     inkscape:groupmode="layer"
     id="layer1"><path
       d="m 62.223108,98.506482 h 0.0013 c 0.499755,0.06525 1.278868,1.673108 3.830553,7.905628 l 1.405064,3.43401 1.767247,0.17845 c 0.971699,0.0986 2.68945,0.39963 3.817316,0.66749 l 2.050103,0.48642 4.387049,-4.43989 4.387038,-4.44122 4.886638,3.1908 c 4.151378,2.71063 4.877207,3.27405 4.823242,3.74199 -0.035,0.30295 -0.848978,2.4964 -1.808235,4.87476 -0.959258,2.37838 -1.912407,4.76615 -2.118819,5.30567 l -0.376718,0.98079 1.274206,1.6813 c 0.700272,0.92488 1.59705,2.24859 1.993263,2.94232 l 0.720387,1.26232 5.884602,-0.0872 5.885956,-0.0873 0.23923,0.57763 c 0.13235,0.31765 0.69532,2.78513 1.25043,5.48279 0.55509,2.69766 1.05923,5.0841 1.12089,5.30301 0.0864,0.30659 -0.58009,0.70965 -2.89872,1.75403 -1.65595,0.74595 -4.05865,1.77071 -5.340037,2.27746 -1.281388,0.50674 -2.360334,0.94311 -2.396402,0.96887 -0.03622,0.0259 -0.17859,0.9728 -0.317215,2.10563 -0.138667,1.13281 -0.445708,2.82683 -0.68205,3.76313 l -0.429588,1.70115 4.397592,4.31432 4.39629,4.31433 -3.12075,4.77432 c -1.716589,2.62592 -3.197107,4.8552 -3.289957,4.95406 -0.174596,0.18592 -4.651064,-1.42264 -9.035763,-3.24633 l -2.507428,-1.04288 -0.856525,0.7521 c -1.109449,0.97414 -3.411028,2.53224 -4.742587,3.2093 l -1.048199,0.5327 0.16787,5.99963 c 0.0931,3.3001 0.09803,6.00092 0.01223,6.00092 -0.133306,0 -9.636544,1.98944 -11.105691,2.32504 -0.440962,0.10086 -0.651106,-0.17312 -1.461898,-1.90075 -0.521069,-1.1103 -1.620785,-3.61081 -2.443989,-5.5568 l -1.497584,-3.53844 -2.436073,-0.41374 c -1.339763,-0.22744 -2.888469,-0.55165 -3.441943,-0.72037 l -1.005882,-0.30667 -4.250898,4.3289 c -2.369626,2.41343 -4.387255,4.27624 -4.56017,4.20989 -0.268486,-0.10307 -9.362984,-5.93888 -9.631895,-6.18069 -0.132759,-0.11942 1.735388,-5.16523 3.207979,-8.66568 l 1.180341,-2.80615 -1.116901,-1.42095 c -0.614235,-0.7818 -1.552438,-2.16824 -2.085799,-3.07977 l -0.970184,-1.65753 h -6.43445 -6.433158 l -1.14467,-5.27261 c -0.629179,-2.9 -1.151711,-5.50469 -1.164511,-5.78815 -0.01723,-0.42437 0.487657,-0.75182 2.860373,-1.85843 1.584868,-0.73916 4.223498,-1.88764 5.863454,-2.55106 l 2.981988,-1.20548 0.268308,-1.83995 c 0.14762,-1.0116 0.446419,-2.61142 0.664862,-3.55559 l 0.39787,-1.71704 -4.320958,-4.27598 c -2.376996,-2.35218 -4.322242,-4.36053 -4.322242,-4.46235 0,-0.15288 5.961062,-9.40312 6.295668,-9.76938 0.152242,-0.16665 2.073945,0.53602 7.160176,2.61715 l 4.503334,1.84256 0.646353,-0.51681 c 0.355236,-0.28413 1.584622,-1.1463 2.732149,-1.91659 l 2.085799,-1.40111 -0.0013,-6.38292 -0.0013,-6.38163 5.395556,-1.167138 c 2.966455,-0.641109 5.601916,-1.138237 5.858176,-1.106321 z m 3.180237,28.460818 c -7.597135,9e-5 -13.755804,6.15876 -13.7559,13.75589 -6.42e-4,7.59765 6.15826,13.75712 13.7559,13.75722 7.597654,-1.1e-4 13.756529,-6.15958 13.755886,-13.75722 -9.6e-5,-7.59713 -6.158752,-13.75579 -13.755886,-13.75589 z"
       style="fill:#df601c;fill-opacity:1;stroke:none;stroke-width:22.4363;stroke-linecap:round;stroke-linejoin:round;stroke-miterlimit:4;stroke-dasharray:none;stroke-dashoffset:0;stroke-opacity:1;paint-order:normal"
       id="path1" /><path
       id="path10-3-5"
       style="fill:#547586;fill-opacity:1;stroke-width:0.839331;stroke-dashoffset:20.512"
       d="M 82.188782 6.0611287 C 73.695486 6.0611392 67.376247 13.016531 67.330257 21.800736 L 67.330257 39.822375 L 77.098136 39.822375 L 77.098136 31.231169 C 77.098136 18.304895 79.228584 15.400094 90.957239 15.400094 L 128.02578 15.400094 L 127.66611 40.084375 C 127.66611 50.8897 134.40552 56.25238 142.55616 56.25238 L 171.04899 56.25238 L 171.02935 118.62945 C 171.03271 119.28638 170.99594 119.80664 170.98388 120.40712 A 39.848953 39.848953 0 0 1 180.29184 126.52974 L 180.29184 41.499276 L 138.24841 6.0611287 L 82.188782 6.0611287 z M 137.50117 18.781799 L 170.78492 46.619893 L 144.57981 46.607491 C 141.66547 46.705321 137.59026 43.285335 137.40453 40.121582 L 137.50117 18.781799 z " /><path
       id="path10-3"
       style="fill:#df601c;fill-opacity:1;stroke-width:0.839331;stroke-dashoffset:20.512"
       d="M 54.188424 32.798515 C 45.695127 32.798526 39.375373 39.754435 39.329382 48.538639 L 39.329382 67.624813 L 49.000627 67.624813 L 49.000627 57.968555 C 49.000627 45.042282 51.22771 42.234631 62.956364 42.234631 L 100.02542 42.234631 L 99.665234 66.821761 C 99.665234 77.627082 106.40517 82.989766 114.5558 82.989766 L 143.10393 82.784611 L 143.28428 118.04034 A 39.848953 39.848953 0 0 1 152.29096 116.64146 L 152.29096 68.237179 L 110.24753 32.798515 L 54.188424 32.798515 z M 109.62173 45.159517 L 142.64091 73.224471 L 116.85333 73.321106 C 113.939 73.418936 109.6421 70.160176 109.45637 66.996427 L 109.62173 45.159517 z " /><path
       id="path10"
       style="fill:#547586;fill-opacity:1;stroke-width:0.839331;stroke-dashoffset:20.512"
       d="M 25.722978 59.561739 C 17.22967 59.56175 10.909927 66.517121 10.863936 75.301347 L 10.863936 181.40185 C 10.909916 189.89577 17.979281 196.65598 25.629443 196.54201 L 107.28699 196.54201 C 115.14614 196.65501 123.66789 191.12124 123.81208 182.01215 A 39.848953 39.848953 0 0 1 114.33876 158.03066 L 114.33462 172.17864 C 114.39662 184.3013 112.28701 186.62204 99.232186 186.62065 L 34.417021 186.62065 C 22.761777 186.62275 20.409607 184.30251 20.409607 171.86651 L 20.409607 84.731779 C 20.409607 71.805495 22.402586 69.121879 34.13125 69.121879 L 71.200305 69.121879 L 71.200305 93.584985 C 71.200305 104.39031 77.939197 109.75299 86.089836 109.75299 L 114.35374 109.75299 L 114.34031 154.10739 A 39.848953 39.848953 0 0 1 123.82552 130.12487 L 123.82552 95.000403 L 81.782605 59.561739 L 25.722978 59.561739 z M 80.849329 72.050899 L 114.02818 100.31429 L 88.113485 100.30189 C 85.199137 100.39969 80.83351 96.78594 80.647791 93.622192 L 80.849329 72.050899 z " /><path
       id="path15"
       style="fill:#df601c;fill-opacity:1;stroke:none;stroke-width:5.48724;stroke-dasharray:none"
       d="m 152.55317,133.05661 c -1.55287,-0.12933 -3.19229,0.77858 -3.65041,2.93192 l -0.0587,16.05662 -14.62524,0.0835 c -5.60378,-0.40785 -6.2286,6.96569 -0.0851,6.92239 l 14.64562,0.005 0.16862,14.27277 c -0.77917,5.93994 7.5347,6.4808 6.79214,0.0408 l 0.0292,-14.40545 15.82724,-0.14586 c 3.01802,-0.0722 4.20662,-3.76075 2.34769,-5.67203 l -3.9e-4,0.003 c -0.61965,-0.63711 -1.57784,-1.07678 -2.91993,-1.11931 l -15.23664,0.0152 -0.10389,-15.69659 c -0.11095,-1.9958 -1.57726,-3.16224 -3.13013,-3.29155 z"
       sodipodi:nodetypes="sccccccccccccccs" /></g></svg>
