<?xml version="1.0" encoding="UTF-8" standalone="no"?>
<!-- Created with Inkscape (http://www.inkscape.org/) -->

<svg
   width="200mm"
   height="200mm"
   viewBox="0 0 200 200"
   version="1.1"
   id="svg1"
   inkscape:version="1.3.1 (91b66b0783, 2023-11-16)"
   sodipodi:docname="proj.svg"
   xml:space="preserve"
   xmlns:inkscape="http://www.inkscape.org/namespaces/inkscape"
   xmlns:sodipodi="http://sodipodi.sourceforge.net/DTD/sodipodi-0.dtd"
   xmlns="http://www.w3.org/2000/svg"
   xmlns:svg="http://www.w3.org/2000/svg"><sodipodi:namedview
     id="namedview1"
     pagecolor="#ffffff"
     bordercolor="#000000"
     borderopacity="0.25"
     inkscape:showpageshadow="2"
     inkscape:pageopacity="0.0"
     inkscape:pagecheckerboard="0"
     inkscape:deskcolor="#d1d1d1"
     inkscape:document-units="mm"
     inkscape:zoom="0.34743266"
     inkscape:cx="61.882495"
     inkscape:cy="374.17323"
     inkscape:window-width="1488"
     inkscape:window-height="958"
     inkscape:window-x="408"
     inkscape:window-y="10"
     inkscape:window-maximized="0"
     inkscape:current-layer="layer1"
     showguides="true" /><defs
     id="defs1" /><g
     inkscape:label="Слой 1"
     inkscape:groupmode="layer"
     id="layer1"><g
       id="g14"><path
         id="path10-3-5"
         style="fill:#547586;fill-opacity:1;stroke-width:0.801367;stroke-dashoffset:20.512"
         d="m 84.324566,9.897037 c -8.109138,1e-5 -14.142818,6.64113 -14.186728,15.02802 V 45.089721 H 81.497866 V 33.928647 c 0,-12.34161 1.2e-4,-12.34137 11.19828,-12.34137 h 35.392164 l -0.34365,20.79408 c 0,10.316594 6.43472,15.436794 14.21669,15.436794 h 24.70754 l 0.30489,59.602039 c 0.0592,11.57433 -3e-5,11.57479 -12.46436,11.57346 h -7.57525 v 11.68817 h 15.26523 c 7.56783,0.10881 15.79077,-5.26186 15.79077,-14.09216 V 43.732697 L 137.84842,9.897037 Z m 55.121694,15.65899 23.64248,20.846284 -19.19521,-0.10387 c -2.78252,0.0934 -4.26994,-0.86077 -4.44727,-3.881424 z"
         sodipodi:nodetypes="ccccssccsccccccscccccccc" /><path
         id="path10-3"
         style="fill:#df601c;fill-opacity:1;stroke-width:0.801367;stroke-dashoffset:20.512"
         d="m 57.590347,35.425368 c -8.10914,1e-5 -14.14282,6.64113 -14.18673,15.02802 v 20.16466 h 11.36003 v -11.16107 c 0,-12.34161 1.2e-4,-12.34137 11.19828,-12.34137 h 35.392163 l -0.34365,20.79408 c 0,10.31659 6.43472,15.43679 14.21669,15.43679 h 24.70754 l 0.30489,59.602042 c 0.0592,11.57433 -3e-5,11.57479 -12.46436,11.57346 h -7.57525 v 11.68817 h 15.26522 c 7.56784,0.10881 15.79077,-5.26186 15.79077,-14.09216 V 69.261028 L 111.1142,35.425368 Z m 55.121693,15.65899 23.64248,20.84628 -19.19521,-0.10387 c -2.78252,0.0934 -4.26994,-0.86077 -4.44727,-3.88142 z"
         sodipodi:nodetypes="ccccssccsccccccscccccccc" /><path
         id="path10"
         style="opacity:1;fill:#547586;fill-opacity:1;stroke-width:0.801367;stroke-dashoffset:20.512"
         d="m 30.412464,60.977824 c -8.10915,1e-5 -14.14293,6.64101 -14.18684,15.02792 V 177.30723 c 0.0439,8.10974 6.79367,14.56401 14.09781,14.4552 h 77.963896 c 7.56786,0.10881 15.79072,-5.26171 15.79072,-14.09202 V 94.813734 L 83.936366,60.977824 Z m 8.37139,11.69013 h 35.392172 l -0.3433,20.7941 c 0,10.316596 6.43426,15.437066 14.21624,15.437066 h 24.707524 l 0.3052,59.6019 c 0.0592,11.57434 -1.8e-4,11.57467 -12.46453,11.57335 H 38.713464 c -11.12807,0.002 -11.12776,0.002 -11.12776,-11.87151 V 85.009494 c 0,-12.34162 -2e-5,-12.34154 11.19815,-12.34154 z m 46.750182,3.96891 23.642404,20.84627 -19.195194,-0.10394 c -2.78253,0.0934 -4.26989,-0.86088 -4.44721,-3.88153 z" /><path
         d="m 63.934563,110.73466 h 9.7e-4 c 0.36552,0.0478 0.93536,1.22371 2.80166,5.78217 l 1.02766,2.51163 1.29256,0.13051 c 0.7107,0.0721 1.96706,0.29229 2.79198,0.48821 l 1.49944,0.35576 3.20868,-3.24733 3.20867,-3.2483 3.57408,2.33375 c 3.03631,1.98255 3.56718,2.39464 3.52771,2.73688 -0.0256,0.22158 -0.62094,1.82587 -1.32254,3.5654 -0.7016,1.73953 -1.39873,3.48596 -1.5497,3.88056 l -0.27553,0.71733 0.93195,1.22972 c 0.51218,0.67645 1.16808,1.64461 1.45787,2.152 l 0.52689,0.92325 4.30399,-0.0638 4.30498,-0.0638 0.17497,0.42247 c 0.0968,0.23234 0.50856,2.03704 0.91456,4.01011 0.40599,1.97307 0.77472,3.7185 0.81981,3.87863 0.0632,0.22421 -0.42427,0.51902 -2.12011,1.28288 -1.21116,0.54558 -2.96849,1.29508 -3.9057,1.66573 -0.9372,0.37064 -1.72634,0.68978 -1.75272,0.70863 -0.0265,0.0188 -0.13062,0.7115 -0.23201,1.54004 -0.10142,0.82855 -0.32599,2.06755 -0.49885,2.75236 l -0.3142,1.24421 3.21639,3.15549 3.21544,3.1555 -2.28251,3.49192 c -1.25551,1.92059 -2.33836,3.55108 -2.40627,3.6234 -0.1277,0.13599 -3.40178,-1.04051 -6.60874,-2.37435 l -1.83393,-0.76277 -0.62646,0.55008 c -0.81145,0.71248 -2.49482,1.85207 -3.46872,2.34729 l -0.76665,0.3896 0.12278,4.38811 c 0.0681,2.4137 0.0717,4.38907 0.009,4.38907 -0.0975,0 -7.04815,1.45508 -8.12268,1.70053 -0.32252,0.0737 -0.47622,-0.12662 -1.06923,-1.3902 -0.38111,-0.81208 -1.18544,-2.64095 -1.78753,-4.06424 l -1.09533,-2.58801 -1.78174,-0.3026 c -0.9799,-0.16636 -2.11262,-0.40349 -2.51743,-0.52688 l -0.7357,-0.22429 -3.1091,3.16613 c -1.73314,1.76519 -3.20883,3.12764 -3.3353,3.07912 -0.19637,-0.0754 -6.84807,-4.3437 -7.04475,-4.52055 -0.0971,-0.0873 1.26926,-3.77785 2.34631,-6.33806 l 0.8633,-2.05242 -0.8169,-1.03927 c -0.44925,-0.5718 -1.13545,-1.58586 -1.52555,-2.25254 l -0.70959,-1.21231 h -4.70617 -4.7052 l -0.83721,-3.85639 c -0.46018,-2.12106 -0.84236,-4.0261 -0.85172,-4.23343 -0.0126,-0.31039 0.35667,-0.54989 2.09207,-1.35926 1.15917,-0.54062 3.08906,-1.38062 4.28852,-1.86584 l 2.18102,-0.88168 0.19624,-1.34573 c 0.10797,-0.73989 0.32651,-1.90999 0.48628,-2.60057 l 0.291,-1.25582 -3.16034,-3.12746 c -1.73853,-1.72037 -3.16128,-3.18929 -3.16128,-3.26376 0,-0.1118 4.35991,-6.87742 4.60464,-7.1453 0.11135,-0.12188 1.51688,0.39205 5.23694,1.91418 l 3.29373,1.34765 0.47274,-0.378 c 0.25982,-0.20782 1.15899,-0.83839 1.99829,-1.40179 l 1.52555,-1.02477 -9.7e-4,-4.66846 -9.8e-4,-4.6675 3.9463,-0.85365 c 2.16966,-0.46892 4.09723,-0.83251 4.28466,-0.80917 z m 2.32602,20.8162 c -5.55653,6e-5 -10.06097,4.5045 -10.06104,10.06103 -4.7e-4,5.55691 4.50414,10.06194 10.06104,10.062 5.55691,-7e-5 10.0615,-4.5051 10.06103,-10.062 -7e-5,-5.55653 -4.5045,-10.06096 -10.06103,-10.06103 z"
         style="fill:#df601c;fill-opacity:1;stroke:none;stroke-width:16.4099;stroke-linecap:round;stroke-linejoin:round;stroke-miterlimit:4;stroke-dasharray:none;stroke-dashoffset:0;stroke-opacity:1;paint-order:normal"
         id="path1" /></g></g></svg>
