<?xml version="1.0" encoding="UTF-8" standalone="no"?>
<!-- Created with Inkscape (http://www.inkscape.org/) -->

<svg
   width="200mm"
   height="200mm"
   viewBox="0 0 200 200"
   version="1.1"
   id="svg1"
   inkscape:version="1.3.1 (91b66b0783, 2023-11-16)"
   sodipodi:docname="proj.svg"
   xml:space="preserve"
   xmlns:inkscape="http://www.inkscape.org/namespaces/inkscape"
   xmlns:sodipodi="http://sodipodi.sourceforge.net/DTD/sodipodi-0.dtd"
   xmlns="http://www.w3.org/2000/svg"
   xmlns:svg="http://www.w3.org/2000/svg"><sodipodi:namedview
     id="namedview1"
     pagecolor="#ffffff"
     bordercolor="#000000"
     borderopacity="0.25"
     inkscape:showpageshadow="2"
     inkscape:pageopacity="0.0"
     inkscape:pagecheckerboard="0"
     inkscape:deskcolor="#d1d1d1"
     inkscape:document-units="mm"
     inkscape:zoom="0.49134398"
     inkscape:cx="549.51319"
     inkscape:cy="539.33702"
     inkscape:window-width="1488"
     inkscape:window-height="958"
     inkscape:window-x="408"
     inkscape:window-y="2"
     inkscape:window-maximized="0"
     inkscape:current-layer="layer1"
     showguides="true" /><defs
     id="defs1" /><g
     inkscape:label="Слой 1"
     inkscape:groupmode="layer"
     id="layer1"><g
       id="g12"><path
         d="m 62.223108,98.506482 h 0.0013 c 0.499755,0.06525 1.278868,1.673108 3.830553,7.905628 l 1.405064,3.43401 1.767247,0.17845 c 0.971699,0.0986 2.68945,0.39963 3.817316,0.66749 l 2.050103,0.48642 4.387049,-4.43989 4.387038,-4.44122 4.886638,3.1908 c 4.151378,2.71063 4.877207,3.27405 4.823242,3.74199 -0.035,0.30295 -0.848978,2.4964 -1.808235,4.87476 -0.959258,2.37838 -1.912407,4.76615 -2.118819,5.30567 l -0.376718,0.98079 1.274206,1.6813 c 0.700272,0.92488 1.59705,2.24859 1.993263,2.94232 l 0.720387,1.26232 5.884602,-0.0872 5.885956,-0.0873 0.23923,0.57763 c 0.13235,0.31765 0.69532,2.78513 1.25043,5.48279 0.55509,2.69766 1.05923,5.0841 1.12089,5.30301 0.0864,0.30659 -0.58009,0.70965 -2.89872,1.75403 -1.65595,0.74595 -4.05865,1.77071 -5.340037,2.27746 -1.281388,0.50674 -2.360334,0.94311 -2.396402,0.96887 -0.03622,0.0259 -0.17859,0.9728 -0.317215,2.10563 -0.138667,1.13281 -0.445708,2.82683 -0.68205,3.76313 l -0.429588,1.70115 4.397592,4.31432 4.39629,4.31433 -3.12075,4.77432 c -1.716589,2.62592 -3.197107,4.8552 -3.289957,4.95406 -0.174596,0.18592 -4.651064,-1.42264 -9.035763,-3.24633 l -2.507428,-1.04288 -0.856525,0.7521 c -1.109449,0.97414 -3.411028,2.53224 -4.742587,3.2093 l -1.048199,0.5327 0.16787,5.99963 c 0.0931,3.3001 0.09803,6.00092 0.01223,6.00092 -0.133306,0 -9.636544,1.98944 -11.105691,2.32504 -0.440962,0.10086 -0.651106,-0.17312 -1.461898,-1.90075 -0.521069,-1.1103 -1.620785,-3.61081 -2.443989,-5.5568 l -1.497584,-3.53844 -2.436073,-0.41374 c -1.339763,-0.22744 -2.888469,-0.55165 -3.441943,-0.72037 l -1.005882,-0.30667 -4.250898,4.3289 c -2.369626,2.41343 -4.387255,4.27624 -4.56017,4.20989 -0.268486,-0.10307 -9.362984,-5.93888 -9.631895,-6.18069 -0.132759,-0.11942 1.735388,-5.16523 3.207979,-8.66568 l 1.180341,-2.80615 -1.116901,-1.42095 c -0.614235,-0.7818 -1.552438,-2.16824 -2.085799,-3.07977 l -0.970184,-1.65753 h -6.43445 -6.433158 l -1.14467,-5.27261 c -0.629179,-2.9 -1.151711,-5.50469 -1.164511,-5.78815 -0.01723,-0.42437 0.487657,-0.75182 2.860373,-1.85843 1.584868,-0.73916 4.223498,-1.88764 5.863454,-2.55106 l 2.981988,-1.20548 0.268308,-1.83995 c 0.14762,-1.0116 0.446419,-2.61142 0.664862,-3.55559 l 0.39787,-1.71704 -4.320958,-4.27598 c -2.376996,-2.35218 -4.322242,-4.36053 -4.322242,-4.46235 0,-0.15288 5.961062,-9.40312 6.295668,-9.76938 0.152242,-0.16665 2.073945,0.53602 7.160176,2.61715 l 4.503334,1.84256 0.646353,-0.51681 c 0.355236,-0.28413 1.584622,-1.1463 2.732149,-1.91659 l 2.085799,-1.40111 -0.0013,-6.38292 -0.0013,-6.38163 5.395556,-1.167138 c 2.966455,-0.641109 5.601916,-1.138237 5.858176,-1.106321 z m 3.180237,28.460818 c -7.597135,9e-5 -13.755804,6.15876 -13.7559,13.75589 -6.42e-4,7.59765 6.15826,13.75712 13.7559,13.75722 7.597654,-1.1e-4 13.756529,-6.15958 13.755886,-13.75722 -9.6e-5,-7.59713 -6.158752,-13.75579 -13.755886,-13.75589 z"
         style="fill:#df601c;fill-opacity:1;stroke:none;stroke-width:22.4363;stroke-linecap:round;stroke-linejoin:round;stroke-miterlimit:4;stroke-dasharray:none;stroke-dashoffset:0;stroke-opacity:1;paint-order:normal"
         id="path1" /><path
         id="path10-3-5"
         style="fill:#547586;fill-opacity:1;stroke-width:0.839331;stroke-dashoffset:20.512"
         d="M 82.188985,6.0609267 C 73.695681,6.0609372 67.376159,13.016676 67.330169,21.80089 v 18.021239 h 9.767837 V 31.23102 c 0,-12.926287 2.130491,-15.831079 13.859157,-15.831079 h 37.068847 l -0.35993,24.684231 c 0,10.805336 6.73956,16.168103 14.8902,16.168103 h 28.49258 l -0.0196,62.377225 c 0.062,12.12266 -2.27566,14.43116 -15.33048,14.42977 h -7.93412 v 9.98229 h 15.98841 c 7.92635,0.11397 16.53885,-5.51114 16.53885,-14.75977 V 41.499531 L 138.2485,6.0609267 Z m 55.312185,12.7211023 33.28398,27.837623 -26.20516,-0.01196 c -2.91434,0.09783 -6.98993,-3.322418 -7.17566,-6.486174 z"
         sodipodi:nodetypes="ccccssccsccccccscccccccc" /><path
         id="path10-3"
         style="fill:#df601c;fill-opacity:1;stroke-width:0.839331;stroke-dashoffset:20.512"
         d="m 54.188248,32.798647 c -8.493305,1.1e-5 -14.812827,6.95575 -14.858818,15.739963 v 19.086418 h 9.671004 V 57.96874 c 0,-12.926286 2.227327,-15.734245 13.955993,-15.734245 h 37.068843 l -0.359928,24.587397 c 0,10.805332 6.739558,16.168099 14.890198,16.168099 l 28.54847,-0.205417 0.31934,62.425646 c 0.062,12.12266 -2.67046,14.36209 -15.72528,14.3607 h -7.93413 v 10.20836 h 15.9884 c 7.92637,0.11396 16.53885,-5.51114 16.53885,-14.75977 V 68.237251 L 110.24776,32.798647 Z m 55.433342,12.360945 33.01935,28.064862 -25.7878,0.09663 c -2.91434,0.09783 -7.21113,-3.161142 -7.39686,-6.324894 z"
         sodipodi:nodetypes="ccccssccsccccccscccccccc" /><path
         id="path10"
         style="fill:#547586;fill-opacity:1;stroke-width:0.839331;stroke-dashoffset:20.512"
         d="m 25.722829,59.561635 c -8.493316,1.1e-5 -14.812942,6.955624 -14.858933,15.739859 V 181.40208 c 0.04598,8.49393 7.115516,15.25397 14.765686,15.14 h 81.657388 c 7.92638,0.11397 16.5388,-5.51098 16.5388,-14.75962 V 95.000501 L 81.782394,59.561635 Z m 8.408416,9.560166 H 71.2001 v 24.462985 c 0,10.805334 6.739079,16.168384 14.889726,16.168384 h 28.264084 l -0.0193,62.42551 c 0.062,12.12267 -2.04733,14.4434 -15.102167,14.44201 H 34.417084 C 22.761829,186.62279 20.40957,184.3024 20.40957,171.86639 V 84.731791 c 0,-12.926297 1.992999,-15.60999 13.721675,-15.60999 z m 46.718275,2.929225 33.17877,28.263044 -25.914643,-0.012 c -2.914351,0.0978 -7.280384,-3.516201 -7.466104,-6.679952 z"
         sodipodi:nodetypes="cccccscccsccsccccsssccccc" /></g></g></svg>
