<?xml version="1.0" encoding="UTF-8" standalone="no"?>
<!-- Created with Inkscape (http://www.inkscape.org/) -->

<svg
   width="200mm"
   height="200mm"
   viewBox="0 0 200 200"
   version="1.1"
   id="svg1"
   inkscape:version="1.3.1 (91b66b0783, 2023-11-16)"
   sodipodi:docname="protect.svg"
   xml:space="preserve"
   xmlns:inkscape="http://www.inkscape.org/namespaces/inkscape"
   xmlns:sodipodi="http://sodipodi.sourceforge.net/DTD/sodipodi-0.dtd"
   xmlns="http://www.w3.org/2000/svg"
   xmlns:svg="http://www.w3.org/2000/svg"><sodipodi:namedview
     id="namedview1"
     pagecolor="#ffffff"
     bordercolor="#000000"
     borderopacity="0.25"
     inkscape:showpageshadow="2"
     inkscape:pageopacity="0.0"
     inkscape:pagecheckerboard="0"
     inkscape:deskcolor="#d1d1d1"
     inkscape:document-units="mm"
     inkscape:zoom="0.24567199"
     inkscape:cx="-187.24153"
     inkscape:cy="714.36715"
     inkscape:window-width="1362"
     inkscape:window-height="999"
     inkscape:window-x="309"
     inkscape:window-y="0"
     inkscape:window-maximized="0"
     inkscape:current-layer="layer1"
     showguides="true" /><defs
     id="defs1" /><g
     inkscape:label="Слой 1"
     inkscape:groupmode="layer"
     id="layer1"><g
       id="g1"
       transform="matrix(1.9021281,0,0,1.9021281,-5.4962698,-12.599795)"><path
         style="fill:#df601c;fill-opacity:1;stroke:none;stroke-width:19.5;stroke-dashoffset:20.512"
         d="M 55.585642,106.29229 C 35.878822,93.649995 25.642892,78.976425 22.421812,58.750735 c -0.94538,-5.93622 -1.11752,-8.94894 -1.26301,-22.10419 l -0.1435,-12.97606 5.9189,-0.31577 c 6.5835,-0.35122 9.47491,-0.84079 13.74591,-2.32742 4.46283,-1.55341 8.5007,-3.81943 12.80234,-7.18456 2.17118,-1.6985 3.85132,-2.6313 3.83121,-2.12706 -0.007,0.18486 -4.26892,13.49251 -9.47011,29.57256 -7.53971,23.30988 -9.37396,29.25124 -9.04857,29.3094 0.22447,0.0401 3.79854,-0.64141 7.94237,-1.51451 4.14384,-0.87309 7.60665,-1.50123 7.69515,-1.39586 0.1605,0.19111 3.7076,37.902795 3.69497,39.283785 -0.004,0.40018 -0.0959,0.71982 -0.20509,0.71031 -0.10914,-0.01 -1.16068,-0.6346 -2.33674,-1.38907 z"
         id="path5-6" /><path
         style="fill:#547586;fill-opacity:1;stroke:none;stroke-width:19.5;stroke-dashoffset:20.512"
         d="m 59.267002,106.33808 c 0.0877,-0.34309 4.09245,-12.863265 8.89937,-27.822595 4.80693,-14.95934 8.73986,-27.3544 8.73986,-27.5446 0,-0.25741 -1.92848,0.0407 -7.54496,1.16613 -7.44406,1.49171 -7.54648,1.50447 -7.6587,0.95397 -0.25267,-1.23949 -3.86,-41.24603 -3.73074,-41.37528 0.0766,-0.0767 1.12379,0.49425 2.32699,1.26867 11.41805,7.34908 21.39383,10.55043 32.94543,10.57259 l 2.18281,0.004 -0.008,6.41615 c -0.0124,10.33589 -0.45787,23.05923 -0.92408,26.39218 -1.77008,12.65442 -6.10467,23.00136 -13.52254,32.27917 -2.43082,3.04031 -7.31854,7.85963 -10.8342,10.68257 -2.64021,2.120005 -8.87241,6.493455 -10.39992,7.298165 -0.59221,0.31198 -0.62131,0.29401 -0.47163,-0.29131 z"
         id="path18-6" /></g></g></svg>
