<?xml version="1.0" encoding="UTF-8" standalone="no"?>
<!-- Created with Inkscape (http://www.inkscape.org/) -->

<svg
   width="200mm"
   height="200mm"
   viewBox="0 0 200 200"
   version="1.1"
   id="svg1"
   inkscape:version="1.3.1 (91b66b0783, 2023-11-16)"
   sodipodi:docname="protect1.svg"
   xml:space="preserve"
   xmlns:inkscape="http://www.inkscape.org/namespaces/inkscape"
   xmlns:sodipodi="http://sodipodi.sourceforge.net/DTD/sodipodi-0.dtd"
   xmlns="http://www.w3.org/2000/svg"
   xmlns:svg="http://www.w3.org/2000/svg"><sodipodi:namedview
     id="namedview1"
     pagecolor="#ffffff"
     bordercolor="#000000"
     borderopacity="0.25"
     inkscape:showpageshadow="2"
     inkscape:pageopacity="0.0"
     inkscape:pagecheckerboard="0"
     inkscape:deskcolor="#d1d1d1"
     inkscape:document-units="mm"
     inkscape:zoom="0.24567199"
     inkscape:cx="-187.24153"
     inkscape:cy="714.36715"
     inkscape:window-width="1362"
     inkscape:window-height="999"
     inkscape:window-x="309"
     inkscape:window-y="0"
     inkscape:window-maximized="0"
     inkscape:current-layer="layer1"
     showguides="true" /><defs
     id="defs1" /><g
     inkscape:label="Слой 1"
     inkscape:groupmode="layer"
     id="layer1"><g
       id="g3719-1-3"
       transform="matrix(5.1246153,-1.2547225,1.2547225,5.1246153,16528.739,1455.007)"><path
         style="fill:#df601c;fill-opacity:1;stroke:none;stroke-width:0.175586;stroke-opacity:1"
         d="m -2959.9636,-1003.1916 -9.5615,15.51315 4.8158,0.16049 -1.7605,11.8992 9.2375,-15.03753 -4.5578,-0.19015 z"
         id="path3522-9-5-0"
         inkscape:connector-curvature="0"
         sodipodi:nodetypes="ccccccc" /></g><path
       style="fill:#547586;fill-opacity:1;fill-rule:evenodd;stroke:none;stroke-width:2.17843;stroke-linejoin:round;stroke-miterlimit:4;stroke-dasharray:none;stroke-opacity:1"
       d="M 94.868167,188.47866 C 80.841786,179.23545 66.477029,166.43393 58.204664,155.80369 42.386727,135.47783 34.566955,112.74907 32.44083,80.919579 32.106402,75.921496 31.833406,63.239168 31.833406,52.736764 V 33.641723 l 13.58449,-0.675858 c 26.612181,-1.324578 27.006301,-1.215559 37.753296,-8.41099 1.420567,-0.951106 16.869828,-15.7951631 17.581058,-15.7951631 0.71029,0 17.33692,14.6423641 19.44044,15.9356391 11.25007,6.914017 12.36273,6.883331 39.15924,8.262804 l 13.29189,0.68403 v 20.507051 c 0,27.572954 -0.97786,39.586208 -4.44457,54.785074 -4.12408,18.07717 -12.48604,34.99938 -24.36248,49.30281 -4.82665,5.81319 -14.87879,15.31637 -22.11564,20.90905 -6.03324,4.66224 -19.27733,13.51362 -20.13257,13.45472 -0.28382,-0.0231 -3.307146,-1.87461 -6.717679,-4.12223 z m 10.240543,-13.5901 c 28.98896,-17.82259 45.87518,-40.16014 51.70119,-68.39246 2.20611,-10.689751 2.51523,-14.805347 2.80786,-37.384227 l 0.29221,-22.60124 h -6.63308 c -19.75146,-0.02313 -38.13959,-9.481908 -47.74265,-16.285056 -5.31658,-3.006282 -3.28656,-3.36603 -9.079694,0.02313 -8.270206,6.938998 -20.759769,15.408892 -40.811944,16.080741 l -10.954888,0.36715 V 64.37593 c 0,24.056578 1.13323,35.84624 4.681556,48.98824 6.561747,24.30561 21.144266,43.12926 46.262789,59.71948 2.988117,1.97345 5.673081,3.5998 5.966101,3.61429 0.29343,0.0231 1.871,-0.79629 3.50582,-1.80152 z"
       id="path6578-8-05-3-5"
       inkscape:connector-curvature="0"
       sodipodi:nodetypes="cccscccscccscccccccccccccccsccccc" /></g></svg>
