<?xml version="1.0" encoding="UTF-8" standalone="no"?>
<!-- Created with Inkscape (http://www.inkscape.org/) -->

<svg
   width="200mm"
   height="200mm"
   viewBox="0 0 200 200"
   version="1.1"
   id="svg1"
   inkscape:version="1.3.1 (91b66b0783, 2023-11-16)"
   sodipodi:docname="QR1.svg"
   xml:space="preserve"
   xmlns:inkscape="http://www.inkscape.org/namespaces/inkscape"
   xmlns:sodipodi="http://sodipodi.sourceforge.net/DTD/sodipodi-0.dtd"
   xmlns="http://www.w3.org/2000/svg"
   xmlns:svg="http://www.w3.org/2000/svg"><sodipodi:namedview
     id="namedview1"
     pagecolor="#ffffff"
     bordercolor="#000000"
     borderopacity="0.25"
     inkscape:showpageshadow="2"
     inkscape:pageopacity="0.0"
     inkscape:pagecheckerboard="0"
     inkscape:deskcolor="#d1d1d1"
     inkscape:document-units="mm"
     inkscape:zoom="0.34743266"
     inkscape:cx="143.91278"
     inkscape:cy="411.59055"
     inkscape:window-width="1920"
     inkscape:window-height="976"
     inkscape:window-x="-8"
     inkscape:window-y="-8"
     inkscape:window-maximized="1"
     inkscape:current-layer="layer1"
     showguides="true" /><defs
     id="defs1" /><g
     inkscape:label="Слой 1"
     inkscape:groupmode="layer"
     id="layer1"><path
       inkscape:connector-curvature="0"
       id="path3074-2"
       d="M 6.2602561,161.86748 V 130.61059 H 37.51691 68.773563 v 31.25689 31.25642 H 37.51691 6.2602561 Z m 53.5828009,0 V 139.5411 H 37.51691 15.190762 v 22.32638 22.32615 H 37.51691 59.843057 Z m -35.722023,0 V 148.47161 H 37.51691 50.912552 v 13.39587 13.39564 H 37.51691 24.121034 Z m 53.583035,26.79129 v -4.46514 h 4.46537 4.465136 v -8.93051 -8.9305 h -4.465136 -4.46537 v -4.46514 -4.46537 h 4.46537 4.465136 v 4.46537 4.46514 h 4.46537 4.465136 v 4.46513 4.46537 h 4.465139 4.46537 v -8.9305 -8.93051 h -4.46537 -4.465139 v -4.46513 -4.46537 h -8.930506 -8.930506 v -4.46537 -4.46514 h 17.861012 17.861009 v -8.93051 -8.9305 h -4.46513 -4.46537 v -4.46514 -4.46513 h -4.46537 -4.465139 v -4.46514 -4.46537 H 73.238699 50.912552 v 4.46537 4.46514 H 46.447416 41.98228 v 4.46513 4.46514 h -8.930506 -8.93074 v -8.93027 -8.93051 h 8.93074 8.930506 V 99.35394 94.888804 H 28.586404 15.190762 v -4.465136 -4.46537 h -4.46537 -4.4651359 v -4.465136 -4.46537 h 4.4651359 4.46537 v 4.46537 4.465136 h 8.930272 8.93074 v -4.465136 -4.46537 h 4.465136 4.46537 v 4.46537 4.465136 h 4.465136 4.465136 v -4.465136 -4.46537 h 8.930505 8.930506 v 4.46537 4.465136 h 4.465136 4.46537 v -4.465136 -4.46537 h 4.46537 4.465136 v 4.46537 4.465136 h -4.465136 -4.46537 v 4.46537 4.465136 h 8.930506 8.930506 v -4.465136 -4.46537 h 13.395879 13.39541 v -4.465136 -4.46537 h -4.46514 -4.46514 V 68.097286 59.16678 h 4.46514 4.46514 v 8.930506 8.930506 h 4.46536 4.46514 v 4.46537 4.465136 h -4.46514 -4.46536 v 4.46537 4.465136 h 8.9305 8.93051 v -8.930506 -8.930506 h 4.46513 4.46537 v 4.46537 4.465136 h 4.46537 4.46514 v 4.46537 4.465136 h -4.46514 -4.46537 v 4.465136 4.46537 h 8.93051 8.9305 v -4.46537 -4.465136 h 4.46514 4.46537 v 4.465136 4.46537 h 4.46537 4.46514 v -8.930506 -8.930506 h 4.46513 4.46537 v 13.395642 13.39588 h -8.9305 -8.93051 v -4.46514 -4.46537 h -4.46537 -4.46514 v 8.93051 8.93027 h -4.46513 -4.46537 v -4.46514 -4.46513 h -4.46514 -4.46537 v 8.93027 8.9305 h 17.86101 17.86102 v -4.46513 -4.46537 h 4.46513 4.46537 v 4.46537 4.46513 h -4.46537 -4.46513 v 4.46537 4.46514 h 4.46513 4.46537 v 4.46514 4.46537 h -8.9305 -8.93051 v -4.46537 -4.46514 h -8.93051 -8.9305 v 4.46514 4.46537 h 4.46537 4.46513 v 4.46537 4.46513 h -4.46513 -4.46537 v 8.93051 8.9305 h 4.46537 4.46513 v -4.46537 -4.46513 h 4.46514 4.46537 v -4.46514 -4.46537 h 8.93051 8.9305 v 8.93051 8.9305 h -4.46537 -4.46513 v -4.46537 -4.46513 h -4.46514 -4.46537 v 4.46513 4.46537 h -4.46537 -4.46514 v 4.46537 4.46514 h -4.46513 -4.46537 v -4.46514 -4.46537 h -4.46514 -4.46537 v 4.46537 4.46514 h -4.46537 -4.46513 v 4.46514 4.46513 h -4.46514 -4.46537 v -4.46513 -4.46514 h 4.46537 4.46514 v -4.46514 -4.46537 h -4.46514 -4.46537 v -4.46537 -4.46513 h -4.46514 -4.46536 v 8.9305 8.93051 H 104.49559 86.634575 v 4.46514 4.46513 h -4.465136 -4.46537 z m 71.443811,-17.86102 v -4.46513 h -4.46537 -4.46513 v 4.46513 4.46537 h 4.46513 4.46537 z m -35.72179,-17.86077 v -4.46537 h -4.46513 -4.46537 v 4.46537 4.46513 h 4.46537 4.46513 z m 26.79129,0 v -4.46537 h 4.46513 4.46537 v -8.93051 -8.93051 h -4.46537 -4.46513 v -8.9305 -8.93027 h 4.46513 4.46537 v -4.46514 -4.46537 h -4.46537 -4.46513 v 4.46537 4.46514 h -4.46514 -4.46537 v -4.46514 -4.46537 h -8.9305 -8.93028 v -4.46537 -4.465136 h -4.46513 -4.46537 v 4.465136 4.46537 h 4.46537 4.46513 v 4.46537 4.46514 h 4.46514 4.46514 v 4.46513 4.46514 h 4.46536 4.46514 v 8.9305 8.93051 h -4.46514 -4.46536 v 8.93051 8.9305 h 8.9305 8.93051 z M 68.773563,90.423668 v -4.46537 h -4.465136 -4.46537 v 4.46537 4.465136 h 4.46537 4.465136 z M 175.9394,188.65877 v -4.46514 h 4.46537 4.46514 v 4.46514 4.46513 h -4.46514 -4.46537 z M 77.704069,121.68009 v -8.93027 h 4.46537 4.465136 v 4.46513 4.46514 h 4.46537 4.465136 v 4.46537 4.46513 H 86.634575 77.704069 Z M 6.2602561,112.74982 v -8.93051 h 4.4651359 4.46537 v 8.93051 8.93027 h -4.46537 -4.4651359 z m 53.5828009,4.46513 v -4.46513 h 4.46537 4.465136 v 4.46513 4.46514 h -4.465136 -4.46537 z M 6.2602561,36.840632 V 5.5839777 H 37.51691 68.773563 V 36.840632 68.097286 H 37.51691 6.2602561 Z m 53.5828009,0 V 14.514484 H 37.51691 15.190762 V 36.840632 59.16678 H 37.51691 59.843057 Z m -35.722023,0 V 23.444756 H 37.51691 50.912552 V 36.840632 50.236274 H 37.51691 24.121034 Z M 77.704069,59.16678 v -8.930506 h 4.46537 4.465136 v -4.465136 -4.465136 h 4.46537 4.465136 V 27.910126 14.514484 h -4.465136 -4.46537 v -4.46537 -4.4651363 h 4.46537 4.465136 v 4.4651363 4.46537 h 8.930509 8.9305 v 4.465136 4.465136 h 4.46514 4.46514 v 4.46537 4.465136 h -4.46514 -4.46514 v 4.46537 4.46537 h 4.46514 4.46514 v 4.465136 4.465136 h -4.46514 -4.46514 v -4.465136 -4.465136 h -4.46513 -4.46537 v 13.395642 13.395642 h -4.46537 -4.465139 V 63.63215 59.16678 h -4.465136 -4.46537 v 4.46537 4.465136 h -4.465136 -4.46537 z M 113.42609,27.910126 v -4.46537 h -4.46513 -4.46537 v 4.46537 4.465136 h 4.46537 4.46513 z m 17.86078,8.930506 V 5.5839777 h 31.25689 31.25665 V 36.840632 68.097286 h -31.25665 -31.25689 z m 53.58304,0 V 14.514484 H 162.54376 140.21738 V 36.840632 59.16678 h 22.32638 22.32615 z m -35.72203,0 V 23.444756 h 13.39588 13.39564 v 13.395876 13.395642 h -13.39564 -13.39588 z"
       style="fill:#557586;fill-opacity:1;stroke-width:1.48841" /></g></svg>
