<?xml version="1.0" encoding="UTF-8" standalone="no"?>
<!-- Created with Inkscape (http://www.inkscape.org/) -->

<svg
   width="200mm"
   height="200mm"
   viewBox="0 0 200 200"
   version="1.1"
   id="svg1"
   inkscape:version="1.3.1 (91b66b0783, 2023-11-16)"
   sodipodi:docname="question.svg"
   xml:space="preserve"
   xmlns:inkscape="http://www.inkscape.org/namespaces/inkscape"
   xmlns:sodipodi="http://sodipodi.sourceforge.net/DTD/sodipodi-0.dtd"
   xmlns="http://www.w3.org/2000/svg"
   xmlns:svg="http://www.w3.org/2000/svg"><sodipodi:namedview
     id="namedview1"
     pagecolor="#ffffff"
     bordercolor="#000000"
     borderopacity="0.25"
     inkscape:showpageshadow="2"
     inkscape:pageopacity="0.0"
     inkscape:pagecheckerboard="0"
     inkscape:deskcolor="#d1d1d1"
     inkscape:document-units="mm"
     inkscape:zoom="0.34743266"
     inkscape:cx="651.92489"
     inkscape:cy="152.54755"
     inkscape:window-width="1920"
     inkscape:window-height="976"
     inkscape:window-x="-8"
     inkscape:window-y="-8"
     inkscape:window-maximized="1"
     inkscape:current-layer="layer1"
     showguides="true" /><defs
     id="defs1" /><g
     inkscape:label="Слой 1"
     inkscape:groupmode="layer"
     id="layer1"><path
       style="fill:#df601c;fill-opacity:1;stroke-width:1.47013"
       d="m 92.282035,185.48473 c -13.36317,-7.53034 -13.20037,-28.38079 0.27782,-35.34965 12.102995,-6.2588 26.387425,3.5246 26.409655,18.08824 0,12.94568 -15.97971,23.29467 -26.685805,17.26141 z m 6.11373,-61.66061 c 0,-8.57916 4.612375,-26.337034 9.249765,-35.612408 6.06872,-12.137437 8.03013,-17.947448 9.8643,-29.217638 1.78139,-10.945251 -0.46674,-27.409412 -4.66572,-34.207633 -5.47585,-8.859983 -19.424675,-11.928181 -28.651105,-6.302254 -6.8305,4.16509 -7.17332,7.349361 -2.04865,19.025893 5.57198,12.695688 5.59809,15.471895 0.19448,20.876788 -5.17136,5.171357 -11.81849,5.664879 -18.817918,1.397162 C 58.033405,56.438067 56.599294,52.162905 57.571111,42.049171 59.84313,18.402563 93.595585,3.3732919 123.60245,12.646895 c 11.93629,3.689015 22.49847,10.392109 25.49005,16.177006 1.28853,2.491941 3.02436,8.21616 3.85726,12.720525 1.28354,6.943743 1.05906,9.686946 -1.47577,18.031182 -2.47483,8.148263 -4.45236,11.318921 -11.49401,18.428855 -4.67739,4.723065 -13.2326,11.782381 -19.01072,15.687379 -13.41208,9.063798 -15.94247,12.403368 -18.27061,24.116288 -1.88196,9.47008 -4.301215,12.85344 -4.301215,6.01599 z"
       id="path5085"
       inkscape:connector-curvature="0" /></g></svg>
