<?xml version="1.0" encoding="UTF-8" standalone="no"?>
<!-- Created with Inkscape (http://www.inkscape.org/) -->

<svg
   width="200mm"
   height="200mm"
   viewBox="0 0 200 200"
   version="1.1"
   id="svg1"
   inkscape:version="1.3.1 (91b66b0783, 2023-11-16)"
   sodipodi:docname="r_exchange.svg"
   xml:space="preserve"
   xmlns:inkscape="http://www.inkscape.org/namespaces/inkscape"
   xmlns:sodipodi="http://sodipodi.sourceforge.net/DTD/sodipodi-0.dtd"
   xmlns="http://www.w3.org/2000/svg"
   xmlns:svg="http://www.w3.org/2000/svg"><sodipodi:namedview
     id="namedview1"
     pagecolor="#ffffff"
     bordercolor="#000000"
     borderopacity="0.25"
     inkscape:showpageshadow="2"
     inkscape:pageopacity="0.0"
     inkscape:pagecheckerboard="0"
     inkscape:deskcolor="#d1d1d1"
     inkscape:document-units="mm"
     inkscape:zoom="0.49134398"
     inkscape:cx="202.50579"
     inkscape:cy="641.09873"
     inkscape:window-width="1920"
     inkscape:window-height="976"
     inkscape:window-x="-8"
     inkscape:window-y="-8"
     inkscape:window-maximized="1"
     inkscape:current-layer="layer1"
     showguides="true" /><defs
     id="defs1" /><g
     inkscape:label="Слой 1"
     inkscape:groupmode="layer"
     id="layer1"><g
       id="g1"
       transform="translate(-2.3990835,-2.5404585)"><path
         style="fill:#df601c;fill-opacity:1;stroke:#df601c;stroke-width:0.327281px;stroke-linecap:butt;stroke-linejoin:miter;stroke-opacity:1"
         d="m 130.43613,48.198382 38.09501,36.139546 -38.09501,36.139282 V 98.17848 H 80.969304 V 70.112865 h 49.466826 z"
         id="path3049-3"
         inkscape:connector-curvature="0"
         sodipodi:nodetypes="cccccccc" /><path
         style="fill:#df601c;fill-opacity:1;stroke:#df601c;stroke-width:0.327281px;stroke-linecap:butt;stroke-linejoin:miter;stroke-opacity:1"
         d="M 74.362054,83.208724 36.267037,119.34828 74.362054,155.48755 V 133.18883 H 123.82888 V 105.12321 H 74.362054 Z"
         id="path3049-3-9"
         inkscape:connector-curvature="0"
         sodipodi:nodetypes="cccccccc" /></g><path
       id="path1"
       style="fill:#547586;fill-opacity:1;stroke-width:2.81226"
       d="M 12.92384,99.302505 A 87.076219,87.076219 0 0 1 100.00038,12.225983 87.076219,87.076219 0 0 1 187.07617,99.302505 87.076219,87.076219 0 0 1 100.00038,186.37903 87.076219,87.076219 0 0 1 12.92384,99.302505 Z m 12.777908,0 A 74.298216,74.298216 0 0 0 100.00038,173.6004 74.298216,74.298216 0 0 0 174.29826,99.302505 74.298216,74.298216 0 0 0 100.00038,25.004622 74.298216,74.298216 0 0 0 25.701748,99.302505 Z" /></g></svg>
