<?xml version="1.0" encoding="UTF-8" standalone="no"?>
<!-- Created with Inkscape (http://www.inkscape.org/) -->

<svg
   width="200mm"
   height="200mm"
   viewBox="0 0 200 200"
   version="1.1"
   id="svg1"
   inkscape:version="1.3.1 (91b66b0783, 2023-11-16)"
   sodipodi:docname="r_left.svg"
   xml:space="preserve"
   xmlns:inkscape="http://www.inkscape.org/namespaces/inkscape"
   xmlns:sodipodi="http://sodipodi.sourceforge.net/DTD/sodipodi-0.dtd"
   xmlns="http://www.w3.org/2000/svg"
   xmlns:svg="http://www.w3.org/2000/svg"><sodipodi:namedview
     id="namedview1"
     pagecolor="#ffffff"
     bordercolor="#000000"
     borderopacity="0.25"
     inkscape:showpageshadow="2"
     inkscape:pageopacity="0.0"
     inkscape:pagecheckerboard="0"
     inkscape:deskcolor="#d1d1d1"
     inkscape:document-units="mm"
     inkscape:zoom="0.49134398"
     inkscape:cx="167.90681"
     inkscape:cy="480.31524"
     inkscape:window-width="1920"
     inkscape:window-height="976"
     inkscape:window-x="-8"
     inkscape:window-y="-8"
     inkscape:window-maximized="1"
     inkscape:current-layer="layer1"
     showguides="true" /><defs
     id="defs1" /><g
     inkscape:label="Слой 1"
     inkscape:groupmode="layer"
     id="layer1"><g
       id="g1"
       transform="matrix(0,1.4061281,-1.4061281,0,532.35219,-282.31844)"><path
         style="fill:#df601c;fill-opacity:1;stroke:#df601c;stroke-width:0.315401px;stroke-linecap:butt;stroke-linejoin:miter;stroke-opacity:1"
         d="m 236.5709,312.92088 34.82766,36.71214 34.82739,-36.71214 H 284.7367 v -47.67115 h -27.04682 v 47.67115 z"
         id="path3049-3"
         inkscape:connector-curvature="0"
         sodipodi:nodetypes="cccccccc" /><path
         id="path1"
         style="fill:#547586;fill-opacity:1;stroke-width:2"
         d="m 271.39842,245.5509 a 61.926235,61.926235 0 0 0 -61.92645,61.92646 61.926235,61.926235 0 0 0 61.92645,61.92593 61.926235,61.926235 0 0 0 61.92645,-61.92593 61.926235,61.926235 0 0 0 -61.92645,-61.92646 z m 0,9.0873 a 52.838867,52.838867 0 0 1 52.83864,52.83916 52.838867,52.838867 0 0 1 -52.83864,52.83863 52.838867,52.838867 0 0 1 -52.83863,-52.83863 52.838867,52.838867 0 0 1 52.83863,-52.83916 z" /></g></g></svg>
