<?xml version="1.0" encoding="UTF-8" standalone="no"?>
<!-- Created with Inkscape (http://www.inkscape.org/) -->

<svg
   width="200mm"
   height="200mm"
   viewBox="0 0 200 200"
   version="1.1"
   id="svg1"
   inkscape:version="1.3.1 (91b66b0783, 2023-11-16)"
   sodipodi:docname="r_reload_selected.svg"
   xml:space="preserve"
   xmlns:inkscape="http://www.inkscape.org/namespaces/inkscape"
   xmlns:sodipodi="http://sodipodi.sourceforge.net/DTD/sodipodi-0.dtd"
   xmlns="http://www.w3.org/2000/svg"
   xmlns:svg="http://www.w3.org/2000/svg"><sodipodi:namedview
     id="namedview1"
     pagecolor="#ffffff"
     bordercolor="#000000"
     borderopacity="0.25"
     inkscape:showpageshadow="2"
     inkscape:pageopacity="0.0"
     inkscape:pagecheckerboard="0"
     inkscape:deskcolor="#d1d1d1"
     inkscape:document-units="mm"
     inkscape:zoom="0.49134398"
     inkscape:cx="312.40843"
     inkscape:cy="453.85719"
     inkscape:window-width="1920"
     inkscape:window-height="976"
     inkscape:window-x="-8"
     inkscape:window-y="-8"
     inkscape:window-maximized="1"
     inkscape:current-layer="layer1"
     showguides="true" /><defs
     id="defs1" /><g
     inkscape:label="Слой 1"
     inkscape:groupmode="layer"
     id="layer1"><g
       id="g2"
       transform="matrix(1.1335348,0,0,-1.1335348,-219.00013,610.09316)"><path
         style="opacity:1;fill:#547586;fill-opacity:1;stroke-width:2.08874"
         d="m 342.87298,396.41433 14.71586,-8.86868 -0.83838,45.33549 -41.26,-20.32667 c 17.32363,-10.29122 -0.3618,0.43753 14.35268,-8.30371 -46.08475,-50.00403 -119.84417,-7.40243 -115.13631,48.43662 0.3016,3.57728 0.19959,4.59945 -0.59748,5.99294 -2.57618,4.50319 -8.40807,3.97475 -10.40831,-0.94313 -0.68661,-1.68814 -0.78313,-3.69208 -0.53209,-11.04742 2.5452,-74.57742 93.6984,-103.03669 139.70403,-50.27544 z"
         id="path1"
         sodipodi:nodetypes="cccccscssc" /><path
         style="fill:#df601c;fill-opacity:1;stroke-width:2.08874"
         d="m 221.8226,503.60477 -14.71586,8.86868 0.83838,-45.33549 41.26,20.32667 c -17.32363,10.29122 0.3618,-0.43753 -14.35268,8.30371 46.08475,50.00403 119.84417,7.40243 115.13631,-48.43662 -0.3016,-3.57728 -0.19959,-4.59945 0.59748,-5.99294 2.57618,-4.50319 8.40807,-3.97475 10.40831,0.94313 0.68661,1.68814 0.78313,3.69208 0.53209,11.04742 -2.5452,74.57742 -93.6984,103.03669 -139.70403,50.27544 z"
         id="path1-3"
         sodipodi:nodetypes="cccccscssc" /></g><path
       inkscape:connector-curvature="0"
       id="path3494"
       d="M 48.934966,113.56284 79.271364,148.79225 150.70933,63.654021"
       style="fill:none;stroke:#df601c;stroke-width:15.9928;stroke-linecap:round;stroke-linejoin:miter;stroke-miterlimit:4;stroke-dasharray:none;stroke-opacity:1" /></g></svg>
