<?xml version="1.0" encoding="UTF-8" standalone="no"?>
<!-- Created with Inkscape (http://www.inkscape.org/) -->

<svg
   width="200mm"
   height="200mm"
   viewBox="0 0 200 200"
   version="1.1"
   id="svg1"
   inkscape:version="1.3.1 (91b66b0783, 2023-11-16)"
   sodipodi:docname="radio.svg"
   xml:space="preserve"
   xmlns:inkscape="http://www.inkscape.org/namespaces/inkscape"
   xmlns:sodipodi="http://sodipodi.sourceforge.net/DTD/sodipodi-0.dtd"
   xmlns="http://www.w3.org/2000/svg"
   xmlns:svg="http://www.w3.org/2000/svg"><sodipodi:namedview
     id="namedview1"
     pagecolor="#ffffff"
     bordercolor="#000000"
     borderopacity="0.25"
     inkscape:showpageshadow="2"
     inkscape:pageopacity="0.0"
     inkscape:pagecheckerboard="0"
     inkscape:deskcolor="#d1d1d1"
     inkscape:document-units="mm"
     inkscape:zoom="0.98268796"
     inkscape:cx="244.22809"
     inkscape:cy="381.60639"
     inkscape:window-width="1920"
     inkscape:window-height="976"
     inkscape:window-x="-8"
     inkscape:window-y="-8"
     inkscape:window-maximized="1"
     inkscape:current-layer="layer1"
     showguides="true" /><defs
     id="defs1" /><g
     inkscape:label="Слой 1"
     inkscape:groupmode="layer"
     id="layer1"><g
       id="g4828"
       transform="matrix(1.6585603,0,0,1.6585603,3502.1766,-725.1878)"><path
         inkscape:connector-curvature="0"
         id="path4802"
         d="m -2043.0482,477.74931 h 9.477 l -0.4238,-0.0682 v -3.12386 c 0,-2.80402 -0.061,-3.21357 -0.5953,-3.9987 -0.9272,-1.36242 -1.8709,-1.92431 -3.4282,-2.04123 -1.7462,-0.1311 -2.9353,0.46085 -4.0318,2.00763 -0.7369,1.03944 -0.7856,1.27265 -0.8925,4.27209 z"
         style="fill:#547586;fill-opacity:1;stroke-width:0.264583"
         sodipodi:nodetypes="cccscsccc" /><path
         inkscape:connector-curvature="0"
         id="path4800"
         d="m -2062.2005,479.02552 h -7.9251 l -0.5803,0.0961 c -1.4905,0.24681 -2.4558,0.67718 -3.422,1.52548 -1.7435,1.53099 -1.6745,-0.0188 -1.6645,35.75442 0,17.76349 0.1108,32.7497 0.2392,33.30286 0.4372,1.88307 1.7919,3.3182 3.6815,3.90002 h 5e-4 c 0.3867,0.11911 9.6324,0.19507 20.5465,0.16899 l 19.8438,-0.0476 0.9813,-0.60979 c 1.4578,-0.90646 2.2512,-1.99704 2.5864,-3.5543 0.2181,-1.00608 0.2771,-10.41622 0.2181,-33.93591 l -0.082,-32.54375 -0.6614,-1.18028 c -0.6665,-1.18922 -2.019,-2.31373 -3.0267,-2.51613 -0.2997,-0.0602 -0.9917,-0.18101 -1.5374,-0.26871 l -29.1509,-0.0321 c -0.018,-0.007 -0.032,-0.0433 -0.049,-0.0594 z m -4.6033,11.33263 h 30.9733 l -0.149,6.21771 -30.8239,0.1364 z m 30.4276,13.48962 5e-4,6.35413 -30.8421,-0.3483 0.018,-5.86941 z"
         style="fill:#547586;fill-opacity:1;stroke-width:0.264583"
         sodipodi:nodetypes="ccsccccccccccccscccccccccccccc" /><path
         inkscape:connector-curvature="0"
         id="path4795"
         d="m -2066.0659,441.96319 c -0.6483,-0.0355 -1.2971,0.0665 -1.7875,0.31469 -0.3594,0.18188 -0.925,0.73343 -1.2568,1.22577 l -0.6035,0.89556 v 17.27903 17.27907 l -0.4119,0.0682 h 7.9251 c -0.3269,-0.31324 -0.3695,-2.57569 -0.3695,-17.00051 0,-18.77306 0.026,-18.47747 -1.7115,-19.55128 -0.4883,-0.30179 -1.1361,-0.47503 -1.7844,-0.51054 z"
         style="fill:#df601c;fill-opacity:1;stroke-width:0.264583" /><path
         id="path4802-1"
         d="m -2057.7806,477.84481 h 9.477 l -0.4238,-0.0682 v -3.12386 c 0,-2.80402 -0.061,-3.21357 -0.5953,-3.9987 -0.9272,-1.36242 -1.8709,-1.92431 -3.4282,-2.04123 -1.7462,-0.1311 -2.9353,0.46085 -4.0318,2.00763 -0.7369,1.03944 -0.7855,1.27265 -0.8924,4.2721 z"
         style="fill:#df601c;fill-opacity:1;stroke-width:0.264583"
         inkscape:connector-curvature="0" /><rect
         ry="0"
         rx="0"
         y="519.48706"
         x="-2068.5002"
         height="18.514872"
         width="33.647049"
         id="rect4819"
         style="opacity:1;fill:#df601c;fill-opacity:1;stroke:none;stroke-width:0.377437;stroke-linecap:round;stroke-linejoin:round;stroke-miterlimit:4;stroke-dasharray:none;stroke-dashoffset:0;stroke-opacity:1;paint-order:normal" /></g></g></svg>
