<?xml version="1.0" encoding="UTF-8" standalone="no"?>
<!-- Created with Inkscape (http://www.inkscape.org/) -->

<svg
   width="200mm"
   height="200mm"
   viewBox="0 0 200 200"
   version="1.1"
   id="svg1"
   inkscape:version="1.3.1 (91b66b0783, 2023-11-16)"
   sodipodi:docname="rstrigger.svg"
   xml:space="preserve"
   xmlns:inkscape="http://www.inkscape.org/namespaces/inkscape"
   xmlns:sodipodi="http://sodipodi.sourceforge.net/DTD/sodipodi-0.dtd"
   xmlns="http://www.w3.org/2000/svg"
   xmlns:svg="http://www.w3.org/2000/svg"><sodipodi:namedview
     id="namedview1"
     pagecolor="#ffffff"
     bordercolor="#000000"
     borderopacity="0.25"
     inkscape:showpageshadow="2"
     inkscape:pageopacity="0.0"
     inkscape:pagecheckerboard="0"
     inkscape:deskcolor="#d1d1d1"
     inkscape:document-units="mm"
     inkscape:zoom="0.69486532"
     inkscape:cx="395.04058"
     inkscape:cy="413.02968"
     inkscape:window-width="1394"
     inkscape:window-height="960"
     inkscape:window-x="510"
     inkscape:window-y="0"
     inkscape:window-maximized="0"
     inkscape:current-layer="layer1"
     showguides="true" /><defs
     id="defs1" /><g
     inkscape:label="Слой 1"
     inkscape:groupmode="layer"
     id="layer1"><g
       id="g23"
       transform="matrix(1.2430388,0,0,1.2430388,-24.573159,-24.13575)"><path
         id="path23"
         style="fill:#df601c;fill-opacity:1;stroke-width:1.16833;stroke-dashoffset:20.512"
         d="M 46.616791,23.145874 V 56.38984 H 65.099384 V 69.852067 H 46.616791 v 59.064103 h 18.482593 v 13.46222 H 46.616791 v 33.6982 H 98.803779 V 23.145874 Z m 0,119.232516 V 128.91617 H 24.339598 v 13.46222 z m 0,-72.526323 V 56.38984 H 24.339598 V 69.852067 Z M 74.112788,50.454285 h 5.139221 c 2.864716,0 4.805634,0.117028 5.8229,0.350883 1.531747,0.350782 2.776887,1.104815 3.735689,2.262394 0.958803,1.145887 1.438156,2.560951 1.438156,4.244702 0,1.403127 -0.332937,2.636512 -0.999423,3.70055 -0.654792,1.064037 -1.596381,1.870965 -2.824117,2.420524 -1.227734,0.537864 -2.922841,0.812546 -5.085994,0.824239 l 9.277987,11.996684 H 87.425153 L 78.16422,64.257577 h -1.472778 v 11.996684 h -2.578654 z m 2.578654,2.525427 v 8.770008 l 4.436938,0.03462 c 1.718829,0 2.987479,-0.163531 3.805969,-0.490926 0.830183,-0.327397 1.473583,-0.84789 1.929598,-1.561145 0.467709,-0.72495 0.701249,-1.531361 0.701249,-2.420008 0,-0.865261 -0.23354,-1.648681 -0.701249,-2.350244 C 86.396239,54.248765 85.782226,53.740026 85.022199,53.436015 84.262173,53.132004 82.9994,52.979712 81.2338,52.979712 Z m 4.463293,68.923958 c 1.216044,0 2.350547,0.30407 3.402893,0.91209 1.064038,0.59633 2.186271,1.70093 3.367236,3.31453 l -2.104781,1.59628 c -0.970496,-1.2862 -1.800416,-2.13375 -2.490287,-2.54299 -0.678178,-0.40925 -1.420973,-0.61392 -2.227771,-0.61392 -1.040653,0 -1.894082,0.31582 -2.560567,0.94723 -0.654793,0.63141 -0.981852,1.40895 -0.981852,2.33267 0,0.56125 0.116511,1.10474 0.350366,1.63091 0.233854,0.52617 0.660827,1.09905 1.280542,1.71876 0.339089,0.3274 1.450083,1.1867 3.332613,2.57814 2.233311,1.64867 3.764884,3.11611 4.595068,4.40231 0.830184,1.2862 1.245402,2.57836 1.245402,3.87625 0,1.87084 -0.713408,3.49645 -2.139921,4.87619 -1.41482,1.37974 -3.139309,2.06964 -5.173844,2.06964 -1.566826,0 -2.987765,-0.41522 -4.262272,-1.2454 -1.274508,-0.84188 -2.449635,-2.24518 -3.525367,-4.20956 l 2.192632,-1.31517 c 1.54344,2.84134 3.326185,4.26176 5.349027,4.26176 0.865262,0 1.678067,-0.1988 2.438094,-0.59635 0.760028,-0.40924 1.338775,-0.95273 1.736328,-1.63091 0.397553,-0.67818 0.596346,-1.39746 0.596346,-2.15749 0,-0.86526 -0.292312,-1.71281 -0.876949,-2.543 -0.806798,-1.14588 -2.280116,-2.52568 -4.419885,-4.13928 -2.151462,-1.62529 -3.49012,-2.80041 -4.016292,-3.52536 -0.912033,-1.21605 -1.367876,-2.53171 -1.367876,-3.94653 0,-1.12251 0.268804,-2.14534 0.80667,-3.06907 0.537865,-0.92372 1.291897,-1.64888 2.262394,-2.17506 0.982189,-0.53786 2.046165,-0.80667 3.192053,-0.80667 z"
         sodipodi:nodetypes="ccccccccccccccccccccccccsccscccccccccccccccscsscsccccscssccsscscccscsscccsscs" /><path
         id="path23-7-3-9"
         style="fill:#547586;fill-opacity:1;stroke-width:0.385583;stroke-dashoffset:20.512"
         d="M 103.92749,23.015133 V 175.94585 h 52.18752 V 69.852068 H 137.66652 V 56.38984 h 18.44849 V 23.015133 Z m 52.18752,33.374707 v 13.462228 h 20.19463 V 56.38984 Z"
         sodipodi:nodetypes="cccccccccccccc" /></g></g></svg>
