<?xml version="1.0" encoding="UTF-8" standalone="no"?>
<!-- Created with Inkscape (http://www.inkscape.org/) -->

<svg
   width="200mm"
   height="200mm"
   viewBox="0 0 200 200"
   version="1.1"
   id="svg1"
   inkscape:version="1.3.1 (91b66b0783, 2023-11-16)"
   sodipodi:docname="RTMEX.svg"
   xml:space="preserve"
   xmlns:inkscape="http://www.inkscape.org/namespaces/inkscape"
   xmlns:sodipodi="http://sodipodi.sourceforge.net/DTD/sodipodi-0.dtd"
   xmlns="http://www.w3.org/2000/svg"
   xmlns:svg="http://www.w3.org/2000/svg"><sodipodi:namedview
     id="namedview1"
     pagecolor="#ffffff"
     bordercolor="#000000"
     borderopacity="0.25"
     inkscape:showpageshadow="2"
     inkscape:pageopacity="0.0"
     inkscape:pagecheckerboard="0"
     inkscape:deskcolor="#d1d1d1"
     inkscape:document-units="mm"
     inkscape:zoom="0.34743266"
     inkscape:cx="106.49546"
     inkscape:cy="415.90793"
     inkscape:window-width="1488"
     inkscape:window-height="999"
     inkscape:window-x="319"
     inkscape:window-y="12"
     inkscape:window-maximized="0"
     inkscape:current-layer="layer1"
     showguides="true" /><defs
     id="defs1"><filter
       inkscape:collect="always"
       style="color-interpolation-filters:sRGB"
       id="filter12"
       x="-0.068427656"
       y="-0.10578996"
       width="1.1368553"
       height="1.2115799"><feGaussianBlur
         inkscape:collect="always"
         stdDeviation="5.3674345"
         id="feGaussianBlur12" /></filter></defs><g
     inkscape:label="Слой 1"
     inkscape:groupmode="layer"
     id="layer1"><path
       style="fill:#547586;fill-opacity:1;stroke-width:2.98716;filter:url(#filter12)"
       d="m 82.458235,-212.41651 -6.03e-4,-45.14349 10.383697,-3.45351 c 11.234681,-3.73658 13.333581,-0.17121 16.369241,6.09189 5.22143,10.77269 3.92857,35.95047 -2.23816,45.96253 -0.8764,1.4232 -1.28696,2.93736 -1.13782,3.44911 l 14.2454,48.96056 -11.45706,-2.47537 -11.946398,-41.06211 h -5.524519 l -2.41e-4,36.34928 -8.69414,-2.67386 z m 17.159752,-4.90002 c 3.200943,-2.03422 3.296233,-16.77564 2.392123,-22.11603 -0.50693,-2.99443 -1.3302,-11.03337 -5.694378,-9.55326 l -5.163719,1.75128 v 30.55059 h 3.754249 c 2.064813,0 4.185041,-0.28671 4.711725,-0.62029 z m 30.261553,13.67343 -1.2e-4,-43.83502 -11.06482,1.91049 -3.6e-4,-21.84244 31.61453,-5.03145 v 20.80558 l -11.85569,2.30358 1.2e-4,45.68926 -2.4e-4,50.11127 -8.69366,-1.37812 z m 26.8722,-8.6939 -3.6e-4,-60.30612 10.27419,-0.40675 8.42743,60.84767 8.59282,-60.78925 9.85255,0.5289 v 120.58979 l -7.9035,0.42097 v -76.82427 l -8.39743,39.64984 h -5.38731 l -7.55463,-39.64828 -1.2e-4,76.99273 -7.904,-0.47759 z m 47.42131,-59.12176 26.08133,3.93575 2.4e-4,26.33801 -17.38767,-2.54295 v 19.14024 h 15.80678 v 17.38804 h -15.80678 v 27.68392 l 17.38767,-3.97326 -2.4e-4,26.65816 -26.08133,4.02884 z m 37.53972,81.03227 6.04,-22.90377 -15.43334,-53.74724 10.92713,2.52546 9.83183,34.61895 8.82328,-29.45805 7.89677,2.66063 -12.08313,43.12607 12.99724,45.76532 -9.04615,2.96493 -8.87701,-31.92913 -10.22383,37.27015 -11.34636,2.57854 z"
       id="path92-5-4"
       sodipodi:nodetypes="ccssssccccccccssccsccccccccccccccccccccccccccccccccccccccccccccccccccccccc"
       transform="matrix(1.0226448,0,0,1.0973825,-78.560812,329.90911)" /><path
       style="fill:#df601c;fill-opacity:1;stroke-width:2.98716"
       d="M 6.4463687,96.782369 6.4457664,51.63888 16.829463,48.185366 c 11.234678,-3.736576 13.333583,-0.171208 16.369244,6.091897 5.221422,10.772685 3.928565,35.950464 -2.238166,45.962527 -0.876401,1.4232 -1.286954,2.93736 -1.137816,3.44911 l 14.245402,48.96056 -11.457061,-2.47537 -11.9464,-41.06211 h -5.524519 l -2.41e-4,36.34928 -8.6941396,-2.67386 z M 23.606121,91.882354 c 3.200942,-2.03422 3.296231,-16.775647 2.392123,-22.116031 -0.506927,-2.994437 -1.330202,-11.033377 -5.694378,-9.553265 l -5.163719,1.751284 v 30.550587 h 3.754249 c 2.064813,0 4.185041,-0.286713 4.711725,-0.620288 z m 30.261555,13.673426 -1.2e-4,-43.835024 -11.064819,1.910494 -3.62e-4,-21.842443 31.614526,-5.031445 v 20.805579 l -11.855688,2.30358 1.2e-4,45.689259 -2.41e-4,50.11127 -8.693657,-1.37812 z m 26.872202,-8.693902 -3.61e-4,-60.306119 10.274191,-0.406746 8.427427,60.847668 8.592815,-60.789253 9.85255,0.5289 V 157.32612 l -7.9035,0.42097 V 80.922817 l -8.39743,39.649843 h -5.387303 l -7.554637,-39.648277 -1.2e-4,76.992727 -7.903993,-0.47759 z m 47.421302,-59.121755 26.08133,3.935746 2.4e-4,26.338013 -17.38767,-2.542948 v 19.140237 h 15.80678 v 17.388039 h -15.80678 v 27.68392 l 17.38767,-3.97326 -2.4e-4,26.65816 -26.08133,4.02884 z m 37.53972,81.032267 6.04,-22.903767 -15.43334,-53.747241 10.92713,2.525456 9.83183,34.618949 8.82328,-29.458049 7.89677,2.660633 -12.08313,43.126068 12.99724,45.765321 -9.04615,2.96493 -8.87701,-31.92913 -10.22383,37.27015 -11.34636,2.57854 z"
       id="path92-5"
       sodipodi:nodetypes="ccssssccccccccssccsccccccccccccccccccccccccccccccccccccccccccccccccccccccc" /></g></svg>
