<?xml version="1.0" encoding="UTF-8" standalone="no"?>
<!-- Created with Inkscape (http://www.inkscape.org/) -->

<svg
   width="200mm"
   height="200mm"
   viewBox="0 0 200 200"
   version="1.1"
   id="svg1"
   inkscape:version="1.3.1 (91b66b0783, 2023-11-16)"
   sodipodi:docname="save.svg"
   xml:space="preserve"
   xmlns:inkscape="http://www.inkscape.org/namespaces/inkscape"
   xmlns:sodipodi="http://sodipodi.sourceforge.net/DTD/sodipodi-0.dtd"
   xmlns="http://www.w3.org/2000/svg"
   xmlns:svg="http://www.w3.org/2000/svg"><sodipodi:namedview
     id="namedview1"
     pagecolor="#ffffff"
     bordercolor="#000000"
     borderopacity="0.25"
     inkscape:showpageshadow="2"
     inkscape:pageopacity="0.0"
     inkscape:pagecheckerboard="0"
     inkscape:deskcolor="#d1d1d1"
     inkscape:document-units="mm"
     inkscape:zoom="0.24567199"
     inkscape:cx="-91.585532"
     inkscape:cy="81.409362"
     inkscape:window-width="1920"
     inkscape:window-height="976"
     inkscape:window-x="-8"
     inkscape:window-y="-8"
     inkscape:window-maximized="1"
     inkscape:current-layer="layer1"
     showguides="true" /><defs
     id="defs1" /><g
     inkscape:label="Слой 1"
     inkscape:groupmode="layer"
     id="layer1"><g
       id="g14"
       transform="matrix(2.1963067,0,0,2.1963067,243.51109,-101.71403)"><path
         id="path11"
         style="fill:#547586;fill-opacity:1;stroke-width:0.2"
         d="m -103.13479,50.047074 v 75.585566 h 75.585567 V 50.047074 Z m 7.312732,7.312732 h 60.960103 v 60.960104 h -60.960103 z" /><path
         style="fill:#df601c;fill-opacity:1;stroke-width:0.2"
         d="m -95.918694,127.85391 h 15.00529 v 5.78377 h -15.00529 z"
         id="path11-1" /><path
         style="fill:#df601c;fill-opacity:1;stroke-width:0.2"
         d="m -49.698557,127.85391 h 15.00529 v 5.78377 h -15.00529 z"
         id="path11-1-0" /><path
         id="path11-1-6"
         style="fill:#df601c;fill-opacity:1;stroke-width:0.2"
         d="M -90.683357,63.922982 V 114.7049 h 50.682701 v -9.58908 h -4.836921 v 4.74234 h -41.00886 V 68.769714 h 41.00886 v 4.74183 h 4.836921 v -9.588562 z m 45.84578,17.287317 v 15.396476 h 4.836921 V 81.210299 Z" /><path
         id="path11-1-6-8"
         style="fill:#547586;fill-opacity:1;stroke-width:0.0306918"
         d="m -46.355527,72.453211 v 9.815421 h 7.87282 v -9.815421 z m 1.809683,1.793119 h 4.253454 v 6.229183 h -4.253454 z"
         sodipodi:nodetypes="cccccccccc" /><path
         id="path11-1-6-8-8"
         style="fill:#547586;fill-opacity:1;stroke-width:0.0306918"
         d="m -46.355527,96.606775 v 9.815425 h 7.87282 v -9.815425 z m 1.809683,1.793119 h 4.253454 v 6.229186 h -4.253454 z"
         sodipodi:nodetypes="cccccccccc" /><circle
         style="fill:#df601c;fill-opacity:1;stroke:#df601c;stroke-width:0.50238;stroke-dasharray:none;stroke-opacity:1"
         id="path12"
         cx="-65.342003"
         cy="89.313942"
         r="5.6603656" /><path
         style="fill:#547586;fill-opacity:1;stroke-width:0.543426"
         d="m -66.706489,101.6948 c -2.390768,-0.22736 -5.19166,-1.4945 -7.042518,-3.186067 -1.696661,-1.550655 -3.072347,-3.820995 -3.682531,-6.077411 -0.445959,-1.649102 -0.45298,-4.563881 -0.01492,-6.182595 1.580236,-5.838981 6.786318,-9.683155 12.692831,-9.37239 1.820796,0.0958 2.985008,0.380161 4.5785,1.11832 3.550329,1.644633 6.023407,4.647418 6.95087,8.439654 0.419304,1.714469 0.413714,4.233348 -0.01295,5.853236 -1.124432,4.268661 -4.367155,7.679116 -8.520359,8.961073 -0.851743,0.2629 -1.328362,0.33719 -3.283601,0.51176 -0.276779,0.0247 -1.026171,-0.005 -1.665319,-0.0656 z m 0.977324,-4.051392 c 0.04075,-1.46524 0.04302,-1.47377 0.40043,-1.47377 0.357369,0 0.359695,0.009 0.400429,1.47377 l 0.04098,1.473755 h 0.475203 c 0.6832,0 2.543147,-0.5008 3.303839,-0.889595 l 0.650691,-0.33255 -0.709081,-1.15025 c -0.755519,-1.2256 -0.841563,-1.69662 -0.323406,-1.77034 0.324315,-0.0461 0.325535,-0.0447 1.435378,1.74208 l 0.429008,0.69066 0.767857,-0.69037 c 0.422327,-0.37971 1.018506,-1.00746 1.32484,-1.395 l 0.556967,-0.70463 -1.264776,-0.737614 c -1.04731,-0.610782 -1.264783,-0.798366 -1.264783,-1.090953 0,-0.560512 0.407791,-0.509386 1.649435,0.206793 0.627491,0.361937 1.203962,0.658068 1.281053,0.658068 0.308485,0 1.013923,-2.361736 1.019983,-3.414803 l 0.003,-0.611077 h -1.266549 c -1.431038,0 -1.949778,-0.210065 -1.665712,-0.674535 0.1328,-0.217132 0.390984,-0.266865 1.564808,-0.301419 l 1.405771,-0.04143 -0.09549,-0.812409 c -0.105055,-0.893833 -0.650881,-2.585723 -1.011999,-3.13685 l -0.230478,-0.351765 -1.16169,0.728055 c -1.141754,0.71555 -1.487512,0.78868 -1.655775,0.350189 -0.120022,-0.312772 0.112622,-0.5415 1.249339,-1.228313 0.549241,-0.331859 0.998616,-0.662885 0.998616,-0.735621 0,-0.200332 -1.892502,-2.029225 -2.387329,-2.30708 l -0.434014,-0.243717 -0.701666,1.214232 c -0.707733,1.224753 -0.999661,1.439446 -1.36259,1.002138 -0.14376,-0.173216 -0.05476,-0.422403 0.485625,-1.35922 0.363914,-0.630922 0.661658,-1.212028 0.661658,-1.291346 0,-0.172027 -1.945279,-0.799048 -2.911567,-0.938491 l -0.682965,-0.09856 v 1.274084 c 0,1.303844 -0.114607,1.619161 -0.588499,1.619161 -0.345107,0 -0.417971,-0.290277 -0.417971,-1.665243 0,-1.392107 0.109145,-1.32284 -1.551705,-0.984861 -1.07707,0.219177 -2.617951,0.810736 -2.617951,1.005054 0,0.05294 0.292451,0.56545 0.649896,1.138944 0.683336,1.096377 0.723556,1.512576 0.146168,1.512576 -0.246224,0 -0.475263,-0.246285 -0.959646,-1.031935 -0.349924,-0.567563 -0.714496,-1.05802 -0.810167,-1.089908 -0.226691,-0.07559 -2.661677,2.35863 -2.586124,2.585275 0.03181,0.09532 0.506053,0.437226 1.053969,0.759791 0.800525,0.47128 0.996199,0.655478 0.996199,0.937749 0,0.542705 -0.388742,0.506644 -1.493436,-0.138533 -0.550559,-0.321544 -1.041819,-0.584629 -1.09168,-0.584629 -0.262108,0 -0.900165,1.931509 -1.150064,3.481426 l -0.08607,0.533911 1.39213,0.04128 c 1.160758,0.03439 1.418571,0.08444 1.551174,0.30126 0.284907,0.465833 -0.234386,0.674542 -1.678339,0.674542 h -1.279189 l 0.09449,0.61107 c 0.246702,1.595438 0.91876,3.558585 1.218232,3.558585 0.08108,0 0.601662,-0.291155 1.156834,-0.647017 1.081213,-0.693039 1.309926,-0.758678 1.566475,-0.449571 0.274514,0.330783 0.05241,0.585461 -1.137884,1.305055 l -1.141535,0.690092 0.318582,0.44936 c 0.411511,0.58043 1.347017,1.51437 1.93338,1.93013 l 0.460652,0.32663 0.204771,-0.32858 c 0.11263,-0.18072 0.427174,-0.71678 0.698992,-1.19127 0.510946,-0.89188 0.87745,-1.08743 1.169704,-0.62411 0.117977,0.18704 0.0045,0.48918 -0.523512,1.39857 -0.3707,0.638 -0.673997,1.184 -0.673997,1.21335 0,0.25212 2.686415,1.078605 3.553556,1.093255 l 0.606041,0.0102 z"
         id="path13" /></g></g></svg>
