<?xml version="1.0" encoding="UTF-8" standalone="no"?>
<!-- Created with Inkscape (http://www.inkscape.org/) -->

<svg
   width="200mm"
   height="200mm"
   viewBox="0 0 200 200"
   version="1.1"
   id="svg1"
   inkscape:version="1.3.1 (91b66b0783, 2023-11-16)"
   sodipodi:docname="scaner.svg"
   xml:space="preserve"
   xmlns:inkscape="http://www.inkscape.org/namespaces/inkscape"
   xmlns:sodipodi="http://sodipodi.sourceforge.net/DTD/sodipodi-0.dtd"
   xmlns="http://www.w3.org/2000/svg"
   xmlns:svg="http://www.w3.org/2000/svg"><sodipodi:namedview
     id="namedview1"
     pagecolor="#ffffff"
     bordercolor="#000000"
     borderopacity="0.25"
     inkscape:showpageshadow="2"
     inkscape:pageopacity="0.0"
     inkscape:pagecheckerboard="0"
     inkscape:deskcolor="#d1d1d1"
     inkscape:document-units="mm"
     inkscape:zoom="0.49134398"
     inkscape:cx="628.88732"
     inkscape:cy="468.10383"
     inkscape:window-width="1920"
     inkscape:window-height="976"
     inkscape:window-x="-8"
     inkscape:window-y="-8"
     inkscape:window-maximized="1"
     inkscape:current-layer="layer1"
     showguides="true" /><defs
     id="defs1" /><g
     inkscape:label="Слой 1"
     inkscape:groupmode="layer"
     id="layer1"><g
       id="g4836"
       transform="matrix(0.99593665,0,0,0.99593665,1778.4846,-2046.0397)"><g
         transform="translate(203.04644,-12.343249)"
         id="g4823"><g
           id="g4812"
           style="fill:#df601c;fill-opacity:1"><path
             inkscape:connector-curvature="0"
             id="path4801"
             d="m -1813.9835,2152.6703 v 26.4583 26.4583 h 3.8364 3.8365 v -26.4583 -26.4583 h -3.8365 z"
             style="fill:#df601c;fill-opacity:1;stroke-width:0.264583" /><path
             inkscape:connector-curvature="0"
             id="path4798"
             d="m -1836.4731,2152.6703 v 26.4583 26.4583 h 7.5406 7.5406 v -26.4583 -26.4583 h -7.5406 z"
             style="fill:#df601c;fill-opacity:1;stroke-width:0.264583" /><path
             inkscape:connector-curvature="0"
             id="path4796"
             d="m -1870.6044,2152.6703 v 26.4583 26.4583 h 5.6886 5.6885 v -26.4583 -26.4583 h -5.6885 z"
             style="fill:#df601c;fill-opacity:1;stroke-width:0.264583" /><path
             inkscape:connector-curvature="0"
             id="path4793"
             d="m -1885.6856,2152.6703 v 26.4583 26.4583 h 3.7042 3.7041 v -26.4583 -26.4583 h -3.7041 z"
             style="fill:#df601c;fill-opacity:1;stroke-width:0.264583" /><path
             inkscape:connector-curvature="0"
             id="path4791"
             d="m -1923.521,2152.6703 v 26.4583 26.4583 h 15.0812 15.0813 v -26.4583 -26.4583 h -15.0813 z"
             style="fill:#df601c;fill-opacity:1;stroke-width:0.264583" /><path
             inkscape:connector-curvature="0"
             id="path4789"
             d="m -1942.3064,2152.6703 v 26.4583 26.4583 h 5.5562 5.5563 v -26.4583 -26.4583 h -5.5563 z"
             style="fill:#df601c;fill-opacity:1;stroke-width:0.264583" /><path
             inkscape:connector-curvature="0"
             id="path4787"
             d="m -1957.6523,2152.6703 v 26.4583 26.4583 h 3.8365 3.8364 v -26.4583 -26.4583 h -3.8364 z"
             style="fill:#df601c;fill-opacity:1;stroke-width:0.264583" /><path
             inkscape:connector-curvature="0"
             id="path4785"
             d="m -1844.1455,2152.6563 -3.7703,0.073 -3.7704,0.073 -0.068,26.3921 -0.067,26.3933 h 3.8375 3.838 v -26.4656 z"
             style="fill:#df601c;fill-opacity:1;stroke-width:0.264583" /></g></g><path
         inkscape:connector-curvature="0"
         id="path4780"
         d="m -1753.2476,2079.724 -3.7703,0.073 -3.7703,0.073 -0.068,22.6678 -0.068,22.6679 -5.0917,0.089 c -5.0846,0.089 -5.0943,0.091 -6.8745,0.9281 -2.2411,1.0545 -4.3714,3.0521 -5.5263,5.1816 l -0.8929,1.6464 v 45.1114 45.1115 l 0.7581,1.4413 c 1.5962,3.0331 4.9488,5.5549 8.1054,6.0973 v 0 c 1.814,0.3076 168.3543,0.3116 170.2594,0 3.5716,-0.5842 6.7661,-3.0702 8.4135,-6.5479 l 0.8469,-1.788 0.069,-43.9849 c 0.069,-43.5493 0.064,-44 -0.4656,-45.5084 -1.1966,-3.4091 -4.0208,-6.1874 -7.3293,-7.2093 -1.4457,-0.4471 -2.462,-0.5318 -6.3236,-0.5318 h -4.6008 l -0.068,-22.6885 -0.068,-22.6875 h -3.7042 -3.7041 l -0.068,22.6875 -0.068,22.6885 h -3.7011 -3.7016 l -0.068,-22.6885 -0.068,-22.6875 -7.4745,-0.07 -7.4745,-0.07 v 22.7583 22.7583 h -3.8364 -3.8365 v -22.7619 -22.7614 l -3.7703,0.073 -3.7703,0.073 -0.068,22.688 -0.068,22.688 h -3.7011 -3.7016 l -0.068,-22.688 -0.068,-22.688 -5.6224,-0.071 -5.6224,-0.071 v 22.7594 22.7598 h -3.8364 -3.8365 v -22.7541 -22.7547 h -3.7041 -3.7042 v 22.7547 22.7541 h -3.8365 -3.8364 v -22.7541 -22.7547 h -15.0813 -15.0812 v 22.7547 22.7541 h -3.8365 -3.8364 v -22.7541 -22.7547 h -5.5563 -5.5562 v 22.7547 22.7541 h -3.8365 -3.8365 v -22.7619 z m 151.7029,52.9301 1.1261,0.5452 c 0.8175,0.3957 1.2755,0.8537 1.6712,1.6712 0.5447,1.1225 0.5451,1.2559 0.5446,43.3095 -4e-4,39.6327 -0.028,42.2392 -0.463,43.1044 -0.2544,0.5063 -0.8672,1.191 -1.3617,1.5213 l -0.8991,0.6041 h -84.3235 -84.3241 l -0.8992,-0.6051 c -0.4944,-0.3328 -1.0504,-0.9209 -1.2361,-1.3069 -0.2694,-0.5602 -0.3373,-9.2997 -0.3364,-43.2837 7e-4,-25.123 0.1005,-42.8385 0.2434,-43.2087 0.3682,-0.9541 1.455,-1.8358 2.5874,-2.0986 0.5852,-0.1358 36.4369,-0.2424 84.3443,-0.2424 z m -1.8433,2.8727 -2.4686,65.4192 z"
         style="fill:#547586;fill-opacity:1;stroke-width:0.264583" /></g></g></svg>
