<?xml version="1.0" encoding="UTF-8" standalone="no"?>
<!-- Created with Inkscape (http://www.inkscape.org/) -->

<svg
   width="200mm"
   height="200mm"
   viewBox="0 0 200 200"
   version="1.1"
   id="svg1"
   inkscape:version="1.3.1 (91b66b0783, 2023-11-16)"
   sodipodi:docname="scheme_sys.svg"
   xmlns:inkscape="http://www.inkscape.org/namespaces/inkscape"
   xmlns:sodipodi="http://sodipodi.sourceforge.net/DTD/sodipodi-0.dtd"
   xmlns="http://www.w3.org/2000/svg"
   xmlns:svg="http://www.w3.org/2000/svg">
  <sodipodi:namedview
     id="namedview1"
     pagecolor="#ffffff"
     bordercolor="#000000"
     borderopacity="0.25"
     inkscape:showpageshadow="2"
     inkscape:pageopacity="0.0"
     inkscape:pagecheckerboard="0"
     inkscape:deskcolor="#d1d1d1"
     inkscape:document-units="mm"
     inkscape:zoom="0.49134398"
     inkscape:cx="596.32358"
     inkscape:cy="394.83541"
     inkscape:window-width="1829"
     inkscape:window-height="960"
     inkscape:window-x="0"
     inkscape:window-y="0"
     inkscape:window-maximized="0"
     inkscape:current-layer="layer1" />
  <defs
     id="defs1" />
  <g
     inkscape:label="Слой 1"
     inkscape:groupmode="layer"
     id="layer1">
    <g
       transform="matrix(3.3727196,0,0,3.3737671,11537.105,4841.5282)"
       id="g3820-4-8-4-7-3-2"
       style="stroke-width:0.523746" />
    <g
       id="g74"
       transform="matrix(20.531516,0,0,20.539863,-14792.643,-1091.1684)"
       style="stroke-width:1.16539">
      <path
         style="fill:#547586;fill-opacity:1;stroke:none;stroke-width:0.233076;stroke-dasharray:none;stroke-opacity:1"
         d="m 724.87707,62.182381 v -6.349257 l 2.22906,-1.409468 v 6.349256 l -2.22906,1.409469"
         id="path60-0" />
      <path
         id="path71-4"
         style="fill:#df601c;fill-opacity:1;stroke:none;stroke-width:0.233076;stroke-dasharray:none;stroke-opacity:1"
         d="m 721.33943,53.514563 v 6.349483 l 3.07062,1.693954 v -5.999634 l 0.71365,-0.447001 V 54.75118 Z m 0.71727,2.353861 0.34417,0.428915 c 0.003,0.0035 0.0208,0.0066 0.0393,0.0083 0.0184,0.0017 0.0623,0.0093 0.0977,0.01705 l 0.0646,0.01395 0.0811,-0.358634 0.37879,0.239261 0.0816,0.465088 0.0703,0.05529 c 0.0441,0.03495 0.0832,0.07788 0.11266,0.110588 l 0.0537,0.05943 0.3328,-0.0186 0.27388,0.439766 -0.21652,0.202572 0.03,0.08165 c 0.0166,0.04478 0.038,0.107526 0.047,0.139526 l 0.0171,0.05839 0.38499,0.322461 -10e-4,0.369486 -0.36846,-0.138493 c -0.006,-0.0022 -0.0147,0.02694 -0.0253,0.05426 -0.0105,0.02738 -0.0294,0.06466 -0.0419,0.08268 l -0.0227,0.03256 0.22789,0.47439 -0.26407,0.10697 -0.32659,-0.413412 c -0.008,-0.01036 -0.0246,-0.01535 -0.0475,-0.01705 -0.0403,-0.003 -0.14271,-0.02522 -0.17881,-0.03876 l -0.0253,-0.0093 -0.0692,0.340031 -0.36381,-0.225309 -0.10438,-0.45682 c -0.0259,-0.02454 -0.12141,-0.117286 -0.15451,-0.153996 l -0.0599,-0.06718 -0.32194,0.02377 -0.27337,-0.43925 0.20722,-0.204638 c 0.002,-0.002 -0.0102,-0.03591 -0.0243,-0.07235 -0.014,-0.03637 -0.0353,-0.100174 -0.0475,-0.141594 l -0.0222,-0.07493 -0.40669,-0.337963 -10e-4,-0.378789 0.40205,0.165365 0.0191,-0.04444 c 0.0105,-0.02457 0.0305,-0.06079 0.0444,-0.08062 l 0.0253,-0.03617 -0.22169,-0.476973 z m 0.54984,1.032496 c -0.10489,-1.77e-4 -0.18169,0.0561 -0.20619,0.168465 -0.049,0.224714 0.13095,0.589181 0.40204,0.81442 0.27109,0.22524 0.53081,0.225754 0.57981,10e-4 0.049,-0.22472 -0.13147,-0.589181 -0.40256,-0.814421 -0.13554,-0.11263 -0.26821,-0.169322 -0.3731,-0.169498 z" />
      <path
         style="fill:#df601c;fill-opacity:1;stroke:#df601c;stroke-width:0.240617px;stroke-linecap:butt;stroke-linejoin:miter;stroke-opacity:1"
         d="m 726.73315,61.446853 1.22265,0.889587 1.22264,-2.239268 -0.7544,0.416388 v -2.031447 l -0.94949,0.524078 v 2.031447 z"
         id="path3049-3-1"
         inkscape:connector-curvature="0"
         sodipodi:nodetypes="cccccccc" />
    </g>
  </g>
</svg>
