<?xml version="1.0" encoding="UTF-8" standalone="no"?>
<!-- Created with Inkscape (http://www.inkscape.org/) -->

<svg
   width="200mm"
   height="200mm"
   viewBox="0 0 200 200"
   version="1.1"
   id="svg1"
   inkscape:version="1.3.1 (91b66b0783, 2023-11-16)"
   sodipodi:docname="secur_key.svg"
   xmlns:inkscape="http://www.inkscape.org/namespaces/inkscape"
   xmlns:sodipodi="http://sodipodi.sourceforge.net/DTD/sodipodi-0.dtd"
   xmlns="http://www.w3.org/2000/svg"
   xmlns:svg="http://www.w3.org/2000/svg">
  <sodipodi:namedview
     id="namedview1"
     pagecolor="#ffffff"
     bordercolor="#000000"
     borderopacity="0.25"
     inkscape:showpageshadow="2"
     inkscape:pageopacity="0.0"
     inkscape:pagecheckerboard="0"
     inkscape:deskcolor="#d1d1d1"
     inkscape:document-units="mm"
     inkscape:zoom="0.69486532"
     inkscape:cx="247.52998"
     inkscape:cy="497.93822"
     inkscape:window-width="1827"
     inkscape:window-height="960"
     inkscape:window-x="2"
     inkscape:window-y="0"
     inkscape:window-maximized="0"
     inkscape:current-layer="layer1" />
  <defs
     id="defs1" />
  <g
     inkscape:label="Слой 1"
     inkscape:groupmode="layer"
     id="layer1">
    <g
       transform="matrix(3.3727196,0,0,3.3737671,11537.105,4841.5282)"
       id="g3820-4-8-4-7-3-2"
       style="stroke-width:0.523746" />
    <g
       id="g14"
       transform="matrix(17.569095,0,0,17.569095,-1829.3845,-316.27621)">
      <path
         id="path54"
         style="fill:#df601c;fill-opacity:1;stroke-width:0.0674637"
         d="m 107.15257,21.151403 c -0.0135,-0.0135 -0.14609,0.188983 -0.22473,0.343126 -0.16634,0.326067 -0.2224,0.590472 -0.20997,0.990659 0.009,0.302391 0.0481,0.489338 0.15448,0.746341 0.21343,0.515616 0.65494,0.942565 1.17762,1.138846 0.12978,0.04874 0.2505,0.07809 0.51507,0.125283 0.0265,0.0048 0.0548,0.03633 0.0838,0.09355 0.046,0.09088 0.0354,0.0846 0.31323,0.184875 0.0401,0.01448 0.0227,0.02665 -0.18052,0.126423 l -0.22493,0.11041 0.0823,0.249424 0.0824,0.249425 0.30787,0.133215 c 0.16935,0.07326 0.30792,0.137743 0.30792,0.143279 0,0.0056 -0.0773,0.09725 -0.17188,0.203862 l -0.17184,0.193849 0.0581,0.198855 c 0.0319,0.109369 0.0643,0.2109 0.0721,0.225627 0.008,0.01472 0.12735,0.07827 0.26593,0.141198 0.2515,0.114195 0.25195,0.114473 0.21913,0.151707 -0.19327,0.219313 -0.25359,0.293677 -0.25359,0.312686 0,0.01232 0.0366,0.137434 0.0812,0.277982 l 0.0813,0.255521 0.10173,0.01021 c 0.056,0.0056 0.16465,0.01543 0.24154,0.02176 l 0.13981,0.0115 0.062,0.136042 c 0.0597,0.131067 0.0607,0.136996 0.0288,0.162862 -0.17072,0.138649 -0.19119,0.159636 -0.17168,0.179173 0.0112,0.01117 0.28025,0.175528 0.59795,0.365189 h 5e-5 c 0.3177,0.189657 0.58166,0.345072 0.58655,0.345455 0.005,2.88e-4 0.0806,-0.08838 0.16812,-0.197119 l 0.15919,-0.197666 -0.0553,-0.171638 c -0.41449,-1.295878 -0.80189,-2.600332 -1.21282,-3.897342 -0.0818,-0.26091 -0.0828,-0.262821 -0.1286,-0.24992 -0.0254,0.0071 -0.18678,0.01283 -0.35859,0.01264 -0.34639,-3.83e-4 -0.53938,-0.03197 -0.83678,-0.136934 -0.87896,-0.31023 -1.53124,-1.07249 -1.70774,-1.995745 -0.0421,-0.219866 -0.0429,-0.64462 -10e-4,-0.846635 0.0159,-0.07785 0.026,-0.14443 0.0224,-0.147989 z" />
      <path
         id="path57"
         style="fill:#547586;fill-opacity:1;stroke-width:0.0674637"
         d="m 107.09308,18.513758 c -0.34353,-1.92e-4 -0.69132,0.07406 -0.97772,0.217001 -0.60231,0.300604 -1.03311,0.863084 -1.17946,1.539978 -0.0459,0.212195 -0.0429,0.644316 0.006,0.856799 0.13169,0.572774 0.45018,1.03569 0.93399,1.357533 0.11823,0.07866 0.42263,0.233083 0.43399,0.220173 0.006,-0.007 -0.0244,-0.3833 -0.0339,-0.418484 -0.003,-0.01037 -0.0594,-0.05052 -0.12588,-0.08924 -0.58503,-0.341089 -0.92853,-1.035618 -0.84708,-1.712558 0.0748,-0.621456 0.47082,-1.168404 1.02952,-1.421735 0.22612,-0.102525 0.40499,-0.142963 0.6753,-0.15265 0.28756,-0.01031 0.48451,0.02132 0.7335,0.117697 0.30565,0.118311 0.64111,0.39164 0.8267,0.673611 0.0824,0.125245 0.0892,0.142387 0.062,0.158301 -0.67735,0.396515 -1.03438,0.998905 -1.0315,1.740371 7.2e-4,0.266196 0.0208,0.394025 0.0977,0.63365 0.1588,0.494708 0.52336,0.935878 0.98808,1.195761 0.48671,0.272188 1.11227,0.333801 1.62887,0.160385 0.0724,-0.02429 0.13998,-0.04417 0.15027,-0.04417 0.0103,0 0.0538,0.02414 0.0967,0.05365 0.0762,0.05246 0.0806,0.05324 0.19955,0.03604 0.22075,-0.03192 0.21779,-0.04043 0.0586,0.167721 -0.0782,0.102295 -0.14224,0.192809 -0.14224,0.201136 0,0.0083 0.0823,0.09682 0.18294,0.196675 l 0.18299,0.181553 0.21418,-0.01611 c 0.1178,-0.0089 0.27159,-0.02069 0.34173,-0.02628 l 0.12758,-0.01011 -0.0672,0.266629 -0.0671,0.266628 0.1634,0.162714 0.16341,0.162714 0.27942,-0.01205 c 0.26867,-0.01158 0.27917,-0.01075 0.27178,0.02191 -0.004,0.01868 -0.0284,0.117767 -0.0537,0.220175 l -0.046,0.186212 0.20273,0.202723 0.20278,0.202772 0.22229,-0.09583 0.22232,-0.09583 0.11948,0.09633 0.11948,0.09633 -0.0603,0.132323 c -0.0332,0.07279 -0.0548,0.135682 -0.0481,0.139759 0.006,0.0041 0.17285,0.01711 0.3692,0.02895 0.19635,0.01184 0.44936,0.02751 0.56226,0.03485 h 5e-5 c 0.1129,0.0073 0.2656,0.01455 0.33932,0.01601 l 0.13405,0.0027 0.0496,-0.244169 0.0497,-0.244219 -0.10337,-0.10808 c -1.08271,-1.113461 -2.17947,-2.213205 -3.26741,-3.321548 l 0.0255,-0.06009 c 0.0665,-0.156624 0.11531,-0.392211 0.12558,-0.606284 0.0282,-0.58814 -0.16416,-1.065177 -0.61,-1.512562 -0.32499,-0.32612 -0.64071,-0.499212 -1.07157,-0.587593 -0.27717,-0.05685 -0.63039,-0.05007 -0.89249,0.0172 -0.0294,0.0075 -0.0509,-0.01707 -0.12162,-0.139313 -0.25649,-0.44328 -0.73971,-0.817176 -1.24623,-0.964234 -0.18892,-0.05485 -0.39352,-0.08171 -0.59963,-0.0818 z m 1.74012,1.890888 c 0.0273,0 0.0429,0.298232 0.0231,0.446198 -0.0281,0.211184 -0.0257,0.22894 0.0418,0.296325 0.0496,0.04959 0.0743,0.06068 0.13505,0.06068 0.0923,0 0.13556,-0.02229 0.16906,-0.08706 0.0358,-0.06916 0.0667,-0.393877 0.0525,-0.551055 -0.007,-0.08017 -0.005,-0.129397 0.006,-0.129397 0.01,0 0.062,0.0319 0.11646,0.0709 0.25548,0.182941 0.35069,0.532994 0.22007,0.809106 -0.0548,0.115865 -0.19219,0.250141 -0.30941,0.302473 h -5e-5 c -0.11905,0.05315 -0.33864,0.0612 -0.4626,0.01696 -0.17942,-0.06403 -0.32083,-0.194396 -0.40218,-0.37084 -0.0331,-0.07175 -0.0405,-0.118877 -0.0405,-0.257407 0,-0.151277 0.006,-0.180492 0.0512,-0.270544 0.0281,-0.05552 0.0844,-0.133275 0.12493,-0.172827 0.0672,-0.0654 0.23207,-0.163507 0.27491,-0.163507 z" />
    </g>
  </g>
</svg>
