<?xml version="1.0" encoding="UTF-8" standalone="no"?>
<!-- Created with Inkscape (http://www.inkscape.org/) -->

<svg
   width="200mm"
   height="200mm"
   viewBox="0 0 200 200"
   version="1.1"
   id="svg1"
   inkscape:version="1.3.1 (91b66b0783, 2023-11-16)"
   sodipodi:docname="setting_3.svg"
   xml:space="preserve"
   xmlns:inkscape="http://www.inkscape.org/namespaces/inkscape"
   xmlns:sodipodi="http://sodipodi.sourceforge.net/DTD/sodipodi-0.dtd"
   xmlns="http://www.w3.org/2000/svg"
   xmlns:svg="http://www.w3.org/2000/svg"><sodipodi:namedview
     id="namedview1"
     pagecolor="#ffffff"
     bordercolor="#000000"
     borderopacity="0.25"
     inkscape:showpageshadow="2"
     inkscape:pageopacity="0.0"
     inkscape:pagecheckerboard="0"
     inkscape:deskcolor="#d1d1d1"
     inkscape:document-units="mm"
     inkscape:zoom="0.34743266"
     inkscape:cx="651.92489"
     inkscape:cy="152.54755"
     inkscape:window-width="1920"
     inkscape:window-height="976"
     inkscape:window-x="-8"
     inkscape:window-y="-8"
     inkscape:window-maximized="1"
     inkscape:current-layer="layer1"
     showguides="true" /><defs
     id="defs1" /><g
     inkscape:label="Слой 1"
     inkscape:groupmode="layer"
     id="layer1"><g
       id="g36"><path
         id="path34"
         style="opacity:1;fill:#df601c;fill-opacity:1;stroke:none;stroke-width:28.0732"
         d="m 126.49383,185.90528 c 10e-4,2.72717 1.39613,4.14556 3.80228,4.6147 l 24.98778,0.59562 c 3.28298,0.16845 5.26508,-1.2516 5.56151,-4.73162 l 1.67243,-70.16138 c -0.0112,-2.89851 0.41752,-6.00919 -5.56984,-6.02322 l -24.72323,-0.58932 c -4.62746,0.0433 -3.72363,2.71433 -4.02698,4.81175 z m 5.80225,-79.28691 c -4.4e-4,0.63558 0.47079,1.21763 1.2735,1.28019 l 22.51926,0.42986 c 1.35026,0.0322 1.39752,-1.66104 1.42948,-3.03712 l 0.0766,-3.21098 c 0.14417,-2.108775 -1.10346,-3.232668 -3.37231,-3.633935 l -19.57058,-0.466498 c -1.50455,0.233176 -2.3243,1.133248 -2.21992,2.933523 z m 1.97216,-68.660724 2.23053,3.927695 -1.25342,54.142707 16.17159,0.385479 1.17529,-49.305321 7.08542,-4.42424 -7.66378,-31.484224 -10.38251,-0.247486 z m -2.28805,148.171864 1.71688,-72.02588 5.7711,0.13757 -1.71687,72.02588 z m 4.19751,-149.111379 4.57775,-17.105971 3.44596,0.08214 4.25678,17.690957 -5.83419,3.629817 -1.23166,52.791341 -3.90019,-0.09298 0.7603,-53.203678 z"
         sodipodi:nodetypes="ccccccccccccccccccccccccccccccccccccccccc" /><path
         id="path36"
         style="opacity:1;fill:#557586;fill-opacity:1;stroke:none;stroke-width:28.0732"
         d="m 44.476701,33.529314 12.970835,23.692761 3.259241,-0.09702 -1.981305,84.627625 -1.713408,-0.0286 -14.229928,23.23535 2.186767,3.91214 15.43392,-11.4304 11.794175,6.91862 -0.998968,15.00007 -17.334463,5.44648 2.209595,3.83084 27.201358,0.45684 13.752157,-23.15966 -13.138443,-23.84478 -4.169688,0.0852 1.874334,-84.622619 3.050972,0.01993 L 98.659929,34.34731 97.012359,31.386618 81.811166,42.964785 69.950446,36.767822 69.080705,22.79994 87.123983,13.624693 85.475818,10.664561 58.330718,10.258399 Z m 26.90787,107.543576 1.9925,-83.588933 5.02272,0.119726 -1.9925,83.588927 z" /></g></g></svg>
