<?xml version="1.0" encoding="UTF-8" standalone="no"?>
<!-- Created with Inkscape (http://www.inkscape.org/) -->

<svg
   width="200mm"
   height="200mm"
   viewBox="0 0 200 200"
   version="1.1"
   id="svg1"
   inkscape:version="1.3.1 (91b66b0783, 2023-11-16)"
   sodipodi:docname="setting.svg"
   xml:space="preserve"
   xmlns:inkscape="http://www.inkscape.org/namespaces/inkscape"
   xmlns:sodipodi="http://sodipodi.sourceforge.net/DTD/sodipodi-0.dtd"
   xmlns="http://www.w3.org/2000/svg"
   xmlns:svg="http://www.w3.org/2000/svg"><sodipodi:namedview
     id="namedview1"
     pagecolor="#ffffff"
     bordercolor="#000000"
     borderopacity="0.25"
     inkscape:showpageshadow="2"
     inkscape:pageopacity="0.0"
     inkscape:pagecheckerboard="0"
     inkscape:deskcolor="#d1d1d1"
     inkscape:document-units="mm"
     inkscape:zoom="0.34743266"
     inkscape:cx="653.36402"
     inkscape:cy="155.4258"
     inkscape:window-width="1920"
     inkscape:window-height="976"
     inkscape:window-x="-8"
     inkscape:window-y="-8"
     inkscape:window-maximized="1"
     inkscape:current-layer="layer1"
     showguides="true" /><defs
     id="defs1" /><g
     inkscape:label="Слой 1"
     inkscape:groupmode="layer"
     id="layer1"><g
       id="g74"
       transform="matrix(2.5182028,0,0,2.5182028,7423.8822,4425.2067)"><path
         id="path65"
         style="fill:#547586;fill-opacity:1;stroke-width:0.48376"
         d="m -2920.1678,-1750.2654 -5.8083,0.03 -1.249,6.2609 -0.9861,0.4086 c -0.5423,0.2248 -1.2175,0.5342 -1.5005,0.6874 -0.2829,0.1532 -0.5624,0.2875 -0.6067,0.2607 l -5.2743,-3.1951 -3.8868,4.0859 3.4034,5.1179 -0.3875,0.7947 c -0.2131,0.4372 -0.5194,1.1848 -0.6807,1.6615 l -0.2935,0.8666 -6.1682,1.3813 0.022,5.7648 6.2381,1.2013 0.3416,0.933 c 0.188,0.5131 0.5183,1.2759 0.734,1.6945 0.2159,0.4188 0.4032,0.8165 0.3722,0.8667 l -3.1789,5.1351 4.1928,4.0424 4.9353,-3.49 0.9234,0.4332 c 0.5079,0.2382 1.9678,0.7273 2.3652,0.8497 l 1.6052,5.9515 5.5783,-0.098 1.0591,-5.8574 0.3886,-0.1007 c 0.554,-0.1441 2.1272,-0.8011 2.7448,-1.1464 0.3515,-0.1965 0.6005,-0.2823 0.7249,-0.2046 l 5.0136,3.1315 4.0472,-4.2012 -3.4946,-5.0161 0.3463,-0.7207 c 0.1905,-0.3963 0.4792,-1.1457 0.6415,-1.6654 0.1622,-0.5197 0.307,-1.0509 0.3932,-1.0734 l 5.6499,-1.4733 0.019,-5.6392 -5.9074,-1.1736 -0.2567,-0.728 c -0.1412,-0.4006 -0.4658,-1.1549 -0.7212,-1.6764 l -0.4644,-0.9479 3.3227,-5.1905 -4.2005,-4.0483 -5.1066,3.5212 -0.822,-0.3854 c -0.452,-0.212 -1.0534,-0.4863 -1.7299,-0.591 l -1.0742,-0.1664 z m -1.2646,13.8073 c 4.1576,0.8006 6.9185,4.6136 6.1668,8.5167 -0.7516,3.903 -4.7312,6.418 -8.8888,5.6174 -4.1576,-0.8006 -6.9189,-4.6138 -6.1671,-8.5169 0.7516,-3.9031 4.7315,-6.4181 8.8891,-5.6172 z"
         sodipodi:nodetypes="cccssscccssccccssscccsccccssscccssscccssccccssccsssss" /><path
         id="path65-3"
         style="fill:#df601c;fill-opacity:1;stroke-width:0.48376"
         d="m -2890.6718,-1731.7575 -5.8083,0.01 -1.2761,6.2555 -0.9878,0.4044 c -0.5434,0.2224 -1.22,0.5288 -1.5035,0.6808 -0.2836,0.152 -0.5637,0.2851 -0.6079,0.2582 l -5.2605,-3.2181 -3.9045,4.0691 3.3813,5.1325 -0.3911,0.7931 c -0.215,0.4362 -0.5244,1.1825 -0.6878,1.6585 l -0.2973,0.8652 -6.174,1.3546 -0.01,5.7649 6.2327,1.2283 0.3376,0.9345 c 0.1858,0.5139 0.5128,1.2781 0.7267,1.6977 0.2141,0.4196 0.3996,0.8182 0.3684,0.8683 l -3.2011,5.1212 4.1753,4.0605 4.9503,-3.4685 0.9215,0.4372 c 0.5069,0.2404 1.9646,0.7358 2.3615,0.86 l 1.5793,5.9584 5.5787,-0.074 1.0845,-5.8527 0.389,-0.099 c 0.5547,-0.1416 2.1306,-0.7917 2.7498,-1.1344 0.3524,-0.1949 0.6017,-0.2797 0.7258,-0.2015 l 5,3.1534 4.0654,-4.1838 -3.4728,-5.0312 0.3494,-0.719 c 0.1921,-0.3955 0.4842,-1.1437 0.6488,-1.6627 0.1643,-0.5189 0.3115,-1.0496 0.3977,-1.0717 l 5.6563,-1.4487 0.043,-5.6391 -5.9021,-1.1991 -0.2535,-0.7293 c -0.1395,-0.4012 -0.4608,-1.157 -0.7141,-1.6794 l -0.4601,-0.9499 3.3451,-5.1762 -4.1829,-4.0665 -5.1219,3.4991 -0.8202,-0.389 c -0.4511,-0.2139 -1.0514,-0.4908 -1.7273,-0.5985 l -1.0734,-0.171 z m -1.3245,13.8016 c 4.154,0.8186 6.8985,4.6437 6.1299,8.5435 -0.7686,3.8997 -4.759,6.3974 -8.913,5.5788 -4.1544,-0.8187 -6.8989,-4.6438 -6.1302,-8.5437 0.7685,-3.8998 4.7592,-6.3975 8.9133,-5.5786 z"
         sodipodi:nodetypes="cccssscccssccccssscccsccccssscccssscccssccccssccsssss" /></g></g></svg>
