<?xml version="1.0" encoding="UTF-8" standalone="no"?>
<!-- Created with Inkscape (http://www.inkscape.org/) -->

<svg
   width="200mm"
   height="200mm"
   viewBox="0 0 200 200"
   version="1.1"
   id="svg1"
   inkscape:version="1.3.1 (91b66b0783, 2023-11-16)"
   sodipodi:docname="signal_a_in.svg"
   xml:space="preserve"
   xmlns:inkscape="http://www.inkscape.org/namespaces/inkscape"
   xmlns:sodipodi="http://sodipodi.sourceforge.net/DTD/sodipodi-0.dtd"
   xmlns="http://www.w3.org/2000/svg"
   xmlns:svg="http://www.w3.org/2000/svg"><sodipodi:namedview
     id="namedview1"
     pagecolor="#ffffff"
     bordercolor="#000000"
     borderopacity="0.25"
     inkscape:showpageshadow="2"
     inkscape:pageopacity="0.0"
     inkscape:pagecheckerboard="0"
     inkscape:deskcolor="#d1d1d1"
     inkscape:document-units="mm"
     inkscape:zoom="0.49134398"
     inkscape:cx="431.46962"
     inkscape:cy="250.33379"
     inkscape:window-width="1920"
     inkscape:window-height="976"
     inkscape:window-x="-8"
     inkscape:window-y="-8"
     inkscape:window-maximized="1"
     inkscape:current-layer="layer1"
     showguides="true" /><defs
     id="defs1" /><g
     inkscape:label="Слой 1"
     inkscape:groupmode="layer"
     id="layer1"><path
       style="fill:#df601c;fill-opacity:1;stroke:#df601c;stroke-width:0.20647px;stroke-linecap:butt;stroke-linejoin:miter;stroke-opacity:1"
       d="m 57.476921,68.509552 24.03269,-22.79907 -24.03269,-22.79889 v 14.0674 H 12.511838 v 17.70553 h 44.965083 z"
       id="path3049-3"
       inkscape:connector-curvature="0"
       sodipodi:nodetypes="cccccccc" /><path
       style="fill:#df601c;fill-opacity:1;stroke:#df601c;stroke-width:0.20647px;stroke-linecap:butt;stroke-linejoin:miter;stroke-opacity:1"
       d="M 57.476921,124.44635 81.509611,101.64728 57.476921,78.848426 V 92.915825 H 12.511838 v 17.705495 h 44.965083 z"
       id="path3049-3-8"
       inkscape:connector-curvature="0"
       sodipodi:nodetypes="cccccccc" /><path
       style="fill:#df601c;fill-opacity:1;stroke:#df601c;stroke-width:0.20647px;stroke-linecap:butt;stroke-linejoin:miter;stroke-opacity:1"
       d="m 57.476921,180.38318 24.03269,-22.79907 -24.03269,-22.79889 v 14.0674 H 12.511838 v 17.70553 h 44.965083 z"
       id="path3049-3-7"
       inkscape:connector-curvature="0"
       sodipodi:nodetypes="cccccccc" /><path
       id="rect91"
       style="opacity:1;fill:#547586;fill-opacity:1;stroke:none;stroke-width:21.4062"
       d="M 84.530903,9.8999962 V 189.21825 H 188.86131 V 9.8999962 Z m 11.08499,9.9438398 H 177.77632 V 179.27441 H 95.615893 Z" /><path
       id="path98"
       style="opacity:1;fill:#df601c;fill-opacity:1;stroke:none;stroke-width:25"
       d="m 130.14612,48.355453 -26.72498,81.923167 h 9.92342 l 7.28224,-22.90145 h 31.63115 l 7.30239,22.90145 h 10.41074 L 143.13964,48.355453 Z m 6.5102,9.304858 c 0.0102,0.0054 0.0179,0.0211 0.0222,0.04754 0.27519,1.692072 12.86278,40.340174 12.86278,40.340174 H 123.8509 c 0,0 12.16284,-40.728927 12.80542,-40.387716 z" /></g></svg>
