<?xml version="1.0" encoding="UTF-8" standalone="no"?>
<!-- Created with Inkscape (http://www.inkscape.org/) -->

<svg
   width="200mm"
   height="200mm"
   viewBox="0 0 200 200"
   version="1.1"
   id="svg1"
   inkscape:version="1.3.1 (91b66b0783, 2023-11-16)"
   sodipodi:docname="statistic4.svg"
   xml:space="preserve"
   xmlns:inkscape="http://www.inkscape.org/namespaces/inkscape"
   xmlns:sodipodi="http://sodipodi.sourceforge.net/DTD/sodipodi-0.dtd"
   xmlns="http://www.w3.org/2000/svg"
   xmlns:svg="http://www.w3.org/2000/svg"><sodipodi:namedview
     id="namedview1"
     pagecolor="#ffffff"
     bordercolor="#000000"
     borderopacity="0.25"
     inkscape:showpageshadow="2"
     inkscape:pageopacity="0.0"
     inkscape:pagecheckerboard="0"
     inkscape:deskcolor="#d1d1d1"
     inkscape:document-units="mm"
     inkscape:zoom="0.34743266"
     inkscape:cx="377.05148"
     inkscape:cy="5.7565112"
     inkscape:window-width="1920"
     inkscape:window-height="976"
     inkscape:window-x="-8"
     inkscape:window-y="-8"
     inkscape:window-maximized="1"
     inkscape:current-layer="layer1"
     showguides="true" /><defs
     id="defs1" /><g
     inkscape:label="Слой 1"
     inkscape:groupmode="layer"
     id="layer1"><g
       id="g22"
       transform="matrix(0.7782978,0,0,0.7782978,-16.023409,43.19806)"><path
         id="path3217"
         style="fill:#547586;fill-opacity:1;stroke-width:0.221575"
         d="m 222.885,-17.09728 c -8.89192,-5.96e-4 -17.78436,1.886126 -17.78436,5.662314 V 137.23263 c 0,6.47136 35.56807,6.47136 35.56807,0 V -11.434966 c 0,-3.773801 -8.89178,-5.661717 -17.78371,-5.662314 z m 0.093,1.059692 a 16.359254,4.719055 0 0 1 16.35883,4.718816 16.359254,4.719055 0 0 1 -16.35883,4.7188161 16.359254,4.719055 0 0 1 -16.35949,-4.7188161 16.359254,4.719055 0 0 1 16.35949,-4.718816 z" /><path
         id="path3217-2"
         style="fill:#547586;fill-opacity:1;stroke-width:0.221575"
         d="m 175.17032,57.913767 c -8.89193,-5.96e-4 -17.7837,1.886791 -17.7837,5.662978 v 73.655885 c 0,6.47136 35.5674,6.47136 35.5674,0 V 63.576745 c 0,-3.773802 -8.89177,-5.662382 -17.7837,-5.662978 z m -0.0591,1.368437 a 16.359254,4.719055 0 0 1 16.35882,4.71948 16.359254,4.719055 0 0 1 -16.35882,4.718816 16.359254,4.719055 0 0 1 -16.3595,-4.718816 16.359254,4.719055 0 0 1 16.3595,-4.71948 z" /><path
         id="path3217-7"
         style="fill:#547586;fill-opacity:1;stroke-width:0.221575"
         d="M 127.42936,30.112237 C 118.53743,30.111641 109.645,31.999029 109.645,35.775215 V 137.22677 c 0,6.47135 35.56806,6.47135 35.56806,0 V 35.775215 c 0,-3.773801 -8.89177,-5.662381 -17.7837,-5.662978 z m 0.27289,1.70706 a 16.359254,4.719055 0 0 1 16.35883,4.718816 16.359254,4.719055 0 0 1 -16.35883,4.71948 16.359254,4.719055 0 0 1 -16.35949,-4.71948 16.359254,4.719055 0 0 1 16.35949,-4.718816 z" /><path
         id="path3217-2-4"
         style="fill:#547586;fill-opacity:1;stroke-width:0.221575"
         d="m 79.714676,91.416342 c -8.891929,-5.96e-4 -17.783701,1.886127 -17.783701,5.662314 v 40.148114 c 0,6.47135 35.567402,6.47135 35.567402,0 V 97.078656 c 0,-3.773802 -8.891772,-5.661718 -17.783701,-5.662314 z m -0.142089,1.2217 a 16.359254,4.719055 0 0 1 16.359491,4.71948 16.359254,4.719055 0 0 1 -16.359491,4.718818 16.359254,4.719055 0 0 1 -16.358827,-4.718818 16.359254,4.719055 0 0 1 16.358827,-4.71948 z" /><path
         style="opacity:1;fill:#df601c;fill-opacity:1;stroke-width:0.799999;stroke-dashoffset:20.512"
         d="M 41.511184,-40.225082 V 147.87494 H 28.686137 v 9.01993 h 12.825047 v 24.86854 h 9.54186 V 156.89487 H 267.32994 v -9.01993 H 51.053044 V -40.225082 Z"
         id="path22"
         sodipodi:nodetypes="ccccccccccccc" /></g></g></svg>
