<?xml version="1.0" encoding="UTF-8" standalone="no"?>
<!-- Created with Inkscape (http://www.inkscape.org/) -->

<svg
   width="200mm"
   height="200mm"
   viewBox="0 0 200 200"
   version="1.1"
   id="svg1"
   inkscape:version="1.3.1 (91b66b0783, 2023-11-16)"
   sodipodi:docname="statistic2.svg"
   xml:space="preserve"
   xmlns:inkscape="http://www.inkscape.org/namespaces/inkscape"
   xmlns:sodipodi="http://sodipodi.sourceforge.net/DTD/sodipodi-0.dtd"
   xmlns="http://www.w3.org/2000/svg"
   xmlns:svg="http://www.w3.org/2000/svg"><sodipodi:namedview
     id="namedview1"
     pagecolor="#ffffff"
     bordercolor="#000000"
     borderopacity="0.25"
     inkscape:showpageshadow="2"
     inkscape:pageopacity="0.0"
     inkscape:pagecheckerboard="0"
     inkscape:deskcolor="#d1d1d1"
     inkscape:document-units="mm"
     inkscape:zoom="0.69486532"
     inkscape:cx="240.33434"
     inkscape:cy="297.89945"
     inkscape:window-width="1920"
     inkscape:window-height="976"
     inkscape:window-x="-8"
     inkscape:window-y="-8"
     inkscape:window-maximized="1"
     inkscape:current-layer="layer1"
     showguides="true" /><defs
     id="defs1" /><g
     inkscape:label="Слой 1"
     inkscape:groupmode="layer"
     id="layer1"><g
       id="g3284"
       transform="matrix(2.5139727,0,0,2.5139727,8986.6222,6395.5804)"><path
         id="path3223-9"
         d="m -3501.9854,-2493.6787 0.6506,0.2062 0.6506,0.2061 0.4561,0.2987 0.4559,0.2987 0.4733,0.4879 0.4734,0.4873 0.3384,0.6439 0.3381,0.6438 0.1323,0.6232 0.1323,0.6233 v 7.8383 7.8388 l -0.095,0.5855 -0.095,0.5849 -0.3757,0.7483 -0.3762,0.7483 -0.5686,0.5679 -0.5683,0.5684 -0.5017,0.2543 -0.5019,0.2542 -0.3254,0.1215 -0.3247,0.1214 -3.8732,-0.018 -3.873,-0.018 -0.7173,-0.3555 -0.7178,-0.3561 -0.5276,-0.5291 -0.5275,-0.5292 -0.3519,-0.6366 -0.3527,-0.6362 -0.1342,-0.5783 -0.1344,-0.5777 0.026,-8.3674 0.024,-8.3675 0.2217,-0.5534 0.2212,-0.553 0.349,-0.5162 0.3487,-0.5163 0.4868,-0.4377 0.4864,-0.4372 0.5109,-0.2558 0.5111,-0.2552 0.507,-0.1282 0.5075,-0.1282 h 3.3197 z"
         style="fill:#df601c;fill-opacity:1;stroke-width:0.0922192"
         inkscape:connector-curvature="0" /><path
         id="path3221-6"
         d="m -3522.2737,-2503.6817 0.5768,0.1364 0.5765,0.1359 0.6223,0.3132 0.6221,0.3136 0.4937,0.4936 0.4929,0.494 0.3556,0.5999 0.3559,0.6 0.142,0.5498 0.1429,0.5499 v 13.2405 13.2411 l -0.1431,0.5493 -0.1429,0.5498 -0.2852,0.507 -0.2858,0.5074 -0.3209,0.3928 -0.3212,0.3927 -0.4517,0.3312 -0.4519,0.3318 -0.6199,0.2662 v 0 l -0.6202,0.2661 -3.8777,-0.022 -3.8785,-0.022 -0.7327,-0.3607 -0.7328,-0.3607 -0.5678,-0.5772 -0.5686,-0.5767 -0.3771,-0.7685 -0.3773,-0.7684 -0.09,-0.6454 -0.09,-0.646 v -12.5413 -12.5419 l 0.088,-0.692 0.088,-0.6914 0.3731,-0.7576 0.3733,-0.7575 0.5734,-0.5809 0.5733,-0.5808 0.6371,-0.3034 0.6372,-0.3033 0.5119,-0.1339 0.5123,-0.1333 h 3.0927 z"
         style="fill:#547586;fill-opacity:1;stroke-width:0.0922192"
         inkscape:connector-curvature="0" /><path
         id="path3219-1"
         d="m -3542.0931,-2513.644 0.5421,0.141 0.5419,0.1419 0.5572,0.2966 0.5575,0.2971 0.536,0.4955 0.5358,0.4961 0.3374,0.6036 0.3376,0.6029 0.1675,0.6046 0.1677,0.6054 v 18.1249 18.125 l -0.1677,0.6046 -0.1675,0.6046 -0.3329,0.5943 -0.3323,0.5942 -0.5585,0.5328 -0.5588,0.5333 -0.762,0.3628 v 0 l -0.7628,0.3633 -3.8798,-0.022 -3.8804,-0.022 -0.7879,-0.3907 -0.7882,-0.3907 -0.5421,-0.5803 -0.5422,-0.5798 -0.2976,-0.5597 -0.2972,-0.5596 -0.1389,-0.5907 -0.1394,-0.5906 v -18.0015 -18.001 l 0.1011,-0.4889 0.1008,-0.4887 0.3281,-0.6916 0.3283,-0.6919 0.6083,-0.6014 0.608,-0.6022 0.5606,-0.2945 0.5615,-0.2939 0.5419,-0.1419 0.5421,-0.141 h 3.189 z"
         style="fill:#547586;fill-opacity:1;stroke-width:0.0922192"
         inkscape:connector-curvature="0" /><path
         id="path3217-1"
         d="m -3563.2928,-2523.7156 0.9596,0.1029 0.9591,0.1032 0.7379,0.3572 0.7374,0.3569 0.5189,0.4694 0.5188,0.4691 0.2847,0.4434 0.2842,0.4429 0.2574,0.6432 0.2572,0.643 0.024,23.1252 0.024,23.1247 -0.1354,0.6475 -0.1347,0.6475 -0.2921,0.5928 -0.2916,0.5927 -0.5053,0.5586 -0.5054,0.5586 -0.4149,0.2429 -0.4146,0.2429 -0.5212,0.216 -0.5225,0.2145 -3.8733,-0.022 -3.8729,-0.022 -0.7266,-0.3632 -0.726,-0.3633 -0.4445,-0.4325 -0.4445,-0.4331 -0.3768,-0.5829 -0.3765,-0.5829 -0.1365,-0.4682 -0.136,-0.4687 0.024,-23.7433 0.024,-23.7438 0.3601,-0.7374 0.3601,-0.7379 0.6012,-0.5715 0.6006,-0.572 0.5146,-0.2725 0.5141,-0.2723 0.5074,-0.1595 0.5075,-0.1604 2.6371,-0.043 z"
         style="fill:#547586;fill-opacity:1;stroke-width:0.0922192"
         inkscape:connector-curvature="0" /><path
         id="path3211-8"
         d="m -3501.507,-2501.7942 -1.6121,-0.272 -1.6124,-0.2718 -2.7662,-0.4707 -2.7667,-0.4704 -2.1675,-0.3709 -2.1667,-0.3712 -0.9226,-0.1337 -0.9218,-0.1344 -5.9944,-1.0154 -5.9944,-1.016 -0.2069,-0.065 -0.2061,-0.065 0.9901,-1.2097 0.9906,-1.2099 1.0094,-1.234 1.0091,-1.234 0.055,-0.046 0.055,-0.046 0.7578,-0.933 0.757,-0.9326 v -0.082 -0.082 l -0.3448,-0.2304 -0.345,-0.2308 -1.2914,-0.9223 -1.2914,-0.9223 -1.8905,-1.2568 -1.8907,-1.2568 -1.8444,-1.1483 -1.8444,-1.1477 -1.3047,-0.7499 -1.3049,-0.7493 -1.5079,-0.8144 -1.5078,-0.8143 -1.8444,-0.933 -1.8444,-0.9331 -2.2133,-0.9647 -2.2127,-0.965 -0.8305,-0.3307 -0.83,-0.3302 -1.6598,-0.5953 -1.6597,-0.5953 -1.6139,-0.5125 -1.614,-0.5122 -1.8902,-0.4625 -1.891,-0.462 -1.5652,-0.3215 -1.5658,-0.3214 -0.6475,-0.322 -0.6479,-0.3223 -0.4993,-0.44 -0.4993,-0.4397 -0.3548,-0.5493 -0.3551,-0.5488 -0.183,-0.5931 -0.1834,-0.5927 v -0.9417 -0.9421 l 0.1474,-0.5006 0.1471,-0.5009 0.2791,-0.5276 0.2791,-0.527 0.4898,-0.4805 0.49,-0.4802 0.4815,-0.3038 0.4821,-0.3045 0.4477,-0.1482 0.4474,-0.1489 0.4368,-0.078 0.4361,-0.08 0.6453,0.047 0.6456,0.047 1.556,0.323 1.556,0.3233 2.3294,0.5861 2.3302,0.5861 1.2319,0.3886 1.2324,0.3887 2.0579,0.725 2.0577,0.7254 0.8207,0.3167 0.82,0.3165 2.2862,0.9837 2.2863,0.9835 2.9051,1.4496 2.9049,1.4489 1.3099,0.754 1.31,0.7538 h 0.052 0.052 l 1.7733,1.0735 1.7735,1.0734 0.5074,0.2918 0.507,0.2921 2.0288,1.3234 2.0288,1.3235 1.7981,1.2472 1.7984,1.2476 0.6456,0.4714 0.6453,0.4707 0.4662,0.3363 0.4662,0.3366 1.5626,-1.9008 1.5627,-1.901 1.1906,-1.4367 1.1906,-1.4367 0.06,-0.024 0.06,-0.024 0.5638,1.5002 0.5633,1.5007 1.5809,4.242 1.5811,4.2421 0.3654,0.9678 0.3654,0.9684 0.1768,0.4612 0.1767,0.4614 0.5514,1.4753 0.5509,1.4754 1.0268,2.7667 1.0268,2.7662 0.2355,0.6001 0.2358,0.5988 0.3561,0.9916 0.3564,0.9914 h -0.021 z"
         style="fill:#df601c;fill-opacity:1;stroke-width:0.0922192"
         inkscape:connector-curvature="0" /></g></g></svg>
