<?xml version="1.0" encoding="UTF-8" standalone="no"?>
<!-- Created with Inkscape (http://www.inkscape.org/) -->

<svg
   width="200mm"
   height="200mm"
   viewBox="0 0 200 200"
   version="1.1"
   id="svg1"
   inkscape:version="1.3.1 (91b66b0783, 2023-11-16)"
   sodipodi:docname="switches1.svg"
   xml:space="preserve"
   xmlns:inkscape="http://www.inkscape.org/namespaces/inkscape"
   xmlns:sodipodi="http://sodipodi.sourceforge.net/DTD/sodipodi-0.dtd"
   xmlns="http://www.w3.org/2000/svg"
   xmlns:svg="http://www.w3.org/2000/svg"><sodipodi:namedview
     id="namedview1"
     pagecolor="#ffffff"
     bordercolor="#000000"
     borderopacity="0.25"
     inkscape:showpageshadow="2"
     inkscape:pageopacity="0.0"
     inkscape:pagecheckerboard="0"
     inkscape:deskcolor="#d1d1d1"
     inkscape:document-units="mm"
     inkscape:zoom="0.69486532"
     inkscape:cx="612.34888"
     inkscape:cy="438.93398"
     inkscape:window-width="1920"
     inkscape:window-height="976"
     inkscape:window-x="-8"
     inkscape:window-y="-8"
     inkscape:window-maximized="1"
     inkscape:current-layer="layer1"
     showguides="true" /><defs
     id="defs1" /><g
     inkscape:label="Слой 1"
     inkscape:groupmode="layer"
     id="layer1"><path
       id="path7407-76-0-8"
       style="fill:#547586;fill-opacity:1;stroke:none;stroke-width:5.95079;stroke-linecap:round;stroke-linejoin:round;stroke-miterlimit:4;stroke-dasharray:none;stroke-dashoffset:0;stroke-opacity:1;paint-order:normal"
       d="m 37.001761,36.592598 c -35.6237777,1.639665 -41.7674078,56.119534 0,61.531645 H 164.40329 c 39.14711,-6.520242 35.93559,-58.208346 0,-61.531645 z M 161.2319,49.134985 a 18.837505,18.837505 0 0 1 18.83761,18.837093 18.837505,18.837505 0 0 1 -18.83761,18.83761 18.837505,18.837505 0 0 1 -18.83761,-18.83761 18.837505,18.837505 0 0 1 18.83761,-18.837093 z" /><path
       id="path7407-76-0-8-3"
       style="fill:#df601c;fill-opacity:1;stroke:none;stroke-width:5.95079;stroke-linecap:round;stroke-linejoin:round;stroke-miterlimit:4;stroke-dasharray:none;stroke-dashoffset:0;stroke-opacity:1;paint-order:normal"
       d="m 163.5049,108.6988 c 35.62378,1.63966 41.76741,56.11953 0,61.53164 H 36.103364 c -39.1471108,-6.52024 -35.93559082,-58.20834 0,-61.53164 z M 39.274754,121.24119 a 18.837505,18.837505 0 0 0 -18.83761,18.83709 18.837505,18.837505 0 0 0 18.83761,18.83761 18.837505,18.837505 0 0 0 18.83761,-18.83761 18.837505,18.837505 0 0 0 -18.83761,-18.83709 z" /></g></svg>
