<?xml version="1.0" encoding="UTF-8" standalone="no"?>
<!-- Created with Inkscape (http://www.inkscape.org/) -->

<svg
   width="200mm"
   height="200mm"
   viewBox="0 0 200 200"
   version="1.1"
   id="svg1"
   inkscape:version="1.3.1 (91b66b0783, 2023-11-16)"
   sodipodi:docname="switches.svg"
   xml:space="preserve"
   xmlns:inkscape="http://www.inkscape.org/namespaces/inkscape"
   xmlns:sodipodi="http://sodipodi.sourceforge.net/DTD/sodipodi-0.dtd"
   xmlns="http://www.w3.org/2000/svg"
   xmlns:svg="http://www.w3.org/2000/svg"><sodipodi:namedview
     id="namedview1"
     pagecolor="#ffffff"
     bordercolor="#000000"
     borderopacity="0.25"
     inkscape:showpageshadow="2"
     inkscape:pageopacity="0.0"
     inkscape:pagecheckerboard="0"
     inkscape:deskcolor="#d1d1d1"
     inkscape:document-units="mm"
     inkscape:zoom="0.34743266"
     inkscape:cx="690.78134"
     inkscape:cy="469.15566"
     inkscape:window-width="1920"
     inkscape:window-height="976"
     inkscape:window-x="-8"
     inkscape:window-y="-8"
     inkscape:window-maximized="1"
     inkscape:current-layer="layer1"
     showguides="true" /><defs
     id="defs1" /><g
     inkscape:label="Слой 1"
     inkscape:groupmode="layer"
     id="layer1"><g
       id="g23"
       transform="matrix(1.0719016,0,0,1.0719016,237.22066,-53.78584)"><circle
         style="fill:#df601c;fill-opacity:1;stroke:none;stroke-width:5.55162;stroke-linecap:round;stroke-linejoin:round;stroke-miterlimit:4;stroke-dasharray:none;stroke-dashoffset:0;stroke-opacity:1;paint-order:normal"
         id="path7407-76-0"
         cx="-183.70679"
         cy="180.11975"
         r="17.573914" /><circle
         style="fill:#547586;fill-opacity:1;stroke:none;stroke-width:5.55162;stroke-linecap:round;stroke-linejoin:round;stroke-miterlimit:4;stroke-dasharray:none;stroke-dashoffset:0;stroke-opacity:1;paint-order:normal"
         id="path7407-76-0-8"
         cx="-70.655098"
         cy="113.59074"
         r="17.573914" /><path
         id="path23"
         style="opacity:1;fill:#547586;fill-opacity:1;stroke:none;stroke-width:7.41679;stroke-dasharray:none"
         d="m -186.55212,151.41763 c -33.23422,1.52968 -38.96575,52.35517 0,57.40425 h 118.855796 c 36.521212,-6.08288 33.525123,-54.30387 0,-57.40425 z m 2.33371,6.273 h 113.773416 c 12.425692,0 22.429122,10.00343 22.429122,22.42913 0,12.42569 -10.00343,22.42912 -22.429122,22.42912 H -184.21841 c -12.42569,0 -22.42912,-10.00343 -22.42912,-22.42912 0,-12.4257 10.00343,-22.42913 22.42912,-22.42913 z"
         sodipodi:nodetypes="cccccsssssss" /><path
         id="path23-1"
         style="fill:#df601c;fill-opacity:1;stroke:none;stroke-width:7.41679;stroke-dasharray:none"
         d="m -186.55212,84.315975 c -33.23422,1.52968 -38.96575,52.355175 0,57.404255 h 118.855794 c 36.521212,-6.08288 33.525123,-54.303875 0,-57.404255 z m 2.33371,6.273 h 113.773414 c 12.425692,0 22.429122,10.003435 22.429122,22.429135 0,12.42569 -10.00343,22.42912 -22.429122,22.42912 H -184.21841 c -12.42569,0 -22.42912,-10.00343 -22.42912,-22.42912 0,-12.4257 10.00343,-22.429135 22.42912,-22.429135 z"
         sodipodi:nodetypes="cccccsssssss" /></g></g></svg>
