<?xml version="1.0" encoding="UTF-8" standalone="no"?>
<!-- Created with Inkscape (http://www.inkscape.org/) -->

<svg
   width="200mm"
   height="200mm"
   viewBox="0 0 200 200"
   version="1.1"
   id="svg1"
   inkscape:version="1.3.1 (91b66b0783, 2023-11-16)"
   sodipodi:docname="table_+.svg"
   xml:space="preserve"
   xmlns:inkscape="http://www.inkscape.org/namespaces/inkscape"
   xmlns:sodipodi="http://sodipodi.sourceforge.net/DTD/sodipodi-0.dtd"
   xmlns="http://www.w3.org/2000/svg"
   xmlns:svg="http://www.w3.org/2000/svg"><sodipodi:namedview
     id="namedview1"
     pagecolor="#ffffff"
     bordercolor="#000000"
     borderopacity="0.25"
     inkscape:showpageshadow="2"
     inkscape:pageopacity="0.0"
     inkscape:pagecheckerboard="0"
     inkscape:deskcolor="#d1d1d1"
     inkscape:document-units="mm"
     inkscape:zoom="0.49134398"
     inkscape:cx="177.06536"
     inkscape:cy="682.82103"
     inkscape:window-width="1488"
     inkscape:window-height="1041"
     inkscape:window-x="78"
     inkscape:window-y="0"
     inkscape:window-maximized="0"
     inkscape:current-layer="layer1"
     showguides="true" /><defs
     id="defs1" /><g
     inkscape:label="Слой 1"
     inkscape:groupmode="layer"
     id="layer1"><path
       id="path15-2-1"
       style="fill:#547586;fill-opacity:1;stroke:none;stroke-width:12.6102;stroke-dasharray:none"
       d="m 101.91423,48.726646 c -3.56865,-0.2972 -7.33619,1.78925 -8.389,6.73784 l -0.13489,36.89967 -33.610229,0.1919 C 46.902083,91.618776 45.466183,108.5639 59.584542,108.46438 l 33.657058,0.0114 0.38751,32.8002 c -1.79061,13.65057 17.31547,14.89352 15.609,0.0938 l 0.0671,-33.10512 36.37253,-0.3352 c 6.93571,-0.16593 9.66723,-8.642574 5.39523,-13.034884 l -7.1e-4,0.007 c -1.42401,-1.46415 -3.62603,-2.47454 -6.71028,-2.57228 l -35.01529,0.0349 -0.23874,-36.0723 c -0.25498,-4.58654 -3.6247,-7.26713 -7.19334,-7.56429 z"
       sodipodi:nodetypes="sccccccccccccccs" /><circle
       style="opacity:1;fill:none;stroke:#547586;stroke-width:12;stroke-dasharray:none;stroke-dashoffset:20.512;stroke-opacity:1"
       id="path1"
       cx="101.33225"
       cy="100.34829"
       r="84.752235" /></g></svg>
