<?xml version="1.0" encoding="UTF-8" standalone="no"?>
<!-- Created with Inkscape (http://www.inkscape.org/) -->

<svg
   width="200mm"
   height="200mm"
   viewBox="0 0 200 200"
   version="1.1"
   id="svg1"
   inkscape:version="1.3.1 (91b66b0783, 2023-11-16)"
   sodipodi:docname="temper.svg"
   xml:space="preserve"
   xmlns:inkscape="http://www.inkscape.org/namespaces/inkscape"
   xmlns:sodipodi="http://sodipodi.sourceforge.net/DTD/sodipodi-0.dtd"
   xmlns="http://www.w3.org/2000/svg"
   xmlns:svg="http://www.w3.org/2000/svg"><sodipodi:namedview
     id="namedview1"
     pagecolor="#ffffff"
     bordercolor="#000000"
     borderopacity="0.25"
     inkscape:showpageshadow="2"
     inkscape:pageopacity="0.0"
     inkscape:pagecheckerboard="0"
     inkscape:deskcolor="#d1d1d1"
     inkscape:document-units="mm"
     inkscape:zoom="0.49134398"
     inkscape:cx="600.39405"
     inkscape:cy="285.95038"
     inkscape:window-width="1488"
     inkscape:window-height="999"
     inkscape:window-x="319"
     inkscape:window-y="12"
     inkscape:window-maximized="0"
     inkscape:current-layer="layer1"
     showguides="true" /><defs
     id="defs1" /><g
     inkscape:label="Слой 1"
     inkscape:groupmode="layer"
     id="layer1"><g
       id="g9"
       transform="matrix(1.563318,0,0,1.563318,-386.04537,-22.067473)"><path
         id="path277"
         style="fill:#df601c;fill-opacity:1;stroke-width:0.999989"
         d="m 283.35245,84.435156 c -2.1876,0.1066 -1.70511,4.677221 0.19379,4.871021 l 5.92883,-0.07906 c 1.9182,-0.0078 2.2229,-4.598156 0.19431,-4.791956 z" /><path
         id="path9"
         style="fill:#df601c;fill-opacity:1;stroke-width:0.999989"
         d="m 283.19018,71.030552 c -1.5113,0.153 -1.5113,4.80764 0,4.79764 l 6.29522,-0.01137 c 1.7826,0.1608 1.93769,-4.786271 0.19379,-4.786271 z" /><path
         id="path8"
         style="fill:#df601c;fill-opacity:1;stroke-width:0.999989"
         d="m 283.24962,57.662911 c -1.5889,0.0698 -1.5307,4.483964 0,4.483964 l 6.69261,0.166398 c 1.1238,-0.0077 1.45321,-4.262876 -0.19379,-4.456575 z" /><path
         id="path7"
         style="fill:#df601c;fill-opacity:1;stroke-width:0.999989"
         d="m 283.48794,44.238168 c -1.6469,-0.0233 -1.7438,4.53409 0,4.53409 l 6.30866,0.0832 c 1.337,0.0213 1.25941,-4.603289 -0.19379,-4.617289 z" /><path
         id="path6"
         style="fill:#df601c;fill-opacity:1;stroke-width:0.999989"
         d="m 313.10595,39.827543 c -2.37987,-0.0046 -4.75991,0.763173 -4.75991,2.317171 v 54.92533 l -2.88717,1.841231 c -9.95739,6.357295 -9.35468,21.042405 1.08521,26.438695 l -0.002,0.008 c 11.23239,5.8051 24.21647,-5.03414 20.92637,-17.46973 -0.8351,-3.1545 -3.84412,-6.99666 -7.14581,-9.12606 l -2.45722,-1.58905 V 42.144714 c 0,-1.535598 -2.37952,-2.312571 -4.7594,-2.317171 z m -4.12119,64.236907 c 1.3453,0.0233 1.88878,1.73649 0.1943,3.64939 -0.6006,0.6723 -1.2397,2.59794 -1.4335,4.26434 h 0.0114 c -0.2712,2.5073 -0.58107,3.04993 -1.74357,3.24373 -2.97429,0.432 -2.41276,-6.74678 0.77463,-10.00198 0.80775,-0.82775 1.58527,-1.16606 2.19677,-1.15548 z" /><path
         id="path5"
         style="fill:#df601c;fill-opacity:1;stroke-width:0.903636"
         d="m 283.31379,30.858064 c -1.5695,0 -1.64692,4.479392 0.19378,4.494907 l 6.03168,-0.0173 c 1.64689,-0.0079 1.80189,-4.477606 0,-4.477606 z" /><path
         id="path4"
         style="fill:#547586;fill-opacity:1;stroke-width:0.999989"
         d="m 313.18037,20.055623 c -10.27319,0 -14.42152,4.958547 -15.62282,9.393742 v 62.567757 l -2.71301,3.404444 c -11.27499,14.142694 -6.1731,33.977904 10.25208,39.866304 h 0.10077 c 10.28099,3.68339 21.86995,-0.13973 27.99674,-9.23872 6.3631,-9.45369 5.59173,-21.80001 -1.93786,-30.924207 l -2.50321,-3.03444 -0.19379,-62.767228 c -0.006,-3.423697 -5.10561,-9.267652 -15.3789,-9.267652 z m -0.0486,5.154208 c 6.0202,0 10.31617,2.635237 10.31617,5.648234 v 63.276758 l 2.93367,3.003434 c 1.5443,1.548098 3.5767,4.555463 4.5067,6.684863 1.4726,3.3482 1.66658,4.53754 1.47278,8.82944 -0.3778,8.05459 -4.05385,13.84825 -10.95954,17.27594 h -0.006 c -7.7039,3.821 -16.27975,2.16418 -22.34644,-4.31911 -3.7571,-4.0167 -4.84238,-6.59195 -5.17178,-12.29434 -0.3953,-6.8068 0.89518,-10.55002 5.32267,-15.43472 l 3.42977,-3.784265 v -63.238 c 0,-2.923797 4.35749,-5.648234 10.50168,-5.648234 z" /></g></g></svg>
