<?xml version="1.0" encoding="UTF-8" standalone="no"?>
<!-- Created with Inkscape (http://www.inkscape.org/) -->

<svg
   width="200mm"
   height="200mm"
   viewBox="0 0 200 200"
   version="1.1"
   id="svg1"
   inkscape:version="1.3.1 (91b66b0783, 2023-11-16)"
   sodipodi:docname="track.svg"
   xml:space="preserve"
   xmlns:inkscape="http://www.inkscape.org/namespaces/inkscape"
   xmlns:sodipodi="http://sodipodi.sourceforge.net/DTD/sodipodi-0.dtd"
   xmlns="http://www.w3.org/2000/svg"
   xmlns:svg="http://www.w3.org/2000/svg"><sodipodi:namedview
     id="namedview1"
     pagecolor="#ffffff"
     bordercolor="#000000"
     borderopacity="0.25"
     inkscape:showpageshadow="2"
     inkscape:pageopacity="0.0"
     inkscape:pagecheckerboard="0"
     inkscape:deskcolor="#d1d1d1"
     inkscape:document-units="mm"
     inkscape:zoom="0.34743266"
     inkscape:cx="492.18171"
     inkscape:cy="447.56875"
     inkscape:window-width="1488"
     inkscape:window-height="999"
     inkscape:window-x="319"
     inkscape:window-y="12"
     inkscape:window-maximized="0"
     inkscape:current-layer="layer1"
     showguides="true" /><defs
     id="defs1" /><g
     inkscape:label="Слой 1"
     inkscape:groupmode="layer"
     id="layer1"><g
       id="g42"
       transform="matrix(1.1187959,0,0,1.1187959,8638.4812,303.37624)"><path
         inkscape:export-ydpi="600"
         inkscape:export-xdpi="600"
         sodipodi:nodetypes="ccccccc"
         inkscape:connector-curvature="0"
         id="path2657-4-6-1-4-65-4-0-6-0-1-1"
         d="m -7654.3785,-176.38346 51.0917,34.1723 -80.5805,39.7122 122.7983,-34.172 -67.4255,-38.4935 52.4586,-12.4708 z"
         style="fill:#648291;fill-opacity:1;stroke-width:0.525223" /><path
         inkscape:export-ydpi="600"
         inkscape:export-xdpi="600"
         inkscape:connector-curvature="0"
         id="path2428-9-3-0-4-3-0-3-2-6-2-6-6-1"
         d="m -7690.789,-107.96211 c -8.4028,-7.04771 -15.947,-16.59689 -19.1456,-24.23265 -2.0789,-4.96376 -2.6945,-8.53397 -2.4329,-14.11518 0.6469,-13.81387 8.7609,-25.06994 20.8464,-28.91913 11.7334,-3.73646 24.831,3.11986 30.7305,16.08707 3.5841,7.87724 4.2531,16.92155 1.7675,23.89998 -1.4634,4.10926 -4.0991,9.23654 -4.9451,9.62051 -0.6669,0.30318 -9.2222,-9.12654 -9.6344,-10.61885 -0.1311,-0.47404 0.1817,-1.92162 0.6924,-3.21743 1.3119,-3.32327 1.2829,-8.78084 -0.066,-12.07368 -1.9552,-4.78047 -5.8172,-7.92581 -10.5121,-8.56328 -8.1769,-1.10921 -15.4888,8.36431 -13.6691,17.70942 0.3114,1.59908 1.4171,4.4294 2.4576,6.28906 2.0658,3.69317 8.8702,11.67727 9.952,11.67727 0.3714,0 1.5195,-0.87717 2.5518,-1.94888 1.4363,-1.4913 2.0702,-1.83683 2.7011,-1.4717 1.1531,0.66653 8.9302,10.08841 8.9302,10.81859 0,1.5241 -12.9051,12.94105 -14.6262,12.9396 -0.5361,-2.6e-4 -3.0563,-1.74693 -5.6004,-3.88072 z"
         style="fill:#df601c;fill-opacity:1;stroke-width:0.282013" /><path
         inkscape:export-ydpi="600"
         inkscape:export-xdpi="600"
         inkscape:connector-curvature="0"
         id="path2428-9-3-0-4-3-0-3-2-6-2-6-6-1-0"
         d="m -7582.4898,-192.38097 c -8.4028,-7.04771 -15.947,-16.59689 -19.1456,-24.23265 -2.0789,-4.96376 -2.6945,-8.53397 -2.4329,-14.11518 0.6469,-13.81387 8.7609,-25.06994 20.8464,-28.91913 11.7334,-3.73646 24.831,3.11986 30.7305,16.08707 3.5841,7.87724 4.2531,16.92155 1.7675,23.89998 -1.4634,4.10926 -4.0991,9.23654 -4.9451,9.62051 -0.6669,0.30318 -9.2222,-9.12654 -9.6344,-10.61885 -0.1311,-0.47404 0.1817,-1.92162 0.6924,-3.21743 1.3119,-3.32327 1.2829,-8.78084 -0.066,-12.07368 -1.9552,-4.78047 -5.8172,-7.92581 -10.5121,-8.56328 -8.1769,-1.10921 -15.4888,8.36431 -13.6691,17.70942 0.3114,1.59908 1.4171,4.4294 2.4576,6.28906 2.0658,3.69317 8.8702,11.67727 9.952,11.67727 0.3714,0 1.5195,-0.87717 2.5518,-1.94888 1.4363,-1.4913 2.0702,-1.83683 2.7011,-1.4717 1.1531,0.66653 8.9302,10.08841 8.9302,10.81859 0,1.5241 -12.9051,12.94105 -14.6262,12.9396 -0.5361,-2.6e-4 -3.0563,-1.74693 -5.6004,-3.88072 z"
         style="fill:#df601c;fill-opacity:1;stroke-width:0.282013" /></g></g></svg>
