<?xml version="1.0" encoding="UTF-8" standalone="no"?>
<!-- Created with Inkscape (http://www.inkscape.org/) -->

<svg
   width="200mm"
   height="200mm"
   viewBox="0 0 200 200"
   version="1.1"
   id="svg1"
   inkscape:version="1.3.1 (91b66b0783, 2023-11-16)"
   sodipodi:docname="TU.svg"
   xml:space="preserve"
   xmlns:inkscape="http://www.inkscape.org/namespaces/inkscape"
   xmlns:sodipodi="http://sodipodi.sourceforge.net/DTD/sodipodi-0.dtd"
   xmlns="http://www.w3.org/2000/svg"
   xmlns:svg="http://www.w3.org/2000/svg"><sodipodi:namedview
     id="namedview1"
     pagecolor="#ffffff"
     bordercolor="#000000"
     borderopacity="0.25"
     inkscape:showpageshadow="2"
     inkscape:pageopacity="0.0"
     inkscape:pagecheckerboard="0"
     inkscape:deskcolor="#d1d1d1"
     inkscape:document-units="mm"
     inkscape:zoom="0.49134398"
     inkscape:cx="213.69958"
     inkscape:cy="492.52664"
     inkscape:window-width="1920"
     inkscape:window-height="976"
     inkscape:window-x="-8"
     inkscape:window-y="-8"
     inkscape:window-maximized="1"
     inkscape:current-layer="layer1"
     showguides="true" /><defs
     id="defs1" /><g
     inkscape:label="Слой 1"
     inkscape:groupmode="layer"
     id="layer1"><g
       id="g22"
       transform="matrix(1.0323743,0,0,1.0323743,-269.41605,-57.101831)"><ellipse
         cy="118.92401"
         cx="378.09866"
         id="path864-8-7-5-9-7-7-9"
         style="fill:#df601c;fill-opacity:1;stroke:#df601c;stroke-width:10.4706;stroke-linecap:round;stroke-linejoin:round;stroke-miterlimit:4;stroke-dasharray:none;stroke-dashoffset:0;stroke-opacity:1;paint-order:normal"
         rx="12.902532"
         ry="12.822442" /><path
         id="path21-8"
         style="fill:#547586;fill-opacity:1;stroke:none;stroke-width:38.4036;stroke-dasharray:none"
         d="m 359.39615,70.15024 c -45.46885,0.0011 -82.32789,36.86153 -82.32727,82.33038 -6.1e-4,45.46885 36.85842,82.32927 82.32727,82.33037 45.47006,6.2e-4 82.33099,-36.86031 82.33038,-82.33037 6.2e-4,-45.47007 -36.86031,-82.330996 -82.33038,-82.33038 z m 0.002,12.269019 c 38.69378,9.9e-5 70.06126,31.367581 70.06136,70.061361 1.8e-4,38.69398 -31.36738,70.06177 -70.06136,70.06187 -38.69418,1.8e-4 -70.06205,-31.36769 -70.06187,-70.06187 1e-4,-38.69398 31.36789,-70.061544 70.06187,-70.061361 z"
         sodipodi:nodetypes="ccccccsscc" /><rect
         style="opacity:1;fill:#df601c;fill-opacity:1;stroke:none;stroke-width:7.09599;stroke-dasharray:none"
         id="rect22"
         width="20.561537"
         height="185.81538"
         x="132.8582"
         y="267.86884"
         transform="rotate(-44.887502)" /></g></g></svg>
