<?xml version="1.0" encoding="UTF-8" standalone="no"?>
<!-- Created with Inkscape (http://www.inkscape.org/) -->

<svg
   width="200mm"
   height="200mm"
   viewBox="0 0 200 200"
   version="1.1"
   id="svg1"
   inkscape:version="1.3.1 (91b66b0783, 2023-11-16)"
   sodipodi:docname="urov.svg"
   xml:space="preserve"
   xmlns:inkscape="http://www.inkscape.org/namespaces/inkscape"
   xmlns:sodipodi="http://sodipodi.sourceforge.net/DTD/sodipodi-0.dtd"
   xmlns="http://www.w3.org/2000/svg"
   xmlns:svg="http://www.w3.org/2000/svg"><sodipodi:namedview
     id="namedview1"
     pagecolor="#ffffff"
     bordercolor="#000000"
     borderopacity="0.25"
     inkscape:showpageshadow="2"
     inkscape:pageopacity="0.0"
     inkscape:pagecheckerboard="0"
     inkscape:deskcolor="#d1d1d1"
     inkscape:document-units="mm"
     inkscape:zoom="0.49134398"
     inkscape:cx="662.46868"
     inkscape:cy="572.91839"
     inkscape:window-width="1488"
     inkscape:window-height="1041"
     inkscape:window-x="406"
     inkscape:window-y="18"
     inkscape:window-maximized="0"
     inkscape:current-layer="layer1"
     showguides="true" /><defs
     id="defs1" /><g
     inkscape:label="Слой 1"
     inkscape:groupmode="layer"
     id="layer1"><path
       inkscape:connector-curvature="0"
       d="M 31.632858,8.1985099 A 22.908111,22.908111 0 0 0 8.7246788,31.106689 V 168.55552 a 22.908111,22.908111 0 0 0 22.9081792,22.9077 H 169.0812 a 22.908111,22.908111 0 0 0 22.90818,-22.9077 V 31.106689 A 22.908111,22.908111 0 0 0 169.0812,8.1985099 Z M 20.17889,31.106689 A 11.454055,11.454055 0 0 1 31.632858,19.652236 H 169.0812 a 11.454055,11.454055 0 0 1 11.45421,11.454453 V 168.55552 A 11.454055,11.454055 0 0 1 169.0812,180.00949 H 31.632858 A 11.454055,11.454055 0 0 1 20.17889,168.55552 Z"
       id="path4-2-0-2-8-0-9-7-9-5"
       style="fill:#547586;fill-opacity:1;stroke-width:0.17641" /><text
       xml:space="preserve"
       style="font-style:normal;font-variant:normal;font-weight:normal;font-stretch:normal;font-size:70.1173px;font-family:'Century Gothic';-inkscape-font-specification:'Century Gothic';text-align:center;text-anchor:middle;fill:#df601c;fill-opacity:1;stroke-width:419.601;stroke-dasharray:none"
       x="114.75848"
       y="109.58688"
       id="text11"
       transform="scale(0.86760768,1.1525947)"><tspan
         sodipodi:role="line"
         id="tspan11"
         style="font-style:normal;font-variant:normal;font-weight:bold;font-stretch:normal;font-family:'Century Gothic';-inkscape-font-specification:'Century Gothic Bold';fill:#df601c;fill-opacity:1;stroke-width:419.601"
         x="114.75848"
         y="109.58688">УРОВ</tspan></text></g></svg>
