<?xml version="1.0" encoding="UTF-8" standalone="no"?>
<!-- Created with Inkscape (http://www.inkscape.org/) -->

<svg
   width="200mm"
   height="200mm"
   viewBox="0 0 200 200"
   version="1.1"
   id="svg1"
   inkscape:version="1.3.1 (91b66b0783, 2023-11-16)"
   sodipodi:docname="vector1.svg"
   xml:space="preserve"
   xmlns:inkscape="http://www.inkscape.org/namespaces/inkscape"
   xmlns:sodipodi="http://sodipodi.sourceforge.net/DTD/sodipodi-0.dtd"
   xmlns="http://www.w3.org/2000/svg"
   xmlns:svg="http://www.w3.org/2000/svg"><sodipodi:namedview
     id="namedview1"
     pagecolor="#ffffff"
     bordercolor="#000000"
     borderopacity="0.25"
     inkscape:showpageshadow="2"
     inkscape:pageopacity="0.0"
     inkscape:pagecheckerboard="0"
     inkscape:deskcolor="#d1d1d1"
     inkscape:document-units="mm"
     inkscape:zoom="0.24567199"
     inkscape:cx="553.58366"
     inkscape:cy="1241.4928"
     inkscape:window-width="1920"
     inkscape:window-height="976"
     inkscape:window-x="-8"
     inkscape:window-y="-8"
     inkscape:window-maximized="1"
     inkscape:current-layer="layer1"
     showguides="true" /><defs
     id="defs1" /><g
     inkscape:label="Слой 1"
     inkscape:groupmode="layer"
     id="layer1"><g
       id="g4"><path
         style="fill:#df601c;fill-opacity:1;stroke-width:3.34004"
         d="m 169.39729,173.30526 4.27124,-8.0185 -75.992107,-36.82469 -70.81536,44.47257 5.46502,9.54766 -27.4068899,-1.97233 12.0897699,-24.82273 4.17147,7.30991 70.77277,-44.03797 0.37901,-84.431283 -9.81491,0.62841 14.31321,-23.51762 16.605637,22.47015 -10.69259,0.0897 0.87496,84.254493 75.32393,36.44339 4.91339,-9.60303 13.48685,24.1164 z"
         id="path2-9"
         sodipodi:nodetypes="ccccccccccccccccccc" /><path
         style="fill:#547586;fill-opacity:1;stroke-width:1.844"
         d="m 118.64664,167.18471 4.24329,-2.67448 -26.346897,-38.46229 -46.12648,1.929 0.005,6.07357 -12.59874,-8.45023 12.59292,-8.58947 -0.002,4.6466 45.98705,-1.73229 23.301157,-40.372393 -4.87733,-2.38632 13.30147,-7.35496 1.8078,15.31919 -5.15057,-2.88492 -22.6516,40.631003 26.13099,38.09652 4.98502,-3.25825 -0.13811,15.2544 z"
         id="path2"
         sodipodi:nodetypes="ccccccccccccccccccc" /></g></g></svg>
