<?xml version="1.0" encoding="UTF-8" standalone="no"?>
<!-- Created with Inkscape (http://www.inkscape.org/) -->

<svg
   width="200mm"
   height="200mm"
   viewBox="0 0 200 200"
   version="1.1"
   id="svg1"
   inkscape:version="1.3.1 (91b66b0783, 2023-11-16)"
   sodipodi:docname="virtual_function.svg"
   xml:space="preserve"
   xmlns:inkscape="http://www.inkscape.org/namespaces/inkscape"
   xmlns:sodipodi="http://sodipodi.sourceforge.net/DTD/sodipodi-0.dtd"
   xmlns="http://www.w3.org/2000/svg"
   xmlns:svg="http://www.w3.org/2000/svg"><sodipodi:namedview
     id="namedview1"
     pagecolor="#ffffff"
     bordercolor="#000000"
     borderopacity="0.25"
     inkscape:showpageshadow="2"
     inkscape:pageopacity="0.0"
     inkscape:pagecheckerboard="0"
     inkscape:deskcolor="#d1d1d1"
     inkscape:document-units="mm"
     inkscape:zoom="0.69486532"
     inkscape:cx="365.53846"
     inkscape:cy="355.46457"
     inkscape:window-width="1920"
     inkscape:window-height="976"
     inkscape:window-x="-8"
     inkscape:window-y="-8"
     inkscape:window-maximized="1"
     inkscape:current-layer="layer1"
     showguides="true" /><defs
     id="defs1" /><g
     inkscape:label="Слой 1"
     inkscape:groupmode="layer"
     id="layer1"><g
       id="g22"
       transform="matrix(1.7104719,0,0,1.7104719,313.12591,37.289644)"><path
         sodipodi:nodetypes="cc"
         inkscape:connector-curvature="0"
         id="path828-4-1-4-4-9"
         d="M -127.61963,33.26119 -99.114077,6.3744735"
         style="fill:none;stroke:#547586;stroke-width:3.28129;stroke-linecap:round;stroke-linejoin:miter;stroke-miterlimit:4;stroke-dasharray:none;stroke-opacity:1" /><path
         sodipodi:nodetypes="cc"
         inkscape:connector-curvature="0"
         id="path828-5-3-3-36-9-6"
         d="m -124.67536,38.670262 33.7914,17.837903"
         style="fill:none;stroke:#547586;stroke-width:3.28129;stroke-linecap:round;stroke-linejoin:miter;stroke-miterlimit:4;stroke-dasharray:none;stroke-opacity:1" /><path
         sodipodi:nodetypes="cc"
         inkscape:connector-curvature="0"
         id="path828-4-1-4-4-1-4"
         d="m -151.82415,5.6810027 13.21776,19.5535883"
         style="fill:none;stroke:#547586;stroke-width:3.28129;stroke-linecap:round;stroke-linejoin:miter;stroke-miterlimit:4;stroke-dasharray:none;stroke-opacity:1" /><path
         sodipodi:nodetypes="cc"
         inkscape:connector-curvature="0"
         id="path828-4-1-4-4-8-6"
         d="m -159.78436,50.634597 20.78101,-11.777555"
         style="fill:none;stroke:#547586;stroke-width:3.28129;stroke-linecap:round;stroke-linejoin:miter;stroke-miterlimit:4;stroke-dasharray:none;stroke-opacity:1" /><path
         sodipodi:nodetypes="cc"
         inkscape:connector-curvature="0"
         id="path828-4-1-4-4-5-5"
         d="m -122.17447,67.062006 -7.373,-23.213937"
         style="fill:none;stroke:#547586;stroke-width:3.28129;stroke-linecap:round;stroke-linejoin:miter;stroke-miterlimit:4;stroke-dasharray:none;stroke-opacity:1" /><ellipse
         cy="34.828575"
         cx="-132.97968"
         id="path864-8-7-5-9-7-7-9"
         style="fill:#df601c;fill-opacity:1;stroke:#df601c;stroke-width:7.92064;stroke-linecap:round;stroke-linejoin:round;stroke-miterlimit:4;stroke-dasharray:none;stroke-dashoffset:0;stroke-opacity:1;paint-order:normal"
         rx="9.7602444"
         ry="9.6996603" /><path
         id="path21"
         style="opacity:1;fill:#df601c;fill-opacity:1;stroke:none;stroke-width:5.5261;stroke-dasharray:none"
         d="m -157.23878,-15.347099 a 11.846801,11.846801 0 0 0 -11.84655,11.8469514 11.846801,11.846801 0 0 0 11.84655,11.8469517 11.846801,11.846801 0 0 0 11.84695,-11.8469517 11.846801,11.846801 0 0 0 -11.84695,-11.8469514 z m 0,5.242149 a 6.6048531,6.6048531 0 0 1 6.6048,6.6048024 6.6048531,6.6048531 0 0 1 -6.6048,6.604802 6.6048531,6.6048531 0 0 1 -6.60481,-6.604802 6.6048531,6.6048531 0 0 1 6.60481,-6.6048024 z" /><path
         id="path21-2"
         style="fill:#df601c;fill-opacity:1;stroke:none;stroke-width:5.5261;stroke-dasharray:none"
         d="m -91.977571,-13.521717 a 11.846801,11.846801 0 0 0 -11.846549,11.8469514 11.846801,11.846801 0 0 0 11.846549,11.8469516 11.846801,11.846801 0 0 0 11.84695,-11.8469516 11.846801,11.846801 0 0 0 -11.84695,-11.8469514 z m 0,5.242149 a 6.6048531,6.6048531 0 0 1 6.6048,6.6048024 6.6048531,6.6048531 0 0 1 -6.6048,6.604802 6.6048531,6.6048531 0 0 1 -6.60481,-6.604802 6.6048531,6.6048531 0 0 1 6.60481,-6.6048024 z" /><path
         id="path21-24"
         style="fill:#df601c;fill-opacity:1;stroke:none;stroke-width:5.5261;stroke-dasharray:none"
         d="m -81.190002,50.568045 a 11.846801,11.846801 0 0 0 -11.84655,11.846951 11.846801,11.846801 0 0 0 11.84655,11.846952 11.846801,11.846801 0 0 0 11.84695,-11.846952 11.846801,11.846801 0 0 0 -11.84695,-11.846951 z m 0,5.242149 a 6.6048531,6.6048531 0 0 1 6.6048,6.604802 6.6048531,6.6048531 0 0 1 -6.6048,6.604802 6.6048531,6.6048531 0 0 1 -6.60481,-6.604802 6.6048531,6.6048531 0 0 1 6.60481,-6.604802 z" /><path
         id="path21-8"
         style="fill:#df601c;fill-opacity:1;stroke:none;stroke-width:5.5261;stroke-dasharray:none"
         d="m -118.75819,65.959767 a 11.846801,11.846801 0 0 0 -11.84655,11.846951 11.846801,11.846801 0 0 0 11.84655,11.846952 11.846801,11.846801 0 0 0 11.84695,-11.846952 11.846801,11.846801 0 0 0 -11.84695,-11.846951 z m 0,5.242149 a 6.6048531,6.6048531 0 0 1 6.6048,6.604802 6.6048531,6.6048531 0 0 1 -6.6048,6.604802 6.6048531,6.6048531 0 0 1 -6.60481,-6.604802 6.6048531,6.6048531 0 0 1 6.60481,-6.604802 z" /><path
         id="path21-7"
         style="fill:#df601c;fill-opacity:1;stroke:none;stroke-width:5.5261;stroke-dasharray:none"
         d="m -167.39656,43.829968 a 11.846801,11.846801 0 0 0 -11.84655,11.846951 11.846801,11.846801 0 0 0 11.84655,11.846952 11.846801,11.846801 0 0 0 11.84695,-11.846952 11.846801,11.846801 0 0 0 -11.84695,-11.846951 z m 0,5.242149 a 6.6048531,6.6048531 0 0 1 6.6048,6.604802 6.6048531,6.6048531 0 0 1 -6.6048,6.604802 6.6048531,6.6048531 0 0 1 -6.60481,-6.604802 6.6048531,6.6048531 0 0 1 6.60481,-6.604802 z" /></g></g></svg>
