<?xml version="1.0" encoding="UTF-8" standalone="no"?>
<!-- Created with Inkscape (http://www.inkscape.org/) -->

<svg
   width="200mm"
   height="200mm"
   viewBox="0 0 200 200"
   version="1.1"
   id="svg1"
   inkscape:version="1.3.1 (91b66b0783, 2023-11-16)"
   sodipodi:docname="warning1.svg"
   xml:space="preserve"
   xmlns:inkscape="http://www.inkscape.org/namespaces/inkscape"
   xmlns:sodipodi="http://sodipodi.sourceforge.net/DTD/sodipodi-0.dtd"
   xmlns="http://www.w3.org/2000/svg"
   xmlns:svg="http://www.w3.org/2000/svg"><sodipodi:namedview
     id="namedview1"
     pagecolor="#ffffff"
     bordercolor="#000000"
     borderopacity="0.25"
     inkscape:showpageshadow="2"
     inkscape:pageopacity="0.0"
     inkscape:pagecheckerboard="0"
     inkscape:deskcolor="#d1d1d1"
     inkscape:document-units="mm"
     inkscape:zoom="0.49134398"
     inkscape:cx="215.73481"
     inkscape:cy="506.77328"
     inkscape:window-width="1920"
     inkscape:window-height="976"
     inkscape:window-x="-8"
     inkscape:window-y="-8"
     inkscape:window-maximized="1"
     inkscape:current-layer="layer1"
     showguides="true" /><defs
     id="defs1" /><g
     inkscape:label="Слой 1"
     inkscape:groupmode="layer"
     id="layer1"><path
       style="fill:#df601c;fill-opacity:1;stroke-width:1.53715"
       d="m 103.52252,188.93095 c -11.859306,0.28152 -19.005517,-10.027 -18.868052,-18.93659 0.186014,-12.05616 10.040471,-18.3782 18.858332,-18.55941 10.55652,-0.21694 18.80762,9.04074 18.71773,18.59817 -0.11605,12.33757 -9.7497,18.68518 -18.70801,18.89783 z M 100.6555,127.18671 C 99.649358,119.78918 95.688303,100.59391 91.85343,84.530678 83.504731,49.560243 81.782918,33.362272 85.650096,26.181072 c 8.453896,-15.697828 33.087764,-12.187686 37.820264,5.389172 1.87699,6.970778 -0.70353,22.842885 -9.22811,56.747679 -3.30226,13.135737 -6.85605,30.281147 -7.89726,38.101037 -1.0412,7.81982 -2.3356,14.21789 -2.87677,14.21789 -0.54062,0 -1.80631,-6.05255 -2.81272,-13.45014 z"
       id="path5072-5"
       inkscape:connector-curvature="0"
       sodipodi:nodetypes="ssssscscccssc" /></g></svg>
