<?xml version="1.0" encoding="UTF-8" standalone="no"?>
<!-- Created with Inkscape (http://www.inkscape.org/) -->

<svg
   width="200mm"
   height="200mm"
   viewBox="0 0 200 200"
   version="1.1"
   id="svg1"
   inkscape:version="1.3.1 (91b66b0783, 2023-11-16)"
   sodipodi:docname="windows.svg"
   xml:space="preserve"
   xmlns:inkscape="http://www.inkscape.org/namespaces/inkscape"
   xmlns:sodipodi="http://sodipodi.sourceforge.net/DTD/sodipodi-0.dtd"
   xmlns="http://www.w3.org/2000/svg"
   xmlns:svg="http://www.w3.org/2000/svg"><sodipodi:namedview
     id="namedview1"
     pagecolor="#ffffff"
     bordercolor="#000000"
     borderopacity="0.25"
     inkscape:showpageshadow="2"
     inkscape:pageopacity="0.0"
     inkscape:pagecheckerboard="0"
     inkscape:deskcolor="#d1d1d1"
     inkscape:document-units="mm"
     inkscape:zoom="0.34743266"
     inkscape:cx="716.68564"
     inkscape:cy="110.81284"
     inkscape:window-width="1488"
     inkscape:window-height="999"
     inkscape:window-x="319"
     inkscape:window-y="12"
     inkscape:window-maximized="0"
     inkscape:current-layer="layer1"
     showguides="true" /><defs
     id="defs1" /><g
     inkscape:label="Слой 1"
     inkscape:groupmode="layer"
     id="layer1"><g
       id="g33"
       transform="matrix(2.1022315,0,0,2.1022315,6187.9149,3770.7411)"><path
         id="path32"
         style="fill:#547586;fill-opacity:0.905882"
         d="m -2867.6153,-1764.1397 -0.8997,-0.8997 -0.8997,-0.8997 -67.3436,0.544 c -0.4833,0 -0.8185,0.9834 -0.9746,1.5213 l 0.4036,61.4386 c 0,0.4352 0.7673,0.6855 1.0583,0.8046 l -5e-4,-10e-4 68.3431,-1.1979 z m -25.7576,3.4786 c 0.4689,0.025 0.948,0.1767 1.4206,0.4558 2.058,1.2157 1.793,4.347 -0.447,5.2829 -1.0906,0.4555 -1.3425,0.4473 -2.4159,-0.082 -1.0444,-0.5147 -1.6397,-1.5602 -1.6397,-2.8784 0,-0.7454 0.2053,-1.1706 0.8997,-1.865 0.6477,-0.6478 1.4008,-0.9557 2.1823,-0.9137 z m 9.001,0 c 0.4708,0.027 0.953,0.1814 1.4314,0.464 2.0837,1.2308 1.857,4.14 -0.4066,5.2142 -1.0912,0.5178 -1.3774,0.5163 -2.4454,-0.01 -1.9663,-0.9696 -2.3256,-3.1972 -0.7669,-4.7558 0.6504,-0.6504 1.4029,-0.9574 2.1875,-0.9121 z m 8.6868,0.013 c 1.6084,0 3.0417,1.3986 3.0417,2.9631 0,0.9631 -0.9862,2.3253 -1.9808,2.7409 -0.5015,0.2096 -1.005,0.3652 -1.1188,0.3452 -1.1349,-0.1976 -1.4796,-0.3846 -2.1786,-1.1808 -1.7089,-1.9463 -0.3663,-4.8684 2.2365,-4.8684 z m -55.8276,10.9797 h 57.6792 l 0.1349,41.9365 h -57.95 z"
         sodipodi:nodetypes="cccsccccccsssssssssssssssssscssccccc" /><path
         id="path33"
         style="fill:#df601c;fill-opacity:1"
         d="m -2922.6393,-1790.4128 -0.865,0.8651 -0.8646,0.8645 -0.1503,21.1656 6.3686,0.04 v -6.6636 h 57.9437 v 43.1271 c -1.9036,-0.02 -3.812,0.058 -5.7118,-0.096 l -0.031,6.4445 11.4043,-0.2888 0.4234,-63.7796 -0.7508,-0.7509 c -0.501,-0.501 -1.1392,-0.8064 -1.9183,-0.9178 z m 60.448,5.1599 c 0.8228,0 2.1341,0.7927 2.5911,1.5663 0.8567,1.4503 0.3336,3.3623 -1.1271,4.1176 -2.7391,1.4165 -5.6054,-1.4937 -4.0555,-4.1176 0.457,-0.7736 1.7688,-1.5663 2.5915,-1.5663 z m -8.7023,0.029 c 0.4673,0.035 0.9336,0.2258 1.4532,0.5752 1.7041,1.1458 1.8132,3.3264 0.2382,4.7537 -1.1976,1.0852 -2.6717,1.0195 -3.8633,-0.1721 -0.733,-0.733 -0.8997,-1.1022 -0.8997,-1.9937 0,-1.2763 0.5702,-2.2697 1.6133,-2.8091 0.5226,-0.2702 0.9911,-0.3895 1.4583,-0.354 z m -9.1834,0 c 0.74,-0.01 1.4875,0.331 2.1766,1.0201 0.6202,0.6201 0.7602,0.9874 0.7602,1.9973 0,1.0545 -0.1331,1.3707 -0.8997,2.1373 -0.7375,0.7375 -1.0997,0.8997 -2.0107,0.8997 -0.911,0 -1.2733,-0.1622 -2.0108,-0.8997 -0.7561,-0.7562 -0.8997,-1.0892 -0.8997,-2.0887 0,-0.9419 0.1567,-1.3569 0.7535,-1.9958 0.6583,-0.7047 1.3906,-1.0616 2.1306,-1.0702 z"
         sodipodi:nodetypes="ccccccccccccsccsssssssssssssssssssss" /></g></g></svg>
