<?xml version="1.0" encoding="UTF-8" standalone="no"?>
<!-- Created with Inkscape (http://www.inkscape.org/) -->

<svg
   width="200mm"
   height="200mm"
   viewBox="0 0 200 200"
   version="1.1"
   id="svg1"
   inkscape:version="1.3.1 (91b66b0783, 2023-11-16)"
   sodipodi:docname="zoom_def.svg"
   xml:space="preserve"
   xmlns:inkscape="http://www.inkscape.org/namespaces/inkscape"
   xmlns:sodipodi="http://sodipodi.sourceforge.net/DTD/sodipodi-0.dtd"
   xmlns="http://www.w3.org/2000/svg"
   xmlns:svg="http://www.w3.org/2000/svg"><sodipodi:namedview
     id="namedview1"
     pagecolor="#ffffff"
     bordercolor="#000000"
     borderopacity="0.25"
     inkscape:showpageshadow="2"
     inkscape:pageopacity="0.0"
     inkscape:pagecheckerboard="0"
     inkscape:deskcolor="#d1d1d1"
     inkscape:document-units="mm"
     inkscape:zoom="0.34743266"
     inkscape:cx="143.91278"
     inkscape:cy="411.59055"
     inkscape:window-width="1920"
     inkscape:window-height="976"
     inkscape:window-x="-8"
     inkscape:window-y="-8"
     inkscape:window-maximized="1"
     inkscape:current-layer="layer1"
     showguides="true" /><defs
     id="defs1" /><g
     inkscape:label="Слой 1"
     inkscape:groupmode="layer"
     id="layer1"><g
       id="g9"><path
         style="fill:#547586;fill-opacity:1;stroke:none;stroke-width:17.0118;stroke-dasharray:none"
         d="m 53.627176,130.49503 -35.178678,35.17872 c -13.503307,14.65158 4.647534,36.09697 22.591817,25.49649 l 36.146979,-38.72886 z"
         id="path5"
         sodipodi:nodetypes="ccccc" /><path
         id="path4"
         style="fill:#df601c;fill-opacity:1;stroke:none;stroke-width:17.1124;stroke-dasharray:none"
         d="M 112.67248,8.3163203 A 77.592077,77.592077 0 0 0 35.080216,85.908581 77.592077,77.592077 0 0 0 112.67248,163.50087 77.592077,77.592077 0 0 0 190.26476,85.908581 77.592077,77.592077 0 0 0 112.67248,8.3163203 Z m 0,14.0439397 a 63.548115,63.548115 0 0 1 63.5471,63.548321 63.548115,63.548115 0 0 1 -63.5471,63.548349 A 63.548115,63.548115 0 0 1 49.124156,85.908581 63.548115,63.548115 0 0 1 112.67248,22.36026 Z" /><path
         style="fill:#547586;fill-opacity:1;stroke-width:4.5244"
         d="M 112.30896,82.277142 96.528357,57.7565 h 9.361263 V 24.981394 h 13.32421 V 57.7565 h 9.36129 z"
         id="path9"
         sodipodi:nodetypes="cccccccc" /><path
         style="fill:#547586;fill-opacity:1;stroke-width:4.5244"
         d="M 112.30896,89.543325 96.528357,114.06398 h 9.361263 v 32.77511 h 13.32421 v -32.77511 h 9.36129 z"
         id="path9-5"
         sodipodi:nodetypes="cccccccc" /><path
         style="fill:#547586;fill-opacity:1;stroke-width:4.5244"
         d="m 115.89752,86.108459 24.52063,-15.780607 v 9.361284 h 32.77511 v 13.324201 h -32.77511 v 9.361283 z"
         id="path9-9"
         sodipodi:nodetypes="cccccccc" /><path
         style="fill:#547586;fill-opacity:1;stroke-width:4.5244"
         d="M 108.6313,86.108459 84.110679,70.327852 v 9.361284 H 51.335576 v 13.324201 h 32.775103 v 9.361283 z"
         id="path9-5-1"
         sodipodi:nodetypes="cccccccc" /></g></g></svg>
